<?xml version="1.0" encoding="UTF-8"?><svg id="a" xmlns="http://www.w3.org/2000/svg" width="937.02" height="727.31" viewBox="0 0 937.02 727.31"><defs><style>.b{fill:none;stroke:#000;stroke-miterlimit:10;stroke-width:5px;}</style></defs><path class="b" d="M310.47,683.53c-13.13,4.69-53.68,17.3-98.78,1.28-7.48-2.66-75.2-17.17-79.97-75.47-2.21-26.96-6.73-52.95-11.17-98.89-2.16-22.35-23.8-17.97-83.84-71.19-3.37-2.99-6.13-5.46-7.95-7.11-3.43-2.84-8.03-7.15-12.51-13.21-5.26-7.11-19.45-22.95-14.03-36.96,5.37-13.87,17.27-23.19,41.83-37.39,13.23-7.65,32.19-17.2,56.45-24.91,12.87-2.28,25.75-4.56,38.62-6.84,5.4,.4,10.8,.8,16.2,1.2,0,0-.75-4.13-1.85-10.75-12.2-72.95-13.48-85.53-6.2-94.76,3.53-4.48,10.88-10.53,27.84-11.63,13.14,1.55,30.48,4.7,49.87,11.48,8.08,2.82,35.24,12.82,65.05,35.34,33.46,25.28,54.75,54.63,67.76,76.91l61.36,95.19s62.87,102.52,68.01,104.8c5.14,2.28,22.72,45.38,53.24,68.93,30.31,23.38,48.05,28.12,50.49,47.06,3.86,29.88-38.93,61.02-43.23,64.08-1.81,1.29-3.63,2.51-5.47,3.67-2.63,1.66-5.28,3.18-7.94,4.58-2.69,1.42-5.41,2.71-8.14,3.88-25.37,10.93-52.24,12.05-79.83,13.2-20.52,.86-37.45-.48-49.12-1.87-17.32-2.68-43-9.06-68.78-26.04-25.26-16.64-39.95-36.43-55.52-60.12-31.09-47.3-57.58-87.61-80.94-152.51-14.48-40.25-30.78-98.34-36.6-171.47"/><path class="b" d="M534.25,708.95c27.99-6.81,57.37-13.24,88.07-19.08,33.91-6.45,66.45-11.6,97.45-15.7,36.18-4.78,63.72-8.3,79.93-10.15,31.8-3.63,59.67-6.34,82.5-8.35,4.8-.21,20.33-1.43,27.19-12.24,5.64-8.88,2.69-19.91-2.52-34.47-6.29-17.58-16.35-41.67-32.69-69.37-4.64-7.26-12.79-20.08-22.85-36.26-22.34-35.96-28.27-46.82-36.02-51.09-1.42-.78-2.66-1.24-4.44-1.77-16.63-4.93-34.88,6.89-54.27,19.8-3.1,2.06-7.07,4.82-11.58,8.25-18.2,12.29-36.4,24.58-54.6,36.88l-64.47,42.72-13.41,8.04-14.27,8.55-42.92,25.71c7.6-4.23,17.84-10.32,29.43-18.52,9.6-6.79,23.76-16.8,39.16-32.54,5.34-5.46,12.42-13.22,20.02-23.32-1.45,1.94-2.62,3.44-3.7,4.78-3.7,4.57-7.26,8.68-7.31,8.63-.07-.06,5.84-6.81,11.01-13.41,7.1-9.07,22.11-28.53,31.01-54.12,1.58-4.54,3.17-9.87,6.26-20.2,.28-.92,3.31-10.61,6.04-20.98,6.48-24.58,10.06-40.55,11.96-47.15,11.54-40.1,45.58-39.08,71.93-83.49,3.7-6.23,22.95-43.77,10.53-73.77-14.1-34.06-64.83-47.4-64.51-48,.08-.14,2.73,1.14,2.75,1.09,.08-.16-27.04-12.08-55.84-29.49-6.22-3.76-7.49-4.74-13.86-8.43-14.26-8.28-26.37-14.12-34.47-17.8-5.03-2.55-12.39-6.05-21.28-10.2-13.62-6.35-20.54-9.3-26.49-11.01-20.59-5.93-39.67-.7-48.83,1.81-20.13,5.52-33.63,15.29-45.83,24.12-16.02,11.59-27.64,23.63-35.31,32.58-3-1.94-6-3.88-9-5.81l-29.58-15.26c-.93-.51-1.85-.93-2.76-1.27-11.2-4.21-23.42,1.92-28.87,5.13-2.36,1.65-5.79,4.38-9.06,8.46-13.96,17.43-9.71,51.5-9,58.89,1.81,18.9,1.16,46.22-10.53,81.73,3.4,5.23,6.81,10.47,10.22,15.71,12.09,18.56,24.19,37.03,36.31,55.42,12.75,19.9,25.5,39.79,38.25,59.69l4.97,7.99,14.85,23.89c1.45,2.32,2.91,4.63,4.36,6.95,32.73-3.95,77.66-12.42,128.89-31.89,85.51-32.5,141.2-77.63,141.17-77.68-.03-.05-57.78,46.23-144.22,78.65-51.07,19.15-95.36,27.17-125.84,30.92-5.8-9.18-11.6-18.36-17.39-27.54,8.43-4.62,21.95-11.72,39.06-19.3,21.68-9.61,28.44-10.82,57.42-22.8,22.56-9.33,39.37-17.25,45.81-20.31,20.91-9.96,38.09-19.15,50.47-26.06,8.74-5.03,21.35-12.56,36.18-22.41,17.07-11.35,25.6-17.02,32.32-23.13,6.38-5.8,31.61-29.35,39.06-66.1,2.36-11.64,6.47-31.92-4.63-47.52-4.43-6.22-9.92-9.81-13.92-11.85-9.22-4.18-22.73-10.68-38.68-19.8-8.46-4.84-6.67-4.16-9.77-5.74-30.07-15.34-62.99-9.99-77.61-7.61-1.4,.23-2.51,.42-3.02,.52-8.52,3.44-23.65,10.96-36.45,26.62-13.83,16.92-28.36,47.53-17.77,66.72,1.93,3.5,10.9,8.41,28.74,18.09,11.64,6.31,29.8,15.73,50.38,18.41,4.27,.56,10.13,1.02,16.44-2.07,7.62-3.72,11.54-10.47,12.92-12.92,.84-1.5,10.79-19.82,.66-34.35-6.38-9.14-18.39-13.47-29.55-9.79-9.29,3.07-14.19,9.99-15.49,12.11"/><path class="b" d="M438.01,161.01c11.24,13.92,26.44,30.41,46.34,46.72,17.66,14.48,30.94,22.2,57.33,37.54,30.84,17.92,45.95,23.4,62.67,25.82,6.69,.97,12.32,1.26,16.17,1.34"/><path class="b" d="M228.16,210.27c-.39-.18-.75-.39-1.1-.62-12.3-8.34,2.36-50.58,9.51-69.39,2.41-6.34,5.59-12.46,10.86-20.08,10.55-15.27,22.93-24.21,32.12-30.29,39.84-26.37,73.34-37.35,73.34-37.35C536.89-7.8,572.55-.77,590.13,4.08c36.02,9.93,53.4,26.45,60.32,34.1,6.48,7.16,36.78,40.64,25.73,80.04-4.02,14.35-12.02,24.59-17.66,30.54"/><path class="b" d="M678.48,104.35c12.17-4,31.59-9.1,55.1-9.29,96.75-.75,187.46,82.37,200.21,179.3,2.46,18.69,6.21,50.45-9.87,85.05-20.83,44.82-75.26,67.12-119.82,87.1-11.55,5.18-21.21,8.91-27.56,11.24-20.08,14.07-40.6,28.14-61.57,42.16-54.32,36.33-107.65,69.74-159.65,100.49"/></svg>