<?xml version="1.0" encoding="UTF-8"?><svg id="a" xmlns="http://www.w3.org/2000/svg" viewBox="0 0 595.28 841.89"><defs><style>.b{fill:none;stroke:#1d1d1b;stroke-miterlimit:10;}</style></defs><path class="b" d="M146.39,372.57s2.33-5.95,7.24-5.43c4.91,.52,10.6,1.68,10.6,1.68l-1.46,.82,6.25,2.45s.3,1.1-.8,1.77c-1.25,.77-3.29,.25-3.29,.25-2.98-.77-6.06-1.04-9.07-1.7-2.17-.47-5.33-.77-9.48,.15Z"/><path class="b" d="M169.68,370.7s1.44,1.64,5.06,.71c0,0,1.06-.98,6.13,.29l9.94,1.59s2.63,.52,4.19,1.01,3.63,.99,3.63,.99v1.19l-10.44,.63,8.19,6.44-5,1.75s-.25-2.81-3.75-3.38l-3.5-.56s-1.56,.25-2.25,3.38-3.44,3.94-4.06,4-3.75,.25-4,0c0,0-3.66-1.69-4.74-3,0,0-1.26-2.13-1.33-2.81l-5.75,2.69v.56l4.25,2.38s-4.5,3.56-6.75-.56c0,0-1.13-2.19,1.88-5.63,0,0,2.69-2.88,9.07-3.94s13.44-1.75,13.44-1.75c0,0-8-2.38-11.94-1.75s-2.88-3.1-2.25-4.21Z"/><path class="b" d="M192.03,385.74l5.01,2.1s-2.22,5.05-10.27,6.72c0,0-4.24,.04-5.73,.51s-6.55-.86-6.55-.86v-1.11s16.44-2.6,17.54-7.36Z"/><path class="b" d="M235.98,373.16l-6.92,4.2,.49,.63h3.92s-2.66,3.29,.84,4.55,9.02,1.26,9.02,1.26c0,0,6.22-.42,8.18-1.89s2.38-1.12,1.12-5.39c0,0-3.15,1.4-4.97,3.22s-6.46,.14-6.46,.14c0,0-2.98-.21-5.22-6.71Z"/><path class="b" d="M249.68,366.73s10.49-4.41,17.07-3.64c0,0-.41,1.88,0,3.01s-.08,2.71-1.54,2.86c0,0-1.85,.38-2.03,.49s-.38,.15-2.34-.9-8.78-1.62-10.14-.75l-1.01-1.07Z"/><path class="b" d="M246.26,385.6v1.1l-1.17,.95h9.24s1.61,.66,2.2,1.54c0,0,3.67-1.83,4.4,1.91,0,0,1.32,3.37,2.05,4.91,0,0,.59,2.49,.88,3.01s0,3.08-2.05,3.01c0,0-.73-.44-1.47,6.23l-1.32,9.31s-3.3-.34-5.14,3.09-4.18,5.87-5.92,5.82-4.08-1.14-4.08-1.14l-4.43-1.99s-2.19-.65-3.43-.3c0,0,1.05-4.13,2.14-5.32s2.49-2.54,2.74-5.23,.4-4.78-3.33-9.85c0,0,.35-2.04-.6-3.38s-5.72-11-5.72-11c0,0-.8-2.41,2.49-2.67s12.54,0,12.54,0Z"/><polygon class="b" points="214.7 440.17 220.7 440.57 220.7 442.7 214.7 441.84 214.7 440.17"/><path class="b" d="M190.75,449.04l6.41,.47s.66-.34,1.44,1.47c0,0-.91,.78-1.47,.78s-6.59-1.36-6.59-1.36l.22-1.36Z"/><path class="b" d="M242.84,490.68s5.36-5.36,11.38,1.69l-11.38-1.69Z"/><path class="b" d="M251.52,503.11s3.8-2.3,4.07-2.36,3.03-2.7-.7-4.84-7.14-2.48-7.14-2.48c0,0-3.58-.43-4.75,.55s0,2.67,0,2.67c0,0,.7,.95,2.11,1.84s6.4,4.63,6.4,4.63Z"/><path class="b" d="M113.64,369.77s1.93,1.77,2.25,3.87c0,0,3.26,.6,3.58,4.79s1.49,5.52,1.49,5.52l1.21,2.42s-3.7,1.61-8.54-4.59-5.07-6.85-4.67-9.18,4.67-2.82,4.67-2.82Z"/><path class="b" d="M254.63,314.07c1.43-.44,2.79-1.76,2.79-1.76,2.14-1.43-.22-2.17-.22-2.17l-12.77-2.01c.68,1.58,3.22,3.63,3.22,3.63,4.15,3.01,6.85,2.32,6.85,2.32l.56,1.64c.74,1.92,1.19,1.88,1.19,1.88l19.06,11.76-.35,.71-11.48-5.49-1.24,3.26-5.6-.5,2.47,6.03,3.57,1.34,.71,2.11c.31,1.57,1.36,2.74,3.28,2.65s2.49,.21,2.49,.21l-8.02,1.67-1.96-.15-.92,1.46-1.8,.65-1.11-.08-.31,.96,.67,.92,.23,.84c.03,1.45,.21,3.45,.21,3.45,.48,2.89,5.53,2.84,5.53,2.84-.89,2.26-4.38,4.79-4.38,4.79-7.04,3.49-13.95,7.8-16.41,9.85s-4.99,3.82-4.99,3.82c0,0-3.01,1.3-5.47,3.01s-7.52,8.89-8.89,10.87-2.04,4.84-2.37,7.49,1.38,6.51,1.69,7.34,.13,2.97,.13,2.97c.29,1.87-.34,3.61-.34,3.61-1.09,3.24,1.33,4.18,1.33,4.18-.75,1.9,.67,4.68,.67,4.68,0,0,1.41,2.59,1.05,3.06s-.39,2.48-.39,2.48c.24,3.53,3.05,6.67,3.78,8.14s.37,1.99,.37,1.99l-.4,.24s-1.51,.82-1.77,2.49,.42,3.85,.5,4.51-.5,2.03-.5,2.03l9.77,3.38c-.75,.63-15.82,5.1-15.82,5.1-3.73,1.45-5.65,.47-5.65,.47-4.63-1.49-14.33,.55-14.33,.55,0,0,1.57,1.37,3.49,2.48s3.91,.93,4.93,.66,3.73,.59,3.73,.59c2.2,.82,9.74-.79,9.74-.79,.86-.51,2,.16,2,.16l2.51,1.34-1.3,.94,5.54,.9s-1.69,1.92-2.67,2.71-1.26,3.26-.43,4.4,2.32,9.46,2.32,9.46c1.81-.51,3.38-2.47,3.38-2.47l18.89-26.95s.43-.97,1.57-1.52,1.69,1.52,1.69,1.52c0,0,.24,3.27,.67,10.38s.71,7.13,.71,7.13c0,0,.35,4.12-5.14,4.55s-14.61,6.79-17.51,10.17-6.24,3.18-6.87,3.06-2.71-.2-3.34-.27-3.22,.27-4.4,.51-.86,.31-1.41,1.77-.04,1.96-.04,1.96l9.17,13.49,.32,.09c.73,2,2.73,5.46,4.99,6.99s3.66,4.66,3.66,4.66v1.2s-2.26,.47-4.06,.27-1.8,.27-1.8,.27c-2.6,2.06-7.66,0-7.66,0,0,0-6.52-2.4-7.86-2.26s-4.13-.87-4.13-.87l-7.26-4.26s-.4-3.93-3.86-6.92-4.26-6.59-4.26-6.59h1.8s.34-.76-.05-1.61-1.98-4.08-2.21-4.31-2.24-3.77-3.69-4.94l-5-5.43-4.53-3.38-13.12-8.83s-9.67-7.14-10.3-7.87c0,0-8.09-7.71-8.94-8.72s-8.61-9.51-10.11-13.13c0,0-3.46-7.29-4.01-8.84s-5.04-14.76-5.04-14.76l-2.59-7.06s-1.06-2.02-2.48-2.78-7.03-4.06-8.79-6.89-3.31-6.59-3.31-6.59c0,0-.54-1.77-2.07-2.89s-4.77-7.38-4.41-10.35c0,0-.03-3.95-.19-4.52s-.52-3.76-.14-4.47-.33-3.51-.33-3.51c0,0-1.61-3.95-1.47-4.41,0,0,2.89-.65,7.06,2.43s6.95,3.68,7.33,3.68,3.54-4.17,3.68-6.35,.79-3.16,1.5-3.79,1.66-2.04,1.63-2.56,.27-1.31-2.15-2.67-.84,.08-2.18-1.63l3.57,.08-1.47-1.96s2.29-7.6,3.84-10.11,4.69-3.76,4.69-3.76c0,0,2.97-1.05,3.68-3.28,0,0,.38-1.28,.35-1.58l-7.66,.57s1.25-4.25,1.28-4.69,.25-2.81,2.15-3.41c0,0,2.59-.38,3.35-.84l3.46-1.85,4.77,4.5,2.02,1.06,3.49-2.15s2.1-1.83,2.34-2.34,2.37-1.28,3.68-1.12,6.21,1.88,6.21,1.88c0,0,3.68-1.34,5.15-1.14s1.61,.44,1.61,.44l.22-.3-2.81-3.51s3.16-.87,3.41-.95,2.75-.49,3.9-.35,4.69-.22,5.01-.38,1.88-.76,2.4-1.17,3.81-1.63,6.76-1.34,6.98,.25,8.31,.52,8.96,1.39,8.96,1.39c0,0,6.95-.35,7.6-.22s4.5,.3,4.5,.3c0,0,2.86-.03,4.03-3.79l5.48,1.83,3.98-1.47-.25,.52-.6-.63s-1.06-.35-1.47-1.5-.71-1.99-.71-1.99l1.42-.38s.76-.22,1.61,.38,5.8,3.27,5.8,3.27c0,0,.93,.71,2.7,.3,0,0-.27,2.26,2.1,4.14s4.85,1.31,4.85,1.31c0,0,6.84-.76,8.91-.76,0,0,1.96,.14,3.41,.57s2.23,.14,2.23,.14c0,0,.98-.03,1.36,.19,0,0-2.56,.05-2.75,1.72l-.03,.13v.03"/><polyline class="b" points="259.12 333.37 263.27 331.14 264.89 333.93 263.66 336.31 263.4 336.82"/><line class="b" x1="262.69" y1="334.71" x2="263.66" y2="336.31"/><polyline class="b" points="255.87 346.07 264.05 342.63 262.86 341.3 261.15 341.35 260.12 342.63 258.87 343.24 256.98 343.84 257.03 344.52 257.04 344.62 256.39 343.84 255.36 343.22"/><polyline class="b" points="258.3 345.17 258.08 345.02 257.02 344.41"/><polygon class="b" points="256.35 343.22 257.09 343.95 256.35 343.95 256.35 343.22"/><line class="b" x1="258.27" y1="342.65" x2="258.87" y2="343.24"/><polyline class="b" points="259.19 341.19 259.54 342.04 260.12 342.63"/><path class="b" d="M327.96,368.36l-13.22,1.64,3.22,.57,.07,.58-10.01,2.91,.23,.61,1.27,.42s-5.68,2.11-9.36,4.76-9.97,6.79-9.97,6.79c0,0,1.57,1.84-.38,3.84s-5.06,4.45-6.6,7.98c0,0-7.56,12.77-7.56,13.08s-2.45,5.64-3.11,9.74-1.84,9.78-1.84,12.93-.35,4.1,.31,8.17,4.72,15.42,7.4,19.64c0,0,.81,1.69,.5,2.91,0,0-2.42,.65-3.87,3.91s-3.15,8.28-3.15,8.28c0,0-1.04,2.26-.42,6.67,0,0,.27,1.84,2.07,4.72s6.21,10.05,6.21,10.05l.77-.5-.58-4.64,.61-.35,3.45,3.8s3.45-.88,1.19-4.72-3.64-5.79-3.64-5.79c0,0-.77-.88-.88-2.68,0,0,5.02,2.8,6.02,3.38s1.96,1.34,1.96,1.34c0,0,1.88,1.15,2.95-1.34,0,0,1-4.6-1.19-5.79s-5.18-5.75-5.18-5.75c0,0,.35,2.99,2.19,5.06l4.07,6.1s1.46,.46,1.92,.92,10.05,13.16,10.32,13.81,4.37,6.52,5.41,7.21,9.51,7.36,9.51,7.36c0,0,4.3,3.3,5.45,4.79s8.13,6.87,9.59,7.1c0,0,8.25,4.3,11.97,4.79s12.77,3.22,12.77,3.22c0,0,11.85,3.45,16.99,3.45s15.34-.81,17.07-1.61c0,0,15.53-3.68,18.91-5.48s6.14-1.69,9.17-4.6c0,0,1.92-2.03,3.91-2.45s13.12-9.13,13.12-9.13l-1.53-2.15,1.53-2.45s-3.72-1.84-1.84-7.21l-3.49-3.64s-1.99-1.19-1.65-7.52l-2.26-.27,.69-.5-2.38-4.14s-1.5-2.61-3.72-4.37-4.49-6.67-4.22-8.55c0,0-.27-2.72,1-6.33,0,0-3.41-.77-3.91-.92s-2.26-.5-3.53,.69c0,0-2.1,1.21-2.41,1.25s-2.14,.8-2.14,.8c0,0-1.82,.3-2.23,.3s-5.22,.87-5.22,.87c0,0-3.1-.02-3.66-.39,0,0-1.21-.35-1.21-.5s-1.04-.41-1.86,0c0,0-.82,.02-1.23-.06,0,0-3.81,.09-5.56-1.06s-4.24-3.2-4.24-3.2l-2.77-2.49s-.45-.37-.67-.82-2.38-3.38-2.38-3.38l-3.2-4.48-3.25-4.61s-3.07-4.46-3.23-4.76-2.04-3.57-2.16-4.57-.89-4.05-.45-5.59l-2.36-.04s3.49-1.62,.35-4.31-4.94-3.94-4.94-3.94c0,0-3.88-3.27-7.51-2.45s-5,1.75-5,1.75c0,0,1.75-9.03,2.38-10.5s3.2-4.16,6.39-3.88l.06-1.86,2.47,.17s1.56,1.54,2.49,1.45,3.59-.65,4.05-1.13,.06-1.69,.06-1.69l-.19-1.41s-.5-2.06-.19-3.1,.89-2.94,.89-2.94l6.67,.52s-.65,3.96,.41,5.13,2.75,2.19,2.75,2.19c0,0-2.66,2.97-2.34,5.67s.69,3.42,1.23,4.18,1.71,1.88,2.27,2.25,1.34,.78,1.88,2.47c0,0,.65,2.49,.67,3.4s.97,1.99,1.26,2.23,2.25,1.17,2.25,1.17c0,0,1.19,.41,1.99,2.06s1.28,2.75,2.16,3.27,1.19,1.02,2.32,.84,1.93-1.54,1.93-1.54c0,0,1.67-1.58,2.12-1.58s1.65-1.6,1.65-1.6c0,0,1.32-1.71,3.53-1.99s4.83-.95,4.98-1.06,.78-.58,2.01,.04,2.08,.97,2.08,.97l.3-.43-3.14-1.49,3.92-.97s1.06,2.86,4.24,2.64c0,0,1.62-.3,2.55-.91s2.62-.74,3.4-.26,1.86,2.62,1.86,2.62l6.17,2.4-7.45,1.43s5.24,4.44,7.84,4.96c0,0,1.08,.65,2.66,.35s1.06-3.42,1.06-3.42c0,0,.5-2.32,3.66-1.97,0,0,5.41,1.69,5.93,1.71l-2.21,1.71s-.15,.24,.35,.41,2.25,1.23,2.25,1.23c0,0,.84,.58,.37,1.39s-1.15,.95-1.15,.95c0,0-2.88,.69-4.52-.37s-2.38-2.01-2.38-2.01c0,0-1.95-2.66-2.12-2.86s-.08-.1-.08-.1"/><path class="b" d="M413.89,424.41l3.49-.57s.84,2.36,0,3.2-4.12,.64-4.12,.64c0,0,1.79-.89,2.07-1.35s-.08-1.09-1.44-1.93Z"/><path class="b" d="M392.74,442.97v1.26l1.55,6.89s-5.77-.5-6.45-2.7-.04-2.99,.94-3.71,3.97-1.73,3.97-1.73Z"/><path class="b" d="M392.93,453.59l12.6-2.04s-1.76,2.42-5.34,3.36-7.26-1.32-7.26-1.32Z"/><path class="b" d="M334.42,434.44s1.29-1.79,1.73-2.36,1.32-1.7,3.71-1.7,3.08-.25,3.08-.25c0,0-.09,3.52-2.48,5.06s-3.84,1.01-3.84,1.01c0,0-1.64-1.04-2.2-1.76Z"/><path class="b" d="M309.87,419.83l19.53-12.59s2.98-2.13,3.1-2.37,.55-1.09,3.16,.79l4.44,2.43s-4.2,2.98-4.62,3.65-5.54,3.04-5.9,2.98-4.74,1.4-5.35,1.95-5.23,2.13-6.08,2.37-7.6,1.91-7.6,1.91l-.67-1.12Z"/><path class="b" d="M352.48,390.69l.49,2.1-1.42,.49s-.8-.03-1.21-.28-2.75-.62-3.77,1.05-3.74,6.8-3.74,6.8l1.02,1.61,4.55,.59-1.92,1.08,.22,.62,5.75-1.86-2.1-.9s1.05-.8,1.08-.96,1.82-.74,1.82-.74c0,0,2.91-1.52,4.67-3.46s2.13-3.03,2.29-3.43,.62-2.63-1.95-3.06l-5.78,.34Z"/><path class="b" d="M338.93,402.99s.79-1.36,.86-1.48,.85-1.26,1.01-1.32,.29-.2,.89,.16,1.36,.69,1.36,.69l-.72,.12,1.72,1.27s-.12,1.47-.93,1.81-2.12-.31-2.12-.31l-2.06-.93Z"/><path class="b" d="M356.22,410.91v-.08l.39-3.61,5.86,.95c.07,.01,.11,.02,.11,.02"/><path class="b" d="M344.2,373.93l10.28,.67-.14,.63-4,.58,5.9,6.33s-1.49,.12-1.9,.24-.46,.36-1.85-.75-3.13-2.24-3.13-2.24c0,0-3.01-2.82-3.59-4.43,0,0-1.47-.58-1.56-1.04Z"/><path class="b" d="M327.66,368.36l-7.52-7.22,.34-.72,4.31,1.65-.13,.22,5.14-1.87,4.69-2.89,.58-.14,1.07-.89,3.61,1.22,2.02,.02,2.96-3.26-.63-.66s-1.22,.93-1.51,1-1.19,.08-1.76-.13-1.08-.31-1.08-.31l-.86-.67,1.62-.94,2.2-1.02-3.5-2.85-1.3-3.69-2.21,.19s-.69,1.57-1,1.93-.71,.3-.71,.3c0,0-1.29,.16-1.43,1.49s.27,2.24,.27,2.24l1.04,.75-.36,.21-.3,.17-.32-1.01s-.76-1.82-1.09-2.13-1.62-2.45-4.29-2.58l-3.31,2.82,4.09,5.93,4.71-2.95,1.04-.55,1.35-.13,1.64,.16,.3,3.22-2.91-.16-.58-2.92"/><polyline class="b" points="339.16 348.94 337.6 349.64 337.74 349.53 336.64 349.55 337.01 351.1 336.96 352.13 337.71 352.13 337.02 351.13"/><polyline class="b" points="337.61 349.72 337.61 351.87 337.71 352.21 338.85 353.64"/><path class="b" d="M342.19,351.41l-.09-.11s-.95-.21-1.58,.05,.06,1.38,.06,1.38"/><polyline class="b" points="339.76 354.47 338.61 355.32 337.22 355.19 339.8 357.77"/><path class="b" d="M334.61,357.6l-6.39-2.2s.43,.03-.49,2.45,1.3,2.5,1.3,2.5h.91"/><path class="b" d="M341.56,357.77s1.22-.36,2.96,0,3.74,.79,3.74,.79c0,0,1.49,.27,2.41,.16s1.94-.37,2.42-.69c0,0,.08-.2,.6,.04l1.69,.33,4.59,.88s2.8,.39,3.16,.4,1.37,.03,2.59-.47,2.29-.96,2.29-.96l-.14-.86-3.09-1.86s-.89-1.6-.89-1.87-1.04-1.44-1.47-1.73-2.35-2.09-2.35-2.09l-2.36-2.06-1.9-1.74-2.06-2.07s-1.64-1.42-2.98-1.54-1.6-.08-1.6-.08"/><path class="b" d="M337.77,345.22l2.01-.68,1.67-.36,.94-.85,.54-.09h2.07l6.12-1.18-2.68-4.07s-1.93-2.68-2.1-2.81-.75-1.06-1.26-1.22-2.63-1.88-2.63-1.88c0,0-.3,.91-1.15,1.17,0,0-.68,.06-1.43-.56s-1.35-.69-1.35-.69l-.34-2.19,1.99-2.31,2.32,4.69"/><path class="b" d="M342.42,343.41l-2.97-2.08-.19,.06s-2.6-1-2.75-1.01c0,0-1.47-.36-1.6-.36s-4.75-.8-4.75-.8l.67,1.67,3.63,2.89,4.71-2.34"/><path class="b" d="M335.71,345.33l-1.2-1.64s-2.51-.65-2.7-.73-1.18-.44-1.46-.64-2.69-1.59-2.69-1.59l1.51-1.89,.06,.02,1.01,.41"/><polyline class="b" points="327.56 346.86 324.82 344.55 321.82 342.93 322.59 341.34 323.65 341.27 323.76 341.36 323.73 342.68 325.91 342.52 324.86 344.48"/><polyline class="b" points="323.41 343.69 323.86 342.59 323.04 342.59 323.45 343.74"/><polyline class="b" points="322.57 341.27 323.2 342.66 321.82 342.93"/><polygon class="b" points="324.36 341.34 325.75 341.34 325.7 342.62 324.98 342.64 324.36 341.34"/><polygon class="b" points="325.32 338.17 323.72 340.92 323.65 341.27 323.76 341.36 324.49 341.46 324.36 340.67 325.75 340.77 325.32 338.17"/><polyline class="b" points="327.59 340.78 326.25 340.17 325.32 338.17 328.4 339.02 328.32 338.83 329.18 338.83"/><polyline class="b" points="326.26 340.78 326.35 340.09 325.6 340.09 325.75 340.77"/><polygon class="b" points="327.82 340.62 325.93 342.68 326.26 341.34 327.82 340.62"/><polygon class="b" points="325.6 340.71 326.35 340.71 326.35 340.78 326.35 341.43 325.6 341.43 325.6 340.71"/><line class="b" x1="327.53" y1="340.75" x2="326.35" y2="340.78"/><path class="b" d="M339.45,341.32l-1.27-11.51-1.16-4.64-6.6,.07,.89-1.4-6.11-1.06,1.29,3.37-12.24,.04s-.96-.08-1.56-.69l-.59-.39,1.85-2.09-6.73,.39,2.96-1.19s3.73-3.89,4.32-4.76,1.23-1.86,1.45-2.32,1.79-3.77,2.11-5.75,.65-5.11,.65-5.11c0,0,.18-3.32,.04-3.94s-.37-1.66-1.2-2.45-2.2-2.8-2.2-2.8l-2.48-3.12-3.52-4.38-3.08-3.81-2.95-3.51-2.27-2.61-3.06-3.61-2.76-3.61-2.36-3.48s-3.62-4.86-3.95-5.03-2.61-2.66-2.61-2.66c0,0-3.85-3.25-4.19-3.47s-3.47-2.52-3.47-2.52l-5.27-3.64s-5.01-3.21-5.18-3.25-4.33-2.43-4.33-2.43c0,0-1.46-.8-1.67-1.1s-2.59-2.44-2.59-2.44c0,0-1.58-1.17-3.64-.38,0,0-.48-2.16-3.72-3.46s-4.35-3.18-4.68-3.86-6.37-2.16-6.37-2.16c0,0-11.42,3.86-13.41,4.08l-16.11,3.68s-14.53,4.34-17.27,6.12-15.44,5.66-15.44,5.66l-15.53,5.53s-7.54,2.79-9.09,2.6-3.56-.5-6.58-1.83-11.28-3.7-11.28-3.7c0,0-17.31-6.39-18.73-6.67s-14.66-3.97-14.66-3.97l-2.24,9.55s-1.6,2.19-2.88,3.29c0,0,1,2.47,.41,4.02s-1.69,3.29-1.69,3.75-.91,4.43-.91,4.43c0,0-5.62,19.46-6.99,21.33l-4.48,11.05s-.87,3.52-1.1,5.76-2.79,11.65-4.98,13.57c0,0-1.6,2.24-2.06,4.57s-1.64,4.48-2.79,4.7-2.97-.23-3.43-1.32c0,0,1.46-1.96-.73-3.15l-2.42,.14s-1.42-.32-1.83-.18-2.74,.14-2.74-.14,4.61-1.83,4.61-1.83c0,0-3.93-5.21-12.52-2.06l1,1.19-3.06,.37,.37-1.83-1.1-1.19-2.56,2.56s-8.91-3.29-9.23-3.52-3.38-1.6-4.07-1.6-4.52-1.55-4.52-1.55c0,0-2.06-1.28-2.65-1.28,0,0-3.97-1.51-4.84-1.32,0,0-2.65-.14-3.06,.14s-5.76-.5-5.76-.5c0,0-5.44-1.32-5.8-1.51s-4.57-2.42-5.16-2.92-3.43-1.64-3.43-1.64l-.53,1.1"/><path class="b" d="M13.77,306.35h9.47s-2.89,1.52-3.12,1.75-2.24,.92-3.14,.67-3.44-1-3.44-1l.22-1.42Z"/><polygon class="b" points="47.05 315.95 49.08 313.86 51.79 316.19 49.85 316.19 50.67 317.82 50.13 318.28 47.05 315.95"/><path class="b" d="M22.87,334.19l12.31,5.76s-8.38,1.7-12.31-5.76Z"/><path class="b" d="M14.42,330.59s-1.24,.07-3.08-1.64-4.65,0-4.65,0l7.4,2.88,.33-1.24Z"/><path class="b" d="M0,326.92l1.92,.46s2.03-1.64,3.14,.39c0,0-.39,.75,.72,2.24s1.44,3.32,1.44,3.32l-7.22-3.29"/><polygon class="b" points="170.94 259.62 176.56 263.55 175.96 264.38 170.31 260.21 170.94 259.62"/><path class="b" d="M179.14,267.06s1.89-.76,4.76,1.99,3.71,3.8,3.74,4.14-8.5-6.12-8.5-6.12Z"/><path class="b" d="M320.49,488.59s8.89-14.44,9.76-14.6,6.19-8.57,12.46-8.73c0,0,1.67-2.46,3.09-2.46s8.33,1.67,8.33,1.67c0,0,2.14,2.46,2.7,2.46,0,0,2.62,1.98,3.65,2.06s5.63,1.43,5.24,8.57l.02,1.11,.77,1.67,2.22-.79s3.81,3.73,1.11,7.22-4.84,6.74-5.71,9.92h-.87l-.87-2.14h-.71s.48,1.98-2.62,4.13-15.07,8.73-15.07,8.73c0,0-3.73,2.06-5-1.43,0,0-.24-2.7,1.27-3.01s7.22-3.73,8.57-6.19,6.02-7.46,6.02-7.46v-1.03l-8.16,1.43,.56-1.59s-5.79-2.62-10.08,3.49l7.46-1.19s-6.43,6.19-17.61,5.87c0,0-3.33-.32-3.97-3.65s-2.54-4.05-2.54-4.05Z"/><path class="b" d="M335.49,483.91l1.98-7.3s-3.17-.63-4.05,5.32l1.03,1.98h1.03Z"/><path class="b" d="M327.04,505.46s3.66-.22,4.14-.3,1.66,.13,3.14,1.57l-1.74,1.57s-2.48-.07-3.14-.3-1.44-.18-2.4-2.54Z"/><path class="b" d="M438.37,437.41l.98-.17s-1.97,.71-2.34-2.45-.7-4.26-.61-4.44-2.29-1.11-2.43-1.33c0,0-.99-.46-1.69-2.19s-2.42-6.1-2.42-6.1l.51-.1-4.06-5.6s-2.15-2.45-2.21-3.25,.28-1.47,.7-1.9,1.1-1.9,1.1-1.9l1.56-4.17s-.83-1.93-2.18-.34c0,0-.69,.4-1.2,.43s-2.72,1.04-2.72,1.04l-.61-.95,2.3-2.48-10.51-5.58-1.04,1.5,13.21,12.41"/><path class="b" d="M426.03,407.94s2.13-.71,3.36-.63,3.45,.05,3.45,.05c0,0,.91-.02,1.38,.27,0,0,.34,.01,.34,.43s.69,1.34,.69,1.34c0,0,.67,1.12,3.53,1.4,0,0,.61-.19,1.97,1.45l4.68,1.69,.78,3.3s-.07,.44,.51,.67l.58,.23,1.69-3.08,4.51,6.71-1.8,.51s.68,.45,2.81,.41,3.95,.29,4.51,2.78c0,0,.51,.25,.8,.29s3.17,1.5,3.17,1.5c0,0,1.27,.64,2.81,1.8s3.93-.53,3.93-.53l1.04,2.33-2.66,3.67s.02,.48-1.39,.56c-.06,0-.13,0-.2,0-1.6,.04-2.78,0-2.78,0l-4.81,.53-1.23-.27-.1-.64,.76,.41-1.58,.7-5,.39,.98,1.23s2.01-.9,5.37-.51,7.62,1.66,7.62,1.66l1.9-1.8-3.96-1.74"/><path class="b" d="M466.89,435.18l6.46,.84,.11,.56-7.86,2s1.32,.24,1.53,.32,.6,.19,.74,.47,1.36,.86,1.66,.97,1.69,.26,2.95-.51,2.88-1.84,2.88-1.84c0,0-.25,1.92,.39,2.32s1.6,.89,1.6,.89c0,0-2.52,.33-3.27,1.58s.22,3.43,.22,3.43c0,0,.13,.69-.04,1.18l3.18-2.09,1.97,3.43-2.7,1.23s-.03,.01-.07,.03c-.3,.11-1.43,.42-1.6-.73-.19-1.33-.24-1.61-.75-1.84"/><path class="b" d="M476.8,450s1.58,.32,2.11,.52,1.71,1.28,1.71,1.28c0,0,1.22,1.34,1.43,1.92s.69,1.09,.61,2.46-.58,2.63-.58,2.63l2.43-.25,4.78,6.24-3.16,1.47,13,4.11s-.15,.69-.16,.82-.41,.84-.59,1.22-1.17,2.05-.78,3.91,1.78,3.24,1.78,3.24c0,0,2,1.64,2.21,3.53,0,0,.39,1.71,.32,2.55s.23,1.94,.37,2.22,.71,1.57,1.38,2.06c0,0,.32,.29,.78,.32s1.62,.46,1.83,.93,.46,1.1-.32,2.85l3.14-.35s1.12,2.59,1.53,3.04,.78,.83,1.38,1.05,3.31-.15,5.16-.91,3.43-.48,3.86,.53c0,0,.57,.96,.62,1.51s.6,.89,.6,.89c0,0,.9,.62,1.37,1.27s3.65,4.12,3.65,4.12c0,0,2.93,3.42,3.46,4.72,0,0,1.59,2.72,1.75,4.46l-2.25,1.31s-1.31,.62-1.67,.6-1.17,.62-1.03,1.35,1.31,1.63,1.31,1.63c0,0,1.13,1.39,.88,3.88s.9,7.48,.9,7.48l1.07,.14,2.05-6.05s.3-1.93,.95-2.47,1.31-.2,1.31-.2c0,0,.36,.1,.76-.16s1.55-1.15,1.55-1.15c0,0-3.46,.42-3.96-1.79,0,0-.06-1.39,.16-1.73s-.24-1.21-.68-1.43-1.33-1.33-1.33-1.33c0,0,1.57-1.7,1.78-1.93s.56-.86,.63-1.05,.97-2.01,1.36-2.3,.75-1.08,2.38-.93,4.07,1.79,4.07,1.79l3.3,1.58,2.89,1.29s-.12-1.64,.57-2.51,2.95-.28,2.95-.28c0,0,1.41,1.92,2.53,2.25s2.64,.04,3.14-.61l-.08-.15-1.2-2.31-4.45,.98s.47-2.2,.47-2.33,.47-1.75,2.61-1.27c0,0,.5-.38,.67-1.01l-1.57-1.22,10.46-2.28v.21l.2,2.7-1.78-.47-1.85,2.93-.65-.2-.21-2.93s-2.08,2.02-2.36,3.88-.23,3.36-.23,3.36l3.95,2-.56,3s2.32,.68,3.58,0,2.72-3.4,2.72-3.4l3.08-6.28-4.76-5.46-.98,.81-.36-.32,1.15-.45-4.5-2.76-.41,.48,.79,.13s-.48-.42-.72-1.53c0,0-.15-.33,.08-.45s1.79-1.21,1.79-1.21l2.39-1.48s1.02-.79,1.22-1.06,.45-.41-.06-1-.59-.86-1.32-.36-4.11,3.85-4.11,3.85l-.81-.49s1.56-.84,1.84-2.41c0,0,.21-.59-.48-2.1,0,0-1.04-2.05-1.09-2.48l-1.25,.76-.46-.76,5.58-2.79-6.04-.05,2.16,1.05s-5.95,.25-6.66,.4c0,0-3.19,.28-4.4,1.04,0,0-4.24,1.78-5.41,2.99,0,0-4.62,3.54-4.83,3.86s-2.76,1.76-2.94,1.64-1.23-2.67-1.09-3.47,.48-3.83,.73-4.08-.32-.75,1.48-1.44l1.57-.87s1.25-1.05,3.17-.09c0,0,1.3,.91,1.51,1.28s1.21,.71,2.26-.02,4.4-3.19,5.31-3.4c0,0,5.09-2.33,8.07-2.65,0,0,10.2-2.33,11.6-2.33s3.38-.5,3.68-1.19,.5-1.8,.41-2.1,.66-1.69,1.09-2.03c0,0-.02,1.48,.64,2.6s2.46,1.3,2.46,1.3c0,0,1.35-.16,1.92-.25s4.72-.23,7.57,1.03,6.63,2.67,6.63,2.67"/><path class="b" d="M595.28,487.57s-6.7-6.18-7.72-6.64c0,0-4.04-3.07-5.79-2.88"/><path class="b" d="M579.36,500.98s-2.43,.57-2.25,2.23c0,0,.32,1.16,1.12,2.08s.88,1.55,.88,1.55c0,0-3.59-1.73-3.66-3.24s.51-3.06,3.91-2.62Z"/><path class="b" d="M544.29,509.13l3.87,.44s-.31-1.12-.38-1.49-.1-.64-1.34-.5-2.15,.21-2.15,.21v1.34Z"/><path class="b" d="M128.39,534.71s27.82,27.06,39.26,47.26,20.2,43.83,20.2,43.83c0,0,.75,2.78,3.51,2.67l1.87,7.05,6.39,10.35,3.41-.99s-1.87,3.75-1.87,4.85,.88,4.19,3.3,6.39,8.92,13,8.92,13c0,0,.88,1.21,2.53,2.75s13.22,11.57,16.08,15.53,6.17,4.41,6.17,4.41c0,0,1.65,1.21,2.75,2.86,0,0,3.41,2.09,5.29,2.09s10.24,3.86,11.24,4.85,6.5,5.95,7.71,7.6,4.52,4.08,5.95,3.97,21.92-10.58,21.92-10.58l38.45-21.48s1.54-1.87,3.64,.77,8.48,10.69,8.81,11.79,6.39,10.13,7.05,11.02,6.39,5.95,7.71,10.02,17.74,22.69,17.74,22.69l.55-1.54-13.22-21.59s-1.87-2.09-2.75-2.75-2.97-5.51-2.97-5.51c0,0-8.48-11.35-8.81-12.67s-5.95-10.47-5.95-10.47l-2.97-2.97s-2.53-2.09,0-3.41,13.55-7.27,14.32-8.15,5.18-3.86,10.91,.33,6.94,4.3,6.94,4.3l6.72,.99s3.19-2.42,4.08,.44v2.64l2.75,2.09-4.3,.55s1.1-1.54-1.65-2.64-.44-4.96-.44-4.96c0,0-.44-3.08-2.75-3.64s-1.98-2.75-1.98-2.75l.76-.48,1.72,1.72,1.23-5.46,2.38,1.07-.33,4.23,.74,.29,2.22-5.66,2.87,4.72s1.72-.37,2.75-.04,16.7,6.11,19.07,6.32c0,0,6.03-7.3,2.26-11.08,0,0-5.13-1.31-5.78-1.6s-1.85-1.27-2.22-1.76-6.11-5.41-10.62-6.69l-.94,.16-.16,2.22-7.01,.08-6.89-4.84v-.74l4.27,.21,.7-2.17s.07,.04,.19,.11c.05,.03,.1,.05,.16,.09,.77,.42,2.59,1.37,3.26,1.37,.86,0,2.67-.08,3.12-.29,.18-.08-.7-1.07-2.02-2.22-1.9-1.65-4.7-3.65-6.51-3.77,0,0-2.09-3.28-4.31-1.52l1.89,1.56s.53,.53,.57,1.44,3.51,3.28,3.51,3.28l.37-1.62,4.33,.63h.06l.05,.02h.11"/><path class="b" d="M372.81,640.3l3.05,4.32s-3.17,.95-5.09-.23,.09-2.53,.09-2.53l1.95-1.56Z"/><path class="b" d="M380.1,641.33s.57-3.08,1.09-3.93,1.43-1.43,2.87-1.94l-1.43-2.25s-.77-1.1-1.4-1.36-6.45-3.61-6.45-3.61l-3-1.54,1.7-.58-3.62-2.69-3.59-2.74-5.04-3.89,.4,5.06s-1.48,.1-3.67-.59-4.06-1.21-4.06-1.21c0,0-1.07-1.82-2.79-2.57s-3.64-2.3-3.64-2.3l-3.42-1.74s-1.35-.43-2.84,0l-2.17,.23-.33,.49,2.12,2.07-4.74-.25-1.94,.06-3.57-.64h-.08l-.16-.04-6.17-1.11,1.3-.25-1.42,.67s.82-2.93,2.91-1.17l1.93,.57,1.49,1.36,1.66-.71-3.44-.81-1.63-.52,.1-2.34,4.92,3.79,2.9-.72-6.64-2.25-.14-.07-.08-.08-.12,.02"/><path class="b" d="M326.97,611.21l.56-1.86s4.3,.15,6.24,1.86c0,0,1.14,.86,1.59,1.58s3.33,1.4,3.33,1.4h-3.97l-.55,1.94"/><path class="b" d="M339,613.62s-4.31-5.89-4.8-6.3c0,0-1.32-2.33-3.66-1.34,0,0-.78,.23-1.29,1.23s-1.71,2.13-1.71,2.13c0,0-1.34-1.18-1.89-1.71s-2.05-1.22-2.05-1.22c0,0-7.95-4.34-8.49-4.44s-2.84-1.01-5.32-1.16l.41,1.99-10.84-6.61s-.48-.04-.34-.68,.36-.61,.15-1.07-.67-.68-1.39-.73-1.16-.35-1.16-.35c0,0-2.45-.99-2.51-1.05s-.29-.01,0-.86,.86-1.35,.12-2.63-1.57-1.79-1.57-1.79c0,0-1.79-1.58-1.38-3.59l-.83-.17s-5-3.56-5.2-3.83-1.5-1.51-1.5-1.51c0,0-2.21-2.02-3.57-2.61s-3.91-1.6-6.03-1.73-3.66-1.05-4.28-2.29-.57-2.44-.57-2.44c0,0-.33-2.29-2.37-2.37,0,0-1.07,.01-2,.35s-5.18,.93-5.18,.93c0,0-2.48,.39-3.31,.8s-2.53,1.31-3.27,2.95-.26,2.13-.26,2.13l-4.83,3.12s-2.25,1.45-2.92,2.21-1.1,1.54-1.34,2.03-1,2.12-3.61,1.54c0,0,.84,1.97,.15,2.64-.47,.45-1.84,.73-3.29,.88-.7,.07-1.41,.12-2.05,.14l-1,2.42s1.45,.96,1.88,1.42,1.06,.74,2.01-.25,1.56-2.01,1.56-2.01l-2.52-1.78"/><path class="b" d="M233.94,588.66l-2.55,1.99s-1.94,1.4-2.35,2.03-1.41,1.99-1.51,2.1-.6,.8-1.84,.99-2.47-.48-2.47-.48l-.8-1.12s5.64-4.37,5.76-4.38,2.5-2.25,3.02-2.66,1.22-1.16,3.75-1.04c0,0,1.21-1.32,1.55-2.25s1.64-1.9,3.08-1.69l.79,.45"/><path class="b" d="M239.61,582.08s-.23-1.31-.06-1.87,3.33-3.58,3.33-3.58l-14.64-7.52s-10.79-6.35-11.02-6.52-6.77-4.03-6.77-4.03c0,0-9.14-4.95-10.04-5.26s-9.34-4.22-12.22-4.5-7.02-1.57-7.02-1.57l-.59,.95s2.91,2.4,3.78,4.11c0,0-1.59,.64-2.68,.39s-14.88-8.22-14.88-8.22c0,0-6.57-4.92-10.68-1.65,0,0-1.82-2.74-2.52-4.45s-4.36-1.65-4.36-1.65c0,0-1.45-2.77-6.43-5.2s-6.8-2.91-6.96-3.24l-.81,.42,1.48,5.43-3.44-1.4v.62l-4.25,.67s-.06,.42,.25,.84,1.5,1.57,2.05,2.59"/><polygon class="b" points="119.21 527.13 123.83 524.76 126.85 531.03 125.74 531.74 119.21 527.13"/><path class="b" d="M166.33,553.12l12.9,9.61s-9.1,1.68-12.9-9.61Z"/><path class="b" d="M377.87,609.6s13.49,5.17,14.29,5.63,1.97,.88,1.97,.88c0,0,2.82,3.36,3.4,4.41l.29,.38-.84,.92-4.5-2.56-1.22,9.33s-4.03-.36-5.29-2.39,.54-.47-1.94-2.15l-13.99-10.25s-1.34-.21-.29-2.14,1.47-2.31,1.47-2.31c0,0,3.91,2.18,5.42,2.02l1.22-1.76Z"/><path class="b" d="M402.84,614.99l6.24-.85s-1.26,2.23-2.64,2.28-3.6-1.43-3.6-1.43Z"/><polygon class="b" points="69.57 574.09 71.08 573.28 73.41 578.18 72.65 578.74 69.57 574.09"/><path class="b" d="M122.17,631.17s.87,.67,1.58,.76,1.09-.41,1.09-.41c0,0,.43-.73,.49-1.44s.31-1.01,.31-1.01l.61-.96,3.63,1.51-2.28,1.36s.57,1.18,.6,1.35l.71,1.46s.5,1.05,.46,1.71-.16,1.38-1.14,2.47-2.54,2.69-2.54,2.69l5-2.47,.56,.85-3.77,6.42s-1.92,.38-3.57-.09-2.69-1.25-2.69-1.25c0,0-1.76-1.49-2.32-2.72s-.66-1.33-.74-1.57-1.22-1.41-1.74-1.56-1-.71-1-.71c0,0-2.3,2.34-2.64,5.09s-.48,3.95-.34,5.06,.61,3.09,2.02,4.67l-2.75,1.39s-.32,3.15-.44,3.59-.92,1.81-1.6,2.65-2.38,2.35-2.38,2.35c0,0-1.6,1.7-3.36,1.09,0,0-1.16-.46-1.34-1.66s-1.39-2.08-1.39-2.08c0,0-3.24-4.03-3.43-4.65l.9-.78s.38-.32,1.01,.08l3,1.79,1.6-1.37s-1.09-3.32-1.24-4.77-.36-6.54-.36-6.54l-.29-7.08s-.1-1.91-.46-2.67-1.74-1.98-1.74-1.98l-2.42-1.43s-1.72-.8-2.1-2.96c0,0-.21-.32,0-2.37s-.19-3.15-.19-3.15c0,0-.36-2.63-.36-4.24s-.88-5.32-.88-5.32c0,0-1.35-4.08-1.56-4.48s-2.35-4.35-2.63-4.6-1.96-2.16-2.12-2.77-1.83-3.7-1.83-3.7c0,0-1.2-1.18-.25-1.79s3.45-.48,3.45-.48l-3.82-10.55s2.54-3.03,2.83-5.44,.64-3.53,.65-4.88,.66-3.53,.66-3.53c0,0,.8-3.49,.63-4.1s-.34-1.45-.27-1.96,.99-3.55,.22-4.29-1.25-1.31-1.25-1.31c0,0-.45-.42-.31-.89s.31-3.86,.31-3.86c0,0,3.48,.96,4.19,1.36s6.06-.2,6.26-.3,1.67-1.16,1.72-1.36,.59,.9,.59,.9c0,0,.25,.82-.86,1.45s-1.63,.94-1.63,.94l4.56,1.69,.44-1.22s.75,1.55,1.69,1.47,1.85-2.18,1.85-2.18l2.54,1.99s-.83,1.08-.88,1.74,.88,1.88,.88,1.88c0,0,1.22-.75,1.35-1.71s-.11-2.16-.11-2.16c0,0,.19-2.46,.58-2.85s.55-.8,2.82-.25l1.44,.25-2.21,2.52,.66,.28s1.69-1.74,3.04-.42c0,0,.91,.64,1.22,1.27s2.35,1.3,2.35,1.3c0,0,1.38,.93,2.65,1.88,.98,.73,1.89,1.47,2.05,1.8l-5.34,1.47s1.52-2.63,1.74-2.82,.78-.72,1.69-.17,2.13,1.7,2.13,1.7c0,0-2.34,1.6-2.79,5.91s-.41,5.74-.41,5.74c0,0,.72,3.69-2.84,3.86l3.73,2.84s.75,5.47,.99,6.22,2.73,7.83,2.63,11.35-.27,5.06-5.19,3.96l-.07,8.13h.82l-1.37,1.5,4.65,8.92-2.49,.89,2.22,4.72-4.17,1.95-2.77-.79-1.98,5.78,5.67-1.13-.92-2.8v-1.22"/><path class="b" d="M132.01,577.82l2.15-6.64s2.15,2.24,1.26,4.07-3.41,2.57-3.41,2.57Z"/><path class="b" d="M150.22,638.41l3.48,7.48s-2.97,1.02-3.48-3.74,0-3.74,0-3.74Z"/><path class="b" d="M130.96,667.2l1.54,.65s-1.67,6.8-2.63,7.55-1.48,.82-1.48,.82l-.91-1.2s-.48,.17,.24-1.06,3.24-6.76,3.24-6.76Z"/><polygon class="b" points="105.38 646.21 108.68 648.6 108.15 649.99 105.38 650.15 105.38 646.21"/><path class="b" d="M140.87,799.15l.8-2.58,6.14-3.82s6.49-4.36,7.2-4.89,11.21-6.31,11.21-6.31l2.93-1.96,.53,.8-27.48,19.57-1.33-.8Z"/><path class="b" d="M136.42,801.73l-7.65,5.51s4.27-.36,6.14-2.13,1.9-3.09,1.85-3.38-.34,0-.34,0Z"/><path class="b" d="M97.32,826.94l2.29-.86s1.83,3.4,1.65,5.41-.39,4.51-.39,4.51l-4.12-2.65,1.36-6.05-.79-.36Z"/><polygon class="b" points="24.27 804.73 24.82 803.75 29.21 806.05 28.5 807.31 24.27 804.73"/><path class="b" d="M3.2,818.62s1.65-.82,2.52-.82,3.79-.55,5.82-3.4,0-4.88,0-4.88c0,0-1.87-.44-2.85-3.57s-.05-3.4-1.59-6.31l2.14,.27,14.16,12.57s1.92,2.47,1.32,6.15-.99,5.65-.44,7.52,.88,1.87,1.54,2.25,9.71,3.73,9.71,3.73c0,0-.44-3.02,1.65-3.18s2.3,.05,3.46-.88,2.63-2.2,3.84-2.14,1.7-.33,1.7-.33c0,0,.93,.33,1.59,1.76s1.1,3.02,1.1,3.02c0,0,.44,1.37-1.81,2.69l-2.09,1.92s-1.65-.16-2.03,1.92l-.44,2.2,2.52,.99h12.18s9.71-.49,10.92-.33,14.49,.33,14.49,.33h59.33s2.63-3.02-.66-5.82-3.35-4.56-3.35-4.56l4.39,2.36,1.04-5.05s2.41,.88,3.51,.88,4.23,.44,4.23,2.47v2.85l3.68-2.18,1.48,2.67,2.69-4.56-5.71-2.69v-1.59s3.02-.38,4.01-.82,5.65,1.21,5.65,1.21c0,0,8.07,2.25,9.17,2.25s11.91,1.54,11.91,1.54l2.69-5.21,2.14,1.1s.22-4.77,2.63-6.26c0,0,2.25-.11,3.29-1.26s2.03-5.71,2.03-5.71l2.2,1.59-6.53-.99v-1.21s4.06-2.47,10.37-.93c0,0-.22-1.7,.33-2.74s.82-4.61-.82-6.7,.22-5.65,1.92-6.09,4.12-3.46,4.12-3.46c0,0,1.37-.49,2.2-.27s5.16-2.03,7.79,1.65l1.26,.05s1.21,.55,1.59,.6-.44,3.29-.44,3.29l-1.54-1.04,2.63,.44s.88-.49,1.54-.55,1.65-.49,2.85,.55,3.13,3.13,5.98,.88l-12.29-8.29,.82-1.7-2.96-.44s-4.17-4.66-2.91-9.66c0,0-4.34-3.62,1.37-7.9l.93,2.14s2.52-5.93,3.84-6.31,2.8,1.04,2.8,1.04l3.07,4.01,.93-3.35s2.74,3.84,5.05-1.1c0,0,4.06,3.95,5.32,6.31s4.56,2.63,4.56,2.63l1.43-2.58s.6,1.92,.82,2.3-1.04,3.29-2.3,4.45c0,0,1.81,3.51,1.59,5.82s-1.32,3.02-1.32,3.02c0,0-.71,.88,.11,1.81s2.2,2.14,2.58,2.3,2.14-2.58,2.14-2.58c0,0-2.8-2.36,.27-4.61,0,0,1.81,.27,2.36,1.81s.99,3.35,.99,3.35c0,0,.33,.88-.66,1.59s-2.36,2.58-2.36,2.58c0,0-.66,.66,.6,1.54s4.72,2.36,5.1,3.13l.31,.19,3.41-2.63,.75,.69s-3.24,.98-1.47,6.54l1.47-4.7h.56v6.17l6.17-5.66,.96,.35-2.53,5.11,4.6-1.62-.91,1.92,4.4,2.83v-.71l8.5,2.78-6.83,2.12s2.58,1.77,4.35,2.38,3.44-.81,3.44-.81c0,0,1.32-1.32,1.82,.05l.46,1.06s9.22,3.66,10.15,3.74,6.88,1.62,8.2,2.48,7.74,2.24,9.13,2.17,3.17,.08,4.8,1.32,4.56,1.47,5.34-1.16l4.64,2.24s2.48,1.32,6.03,1.32,5.65,1.78,5.65,1.78c0,0,3.02,1.78,7.5,1.47s4.56,1.08,4.56,1.08c0,0,1.32,2.32,5.18,.85l2.63,1.62v-.85s3.4,.54,5.34,.46,3.64-1.16,4.49-.31,.54,2.48,2.32,3.02l-1.08,2.71s5.34-1.08,13.46,.31c0,0,4.1,.62,6.27,0s6.19-1.16,6.19-1.16l-2.32,2.83,9.98-.59-.31-20.42,1.32-.23s.54,1.08,.93,1.93,.08,3.95,0,5.18,.85,12.31,1.86,14.13l189.48,.26s-.08,.95-.71,1.18S.33,841.52,.33,841.52c0,0-.33-.88-.33-1.28l28.56-.23s.8,.2,1.31-.11,3.63-3.44,3.89-4.66-4.32-3.46-4.32-3.46c0,0-7.58-2.33-8.97-3.58s-3.98-3.15-4.4-3.83-3.58-2.19-3.92-2.19-3.63-2.02-4.23-2.81l-4.52,.34-.2-1.09Z"/><path class="b" d="M182.52,839.29l11.57-3.12s1.41-.62,2.59,0,1.83,2.06,1.83,2.06c0,0-.94,1.47-1.5,1.56s-14.48,0-14.48,0v-.5Z"/><path class="b" d="M247.2,806.34l2.69,3.54s-1.53,.74-1.85,1.11-3.38-1-.84-4.64Z"/><path class="b" d="M234.75,799.38s1.85,4.27,3.38,5.33,5.22,2.37,5.22,2.37c0,0,.9-.16,1.48-1s-.58-1.37-.58-1.37c0,0-4.33-1.11-3.59-4.33,0,0,.21-1.95-5.91-1Z"/><path class="b" d="M235.23,825.18s9.46-4.43,10.98-4.49,11.44-3.43,11.44-3.43c0,0,2.8-1.69,4.75,0s1.69,2.53,1.69,2.53l-8.18,.63-.32,.74,18.73,3.38s-.11,2.32,1.58,2.27c0,0,2.53-1.27,2.85-.26,0,0-1.32,1.69-1.32,2.69s1.85,1.85,1.85,1.85c0,0,2.53,.53,2.95,.9s2.32,1.42,2.32,1.42v1.06h-2.9s-5.75-.79-8.28-1.64-4.12-3.01-4.12-3.01l-8.65,.26s-1.9,.58-2.16,1.06-1.58,1.85-2.69,.05l-.16-1.53s.11,1.9-1.85,1.79-.58-.9-3.17-.63l1.42,2.9s-7.02-.84-9.08-1.79-7.7-6.75-7.7-6.75Z"/></svg>