<svg width="656" height="1051" viewBox="0 0 656 1051" fill="none" xmlns="http://www.w3.org/2000/svg">
<path d="M0 3.86755V1050.04H293.982C293.982 1050.04 295.916 1017.16 330.73 1015.23C365.544 1013.3 365.544 1048.11 365.544 1048.11H655.657V1.93377H363.609C363.609 1.93377 359.741 34.8079 330.73 34.8079C301.718 34.8079 295.916 15.4702 295.916 0L0 3.86755Z" fill="#46D146"/>
<path d="M187.743 330.928H222.982V336.884H194.164V351.619H220.796V357.246H194.164V373.703H223.485V379.485H187.762V330.947L187.743 330.928Z" fill="black"/>
<path d="M235.65 330.928H243.406L267.621 370.145V330.928H273.907V379.465H266.519L241.936 340.287V379.465H235.65V330.928Z" fill="black"/>
<path d="M288.219 330.928H307.638C314.233 330.928 319.339 333.306 322.975 338.025C326.224 342.298 327.829 347.771 327.829 354.442C327.829 359.606 326.862 364.266 324.967 368.424C321.602 375.791 315.799 379.465 307.58 379.465H288.239V330.928H288.219ZM306.342 373.858C308.508 373.858 310.307 373.625 311.699 373.161C314.194 372.31 316.244 370.647 317.83 368.211C319.107 366.258 320.016 363.744 320.577 360.669C320.905 358.832 321.06 357.15 321.06 355.583C321.06 349.569 319.88 344.89 317.559 341.563C315.219 338.237 311.448 336.574 306.264 336.574H294.853V373.858H306.322H306.342Z" fill="black"/>
<path d="M354.306 330.928H361.753L379.372 379.465H372.158L367.226 364.923H348.02L342.76 379.465H336.01L354.287 330.928H354.306ZM365.118 359.586L357.749 338.141L349.916 359.586H365.118Z" fill="black"/>
<path d="M421.033 332.32C425.791 334.853 428.692 339.301 429.756 345.644H423.238C422.464 342.105 420.859 339.514 418.422 337.889C415.985 336.265 412.91 335.453 409.196 335.453C404.787 335.453 401.092 337.135 398.075 340.5C395.058 343.865 393.569 348.892 393.569 355.564C393.569 361.346 394.807 366.045 397.302 369.661C399.777 373.277 403.839 375.095 409.448 375.095C413.741 375.095 417.3 373.819 420.124 371.285C422.948 368.733 424.379 364.633 424.456 358.948H409.254V353.495H430.568V379.465H426.332L424.746 373.219C422.561 375.656 420.607 377.358 418.925 378.305C416.082 379.929 412.484 380.742 408.094 380.742C402.427 380.742 397.572 378.885 393.491 375.153C389.043 370.473 386.819 364.073 386.819 355.912C386.819 347.751 388.985 341.312 393.337 336.516C397.456 331.933 402.814 329.651 409.37 329.651C413.857 329.651 417.745 330.541 421.033 332.301V332.32Z" fill="black"/>
<path d="M449.059 363.801C449.213 366.547 449.832 368.791 450.935 370.512C453.043 373.722 456.737 375.346 462.056 375.346C464.435 375.346 466.601 374.998 468.554 374.282C472.326 372.909 474.221 370.473 474.221 366.953C474.221 364.304 473.428 362.428 471.823 361.307C470.198 360.205 467.665 359.257 464.203 358.426L457.839 356.937C453.681 355.97 450.741 354.906 449.001 353.726C446.003 351.696 444.513 348.679 444.513 344.638C444.513 340.267 445.983 336.69 448.923 333.905C451.863 331.101 456.021 329.709 461.398 329.709C466.349 329.709 470.566 330.947 474.028 333.402C477.49 335.858 479.23 339.784 479.23 345.179H473.041C472.732 342.588 472.055 340.577 471.011 339.204C469.096 336.671 465.827 335.394 461.224 335.394C457.511 335.394 454.842 336.206 453.198 337.831C451.573 339.455 450.761 341.35 450.761 343.516C450.761 345.895 451.728 347.635 453.642 348.737C454.9 349.433 457.743 350.323 462.191 351.387L468.786 352.934C471.958 353.688 474.415 354.713 476.155 356.008C479.134 358.271 480.642 361.578 480.642 365.89C480.642 371.266 478.728 375.114 474.917 377.415C471.107 379.716 466.678 380.877 461.611 380.877C455.731 380.877 451.109 379.33 447.782 376.255C444.455 373.2 442.811 369.042 442.889 363.801H449.078H449.059Z" fill="black"/>
<path d="M215.806 418.043V415.336H225.283V419.068H224.606L215.806 418.063V418.043ZM225.283 456.97V460.702H215.806V457.995L224.606 456.989H225.283V456.97ZM222.227 436.317C222.227 429.356 222.227 422.298 222.015 415.336H228.513C228.3 422.181 228.3 429.22 228.3 436.317V438.696C228.3 446.682 228.3 453.721 228.513 460.702H222.015C222.227 453.857 222.227 446.818 222.227 439.721V436.337V436.317ZM225.283 435.718H231.995C240.311 435.718 243.909 433.088 243.909 426.842C243.909 420.596 240.311 418.449 233.348 418.449H225.283V415.336H235.302C244.566 415.336 250.001 419.938 250.001 426.436C250.001 431.715 246.345 436.395 237.352 437.478V436.878C247.912 437.768 252.244 442.505 252.244 448.326C252.244 454.495 247.158 460.722 234.373 460.722H225.303V457.608H232.749C241.549 457.608 245.823 454.301 245.823 448.326C245.823 442.022 241.704 438.851 232.207 438.851H225.303V435.737L225.283 435.718Z" fill="black"/>
<path d="M260 418.043V415.336H278.955V418.043L270.154 419.049H268.801L260 418.043ZM270.154 456.97L278.955 457.976V460.683H260V457.976L268.801 456.97H270.154ZM266.441 436.317C266.441 429.356 266.441 422.298 266.248 415.336H272.746C272.553 422.181 272.553 429.22 272.553 436.317V439.701C272.553 446.682 272.553 453.721 272.746 460.683H266.248C266.441 453.837 266.441 446.798 266.441 439.701V436.317Z" fill="black"/>
<path d="M288.432 418.043V415.336H307.386V418.043L298.586 419.049H297.232L288.432 418.043ZM297.909 456.97V460.702H288.432V457.995L297.232 456.989H297.909V456.97ZM294.66 415.336H301.158C300.965 422.317 300.965 429.356 300.965 436.317V441.055C300.965 446.818 300.965 453.857 301.158 460.683H294.66C294.873 453.702 294.873 446.663 294.873 439.702V436.317C294.873 429.201 294.873 422.162 294.66 415.336ZM322.762 447.959L322.085 460.683H297.909V457.299H319.706L315.993 460.683L318.701 447.959H322.762V447.959Z" fill="black"/>
<path d="M330.884 418.043V415.336H349.838V418.043L341.038 419.049H339.684L330.884 418.043ZM340.361 456.97V460.702H330.884V457.995L339.684 456.989H340.361V456.97ZM337.112 415.336H343.611C343.417 422.317 343.417 429.356 343.417 436.317V441.055C343.417 446.818 343.417 453.857 343.611 460.683H337.112C337.325 453.702 337.325 446.663 337.325 439.702V436.317C337.325 429.201 337.325 422.162 337.112 415.336ZM365.214 447.959L364.537 460.683H340.361V457.299H362.159L358.445 460.683L361.153 447.959H365.214V447.959Z" fill="black"/>
<path d="M373.319 418.043V415.336H382.796V419.068H382.119L373.319 418.063V418.043ZM382.796 456.97V460.702H373.319V457.995L382.119 456.989H382.796V456.97ZM379.74 436.317C379.74 429.356 379.74 422.298 379.547 415.336H386.045C385.852 422.181 385.852 429.22 385.852 436.317V438.889C385.852 446.682 385.852 453.721 386.045 460.683H379.547C379.74 453.837 379.74 446.798 379.74 439.702V436.317V436.317ZM401.537 415.336L404.593 418.72H382.796V415.336H406.972L407.456 427.383H403.665L401.576 415.336H401.537ZM398.075 439.102H382.777V435.989H398.075V439.102ZM408.771 448.655L408.287 460.702H382.757V457.318H405.908L402.872 460.702L404.961 448.655H408.751H408.771ZM395.909 436.665L396.934 429.491H399.971V445.541H396.934L395.909 438.019V436.665V436.665Z" fill="black"/>
<path d="M418.808 418.72L421.864 415.336L419.698 427.383H415.907L416.449 415.336H453.409L453.951 427.383H450.16L447.994 415.336L451.05 418.72H418.828H418.808ZM435.596 456.97L445.073 457.976V460.683H424.765V457.976L434.242 456.97H435.596ZM431.863 436.317C431.863 429.356 431.863 422.298 431.651 415.336H438.149C437.937 422.181 437.937 429.22 437.937 436.317V439.701C437.937 446.682 437.937 453.721 438.149 460.683H431.651C431.863 453.837 431.863 446.798 431.863 439.701V436.317Z" fill="black"/>
<path d="M122.834 739.939H136.701C141.401 739.939 145.057 741.641 147.648 745.006C149.969 748.061 151.11 751.967 151.11 756.744C151.11 760.418 150.434 763.763 149.06 766.722C146.643 771.982 142.504 774.612 136.643 774.612H122.834V739.939ZM135.773 770.609C137.32 770.609 138.597 770.435 139.603 770.106C141.382 769.487 142.852 768.308 143.993 766.567C144.902 765.175 145.56 763.377 145.946 761.192C146.178 759.877 146.295 758.678 146.295 757.556C146.295 753.263 145.463 749.918 143.8 747.539C142.136 745.161 139.448 743.981 135.734 743.981H127.592V770.609H135.792H135.773Z" fill="black"/>
<path d="M159.969 739.939H164.553V756.918L181.901 739.939H188.477L173.662 753.94L188.787 774.631H182.636L170.219 757.208L164.572 762.545V774.631H159.988V739.959L159.969 739.939Z" fill="black"/>
<path d="M194.627 739.939H199.211V756.918L216.56 739.939H223.135L208.32 753.94L223.445 774.631H217.295L204.878 757.208L199.23 762.545V774.631H194.646V739.959L194.627 739.939Z" fill="black"/>
<path d="M246.093 750.672V747.423C249.168 747.133 251.296 746.631 252.514 745.915C253.733 745.219 254.623 743.556 255.222 740.945H258.568V774.612H254.042V750.672H246.093V750.672Z" fill="black"/>
<path d="M274.08 767.013C275.125 764.867 277.175 762.894 280.211 761.135L284.737 758.524C286.768 757.344 288.199 756.339 289.011 755.507C290.307 754.192 290.945 752.703 290.945 751.021C290.945 749.048 290.365 747.482 289.166 746.322C287.986 745.162 286.42 744.581 284.447 744.581C281.526 744.581 279.515 745.684 278.413 747.888C277.813 749.068 277.484 750.711 277.426 752.819H273.113C273.152 749.88 273.693 747.482 274.738 745.626C276.575 742.358 279.824 740.714 284.486 740.714C288.354 740.714 291.178 741.758 292.976 743.847C294.756 745.935 295.665 748.275 295.665 750.827C295.665 753.535 294.717 755.855 292.802 757.77C291.7 758.891 289.727 760.245 286.884 761.831L283.654 763.629C282.107 764.48 280.908 765.292 280.018 766.066C278.451 767.439 277.446 768.947 277.039 770.629H295.51V774.652H272.301C272.456 771.732 273.055 769.198 274.1 767.052L274.08 767.013Z" fill="black"/>
<path d="M322.645 746.205C324.154 748.989 324.908 752.799 324.908 757.653C324.908 762.255 324.231 766.045 322.858 769.062C320.866 773.374 317.636 775.521 313.13 775.521C309.068 775.521 306.051 773.761 304.059 770.242C302.415 767.302 301.583 763.357 301.583 758.388C301.583 754.539 302.086 751.252 303.072 748.506C304.929 743.382 308.294 740.81 313.149 740.81C317.52 740.81 320.692 742.608 322.645 746.224V746.205ZM318.371 768.733C319.686 766.78 320.324 763.145 320.324 757.827C320.324 753.979 319.841 750.827 318.913 748.351C317.965 745.876 316.127 744.638 313.4 744.638C310.886 744.638 309.068 745.818 307.908 748.177C306.747 750.536 306.167 753.998 306.167 758.581C306.167 762.023 306.534 764.788 307.289 766.896C308.43 770.087 310.364 771.692 313.11 771.692C315.315 771.692 317.075 770.725 318.39 768.772L318.371 768.733Z" fill="black"/>
<path d="M346.647 760.013V757.306H369.47V760.013H346.647ZM356.608 746.67H359.509V770.881H356.608V746.67Z" fill="black"/>
<path d="M416.217 772.485C412.89 774.225 409.602 775.327 405.579 775.327C395.909 775.327 389.333 768.134 389.333 758.407C389.333 748.68 395.948 741.486 405.773 741.486C409.776 741.486 412.774 742.202 415.482 743.807L415.675 750.807H412.736L411.536 743.652L414.534 744.619V747.365C411.923 744.948 409.274 743.884 406.179 743.884C399.41 743.884 394.439 749.144 394.439 758.387C394.439 767.631 398.984 772.833 406.527 772.833C409.274 772.833 411.304 772.214 414.07 770.86L411.904 773.123V770.319C411.904 766.645 411.865 762.874 411.749 759.2H416.391C416.294 762.816 416.236 766.548 416.236 770.319V772.446L416.217 772.485ZM406.701 761.172V759.238H419.273V761.172L413.954 761.656H412.987L406.701 761.172Z" fill="black"/>
<path d="M424.107 744.155V742.222H430.877V744.89H430.393L424.107 744.155ZM430.877 771.944V774.593H424.107V772.659L430.393 771.944H430.877ZM428.711 757.208C428.711 752.239 428.711 747.211 428.575 742.222H433.217C433.082 747.095 433.082 752.123 433.082 757.208V759.045C433.082 764.595 433.082 769.623 433.217 774.612H428.575C428.711 769.739 428.711 764.711 428.711 759.626V757.208ZM444.28 742.222L446.446 744.639H430.877V742.222H448.129L448.458 750.827H445.75L444.261 742.222H444.28ZM441.804 759.181H430.877V756.957H441.804V759.181ZM449.444 765.988L449.096 774.593H430.877V772.176H447.413L445.247 774.593L446.736 765.988H449.444V765.988ZM440.257 757.44L440.992 752.316H443.158V763.764H440.992L440.257 758.407V757.44V757.44Z" fill="black"/>
<path d="M455.729 744.155V742.222H462.499V744.89H462.015L455.729 744.155ZM462.499 771.944V774.593H455.729V772.659L462.015 771.944H462.499ZM460.333 757.208C460.333 752.239 460.333 747.211 460.197 742.222H464.839C464.704 747.095 464.704 752.123 464.704 757.208V758.91C464.704 764.615 464.704 769.643 464.839 774.612H460.197C460.333 769.739 460.333 764.711 460.333 759.626V757.208ZM462.499 756.783H467.276C473.214 756.783 475.786 754.907 475.786 750.46C475.786 746.012 473.233 744.465 468.243 744.465H462.499V742.241H469.655C476.27 742.241 480.138 745.528 480.138 750.169C480.138 753.94 477.527 757.266 471.106 758.04V757.595C478.649 758.214 481.743 761.598 481.743 765.756C481.743 770.145 478.107 774.593 468.978 774.593H462.499V772.369H467.818C474.103 772.369 477.14 770.01 477.14 765.756C477.14 761.269 474.2 758.987 467.431 758.987H462.499V756.764V756.783Z" fill="black"/>
<path d="M484.645 744.155V742.222H498.184V744.155L491.898 744.89H490.931L484.645 744.155V744.155ZM497.932 763.725L487.353 742.222H492.381L501.182 761.269H499.48L508.512 742.222H510.968L500.582 763.725H497.913H497.932ZM499.77 771.944L506.539 772.659V774.593H492.033V772.659L498.803 771.944H499.77ZM497.101 760.109H501.452C501.452 765.62 501.452 770.3 501.607 774.612H496.965C497.12 770.416 497.12 765.678 497.12 760.109H497.101ZM508.26 744.89L502.903 744.155V742.222H514.024V744.155L509.189 744.89H508.26Z" fill="black"/>
<path d="M519.11 744.155V742.222H525.879V744.89H525.396L519.11 744.155ZM526.363 771.944L532.649 772.659V774.593H519.11V772.659L525.396 771.944H526.363ZM523.694 757.208C523.694 752.239 523.694 747.211 523.539 742.222H528.181C528.045 747.249 528.045 751.987 528.045 757.692V759.142C528.045 764.595 528.045 769.623 528.181 774.612H523.539C523.694 769.739 523.694 764.711 523.694 759.626V757.208ZM525.86 757.44H531.894C537.116 757.44 539.631 754.637 539.631 750.73C539.631 746.824 537.464 744.446 532.436 744.446H525.86V742.222H532.474C539.863 742.222 544.214 745.354 544.214 750.73C544.214 754.83 540.985 758.562 534.641 759.084L534.795 758.697C538.277 759.046 540.404 760.631 541.7 764.982L544.06 773.007L542.551 772.079L547.522 772.659V774.593C546.651 774.883 545.491 775.077 544.04 775.077C541.043 775.077 539.747 774.303 539.166 772.079L537.174 764.209C536.207 760.302 534.428 759.626 530.405 759.626H525.821V757.46L525.86 757.44Z" fill="black"/>
<path d="M276.498 104.598H290.597V106.976H279.07V112.874H289.727V115.117H279.07V121.692H290.791V124.013H276.498V104.598V104.598ZM286.652 99.2412L283.112 103.07H281.294L283.712 99.2412H286.652Z" fill="black"/>
<path d="M295.664 104.598H298.759L308.448 120.281V104.598H310.963V124.013H308.004L298.178 108.349V124.013H295.664V104.598V104.598Z" fill="black"/>
<path d="M325.566 104.598H333.321C335.952 104.598 338.002 105.545 339.452 107.44C340.748 109.142 341.387 111.347 341.387 114.015C341.387 116.084 341 117.941 340.245 119.604C338.892 122.543 336.571 124.013 333.283 124.013H325.546V104.598H325.566ZM332.819 121.77C333.689 121.77 334.405 121.673 334.965 121.499C335.971 121.151 336.783 120.493 337.422 119.507C337.925 118.714 338.292 117.709 338.524 116.49C338.659 115.756 338.718 115.079 338.718 114.46C338.718 112.062 338.253 110.186 337.325 108.852C336.397 107.518 334.888 106.86 332.799 106.86H328.235V121.77H332.819Z" fill="black"/>
<path d="M352.005 104.598H354.983L362.023 124.013H359.142L357.169 118.192H349.49L347.382 124.013H344.694L352.005 104.598V104.598ZM356.318 116.065L353.378 107.479L350.245 116.065H356.318V116.065Z" fill="black"/>
<path d="M378.695 105.158C380.59 106.164 381.77 107.943 382.196 110.476H379.584C379.275 109.065 378.637 108.02 377.65 107.382C376.664 106.744 375.446 106.415 373.956 106.415C372.196 106.415 370.707 107.092 369.508 108.446C368.309 109.8 367.709 111.811 367.709 114.479C367.709 116.78 368.212 118.676 369.198 120.126C370.185 121.576 371.809 122.292 374.053 122.292C375.774 122.292 377.186 121.789 378.327 120.764C379.449 119.739 380.029 118.095 380.049 115.833H373.976V113.648H382.505V124.032H380.803L380.165 121.538C379.294 122.524 378.521 123.201 377.844 123.568C376.703 124.226 375.271 124.554 373.511 124.554C371.249 124.554 369.295 123.8 367.671 122.311C365.891 120.435 365.001 117.883 365.001 114.615C365.001 111.347 365.872 108.775 367.612 106.86C369.256 105.023 371.403 104.114 374.014 104.114C375.813 104.114 377.36 104.462 378.675 105.178L378.695 105.158Z" fill="black"/>
<path d="M147.262 538.729V541.379H139.777V560.929H136.741V541.379H129.256V538.729H147.243H147.262Z" fill="black"/>
<path d="M148.519 538.729H151.285V541.804H148.519V538.729ZM148.519 544.821H151.285V560.929H148.519V544.821Z" fill="black"/>
<path d="M155.481 538.729H158.209V560.929H155.481V538.729Z" fill="black"/>
<path d="M179.774 545.247C180.258 545.557 180.799 546.079 181.418 546.833V538.653H184.029V560.93H181.573V558.687C180.935 559.693 180.2 560.408 179.329 560.853C178.459 561.298 177.473 561.511 176.37 561.511C174.572 561.511 173.024 560.756 171.709 559.229C170.394 557.72 169.736 555.69 169.736 553.176C169.736 550.817 170.336 548.786 171.535 547.046C172.734 545.325 174.456 544.455 176.68 544.455C177.918 544.455 178.943 544.725 179.774 545.247V545.247ZM173.701 557.372C174.436 558.533 175.597 559.132 177.221 559.132C178.478 559.132 179.504 558.591 180.316 557.508C181.128 556.425 181.534 554.878 181.534 552.847C181.534 550.817 181.128 549.289 180.277 548.303C179.445 547.317 178.42 546.833 177.202 546.833C175.829 546.833 174.726 547.355 173.895 548.4C173.044 549.444 172.618 550.991 172.618 553.021C172.618 554.762 172.986 556.212 173.721 557.372H173.701Z" fill="black"/>
<path d="M188.09 538.729H190.856V541.804H188.09V538.729ZM188.09 544.821H190.856V560.929H188.09V544.821Z" fill="black"/>
<path d="M203.95 545.401C204.453 545.749 204.975 546.271 205.516 546.948V544.918H208.031V559.634C208.031 561.683 207.721 563.308 207.122 564.507C206 566.711 203.872 567.794 200.758 567.794C199.018 567.794 197.567 567.407 196.368 566.615C195.188 565.841 194.511 564.603 194.376 562.96H197.142C197.277 563.695 197.528 564.236 197.915 564.642C198.534 565.242 199.482 565.551 200.797 565.551C202.867 565.551 204.22 564.816 204.878 563.346C205.265 562.476 205.439 560.929 205.4 558.705C204.859 559.537 204.201 560.156 203.447 560.542C202.693 560.949 201.667 561.142 200.43 561.142C198.689 561.142 197.161 560.523 195.846 559.286C194.531 558.048 193.873 555.979 193.873 553.117C193.873 550.41 194.531 548.302 195.846 546.774C197.161 545.246 198.766 544.492 200.623 544.492C201.88 544.492 202.983 544.802 203.93 545.42L203.95 545.401ZM204.278 548.321C203.466 547.354 202.402 546.871 201.145 546.871C199.25 546.871 197.935 547.76 197.238 549.559C196.871 550.526 196.677 551.763 196.677 553.33C196.677 555.147 197.045 556.54 197.78 557.487C198.515 558.435 199.501 558.918 200.758 558.918C202.693 558.918 204.066 558.029 204.859 556.269C205.304 555.263 205.516 554.103 205.516 552.788C205.516 550.777 205.11 549.307 204.278 548.34V548.321Z" fill="black"/>
<path d="M229.654 545.247C230.137 545.557 230.679 546.079 231.298 546.833V538.653H233.909V560.93H231.452V558.687C230.814 559.693 230.079 560.408 229.209 560.853C228.338 561.298 227.352 561.511 226.25 561.511C224.451 561.511 222.904 560.756 221.588 559.229C220.273 557.72 219.616 555.69 219.616 553.176C219.616 550.817 220.215 548.786 221.414 547.046C222.614 545.325 224.335 544.455 226.559 544.455C227.797 544.455 228.822 544.725 229.654 545.247V545.247ZM223.581 557.372C224.316 558.533 225.476 559.132 227.101 559.132C228.358 559.132 229.383 558.591 230.195 557.508C231.008 556.425 231.414 554.878 231.414 552.847C231.414 550.817 231.008 549.289 230.157 548.303C229.325 547.317 228.3 546.833 227.081 546.833C225.708 546.833 224.606 547.355 223.774 548.4C222.923 549.444 222.498 550.991 222.498 553.021C222.498 554.762 222.865 556.212 223.6 557.372H223.581Z" fill="black"/>
<path d="M247.97 545.189C249.034 545.731 249.865 546.427 250.426 547.278C250.968 548.09 251.335 549.037 251.509 550.14C251.664 550.894 251.741 552.073 251.741 553.698H239.963C240.021 555.341 240.388 556.656 241.123 557.662C241.839 558.648 242.961 559.151 244.469 559.151C245.881 559.151 247.003 558.687 247.834 557.739C248.299 557.198 248.647 556.56 248.84 555.844H251.509C251.432 556.444 251.2 557.101 250.813 557.836C250.407 558.571 249.962 559.17 249.478 559.634C248.666 560.447 247.641 560.988 246.442 561.259C245.784 561.413 245.049 561.491 244.237 561.491C242.226 561.491 240.543 560.756 239.15 559.286C237.758 557.817 237.062 555.767 237.062 553.137C237.062 550.507 237.758 548.438 239.17 546.813C240.562 545.189 242.4 544.377 244.663 544.377C245.804 544.377 246.906 544.648 247.989 545.189H247.97ZM248.937 551.551C248.821 550.372 248.569 549.424 248.163 548.728C247.428 547.413 246.19 546.755 244.469 546.755C243.231 546.755 242.187 547.2 241.355 548.109C240.524 549.018 240.079 550.159 240.021 551.551H248.937Z" fill="black"/>
<path d="M255.261 544.744H257.853V547.548C258.066 547.007 258.588 546.349 259.4 545.557C260.232 544.783 261.18 544.377 262.263 544.377C262.321 544.377 262.398 544.377 262.514 544.377C262.63 544.377 262.843 544.416 263.133 544.435V547.297C262.978 547.258 262.824 547.239 262.688 547.239C262.553 547.239 262.398 547.239 262.243 547.239C260.87 547.239 259.826 547.684 259.091 548.554C258.356 549.443 257.988 550.449 257.988 551.59V560.891H255.261V544.706V544.744Z" fill="black"/>
<path d="M274.1 538.653H276.827V546.93C277.465 546.117 278.045 545.537 278.567 545.209C279.438 544.628 280.54 544.338 281.855 544.338C284.196 544.338 285.801 545.151 286.632 546.794C287.077 547.684 287.309 548.941 287.309 550.526V560.911H284.505V550.72C284.505 549.54 284.35 548.67 284.06 548.109C283.577 547.22 282.648 546.775 281.275 546.775C280.153 546.775 279.128 547.162 278.2 547.935C277.291 548.709 276.827 550.178 276.827 552.325V560.911H274.1V538.634V538.653Z" fill="black"/>
<path d="M299.978 551.126C300.597 551.049 301.022 550.778 301.235 550.333C301.351 550.082 301.409 549.734 301.409 549.289C301.409 548.361 301.08 547.684 300.423 547.259C299.765 546.833 298.818 546.621 297.599 546.621C296.187 546.621 295.181 547.007 294.582 547.781C294.253 548.206 294.04 548.844 293.944 549.676H291.41C291.468 547.684 292.106 546.292 293.344 545.499C294.582 544.706 296.032 544.319 297.676 544.319C299.572 544.319 301.119 544.687 302.318 545.402C303.498 546.137 304.078 547.259 304.078 548.786V558.107C304.078 558.397 304.136 558.61 304.252 558.784C304.368 558.958 304.62 559.035 304.987 559.035C305.103 559.035 305.239 559.035 305.393 559.016C305.548 558.997 305.703 558.977 305.877 558.939V560.95C305.451 561.066 305.123 561.143 304.91 561.182C304.697 561.22 304.388 561.22 304.001 561.22C303.073 561.22 302.376 560.892 301.97 560.215C301.757 559.867 301.583 559.364 301.506 558.726C300.945 559.461 300.152 560.08 299.127 560.621C298.102 561.162 296.941 561.414 295.704 561.414C294.195 561.414 292.977 560.95 292.029 560.041C291.081 559.132 290.598 557.991 290.598 556.618C290.598 555.129 291.062 553.949 292.01 553.137C292.957 552.325 294.176 551.803 295.704 551.61L300.036 551.068L299.978 551.126ZM294.253 558.474C294.833 558.919 295.51 559.151 296.284 559.151C297.251 559.151 298.16 558.939 299.069 558.494C300.578 557.759 301.332 556.56 301.332 554.897V552.712C301.003 552.925 300.578 553.099 300.055 553.234C299.533 553.369 299.011 553.485 298.527 553.543L296.883 553.756C295.897 553.891 295.162 554.085 294.659 554.375C293.828 554.839 293.402 555.593 293.402 556.637C293.402 557.43 293.692 558.049 294.272 558.494L294.253 558.474Z" fill="black"/>
<path d="M308.584 544.744H311.176V547.548C311.389 547.007 311.911 546.349 312.723 545.557C313.555 544.783 314.503 544.377 315.586 544.377C315.644 544.377 315.721 544.377 315.837 544.377C315.953 544.377 316.166 544.416 316.456 544.435V547.297C316.302 547.258 316.147 547.239 316.011 547.239C315.876 547.239 315.721 547.239 315.567 547.239C314.193 547.239 313.149 547.684 312.414 548.554C311.679 549.443 311.312 550.449 311.312 551.59V560.891H308.584V544.706V544.744Z" fill="black"/>
<path d="M327.5 538.729H330.227V560.929H327.5V538.729Z" fill="black"/>
<path d="M344.404 544.744H347.402C347.015 545.788 346.164 548.147 344.849 551.841C343.863 554.625 343.031 556.888 342.374 558.648C340.807 562.767 339.705 565.3 339.047 566.189C338.389 567.079 337.287 567.543 335.72 567.543C335.334 567.543 335.043 567.543 334.831 567.504C334.618 567.466 334.366 567.427 334.076 567.33V564.855C334.541 564.99 334.889 565.068 335.101 565.087C335.314 565.106 335.508 565.126 335.662 565.126C336.165 565.126 336.533 565.048 336.765 564.874C336.997 564.7 337.19 564.507 337.364 564.256C337.422 564.178 337.596 563.772 337.906 563.018C338.215 562.283 338.447 561.722 338.583 561.355L332.606 544.705H335.682L340.014 557.893L344.385 544.705L344.404 544.744Z" fill="black"/>
<path d="M351.386 555.845C351.463 556.754 351.695 557.45 352.082 557.933C352.778 558.803 353.997 559.248 355.718 559.248C356.743 559.248 357.652 559.036 358.426 558.591C359.2 558.146 359.606 557.469 359.606 556.56C359.606 555.864 359.296 555.342 358.677 554.975C358.271 554.762 357.498 554.491 356.318 554.201L354.113 553.66C352.72 553.312 351.676 552.925 351.018 552.519C349.839 551.784 349.239 550.759 349.239 549.463C349.239 547.936 349.8 546.698 350.922 545.751C352.044 544.803 353.533 544.339 355.428 544.339C357.904 544.339 359.683 545.054 360.766 546.485C361.443 547.394 361.791 548.361 361.753 549.425H359.18C359.122 548.806 358.91 548.264 358.523 547.762C357.884 547.046 356.782 546.698 355.196 546.698C354.152 546.698 353.339 546.891 352.798 547.278C352.256 547.665 351.986 548.187 351.986 548.825C351.986 549.521 352.334 550.082 353.049 550.508C353.455 550.759 354.074 550.972 354.867 551.165L356.705 551.61C358.697 552.093 360.031 552.538 360.708 552.983C361.772 553.679 362.294 554.762 362.294 556.27C362.294 557.779 361.733 558.958 360.631 560.002C359.528 561.047 357.846 561.569 355.583 561.569C353.146 561.569 351.425 561.027 350.4 559.925C349.374 558.842 348.833 557.489 348.775 555.864H351.386V555.845Z" fill="black"/>
<path d="M365.776 540.219H368.522V544.744H371.114V546.968H368.522V557.526C368.522 558.087 368.716 558.474 369.102 558.667C369.315 558.783 369.663 558.841 370.166 558.841C370.302 558.841 370.437 558.841 370.592 558.841C370.746 558.841 370.921 558.822 371.114 558.783V560.949C370.805 561.045 370.476 561.104 370.147 561.142C369.818 561.181 369.451 561.2 369.044 561.2C367.768 561.2 366.917 560.871 366.453 560.233C365.989 559.595 365.776 558.744 365.776 557.7V546.987H363.59V544.763H365.776V540.238V540.219Z" fill="black"/>
<path d="M382.97 540.219H385.716V544.744H388.308V546.968H385.716V557.526C385.716 558.087 385.909 558.474 386.296 558.667C386.509 558.783 386.857 558.841 387.36 558.841C387.495 558.841 387.631 558.841 387.786 558.841C387.94 558.841 388.114 558.822 388.308 558.783V560.949C387.998 561.045 387.67 561.104 387.341 561.142C387.012 561.181 386.644 561.2 386.238 561.2C384.962 561.2 384.111 560.871 383.647 560.233C383.182 559.595 382.97 558.744 382.97 557.7V546.987H380.784V544.763H382.97V540.238V540.219Z" fill="black"/>
<path d="M391.035 538.729H393.8V541.804H391.035V538.729ZM391.035 544.821H393.8V560.929H391.035V544.821Z" fill="black"/>
<path d="M397.979 538.729H400.706V560.929H397.979V538.729Z" fill="black"/>
<path d="M422.058 551.126C422.677 551.049 423.102 550.778 423.315 550.333C423.431 550.082 423.489 549.734 423.489 549.289C423.489 548.361 423.16 547.684 422.502 547.259C421.845 546.833 420.897 546.621 419.679 546.621C418.267 546.621 417.261 547.007 416.661 547.781C416.333 548.206 416.12 548.844 416.023 549.676H413.49C413.548 547.684 414.186 546.292 415.424 545.499C416.661 544.706 418.112 544.319 419.756 544.319C421.651 544.319 423.199 544.687 424.398 545.402C425.578 546.137 426.158 547.259 426.158 548.786V558.107C426.158 558.397 426.216 558.61 426.332 558.784C426.448 558.958 426.699 559.035 427.067 559.035C427.183 559.035 427.318 559.035 427.473 559.016C427.628 558.997 427.783 558.977 427.957 558.939V560.95C427.531 561.066 427.202 561.143 426.99 561.182C426.777 561.22 426.467 561.22 426.081 561.22C425.152 561.22 424.456 560.892 424.05 560.215C423.837 559.867 423.663 559.364 423.586 558.726C423.025 559.461 422.232 560.08 421.207 560.621C420.182 561.162 419.021 561.414 417.783 561.414C416.275 561.414 415.056 560.95 414.108 560.041C413.161 559.132 412.677 557.991 412.677 556.618C412.677 555.129 413.141 553.949 414.089 553.137C415.037 552.325 416.255 551.803 417.783 551.61L422.116 551.068L422.058 551.126ZM416.333 558.474C416.913 558.919 417.59 559.151 418.363 559.151C419.331 559.151 420.24 558.939 421.149 558.494C422.657 557.759 423.411 556.56 423.411 554.897V552.712C423.083 552.925 422.657 553.099 422.135 553.234C421.613 553.369 421.091 553.485 420.607 553.543L418.963 553.756C417.977 553.891 417.242 554.085 416.739 554.375C415.907 554.839 415.482 555.593 415.482 556.637C415.482 557.43 415.772 558.049 416.352 558.494L416.333 558.474Z" fill="black"/>
<path d="M431.129 540.219H433.875V544.744H436.467V546.968H433.875V557.526C433.875 558.087 434.069 558.474 434.456 558.667C434.668 558.783 435.016 558.841 435.519 558.841C435.655 558.841 435.79 558.841 435.945 558.841C436.099 558.841 436.274 558.822 436.467 558.783V560.949C436.158 561.045 435.829 561.104 435.5 561.142C435.171 561.181 434.804 561.2 434.398 561.2C433.121 561.2 432.27 560.871 431.806 560.233C431.342 559.595 431.129 558.744 431.129 557.7V546.987H428.943V544.763H431.129V540.238V540.219Z" fill="black"/>
<path d="M459.502 546.368C460.933 547.76 461.649 549.791 461.649 552.498C461.649 555.205 461.01 557.255 459.753 558.957C458.496 560.658 456.543 561.509 453.893 561.509C451.688 561.509 449.928 560.755 448.632 559.247C447.336 557.738 446.679 555.727 446.679 553.194C446.679 550.467 447.356 548.321 448.729 546.697C450.102 545.091 451.939 544.279 454.26 544.279C456.33 544.279 458.09 544.975 459.502 546.368V546.368ZM457.819 557.12C458.477 555.747 458.806 554.238 458.806 552.575C458.806 551.067 458.573 549.849 458.09 548.901C457.336 547.412 456.02 546.677 454.183 546.677C452.539 546.677 451.34 547.315 450.605 548.572C449.851 549.849 449.483 551.376 449.483 553.155C449.483 554.934 449.851 556.307 450.605 557.448C451.359 558.589 452.539 559.169 454.164 559.169C455.943 559.169 457.162 558.493 457.838 557.12H457.819Z" fill="black"/>
<path d="M464.763 544.822H467.432V546.969C467.973 546.234 468.573 545.673 469.211 545.267C470.139 544.668 471.203 544.358 472.46 544.358C474.298 544.358 475.864 545.055 477.141 546.466C478.417 547.878 479.075 549.87 479.075 552.48C479.075 556 478.147 558.514 476.29 560.041C475.11 560.989 473.756 561.472 472.19 561.472C470.971 561.472 469.946 561.202 469.114 560.679C468.631 560.37 468.089 559.867 467.49 559.132V567.39H464.763V544.842V544.822ZM474.994 557.508C475.845 556.444 476.251 554.859 476.251 552.751C476.251 551.455 476.058 550.353 475.69 549.425C474.975 547.646 473.679 546.756 471.803 546.756C469.927 546.756 468.612 547.704 467.915 549.58C467.548 550.585 467.354 551.861 467.354 553.408C467.354 554.665 467.548 555.729 467.915 556.599C468.631 558.262 469.907 559.113 471.803 559.113C473.079 559.113 474.143 558.591 474.975 557.527L474.994 557.508Z" fill="black"/>
<path d="M482.286 538.729H485.013V560.929H482.286V538.729Z" fill="black"/>
<path d="M499.074 545.189C500.138 545.731 500.969 546.427 501.53 547.278C502.072 548.09 502.439 549.037 502.613 550.14C502.768 550.894 502.845 552.073 502.845 553.698H491.067C491.125 555.341 491.492 556.656 492.227 557.662C492.943 558.648 494.065 559.151 495.573 559.151C496.985 559.151 498.107 558.687 498.938 557.739C499.403 557.198 499.751 556.56 499.944 555.844H502.613C502.536 556.444 502.304 557.101 501.917 557.836C501.511 558.571 501.066 559.17 500.582 559.634C499.77 560.447 498.745 560.988 497.546 561.259C496.888 561.413 496.153 561.491 495.341 561.491C493.33 561.491 491.647 560.756 490.254 559.286C488.862 557.817 488.166 555.767 488.166 553.137C488.166 550.507 488.862 548.438 490.274 546.813C491.666 545.189 493.504 544.377 495.766 544.377C496.908 544.377 498.01 544.648 499.093 545.189H499.074ZM500.041 551.551C499.925 550.372 499.673 549.424 499.267 548.728C498.532 547.413 497.294 546.755 495.573 546.755C494.335 546.755 493.291 547.2 492.459 548.109C491.628 549.018 491.183 550.159 491.125 551.551H500.041Z" fill="black"/>
<path d="M507.622 544.745L511.935 557.914L516.441 544.745H519.42L513.327 560.931H510.426L504.45 544.745H507.602H507.622Z" fill="black"/>
<path d="M531.759 545.189C532.823 545.731 533.655 546.427 534.216 547.278C534.757 548.09 535.125 549.037 535.299 550.14C535.453 550.894 535.531 552.073 535.531 553.698H523.752C523.81 555.341 524.178 556.656 524.913 557.662C525.628 558.648 526.75 559.151 528.259 559.151C529.671 559.151 530.792 558.687 531.624 557.739C532.088 557.198 532.436 556.56 532.63 555.844H535.299C535.221 556.444 534.989 557.101 534.602 557.836C534.196 558.571 533.751 559.17 533.268 559.634C532.456 560.447 531.431 560.988 530.231 561.259C529.574 561.413 528.839 561.491 528.027 561.491C526.015 561.491 524.332 560.756 522.94 559.286C521.547 557.817 520.851 555.767 520.851 553.137C520.851 550.507 521.547 548.438 522.959 546.813C524.352 545.189 526.189 544.377 528.452 544.377C529.593 544.377 530.696 544.648 531.779 545.189H531.759ZM532.726 551.551C532.61 550.372 532.359 549.424 531.953 548.728C531.218 547.413 529.98 546.755 528.259 546.755C527.021 546.755 525.976 547.2 525.145 548.109C524.313 549.018 523.868 550.159 523.81 551.551H532.726Z" fill="black"/>
<path d="M129.449 581.873V592.606C129.449 593.437 129.584 594.114 129.836 594.636C130.3 595.603 131.19 596.086 132.466 596.086C134.303 596.086 135.561 595.235 136.238 593.553C136.605 592.644 136.779 591.407 136.779 589.821V581.873H139.506V598.059H136.934L136.972 595.68C136.624 596.299 136.199 596.821 135.677 597.227C134.652 598.078 133.414 598.504 131.963 598.504C129.7 598.504 128.153 597.73 127.341 596.183C126.896 595.351 126.683 594.249 126.683 592.876V581.873H129.468H129.449Z" fill="black"/>
<path d="M143.704 575.781H146.353V583.825C146.953 583.052 147.669 582.452 148.5 582.046C149.332 581.64 150.222 581.427 151.208 581.427C153.239 581.427 154.863 582.124 156.121 583.497C157.378 584.889 158.016 586.919 158.016 589.627C158.016 592.179 157.397 594.306 156.159 596.008C154.921 597.71 153.2 598.541 150.995 598.541C149.757 598.541 148.713 598.251 147.862 597.652C147.359 597.304 146.818 596.743 146.237 595.95V598.019H143.723V575.742L143.704 575.781ZM154.109 594.403C154.844 593.243 155.211 591.696 155.211 589.781C155.211 588.08 154.844 586.668 154.109 585.546C153.374 584.425 152.291 583.864 150.879 583.864C149.641 583.864 148.539 584.328 147.61 585.237C146.682 586.146 146.218 587.674 146.218 589.762C146.218 591.29 146.411 592.508 146.798 593.456C147.514 595.235 148.848 596.124 150.821 596.124C152.291 596.124 153.393 595.544 154.128 594.364L154.109 594.403Z" fill="black"/>
<path d="M171.148 582.317C172.212 582.859 173.043 583.555 173.604 584.406C174.146 585.218 174.513 586.165 174.687 587.268C174.842 588.022 174.92 589.201 174.92 590.826H163.141C163.199 592.469 163.566 593.784 164.301 594.79C165.017 595.776 166.139 596.279 167.647 596.279C169.059 596.279 170.181 595.815 171.013 594.867C171.477 594.326 171.825 593.688 172.018 592.972H174.687C174.61 593.572 174.378 594.229 173.991 594.964C173.585 595.699 173.14 596.298 172.657 596.762C171.844 597.575 170.819 598.116 169.62 598.387C168.963 598.541 168.228 598.619 167.415 598.619C165.404 598.619 163.721 597.884 162.329 596.414C160.936 594.945 160.24 592.895 160.24 590.265C160.24 587.635 160.936 585.566 162.348 583.941C163.74 582.317 165.578 581.505 167.841 581.505C168.982 581.505 170.084 581.776 171.167 582.317H171.148ZM172.115 588.679C171.999 587.5 171.748 586.552 171.341 585.856C170.606 584.541 169.369 583.883 167.647 583.883C166.41 583.883 165.365 584.328 164.533 585.237C163.702 586.146 163.257 587.287 163.199 588.679H172.115Z" fill="black"/>
<path d="M187.356 582.531C187.859 582.879 188.381 583.401 188.923 584.078V582.048H191.437V596.764C191.437 598.813 191.127 600.438 190.528 601.637C189.406 603.841 187.279 604.924 184.165 604.924C182.424 604.924 180.973 604.537 179.774 603.744C178.594 602.971 177.918 601.733 177.782 600.09H180.548C180.683 600.824 180.935 601.366 181.322 601.772C181.94 602.371 182.888 602.681 184.203 602.681C186.273 602.681 187.627 601.946 188.284 600.476C188.671 599.606 188.845 598.059 188.806 595.835C188.265 596.667 187.607 597.286 186.853 597.672C186.099 598.079 185.074 598.272 183.836 598.272C182.095 598.272 180.567 597.653 179.252 596.415C177.937 595.178 177.279 593.109 177.279 590.247C177.279 587.539 177.937 585.432 179.252 583.904C180.567 582.376 182.173 581.622 184.029 581.622C185.286 581.622 186.389 581.931 187.337 582.55L187.356 582.531ZM187.685 585.451C186.872 584.484 185.809 584.001 184.551 584.001C182.656 584.001 181.341 584.89 180.645 586.689C180.277 587.655 180.084 588.893 180.084 590.459C180.084 592.277 180.451 593.669 181.186 594.617C181.921 595.565 182.908 596.048 184.165 596.048C186.099 596.048 187.472 595.158 188.265 593.399C188.71 592.393 188.923 591.233 188.923 589.918C188.923 587.907 188.516 586.437 187.685 585.47V585.451Z" fill="black"/>
<path d="M195.633 581.872H198.225V584.676C198.438 584.135 198.96 583.477 199.772 582.685C200.604 581.911 201.552 581.505 202.635 581.505C202.693 581.505 202.77 581.505 202.886 581.505C203.002 581.505 203.215 581.544 203.505 581.563V584.425C203.35 584.386 203.196 584.367 203.06 584.367C202.925 584.367 202.77 584.367 202.615 584.367C201.242 584.367 200.198 584.812 199.463 585.682C198.728 586.571 198.36 587.577 198.36 588.718V598.019H195.633V581.834V581.872Z" fill="black"/>
<path d="M214.181 588.255C214.684 588.177 215.071 588.003 215.322 587.713C215.573 587.423 215.689 587.017 215.689 586.475C215.689 585.605 215.419 584.948 214.858 584.503C214.297 584.058 213.407 583.826 212.169 583.826C211.164 583.826 210.371 583.981 209.771 584.31C208.765 584.909 208.263 585.76 208.263 586.862H205.652C205.748 584.58 206.638 583.033 208.321 582.202C209.288 581.738 210.603 581.486 212.285 581.486C213.62 581.486 214.761 581.738 215.709 582.221C216.521 582.647 217.121 583.227 217.546 583.923C218.146 583.149 218.881 582.55 219.77 582.124C220.66 581.699 221.666 581.486 222.768 581.486C223.948 581.486 225.031 581.699 226.018 582.105C227.004 582.531 227.836 583.227 228.493 584.194C229.093 585.006 229.48 585.934 229.673 586.978C229.866 588.022 229.963 589.318 229.963 590.826H218.126C218.184 592.489 218.591 593.824 219.364 594.791C220.138 595.757 221.221 596.241 222.614 596.241C223.909 596.241 224.915 595.951 225.592 595.39C226.269 594.81 226.753 594.017 227.004 592.973H229.75C229.654 593.785 229.325 594.617 228.745 595.467C228.164 596.318 227.545 596.956 226.907 597.382C226.211 597.846 225.495 598.155 224.76 598.349C224.025 598.523 223.29 598.619 222.517 598.619C221.047 598.619 219.732 598.233 218.61 597.459C217.566 596.686 216.908 595.912 216.599 595.158C215.767 596.376 214.838 597.266 213.794 597.807C212.75 598.349 211.609 598.619 210.39 598.619C208.669 598.619 207.334 598.194 206.386 597.324C205.439 596.454 204.975 595.332 204.975 593.978C204.975 592.18 205.574 590.846 206.793 589.956C207.566 589.395 208.591 589.028 209.887 588.854L214.181 588.274V588.255ZM215.631 589.821C215.38 589.995 215.129 590.13 214.897 590.227C214.664 590.324 214.239 590.42 213.62 590.517L211.318 590.865C210.216 591.039 209.404 591.271 208.939 591.542C208.147 592.006 207.76 592.721 207.76 593.708C207.76 594.559 208.069 595.197 208.707 595.661C209.346 596.125 210.081 596.338 210.951 596.338C211.434 596.338 212.015 596.202 212.653 595.951C213.291 595.699 213.91 595.313 214.452 594.791C214.935 594.326 215.264 593.862 215.419 593.379C215.515 593.07 215.573 592.567 215.631 591.851V589.821V589.821ZM227.081 588.68C227.043 587.094 226.617 585.895 225.785 585.083C224.954 584.271 223.929 583.865 222.73 583.865C221.53 583.865 220.486 584.271 219.616 585.083C218.745 585.895 218.262 587.094 218.165 588.68H227.081Z" fill="black"/>
<path d="M233.387 581.872H235.979V584.174C236.752 583.226 237.565 582.549 238.416 582.143C239.267 581.737 240.214 581.524 241.278 581.524C243.58 581.524 245.127 582.317 245.939 583.922C246.384 584.792 246.597 586.049 246.597 587.693V598.078H243.831V587.887C243.831 586.9 243.676 586.107 243.386 585.508C242.903 584.502 242.032 584 240.756 584C240.118 584 239.576 584.058 239.17 584.193C238.416 584.406 237.777 584.851 237.197 585.527C236.752 586.069 236.443 586.61 236.307 587.19C236.172 587.751 236.095 588.563 236.095 589.627V598.097H233.368V581.911L233.387 581.872Z" fill="black"/>
<path d="M252.206 592.973C252.283 593.882 252.515 594.578 252.902 595.061C253.598 595.931 254.817 596.376 256.538 596.376C257.563 596.376 258.472 596.163 259.246 595.719C260.019 595.274 260.426 594.597 260.426 593.688C260.426 592.992 260.116 592.47 259.497 592.103C259.091 591.89 258.317 591.619 257.138 591.329L254.933 590.788C253.54 590.44 252.496 590.053 251.838 589.647C250.658 588.912 250.059 587.887 250.059 586.591C250.059 585.064 250.62 583.826 251.742 582.878C252.863 581.931 254.353 581.467 256.248 581.467C258.724 581.467 260.503 582.182 261.586 583.613C262.263 584.522 262.611 585.489 262.572 586.553H260C259.942 585.934 259.729 585.392 259.343 584.89C258.704 584.174 257.602 583.826 256.016 583.826C254.971 583.826 254.159 584.019 253.618 584.406C253.076 584.793 252.805 585.315 252.805 585.953C252.805 586.649 253.153 587.21 253.869 587.636C254.275 587.887 254.894 588.1 255.687 588.293L257.525 588.738C259.517 589.221 260.851 589.666 261.528 590.111C262.592 590.807 263.114 591.89 263.114 593.398C263.114 594.907 262.553 596.086 261.451 597.13C260.348 598.175 258.666 598.697 256.403 598.697C253.966 598.697 252.244 598.155 251.219 597.053C250.194 595.97 249.653 594.616 249.595 592.992H252.206V592.973Z" fill="black"/>
<path d="M276.072 582.317C277.136 582.859 277.968 583.555 278.529 584.406C279.07 585.218 279.438 586.165 279.612 587.268C279.767 588.022 279.844 589.201 279.844 590.826H268.065C268.123 592.469 268.491 593.784 269.226 594.79C269.941 595.776 271.063 596.279 272.572 596.279C273.984 596.279 275.105 595.815 275.937 594.867C276.401 594.326 276.749 593.688 276.943 592.972H279.612C279.534 593.572 279.302 594.229 278.916 594.964C278.509 595.699 278.064 596.298 277.581 596.762C276.769 597.575 275.744 598.116 274.544 598.387C273.887 598.541 273.152 598.619 272.34 598.619C270.328 598.619 268.645 597.884 267.253 596.414C265.86 594.945 265.164 592.895 265.164 590.265C265.164 587.635 265.86 585.566 267.272 583.941C268.665 582.317 270.502 581.505 272.765 581.505C273.906 581.505 275.009 581.776 276.092 582.317H276.072ZM277.039 588.679C276.923 587.5 276.672 586.552 276.266 585.856C275.531 584.541 274.293 583.883 272.572 583.883C271.334 583.883 270.289 584.328 269.458 585.237C268.626 586.146 268.181 587.287 268.123 588.679H277.039Z" fill="black"/>
<path d="M283.828 577.349H286.574V581.874H289.166V584.097H286.574V594.656C286.574 595.217 286.767 595.603 287.154 595.797C287.367 595.913 287.715 595.971 288.218 595.971C288.353 595.971 288.489 595.971 288.644 595.971C288.798 595.971 288.972 595.952 289.166 595.913V598.079C288.856 598.175 288.527 598.233 288.199 598.272C287.87 598.311 287.502 598.33 287.096 598.33C285.82 598.33 284.969 598.001 284.505 597.363C284.04 596.725 283.828 595.874 283.828 594.83V584.117H281.642V581.893H283.828V577.368V577.349Z" fill="black"/>
<path d="M309.146 588.254C309.765 588.177 310.19 587.906 310.403 587.461C310.519 587.21 310.577 586.862 310.577 586.417C310.577 585.489 310.248 584.812 309.591 584.387C308.933 583.961 307.985 583.748 306.767 583.748C305.355 583.748 304.349 584.135 303.75 584.909C303.421 585.334 303.208 585.972 303.112 586.804H300.578C300.636 584.812 301.274 583.42 302.512 582.627C303.75 581.834 305.2 581.447 306.844 581.447C308.74 581.447 310.287 581.815 311.486 582.53C312.666 583.265 313.246 584.387 313.246 585.914V595.235C313.246 595.525 313.304 595.738 313.42 595.912C313.536 596.086 313.788 596.163 314.155 596.163C314.271 596.163 314.407 596.163 314.561 596.144C314.716 596.125 314.871 596.105 315.045 596.067V598.078C314.619 598.194 314.291 598.271 314.078 598.31C313.865 598.348 313.556 598.348 313.169 598.348C312.24 598.348 311.544 598.02 311.138 597.343C310.925 596.995 310.751 596.492 310.674 595.854C310.113 596.589 309.32 597.208 308.295 597.749C307.27 598.29 306.109 598.542 304.872 598.542C303.363 598.542 302.145 598.078 301.197 597.169C300.249 596.26 299.766 595.119 299.766 593.746C299.766 592.257 300.23 591.077 301.178 590.265C302.125 589.453 303.344 588.931 304.872 588.738L309.204 588.196L309.146 588.254ZM303.421 595.603C304.001 596.047 304.678 596.279 305.452 596.279C306.419 596.279 307.328 596.067 308.237 595.622C309.746 594.887 310.5 593.688 310.5 592.025V589.84C310.171 590.053 309.746 590.227 309.223 590.362C308.701 590.497 308.179 590.613 307.695 590.671L306.051 590.884C305.065 591.019 304.33 591.213 303.827 591.503C302.996 591.967 302.57 592.721 302.57 593.765C302.57 594.558 302.86 595.177 303.44 595.622L303.421 595.603Z" fill="black"/>
<path d="M317.675 581.872H320.267V584.174C321.04 583.226 321.853 582.549 322.704 582.143C323.555 581.737 324.502 581.524 325.566 581.524C327.868 581.524 329.415 582.317 330.227 583.922C330.672 584.792 330.885 586.049 330.885 587.693V598.078H328.119V587.887C328.119 586.9 327.964 586.107 327.674 585.508C327.191 584.502 326.321 584 325.044 584C324.406 584 323.864 584.058 323.458 584.193C322.704 584.406 322.065 584.851 321.485 585.527C321.04 586.069 320.731 586.61 320.596 587.19C320.46 587.751 320.383 588.563 320.383 589.627V598.097H317.656V581.911L317.675 581.872Z" fill="black"/>
<path d="M335.43 577.349H338.177V581.874H340.768V584.097H338.177V594.656C338.177 595.217 338.37 595.603 338.757 595.797C338.97 595.913 339.318 595.971 339.821 595.971C339.956 595.971 340.091 595.971 340.246 595.971C340.401 595.971 340.575 595.952 340.768 595.913V598.079C340.459 598.175 340.13 598.233 339.801 598.272C339.472 598.311 339.105 598.33 338.699 598.33C337.422 598.33 336.571 598.001 336.107 597.363C335.643 596.725 335.43 595.874 335.43 594.83V584.117H333.245V581.893H335.43V577.368V577.349Z" fill="black"/>
<path d="M352.16 588.254C352.779 588.177 353.204 587.906 353.417 587.461C353.533 587.21 353.591 586.862 353.591 586.417C353.591 585.489 353.262 584.812 352.604 584.387C351.947 583.961 350.999 583.748 349.781 583.748C348.369 583.748 347.363 584.135 346.764 584.909C346.435 585.334 346.222 585.972 346.125 586.804H343.592C343.65 584.812 344.288 583.42 345.526 582.627C346.764 581.834 348.214 581.447 349.858 581.447C351.753 581.447 353.301 581.815 354.5 582.53C355.68 583.265 356.26 584.387 356.26 585.914V595.235C356.26 595.525 356.318 595.738 356.434 595.912C356.55 596.086 356.801 596.163 357.169 596.163C357.285 596.163 357.42 596.163 357.575 596.144C357.73 596.125 357.885 596.105 358.059 596.067V598.078C357.633 598.194 357.304 598.271 357.092 598.31C356.879 598.348 356.569 598.348 356.183 598.348C355.254 598.348 354.558 598.02 354.152 597.343C353.939 596.995 353.765 596.492 353.688 595.854C353.127 596.589 352.334 597.208 351.309 597.749C350.284 598.29 349.123 598.542 347.885 598.542C346.377 598.542 345.158 598.078 344.211 597.169C343.263 596.26 342.779 595.119 342.779 593.746C342.779 592.257 343.244 591.077 344.191 590.265C345.139 589.453 346.357 588.931 347.885 588.738L352.218 588.196L352.16 588.254ZM346.435 595.603C347.015 596.047 347.692 596.279 348.466 596.279C349.433 596.279 350.342 596.067 351.251 595.622C352.759 594.887 353.514 593.688 353.514 592.025V589.84C353.185 590.053 352.759 590.227 352.237 590.362C351.715 590.497 351.193 590.613 350.709 590.671L349.065 590.884C348.079 591.019 347.344 591.213 346.841 591.503C346.009 591.967 345.584 592.721 345.584 593.765C345.584 594.558 345.874 595.177 346.454 595.622L346.435 595.603Z" fill="black"/>
<path d="M360.786 575.859H363.513V598.059H360.786V575.859Z" fill="black"/>
<path d="M377.438 576.941C378.077 576.013 379.295 575.549 381.113 575.549C381.287 575.549 381.461 575.549 381.635 575.549C381.809 575.549 382.022 575.568 382.254 575.587V578.063C381.964 578.043 381.771 578.024 381.635 578.024C381.5 578.024 381.384 578.024 381.268 578.024C380.436 578.024 379.933 578.237 379.779 578.662C379.624 579.088 379.527 580.19 379.527 581.93H382.254V584.077H379.527V598.039H376.839V584.077H374.595V581.93H376.839V579.397C376.877 578.275 377.071 577.444 377.419 576.922L377.438 576.941Z" fill="black"/>
<path d="M396.49 583.498C397.921 584.89 398.636 586.92 398.636 589.628C398.636 592.335 397.998 594.385 396.741 596.086C395.484 597.788 393.53 598.639 390.881 598.639C388.676 598.639 386.916 597.885 385.62 596.377C384.324 594.868 383.667 592.857 383.667 590.324C383.667 587.597 384.343 585.451 385.717 583.826C387.09 582.221 388.927 581.409 391.248 581.409C393.318 581.409 395.078 582.105 396.49 583.498V583.498ZM394.807 594.249C395.464 592.876 395.793 591.368 395.793 589.705C395.793 588.197 395.561 586.978 395.078 586.031C394.323 584.542 393.008 583.807 391.171 583.807C389.527 583.807 388.328 584.445 387.593 585.702C386.838 586.978 386.471 588.506 386.471 590.285C386.471 592.064 386.838 593.437 387.593 594.578C388.347 595.719 389.527 596.299 391.151 596.299C392.931 596.299 394.149 595.622 394.826 594.249H394.807Z" fill="black"/>
<path d="M402.06 581.872H404.651V584.676C404.864 584.135 405.386 583.477 406.199 582.685C407.03 581.911 407.978 581.505 409.061 581.505C409.119 581.505 409.196 581.505 409.312 581.505C409.429 581.505 409.641 581.544 409.931 581.563V584.425C409.777 584.386 409.622 584.367 409.487 584.367C409.351 584.367 409.196 584.367 409.042 584.367C407.668 584.367 406.624 584.812 405.889 585.682C405.154 586.571 404.787 587.577 404.787 588.718V598.019H402.06V581.834V581.872Z" fill="black"/>
<path d="M422.29 582.317C423.354 582.859 424.186 583.555 424.746 584.406C425.288 585.218 425.655 586.165 425.829 587.268C425.984 588.022 426.062 589.201 426.062 590.826H414.283C414.341 592.469 414.708 593.784 415.443 594.79C416.159 595.776 417.281 596.279 418.789 596.279C420.201 596.279 421.323 595.815 422.155 594.867C422.619 594.326 422.967 593.688 423.16 592.972H425.829C425.752 593.572 425.52 594.229 425.133 594.964C424.727 595.699 424.282 596.298 423.799 596.762C422.986 597.575 421.961 598.116 420.762 598.387C420.105 598.541 419.37 598.619 418.557 598.619C416.546 598.619 414.863 597.884 413.471 596.414C412.078 594.945 411.382 592.895 411.382 590.265C411.382 587.635 412.078 585.566 413.49 583.941C414.883 582.317 416.72 581.505 418.983 581.505C420.124 581.505 421.226 581.776 422.309 582.317H422.29ZM423.257 588.679C423.141 587.5 422.89 586.552 422.484 585.856C421.749 584.541 420.511 583.883 418.789 583.883C417.552 583.883 416.507 584.328 415.676 585.237C414.844 586.146 414.399 587.287 414.341 588.679H423.257Z" fill="black"/>
<path d="M431.109 592.973C431.186 593.882 431.419 594.578 431.805 595.061C432.502 595.931 433.72 596.376 435.441 596.376C436.466 596.376 437.376 596.163 438.149 595.719C438.923 595.274 439.329 594.597 439.329 593.688C439.329 592.992 439.019 592.47 438.401 592.103C437.994 591.89 437.221 591.619 436.041 591.329L433.836 590.788C432.444 590.44 431.399 590.053 430.742 589.647C429.562 588.912 428.962 587.887 428.962 586.591C428.962 585.064 429.523 583.826 430.645 582.878C431.767 581.931 433.256 581.467 435.151 581.467C437.627 581.467 439.406 582.182 440.489 583.613C441.166 584.522 441.514 585.489 441.476 586.553H438.903C438.845 585.934 438.633 585.392 438.246 584.89C437.608 584.174 436.505 583.826 434.919 583.826C433.875 583.826 433.063 584.019 432.521 584.406C431.979 584.793 431.709 585.315 431.709 585.953C431.709 586.649 432.057 587.21 432.772 587.636C433.179 587.887 433.797 588.1 434.59 588.293L436.428 588.738C438.42 589.221 439.754 589.666 440.431 590.111C441.495 590.807 442.017 591.89 442.017 593.398C442.017 594.907 441.456 596.086 440.354 597.13C439.252 598.175 437.569 598.697 435.306 598.697C432.869 598.697 431.148 598.155 430.123 597.053C429.098 595.97 428.556 594.616 428.498 592.992H431.109V592.973Z" fill="black"/>
<path d="M445.518 577.349H448.264V581.874H450.856V584.097H448.264V594.656C448.264 595.217 448.458 595.603 448.845 595.797C449.057 595.913 449.406 595.971 449.908 595.971C450.044 595.971 450.179 595.971 450.334 595.971C450.489 595.971 450.663 595.952 450.856 595.913V598.079C450.547 598.175 450.218 598.233 449.889 598.272C449.56 598.311 449.193 598.33 448.787 598.33C447.51 598.33 446.659 598.001 446.195 597.363C445.731 596.725 445.518 595.874 445.518 594.83V584.117H443.333V581.893H445.518V577.368V577.349Z" fill="black"/>
<path d="M453.564 575.859H456.33V578.934H453.564V575.859ZM453.564 581.951H456.33V598.059H453.564V581.951Z" fill="black"/>
<path d="M460.527 575.859H463.254V598.059H460.527V575.859Z" fill="black"/>
<path d="M467.393 575.859H470.12V598.059H467.393V575.859Z" fill="black"/>
<path d="M474.201 575.859H476.966V578.934H474.201V575.859ZM474.201 581.951H476.966V598.059H474.201V581.951Z" fill="black"/>
<path d="M481.067 581.872H483.659V584.174C484.433 583.226 485.245 582.549 486.096 582.143C486.947 581.737 487.895 581.524 488.958 581.524C491.26 581.524 492.807 582.317 493.619 583.922C494.064 584.792 494.277 586.049 494.277 587.693V598.078H491.511V587.887C491.511 586.9 491.357 586.107 491.066 585.508C490.583 584.502 489.713 584 488.436 584C487.798 584 487.256 584.058 486.85 584.193C486.096 584.406 485.458 584.851 484.877 585.527C484.433 586.069 484.123 586.61 483.988 587.19C483.852 587.751 483.775 588.563 483.775 589.627V598.097H481.048V581.911L481.067 581.872Z" fill="black"/>
<path d="M507.274 582.531C507.777 582.879 508.299 583.401 508.841 584.078V582.048H511.355V596.764C511.355 598.813 511.045 600.438 510.446 601.637C509.324 603.841 507.197 604.924 504.083 604.924C502.342 604.924 500.891 604.537 499.692 603.744C498.512 602.971 497.835 601.733 497.7 600.09H500.466C500.601 600.824 500.853 601.366 501.24 601.772C501.858 602.371 502.806 602.681 504.121 602.681C506.191 602.681 507.545 601.946 508.202 600.476C508.589 599.606 508.763 598.059 508.725 595.835C508.183 596.667 507.525 597.286 506.771 597.672C506.017 598.079 504.992 598.272 503.754 598.272C502.013 598.272 500.485 597.653 499.17 596.415C497.855 595.178 497.197 593.109 497.197 590.247C497.197 587.539 497.855 585.432 499.17 583.904C500.485 582.376 502.091 581.622 503.947 581.622C505.204 581.622 506.307 581.931 507.255 582.55L507.274 582.531ZM507.603 585.451C506.79 584.484 505.727 584.001 504.469 584.001C502.574 584.001 501.259 584.89 500.563 586.689C500.195 587.655 500.002 588.893 500.002 590.459C500.002 592.277 500.369 593.669 501.104 594.617C501.839 595.565 502.826 596.048 504.083 596.048C506.017 596.048 507.39 595.158 508.183 593.399C508.628 592.393 508.841 591.233 508.841 589.918C508.841 587.907 508.434 586.437 507.603 585.47V585.451Z" fill="black"/>
<path d="M525.493 582.317C526.557 582.859 527.388 583.555 527.949 584.406C528.491 585.218 528.858 586.165 529.032 587.268C529.187 588.022 529.264 589.201 529.264 590.826H517.486C517.544 592.469 517.911 593.784 518.646 594.79C519.362 595.776 520.484 596.279 521.992 596.279C523.404 596.279 524.526 595.815 525.357 594.867C525.822 594.326 526.17 593.688 526.363 592.972H529.032C528.955 593.572 528.723 594.229 528.336 594.964C527.93 595.699 527.485 596.298 527.001 596.762C526.189 597.575 525.164 598.116 523.965 598.387C523.307 598.541 522.572 598.619 521.76 598.619C519.748 598.619 518.066 597.884 516.673 596.414C515.281 594.945 514.584 592.895 514.584 590.265C514.584 587.635 515.281 585.566 516.693 583.941C518.085 582.317 519.923 581.505 522.185 581.505C523.327 581.505 524.429 581.776 525.512 582.317H525.493ZM526.46 588.679C526.344 587.5 526.092 586.552 525.686 585.856C524.951 584.541 523.713 583.883 521.992 583.883C520.754 583.883 519.71 584.328 518.878 585.237C518.047 586.146 517.602 587.287 517.544 588.679H526.46Z" fill="black"/>
<path d="M532.784 581.872H535.376V584.676C535.589 584.135 536.111 583.477 536.923 582.685C537.755 581.911 538.703 581.505 539.786 581.505C539.844 581.505 539.921 581.505 540.037 581.505C540.153 581.505 540.366 581.544 540.656 581.563V584.425C540.501 584.386 540.347 584.367 540.211 584.367C540.076 584.367 539.921 584.367 539.766 584.367C538.393 584.367 537.349 584.812 536.614 585.682C535.879 586.571 535.511 587.577 535.511 588.718V598.019H532.784V581.834V581.872Z" fill="black"/>
<path d="M203.331 625.382C203.95 625.305 204.375 625.034 204.588 624.589C204.704 624.338 204.762 623.99 204.762 623.545C204.762 622.617 204.433 621.94 203.776 621.515C203.118 621.089 202.171 620.876 200.952 620.876C199.54 620.876 198.534 621.263 197.935 622.037C197.606 622.462 197.393 623.1 197.297 623.932H194.763C194.821 621.94 195.459 620.548 196.697 619.755C197.935 618.962 199.385 618.575 201.029 618.575C202.925 618.575 204.472 618.943 205.671 619.658C206.851 620.393 207.431 621.515 207.431 623.042V632.363C207.431 632.653 207.489 632.866 207.605 633.04C207.721 633.214 207.973 633.291 208.34 633.291C208.456 633.291 208.592 633.291 208.747 633.272C208.901 633.253 209.056 633.233 209.23 633.194V635.206C208.805 635.322 208.476 635.399 208.263 635.438C208.05 635.476 207.741 635.476 207.354 635.476C206.426 635.476 205.729 635.148 205.323 634.471C205.11 634.123 204.936 633.62 204.859 632.982C204.298 633.717 203.505 634.335 202.48 634.877C201.455 635.418 200.295 635.67 199.057 635.67C197.548 635.67 196.33 635.206 195.382 634.297C194.434 633.388 193.951 632.247 193.951 630.874C193.951 629.385 194.415 628.205 195.363 627.393C196.31 626.581 197.529 626.059 199.057 625.865L203.389 625.324L203.331 625.382ZM197.606 632.73C198.186 633.175 198.863 633.407 199.637 633.407C200.604 633.407 201.513 633.194 202.422 632.75C203.931 632.015 204.685 630.816 204.685 629.153V626.968C204.356 627.18 203.931 627.354 203.408 627.49C202.886 627.625 202.364 627.741 201.88 627.799L200.236 628.012C199.25 628.147 198.515 628.341 198.012 628.631C197.181 629.095 196.755 629.849 196.755 630.893C196.755 631.686 197.045 632.305 197.625 632.75L197.606 632.73Z" fill="black"/>
<path d="M211.938 612.987H214.665V635.187H211.938V612.987Z" fill="black"/>
<path d="M218.823 612.987H221.55V635.187H218.823V612.987Z" fill="black"/>
<path d="M235.611 619.447C236.675 619.988 237.507 620.685 238.068 621.535C238.609 622.348 238.977 623.295 239.151 624.397C239.306 625.152 239.383 626.331 239.383 627.956H227.604C227.662 629.599 228.03 630.914 228.765 631.92C229.48 632.906 230.602 633.409 232.111 633.409C233.523 633.409 234.644 632.945 235.476 631.997C235.94 631.456 236.288 630.818 236.482 630.102H239.151C239.073 630.701 238.841 631.359 238.455 632.094C238.048 632.829 237.604 633.428 237.12 633.892C236.308 634.704 235.283 635.246 234.083 635.517C233.426 635.671 232.691 635.749 231.879 635.749C229.867 635.749 228.184 635.014 226.792 633.544C225.399 632.074 224.703 630.025 224.703 627.395C224.703 624.765 225.399 622.696 226.811 621.071C228.204 619.447 230.041 618.635 232.304 618.635C233.445 618.635 234.548 618.905 235.631 619.447H235.611ZM236.578 625.809C236.462 624.629 236.211 623.682 235.805 622.986C235.07 621.671 233.832 621.013 232.111 621.013C230.873 621.013 229.828 621.458 228.997 622.367C228.165 623.276 227.72 624.417 227.662 625.809H236.578Z" fill="black"/>
<path d="M252.689 614.071C253.327 613.143 254.546 612.679 256.364 612.679C256.538 612.679 256.712 612.679 256.886 612.679C257.06 612.679 257.273 612.698 257.505 612.717V615.193C257.215 615.173 257.021 615.154 256.886 615.154C256.75 615.154 256.634 615.154 256.518 615.154C255.687 615.154 255.184 615.367 255.029 615.792C254.874 616.218 254.778 617.32 254.778 619.06H257.505V621.207H254.778V635.169H252.089V621.207H249.846V619.06H252.089V616.527C252.128 615.405 252.321 614.574 252.669 614.052L252.689 614.071Z" fill="black"/>
<path d="M270.019 619.447C271.082 619.988 271.914 620.685 272.475 621.535C273.016 622.348 273.384 623.295 273.558 624.397C273.713 625.152 273.79 626.331 273.79 627.956H262.011C262.07 629.599 262.437 630.914 263.172 631.92C263.888 632.906 265.009 633.409 266.518 633.409C267.93 633.409 269.052 632.945 269.883 631.997C270.347 631.456 270.696 630.818 270.889 630.102H273.558C273.481 630.701 273.249 631.359 272.862 632.094C272.456 632.829 272.011 633.428 271.527 633.892C270.715 634.704 269.69 635.246 268.491 635.517C267.833 635.671 267.098 635.749 266.286 635.749C264.274 635.749 262.592 635.014 261.199 633.544C259.807 632.074 259.11 630.025 259.11 627.395C259.11 624.765 259.807 622.696 261.219 621.071C262.611 619.447 264.448 618.635 266.711 618.635C267.852 618.635 268.955 618.905 270.038 619.447H270.019ZM270.986 625.809C270.87 624.629 270.618 623.682 270.212 622.986C269.477 621.671 268.239 621.013 266.518 621.013C265.28 621.013 264.236 621.458 263.404 622.367C262.572 623.276 262.128 624.417 262.07 625.809H270.986Z" fill="black"/>
<path d="M278.858 630.101C278.935 631.01 279.167 631.706 279.554 632.189C280.25 633.059 281.469 633.504 283.19 633.504C284.215 633.504 285.124 633.291 285.898 632.847C286.671 632.402 287.078 631.725 287.078 630.816C287.078 630.12 286.768 629.598 286.149 629.23C285.743 629.018 284.969 628.747 283.79 628.457L281.585 627.915C280.192 627.567 279.148 627.181 278.49 626.775C277.31 626.04 276.711 625.015 276.711 623.719C276.711 622.192 277.272 620.954 278.393 620.006C279.515 619.059 281.004 618.595 282.9 618.595C285.376 618.595 287.155 619.31 288.238 620.741C288.915 621.65 289.263 622.617 289.224 623.681H286.652C286.594 623.062 286.381 622.52 285.994 622.017C285.356 621.302 284.254 620.954 282.668 620.954C281.623 620.954 280.811 621.147 280.27 621.534C279.728 621.921 279.457 622.443 279.457 623.081C279.457 623.777 279.805 624.338 280.521 624.763C280.927 625.015 281.546 625.228 282.339 625.421L284.176 625.866C286.169 626.349 287.503 626.794 288.18 627.239C289.244 627.935 289.766 629.018 289.766 630.526C289.766 632.034 289.205 633.214 288.103 634.258C287 635.303 285.318 635.825 283.055 635.825C280.618 635.825 278.896 635.283 277.871 634.181C276.846 633.098 276.305 631.744 276.247 630.12H278.858V630.101Z" fill="black"/>
<path d="M293.247 614.477H295.993V619.002H298.585V621.225H295.993V631.784C295.993 632.345 296.186 632.731 296.573 632.925C296.786 633.041 297.134 633.099 297.637 633.099C297.772 633.099 297.908 633.099 298.062 633.099C298.217 633.099 298.391 633.079 298.585 633.041V635.207C298.275 635.303 297.946 635.361 297.618 635.4C297.289 635.439 296.921 635.458 296.515 635.458C295.239 635.458 294.388 635.129 293.923 634.491C293.459 633.853 293.247 633.002 293.247 631.958V621.245H291.061V619.021H293.247V614.496V614.477Z" fill="black"/>
<path d="M301.312 612.987H304.078V616.062H301.312V612.987ZM301.312 619.079H304.078V635.187H301.312V619.079Z" fill="black"/>
<path d="M309.513 619.001L313.826 632.17L318.333 619.001H321.311L315.219 635.187H312.318L306.341 619.001H309.494H309.513Z" fill="black"/>
<path d="M332.335 625.382C332.954 625.305 333.379 625.034 333.592 624.589C333.708 624.338 333.766 623.99 333.766 623.545C333.766 622.617 333.437 621.94 332.78 621.515C332.122 621.089 331.175 620.876 329.956 620.876C328.544 620.876 327.538 621.263 326.939 622.037C326.61 622.462 326.397 623.1 326.301 623.932H323.767C323.825 621.94 324.463 620.548 325.701 619.755C326.939 618.962 328.389 618.575 330.033 618.575C331.929 618.575 333.476 618.943 334.675 619.658C335.855 620.393 336.435 621.515 336.435 623.042V632.363C336.435 632.653 336.493 632.866 336.609 633.04C336.725 633.214 336.977 633.291 337.344 633.291C337.46 633.291 337.596 633.291 337.75 633.272C337.905 633.253 338.06 633.233 338.234 633.194V635.206C337.808 635.322 337.48 635.399 337.267 635.438C337.054 635.476 336.745 635.476 336.358 635.476C335.43 635.476 334.733 635.148 334.327 634.471C334.114 634.123 333.94 633.62 333.863 632.982C333.302 633.717 332.509 634.335 331.484 634.877C330.459 635.418 329.298 635.67 328.061 635.67C326.552 635.67 325.334 635.206 324.386 634.297C323.438 633.388 322.955 632.247 322.955 630.874C322.955 629.385 323.419 628.205 324.367 627.393C325.314 626.581 326.533 626.059 328.061 625.865L332.393 625.324L332.335 625.382ZM326.61 632.73C327.19 633.175 327.867 633.407 328.641 633.407C329.608 633.407 330.517 633.194 331.426 632.75C332.935 632.015 333.689 630.816 333.689 629.153V626.968C333.36 627.18 332.935 627.354 332.412 627.49C331.89 627.625 331.368 627.741 330.884 627.799L329.24 628.012C328.254 628.147 327.519 628.341 327.016 628.631C326.185 629.095 325.759 629.849 325.759 630.893C325.759 631.686 326.049 632.305 326.629 632.75L326.61 632.73Z" fill="black"/>
<path d="M340.941 612.987H343.668V635.187H340.941V612.987Z" fill="black"/>
<path d="M349.356 630.101C349.433 631.01 349.665 631.706 350.052 632.189C350.748 633.059 351.967 633.504 353.688 633.504C354.713 633.504 355.622 633.291 356.396 632.847C357.169 632.402 357.576 631.725 357.576 630.816C357.576 630.12 357.266 629.598 356.647 629.23C356.241 629.018 355.467 628.747 354.288 628.457L352.083 627.915C350.69 627.567 349.646 627.181 348.988 626.775C347.808 626.04 347.209 625.015 347.209 623.719C347.209 622.192 347.77 620.954 348.891 620.006C350.013 619.059 351.503 618.595 353.398 618.595C355.874 618.595 357.653 619.31 358.736 620.741C359.413 621.65 359.761 622.617 359.722 623.681H357.15C357.092 623.062 356.879 622.52 356.492 622.017C355.854 621.302 354.752 620.954 353.166 620.954C352.121 620.954 351.309 621.147 350.768 621.534C350.226 621.921 349.955 622.443 349.955 623.081C349.955 623.777 350.303 624.338 351.019 624.763C351.425 625.015 352.044 625.228 352.837 625.421L354.674 625.866C356.667 626.349 358.001 626.794 358.678 627.239C359.742 627.935 360.264 629.018 360.264 630.526C360.264 632.034 359.703 633.214 358.601 634.258C357.498 635.303 355.816 635.825 353.553 635.825C351.116 635.825 349.394 635.283 348.369 634.181C347.344 633.098 346.803 631.744 346.745 630.12H349.356V630.101Z" fill="black"/>
<path d="M372.1 619.504C372.583 619.814 373.125 620.336 373.744 621.09V612.91H376.355V635.187H373.899V632.944C373.26 633.95 372.525 634.665 371.655 635.11C370.785 635.555 369.798 635.767 368.696 635.767C366.897 635.767 365.35 635.013 364.035 633.486C362.72 631.977 362.062 629.947 362.062 627.433C362.062 625.074 362.662 623.043 363.861 621.303C365.06 619.582 366.781 618.711 369.005 618.711C370.243 618.711 371.268 618.982 372.1 619.504V619.504ZM366.027 631.629C366.762 632.789 367.922 633.389 369.547 633.389C370.804 633.389 371.829 632.847 372.642 631.764C373.454 630.682 373.86 629.135 373.86 627.104C373.86 625.074 373.454 623.546 372.603 622.56C371.771 621.573 370.746 621.09 369.528 621.09C368.154 621.09 367.052 621.612 366.22 622.656C365.369 623.701 364.944 625.248 364.944 627.278C364.944 629.019 365.311 630.469 366.046 631.629H366.027Z" fill="black"/>
<path d="M389.101 625.382C389.72 625.305 390.145 625.034 390.358 624.589C390.474 624.338 390.532 623.99 390.532 623.545C390.532 622.617 390.203 621.94 389.546 621.515C388.888 621.089 387.941 620.876 386.722 620.876C385.31 620.876 384.304 621.263 383.705 622.037C383.376 622.462 383.163 623.1 383.067 623.932H380.533C380.591 621.94 381.229 620.548 382.467 619.755C383.705 618.962 385.156 618.575 386.799 618.575C388.695 618.575 390.242 618.943 391.441 619.658C392.621 620.393 393.201 621.515 393.201 623.042V632.363C393.201 632.653 393.259 632.866 393.375 633.04C393.491 633.214 393.743 633.291 394.11 633.291C394.226 633.291 394.362 633.291 394.516 633.272C394.671 633.253 394.826 633.233 395 633.194V635.206C394.575 635.322 394.246 635.399 394.033 635.438C393.82 635.476 393.511 635.476 393.124 635.476C392.196 635.476 391.499 635.148 391.093 634.471C390.88 634.123 390.706 633.62 390.629 632.982C390.068 633.717 389.275 634.335 388.25 634.877C387.225 635.418 386.065 635.67 384.827 635.67C383.318 635.67 382.1 635.206 381.152 634.297C380.204 633.388 379.721 632.247 379.721 630.874C379.721 629.385 380.185 628.205 381.133 627.393C382.08 626.581 383.299 626.059 384.827 625.865L389.159 625.324L389.101 625.382ZM383.376 632.73C383.956 633.175 384.633 633.407 385.407 633.407C386.374 633.407 387.283 633.194 388.192 632.75C389.701 632.015 390.455 630.816 390.455 629.153V626.968C390.126 627.18 389.701 627.354 389.178 627.49C388.656 627.625 388.134 627.741 387.65 627.799L386.006 628.012C385.02 628.147 384.285 628.341 383.782 628.631C382.951 629.095 382.525 629.849 382.525 630.893C382.525 631.686 382.815 632.305 383.395 632.75L383.376 632.73Z" fill="black"/>
<path d="M406.624 619.659C407.127 620.007 407.649 620.529 408.191 621.206V619.175H410.705V633.891C410.705 635.941 410.395 637.566 409.796 638.765C408.674 640.969 406.547 642.052 403.433 642.052C401.692 642.052 400.242 641.665 399.042 640.872C397.863 640.099 397.186 638.861 397.05 637.218H399.816C399.951 637.952 400.203 638.494 400.59 638.9C401.209 639.499 402.156 639.809 403.471 639.809C405.541 639.809 406.895 639.074 407.552 637.604C407.939 636.734 408.113 635.187 408.075 632.963C407.533 633.795 406.875 634.414 406.121 634.8C405.367 635.206 404.342 635.4 403.104 635.4C401.363 635.4 399.835 634.781 398.52 633.543C397.205 632.306 396.547 630.237 396.547 627.375C396.547 624.667 397.205 622.56 398.52 621.032C399.835 619.504 401.441 618.75 403.297 618.75C404.555 618.75 405.657 619.059 406.605 619.678L406.624 619.659ZM406.953 622.579C406.14 621.612 405.077 621.129 403.82 621.129C401.924 621.129 400.609 622.018 399.913 623.816C399.545 624.783 399.352 626.021 399.352 627.587C399.352 629.405 399.719 630.797 400.454 631.745C401.189 632.693 402.176 633.176 403.433 633.176C405.367 633.176 406.74 632.286 407.533 630.527C407.978 629.521 408.191 628.361 408.191 627.046C408.191 625.035 407.784 623.565 406.953 622.598V622.579Z" fill="black"/>
<path d="M424.843 619.447C425.907 619.988 426.738 620.685 427.299 621.535C427.841 622.348 428.208 623.295 428.382 624.397C428.537 625.152 428.614 626.331 428.614 627.956H416.836C416.894 629.599 417.261 630.914 417.996 631.92C418.712 632.906 419.834 633.409 421.342 633.409C422.754 633.409 423.876 632.945 424.707 631.997C425.172 631.456 425.52 630.818 425.713 630.102H428.382C428.305 630.701 428.073 631.359 427.686 632.094C427.28 632.829 426.835 633.428 426.351 633.892C425.539 634.704 424.514 635.246 423.315 635.517C422.657 635.671 421.922 635.749 421.11 635.749C419.099 635.749 417.416 635.014 416.023 633.544C414.631 632.074 413.935 630.025 413.935 627.395C413.935 624.765 414.631 622.696 416.043 621.071C417.435 619.447 419.273 618.635 421.536 618.635C422.677 618.635 423.779 618.905 424.862 619.447H424.843ZM425.81 625.809C425.694 624.629 425.442 623.682 425.036 622.986C424.301 621.671 423.063 621.013 421.342 621.013C420.104 621.013 419.06 621.458 418.228 622.367C417.397 623.276 416.952 624.417 416.894 625.809H425.81Z" fill="black"/>
<path d="M432.057 619.002H434.649V621.304C435.422 620.356 436.235 619.679 437.086 619.273C437.937 618.867 438.884 618.654 439.948 618.654C442.25 618.654 443.797 619.447 444.609 621.052C445.054 621.922 445.267 623.179 445.267 624.823V635.207H442.501V625.016C442.501 624.03 442.346 623.237 442.056 622.638C441.573 621.632 440.702 621.13 439.426 621.13C438.788 621.13 438.246 621.187 437.84 621.323C437.086 621.536 436.447 621.98 435.867 622.657C435.422 623.199 435.113 623.74 434.977 624.32C434.842 624.881 434.765 625.693 434.765 626.757V635.227H432.038V619.041L432.057 619.002Z" fill="black"/>
<path d="M459.251 619.447C460.314 619.988 461.146 620.685 461.707 621.535C462.248 622.348 462.616 623.295 462.79 624.397C462.945 625.152 463.022 626.331 463.022 627.956H451.243C451.301 629.599 451.669 630.914 452.404 631.92C453.12 632.906 454.241 633.409 455.75 633.409C457.162 633.409 458.284 632.945 459.115 631.997C459.579 631.456 459.927 630.818 460.121 630.102H462.79C462.713 630.701 462.48 631.359 462.094 632.094C461.688 632.829 461.243 633.428 460.759 633.892C459.947 634.704 458.922 635.246 457.723 635.517C457.065 635.671 456.33 635.749 455.518 635.749C453.506 635.749 451.824 635.014 450.431 633.544C449.039 632.074 448.342 630.025 448.342 627.395C448.342 624.765 449.039 622.696 450.45 621.071C451.843 619.447 453.68 618.635 455.943 618.635C457.084 618.635 458.187 618.905 459.27 619.447H459.251ZM460.218 625.809C460.102 624.629 459.85 623.682 459.444 622.986C458.709 621.671 457.471 621.013 455.75 621.013C454.512 621.013 453.468 621.458 452.636 622.367C451.804 623.276 451.359 624.417 451.301 625.809H460.218Z" fill="black"/>
<path d="M467.123 631.881H470.275V635.168H467.123V631.881Z" fill="black"/>
</svg>
