<?xml version="1.0" encoding="UTF-8"?><svg xmlns="http://www.w3.org/2000/svg" width="354" height="274.71" viewBox="0 0 354 274.71"><defs><style>.c{fill:none;stroke:#be1622;stroke-miterlimit:10;stroke-width:5px;}.d{opacity:.92;}</style></defs><g id="a"><g class="d"><path class="c" d="M117.25,258.29c-4.96,1.77-20.29,6.54-37.34,.48-2.83-1-28.43-6.49-30.23-28.53-.83-10.19-2.54-20.02-4.22-37.39-.82-8.45-9-6.79-31.7-26.92-1.27-1.13-2.32-2.07-3.01-2.69-1.3-1.07-3.04-2.7-4.73-5-1.99-2.69-7.35-8.68-5.3-13.97,2.03-5.24,6.53-8.77,15.82-14.14,5-2.89,12.17-6.5,21.34-9.42,4.87-.86,9.73-1.72,14.6-2.59,2.04,.15,4.08,.3,6.13,.45,0,0-.28-1.56-.7-4.06-4.61-27.58-5.1-32.34-2.35-35.82,1.33-1.69,4.11-3.98,10.52-4.4,4.97,.59,11.52,1.78,18.85,4.34,3.05,1.07,13.32,4.85,24.59,13.36,12.65,9.56,20.7,20.66,25.62,29.08l23.2,35.99s23.77,38.76,25.71,39.62c1.94,.86,8.59,17.16,20.13,26.06,11.46,8.84,18.16,10.63,19.09,17.79,1.46,11.3-14.72,23.07-16.34,24.23-.69,.49-1.37,.95-2.07,1.39-.99,.63-1.99,1.2-3,1.73-1.02,.54-2.04,1.02-3.08,1.47-9.59,4.13-19.75,4.56-30.18,4.99-7.76,.32-14.16-.18-18.57-.71-6.55-1.01-16.26-3.42-26-9.84-9.55-6.29-15.1-13.77-20.99-22.73-11.75-17.88-21.77-33.12-30.6-57.66-5.48-15.22-11.64-37.18-13.84-64.83"/><path class="c" d="M201.85,267.9c10.58-2.58,21.69-5.01,33.29-7.21,12.82-2.44,25.12-4.39,36.84-5.94,13.68-1.81,24.09-3.14,30.22-3.84,12.02-1.37,22.56-2.4,31.19-3.16,1.82-.08,7.69-.54,10.28-4.63,2.13-3.36,1.02-7.53-.95-13.03-2.38-6.65-6.18-15.75-12.36-26.23-1.75-2.74-4.84-7.59-8.64-13.71-8.45-13.6-10.69-17.7-13.62-19.31-.54-.3-1-.47-1.68-.67-6.29-1.87-13.19,2.61-20.52,7.49-1.17,.78-2.67,1.82-4.38,3.12-6.88,4.65-13.76,9.29-20.64,13.94l-24.38,16.15-5.07,3.04-5.4,3.23-16.23,9.72c2.87-1.6,6.74-3.9,11.13-7,3.63-2.57,8.98-6.35,14.81-12.3,2.02-2.06,4.69-5,7.57-8.82-.55,.74-.99,1.3-1.4,1.81-1.4,1.73-2.75,3.28-2.77,3.26-.03-.02,2.21-2.57,4.16-5.07,2.68-3.43,8.36-10.79,11.72-20.46,.6-1.72,1.2-3.73,2.37-7.64,.1-.35,1.25-4.01,2.28-7.93,2.45-9.29,3.81-15.33,4.52-17.83,4.36-15.16,17.23-14.78,27.2-31.56,1.4-2.35,8.68-16.55,3.98-27.89-5.33-12.88-24.51-17.92-24.39-18.15,.03-.05,1.03,.43,1.04,.41,.03-.06-10.22-4.57-21.11-11.15-2.35-1.42-2.83-1.79-5.24-3.19-5.39-3.13-9.97-5.34-13.03-6.73-1.9-.96-4.68-2.29-8.05-3.85-5.15-2.4-7.77-3.51-10.01-4.16-7.78-2.24-15-.27-18.46,.68-7.61,2.09-12.71,5.78-17.33,9.12-6.05,4.38-10.45,8.93-13.35,12.32-1.13-.73-2.27-1.47-3.4-2.2l-11.18-5.77c-.35-.19-.7-.35-1.04-.48-4.23-1.59-8.85,.73-10.91,1.94-.89,.62-2.19,1.65-3.42,3.2-5.28,6.59-3.67,19.47-3.4,22.26,.68,7.15,.44,17.47-3.98,30.9,1.29,1.98,2.57,3.96,3.86,5.94,4.57,7.02,9.15,14,13.73,20.95,4.82,7.52,9.64,15.04,14.46,22.57l1.88,3.02,5.61,9.03c.55,.88,1.1,1.75,1.65,2.63,12.37-1.49,29.36-4.69,48.73-12.06,32.33-12.29,53.38-29.35,53.37-29.37,0-.02-21.84,17.48-54.53,29.73-19.31,7.24-36.05,10.27-47.58,11.69-2.19-3.47-4.38-6.94-6.58-10.41,3.19-1.75,8.3-4.43,14.77-7.3,8.2-3.63,10.75-4.09,21.71-8.62,8.53-3.53,14.88-6.52,17.32-7.68,7.91-3.77,14.4-7.24,19.08-9.85,3.3-1.9,8.07-4.75,13.68-8.47,6.45-4.29,9.68-6.43,12.22-8.74,2.41-2.19,11.95-11.1,14.77-24.99,.89-4.4,2.45-12.07-1.75-17.97-1.67-2.35-3.75-3.71-5.26-4.48-3.49-1.58-8.59-4.04-14.63-7.49-3.2-1.83-2.52-1.57-3.69-2.17-11.37-5.8-23.81-3.78-29.34-2.88-.53,.09-.95,.16-1.14,.2-3.22,1.3-8.94,4.15-13.78,10.06-5.23,6.4-10.72,17.97-6.72,25.23,.73,1.32,4.12,3.18,10.87,6.84,4.4,2.39,11.27,5.95,19.05,6.96,1.61,.21,3.83,.38,6.22-.78,2.88-1.41,4.36-3.96,4.88-4.88,.32-.57,4.08-7.49,.25-12.99-2.41-3.45-6.95-5.09-11.17-3.7-3.51,1.16-5.37,3.78-5.86,4.58"/><path class="c" d="M165.47,60.74c4.25,5.26,10,11.5,17.52,17.66,6.68,5.48,11.7,8.39,21.68,14.19,11.66,6.78,17.37,8.85,23.69,9.76,2.53,.37,4.66,.47,6.11,.51"/><path class="c" d="M86.13,79.37c-.15-.07-.28-.15-.42-.23-4.65-3.15,.89-19.12,3.6-26.23,.91-2.4,2.11-4.71,4.1-7.59,3.99-5.77,8.67-9.15,12.15-11.45,15.06-9.97,27.73-14.12,27.73-14.12C202.85-3.08,216.33-.42,222.98,1.41c13.62,3.76,20.19,10,22.81,12.89,2.45,2.71,13.9,15.37,9.73,30.26-1.52,5.42-4.54,9.3-6.68,11.54"/><path class="c" d="M256.38,39.32c4.6-1.51,11.94-3.44,20.83-3.51,36.58-.28,70.87,31.14,75.69,67.79,.93,7.07,2.35,19.07-3.73,32.16-7.87,16.94-28.45,25.38-45.3,32.93-4.37,1.96-8.02,3.37-10.42,4.25-7.59,5.32-15.35,10.64-23.28,15.94-20.54,13.74-40.7,26.37-60.36,37.99"/></g></g><g id="b"/></svg>