<svg width="207" height="160" viewBox="0 0 207 160" fill="none" xmlns="http://www.w3.org/2000/svg">
<g clip-path="url(#clip0_68_578)">
<g opacity="0.92">
<path opacity="0.92" d="M68.5614 150.437C65.6611 151.468 56.6969 154.246 46.727 150.717C45.0722 150.134 30.1027 146.937 29.0502 134.1C28.5648 128.165 27.5649 122.44 26.5825 112.323C26.103 107.401 21.3198 108.368 8.04609 96.6436C7.30346 95.9855 6.68947 95.438 6.286 95.0769C5.52583 94.4537 4.50837 93.5043 3.52015 92.1647C2.35651 90.598 -0.777729 87.1092 0.421 84.0282C1.60803 80.9762 4.23939 78.9202 9.67168 75.7926C12.5954 74.1093 16.788 72.0067 22.1502 70.306C24.9979 69.8051 27.8397 69.3043 30.6874 68.7975C31.8803 68.8849 33.0732 68.9723 34.2719 69.0596C34.2719 69.0596 34.1082 68.151 33.8626 66.695C31.1669 50.6315 30.8804 47.8591 32.4885 45.8322C33.2662 44.8479 34.8918 43.5142 38.64 43.2695C41.5462 43.6132 45.3763 44.3063 49.6624 45.7973C51.4459 46.4205 57.4513 48.6221 64.0413 53.5786C71.4384 59.1466 76.1456 65.6116 79.0225 70.5157L92.5886 91.4775C92.5886 91.4775 106.488 114.053 107.622 114.553C108.757 115.054 112.645 124.548 119.393 129.732C126.095 134.88 130.012 135.923 130.556 140.093C131.41 146.675 121.949 153.53 121.001 154.205C120.598 154.491 120.2 154.759 119.791 155.015C119.212 155.382 118.627 155.714 118.037 156.023C117.44 156.337 116.844 156.617 116.236 156.879C110.628 159.284 104.687 159.535 98.5881 159.785C94.0505 159.972 90.3081 159.68 87.7294 159.372C83.8993 158.783 78.2214 157.38 72.526 153.64C66.9417 149.977 63.6963 145.62 60.2522 140.402C53.3814 129.988 47.5223 121.112 42.359 106.819C39.1546 97.9541 35.5525 85.1639 34.2661 69.0596" stroke="black" stroke-width="0.5" stroke-miterlimit="10"/>
<path opacity="0.92" d="M118.031 156.034C124.218 154.531 130.714 153.116 137.497 151.834C144.994 150.413 152.186 149.278 159.039 148.375C167.038 147.321 173.126 146.546 176.71 146.138C183.739 145.34 189.902 144.74 194.948 144.298C196.013 144.251 199.445 143.983 200.96 141.601C202.205 139.644 201.556 137.215 200.404 134.012C199.012 130.139 196.79 124.839 193.177 118.735C192.153 117.139 190.346 114.314 188.124 110.75C183.183 102.829 181.873 100.441 180.16 99.5029C179.844 99.3282 179.575 99.2291 179.178 99.1127C175.5 98.0235 171.465 100.633 167.179 103.475C166.495 103.929 165.617 104.535 164.618 105.292C160.595 108.001 156.571 110.703 152.548 113.411L138.292 122.818L135.328 124.588L132.17 126.47L122.68 132.131C124.358 131.199 126.621 129.859 129.188 128.054C131.31 126.557 134.439 124.355 137.848 120.89C139.029 119.69 140.59 117.978 142.274 115.753C141.953 116.184 141.696 116.51 141.456 116.807C140.637 117.815 139.848 118.717 139.836 118.706C139.819 118.694 141.128 117.209 142.269 115.753C143.836 113.755 147.157 109.468 149.122 103.836C149.473 102.834 149.824 101.664 150.508 99.3864C150.566 99.1826 151.239 97.0509 151.841 94.7677C153.274 89.3569 154.069 85.839 154.484 84.3829C157.033 75.5533 164.559 75.7746 170.389 66.0014C171.208 64.6327 175.465 56.3621 172.716 49.7573C169.6 42.2556 158.384 39.3201 158.454 39.1862C158.472 39.1571 159.057 39.4366 159.062 39.425C159.08 39.39 153.086 36.7633 146.719 32.9309C145.344 32.1038 145.064 31.8883 143.654 31.0729C140.503 29.2499 137.825 27.9627 136.035 27.1531C134.924 26.594 133.299 25.8194 131.328 24.9108C128.317 23.5129 126.785 22.8664 125.475 22.4879C120.925 21.1832 116.704 22.3306 114.68 22.8839C110.23 24.1012 107.248 26.2504 104.547 28.1957C101.009 30.7467 98.4361 33.3968 96.7403 35.3713C96.0795 34.9461 95.4129 34.5151 94.7522 34.0899L88.2147 30.7293C88.01 30.6186 87.8054 30.5254 87.6066 30.4497C85.1331 29.5236 82.4316 30.8749 81.227 31.5796C80.7066 31.9407 79.9464 32.5406 79.2272 33.4434C76.1397 37.2816 77.0811 44.7834 77.239 46.4084C77.6367 50.5727 77.4963 56.5834 74.9117 64.4055C75.6661 65.5587 76.4145 66.7119 77.1689 67.8652C79.8411 71.9538 82.5193 76.0192 85.1974 80.0671C88.0159 84.447 90.8344 88.8269 93.6528 93.2126L94.7522 94.9716L98.0326 100.231C98.3542 100.743 98.6758 101.25 98.9974 101.763C106.231 100.895 116.166 99.0311 127.492 94.7386C146.397 87.5805 158.706 77.6442 158.7 77.6325C158.7 77.6209 145.929 87.8135 126.814 94.9483C115.522 99.1651 105.734 100.93 98.9916 101.757C97.711 99.7359 96.4304 97.7148 95.1439 95.6938C97.0093 94.6745 99.9973 93.1136 103.781 91.442C108.576 89.3278 110.067 89.0599 116.475 86.4215C121.463 84.3655 125.176 82.624 126.603 81.9484C131.229 79.7526 135.024 77.7316 137.76 76.2114C139.69 75.1048 142.479 73.4449 145.76 71.2782C149.531 68.7796 151.42 67.5332 152.905 66.1878C154.314 64.9122 159.893 59.7228 161.542 51.6328C162.062 49.0701 162.974 44.6028 160.519 41.1665C159.542 39.7977 158.326 39.0056 157.443 38.5572C155.402 37.6369 152.42 36.2041 148.888 34.1947C147.017 33.1289 147.414 33.2803 146.73 32.9309C140.082 29.5528 132.807 30.7293 129.574 31.2535C129.264 31.3059 129.018 31.3466 128.907 31.3699C127.024 32.1271 123.68 33.787 120.849 37.2292C117.791 40.9568 114.581 47.6955 116.92 51.924C117.347 52.6928 119.329 53.7761 123.276 55.9078C125.849 57.2998 129.866 59.3733 134.415 59.9616C135.357 60.0839 136.655 60.1829 138.053 59.5073C139.737 58.686 140.602 57.2008 140.906 56.665C141.093 56.333 143.292 52.3026 141.052 49.0992C139.643 47.0898 136.988 46.1346 134.521 46.9442C132.468 47.6198 131.381 49.1458 131.094 49.6117" stroke="black" stroke-width="0.5" stroke-miterlimit="10"/>
<path opacity="0.92" d="M96.7579 35.377C99.243 38.4405 102.605 42.0749 107.003 45.6627C110.909 48.8544 113.844 50.5493 119.68 53.9274C126.498 57.8763 129.837 59.0819 133.533 59.612C135.012 59.8275 136.257 59.8857 137.105 59.909" stroke="black" stroke-width="0.5" stroke-miterlimit="10"/>
<path opacity="0.92" d="M50.3641 46.2279C50.2764 46.1872 50.2004 46.1406 50.1185 46.094C47.3994 44.2593 50.6389 34.9579 52.2236 30.8168C52.7557 29.4189 53.4574 28.0735 54.621 26.3961C56.9542 23.0355 59.6908 21.0669 61.7257 19.7273C70.532 13.9204 77.9407 11.5033 77.9407 11.5033C118.616 -1.79362 126.498 -0.244351 130.387 0.821501C138.351 3.01145 142.193 6.64583 143.725 8.32905C145.157 9.90745 151.853 17.281 149.414 25.9535C148.525 29.1102 146.759 31.3701 145.508 32.6747" stroke="black" stroke-width="0.5" stroke-miterlimit="10"/>
<path opacity="0.92" d="M149.917 22.9019C152.607 22.0224 156.899 20.8983 162.097 20.8575C183.487 20.6944 203.538 38.9945 206.357 60.3406C206.901 64.4584 207.731 71.4476 204.176 79.0717C199.574 88.9381 187.54 93.8538 177.687 98.2512C175.131 99.3927 172.997 100.214 171.594 100.726C167.155 103.825 162.618 106.924 157.981 110.01C145.97 118.013 134.182 125.369 122.685 132.137" stroke="black" stroke-width="0.5" stroke-miterlimit="10"/>
</g>
<path d="M77.8647 115.398H71.3974V119.604H77.0227V120.425H71.3974V125.789H70.5729V114.577H77.8589V115.398H77.8647Z" fill="#1D1D1B" stroke="#1D1D1B" stroke-width="0.75" stroke-miterlimit="10"/>
<path d="M88.4603 125.789H80.3323V114.577H88.1855V115.398H81.1568V119.545H87.7469V120.367H81.1568V124.974H88.4661V125.795L88.4603 125.789Z" fill="#1D1D1B" stroke="#1D1D1B" stroke-width="0.75" stroke-miterlimit="10"/>
<path d="M95.1088 125.993C94.3487 125.993 93.6821 125.911 93.1149 125.754C92.5477 125.596 92.0682 125.364 91.6822 125.066C91.2963 124.769 90.9981 124.414 90.7934 123.989C90.5888 123.564 90.466 123.098 90.4309 122.574H91.2437C91.3255 123.08 91.4776 123.5 91.7056 123.832C91.9337 124.164 92.2085 124.432 92.5418 124.63C92.8751 124.828 93.2552 124.967 93.6762 125.049C94.0972 125.131 94.5533 125.171 95.0328 125.171C95.5123 125.171 95.986 125.119 96.3836 125.014C96.7812 124.909 97.1262 124.752 97.4127 124.554C97.6993 124.356 97.9156 124.111 98.0677 123.826C98.2197 123.541 98.2957 123.226 98.2957 122.871C98.2957 122.498 98.2314 122.178 98.1028 121.921C97.9741 121.665 97.7519 121.444 97.4478 121.252C97.1438 121.059 96.7344 120.89 96.2316 120.739C95.7287 120.588 95.103 120.436 94.3545 120.279C93.7405 120.145 93.2084 119.988 92.764 119.807C92.3196 119.627 91.9571 119.423 91.6705 119.19C91.384 118.957 91.1677 118.683 91.0332 118.38C90.8987 118.077 90.8285 117.722 90.8285 117.32C90.8285 116.883 90.9221 116.481 91.1033 116.12C91.2846 115.759 91.5477 115.451 91.8869 115.188C92.2261 114.926 92.6354 114.728 93.109 114.583C93.5827 114.437 94.1089 114.367 94.6878 114.367C95.2667 114.367 95.793 114.431 96.2725 114.565C96.752 114.699 97.173 114.891 97.5297 115.142C97.8864 115.392 98.1788 115.701 98.401 116.062C98.6232 116.423 98.7635 116.831 98.8278 117.291H98.0384C97.9624 116.988 97.8396 116.709 97.67 116.452C97.5005 116.196 97.2783 115.969 97.0093 115.782C96.7403 115.596 96.4187 115.451 96.0444 115.34C95.6702 115.229 95.2433 115.183 94.7638 115.183C93.7581 115.183 92.9921 115.369 92.4775 115.736C91.9629 116.103 91.6998 116.61 91.6998 117.25C91.6998 117.541 91.7466 117.798 91.846 118.019C91.9454 118.24 92.1033 118.433 92.3313 118.607C92.5594 118.782 92.8634 118.933 93.2435 119.067C93.6236 119.201 94.0914 119.324 94.6527 119.44C94.9802 119.51 95.3194 119.58 95.6702 119.656C96.0211 119.731 96.3602 119.819 96.6935 119.924C97.0268 120.028 97.3426 120.151 97.6467 120.302C97.9507 120.454 98.208 120.634 98.4302 120.855C98.6524 121.077 98.8337 121.333 98.9623 121.636C99.091 121.939 99.1611 122.3 99.1611 122.713C99.1611 123.191 99.0617 123.628 98.8571 124.03C98.6524 124.432 98.3717 124.775 98.015 125.066C97.6583 125.358 97.2256 125.579 96.7286 125.742C96.2316 125.905 95.6936 125.981 95.1088 125.981V125.993Z" fill="#1D1D1B" stroke="#1D1D1B" stroke-width="0.75" stroke-miterlimit="10"/>
<path d="M109.377 115.398H105.441V125.789H104.617V115.398H100.722V114.577H109.377V115.398Z" fill="#1D1D1B" stroke="#1D1D1B" stroke-width="0.75" stroke-miterlimit="10"/>
<path d="M112.575 125.789H111.751V114.577H112.575V125.789Z" fill="#1D1D1B" stroke="#1D1D1B" stroke-width="0.75" stroke-miterlimit="10"/>
<path d="M124.633 114.577L120.224 125.789H119.165L114.756 114.577H115.669L119.697 124.764L123.726 114.577H124.633Z" fill="#1D1D1B" stroke="#1D1D1B" stroke-width="0.75" stroke-miterlimit="10"/>
<path d="M135.404 125.789H134.415L133.035 122.184H127.498C127.299 122.749 127.083 123.349 126.849 123.978C126.615 124.607 126.393 125.212 126.182 125.783H125.311C125.679 124.816 126.048 123.867 126.404 122.935C126.761 122.003 127.124 121.083 127.48 120.168C127.837 119.254 128.194 118.328 128.556 117.402C128.919 116.476 129.281 115.526 129.65 114.565H130.813L135.41 125.789H135.404ZM132.802 121.543L130.194 115.305L127.714 121.543H132.802Z" fill="#1D1D1B" stroke="#1D1D1B" stroke-width="0.75" stroke-miterlimit="10"/>
<path d="M143.818 125.789H137.187V114.577H138.012V124.968H143.818V125.789Z" fill="#1D1D1B" stroke="#1D1D1B" stroke-width="0.75" stroke-miterlimit="10"/>
<path d="M20.7467 100.266L13.9462 103.371C13.8117 103.068 13.7064 102.847 13.6421 102.707C13.5076 102.672 13.4199 102.555 13.3848 102.352V101.792C13.0106 100.162 12.1568 97.4417 10.8295 93.6209C9.50209 89.8002 8.16887 86.2648 6.8415 83.0032C5.51412 79.7474 4.6487 77.5749 4.26277 76.4858C3.87099 75.4025 3.6254 74.4356 3.52014 73.5853C3.55523 73.4164 3.60785 73.2475 3.67218 73.0786H3.7248L9.75353 71.4011C10.0284 71.5701 10.3851 72.4728 10.8295 74.0978C12.4317 79.9047 14.6946 86.1483 17.6301 92.8347C19.4018 87.6743 20.4953 82.3625 20.8988 76.8993C21.1034 74.1502 21.4017 72.1874 21.7934 71.0167C22.1852 69.8461 22.8343 68.9957 23.7348 68.4715C24.6353 67.9473 25.261 67.6678 25.6001 67.6328C27.4713 67.6678 28.6701 68.4482 29.1788 69.9742L26.4714 75.4199C26.1966 76.0315 25.875 76.7421 25.5007 77.5575C23.6588 81.7335 22.1092 87.4705 20.852 94.7683C20.5772 96.3991 20.4427 97.6514 20.4427 98.5367C20.4427 99.422 20.5421 99.9986 20.7467 100.266Z" fill="#1D1D1B"/>
<path d="M30.1027 101.385C30.6114 95.2755 30.8687 88.9445 30.8687 82.3921V81.5767C30.8687 80.3187 30.781 77.4531 30.6114 72.9742V71.9549L30.5588 71.1919C30.5939 70.7493 30.6757 70.4639 30.8161 70.3241L31.2254 70.2251H31.278L35.6227 68.0352C36.3068 68.274 36.7279 69.2583 36.9033 70.9881V72.1064C36.9033 72.7878 36.7688 74.9312 36.494 78.5481C36.2191 82.165 36.0846 85.5489 36.0846 88.7057C36.0846 91.8625 36.2191 94.8678 36.494 97.7159C37.143 97.9896 37.4646 98.7177 37.4646 99.9058V102.399C35.9326 104.536 35.0613 105.689 34.8567 105.858C34.652 106.027 34.4298 106.115 34.1901 106.115C33.9503 106.115 33.348 105.783 32.3774 105.119C31.4067 104.455 30.629 103.936 30.0501 103.564L29.9974 102.952L30.0968 101.374L30.1027 101.385Z" fill="#1D1D1B"/>
<path d="M57.7027 103.726L56.8841 103.575C56.849 103.575 56.4689 103.505 55.7321 103.371C55.0012 103.237 53.8317 103.167 52.2295 103.167C48.7561 103.167 45.7739 103.627 43.2829 104.542C42.8385 104.641 42.5519 104.693 42.4116 104.693H42.1075L41.2889 98.9913C41.4234 98.8224 41.5637 98.6885 41.6982 98.5836V96.7024C41.6982 90.4237 41.3766 83.4171 40.7275 75.6765C40.6281 74.8961 40.5755 74.1156 40.5755 73.3352C40.5755 72.5547 40.7451 71.9956 41.0842 71.6578L46.5516 71.0986C46.6861 71.2326 46.8147 71.4306 46.9375 71.6811C47.0545 71.9373 47.1188 72.6071 47.1188 73.6905V74.8087L47.0662 78.0645C47.0662 85.5663 47.3702 91.9614 47.9842 97.2615C50.37 97.0576 52.8844 96.9586 55.5216 96.9586C58.1588 96.9586 59.8253 97.1101 60.5036 97.4188C61.0124 97.7566 61.2696 98.2109 61.2696 98.77C61.2696 99.3291 61.1469 99.8475 60.913 100.325C60.8135 100.494 60.4685 100.768 59.8896 101.14L59.2757 100.884L58.4044 101.496C58.1003 102.037 57.9424 102.55 57.9424 103.022C57.9424 103.494 57.8547 103.732 57.6852 103.732L57.7027 103.726Z" fill="#1D1D1B"/>
<path d="M65.8833 94.7682L66.5967 94.7158C66.8013 94.7158 67.006 94.8498 67.2107 95.1235C67.4153 95.3973 67.7369 95.6826 68.1813 95.9913V95.7875C68.1112 88.8624 67.772 83.0613 67.158 78.3728C66.9885 78.7805 66.8657 78.9843 66.8013 78.9843C66.737 78.9843 66.6493 78.9668 66.5441 78.9319L62.2988 80.8656C62.0591 80.4928 61.9421 80.0094 61.9421 79.4153C61.9421 78.8212 62.024 78.1689 62.1994 77.4525C62.8134 75.6528 64.2577 73.7366 66.5441 71.6981C68.9298 69.8343 71.2805 68.6461 73.5961 68.1336C74.2452 67.9996 75.3503 67.8773 76.9174 67.7783C79.543 67.8482 81.7884 68.4889 83.6654 69.712C87.858 72.4611 90.1912 76.9225 90.6707 83.1021C90.6707 85.8512 90.1269 88.6003 89.0334 91.3493C87.1914 96.1369 83.8701 99.7655 79.0635 102.247C78.929 102.317 78.3325 102.52 77.2741 102.858C75.7421 103.231 74.0639 103.417 72.2395 103.417C70.4151 103.417 68.4328 103.126 66.2868 102.55C63.9712 101.699 62.3339 100.651 61.3807 99.3927C60.9013 98.7113 60.6674 97.9134 60.6674 96.9989C60.7668 96.0845 60.872 95.5196 60.9714 95.3215C61.2755 94.7799 62.2637 94.3023 63.9361 93.8946L64.2402 93.9936L64.7021 94.4537C65.0763 94.6576 65.4681 94.7566 65.8774 94.7566L65.8833 94.7682ZM84.3379 83.1604C84.3379 79.7648 83.2152 77.0506 80.9639 75.0121C79.4962 73.69 77.8472 73.026 76.0052 73.026C74.9469 73.026 73.9235 73.1775 72.9412 73.4862C73.1809 75.5887 73.2979 78.2737 73.2979 81.5295C73.3973 86.9287 73.7072 92.0832 74.2159 97.0048C79.157 96.3583 82.379 93.1199 83.8759 87.2782C84.1508 86.1948 84.3028 85.1057 84.3379 84.0224V83.1545V83.1604Z" fill="#1D1D1B"/>
<path d="M99.2079 94.7687L98.7986 95.5841V95.8403C99.1027 96.5858 100.372 96.9528 102.605 96.9353C104.839 96.9178 108.201 96.4519 112.698 95.5375C112.903 95.5375 113.096 95.6248 113.283 95.7937C113.47 95.9626 113.616 96.05 113.715 96.05L113.973 95.8986V95.5433C113.973 95.0016 112.698 94.0348 110.137 92.6428C108.57 91.9613 107.459 91.4896 106.815 91.2158C102.792 89.5559 100.05 88.2105 98.5881 87.1912C95.6936 85.1236 94.0914 82.6599 93.7815 79.8118C93.7464 79.5089 93.7113 79.2876 93.6821 79.1478C93.7522 77.517 93.9218 76.2822 94.1908 75.4319C94.4656 74.5815 94.875 73.7836 95.4188 73.0381C95.9626 72.2926 96.3719 71.7975 96.6467 71.5587C96.9216 71.3199 97.518 70.8947 98.4361 70.2832C101.026 68.5534 103.681 67.6855 106.412 67.6855C108.184 67.6855 110.032 68.1806 111.955 69.1649C113.879 70.1492 115.388 71.5762 116.481 73.44C117.06 74.5582 117.353 75.3329 117.353 75.7581C117.353 76.1832 117.3 76.5327 117.201 76.8006L111.271 77.4646C111.201 77.4995 111.137 77.517 111.067 77.517C110.996 77.517 110.932 77.4296 110.862 77.2607C110.078 75.7697 108.751 74.698 106.874 74.0515C106.33 73.9525 105.816 73.8826 105.342 73.8477C101.898 73.9467 100.179 75.5251 100.179 78.5829C100.179 79.9399 101.184 81.4834 103.196 83.2132C103.33 83.3471 103.453 83.4345 103.553 83.4695C105.12 84.7275 107.581 86.1778 110.938 87.8202C114.294 89.4685 116.218 90.4703 116.715 90.8256C117.206 91.1809 117.68 91.5653 118.119 91.973L118.785 92.5845C119.469 93.4989 119.809 94.3435 119.809 95.1065C119.809 95.8694 119.721 96.5218 119.551 97.0693C119.007 98.6302 117.505 99.9872 115.055 101.14C113.897 101.618 113.113 101.991 112.704 102.259C109.23 103.313 105.956 103.82 102.892 103.785H101.716C98.208 103.546 95.6877 102.725 94.1499 101.315C92.6178 99.9057 91.8343 98.2166 91.7992 96.248C91.7992 94.9259 92.4132 93.5514 93.6411 92.1244C94.6644 91.5478 95.3018 91.2333 95.5591 91.1809C95.8164 91.1284 96.0854 91.1051 96.3778 91.1051C96.6701 91.1051 97.2198 91.2042 98.0384 91.408L98.1378 91.507C98.7869 92.7651 99.1611 93.5455 99.2605 93.8484L99.2079 94.3551V94.7628V94.7687Z" fill="#1D1D1B"/>
<path d="M122.773 85.2982L122.469 73.8942C122.469 72.5372 122.691 71.8382 123.136 71.8091L128.147 70.4346C128.556 70.7724 128.831 71.6751 128.966 73.1312V74.0981C128.931 75.1173 128.872 76.4919 128.784 78.2217C128.697 79.9515 128.656 81.1921 128.656 81.9376C132.404 79.0837 135.965 75.7755 139.339 72.0071C139.918 71.3257 140.31 70.9355 140.514 70.8365L140.976 70.685H141.029L145.426 72.8225C145.461 72.8924 145.479 72.9565 145.479 73.0264V73.2302C145.479 73.3642 145.438 73.469 145.35 73.5331C145.263 73.603 145.134 73.7544 144.964 73.9932C144.146 74.9775 140.362 78.3032 133.614 83.9703C133.135 84.378 132.696 84.7682 132.287 85.141C133.141 85.9913 135.345 88.4492 138.906 92.5204C142.467 96.5916 144.777 98.9213 145.83 99.4979C145.146 100.005 144.076 100.803 142.608 101.892C141.14 102.981 140.07 103.773 139.386 104.286V104.134L139.333 104.187C139.234 103.779 138.871 103.086 138.257 102.101C135.053 97.4187 131.848 93.7493 128.65 91.1051C128.784 95.3161 129.042 98.7932 129.416 101.542L129.112 102.41C127.404 102.783 125.241 103.057 122.621 103.226C122.551 103.226 122.487 103.144 122.417 102.969V102.562C122.691 97.4711 122.826 93.4814 122.826 90.5984V87.593L122.516 85.9156C122.516 85.7467 122.604 85.5429 122.773 85.3041V85.2982ZM122.826 102.457C122.861 102.457 122.995 102.439 123.235 102.404C123.03 102.439 122.896 102.457 122.826 102.457Z" fill="#1D1D1B"/>
<path d="M147.052 76.2352C147.701 73.7249 148.169 72.4669 148.455 72.4669C148.742 72.4669 150.8 72.6358 154.613 72.9736V73.4803C154.542 74.1617 154.373 75.0762 154.104 76.2294C153.045 80.9121 152.519 84.7154 152.519 87.6334C152.554 92.5899 153.373 96.067 154.975 98.0706C155.484 98.6472 155.987 98.9384 156.484 98.9384C156.981 98.9384 157.361 98.8569 157.636 98.6822C157.911 98.5132 158.051 98.4259 158.068 98.4259C158.086 98.4259 158.092 98.4317 158.092 98.4492C158.092 98.4667 158.004 98.5598 157.835 98.7287C158.858 97.8784 159.606 97.1504 160.086 96.5388C161.378 94.774 162.489 92.4851 163.407 89.6661L162.898 77.0914C162.969 75.1577 163.062 73.9928 163.179 73.6026C163.296 73.2124 163.372 72.892 163.407 72.6358C163.442 72.3795 163.507 72.2222 163.612 72.1523C164.191 71.9834 165.237 71.7854 166.758 71.5641C168.272 71.3428 169.138 71.2146 169.342 71.1797L169.494 72.4028L169.699 76.8817C169.494 78.8154 169.395 81.7217 169.395 85.5891C169.395 89.4564 169.576 92.9219 169.933 95.9738C170.29 99.0258 170.693 101.047 171.132 102.031L170.056 104.879C169.167 106.137 168.301 106.76 167.448 106.76C166.594 106.76 165.658 106.353 164.635 105.537C164.091 105.095 163.799 104.11 163.764 102.584C163.664 100.954 163.577 98.5307 163.507 95.3041C162.963 96.9698 162.553 98.0764 162.279 98.6414C162.004 99.2005 161.612 99.8878 161.103 100.703C160.899 100.872 160.419 101.332 159.671 102.078C158.168 103.505 156.706 104.215 155.273 104.215C153.841 104.215 152.461 103.738 151.133 102.788C148.069 100.581 146.531 95.0653 146.531 86.2414C146.531 84.4417 146.701 81.0985 147.04 76.2119L147.052 76.2352Z" fill="#1D1D1B"/>
<path d="M177.47 94.7682L178.184 94.7158C178.388 94.7158 178.593 94.8498 178.798 95.1235C179.002 95.3973 179.324 95.6826 179.768 95.9913V95.7875C179.698 88.8624 179.359 83.0613 178.745 78.3728C178.576 78.7805 178.453 78.9843 178.388 78.9843C178.324 78.9843 178.236 78.9668 178.131 78.9319L173.892 80.8656C173.652 80.4928 173.535 80.0094 173.535 79.4153C173.535 78.8212 173.623 78.1689 173.792 77.4525C174.406 75.6528 175.856 73.7366 178.137 71.6981C180.523 69.8343 182.873 68.6461 185.189 68.1336C185.838 67.9996 186.943 67.8773 188.51 67.7783C191.136 67.8482 193.381 68.4889 195.258 69.712C199.451 72.4611 201.784 76.9225 202.264 83.1021C202.264 85.8512 201.72 88.6003 200.626 91.3493C198.784 96.1369 195.463 99.7655 190.656 102.247C190.522 102.317 189.925 102.52 188.867 102.858C187.335 103.231 185.657 103.417 183.832 103.417C182.008 103.417 180.026 103.126 177.88 102.55C175.564 101.699 173.927 100.651 172.974 99.3927C172.494 98.7113 172.26 97.9134 172.26 96.9989C172.366 96.0845 172.465 95.5196 172.57 95.3215C172.874 94.7799 173.862 94.3023 175.535 93.8946L175.839 93.9936L176.301 94.4537C176.675 94.6576 177.067 94.7566 177.476 94.7566L177.47 94.7682ZM195.925 83.1604C195.925 79.7648 194.802 77.0506 192.551 75.0121C191.083 73.69 189.434 73.026 187.592 73.026C186.534 73.026 185.511 73.1775 184.522 73.4862C184.762 75.5887 184.879 78.2737 184.879 81.5295C184.978 86.9287 185.288 92.0832 185.797 97.0048C190.738 96.3583 193.96 93.1199 195.457 87.2782C195.732 86.1948 195.884 85.1057 195.919 84.0224V83.1545L195.925 83.1604Z" fill="#1D1D1B"/>
</g>
<defs>
<clipPath id="clip0_68_578">
<rect width="207" height="160" fill="white"/>
</clipPath>
</defs>
</svg>
