<svg width="598" height="463" viewBox="0 0 598 463" fill="none" xmlns="http://www.w3.org/2000/svg">
<g clip-path="url(#clip0_69_99)">
<g opacity="0.92">
<path opacity="0.92" d="M198.066 435.325C189.688 438.308 163.791 446.348 134.989 436.134C130.209 434.449 86.9634 425.196 83.9227 388.049C82.5206 370.875 79.632 354.307 76.794 325.032C75.4088 310.79 61.5906 313.588 23.2443 279.66C21.0989 277.756 19.3252 276.172 18.1596 275.127C15.9636 273.323 13.0242 270.576 10.1694 266.699C6.80774 262.166 -2.24672 252.07 1.21627 243.154C4.64548 234.323 12.2472 228.373 27.9405 219.323C36.3868 214.452 48.4988 208.367 63.9894 203.446C72.2161 201.996 80.4259 200.547 88.6527 199.081C92.0988 199.333 95.5449 199.586 99.0079 199.839C99.0079 199.839 98.5349 197.21 97.8254 192.996C90.0379 146.513 89.2101 138.49 93.8556 132.625C96.1023 129.776 100.798 125.917 111.627 125.209C120.022 126.203 131.087 128.209 143.469 132.524C148.622 134.327 165.97 140.698 185.008 155.041C206.378 171.153 219.976 189.861 228.287 204.053L267.478 264.711C267.478 264.711 307.632 330.037 310.909 331.487C314.187 332.936 325.42 360.409 344.914 375.409C364.273 390.308 375.591 393.325 377.162 405.392C379.629 424.437 352.296 444.275 349.56 446.23C348.394 447.056 347.245 447.831 346.063 448.572C344.391 449.634 342.701 450.595 340.995 451.488C339.272 452.398 337.549 453.207 335.792 453.966C319.592 460.927 302.429 461.651 284.81 462.376C271.701 462.915 260.89 462.073 253.441 461.179C242.376 459.477 225.973 455.415 209.52 444.595C193.387 433.994 184.012 421.387 174.062 406.285C154.213 376.15 137.287 350.465 122.37 309.104C113.113 283.452 102.707 246.441 98.991 199.839" stroke="white" stroke-width="3" stroke-miterlimit="10"/>
<path opacity="0.92" d="M340.978 451.522C358.851 447.174 377.618 443.078 397.214 439.37C418.87 435.258 439.648 431.971 459.446 429.359C482.556 426.308 500.141 424.067 510.496 422.887C530.801 420.578 548.606 418.842 563.184 417.561C566.259 417.426 576.175 416.651 580.55 409.758C584.148 404.095 582.273 397.066 578.945 387.797C574.925 376.589 568.505 361.251 558.066 343.588C555.109 338.97 549.89 330.796 543.47 320.481C529.196 297.56 525.412 290.649 520.463 287.936C519.55 287.43 518.773 287.144 517.625 286.807C506.999 283.655 495.343 291.206 482.961 299.43C480.985 300.745 478.451 302.498 475.562 304.689C463.94 312.526 452.318 320.346 440.696 328.184L399.511 355.403L390.947 360.527L381.825 365.971L354.408 382.353C359.256 379.656 365.794 375.78 373.209 370.555C379.341 366.223 388.379 359.853 398.227 349.824C401.64 346.352 406.15 341.397 411.015 334.959C410.086 336.206 409.343 337.15 408.65 338.01C406.285 340.925 404.005 343.538 403.971 343.504C403.92 343.47 407.704 339.172 410.998 334.959C415.526 329.178 425.121 316.773 430.796 300.475C431.81 297.576 432.824 294.189 434.8 287.599C434.969 287.009 436.912 280.84 438.652 274.233C442.79 258.576 445.088 248.396 446.287 244.183C453.652 218.632 475.393 219.272 492.235 190.991C494.6 187.03 506.898 163.097 498.958 143.985C489.955 122.277 457.554 113.782 457.757 113.394C457.808 113.31 459.497 114.119 459.514 114.085C459.565 113.984 442.25 106.383 423.854 95.2931C419.884 92.8998 419.073 92.2762 415.002 89.9166C405.897 84.6413 398.16 80.9165 392.991 78.5738C389.781 76.9558 385.085 74.7142 379.392 72.0849C370.692 68.0399 366.267 66.1691 362.483 65.0736C349.34 61.2983 337.144 64.6186 331.299 66.2197C318.443 69.7422 309.828 75.9614 302.024 81.5907C291.804 88.9728 284.371 96.6414 279.472 102.355C277.563 101.125 275.637 99.8774 273.729 98.6471L254.843 88.9222C254.251 88.602 253.66 88.3323 253.086 88.1132C245.94 85.4334 238.136 89.3436 234.656 91.3829C233.152 92.4279 230.956 94.1639 228.879 96.7763C219.959 107.883 222.679 129.591 223.135 134.294C224.284 146.344 223.878 163.738 216.412 186.373C218.591 189.71 220.753 193.047 222.932 196.384C230.652 208.216 238.389 219.98 246.126 231.694C254.268 244.368 262.411 257.042 270.553 269.733L273.729 274.823L283.205 290.043C284.134 291.526 285.064 292.992 285.993 294.475C306.889 291.964 335.589 286.571 368.311 274.149C422.924 253.435 458.484 224.682 458.467 224.649C458.467 224.615 421.573 254.11 366.351 274.756C333.731 286.958 305.453 292.065 285.976 294.458C282.276 288.61 278.577 282.762 274.86 276.913C280.249 273.964 288.881 269.447 299.811 264.61C313.663 258.492 317.97 257.716 336.485 250.082C350.894 244.132 361.621 239.093 365.743 237.138C379.105 230.784 390.068 224.935 397.974 220.536C403.549 217.334 411.606 212.53 421.083 206.261C431.979 199.03 437.435 195.424 441.726 191.53C445.797 187.839 461.913 172.822 466.676 149.412C468.18 141.996 470.815 129.069 463.72 119.125C460.899 115.164 457.386 112.872 454.835 111.574C448.939 108.911 440.324 104.765 430.121 98.9504C424.715 95.8661 425.864 96.3043 423.887 95.2931C404.68 85.5177 383.666 88.9222 374.324 90.4391C373.429 90.5908 372.72 90.7088 372.399 90.7762C366.959 92.9672 357.297 97.7706 349.12 107.731C340.286 118.518 331.012 138.018 337.769 150.254C339.002 152.479 344.728 155.614 356.131 161.783C363.564 165.811 375.169 171.811 388.311 173.513C391.031 173.867 394.781 174.154 398.819 172.199C403.684 169.822 406.184 165.524 407.062 163.974C407.603 163.013 413.954 151.35 407.485 142.08C403.413 136.266 395.744 133.501 388.616 135.844C382.686 137.799 379.544 142.215 378.716 143.563" stroke="white" stroke-width="3" stroke-miterlimit="10"/>
<path opacity="0.92" d="M279.523 102.372C286.702 111.237 296.415 121.754 309.119 132.136C320.403 141.373 328.883 146.277 345.742 156.052C365.439 167.48 375.085 170.968 385.761 172.502C390.035 173.126 393.633 173.294 396.082 173.362" stroke="white" stroke-width="3" stroke-miterlimit="10"/>
<path opacity="0.92" d="M145.496 133.771C145.243 133.653 145.023 133.518 144.787 133.383C136.932 128.074 146.29 101.158 150.868 89.1749C152.406 85.1299 154.433 81.2366 157.794 76.3826C164.534 66.6577 172.44 60.9611 178.319 57.0846C203.759 40.281 225.162 33.2866 225.162 33.2866C342.667 -5.19143 365.439 -0.708231 376.672 2.37608C399.68 8.71323 410.779 19.2302 415.205 24.1011C419.343 28.6685 438.685 50.0059 431.641 75.1017C429.073 84.2366 423.972 90.776 420.357 94.5513" stroke="white" stroke-width="3" stroke-miterlimit="10"/>
<path opacity="0.92" d="M433.094 66.2705C440.865 63.7255 453.264 60.4727 468.281 60.3547C530.075 59.8828 587.999 112.838 596.142 174.609C597.713 186.525 600.112 206.75 589.841 228.812C576.546 257.363 541.781 271.588 513.317 284.312C505.935 287.616 499.769 289.992 495.715 291.475C482.893 300.442 469.785 309.408 456.389 318.341C421.691 341.499 387.636 362.785 354.425 382.37" stroke="white" stroke-width="3" stroke-miterlimit="10"/>
</g>
<path d="M224.943 333.93H206.259V346.099H222.51V348.475H206.259V363.998H203.877V331.554H224.926V333.93H224.943Z" fill="white" stroke="white" stroke-width="0.75" stroke-miterlimit="10"/>
<path d="M255.552 363.998H232.071V331.554H254.758V333.93H234.453V345.93H253.491V348.307H234.453V361.638H255.569V364.015L255.552 363.998Z" fill="white" stroke="white" stroke-width="0.75" stroke-miterlimit="10"/>
<path d="M274.759 364.588C272.563 364.588 270.637 364.352 268.999 363.897C267.36 363.442 265.975 362.768 264.86 361.908C263.745 361.049 262.884 360.021 262.292 358.79C261.701 357.56 261.346 356.212 261.245 354.695H263.593C263.829 356.161 264.269 357.375 264.928 358.335C265.586 359.296 266.38 360.071 267.343 360.644C268.306 361.217 269.404 361.622 270.62 361.858C271.837 362.094 273.154 362.212 274.539 362.212C275.925 362.212 277.293 362.06 278.442 361.757C279.59 361.453 280.587 360.998 281.415 360.425C282.242 359.852 282.868 359.144 283.307 358.318C283.746 357.493 283.966 356.582 283.966 355.554C283.966 354.476 283.78 353.549 283.408 352.807C283.036 352.066 282.394 351.425 281.516 350.869C280.638 350.313 279.455 349.824 278.002 349.386C276.55 348.947 274.742 348.509 272.58 348.054C270.806 347.667 269.269 347.212 267.985 346.689C266.701 346.167 265.654 345.577 264.826 344.902C263.998 344.228 263.373 343.436 262.985 342.56C262.596 341.683 262.394 340.655 262.394 339.492C262.394 338.228 262.664 337.065 263.188 336.02C263.711 334.975 264.471 334.082 265.451 333.324C266.431 332.565 267.613 331.992 268.982 331.571C270.35 331.15 271.87 330.947 273.543 330.947C275.215 330.947 276.735 331.133 278.121 331.52C279.506 331.908 280.722 332.464 281.753 333.189C282.783 333.914 283.628 334.807 284.27 335.852C284.912 336.897 285.317 338.077 285.503 339.408H283.222C283.003 338.532 282.648 337.723 282.158 336.981C281.668 336.239 281.026 335.582 280.249 335.043C279.472 334.503 278.543 334.082 277.462 333.762C276.381 333.442 275.148 333.307 273.762 333.307C270.857 333.307 268.644 333.846 267.157 334.908C265.671 335.97 264.911 337.436 264.911 339.29C264.911 340.133 265.046 340.874 265.333 341.515C265.62 342.155 266.076 342.711 266.735 343.217C267.394 343.723 268.272 344.161 269.37 344.549C270.468 344.936 271.82 345.29 273.441 345.627C274.387 345.829 275.367 346.032 276.381 346.251C277.394 346.47 278.374 346.723 279.337 347.026C280.3 347.329 281.212 347.683 282.09 348.122C282.969 348.56 283.712 349.082 284.354 349.723C284.996 350.363 285.52 351.105 285.891 351.981C286.263 352.858 286.466 353.903 286.466 355.099C286.466 356.481 286.178 357.745 285.587 358.908C284.996 360.071 284.185 361.066 283.155 361.908C282.124 362.751 280.874 363.391 279.438 363.863C278.002 364.335 276.448 364.554 274.759 364.554V364.588Z" fill="white" stroke="white" stroke-width="0.75" stroke-miterlimit="10"/>
<path d="M315.977 333.93H304.608V363.998H302.227V333.93H290.976V331.554H315.977V333.93V333.93Z" fill="white" stroke="white" stroke-width="0.75" stroke-miterlimit="10"/>
<path d="M325.217 363.998H322.836V331.554H325.217V363.998Z" fill="white" stroke="white" stroke-width="0.75" stroke-miterlimit="10"/>
<path d="M360.05 331.554L347.313 363.998H344.255L331.518 331.554H334.154L345.793 361.032L357.432 331.554H360.05Z" fill="white" stroke="white" stroke-width="0.75" stroke-miterlimit="10"/>
<path d="M391.166 363.998H388.311L384.325 353.566H368.327C367.753 355.201 367.128 356.937 366.452 358.757C365.777 360.577 365.135 362.33 364.527 363.982H362.01C363.074 361.184 364.138 358.437 365.169 355.74C366.199 353.043 367.246 350.38 368.277 347.734C369.307 345.088 370.338 342.408 371.385 339.728C372.432 337.049 373.48 334.301 374.544 331.521H377.906L391.183 363.998H391.166ZM383.649 351.712L376.115 333.661L368.952 351.712H383.649V351.712Z" fill="white" stroke="white" stroke-width="0.75" stroke-miterlimit="10"/>
<path d="M415.475 363.998H396.319V331.554H398.7V361.621H415.475V363.998Z" fill="white" stroke="white" stroke-width="0.75" stroke-miterlimit="10"/>
<path d="M59.9351 290.144L40.289 299.127C39.9005 298.251 39.5964 297.61 39.4106 297.206C39.022 297.104 38.7686 296.767 38.6673 296.177V294.559C37.5862 289.84 35.1198 281.969 31.2852 270.913C27.4506 259.857 23.599 249.626 19.7644 240.188C15.9298 230.767 13.4297 224.48 12.3147 221.328C11.1829 218.193 10.4734 215.396 10.1694 212.935C10.2707 212.446 10.4228 211.957 10.6086 211.469H10.7606L28.1769 206.615C28.9709 207.103 30.0014 209.716 31.2852 214.418C35.9138 231.222 42.4512 249.289 50.9314 268.638C56.0498 253.705 59.2088 238.334 60.3744 222.525C60.9656 214.57 61.8271 208.89 62.9589 205.502C64.0907 202.115 65.9658 199.654 68.5673 198.137C71.1688 196.62 72.9763 195.811 73.956 195.71C79.3617 195.811 82.8247 198.07 84.2943 202.485L76.473 218.244C75.6791 220.014 74.75 222.07 73.6689 224.429C68.3477 236.514 63.8711 253.115 60.2392 274.233C59.4453 278.953 59.0567 282.576 59.0567 285.138C59.0567 287.7 59.3439 289.368 59.9351 290.144V290.144Z" fill="white"/>
<path d="M86.9634 293.38C88.4331 275.7 89.1763 257.379 89.1763 238.418V236.059C89.1763 232.418 88.9229 224.126 88.4331 211.165V208.216L88.281 206.008C88.3824 204.727 88.6189 203.901 89.0243 203.497L90.2068 203.21H90.3588L102.91 196.873C104.886 197.564 106.103 200.412 106.61 205.418V208.654C106.61 210.626 106.221 216.828 105.427 227.295C104.633 237.761 104.245 247.553 104.245 256.688C104.245 265.823 104.633 274.52 105.427 282.762C107.302 283.554 108.231 285.661 108.231 289.099V296.312C103.805 302.498 101.288 305.835 100.697 306.324C100.106 306.813 99.464 307.065 98.7714 307.065C98.0788 307.065 96.3388 306.105 93.5346 304.183C90.7305 302.262 88.4837 300.762 86.8114 299.683L86.6593 297.914L86.9465 293.346L86.9634 293.38Z" fill="white"/>
<path d="M166.697 300.155L164.332 299.717C164.23 299.717 163.132 299.515 161.004 299.127C158.892 298.739 155.514 298.537 150.885 298.537C140.851 298.537 132.236 299.869 125.039 302.515C123.756 302.801 122.928 302.953 122.522 302.953H121.644L119.279 286.453C119.668 285.964 120.073 285.576 120.462 285.273V279.829C120.462 261.66 119.532 241.385 117.657 218.986C117.37 216.727 117.218 214.469 117.218 212.21C117.218 209.952 117.708 208.334 118.688 207.356L134.482 205.738C134.871 206.126 135.243 206.699 135.597 207.424C135.935 208.165 136.121 210.103 136.121 213.238V216.474L135.969 225.896C135.969 247.604 136.847 266.11 138.621 281.447C145.513 280.857 152.777 280.571 160.396 280.571C168.014 280.571 172.829 281.009 174.788 281.902C176.258 282.88 177.001 284.194 177.001 285.812C177.001 287.43 176.646 288.93 175.971 290.312C175.684 290.801 174.687 291.593 173.015 292.672L171.241 291.93L168.724 293.7C167.845 295.267 167.389 296.751 167.389 298.116C167.389 299.481 167.136 300.172 166.646 300.172L166.697 300.155Z" fill="white"/>
<path d="M190.33 274.233L192.39 274.081C192.982 274.081 193.573 274.469 194.164 275.261C194.755 276.053 195.685 276.879 196.968 277.772V277.182C196.766 257.143 195.786 240.356 194.012 226.789C193.522 227.968 193.168 228.558 192.982 228.558C192.796 228.558 192.542 228.508 192.238 228.407L179.974 234.002C179.282 232.923 178.944 231.525 178.944 229.805C178.944 228.086 179.18 226.199 179.687 224.126C181.461 218.918 185.633 213.373 192.238 207.474C199.131 202.08 205.921 198.642 212.611 197.159C214.486 196.771 217.679 196.417 222.206 196.131C229.791 196.333 236.278 198.187 241.7 201.726C253.812 209.682 260.552 222.592 261.937 240.474C261.937 248.429 260.366 256.384 257.208 264.34C251.886 278.194 242.291 288.694 228.406 295.874C228.017 296.076 226.294 296.666 223.236 297.643C218.811 298.722 213.962 299.261 208.692 299.261C203.421 299.261 197.695 298.419 191.495 296.75C184.806 294.289 180.076 291.256 177.322 287.615C175.937 285.643 175.261 283.334 175.261 280.688C175.548 278.042 175.853 276.407 176.14 275.834C177.018 274.267 179.873 272.885 184.704 271.705L185.583 271.991L186.917 273.323C187.998 273.913 189.13 274.199 190.313 274.199L190.33 274.233ZM243.643 240.643C243.643 230.817 240.399 222.963 233.896 217.064C229.656 213.238 224.892 211.316 219.571 211.316C216.513 211.316 213.557 211.755 210.719 212.648C211.412 218.732 211.749 226.502 211.749 235.923C212.037 251.547 212.932 266.463 214.402 280.705C228.676 278.834 237.984 269.463 242.308 252.559C243.102 249.424 243.541 246.272 243.643 243.137V240.626V240.643Z" fill="white"/>
<path d="M286.601 274.233L285.418 276.593V277.334C286.297 279.492 289.962 280.553 296.415 280.503C302.868 280.452 312.582 279.104 325.572 276.458C326.163 276.458 326.721 276.711 327.261 277.199C327.802 277.688 328.224 277.941 328.511 277.941L329.255 277.503V276.475C329.255 274.907 325.572 272.109 318.173 268.081C313.646 266.109 310.436 264.744 308.578 263.952C296.956 259.149 289.033 255.255 284.81 252.306C276.448 246.323 271.82 239.193 270.924 230.952C270.823 230.075 270.722 229.435 270.637 229.03C270.84 224.311 271.33 220.738 272.107 218.277C272.901 215.817 274.083 213.508 275.654 211.35C277.225 209.193 278.408 207.76 279.202 207.069C279.996 206.378 281.719 205.148 284.371 203.378C291.854 198.373 299.524 195.861 307.413 195.861C312.531 195.861 317.869 197.294 323.427 200.142C328.984 202.991 333.343 207.12 336.502 212.513C338.174 215.749 339.019 217.991 339.019 219.221C339.019 220.452 338.867 221.463 338.579 222.238L321.45 224.159C321.248 224.261 321.062 224.311 320.859 224.311C320.656 224.311 320.471 224.058 320.268 223.57C318.004 219.255 314.17 216.154 308.747 214.283C307.176 213.996 305.689 213.794 304.321 213.693C294.371 213.98 289.405 218.547 289.405 227.395C289.405 231.322 292.311 235.789 298.122 240.794C298.51 241.182 298.865 241.435 299.152 241.536C303.679 245.177 310.791 249.373 320.487 254.126C330.184 258.896 335.742 261.795 337.177 262.823C338.596 263.851 339.965 264.963 341.232 266.143L343.157 267.913C345.134 270.559 346.114 273.003 346.114 275.211C346.114 277.418 345.86 279.306 345.37 280.89C343.799 285.407 339.458 289.334 332.38 292.671C329.035 294.054 326.772 295.132 325.589 295.907C315.555 298.958 306.095 300.424 297.243 300.323H293.848C283.712 299.632 276.431 297.256 271.989 293.177C267.563 289.098 265.299 284.211 265.198 278.514C265.198 274.688 266.972 270.711 270.519 266.581C273.475 264.913 275.317 264.003 276.06 263.851C276.803 263.699 277.58 263.632 278.425 263.632C279.269 263.632 280.857 263.918 283.222 264.508L283.509 264.795C285.385 268.435 286.466 270.694 286.753 271.57L286.601 273.036V274.216V274.233Z" fill="white"/>
<path d="M354.678 246.828L353.8 213.828C353.8 209.901 354.442 207.878 355.726 207.794L370.203 203.816C371.385 204.794 372.179 207.406 372.568 211.62V214.418C372.466 217.367 372.297 221.345 372.044 226.35C371.79 231.356 371.672 234.946 371.672 237.103C382.5 228.845 392.788 219.272 402.535 208.367C404.207 206.395 405.339 205.266 405.931 204.979L407.265 204.541H407.417L420.12 210.727C420.222 210.929 420.272 211.114 420.272 211.316V211.906C420.272 212.294 420.154 212.597 419.901 212.783C419.647 212.985 419.276 213.423 418.786 214.114C416.421 216.963 405.491 226.586 385.997 242.985C384.612 244.165 383.345 245.294 382.163 246.373C384.629 248.834 390.997 255.946 401.285 267.727C411.573 279.508 418.245 286.25 421.286 287.919C419.309 289.385 416.218 291.694 411.978 294.846C407.738 297.997 404.647 300.29 402.67 301.773V301.334L402.518 301.486C402.231 300.306 401.184 298.301 399.41 295.452C390.153 281.902 380.896 271.284 371.655 263.632C372.044 275.817 372.787 285.879 373.868 293.834L372.99 296.346C368.057 297.424 361.807 298.216 354.239 298.705C354.036 298.705 353.85 298.469 353.648 297.964V296.784C354.442 282.053 354.83 270.508 354.83 262.165V253.469L353.935 248.615C353.935 248.126 354.188 247.536 354.678 246.845V246.828ZM354.83 296.48C354.932 296.48 355.32 296.43 356.013 296.329C355.421 296.43 355.033 296.48 354.83 296.48Z" fill="white"/>
<path d="M424.816 220.603C426.692 213.339 428.043 209.698 428.871 209.698C429.698 209.698 435.645 210.187 446.659 211.165V212.631C446.456 214.603 445.966 217.249 445.189 220.586C442.131 234.137 440.611 245.143 440.611 253.587C440.712 267.929 443.077 277.991 447.706 283.789C449.176 285.458 450.628 286.3 452.064 286.3C453.5 286.3 454.598 286.065 455.392 285.559C456.186 285.07 456.592 284.817 456.642 284.817C456.693 284.817 456.71 284.834 456.71 284.885C456.71 284.935 456.456 285.205 455.967 285.694C458.923 283.233 461.085 281.126 462.47 279.357C466.203 274.25 469.413 267.626 472.065 259.469L470.595 223.081C470.798 217.485 471.069 214.114 471.406 212.985C471.744 211.856 471.964 210.929 472.065 210.187C472.167 209.446 472.352 208.991 472.656 208.788C474.329 208.3 477.353 207.726 481.745 207.086C486.12 206.446 488.62 206.075 489.211 205.974L489.65 209.513L490.242 222.474C489.65 228.069 489.363 236.48 489.363 247.671C489.363 258.862 489.887 268.89 490.917 277.722C491.948 286.553 493.113 292.402 494.38 295.25L491.272 303.492C488.704 307.132 486.204 308.936 483.738 308.936C481.272 308.936 478.569 307.756 475.613 305.396C474.042 304.115 473.197 301.267 473.096 296.851C472.808 292.132 472.555 285.121 472.352 275.783C470.781 280.604 469.599 283.806 468.805 285.441C468.011 287.059 466.879 289.048 465.409 291.407C464.818 291.896 463.433 293.228 461.271 295.385C456.929 299.514 452.706 301.57 448.568 301.57C444.429 301.57 440.442 300.188 436.607 297.441C427.756 291.053 423.313 275.092 423.313 249.558C423.313 244.351 423.803 234.676 424.783 220.536L424.816 220.603Z" fill="white"/>
<path d="M512.692 274.233L514.753 274.081C515.344 274.081 515.935 274.469 516.527 275.261C517.118 276.053 518.047 276.879 519.331 277.772V277.182C519.128 257.143 518.148 240.356 516.375 226.789C515.885 227.968 515.53 228.558 515.344 228.558C515.158 228.558 514.905 228.508 514.601 228.407L502.354 234.002C501.661 232.923 501.323 231.525 501.323 229.805C501.323 228.086 501.577 226.199 502.067 224.126C503.84 218.918 508.03 213.373 514.618 207.474C521.51 202.08 528.301 198.642 534.99 197.159C536.865 196.771 540.058 196.417 544.585 196.131C552.17 196.333 558.657 198.187 564.08 201.726C576.192 209.682 582.932 222.592 584.317 240.474C584.317 248.429 582.746 256.384 579.587 264.34C574.266 278.194 564.671 288.694 550.785 295.874C550.396 296.076 548.673 296.666 545.616 297.643C541.19 298.722 536.342 299.261 531.071 299.261C525.801 299.261 520.074 298.419 513.875 296.75C507.185 294.289 502.455 291.256 499.702 287.615C498.316 285.643 497.641 283.334 497.641 280.688C497.945 278.042 498.232 276.407 498.536 275.834C499.414 274.267 502.269 272.885 507.101 271.705L507.979 271.991L509.314 273.323C510.395 273.913 511.526 274.199 512.709 274.199L512.692 274.233ZM566.005 240.643C566.005 230.817 562.762 222.963 556.258 217.064C552.018 213.238 547.254 211.316 541.933 211.316C538.876 211.316 535.919 211.755 533.065 212.648C533.757 218.732 534.095 226.502 534.095 235.923C534.382 251.547 535.278 266.463 536.747 280.705C551.021 278.834 560.329 269.463 564.654 252.559C565.448 249.424 565.887 246.272 565.988 243.137V240.626L566.005 240.643Z" fill="white"/>
</g>
<defs>
<clipPath id="clip0_69_99">
<rect width="598" height="463" fill="white"/>
</clipPath>
</defs>
</svg>
