<svg width="1920" height="1018" viewBox="0 0 1920 1018" fill="none" xmlns="http://www.w3.org/2000/svg">
<rect y="-2" width="1920" height="1020" fill="#8072A8"/>
<path d="M190.05 766.406C54.9393 766.406 -2.00001 883.318 -2 1018H1920V509.2C1862.36 506.939 1824.98 524.165 1789.97 543.339C1726.75 577.962 1612.51 502.974 1527.4 569.06C1415.37 656.042 1287.13 656.042 1169.3 656.042C1076.28 656.042 953.108 715.901 855.723 715.901C753.196 715.901 599.156 639.674 459.12 656.042C375.978 665.76 289.576 766.406 190.05 766.406Z" fill="#B12222"/>
<path d="M1728.15 118.63C1863.12 118.63 1920 63.5044 1920 0H0V239.906C57.5752 240.972 94.9259 232.849 129.899 223.809C193.05 207.483 307.167 242.841 392.194 211.681C504.106 170.668 632.216 170.668 749.914 170.668C842.842 170.668 965.886 142.444 1063.17 142.444C1165.59 142.444 1319.47 178.385 1459.36 170.668C1542.42 166.086 1628.73 118.63 1728.15 118.63Z" fill="#A71E1E"/>
</svg>
