<svg width="1920" height="1018" viewBox="0 0 1920 1018" fill="none" xmlns="http://www.w3.org/2000/svg">
<rect x="2" y="-2" width="1920" height="1020" fill="#FFFDF7"/>
<path d="M192.05 766.406C56.9393 766.406 -8.64492e-06 883.318 0 1018H1922V509.2C1864.36 506.939 1826.98 524.165 1791.97 543.339C1728.75 577.962 1614.51 502.974 1529.4 569.06C1417.37 656.042 1289.13 656.042 1171.3 656.042C1078.28 656.042 955.108 715.901 857.723 715.901C755.196 715.901 601.156 639.674 461.12 656.042C377.978 665.76 291.576 766.406 192.05 766.406Z" fill="#B12222"/>
<path d="M1730.15 118.63C1865.12 118.63 1922 63.5044 1922 0H2V239.906C59.5752 240.972 96.9259 232.849 131.899 223.809C195.05 207.483 309.167 242.841 394.194 211.681C506.106 170.668 634.216 170.668 751.914 170.668C844.842 170.668 967.886 142.444 1065.17 142.444C1167.59 142.444 1321.47 178.385 1461.36 170.668C1544.42 166.086 1630.73 118.63 1730.15 118.63Z" fill="#A71E1E"/>
</svg>
