<svg width="460" height="415" viewBox="0 0 460 415" fill="none" xmlns="http://www.w3.org/2000/svg">
<path d="M116.309 67.8133C117.562 65.5868 119.051 63.5143 120.751 61.6307C137.135 43.7792 138.147 31.9675 203.031 36.0979C203.031 36.0979 247.488 41.0433 287.608 14.6569C301.141 5.55256 317.186 0.779737 333.787 0.919972C345.93 1.135 358.025 3.85968 369.335 8.92816C372.351 10.2761 379.039 12.495 381.884 14.0138C401.529 24.7973 463.398 49.4826 459.055 158.882L459.003 160.473C458.935 165.307 456.683 199.443 407.02 205.43C361.892 210.899 349.205 259.912 346.315 275.001C345.379 279.669 345.085 284.478 345.44 289.292C346.12 305.601 343.422 321.705 337.519 336.559C331.616 351.413 322.642 364.685 311.177 375.514C299.713 386.343 286.015 394.488 270.971 399.419C255.928 404.351 239.875 405.959 223.854 404.14L222.969 404.038C193.621 400.701 176.424 397.784 159.458 407.049C142.493 416.314 105.42 429.003 46.6365 357.071C-12.1471 285.138 2.33788 186.661 2.33788 186.661C2.33788 186.661 10.0069 142.045 48.741 124.014C56.2004 120.626 63.3774 116.672 70.2139 112.185C84.4244 102.641 105.464 86.405 116.309 67.8133Z" fill="#E73F3F"/>
</svg>
