<svg width="428" height="455" viewBox="0 0 428 455" fill="none" xmlns="http://www.w3.org/2000/svg">
<path d="M345.753 106.324C348.061 107.422 350.23 108.768 352.224 110.338C371.143 125.48 383.015 125.682 383.155 190.769C383.155 190.769 381.137 235.51 410.147 273.776C420.136 286.67 425.962 302.369 426.914 318.959C427.498 331.101 425.57 343.368 421.249 355.01C420.1 358.115 418.322 364.947 416.991 367.892C407.506 388.25 386.905 451.731 277.283 454.877L275.689 454.933C270.853 455.196 236.588 455.281 227.338 406.089C218.904 361.391 169.085 352.071 153.814 350.217C149.087 349.601 144.262 349.636 139.474 350.32C123.219 352.115 106.946 350.521 91.7127 345.642C76.4791 340.763 62.6244 332.707 51.0473 321.997C39.4703 311.288 30.4294 298.163 24.5112 283.475C18.593 268.788 15.9295 252.864 16.6936 236.739L16.7371 235.848C18.1419 206.308 19.9259 188.933 9.55055 172.621C-0.824827 156.31 -15.9459 120.151 52.0788 56.5203C120.104 -7.11076 219.477 0.621081 219.477 0.621081C219.477 0.621081 264.572 5.22912 285.14 42.6823C289.017 49.9008 293.44 56.7986 298.374 63.3199C308.848 76.8601 326.459 96.7638 345.753 106.324Z" fill="#FF5527"/>
</svg>
