<svg width="475" height="409" viewBox="0 0 475 409" fill="none" xmlns="http://www.w3.org/2000/svg">
<path d="M161.323 55.775C158.777 55.9703 156.269 56.4454 153.844 57.1922C130.745 64.5101 119.61 60.4413 95.9674 121.005C95.9674 121.005 81.6857 163.396 40.8307 188.629C26.8648 197.055 15.7656 209.586 8.88561 224.695C3.95501 235.794 1.31998 247.908 1.14095 260.301C1.08989 263.604 0.278319 270.604 0.454194 273.824C1.93831 296.185 -1.79756 362.692 99.2113 404.931L100.676 405.556C105.087 407.535 136.984 419.901 163.374 377.407C187.38 338.804 237.167 347.99 252.066 351.739C256.694 352.861 261.177 354.624 265.391 356.978C279.89 364.479 295.628 368.83 311.585 369.749C327.542 370.667 343.362 368.134 358.018 362.311C372.675 356.489 385.84 347.509 396.66 335.952C407.481 324.396 415.715 310.522 420.828 295.231L421.109 294.385C430.471 266.371 435.086 249.55 450.646 238.08C466.206 226.611 493.358 198.359 452.959 114.706C412.56 31.0533 317.172 2.61846 317.172 2.61846C317.172 2.61846 273.488 -9.26144 240.793 18.2425C234.572 23.5747 227.959 28.4123 221.006 32.7161C206.355 41.5701 182.755 53.7908 161.323 55.775Z" fill="#B12222" fill-opacity="0.8"/>
</svg>
