<svg width="481" height="382" viewBox="0 0 481 382" fill="none" xmlns="http://www.w3.org/2000/svg">
<path d="M311.788 364.155C309.901 365.877 307.838 367.378 305.632 368.633C284.478 380.45 279.816 391.349 219.496 367.089C219.496 367.089 178.83 348.458 132.461 360.939C116.755 365.343 100.023 364.846 84.3029 359.509C72.8391 355.499 62.2079 349.12 53.0566 340.762C50.615 338.537 44.9593 334.333 42.7334 331.999C27.459 315.601 -23.5544 272.767 14.8602 170.243L15.4084 168.748C16.9884 164.179 29.8272 132.469 78.8637 142.35C123.431 151.302 150.842 108.736 158.317 95.3136C160.669 91.1738 162.455 86.6999 163.627 82.017C168.093 66.3161 175.703 51.8695 185.964 39.6144C196.225 27.3592 208.908 17.5691 223.189 10.8793C237.47 4.18938 253.031 0.749073 268.862 0.781491C284.693 0.813889 300.441 4.31827 315.085 11.0674L315.893 11.4415C342.716 23.8095 358.132 31.9698 377.147 28.4899C396.161 25.0099 435.343 24.58 468.617 111.313C501.891 198.047 457.269 287.021 457.269 287.021C457.269 287.021 436.001 326.985 393.568 331.965C385.422 332.845 377.368 334.349 369.469 336.467C352.983 341.076 327.914 349.899 311.788 364.155Z" fill="#FF5527"/>
</svg>
