<svg width="475" height="410" viewBox="0 0 475 410" fill="none" xmlns="http://www.w3.org/2000/svg">
<path d="M161.322 56.1637C158.775 56.359 156.268 56.8341 153.842 57.5809C130.743 64.8988 119.609 60.8299 95.9658 121.394C95.9658 121.394 81.6842 163.784 40.8291 189.018C26.8632 197.444 15.764 209.975 8.88403 225.083C3.95343 236.182 1.3184 248.297 1.13936 260.69C1.0883 263.993 0.276733 270.993 0.452609 274.213C1.93672 296.573 -1.79915 363.08 99.2097 405.32L100.674 405.945C105.085 407.923 136.983 420.29 163.372 377.795C187.378 339.193 237.166 348.379 252.065 352.128C256.692 353.25 261.175 355.013 265.39 357.367C279.888 364.868 295.626 369.219 311.584 370.137C327.541 371.056 343.361 368.522 358.017 362.7C372.673 356.878 385.838 347.897 396.659 336.341C407.479 324.785 415.713 310.911 420.826 295.619L421.108 294.774C430.47 266.76 435.084 249.939 450.644 238.469C466.204 226.999 493.356 198.747 452.957 115.095C412.559 31.442 317.17 3.00712 317.17 3.00712C317.17 3.00712 273.486 -8.87276 240.791 18.6312C234.571 23.9634 227.957 28.8009 221.004 33.1048C206.354 41.9588 182.754 54.1795 161.322 56.1637Z" fill="#B12222"/>
</svg>
