<svg width="468" height="390" viewBox="0 0 468 390" fill="none" xmlns="http://www.w3.org/2000/svg">
<path d="M331.846 350.631C330.32 352.679 328.578 354.545 326.651 356.195C308.12 371.807 305.608 383.392 241.783 371.005C241.783 371.005 198.323 360.419 155.16 381.463C140.574 388.763 124.051 391.446 107.604 389.186C95.5876 387.421 83.9402 383.173 73.3706 376.701C70.5514 374.979 64.2016 371.923 61.5736 370.053C43.4682 356.848 -14.7392 324.459 3.5471 216.512L3.80208 214.941C4.4874 210.155 11.0833 176.586 61.1039 176.994C106.56 177.337 125.407 130.347 130.202 115.751C131.726 111.241 132.632 106.509 132.895 101.689C134.305 85.4262 139.039 69.7991 146.791 55.8212C154.543 41.8434 165.14 29.827 177.895 20.5517C190.649 11.2763 205.276 4.949 220.826 1.98025C236.376 -0.988508 252.503 -0.53244 268.16 3.31888L269.025 3.5329C297.706 10.5929 314.389 15.6834 332.4 8.66259C350.41 1.64179 388.8 -6.20669 437.91 72.648C487.02 151.503 460.07 247.321 460.07 247.321C460.07 247.321 446.763 290.592 406.042 303.525C398.211 305.932 390.588 308.936 383.234 312.513C367.92 320.163 344.978 333.577 331.846 350.631Z" fill="#2A50D7"/>
</svg>
