<svg width="475" height="409" viewBox="0 0 475 409" fill="none" xmlns="http://www.w3.org/2000/svg">
<path d="M161.322 353.147C158.775 352.952 156.268 352.476 153.842 351.73C130.743 344.412 119.609 348.481 95.9658 287.916C95.9658 287.916 81.6842 245.526 40.8291 220.293C26.8632 211.867 15.764 199.336 8.88403 184.227C3.95343 173.128 1.3184 161.014 1.13936 148.621C1.0883 145.318 0.276732 138.318 0.452607 135.097C1.93672 112.737 -1.79915 46.2302 99.2097 3.99051L100.674 3.36603C105.085 1.38733 136.983 -10.9795 163.372 31.5153C187.378 70.1175 237.166 60.9316 252.065 57.1827C256.692 56.0605 261.175 54.2977 265.39 51.9435C279.888 44.4427 295.626 40.0919 311.584 39.1731C327.541 38.2544 343.361 40.7883 358.017 46.6105C372.673 52.4328 385.838 61.4133 396.659 72.9695C407.479 84.5258 415.713 98.3996 420.826 113.691L421.108 114.537C430.47 142.551 435.084 159.372 450.644 170.841C466.204 182.311 493.356 210.563 452.957 294.216C412.559 377.869 317.17 406.303 317.17 406.303C317.17 406.303 273.486 418.183 240.791 390.679C234.571 385.347 227.957 380.51 221.004 376.206C206.354 367.352 182.754 355.131 161.322 353.147Z" fill="#B12222"/>
</svg>
