<svg width="475" height="410" viewBox="0 0 475 410" fill="none" xmlns="http://www.w3.org/2000/svg">
<path d="M161.323 353.758C158.777 353.563 156.269 353.088 153.844 352.341C130.745 345.023 119.61 349.092 95.9674 288.528C95.9674 288.528 81.6857 246.138 40.8307 220.904C26.8648 212.478 15.7656 199.947 8.88561 184.839C3.95501 173.739 1.31998 161.625 1.14095 149.232C1.08989 145.929 0.278319 138.929 0.454194 135.709C1.93831 113.348 -1.79756 46.8416 99.2113 4.60184L100.676 3.97736C105.087 1.99866 136.984 -10.3682 163.374 32.1266C187.38 70.7288 237.167 61.5429 252.066 57.7941C256.694 56.6719 261.177 54.909 265.391 52.5548C279.89 45.0541 295.628 40.7032 311.585 39.7845C327.542 38.8657 343.362 41.3996 358.018 47.2219C372.675 53.0441 385.84 62.0246 396.66 73.5808C407.481 85.1371 415.715 99.0109 420.828 114.303L421.109 115.148C430.471 143.162 435.086 159.983 450.646 171.453C466.206 182.922 493.358 211.174 452.959 294.827C412.56 378.48 317.172 406.915 317.172 406.915C317.172 406.915 273.488 418.795 240.793 391.291C234.572 385.958 227.959 381.121 221.006 376.817C206.355 367.963 182.755 355.742 161.323 353.758Z" fill="#3F9247"/>
</svg>
