<svg width="476" height="381" viewBox="0 0 476 381" fill="none" xmlns="http://www.w3.org/2000/svg">
<path d="M155.547 20.7999C157.297 18.9388 159.24 17.284 161.343 15.8634C181.53 2.46333 185.346 -8.76083 247.344 10.8135C247.344 10.8135 289.317 26.2791 334.595 10.2873C349.918 4.6953 366.639 3.91071 382.721 8.02913C394.458 11.1508 405.546 16.6973 415.31 24.3309C417.915 26.363 423.876 30.1214 426.274 32.2785C442.758 47.4596 496.898 86.2654 466.44 191.428L466.007 192.961C464.781 197.637 454.406 230.237 404.757 224.136C359.636 218.619 335.561 263.157 329.136 277.112C327.107 281.42 325.668 286.018 324.858 290.776C321.606 306.773 315.123 321.759 305.83 334.764C296.537 347.768 284.64 358.499 270.913 366.262C257.185 374.025 241.933 378.646 226.146 379.824C210.359 381.003 194.389 378.714 179.272 373.105L178.437 372.794C150.747 362.514 134.752 355.557 116.059 360.481C97.3662 365.406 58.3321 368.832 18.5204 284.898C-21.2912 200.964 16.3938 108.838 16.3938 108.838C16.3938 108.838 34.5417 67.3635 76.47 59.1512C84.5244 57.6512 92.4402 55.5348 100.153 52.8189C116.238 46.9622 140.559 36.2472 155.547 20.7999Z" fill="#46D146"/>
</svg>
