<svg width="599" height="660" viewBox="0 0 599 660" fill="none" xmlns="http://www.w3.org/2000/svg">
<path d="M173.394 480.736C171.095 479.623 168.935 478.264 166.951 476.682C148.126 461.425 136.275 461.142 136.412 396.127C136.412 396.127 138.617 351.45 109.816 313.026C99.8977 300.077 94.1483 284.356 93.2685 267.778C92.7372 255.645 94.7138 243.405 99.078 231.805C100.238 228.712 102.042 221.9 103.383 218.967C112.94 198.697 133.778 135.429 243.237 133.043L244.828 132.997C249.658 132.768 283.868 132.92 292.894 182.121C301.125 226.827 350.824 236.48 366.062 238.438C370.779 239.085 375.597 239.083 380.38 238.433C396.617 236.752 412.856 238.457 428.045 243.436C443.233 248.415 457.031 256.557 468.544 267.335C480.057 278.112 489.028 291.284 494.874 305.996C500.72 320.709 503.312 336.632 502.48 352.735L502.433 353.625C500.905 383.122 499.05 400.466 509.339 416.83C519.628 433.195 534.571 469.418 466.385 532.509C398.199 595.6 299.019 587.192 299.019 587.192C299.019 587.192 254.015 582.278 233.64 544.724C229.8 537.487 225.413 530.567 220.514 524.019C210.115 510.421 192.617 490.418 173.394 480.736Z" fill="#46D146"/>
<g opacity="0.5" clip-path="url(#clip0_150_96)">
<path d="M111.579 217.287C111.579 217.287 112.942 213.817 115.812 214.12C118.682 214.424 122.009 215.1 122.009 215.1L121.155 215.578L124.809 217.007C124.809 217.007 124.984 217.649 124.341 218.04C123.61 218.489 122.418 218.185 122.418 218.185C120.676 217.736 118.875 217.579 117.116 217.194C115.847 216.92 114 216.745 111.574 217.281L111.579 217.287Z" stroke="#1D1D1B" stroke-miterlimit="10"/>
<path d="M125.195 216.196C125.195 216.196 126.037 217.153 128.153 216.61C128.153 216.61 128.773 216.039 131.736 216.78L137.547 217.707C137.547 217.707 139.085 218.01 139.997 218.296C140.909 218.582 142.119 218.873 142.119 218.873V219.567L136.016 219.935L140.804 223.691L137.881 224.711C137.881 224.711 137.734 223.072 135.688 222.74L133.642 222.413C133.642 222.413 132.73 222.559 132.327 224.385C131.924 226.21 130.316 226.682 129.953 226.717C129.591 226.752 127.761 226.863 127.615 226.717C127.615 226.717 125.475 225.732 124.844 224.968C124.844 224.968 124.107 223.726 124.067 223.329L120.705 224.898V225.224L123.19 226.612C123.19 226.612 120.559 228.689 119.244 226.286C119.244 226.286 118.583 225.009 120.343 223.002C120.343 223.002 121.915 221.323 125.645 220.704C129.375 220.086 133.502 219.684 133.502 219.684C133.502 219.684 128.825 218.296 126.522 218.663C124.218 219.031 124.838 216.855 125.206 216.208L125.195 216.196Z" stroke="#1D1D1B" stroke-miterlimit="10"/>
<path d="M138.26 224.968L141.189 226.193C141.189 226.193 139.891 229.138 135.185 230.112C135.185 230.112 132.707 230.135 131.836 230.409C130.965 230.683 128.007 229.908 128.007 229.908V229.26C128.007 229.26 137.617 227.744 138.26 224.968V224.968Z" stroke="#1D1D1B" stroke-miterlimit="10"/>
<path d="M163.954 217.631L159.908 220.08L160.195 220.448H162.486C162.486 220.448 160.931 222.367 162.977 223.101C165.023 223.836 168.25 223.836 168.25 223.836C168.25 223.836 171.887 223.591 173.032 222.734C174.178 221.877 174.424 222.081 173.687 219.59C173.687 219.59 171.846 220.407 170.782 221.468C169.718 222.53 167.005 221.55 167.005 221.55C167.005 221.55 165.263 221.428 163.954 217.637V217.631Z" stroke="#1D1D1B" stroke-miterlimit="10"/>
<path d="M171.963 213.882C171.963 213.882 178.095 211.31 181.942 211.759C181.942 211.759 181.702 212.855 181.942 213.514C182.181 214.173 181.895 215.095 181.041 215.182C181.041 215.182 179.96 215.404 179.855 215.468C179.75 215.532 179.633 215.555 178.487 214.943C177.341 214.331 173.354 213.998 172.559 214.506L171.968 213.882H171.963Z" stroke="#1D1D1B" stroke-miterlimit="10"/>
<path d="M169.963 224.887V225.528L169.279 226.082H174.681C174.681 226.082 175.622 226.467 175.967 226.98C175.967 226.98 178.113 225.913 178.539 228.094C178.539 228.094 179.311 230.06 179.738 230.958C179.738 230.958 180.083 232.41 180.252 232.713C180.422 233.017 180.252 234.51 179.054 234.469C179.054 234.469 178.627 234.212 178.194 238.102L177.423 243.532C177.423 243.532 175.494 243.334 174.418 245.334C173.342 247.335 171.974 248.758 170.957 248.728C169.94 248.699 168.572 248.064 168.572 248.064L165.982 246.903C165.982 246.903 164.702 246.524 163.977 246.728C163.977 246.728 164.591 244.319 165.228 243.625C165.865 242.931 166.684 242.144 166.83 240.575C166.976 239.006 167.064 237.787 164.883 234.83C164.883 234.83 165.088 233.641 164.532 232.859C163.977 232.078 161.188 226.444 161.188 226.444C161.188 226.444 160.721 225.038 162.644 224.887C164.567 224.735 169.975 224.887 169.975 224.887H169.963Z" stroke="#1D1D1B" stroke-miterlimit="10"/>
<path d="M151.513 256.712L155.021 256.945V258.187L151.513 257.686V256.712Z" stroke="#1D1D1B" stroke-miterlimit="10"/>
<path d="M137.512 261.886L141.259 262.16C141.259 262.16 141.645 261.962 142.101 263.017C142.101 263.017 141.569 263.472 141.242 263.472C140.915 263.472 137.389 262.679 137.389 262.679L137.518 261.886H137.512Z" stroke="#1D1D1B" stroke-miterlimit="10"/>
<path d="M167.964 286.17C167.964 286.17 171.097 283.044 174.617 287.155L167.964 286.17Z" stroke="#1D1D1B" stroke-miterlimit="10"/>
<path d="M173.038 293.42C173.038 293.42 175.26 292.079 175.418 292.044C175.575 292.009 177.189 290.469 175.008 289.221C172.828 287.973 170.834 287.775 170.834 287.775C170.834 287.775 168.742 287.524 168.058 288.095C167.374 288.667 168.058 289.652 168.058 289.652C168.058 289.652 168.467 290.207 169.291 290.726C170.115 291.245 173.032 293.426 173.032 293.426L173.038 293.42Z" stroke="#1D1D1B" stroke-miterlimit="10"/>
<path d="M92.4338 215.654C92.4338 215.654 93.5621 216.687 93.7492 217.911C93.7492 217.911 95.655 218.261 95.842 220.705C96.0291 223.149 96.7131 223.924 96.7131 223.924L97.4205 225.336C97.4205 225.336 95.2574 226.275 92.428 222.659C89.5985 219.043 89.4641 218.664 89.6979 217.305C89.9317 215.946 92.428 215.66 92.428 215.66L92.4338 215.654Z" stroke="#1D1D1B" stroke-miterlimit="10"/>
<path d="M174.856 183.17C175.692 182.913 176.487 182.143 176.487 182.143C177.739 181.309 176.359 180.878 176.359 180.878L168.894 179.705C169.291 180.627 170.776 181.822 170.776 181.822C173.202 183.578 174.78 183.176 174.78 183.176L175.108 184.132C175.54 185.252 175.803 185.228 175.803 185.228L186.946 192.087L186.741 192.501L180.03 189.299L179.305 191.201L176.031 190.909L177.475 194.426L179.562 195.207L179.978 196.438C180.159 197.353 180.773 198.036 181.895 197.983C183.017 197.931 183.351 198.106 183.351 198.106L178.662 199.08L177.516 198.992L176.979 199.844L175.926 200.223L175.277 200.176L175.096 200.736L175.488 201.273L175.622 201.762C175.64 202.608 175.745 203.775 175.745 203.775C176.026 205.46 178.978 205.431 178.978 205.431C178.458 206.749 176.417 208.224 176.417 208.224C172.302 210.26 168.262 212.774 166.824 213.969C165.386 215.165 163.907 216.197 163.907 216.197C163.907 216.197 162.147 216.955 160.709 217.952C159.271 218.95 156.313 223.137 155.512 224.292C154.711 225.447 154.319 227.115 154.127 228.66C153.934 230.206 154.933 232.457 155.115 232.941C155.296 233.425 155.191 234.673 155.191 234.673C155.36 235.764 154.992 236.778 154.992 236.778C154.355 238.668 155.769 239.216 155.769 239.216C155.331 240.324 156.161 241.946 156.161 241.946C156.161 241.946 156.985 243.456 156.775 243.73C156.564 244.004 156.547 245.177 156.547 245.177C156.687 247.235 158.33 249.067 158.757 249.924C159.183 250.781 158.973 251.085 158.973 251.085L158.739 251.225C158.739 251.225 157.856 251.703 157.704 252.677C157.552 253.651 157.95 254.922 157.997 255.307C158.043 255.692 157.704 256.491 157.704 256.491L163.416 258.462C162.977 258.83 154.167 261.437 154.167 261.437C151.987 262.282 150.864 261.711 150.864 261.711C148.158 260.842 142.487 262.032 142.487 262.032C142.487 262.032 143.405 262.831 144.527 263.478C145.65 264.125 146.813 264.02 147.41 263.863C148.006 263.705 149.59 264.207 149.59 264.207C150.876 264.685 155.284 263.746 155.284 263.746C155.787 263.449 156.453 263.84 156.453 263.84L157.921 264.621L157.161 265.169L160.399 265.694C160.399 265.694 159.411 266.814 158.838 267.275C158.266 267.735 158.102 269.176 158.587 269.841C159.072 270.506 159.943 275.358 159.943 275.358C161.001 275.061 161.919 273.917 161.919 273.917L172.962 258.2C172.962 258.2 173.214 257.634 173.88 257.313C174.547 256.993 174.868 258.2 174.868 258.2C174.868 258.2 175.008 260.107 175.26 264.254C175.511 268.4 175.675 268.412 175.675 268.412C175.675 268.412 175.879 270.815 172.67 271.066C169.461 271.316 164.129 275.026 162.434 276.997C160.738 278.968 158.786 278.851 158.418 278.781C158.049 278.711 156.833 278.665 156.465 278.624C156.097 278.583 154.583 278.781 153.893 278.921C153.203 279.061 153.39 279.102 153.068 279.954C152.747 280.805 153.045 281.097 153.045 281.097L158.406 288.964L158.593 289.017C159.02 290.183 160.189 292.201 161.51 293.093C162.831 293.986 163.65 295.811 163.65 295.811V296.511C163.65 296.511 162.328 296.785 161.276 296.669C160.224 296.552 160.224 296.826 160.224 296.826C158.704 298.027 155.746 296.826 155.746 296.826C155.746 296.826 151.934 295.426 151.151 295.508C150.368 295.59 148.737 295.001 148.737 295.001L144.492 292.516C144.492 292.516 144.259 290.224 142.236 288.48C140.213 286.736 139.745 284.637 139.745 284.637H140.798C140.798 284.637 140.996 284.194 140.768 283.698C140.54 283.202 139.611 281.318 139.477 281.184C139.342 281.05 138.167 278.986 137.319 278.303L134.396 275.136L131.748 273.165L124.078 268.015C124.078 268.015 118.425 263.851 118.057 263.425C118.057 263.425 113.327 258.929 112.831 258.34C112.334 257.751 107.797 252.793 106.92 250.682C106.92 250.682 104.897 246.431 104.576 245.527C104.254 244.623 101.63 236.918 101.63 236.918L100.115 232.801C100.115 232.801 99.4958 231.623 98.6657 231.18C97.8355 230.736 94.5559 228.812 93.5271 227.161C92.4982 225.511 91.592 223.318 91.592 223.318C91.592 223.318 91.2763 222.286 90.3819 221.632C89.4875 220.979 87.5934 217.328 87.8038 215.596C87.8038 215.596 87.7863 213.293 87.6928 212.96C87.5992 212.628 87.3888 210.767 87.6109 210.353C87.8331 209.939 87.418 208.306 87.418 208.306C87.418 208.306 86.4768 206.002 86.5586 205.734C86.5586 205.734 88.2481 205.355 90.6859 207.151C93.1237 208.948 94.7489 209.298 94.971 209.298C95.1932 209.298 97.0405 206.866 97.1223 205.594C97.2042 204.323 97.5842 203.751 97.9992 203.384C98.4143 203.016 98.9697 202.194 98.9521 201.891C98.9346 201.588 99.11 201.127 97.6952 200.334C96.2805 199.54 97.2042 200.38 96.4208 199.383L98.5078 199.43L97.6485 198.287C97.6485 198.287 98.9872 193.854 99.8933 192.39C100.799 190.926 102.635 190.197 102.635 190.197C102.635 190.197 104.371 189.585 104.786 188.284C104.786 188.284 105.009 187.538 104.991 187.363L100.513 187.695C100.513 187.695 101.244 185.217 101.261 184.96C101.279 184.704 101.407 183.321 102.518 182.971C102.518 182.971 104.032 182.75 104.477 182.482L106.499 181.403L109.288 184.027L110.469 184.645L112.509 183.391C112.509 183.391 113.737 182.324 113.877 182.027C114.017 181.729 115.262 181.28 116.028 181.373C116.794 181.467 119.659 182.47 119.659 182.47C119.659 182.47 121.81 181.688 122.669 181.805C123.529 181.922 123.611 182.062 123.611 182.062L123.739 181.887L122.096 179.84C122.096 179.84 123.944 179.332 124.09 179.285C124.236 179.239 125.698 179 126.37 179.081C127.042 179.163 129.112 178.953 129.299 178.86C129.486 178.766 130.398 178.417 130.702 178.177C131.006 177.938 132.929 177.227 134.654 177.396C136.378 177.565 138.734 177.542 139.512 177.699C140.289 177.857 144.75 178.51 144.75 178.51C144.75 178.51 148.813 178.306 149.193 178.382C149.573 178.457 151.823 178.556 151.823 178.556C151.823 178.556 153.495 178.539 154.179 176.346L157.383 177.413L159.709 176.556L159.563 176.859L159.213 176.492C159.213 176.492 158.593 176.288 158.353 175.617C158.114 174.946 157.938 174.457 157.938 174.457L158.768 174.235C158.768 174.235 159.213 174.107 159.709 174.457C160.206 174.806 163.1 176.364 163.1 176.364C163.1 176.364 163.644 176.778 164.679 176.539C164.679 176.539 164.521 177.857 165.906 178.953C167.292 180.049 168.742 179.717 168.742 179.717C168.742 179.717 172.74 179.274 173.95 179.274C173.95 179.274 175.096 179.355 175.944 179.606C176.791 179.857 177.247 179.688 177.247 179.688C177.247 179.688 177.82 179.67 178.042 179.799C178.042 179.799 176.546 179.828 176.435 180.802L176.417 180.878V180.895" stroke="#1D1D1B" stroke-miterlimit="10"/>
<path d="M177.481 194.426L179.907 193.125L180.854 194.752L180.135 196.14L179.983 196.438" stroke="#1D1D1B" stroke-miterlimit="10"/>
<path d="M179.568 195.207L180.135 196.14" stroke="#1D1D1B" stroke-miterlimit="10"/>
<path d="M175.581 201.832L180.363 199.825L179.668 199.05L178.668 199.079L178.066 199.825L177.335 200.181L176.23 200.531L176.259 200.928L176.265 200.986L175.885 200.531L175.283 200.17" stroke="#1D1D1B" stroke-miterlimit="10"/>
<path d="M177.002 201.307L176.873 201.22L176.254 200.864" stroke="#1D1D1B" stroke-miterlimit="10"/>
<path d="M175.862 200.17L176.295 200.596H175.862V200.17Z" stroke="#1D1D1B" stroke-miterlimit="10"/>
<path d="M176.984 199.838L177.335 200.182" stroke="#1D1D1B" stroke-miterlimit="10"/>
<path d="M177.522 198.986L177.727 199.482L178.066 199.826" stroke="#1D1D1B" stroke-miterlimit="10"/>
<path d="M217.725 214.832L209.997 215.789L211.879 216.121L211.92 216.459L206.068 218.156L206.203 218.512L206.945 218.757C206.945 218.757 203.624 219.988 201.473 221.533C199.322 223.079 195.645 225.493 195.645 225.493C195.645 225.493 196.563 226.566 195.423 227.733C194.283 228.899 192.464 230.328 191.564 232.387C191.564 232.387 187.145 239.834 187.145 240.015C187.145 240.196 185.712 243.304 185.327 245.696C184.941 248.087 184.251 251.399 184.251 253.237C184.251 255.074 184.046 255.628 184.432 258.001C184.818 260.375 187.191 266.994 188.758 269.456C188.758 269.456 189.232 270.441 189.05 271.153C189.05 271.153 187.636 271.532 186.788 273.433C185.94 275.334 184.947 278.262 184.947 278.262C184.947 278.262 184.339 279.58 184.701 282.152C184.701 282.152 184.859 283.225 185.911 284.905C186.963 286.585 189.541 290.766 189.541 290.766L189.992 290.475L189.653 287.769L190.009 287.564L192.026 289.781C192.026 289.781 194.043 289.267 192.722 287.028C191.401 284.788 190.594 283.651 190.594 283.651C190.594 283.651 190.144 283.138 190.079 282.088C190.079 282.088 193.014 283.721 193.599 284.059C194.183 284.398 194.744 284.841 194.744 284.841C194.744 284.841 195.843 285.511 196.469 284.059C196.469 284.059 197.054 281.376 195.773 280.682C194.493 279.988 192.745 277.329 192.745 277.329C192.745 277.329 192.95 279.073 194.025 280.28L196.405 283.838C196.405 283.838 197.258 284.106 197.527 284.374C197.796 284.642 203.402 292.049 203.56 292.428C203.718 292.807 206.115 296.231 206.723 296.633C207.331 297.036 212.282 300.926 212.282 300.926C212.282 300.926 214.796 302.85 215.468 303.719C216.141 304.588 220.221 307.726 221.075 307.86C221.075 307.86 225.898 310.368 228.072 310.654C230.247 310.939 235.538 312.532 235.538 312.532C235.538 312.532 242.465 314.544 245.47 314.544C248.475 314.544 254.438 314.071 255.449 313.605C255.449 313.605 264.528 311.459 266.504 310.409C268.48 309.359 270.093 309.423 271.865 307.726C271.865 307.726 272.987 306.542 274.15 306.297C275.314 306.052 281.82 300.972 281.82 300.972L280.926 299.718L281.82 298.29C281.82 298.29 279.646 297.217 280.745 294.085L278.704 291.962C278.704 291.962 277.541 291.268 277.74 287.576L276.419 287.419L276.822 287.127L275.431 284.712C275.431 284.712 274.554 283.19 273.256 282.164C271.958 281.137 270.631 278.274 270.789 277.177C270.789 277.177 270.631 275.591 271.374 273.486C271.374 273.486 269.38 273.037 269.088 272.949C268.796 272.862 267.767 272.657 267.024 273.352C267.024 273.352 265.797 274.057 265.615 274.081C265.434 274.104 264.364 274.547 264.364 274.547C264.364 274.547 263.3 274.722 263.061 274.722C262.821 274.722 260.009 275.229 260.009 275.229C260.009 275.229 258.197 275.218 257.869 275.002C257.869 275.002 257.162 274.798 257.162 274.71C257.162 274.623 256.554 274.471 256.075 274.71C256.075 274.71 255.595 274.722 255.356 274.675C255.356 274.675 253.128 274.728 252.105 274.057C251.082 273.386 249.627 272.191 249.627 272.191L248.007 270.739C248.007 270.739 247.744 270.523 247.616 270.26C247.487 269.998 246.224 268.289 246.224 268.289L244.353 265.676L242.454 262.988C242.454 262.988 240.659 260.387 240.565 260.212C240.472 260.037 239.373 258.13 239.303 257.546C239.232 256.963 238.782 255.184 239.039 254.286L237.66 254.263C237.66 254.263 239.7 253.318 237.864 251.749C236.029 250.181 234.977 249.451 234.977 249.451C234.977 249.451 232.708 247.544 230.586 248.023C228.464 248.501 227.663 249.043 227.663 249.043C227.663 249.043 228.686 243.777 229.055 242.92C229.423 242.062 230.925 240.493 232.79 240.657L232.825 239.572L234.269 239.671C234.269 239.671 235.181 240.569 235.725 240.517C236.268 240.464 237.823 240.138 238.092 239.858C238.361 239.578 238.127 238.872 238.127 238.872L238.016 238.05C238.016 238.05 237.724 236.848 237.905 236.242C238.087 235.635 238.426 234.527 238.426 234.527L242.325 234.83C242.325 234.83 241.945 237.14 242.565 237.822C243.184 238.505 244.172 239.099 244.172 239.099C244.172 239.099 242.617 240.832 242.804 242.406C242.991 243.981 243.208 244.401 243.523 244.844C243.839 245.287 244.523 245.941 244.85 246.156C245.178 246.372 245.634 246.611 245.949 247.597C245.949 247.597 246.329 249.049 246.341 249.58C246.353 250.111 246.908 250.74 247.078 250.88C247.247 251.02 248.393 251.563 248.393 251.563C248.393 251.563 249.089 251.802 249.556 252.764C250.024 253.726 250.305 254.368 250.819 254.671C251.334 254.975 251.515 255.266 252.175 255.161C252.836 255.056 253.304 254.263 253.304 254.263C253.304 254.263 254.28 253.342 254.543 253.342C254.806 253.342 255.508 252.408 255.508 252.408C255.508 252.408 256.279 251.411 257.571 251.248C258.863 251.084 260.395 250.694 260.483 250.63C260.57 250.565 260.939 250.291 261.658 250.653C262.377 251.014 262.874 251.219 262.874 251.219L263.049 250.968L261.213 250.099L263.505 249.533C263.505 249.533 264.125 251.201 265.984 251.073C265.984 251.073 266.931 250.898 267.474 250.542C268.018 250.186 269.006 250.111 269.462 250.39C269.918 250.67 270.549 251.918 270.549 251.918L274.156 253.318L269.801 254.152C269.801 254.152 272.864 256.742 274.384 257.045C274.384 257.045 275.016 257.424 275.939 257.249C276.863 257.074 276.559 255.254 276.559 255.254C276.559 255.254 276.851 253.901 278.699 254.106C278.699 254.106 281.861 255.091 282.165 255.103L280.873 256.1C280.873 256.1 280.786 256.24 281.078 256.339C281.37 256.438 282.393 257.057 282.393 257.057C282.393 257.057 282.884 257.395 282.61 257.867C282.335 258.34 281.937 258.421 281.937 258.421C281.937 258.421 280.254 258.824 279.295 258.206C278.336 257.587 277.904 257.033 277.904 257.033C277.904 257.033 276.764 255.482 276.664 255.365C276.565 255.249 276.617 255.307 276.617 255.307" stroke="#1D1D1B" stroke-miterlimit="10"/>
<path d="M267.96 247.521L270 247.188C270 247.188 270.491 248.565 270 249.055C269.509 249.545 267.591 249.428 267.591 249.428C267.591 249.428 268.638 248.909 268.801 248.641C268.965 248.372 268.755 248.005 267.96 247.515V247.521Z" stroke="#1D1D1B" stroke-miterlimit="10"/>
<path d="M255.595 258.346V259.081L256.501 263.099C256.501 263.099 253.128 262.807 252.731 261.524C252.333 260.241 252.707 259.78 253.28 259.36C253.853 258.941 255.601 258.352 255.601 258.352L255.595 258.346Z" stroke="#1D1D1B" stroke-miterlimit="10"/>
<path d="M255.706 264.539L263.072 263.35C263.072 263.35 262.043 264.761 259.951 265.309C257.858 265.857 255.706 264.539 255.706 264.539V264.539Z" stroke="#1D1D1B" stroke-miterlimit="10"/>
<path d="M221.502 253.37C221.502 253.37 222.256 252.326 222.513 251.994C222.77 251.661 223.285 251.002 224.682 251.002C226.079 251.002 226.482 250.856 226.482 250.856C226.482 250.856 226.43 252.909 225.033 253.807C223.635 254.706 222.788 254.397 222.788 254.397C222.788 254.397 221.829 253.79 221.502 253.37Z" stroke="#1D1D1B" stroke-miterlimit="10"/>
<path d="M207.15 244.85L218.567 237.507C218.567 237.507 220.309 236.265 220.379 236.125C220.449 235.985 220.701 235.489 222.226 236.586L224.822 238.003C224.822 238.003 222.367 239.741 222.121 240.132C221.876 240.522 218.883 241.905 218.672 241.87C218.462 241.835 215.901 242.686 215.545 243.007C215.188 243.328 212.487 244.249 211.99 244.389C211.493 244.529 207.547 245.503 207.547 245.503L207.156 244.85H207.15Z" stroke="#1D1D1B" stroke-miterlimit="10"/>
<path d="M232.059 227.855L232.346 229.079L231.516 229.365C231.516 229.365 231.048 229.348 230.808 229.202C230.569 229.056 229.201 228.84 228.604 229.814C228.008 230.788 226.418 233.78 226.418 233.78L227.014 234.719L229.674 235.063L228.552 235.693L228.68 236.054L232.042 234.97L230.814 234.445C230.814 234.445 231.428 233.978 231.446 233.885C231.463 233.792 232.51 233.453 232.51 233.453C232.51 233.453 234.211 232.567 235.24 231.435C236.268 230.304 236.485 229.668 236.578 229.435C236.672 229.202 236.941 227.901 235.438 227.65L232.059 227.849V227.855Z" stroke="#1D1D1B" stroke-miterlimit="10"/>
<path d="M224.138 235.029C224.138 235.029 224.6 234.236 224.641 234.166C224.682 234.096 225.138 233.431 225.231 233.396C225.325 233.361 225.401 233.279 225.752 233.489C226.102 233.699 226.547 233.892 226.547 233.892L226.126 233.962L227.131 234.702C227.131 234.702 227.061 235.56 226.588 235.758C226.114 235.956 225.348 235.577 225.348 235.577L224.144 235.035L224.138 235.029Z" stroke="#1D1D1B" stroke-miterlimit="10"/>
<path d="M234.246 239.647V239.6L234.474 237.495L237.9 238.049C237.94 238.055 237.964 238.061 237.964 238.061" stroke="#1D1D1B" stroke-miterlimit="10"/>
<path d="M227.219 218.08L233.229 218.471L233.147 218.838L230.808 219.176L234.257 222.868C234.257 222.868 233.386 222.938 233.147 223.008C232.907 223.078 232.878 223.218 232.065 222.571C231.253 221.923 230.235 221.264 230.235 221.264C230.235 221.264 228.476 219.62 228.137 218.681C228.137 218.681 227.277 218.342 227.225 218.074L227.219 218.08Z" stroke="#1D1D1B" stroke-miterlimit="10"/>
<path d="M217.55 214.831L213.153 210.621L213.352 210.201L215.872 211.163L215.796 211.291L218.801 210.201L221.542 208.515L221.881 208.434L222.507 207.915L224.617 208.626L225.798 208.638L227.529 206.736L227.16 206.352C227.16 206.352 226.447 206.894 226.278 206.935C226.108 206.976 225.582 206.981 225.249 206.859C224.916 206.736 224.617 206.678 224.617 206.678L224.115 206.287L225.062 205.739L226.348 205.144L224.302 203.482L223.542 201.33L222.25 201.441C222.25 201.441 221.846 202.357 221.665 202.566C221.484 202.776 221.25 202.741 221.25 202.741C221.25 202.741 220.496 202.835 220.414 203.61C220.332 204.386 220.572 204.917 220.572 204.917L221.18 205.354L220.97 205.477L220.794 205.576L220.607 204.987C220.607 204.987 220.163 203.925 219.97 203.745C219.777 203.564 219.023 202.316 217.462 202.24L215.527 203.885L217.918 207.343L220.671 205.623L221.279 205.302L222.069 205.226L223.027 205.319L223.203 207.197L221.502 207.104L221.162 205.401" stroke="#1D1D1B" stroke-miterlimit="10"/>
<path d="M224.273 203.506L223.361 203.914L223.442 203.85L222.799 203.862L223.016 204.766L222.986 205.366H223.425L223.021 204.783" stroke="#1D1D1B" stroke-miterlimit="10"/>
<path d="M223.366 203.961V205.215L223.425 205.413L224.091 206.247" stroke="#1D1D1B" stroke-miterlimit="10"/>
<path d="M226.044 204.947L225.991 204.883C225.991 204.883 225.436 204.76 225.068 204.912C224.699 205.063 225.103 205.717 225.103 205.717" stroke="#1D1D1B" stroke-miterlimit="10"/>
<path d="M224.623 206.731L223.951 207.227L223.138 207.151L224.647 208.656" stroke="#1D1D1B" stroke-miterlimit="10"/>
<path d="M221.613 208.557L217.877 207.273C217.877 207.273 218.128 207.291 217.591 208.702C217.053 210.114 218.35 210.16 218.35 210.16H218.882" stroke="#1D1D1B" stroke-miterlimit="10"/>
<path d="M225.676 208.656C225.676 208.656 226.389 208.446 227.406 208.656C228.423 208.866 229.592 209.117 229.592 209.117C229.592 209.117 230.463 209.274 231.001 209.21C231.539 209.146 232.135 208.994 232.416 208.808C232.416 208.808 232.463 208.691 232.767 208.831L233.755 209.023L236.438 209.537C236.438 209.537 238.075 209.764 238.285 209.77C238.496 209.776 239.086 209.787 239.799 209.496C240.513 209.204 241.138 208.936 241.138 208.936L241.056 208.434L239.25 207.35C239.25 207.35 238.73 206.417 238.73 206.259C238.73 206.102 238.122 205.419 237.87 205.25C237.619 205.081 236.496 204.031 236.496 204.031L235.117 202.83L234.006 201.815L232.802 200.608C232.802 200.608 231.843 199.78 231.06 199.71C230.276 199.64 230.124 199.663 230.124 199.663" stroke="#1D1D1B" stroke-miterlimit="10"/>
<path d="M223.46 201.336L224.635 200.94L225.611 200.73L226.161 200.234L226.476 200.182H227.687L231.264 199.493L229.698 197.12C229.698 197.12 228.569 195.557 228.47 195.481C228.371 195.405 228.032 194.863 227.733 194.769C227.435 194.676 226.196 193.673 226.196 193.673C226.196 193.673 226.021 194.204 225.524 194.355C225.524 194.355 225.126 194.39 224.688 194.029C224.249 193.667 223.898 193.626 223.898 193.626L223.7 192.349L224.863 191.002L226.219 193.737" stroke="#1D1D1B" stroke-miterlimit="10"/>
<path d="M226.178 200.281L224.442 199.067L224.331 199.102C224.331 199.102 222.811 198.519 222.723 198.513C222.723 198.513 221.864 198.303 221.788 198.303C221.712 198.303 219.011 197.837 219.011 197.837L219.403 198.811L221.525 200.496L224.278 199.132" stroke="#1D1D1B" stroke-miterlimit="10"/>
<path d="M222.256 201.4L221.554 200.444C221.554 200.444 220.087 200.065 219.976 200.018C219.865 199.971 219.286 199.761 219.122 199.645C218.959 199.528 217.55 198.718 217.55 198.718L218.432 197.615L218.468 197.627L219.058 197.866" stroke="#1D1D1B" stroke-miterlimit="10"/>
<path d="M217.491 202.292L215.889 200.945L214.135 200L214.586 199.073L215.205 199.032L215.27 199.085L215.252 199.855L216.527 199.761L215.913 200.904" stroke="#1D1D1B" stroke-miterlimit="10"/>
<path d="M215.065 200.444L215.328 199.803H214.849L215.089 200.473" stroke="#1D1D1B" stroke-miterlimit="10"/>
<path d="M214.574 199.032L214.942 199.843L214.135 200" stroke="#1D1D1B" stroke-miterlimit="10"/>
<path d="M215.62 199.073H216.433L216.404 199.82L215.983 199.831L215.62 199.073Z" stroke="#1D1D1B" stroke-miterlimit="10"/>
<path d="M216.182 197.225L215.246 198.828L215.205 199.033L215.27 199.085L215.697 199.143L215.621 198.683L216.433 198.741L216.182 197.225Z" stroke="#1D1D1B" stroke-miterlimit="10"/>
<path d="M217.509 198.747L216.725 198.391L216.182 197.225L217.982 197.72L217.935 197.61H218.438" stroke="#1D1D1B" stroke-miterlimit="10"/>
<path d="M216.731 198.747L216.784 198.345H216.345L216.433 198.741" stroke="#1D1D1B" stroke-miterlimit="10"/>
<path d="M217.643 198.653L216.538 199.855L216.731 199.073L217.643 198.653Z" stroke="#1D1D1B" stroke-miterlimit="10"/>
<path d="M216.345 198.706H216.784V198.747V199.126H216.345V198.706Z" stroke="#1D1D1B" stroke-miterlimit="10"/>
<path d="M217.474 198.729L216.784 198.747" stroke="#1D1D1B" stroke-miterlimit="10"/>
<path d="M224.442 199.061L223.7 192.349L223.022 189.643L219.163 189.683L219.683 188.867L216.112 188.249L216.866 190.214L209.71 190.237C209.71 190.237 209.149 190.191 208.798 189.835L208.453 189.607L209.535 188.389L205.6 188.616L207.331 187.922C207.331 187.922 209.511 185.653 209.856 185.146C210.201 184.639 210.575 184.061 210.704 183.793C210.833 183.525 211.75 181.594 211.938 180.439C212.125 179.285 212.318 177.459 212.318 177.459C212.318 177.459 212.423 175.523 212.341 175.161C212.259 174.8 212.125 174.193 211.639 173.732C211.154 173.272 210.353 172.099 210.353 172.099L208.903 170.28L206.846 167.725L205.045 165.503L203.321 163.456L201.994 161.934L200.205 159.829L198.591 157.723L197.211 155.694C197.211 155.694 195.095 152.859 194.902 152.76C194.709 152.661 193.377 151.209 193.377 151.209C193.377 151.209 191.126 149.313 190.927 149.185C190.728 149.057 188.898 147.715 188.898 147.715L185.818 145.593C185.818 145.593 182.889 143.72 182.789 143.697C182.69 143.674 180.258 142.28 180.258 142.28C180.258 142.28 179.405 141.813 179.282 141.638C179.159 141.463 177.768 140.215 177.768 140.215C177.768 140.215 176.844 139.533 175.64 139.994C175.64 139.994 175.359 138.734 173.465 137.976C171.571 137.218 170.922 136.121 170.729 135.725C170.536 135.328 167.005 134.465 167.005 134.465C167.005 134.465 160.329 136.716 159.166 136.844L149.748 138.991C149.748 138.991 141.254 141.522 139.652 142.56C138.05 143.598 130.626 145.861 130.626 145.861L121.547 149.086C121.547 149.086 117.139 150.713 116.233 150.602C115.327 150.492 114.152 150.311 112.386 149.535C110.621 148.759 105.792 147.377 105.792 147.377C105.792 147.377 95.6725 143.65 94.8424 143.487C94.0123 143.324 86.2722 141.172 86.2722 141.172L84.9627 146.741C84.9627 146.741 84.0273 148.019 83.279 148.66C83.279 148.66 83.8636 150.101 83.5187 151.005C83.1738 151.909 82.5307 152.924 82.5307 153.192C82.5307 153.46 81.9988 155.775 81.9988 155.775C81.9988 155.775 78.7133 167.125 77.9124 168.215L75.2934 174.66C75.2934 174.66 74.7848 176.713 74.6503 178.019C74.5159 179.325 73.0193 184.814 71.739 185.933C71.739 185.933 70.8037 187.24 70.5348 188.599C70.2659 189.957 69.576 191.211 68.9037 191.34C68.2314 191.468 67.1675 191.206 66.8986 190.57C66.8986 190.57 67.7521 189.427 66.4718 188.733L65.0571 188.814C65.0571 188.814 64.2269 188.628 63.9873 188.709C63.7476 188.791 62.3855 188.791 62.3855 188.628C62.3855 188.464 65.0805 187.56 65.0805 187.56C65.0805 187.56 62.783 184.522 57.7613 186.359L58.3459 187.053L56.557 187.269L56.7733 186.202L56.1303 185.508L54.6337 187.001C54.6337 187.001 49.4249 185.082 49.2378 184.948C49.0508 184.814 47.2619 184.015 46.8585 184.015C46.4551 184.015 44.2161 183.111 44.2161 183.111C44.2161 183.111 43.0119 182.364 42.6669 182.364C42.6669 182.364 40.3461 181.483 39.8375 181.594C39.8375 181.594 38.2883 181.513 38.0486 181.676C37.8089 181.839 34.6813 181.384 34.6813 181.384C34.6813 181.384 31.5011 180.614 31.2906 180.504C31.0802 180.393 28.619 179.092 28.2741 178.801C27.9292 178.509 26.2689 177.844 26.2689 177.844L25.9591 178.486" stroke="#1D1D1B" stroke-miterlimit="10"/>
<path d="M34.05 178.667H39.5861C39.5861 178.667 37.8966 179.553 37.7622 179.688C37.6277 179.822 36.4527 180.224 35.9265 180.078C35.4004 179.933 33.9155 179.495 33.9155 179.495L34.0441 178.667H34.05Z" stroke="#1D1D1B" stroke-miterlimit="10"/>
<path d="M53.5054 184.266L54.6921 183.047L56.2764 184.406H55.1422L55.6216 185.356L55.3059 185.625L53.5054 184.266Z" stroke="#1D1D1B" stroke-miterlimit="10"/>
<path d="M39.3698 194.903L46.5662 198.263C46.5662 198.263 41.6672 199.254 39.3698 194.903V194.903Z" stroke="#1D1D1B" stroke-miterlimit="10"/>
<path d="M34.43 192.804C34.43 192.804 33.7051 192.845 32.6294 191.848C31.5537 190.85 29.911 191.848 29.911 191.848L34.237 193.527L34.43 192.804Z" stroke="#1D1D1B" stroke-miterlimit="10"/>
<path d="M26 190.663L27.1224 190.931C27.1224 190.931 28.3092 189.975 28.9581 191.159C28.9581 191.159 28.7301 191.596 29.379 192.465C30.0279 193.334 30.2208 194.401 30.2208 194.401L26 192.483" stroke="#1D1D1B" stroke-miterlimit="10"/>
<path d="M125.931 151.413L129.217 153.705L128.866 154.189L125.563 151.757L125.931 151.413Z" stroke="#1D1D1B" stroke-miterlimit="10"/>
<path d="M130.725 155.752C130.725 155.752 131.83 155.309 133.508 156.913C135.185 158.517 135.677 159.129 135.694 159.328C135.712 159.526 130.725 155.758 130.725 155.758V155.752Z" stroke="#1D1D1B" stroke-miterlimit="10"/>
<path d="M213.358 284.951C213.358 284.951 218.555 276.53 219.064 276.436C219.572 276.343 222.682 271.438 226.348 271.345C226.348 271.345 227.324 269.91 228.154 269.91C228.984 269.91 233.024 270.884 233.024 270.884C233.024 270.884 234.275 272.319 234.602 272.319C234.602 272.319 236.134 273.474 236.736 273.52C237.338 273.567 240.027 274.354 239.799 278.518L239.811 279.166L240.261 280.14L241.559 279.679C241.559 279.679 243.786 281.854 242.208 283.89C240.63 285.925 239.379 287.821 238.87 289.675H238.361L237.853 288.427H237.438C237.438 288.427 237.718 289.582 235.906 290.836C234.094 292.09 227.096 295.927 227.096 295.927C227.096 295.927 224.916 297.129 224.173 295.093C224.173 295.093 224.033 293.519 224.916 293.338C225.798 293.157 229.136 291.162 229.926 289.728C230.715 288.293 233.445 285.377 233.445 285.377V284.776L228.675 285.61L229.002 284.683C229.002 284.683 225.617 283.155 223.109 286.718L227.47 286.024C227.47 286.024 223.711 289.634 217.175 289.448C217.175 289.448 215.229 289.261 214.855 287.319C214.48 285.377 213.37 284.957 213.37 284.957L213.358 284.951Z" stroke="#1D1D1B" stroke-miterlimit="10"/>
<path d="M222.127 282.222L223.285 277.964C223.285 277.964 221.431 277.597 220.917 281.067L221.519 282.222H222.121H222.127Z" stroke="#1D1D1B" stroke-miterlimit="10"/>
<path d="M217.187 294.79C217.187 294.79 219.327 294.662 219.607 294.615C219.888 294.568 220.578 294.691 221.443 295.531L220.426 296.446C220.426 296.446 218.976 296.405 218.59 296.271C218.204 296.137 217.748 296.166 217.187 294.79V294.79Z" stroke="#1D1D1B" stroke-miterlimit="10"/>
<path d="M282.271 255.103L282.843 255.004C282.843 255.004 281.692 255.418 281.475 253.575C281.259 251.732 281.066 251.09 281.119 250.985C281.171 250.88 279.78 250.338 279.698 250.21C279.698 250.21 279.12 249.941 278.71 248.932C278.301 247.923 277.296 245.375 277.296 245.375L277.594 245.316L275.22 242.05C275.22 242.05 273.963 240.622 273.928 240.155C273.893 239.688 274.092 239.298 274.338 239.047C274.583 238.796 274.981 237.939 274.981 237.939L275.893 235.507C275.893 235.507 275.407 234.381 274.618 235.309C274.618 235.309 274.215 235.542 273.917 235.559C273.618 235.577 272.327 236.166 272.327 236.166L271.97 235.612L273.314 234.165L267.17 230.911L266.562 231.786L274.285 239.024" stroke="#1D1D1B" stroke-miterlimit="10"/>
<path d="M275.057 237.915C275.057 237.915 276.302 237.501 277.021 237.548C277.74 237.594 279.038 237.577 279.038 237.577C279.038 237.577 279.57 237.565 279.845 237.734C279.845 237.734 280.043 237.74 280.043 237.985C280.043 238.23 280.447 238.767 280.447 238.767C280.447 238.767 280.838 239.42 282.51 239.583C282.51 239.583 282.867 239.472 283.662 240.429L286.398 241.414L286.854 243.339C286.854 243.339 286.813 243.596 287.152 243.73L287.491 243.864L288.479 242.068L291.116 245.981L290.063 246.278C290.063 246.278 290.461 246.541 291.706 246.517C292.951 246.494 294.015 246.687 294.343 248.139C294.343 248.139 294.641 248.285 294.81 248.308C294.98 248.331 296.663 249.183 296.663 249.183C296.663 249.183 297.406 249.556 298.306 250.232C299.206 250.909 300.604 249.923 300.604 249.923L301.212 251.282L299.657 253.423C299.657 253.423 299.668 253.703 298.844 253.749C298.809 253.749 298.768 253.749 298.727 253.749C297.792 253.773 297.102 253.749 297.102 253.749L294.29 254.058L293.571 253.901L293.512 253.528L293.957 253.767L293.033 254.175L290.11 254.402L290.683 255.12C290.683 255.12 291.858 254.595 293.822 254.822C295.787 255.05 298.277 255.79 298.277 255.79L299.388 254.741L297.073 253.726" stroke="#1D1D1B" stroke-miterlimit="10"/>
<path d="M298.943 253.802L302.72 254.292L302.784 254.618L298.189 255.785C298.189 255.785 298.961 255.925 299.084 255.971C299.206 256.018 299.434 256.082 299.516 256.245C299.598 256.409 300.311 256.747 300.487 256.811C300.662 256.875 301.475 256.963 302.211 256.514C302.948 256.065 303.895 255.441 303.895 255.441C303.895 255.441 303.749 256.56 304.123 256.794C304.497 257.027 305.058 257.313 305.058 257.313C305.058 257.313 303.585 257.505 303.147 258.234C302.708 258.963 303.275 260.235 303.275 260.235C303.275 260.235 303.351 260.637 303.252 260.923L305.111 259.704L306.263 261.704L304.684 262.422C304.684 262.422 304.667 262.427 304.643 262.439C304.468 262.503 303.807 262.684 303.708 262.013C303.597 261.238 303.568 261.074 303.269 260.94" stroke="#1D1D1B" stroke-miterlimit="10"/>
<path d="M304.737 262.445C304.737 262.445 305.66 262.632 305.97 262.749C306.28 262.865 306.97 263.495 306.97 263.495C306.97 263.495 307.683 264.277 307.806 264.615C307.929 264.953 308.209 265.251 308.162 266.05C308.116 266.849 307.823 267.583 307.823 267.583L309.244 267.438L312.038 271.077L310.191 271.934L317.791 274.331C317.791 274.331 317.703 274.734 317.697 274.809C317.691 274.885 317.458 275.299 317.352 275.521C317.247 275.743 316.668 276.716 316.896 277.801C317.124 278.886 317.937 279.691 317.937 279.691C317.937 279.691 319.106 280.647 319.229 281.75C319.229 281.75 319.457 282.747 319.416 283.237C319.375 283.727 319.55 284.368 319.632 284.532C319.714 284.695 320.047 285.447 320.439 285.733C320.439 285.733 320.626 285.902 320.895 285.92C321.164 285.937 321.842 286.188 321.965 286.462C322.088 286.736 322.234 287.103 321.778 288.124L323.613 287.92C323.613 287.92 324.268 289.431 324.508 289.693C324.748 289.955 324.964 290.177 325.315 290.305C325.665 290.434 327.25 290.218 328.331 289.775C329.413 289.331 330.336 289.495 330.588 290.084C330.588 290.084 330.921 290.644 330.95 290.964C330.979 291.285 331.301 291.483 331.301 291.483C331.301 291.483 331.827 291.845 332.102 292.224C332.377 292.603 334.236 294.627 334.236 294.627C334.236 294.627 335.948 296.622 336.258 297.38C336.258 297.38 337.188 298.966 337.281 299.981L335.966 300.745C335.966 300.745 335.2 301.106 334.99 301.095C334.779 301.083 334.306 301.456 334.388 301.882C334.469 302.308 335.153 302.833 335.153 302.833C335.153 302.833 335.814 303.643 335.668 305.096C335.522 306.548 336.194 309.458 336.194 309.458L336.819 309.54L338.018 306.011C338.018 306.011 338.193 304.886 338.573 304.571C338.953 304.256 339.339 304.454 339.339 304.454C339.339 304.454 339.55 304.512 339.783 304.361C340.017 304.209 340.69 303.69 340.69 303.69C340.69 303.69 338.667 303.935 338.375 302.646C338.375 302.646 338.339 301.835 338.468 301.637C338.597 301.439 338.328 300.931 338.071 300.803C337.813 300.675 337.293 300.027 337.293 300.027C337.293 300.027 338.211 299.036 338.334 298.902C338.456 298.768 338.661 298.4 338.702 298.289C338.743 298.179 339.269 297.117 339.497 296.948C339.725 296.779 339.935 296.318 340.888 296.406C341.841 296.493 343.268 297.45 343.268 297.45L345.197 298.371L346.886 299.123C346.886 299.123 346.816 298.167 347.219 297.66C347.623 297.152 348.944 297.496 348.944 297.496C348.944 297.496 349.768 298.616 350.423 298.809C351.078 299.001 351.966 298.832 352.259 298.453L352.212 298.365L351.51 297.018L348.909 297.59C348.909 297.59 349.184 296.307 349.184 296.231C349.184 296.155 349.459 295.21 350.71 295.49C350.71 295.49 351.002 295.268 351.101 294.901L350.183 294.19L356.298 292.86V292.982L356.415 294.557L355.375 294.283L354.293 295.992L353.913 295.875L353.79 294.166C353.79 294.166 352.574 295.344 352.411 296.429C352.247 297.514 352.276 298.389 352.276 298.389L354.585 299.555L354.258 301.305C354.258 301.305 355.614 301.701 356.351 301.305C357.088 300.908 357.941 299.322 357.941 299.322L359.742 295.659L356.959 292.475L356.386 292.947L356.176 292.761L356.848 292.498L354.217 290.889L353.977 291.168L354.439 291.244C354.439 291.244 354.159 290.999 354.018 290.352C354.018 290.352 353.931 290.16 354.065 290.09C354.2 290.02 355.112 289.384 355.112 289.384L356.509 288.521C356.509 288.521 357.105 288.06 357.222 287.902C357.339 287.745 357.485 287.663 357.187 287.319C356.889 286.975 356.842 286.818 356.415 287.109C355.988 287.401 354.013 289.355 354.013 289.355L353.539 289.069C353.539 289.069 354.451 288.579 354.615 287.663C354.615 287.663 354.737 287.319 354.334 286.439C354.334 286.439 353.726 285.243 353.697 284.992L352.966 285.436L352.697 284.992L355.959 283.365L352.428 283.336L353.691 283.948C353.691 283.948 350.213 284.094 349.798 284.182C349.798 284.182 347.933 284.345 347.225 284.788C347.225 284.788 344.747 285.826 344.063 286.532C344.063 286.532 341.362 288.597 341.239 288.783C341.116 288.97 339.626 289.81 339.52 289.74C339.415 289.67 338.801 288.182 338.883 287.716C338.965 287.249 339.164 285.482 339.31 285.336C339.456 285.191 339.123 284.899 340.175 284.497L341.093 283.989C341.093 283.989 341.824 283.377 342.946 283.937C342.946 283.937 343.706 284.467 343.829 284.683C343.952 284.899 344.536 285.097 345.15 284.671C345.764 284.246 347.722 282.811 348.254 282.689C348.254 282.689 351.23 281.33 352.972 281.143C352.972 281.143 358.935 279.784 359.753 279.784C360.572 279.784 361.729 279.493 361.905 279.09C362.08 278.688 362.197 278.04 362.144 277.865C362.092 277.69 362.53 276.88 362.782 276.682C362.782 276.682 362.77 277.545 363.156 278.198C363.541 278.851 364.594 278.956 364.594 278.956C364.594 278.956 365.383 278.863 365.716 278.81C366.049 278.758 368.475 278.676 370.142 279.411C371.808 280.146 374.017 280.968 374.017 280.968" stroke="#1D1D1B" stroke-miterlimit="10"/>
<path d="M374 284.357C374 284.357 370.083 280.753 369.487 280.484C369.487 280.484 367.125 278.694 366.102 278.805" stroke="#1D1D1B" stroke-miterlimit="10"/>
<path d="M364.693 292.177C364.693 292.177 363.273 292.51 363.378 293.478C363.378 293.478 363.565 294.154 364.033 294.691C364.5 295.227 364.547 295.595 364.547 295.595C364.547 295.595 362.448 294.586 362.407 293.705C362.367 292.824 362.706 291.921 364.693 292.177Z" stroke="#1D1D1B" stroke-miterlimit="10"/>
<path d="M344.191 296.931L346.454 297.187C346.454 297.187 346.272 296.534 346.232 296.318C346.191 296.103 346.173 295.945 345.448 296.027C344.723 296.108 344.191 296.149 344.191 296.149V296.931V296.931Z" stroke="#1D1D1B" stroke-miterlimit="10"/>
<path d="M101.057 311.849C101.057 311.849 117.32 327.63 124.008 339.411C130.696 351.192 135.817 364.973 135.817 364.973C135.817 364.973 136.255 366.595 137.869 366.531L138.962 370.642L142.698 376.678L144.691 376.101C144.691 376.101 143.598 378.288 143.598 378.93C143.598 379.571 144.112 381.373 145.527 382.656C146.942 383.939 150.742 390.238 150.742 390.238C150.742 390.238 151.256 390.944 152.221 391.842C153.185 392.74 159.949 398.59 161.621 400.899C163.293 403.209 165.228 403.471 165.228 403.471C165.228 403.471 166.193 404.177 166.836 405.139C166.836 405.139 168.829 406.358 169.928 406.358C171.027 406.358 175.915 408.609 176.499 409.187C177.084 409.764 180.299 412.657 181.006 413.619C181.714 414.581 183.649 415.999 184.485 415.934C185.321 415.87 197.299 409.764 197.299 409.764L219.777 397.237C219.777 397.237 220.677 396.146 221.905 397.686C223.133 399.225 226.862 403.92 227.055 404.562C227.248 405.203 230.791 410.47 231.177 410.989C231.562 411.508 234.912 414.459 235.684 416.833C236.456 419.206 246.055 430.066 246.055 430.066L246.376 429.167L238.648 416.576C238.648 416.576 237.555 415.357 237.04 414.972C236.526 414.587 235.304 411.759 235.304 411.759C235.304 411.759 230.346 405.139 230.154 404.369C229.961 403.599 226.675 398.263 226.675 398.263L224.939 396.531C224.939 396.531 223.46 395.312 224.939 394.542C226.418 393.772 232.86 390.302 233.31 389.789C233.761 389.276 236.339 387.538 239.688 389.981C243.038 392.425 243.745 392.489 243.745 392.489L247.674 393.067C247.674 393.067 249.539 391.655 250.059 393.323V394.863L251.667 396.082L249.153 396.403C249.153 396.403 249.796 395.504 248.188 394.863C246.581 394.221 247.931 391.97 247.931 391.97C247.931 391.97 247.674 390.174 246.324 389.847C244.973 389.521 245.166 388.244 245.166 388.244L245.61 387.964L246.616 388.967L247.335 385.782L248.726 386.406L248.533 388.873L248.966 389.043L250.264 385.742L251.942 388.494C251.942 388.494 252.947 388.279 253.549 388.471C254.151 388.663 263.312 392.034 264.698 392.157C264.698 392.157 268.223 387.899 266.019 385.695C266.019 385.695 263.02 384.931 262.64 384.762C262.26 384.593 261.558 384.021 261.342 383.735C261.126 383.449 257.77 380.58 255.133 379.834L254.584 379.927L254.49 381.222L250.392 381.268L246.365 378.446V378.014L248.861 378.136L249.27 376.871C249.27 376.871 249.311 376.894 249.381 376.935C249.41 376.953 249.439 376.964 249.475 376.988C249.925 377.232 250.989 377.787 251.38 377.787C251.883 377.787 252.941 377.74 253.204 377.617C253.31 377.571 252.795 376.993 252.023 376.323C250.913 375.36 249.276 374.194 248.218 374.124C248.218 374.124 246.996 372.211 245.698 373.237L246.803 374.147C246.803 374.147 247.113 374.456 247.136 374.987C247.16 375.518 249.188 376.9 249.188 376.9L249.404 375.955L251.936 376.323H251.971L252 376.334H252.064" stroke="#1D1D1B" stroke-miterlimit="10"/>
<path d="M243.944 373.431L245.727 375.95C245.727 375.95 243.874 376.504 242.752 375.816C241.629 375.128 242.804 374.34 242.804 374.34L243.944 373.431V373.431Z" stroke="#1D1D1B" stroke-miterlimit="10"/>
<path d="M248.206 374.031C248.206 374.031 248.539 372.235 248.843 371.739C249.147 371.243 249.679 370.905 250.521 370.607L249.685 369.295C249.685 369.295 249.235 368.654 248.867 368.502C248.498 368.35 245.096 366.397 245.096 366.397L243.342 365.498L244.336 365.16L242.22 363.591L240.121 361.993L237.175 359.725L237.408 362.676C237.408 362.676 236.543 362.734 235.263 362.332C233.983 361.929 232.889 361.626 232.889 361.626C232.889 361.626 232.264 360.564 231.258 360.127C230.253 359.69 229.131 358.786 229.131 358.786L227.131 357.771C227.131 357.771 226.342 357.52 225.471 357.771L224.202 357.905L224.009 358.191L225.249 359.398L222.478 359.252L221.344 359.287L219.257 358.914H219.21L219.116 358.891L215.509 358.243L216.269 358.097L215.439 358.488C215.439 358.488 215.919 356.779 217.14 357.806L218.269 358.138L219.14 358.931L220.11 358.517L218.099 358.045L217.146 357.742L217.205 356.377L220.081 358.587L221.776 358.167L217.895 356.855L217.813 356.814L217.766 356.768L217.696 356.779" stroke="#1D1D1B" stroke-miterlimit="10"/>
<path d="M217.146 356.465L217.474 355.38C217.474 355.38 219.987 355.467 221.121 356.465C221.121 356.465 221.788 356.966 222.051 357.386C222.314 357.806 223.998 358.203 223.998 358.203H221.677L221.355 359.334" stroke="#1D1D1B" stroke-miterlimit="10"/>
<path d="M224.179 357.871C224.179 357.871 221.659 354.435 221.373 354.196C221.373 354.196 220.601 352.837 219.233 353.415C219.233 353.415 218.777 353.549 218.479 354.132C218.181 354.715 217.48 355.374 217.48 355.374C217.48 355.374 216.696 354.686 216.375 354.377C216.053 354.068 215.176 353.666 215.176 353.666C215.176 353.666 210.529 351.134 210.213 351.076C209.897 351.018 208.553 350.487 207.103 350.4L207.343 351.56L201.006 347.705C201.006 347.705 200.725 347.682 200.807 347.309C200.889 346.935 201.017 346.953 200.894 346.685C200.772 346.416 200.503 346.288 200.082 346.259C199.661 346.23 199.404 346.055 199.404 346.055C199.404 346.055 197.971 345.477 197.936 345.442C197.901 345.407 197.767 345.436 197.936 344.941C198.106 344.445 198.439 344.153 198.007 343.407C197.574 342.66 197.089 342.363 197.089 342.363C197.089 342.363 196.042 341.441 196.282 340.269L195.797 340.17C195.797 340.17 192.874 338.094 192.757 337.936C192.64 337.779 191.88 337.056 191.88 337.056C191.88 337.056 190.588 335.878 189.793 335.534C188.998 335.189 187.507 334.6 186.268 334.525C185.028 334.449 184.128 333.912 183.766 333.189C183.403 332.466 183.432 331.766 183.432 331.766C183.432 331.766 183.24 330.43 182.047 330.384C182.047 330.384 181.421 330.39 180.878 330.588C180.334 330.786 177.85 331.13 177.85 331.13C177.85 331.13 176.4 331.358 175.915 331.597C175.429 331.836 174.436 332.361 174.003 333.317C173.57 334.274 173.851 334.56 173.851 334.56L171.027 336.379C171.027 336.379 169.712 337.225 169.32 337.668C168.929 338.111 168.677 338.566 168.537 338.852C168.397 339.138 167.952 340.088 166.427 339.75C166.427 339.75 166.918 340.899 166.514 341.29C166.239 341.552 165.439 341.716 164.591 341.803C164.182 341.844 163.767 341.873 163.392 341.885L162.808 343.296C162.808 343.296 163.656 343.856 163.907 344.124C164.158 344.393 164.527 344.556 165.082 343.978C165.637 343.401 165.994 342.806 165.994 342.806L164.521 341.768" stroke="#1D1D1B" stroke-miterlimit="10"/>
<path d="M162.761 343.314L161.27 344.474C161.27 344.474 160.136 345.291 159.897 345.658C159.657 346.026 159.072 346.819 159.014 346.883C158.955 346.947 158.663 347.349 157.938 347.46C157.213 347.571 156.494 347.18 156.494 347.18L156.026 346.527C156.026 346.527 159.324 343.978 159.394 343.973C159.464 343.967 160.855 342.66 161.159 342.421C161.463 342.182 161.872 341.745 163.352 341.815C163.352 341.815 164.059 341.045 164.258 340.503C164.456 339.96 165.216 339.394 166.058 339.517L166.52 339.779" stroke="#1D1D1B" stroke-miterlimit="10"/>
<path d="M166.076 339.475C166.076 339.475 165.941 338.711 166.041 338.385C166.14 338.058 167.987 336.297 167.987 336.297L159.429 331.911C159.429 331.911 153.121 328.208 152.987 328.109C152.852 328.009 149.029 325.758 149.029 325.758C149.029 325.758 143.686 322.871 143.159 322.691C142.633 322.51 137.699 320.229 136.016 320.066C134.332 319.903 131.912 319.15 131.912 319.15L131.567 319.705C131.567 319.705 133.268 321.104 133.777 322.101C133.777 322.101 132.847 322.475 132.21 322.329C131.573 322.183 123.511 317.535 123.511 317.535C123.511 317.535 119.67 314.666 117.268 316.573C117.268 316.573 116.204 314.975 115.794 313.977C115.385 312.98 113.246 313.015 113.246 313.015C113.246 313.015 112.398 311.4 109.487 309.982C106.575 308.565 105.511 308.285 105.418 308.093L104.944 308.338L105.809 311.505L103.798 310.688V311.05L101.314 311.44C101.314 311.44 101.279 311.685 101.46 311.93C101.641 312.175 102.337 312.846 102.658 313.441" stroke="#1D1D1B" stroke-miterlimit="10"/>
<path d="M95.6901 307.428L98.3909 306.046L100.156 309.703L99.5075 310.117L95.6901 307.428Z" stroke="#1D1D1B" stroke-miterlimit="10"/>
<path d="M123.236 322.586L130.778 328.191C130.778 328.191 125.458 329.17 123.236 322.586Z" stroke="#1D1D1B" stroke-miterlimit="10"/>
<path d="M246.902 355.526C246.902 355.526 254.789 358.541 255.256 358.809C255.724 359.077 256.408 359.322 256.408 359.322C256.408 359.322 258.057 361.282 258.396 361.894L258.565 362.116L258.074 362.653L255.443 361.16L254.73 366.601C254.73 366.601 252.374 366.391 251.638 365.207C250.901 364.023 251.953 364.933 250.503 363.953L242.325 357.975C242.325 357.975 241.542 357.853 242.155 356.727C242.769 355.602 243.015 355.38 243.015 355.38C243.015 355.38 245.301 356.651 246.183 356.558L246.896 355.532L246.902 355.526Z" stroke="#1D1D1B" stroke-miterlimit="10"/>
<path d="M261.5 358.67L265.148 358.174C265.148 358.174 264.411 359.474 263.604 359.504C262.798 359.533 261.5 358.67 261.5 358.67Z" stroke="#1D1D1B" stroke-miterlimit="10"/>
<path d="M66.6705 334.816L67.5533 334.344L68.9154 337.201L68.4711 337.528L66.6705 334.816Z" stroke="#1D1D1B" stroke-miterlimit="10"/>
<path d="M97.4205 368.106C97.4205 368.106 97.9291 368.496 98.3442 368.549C98.7592 368.601 98.9814 368.31 98.9814 368.31C98.9814 368.31 99.2327 367.884 99.2678 367.47C99.3029 367.056 99.449 366.881 99.449 366.881L99.8056 366.321L101.928 367.202L100.595 367.995C100.595 367.995 100.928 368.683 100.946 368.782L101.361 369.634C101.361 369.634 101.653 370.246 101.63 370.631C101.606 371.016 101.536 371.436 100.963 372.072C100.39 372.707 99.4783 373.64 99.4783 373.64L102.401 372.2L102.729 372.696L100.525 376.44C100.525 376.44 99.4023 376.661 98.4377 376.387C97.4731 376.113 96.8651 375.658 96.8651 375.658C96.8651 375.658 95.8362 374.789 95.5088 374.072C95.1815 373.355 95.123 373.296 95.0762 373.156C95.0295 373.016 94.363 372.334 94.059 372.247C93.755 372.159 93.4744 371.832 93.4744 371.832C93.4744 371.832 92.1299 373.197 91.9311 374.801C91.7323 376.405 91.6505 377.105 91.7323 377.752C91.8142 378.399 92.0889 379.554 92.9132 380.476L91.3056 381.286C91.3056 381.286 91.1185 383.123 91.0484 383.38C90.9782 383.637 90.5105 384.436 90.113 384.926C89.7155 385.415 88.7217 386.296 88.7217 386.296C88.7217 386.296 87.7863 387.288 86.7574 386.932C86.7574 386.932 86.0793 386.663 85.974 385.964C85.8688 385.264 85.1614 384.751 85.1614 384.751C85.1614 384.751 83.2673 382.4 83.1563 382.039L83.6824 381.584C83.6824 381.584 83.9046 381.397 84.2729 381.63L86.0267 382.674L86.962 381.875C86.962 381.875 86.3248 379.939 86.2371 379.093C86.1494 378.248 86.0267 375.279 86.0267 375.279L85.8571 371.15C85.8571 371.15 85.7987 370.036 85.5882 369.593C85.3778 369.15 84.571 368.438 84.571 368.438L83.1563 367.604C83.1563 367.604 82.1508 367.138 81.9286 365.878C81.9286 365.878 81.8059 365.691 81.9286 364.496C82.0514 363.3 81.8175 362.659 81.8175 362.659C81.8175 362.659 81.6071 361.125 81.6071 360.186C81.6071 359.247 81.0926 357.083 81.0926 357.083C81.0926 357.083 80.3034 354.703 80.1807 354.47C80.0579 354.237 78.8069 351.933 78.6432 351.787C78.4795 351.642 77.4974 350.528 77.4038 350.172C77.3103 349.816 76.334 348.014 76.334 348.014C76.334 348.014 75.6325 347.326 76.1879 346.97C76.7432 346.614 78.2047 346.69 78.2047 346.69L75.9716 340.537C75.9716 340.537 77.4564 338.77 77.626 337.365C77.7955 335.959 78.0001 335.306 78.006 334.519C78.0118 333.731 78.3918 332.46 78.3918 332.46C78.3918 332.46 78.8595 330.424 78.7601 330.069C78.6607 329.713 78.5613 329.223 78.6023 328.926C78.6432 328.628 79.181 326.855 78.7309 326.424C78.2807 325.992 78.0001 325.66 78.0001 325.66C78.0001 325.66 77.737 325.415 77.8189 325.141C77.9007 324.866 78.0001 322.889 78.0001 322.889C78.0001 322.889 80.0345 323.449 80.4496 323.682C80.8646 323.916 83.9923 323.566 84.1092 323.508C84.2261 323.449 85.0855 322.831 85.1147 322.714C85.1439 322.598 85.4596 323.239 85.4596 323.239C85.4596 323.239 85.6057 323.717 84.9568 324.085C84.3079 324.452 84.0039 324.633 84.0039 324.633L86.6697 325.619L86.9269 324.907C86.9269 324.907 87.3654 325.811 87.9149 325.765C88.4644 325.718 88.9964 324.493 88.9964 324.493L90.4813 325.654C90.4813 325.654 89.9961 326.284 89.9668 326.669C89.9376 327.053 90.4813 327.765 90.4813 327.765C90.4813 327.765 91.1945 327.328 91.2705 326.768C91.3465 326.208 91.2062 325.508 91.2062 325.508C91.2062 325.508 91.3173 324.073 91.5453 323.846C91.7733 323.618 91.8668 323.379 93.1938 323.7L94.0357 323.846L92.7437 325.315L93.1295 325.479C93.1295 325.479 94.1175 324.464 94.9067 325.234C94.9067 325.234 95.4387 325.607 95.6199 325.975C95.8011 326.342 96.9937 326.733 96.9937 326.733C96.9937 326.733 97.8005 327.275 98.5429 327.829C99.1158 328.255 99.6478 328.686 99.7413 328.879L96.6196 329.736C96.6196 329.736 97.5082 328.202 97.6368 328.092C97.7654 327.981 98.0928 327.672 98.6248 327.992C99.1567 328.313 99.87 328.984 99.87 328.984C99.87 328.984 98.502 329.917 98.2389 332.431C97.9759 334.944 97.9992 335.778 97.9992 335.778C97.9992 335.778 98.4201 337.93 96.339 338.029L98.5195 339.686C98.5195 339.686 98.958 342.876 99.0983 343.313C99.2386 343.751 100.694 347.88 100.636 349.933C100.577 351.986 100.478 352.884 97.6017 352.242L97.5608 356.984H98.0402L97.2393 357.859L99.9576 363.061L98.502 363.58L99.7998 366.333L97.362 367.47L95.7427 367.009L94.5852 370.38L97.8999 369.721L97.362 368.088V367.377" stroke="#1D1D1B" stroke-miterlimit="10"/>
<path d="M103.173 336.992L104.43 333.119C104.43 333.119 105.687 334.426 105.166 335.493C104.646 336.56 103.173 336.992 103.173 336.992V336.992Z" stroke="#1D1D1B" stroke-miterlimit="10"/>
<path d="M113.818 372.328L115.853 376.69C115.853 376.69 114.117 377.285 113.818 374.509C113.52 371.733 113.818 372.328 113.818 372.328Z" stroke="#1D1D1B" stroke-miterlimit="10"/>
<path d="M102.559 389.119L103.459 389.498C103.459 389.498 102.483 393.464 101.922 393.901C101.361 394.339 101.057 394.38 101.057 394.38L100.525 393.68C100.525 393.68 100.244 393.779 100.665 393.062C101.086 392.344 102.559 389.119 102.559 389.119Z" stroke="#1D1D1B" stroke-miterlimit="10"/>
<path d="M87.605 376.877L89.5342 378.271L89.2243 379.081L87.605 379.175V376.877Z" stroke="#1D1D1B" stroke-miterlimit="10"/>
<path d="M108.352 466.074L108.82 464.569L112.41 462.341C112.41 462.341 116.204 459.798 116.619 459.489C117.034 459.18 123.172 455.809 123.172 455.809L124.885 454.666L125.195 455.133L109.13 466.546L108.352 466.079V466.074Z" stroke="#1D1D1B" stroke-miterlimit="10"/>
<path d="M105.751 467.578L101.279 470.792C101.279 470.792 103.775 470.582 104.868 469.549C105.961 468.517 105.979 467.747 105.95 467.578C105.921 467.409 105.751 467.578 105.751 467.578V467.578Z" stroke="#1D1D1B" stroke-miterlimit="10"/>
<path d="M82.8932 482.281L84.2319 481.779C84.2319 481.779 85.3017 483.762 85.1965 484.934C85.0913 486.107 84.9685 487.565 84.9685 487.565L82.5599 486.019L83.355 482.491L82.8932 482.281Z" stroke="#1D1D1B" stroke-miterlimit="10"/>
<path d="M40.1882 469.327L40.5098 468.756L43.0761 470.097L42.6611 470.832L40.1882 469.327Z" stroke="#1D1D1B" stroke-miterlimit="10"/>
<path d="M27.8707 477.429C27.8707 477.429 28.8353 476.95 29.3439 476.95C29.8525 476.95 31.5595 476.63 32.7463 474.967C33.933 473.305 32.7463 472.121 32.7463 472.121C32.7463 472.121 31.6531 471.865 31.0802 470.039C30.5073 468.214 31.0509 468.056 30.1507 466.359L31.4017 466.517L39.6796 473.848C39.6796 473.848 40.802 475.288 40.4513 477.434C40.1005 479.581 39.8725 480.73 40.1941 481.82C40.5156 482.911 40.7085 482.911 41.0943 483.132C41.4802 483.354 46.7708 485.308 46.7708 485.308C46.7708 485.308 46.5136 483.546 47.7354 483.453C48.9572 483.36 49.08 483.482 49.7581 482.94C50.4362 482.398 51.2956 481.657 52.003 481.692C52.7103 481.727 52.9968 481.499 52.9968 481.499C52.9968 481.499 53.5404 481.692 53.9263 482.526C54.3121 483.36 54.5693 484.287 54.5693 484.287C54.5693 484.287 54.8266 485.086 53.5112 485.856L52.2894 486.976C52.2894 486.976 51.3248 486.882 51.1027 488.095L50.8454 489.379L52.3186 489.956H59.4391C59.4391 489.956 65.1155 489.67 65.8229 489.764C66.5302 489.857 74.2937 489.956 74.2937 489.956H108.978C108.978 489.956 110.515 488.195 108.592 486.562C106.669 484.929 106.634 483.902 106.634 483.902L109.2 485.279L109.808 482.333C109.808 482.333 111.217 482.847 111.86 482.847C112.503 482.847 114.333 483.103 114.333 484.287V485.949L116.484 484.678L117.349 486.235L118.922 483.576L115.584 482.007V481.079C115.584 481.079 117.349 480.858 117.928 480.601C118.507 480.345 121.231 481.307 121.231 481.307C121.231 481.307 125.949 482.619 126.592 482.619C127.235 482.619 133.554 483.517 133.554 483.517L135.127 480.479L136.378 481.12C136.378 481.12 136.507 478.338 137.916 477.469C137.916 477.469 139.231 477.405 139.839 476.735C140.447 476.064 141.026 473.404 141.026 473.404L142.312 474.332L138.494 473.754V473.049C138.494 473.049 140.868 471.608 144.557 472.506C144.557 472.506 144.428 471.515 144.75 470.908C145.071 470.302 145.229 468.22 144.27 467.001C143.311 465.782 144.399 463.706 145.393 463.449C146.386 463.192 147.801 461.431 147.801 461.431C147.801 461.431 148.602 461.145 149.087 461.274C149.572 461.402 152.104 460.09 153.641 462.236L154.378 462.265C154.378 462.265 155.085 462.586 155.307 462.615C155.53 462.644 155.05 464.534 155.05 464.534L154.15 463.927L155.687 464.184C155.687 464.184 156.202 463.898 156.588 463.863C156.974 463.828 157.552 463.577 158.254 464.184C158.955 464.79 160.084 466.009 161.75 464.697L154.565 459.862L155.044 458.871L153.314 458.614C153.314 458.614 150.876 455.896 151.613 452.98C151.613 452.98 149.076 450.869 152.414 448.373L152.957 449.621C152.957 449.621 154.431 446.163 155.202 445.941C155.974 445.719 156.839 446.548 156.839 446.548L158.634 448.886L159.177 446.932C159.177 446.932 160.779 449.172 162.13 446.291C162.13 446.291 164.503 448.595 165.24 449.971C165.976 451.347 167.906 451.505 167.906 451.505L168.741 450C168.741 450 169.092 451.12 169.221 451.342C169.349 451.563 168.613 453.26 167.876 453.937C167.876 453.937 168.934 455.984 168.806 457.331C168.677 458.678 168.034 459.092 168.034 459.092C168.034 459.092 167.619 459.606 168.098 460.148C168.578 460.69 169.385 461.396 169.607 461.489C169.829 461.583 170.858 459.985 170.858 459.985C170.858 459.985 169.221 458.608 171.016 457.296C171.016 457.296 172.074 457.454 172.395 458.352C172.717 459.25 172.974 460.306 172.974 460.306C172.974 460.306 173.167 460.819 172.588 461.233C172.009 461.647 171.208 462.737 171.208 462.737C171.208 462.737 170.823 463.122 171.559 463.636C172.296 464.149 174.319 465.012 174.541 465.461L174.722 465.572L176.715 464.038L177.154 464.44C177.154 464.44 175.26 465.012 176.294 468.255L177.154 465.514H177.481V469.112L181.088 465.811L181.649 466.015L180.17 468.995L182.86 468.051L182.328 469.17L184.9 470.821V470.407L189.869 472.028L185.876 473.264C185.876 473.264 187.384 474.297 188.419 474.652C189.454 475.008 190.43 474.18 190.43 474.18C190.43 474.18 191.202 473.41 191.494 474.209L191.763 474.827C191.763 474.827 197.153 476.962 197.697 477.009C198.24 477.055 201.719 477.953 202.49 478.455C203.262 478.957 207.015 479.761 207.828 479.721C208.64 479.68 209.681 479.767 210.634 480.49C211.587 481.214 213.3 481.348 213.756 479.814L216.468 481.12C216.468 481.12 217.918 481.89 219.993 481.89C222.069 481.89 223.296 482.928 223.296 482.928C223.296 482.928 225.062 483.966 227.681 483.786C230.3 483.605 230.346 484.415 230.346 484.415C230.346 484.415 231.118 485.769 233.375 484.911L234.912 485.856V485.36C234.912 485.36 236.9 485.675 238.034 485.629C239.168 485.582 240.162 484.952 240.659 485.448C241.156 485.943 240.975 486.894 242.015 487.209L241.384 488.79C241.384 488.79 244.505 488.16 249.252 488.97C249.252 488.97 251.649 489.332 252.918 488.97C254.186 488.609 256.537 488.294 256.537 488.294L255.18 489.944L261.015 489.6L260.833 477.691L261.605 477.557C261.605 477.557 261.921 478.187 262.149 478.682C262.377 479.178 262.195 480.986 262.149 481.704C262.102 482.421 262.646 488.883 263.236 489.944L374.006 490.096C374.006 490.096 373.959 490.65 373.591 490.784C373.222 490.918 26.1929 490.784 26.1929 490.784C26.1929 490.784 26 490.271 26 490.038L42.6961 489.903C42.6961 489.903 43.1638 490.02 43.462 489.839C43.7601 489.659 45.5841 487.833 45.7361 487.122C45.888 486.41 43.2106 485.104 43.2106 485.104C43.2106 485.104 38.7793 483.745 37.9667 483.016C37.1541 482.287 35.64 481.179 35.3945 480.782C35.149 480.385 33.3016 479.505 33.1029 479.505C32.9041 479.505 30.9808 478.327 30.63 477.866L27.9876 478.064L27.8707 477.429V477.429Z" stroke="#1D1D1B" stroke-miterlimit="10"/>
<path d="M132.701 489.483L139.465 487.664C139.465 487.664 140.289 487.302 140.979 487.664C141.669 488.025 142.049 488.865 142.049 488.865C142.049 488.865 141.499 489.722 141.172 489.775C140.844 489.827 132.707 489.775 132.707 489.775V489.483H132.701Z" stroke="#1D1D1B" stroke-miterlimit="10"/>
<path d="M170.513 470.267L172.085 472.331C172.085 472.331 171.191 472.763 171.004 472.978C170.817 473.194 169.028 472.395 170.513 470.272V470.267Z" stroke="#1D1D1B" stroke-miterlimit="10"/>
<path d="M163.235 466.208C163.235 466.208 164.316 468.698 165.211 469.316C166.105 469.935 168.262 470.699 168.262 470.699C168.262 470.699 168.788 470.605 169.127 470.115C169.466 469.625 168.788 469.316 168.788 469.316C168.788 469.316 166.257 468.669 166.69 466.791C166.69 466.791 166.812 465.654 163.235 466.208V466.208Z" stroke="#1D1D1B" stroke-miterlimit="10"/>
<path d="M163.515 481.254C163.515 481.254 169.046 478.671 169.934 478.636C170.823 478.601 176.622 476.635 176.622 476.635C176.622 476.635 178.259 475.65 179.399 476.635C180.539 477.621 180.387 478.111 180.387 478.111L175.605 478.478L175.418 478.91L186.367 480.881C186.367 480.881 186.303 482.234 187.291 482.205C187.291 482.205 188.77 481.464 188.957 482.053C188.957 482.053 188.185 483.039 188.185 483.622C188.185 484.205 189.267 484.701 189.267 484.701C189.267 484.701 190.746 485.01 190.991 485.226C191.237 485.442 192.348 486.054 192.348 486.054V486.672H190.652C190.652 486.672 187.291 486.212 185.812 485.716C184.333 485.22 183.403 483.96 183.403 483.96L178.346 484.112C178.346 484.112 177.236 484.45 177.084 484.73C176.932 485.01 176.16 485.809 175.511 484.759L175.418 483.867C175.418 483.867 175.482 484.975 174.336 484.911C173.19 484.847 173.997 484.386 172.483 484.544L173.313 486.235C173.313 486.235 169.209 485.745 168.005 485.191C166.801 484.637 163.504 481.254 163.504 481.254H163.515Z" stroke="#1D1D1B" stroke-miterlimit="10"/>
</g>
<defs>
<clipPath id="clip0_150_96">
<rect width="348" height="491" fill="white" transform="translate(26)"/>
</clipPath>
</defs>
</svg>
