<svg width="472" height="386" viewBox="0 0 472 386" fill="none" xmlns="http://www.w3.org/2000/svg">
<path d="M143.488 30.4929C145.102 28.5115 146.923 26.7229 148.921 25.1576C168.117 10.3671 171.127 -1.11805 234.392 14.1738C234.392 14.1738 277.379 26.7396 321.431 7.62644C336.326 0.978218 352.958 -0.960125 369.3 2.04759C381.236 4.35867 392.695 9.13881 402.982 16.097C405.726 17.949 411.941 21.2953 414.488 23.2864C432.017 37.3268 488.806 72.3884 465.877 179.631L465.554 181.193C464.663 185.954 456.624 219.262 406.641 216.589C361.218 214.187 340.354 260.377 334.933 274.773C333.215 279.22 332.105 283.916 331.635 288.729C329.525 304.947 324.12 320.378 315.768 334.021C307.417 347.664 296.307 359.214 283.158 367.922C270.01 376.631 255.116 382.303 239.444 384.571C223.772 386.839 207.672 385.652 192.187 381.088L191.331 380.834C162.966 372.467 146.509 366.616 128.203 372.829C109.898 379.042 71.185 385.162 25.4917 303.993C-20.2015 222.824 10.8651 128.115 10.8651 128.115C10.8651 128.115 26.0311 85.3975 67.2923 74.2934C75.224 72.2379 82.9737 69.5756 90.4787 66.328C106.116 59.3626 129.627 46.9714 143.488 30.4929Z" fill="#C555D8"/>
</svg>
