<svg width="468" height="391" viewBox="0 0 468 391" fill="none" xmlns="http://www.w3.org/2000/svg">
<path d="M136.131 351.476C137.657 353.524 139.399 355.389 141.327 357.04C159.857 372.652 162.37 384.237 226.194 371.85C226.194 371.85 269.655 361.264 312.817 382.307C327.403 389.608 343.927 392.291 360.373 390.031C372.39 388.266 384.037 384.018 394.607 377.546C397.426 375.823 403.776 372.768 406.404 370.898C424.509 357.693 482.716 325.304 464.43 217.357L464.175 215.785C463.49 210.999 456.894 177.431 406.873 177.839C361.417 178.181 342.57 131.192 337.776 116.596C336.251 112.085 335.345 107.354 335.082 102.534C333.673 86.271 328.938 70.6438 321.186 56.666C313.434 42.6881 302.837 30.6718 290.083 21.3964C277.328 12.121 262.702 5.79373 247.151 2.82498C231.601 -0.143779 215.474 0.312267 199.817 4.16359L198.952 4.37763C170.271 11.4377 153.588 16.5281 135.577 9.50732C117.567 2.48651 79.1769 -5.36196 30.067 73.4927C-19.0428 152.347 7.90705 248.166 7.90705 248.166C7.90705 248.166 21.2144 291.437 61.935 304.37C69.7662 306.777 77.3895 309.781 84.7434 313.358C100.057 321.008 122.999 334.422 136.131 351.476Z" fill="#3F9247"/>
</svg>
