<svg width="469" height="391" viewBox="0 0 469 391" fill="none" xmlns="http://www.w3.org/2000/svg">
<path d="M332.695 351.476C331.169 353.524 329.427 355.389 327.499 357.04C308.969 372.652 306.456 384.237 242.632 371.85C242.632 371.85 199.171 361.264 156.009 382.307C141.423 389.608 124.899 392.291 108.453 390.031C96.4365 388.266 84.7891 384.018 74.2194 377.546C71.4003 375.823 65.0504 372.768 62.4225 370.898C44.317 357.693 -13.8903 325.304 4.39598 217.357L4.65096 215.785C5.33628 210.999 11.9322 177.431 61.9528 177.839C107.409 178.181 126.256 131.192 131.05 116.596C132.575 112.085 133.481 107.354 133.744 102.534C135.154 86.271 139.888 70.6438 147.64 56.666C155.392 42.6881 165.989 30.6718 178.744 21.3964C191.498 12.121 206.124 5.79373 221.675 2.82498C237.225 -0.143779 253.352 0.312267 269.009 4.16359L269.874 4.37763C298.555 11.4377 315.238 16.5281 333.249 9.50732C351.259 2.48651 389.649 -5.36196 438.759 73.4927C487.869 152.347 460.919 248.166 460.919 248.166C460.919 248.166 447.612 291.437 406.891 304.37C399.06 306.777 391.437 309.781 384.083 313.358C368.769 321.008 345.827 334.422 332.695 351.476Z" fill="#2A50D7" fill-opacity="0.8"/>
</svg>
