<svg width="658" height="1052" viewBox="0 0 658 1052" fill="none" xmlns="http://www.w3.org/2000/svg">
<path d="M0 3.8747V1051.98H294.842C294.842 1051.98 296.782 1019.05 331.697 1017.11C366.612 1015.17 366.612 1050.04 366.612 1050.04H657.575V1.93735H364.673C364.673 1.93735 360.793 34.8723 331.697 34.8723C302.601 34.8723 296.782 15.4988 296.782 0L0 3.8747Z" fill="#FF5527"/>
<path d="M172.056 331.536H193.84C198.146 331.536 201.618 332.757 204.275 335.198C206.933 337.639 208.252 341.068 208.252 345.485C208.252 349.282 207.069 352.595 204.702 355.404C202.336 358.213 198.728 359.628 193.859 359.628H178.651V380.183H172.056V331.555V331.536ZM197.641 338.22C196.187 337.542 194.208 337.193 191.686 337.193H178.651V354.048H191.686C194.635 354.048 197.021 353.428 198.844 352.169C200.687 350.91 201.599 348.701 201.599 345.504C201.599 341.92 200.279 339.499 197.641 338.22Z" fill="black"/>
<path d="M229.24 331.536H236.689L254.36 380.164H247.125L242.178 365.595H222.916L217.64 380.164H210.871L229.201 331.536H229.24ZM240.083 360.248L232.693 338.762L224.837 360.248H240.083Z" fill="black"/>
<path d="M264.563 331.536H286.695C290.342 331.536 293.349 332.079 295.715 333.163C300.215 335.236 302.446 339.072 302.446 344.652C302.446 347.558 301.845 349.941 300.642 351.801C299.44 353.661 297.752 355.152 295.579 356.276C297.48 357.051 298.916 358.058 299.866 359.318C300.817 360.577 301.36 362.611 301.476 365.44L301.709 371.969C301.767 373.828 301.922 375.204 302.175 376.114C302.582 377.664 303.28 378.652 304.289 379.098V380.183H296.2C295.987 379.757 295.793 379.214 295.676 378.556C295.56 377.897 295.444 376.618 295.347 374.72L294.939 366.602C294.784 363.425 293.64 361.294 291.487 360.209C290.265 359.608 288.344 359.318 285.726 359.318H271.139V380.183H264.543V331.555L264.563 331.536ZM285.978 353.816C288.984 353.816 291.37 353.196 293.116 351.956C294.862 350.716 295.735 348.488 295.735 345.272C295.735 341.804 294.513 339.44 292.068 338.181C290.749 337.523 289.004 337.193 286.812 337.193H271.139V353.816H285.958H285.978Z" fill="black"/>
<path d="M350.397 331.536V337.329H333.986V380.164H327.314V337.329H310.903V331.536H350.377H350.397Z" fill="black"/>
<path d="M398.793 338.492C402.013 342.793 403.623 348.295 403.623 355.018C403.623 362.283 401.781 368.308 398.095 373.132C393.769 378.789 387.582 381.618 379.57 381.618C372.083 381.618 366.186 379.138 361.899 374.198C358.078 369.432 356.158 363.407 356.158 356.122C356.158 349.535 357.787 343.917 361.065 339.228C365.275 333.223 371.482 330.22 379.706 330.22C387.931 330.22 394.662 332.971 398.793 338.492V338.492ZM392.974 369.49C395.573 365.325 396.873 360.539 396.873 355.134C396.873 349.419 395.379 344.808 392.392 341.321C389.405 337.834 385.293 336.09 380.114 336.09C374.934 336.09 370.958 337.814 367.777 341.282C364.596 344.73 363.005 349.845 363.005 356.568C363.005 361.954 364.363 366.506 367.098 370.207C369.833 373.907 374.256 375.747 380.385 375.747C386.515 375.747 390.394 373.674 392.994 369.509L392.974 369.49Z" fill="black"/>
<path d="M421.993 331.536V361.604C421.993 365.13 422.652 368.074 423.991 370.419C425.969 373.945 429.325 375.708 434.019 375.708C439.664 375.708 443.485 373.79 445.503 369.973C446.589 367.9 447.132 365.11 447.132 361.604V331.536H453.785V358.853C453.785 364.839 452.971 369.431 451.361 372.666C448.393 378.536 442.787 381.481 434.524 381.481C426.26 381.481 420.674 378.536 417.725 372.666C416.115 369.45 415.301 364.839 415.301 358.853V331.536H421.954H421.993Z" fill="black"/>
<path d="M502.705 331.536V337.329H486.295V380.164H479.622V337.329H463.212V331.536H502.686H502.705Z" fill="black"/>
<path d="M216.438 418.815V416.103H225.942V419.842H225.263L216.438 418.834V418.815ZM225.942 457.814V461.553H216.438V458.84L225.263 457.833H225.942V457.814ZM222.877 437.123C222.877 430.148 222.877 423.077 222.664 416.103H229.182C228.968 422.961 228.968 430.013 228.968 437.123V439.506C228.968 447.507 228.968 454.559 229.182 461.553H222.664C222.877 454.695 222.877 447.643 222.877 440.533V437.142V437.123ZM225.942 436.522H232.673C241.014 436.522 244.622 433.887 244.622 427.63C244.622 421.372 241.014 419.222 234.031 419.222H225.942V416.103H235.99C245.282 416.103 250.732 420.713 250.732 427.223C250.732 432.512 247.066 437.2 238.046 438.285V437.685C248.637 438.576 252.982 443.322 252.982 449.154C252.982 455.334 247.881 461.572 235.059 461.572H225.962V458.453H233.43C242.256 458.453 246.542 455.14 246.542 449.154C246.542 442.838 242.411 439.661 232.887 439.661H225.962V436.542L225.942 436.522Z" fill="black"/>
<path d="M260.76 418.815V416.103H279.77V418.815L270.944 419.822H269.586L260.76 418.815ZM270.944 457.814L279.77 458.821V461.533H260.76V458.821L269.586 457.814H270.944ZM267.22 437.123C267.22 430.148 267.22 423.077 267.026 416.103H273.543C273.349 422.961 273.349 430.013 273.349 437.123V440.513C273.349 447.507 273.349 454.559 273.543 461.533H267.026C267.22 454.675 267.22 447.623 267.22 440.513V437.123Z" fill="black"/>
<path d="M289.275 418.815V416.103H308.285V418.815L299.459 419.822H298.101L289.275 418.815ZM298.78 457.814V461.553H289.275V458.84L298.101 457.833H298.78V457.814ZM295.521 416.103H302.039C301.845 423.096 301.845 430.148 301.845 437.123V441.869C301.845 447.643 301.845 454.694 302.039 461.533H295.521C295.735 454.54 295.735 447.488 295.735 440.513V437.123C295.735 429.993 295.735 422.941 295.521 416.103ZM323.706 448.786L323.027 461.533H298.78V458.143H320.641L316.917 461.533L319.632 448.786H323.706V448.786Z" fill="black"/>
<path d="M331.852 418.815V416.103H350.862V418.815L342.036 419.822H340.678L331.852 418.815ZM341.357 457.814V461.553H331.852V458.84L340.678 457.833H341.357V457.814ZM338.098 416.103H344.616C344.422 423.096 344.422 430.148 344.422 437.123V441.869C344.422 447.643 344.422 454.694 344.616 461.533H338.098C338.311 454.54 338.311 447.488 338.311 440.513V437.123C338.311 429.993 338.311 422.941 338.098 416.103ZM366.283 448.786L365.604 461.533H341.357V458.143H363.218L359.493 461.533L362.209 448.786H366.283V448.786Z" fill="black"/>
<path d="M374.411 418.815V416.103H383.916V419.842H383.237L374.411 418.834V418.815ZM383.916 457.814V461.553H374.411V458.84L383.237 457.833H383.916V457.814ZM380.851 437.123C380.851 430.148 380.851 423.077 380.657 416.103H387.175C386.981 422.961 386.981 430.013 386.981 437.123V439.699C386.981 447.507 386.981 454.559 387.175 461.533H380.657C380.851 454.675 380.851 447.623 380.851 440.513V437.123V437.123ZM402.712 416.103L405.777 419.493H383.916V416.103H408.163L408.648 428.172H404.846L402.751 416.103H402.712ZM399.24 439.913H383.896V436.793H399.24V439.913ZM409.967 449.483L409.482 461.553H383.877V458.162H407.096L404.05 461.553L406.145 449.483H409.947H409.967ZM397.067 437.471L398.095 430.284H401.141V446.364H398.095L397.067 438.828V437.471V437.471Z" fill="black"/>
<path d="M420.034 419.493L423.098 416.103L420.926 428.172H417.124L417.667 416.103H454.736L455.279 428.172H451.477L449.304 416.103L452.369 419.493H420.053H420.034ZM436.871 457.814L446.375 458.821V461.533H426.008V458.821L435.513 457.814H436.871ZM433.127 437.123C433.127 430.148 433.127 423.077 432.914 416.103H439.431C439.218 422.961 439.218 430.013 439.218 437.123V440.513C439.218 447.507 439.218 454.559 439.431 461.533H432.914C433.127 454.675 433.127 447.623 433.127 440.513V437.123Z" fill="black"/>
<path d="M123.193 741.307H137.101C141.815 741.307 145.481 743.011 148.08 746.382C150.408 749.443 151.552 753.357 151.552 758.142C151.552 761.823 150.874 765.175 149.496 768.139C147.072 773.408 142.921 776.043 137.043 776.043H123.193V741.307ZM136.17 772.033C137.722 772.033 139.002 771.859 140.011 771.529C141.796 770.909 143.27 769.727 144.414 767.984C145.326 766.589 145.985 764.787 146.373 762.598C146.606 761.281 146.722 760.079 146.722 758.956C146.722 754.655 145.888 751.303 144.22 748.92C142.552 746.537 139.856 745.356 136.131 745.356H127.965V772.033H136.19H136.17Z" fill="black"/>
<path d="M160.436 741.307H165.033V758.317L182.433 741.307H189.028L174.169 755.333L189.338 776.063H183.17L170.717 758.607L165.053 763.954V776.063H160.455V741.326L160.436 741.307Z" fill="black"/>
<path d="M195.196 741.307H199.793V758.317L217.193 741.307H223.788L208.93 755.333L224.099 776.063H217.93L205.477 758.607L199.813 763.954V776.063H195.216V741.326L195.196 741.307Z" fill="black"/>
<path d="M245.494 768.429C246.542 766.279 248.598 764.302 251.643 762.539L256.182 759.924C258.219 758.742 259.655 757.735 260.469 756.902C261.769 755.584 262.409 754.093 262.409 752.407C262.409 750.431 261.827 748.862 260.624 747.699C259.422 746.537 257.87 745.956 255.891 745.956C252.962 745.956 250.945 747.06 249.839 749.269C249.238 750.45 248.908 752.097 248.85 754.209H244.525C244.583 751.264 245.126 748.862 246.154 747.002C247.997 743.728 251.255 742.081 255.93 742.081C259.81 742.081 262.642 743.127 264.446 745.22C266.23 747.312 267.142 749.656 267.142 752.213C267.142 754.926 266.192 757.25 264.271 759.168C263.166 760.292 261.187 761.648 258.336 763.237L255.096 765.039C253.544 765.891 252.342 766.705 251.449 767.48C249.878 768.855 248.87 770.366 248.462 772.052H266.967V776.081H243.69C243.846 773.156 244.447 770.618 245.494 768.468V768.429Z" fill="black"/>
<path d="M278.004 767.83C278.14 770.174 279.033 771.801 280.72 772.693C281.593 773.158 282.563 773.409 283.649 773.409C285.686 773.409 287.432 772.557 288.867 770.871C290.302 769.167 291.331 765.738 291.912 760.545C290.962 762.037 289.798 763.103 288.401 763.703C287.005 764.304 285.492 764.614 283.882 764.614C280.623 764.614 278.024 763.606 276.123 761.572C274.222 759.538 273.271 756.923 273.271 753.726C273.271 750.529 274.203 747.953 276.084 745.628C277.966 743.303 280.739 742.141 284.406 742.141C289.352 742.141 292.747 744.369 294.628 748.805C295.676 751.246 296.199 754.307 296.199 757.969C296.199 762.115 295.579 765.776 294.337 768.973C292.262 774.301 288.77 776.955 283.824 776.955C280.507 776.955 277.985 776.083 276.278 774.359C274.571 772.634 273.698 770.445 273.698 767.83H278.004V767.83ZM289.1 759.209C290.496 758.104 291.195 756.167 291.195 753.397C291.195 750.917 290.574 749.057 289.313 747.836C288.052 746.616 286.462 746.015 284.522 746.015C282.446 746.015 280.778 746.713 279.556 748.108C278.334 749.503 277.713 751.362 277.713 753.687C277.713 755.896 278.257 757.639 279.323 758.937C280.39 760.235 282.117 760.894 284.464 760.894C286.151 760.894 287.703 760.332 289.1 759.228V759.209Z" fill="black"/>
<path d="M306.946 767.403C307.237 769.824 308.362 771.51 310.341 772.44C311.349 772.905 312.513 773.157 313.851 773.157C316.373 773.157 318.255 772.343 319.457 770.735C320.66 769.127 321.281 767.345 321.281 765.388C321.281 763.024 320.563 761.203 319.108 759.905C317.673 758.607 315.927 757.968 313.91 757.968C312.435 757.968 311.175 758.258 310.127 758.82C309.08 759.382 308.187 760.176 307.431 761.184L303.745 760.971L306.325 742.74H323.938V746.847H309.526L308.071 756.263C308.866 755.662 309.603 755.217 310.321 754.907C311.582 754.384 313.037 754.132 314.705 754.132C317.809 754.132 320.447 755.139 322.619 757.135C324.772 759.13 325.859 761.668 325.859 764.748C325.859 767.829 324.869 770.774 322.891 773.215C320.912 775.656 317.75 776.876 313.405 776.876C310.651 776.876 308.207 776.101 306.073 774.551C303.959 773.002 302.756 770.619 302.504 767.403H306.927H306.946Z" fill="black"/>
<path d="M347.662 761.416V758.704H370.551V761.416H347.662ZM357.651 748.049H360.561V772.304H357.651V748.049Z" fill="black"/>
<path d="M417.434 773.913C414.097 775.657 410.8 776.761 406.765 776.761C397.066 776.761 390.471 769.554 390.471 759.809C390.471 750.064 397.105 742.857 406.959 742.857C410.974 742.857 413.981 743.574 416.697 745.182L416.891 752.195H413.942L412.739 745.027L415.746 745.996V748.747C413.127 746.325 410.47 745.26 407.366 745.26C400.577 745.26 395.592 750.529 395.592 759.79C395.592 769.05 400.151 774.262 407.716 774.262C410.47 774.262 412.507 773.642 415.281 772.286L413.108 774.552V771.743C413.108 768.062 413.069 764.285 412.953 760.604H417.608C417.511 764.226 417.453 767.965 417.453 771.743V773.874L417.434 773.913ZM407.89 762.58V760.642H420.498V762.58L415.164 763.064H414.194L407.89 762.58Z" fill="black"/>
<path d="M425.349 745.53V743.593H432.138V746.266H431.653L425.349 745.53ZM432.138 773.37V776.024H425.349V774.087L431.653 773.37H432.138ZM429.965 758.607C429.965 753.628 429.965 748.591 429.829 743.593H434.485C434.349 748.475 434.349 753.512 434.349 758.607V760.448C434.349 766.008 434.349 771.045 434.485 776.043H429.829C429.965 771.161 429.965 766.124 429.965 761.029V758.607ZM445.58 743.593L447.753 746.014H432.138V743.593H449.44L449.77 752.214H447.054L445.561 743.593H445.58ZM443.097 760.583H432.138V758.355H443.097V760.583ZM450.759 767.403L450.41 776.024H432.138V773.602H448.723L446.55 776.024L448.044 767.403H450.759V767.403ZM441.546 758.84L442.283 753.706H444.455V765.175H442.283L441.546 759.808V758.84V758.84Z" fill="black"/>
<path d="M457.062 745.53V743.593H463.852V746.266H463.367L457.062 745.53ZM463.852 773.37V776.024H457.062V774.087L463.367 773.37H463.852ZM461.679 758.607C461.679 753.628 461.679 748.591 461.543 743.593H466.199C466.063 748.475 466.063 753.512 466.063 758.607V760.312C466.063 766.027 466.063 771.064 466.199 776.043H461.543C461.679 771.161 461.679 766.124 461.679 761.029V758.607ZM463.852 758.181H468.643C474.598 758.181 477.178 756.302 477.178 751.846C477.178 747.39 474.617 745.84 469.613 745.84H463.852V743.612H471.029C477.663 743.612 481.542 746.906 481.542 751.555C481.542 755.333 478.924 758.665 472.484 759.44V758.995C480.049 759.615 483.152 763.005 483.152 767.17C483.152 771.568 479.505 776.024 470.35 776.024H463.852V773.796H469.186C475.49 773.796 478.536 771.432 478.536 767.17C478.536 762.676 475.587 760.39 468.798 760.39H463.852V758.162V758.181Z" fill="black"/>
<path d="M486.062 745.53V743.593H499.64V745.53L493.336 746.266H492.366L486.062 745.53V745.53ZM499.388 765.136L488.778 743.593H493.821L502.647 762.676H500.94L509.999 743.593H512.462L502.046 765.136H499.369H499.388ZM501.231 773.37L508.02 774.087V776.024H493.472V774.087L500.261 773.37H501.231ZM498.554 761.513H502.918C502.918 767.035 502.918 771.723 503.074 776.043H498.418C498.573 771.839 498.573 767.093 498.573 761.513H498.554ZM509.746 746.266L504.373 745.53V743.593H515.527V745.53L510.677 746.266H509.746Z" fill="black"/>
<path d="M520.629 745.53V743.593H527.418V746.266H526.933L520.629 745.53ZM527.903 773.37L534.207 774.087V776.024H520.629V774.087L526.933 773.37H527.903ZM525.226 758.607C525.226 753.628 525.226 748.591 525.071 743.593H529.726C529.591 748.63 529.591 753.376 529.591 759.092V760.545C529.591 766.008 529.591 771.045 529.726 776.043H525.071C525.226 771.161 525.226 766.124 525.226 761.029V758.607ZM527.399 758.84H533.451C538.688 758.84 541.21 756.031 541.21 752.117C541.21 748.204 539.037 745.821 533.994 745.821H527.399V743.593H534.033C541.442 743.593 545.807 746.731 545.807 752.117C545.807 756.224 542.567 759.963 536.205 760.486L536.36 760.099C539.852 760.448 541.986 762.036 543.285 766.395L545.652 774.435L544.139 773.505L549.124 774.087V776.024C548.251 776.315 547.087 776.508 545.632 776.508C542.626 776.508 541.326 775.733 540.744 773.505L538.746 765.62C537.776 761.707 535.992 761.029 531.957 761.029H527.36V758.859L527.399 758.84Z" fill="black"/>
<path d="M257.269 104.791H260.256L267.317 124.242H264.426L262.448 118.411H254.747L252.633 124.242H249.937L257.269 104.791V104.791ZM261.594 116.279L258.646 107.678L255.504 116.279H261.594V116.279Z" fill="black"/>
<path d="M271.08 104.791H273.718V121.937H283.494V124.261H271.08V104.81V104.791Z" fill="black"/>
<path d="M287.548 104.791H290.186V121.937H299.963V124.261H287.548V104.81V104.791Z" fill="black"/>
<path d="M304.269 104.791H318.409V107.174H306.848V113.083H317.536V115.33H306.848V121.917H318.603V124.242H304.269V104.791V104.791Z" fill="black"/>
<path d="M332.492 104.791H340.271C342.909 104.791 344.965 105.74 346.42 107.639C347.719 109.344 348.359 111.552 348.359 114.226C348.359 116.299 347.971 118.159 347.215 119.825C345.857 122.77 343.549 124.242 340.251 124.242H332.492V104.791V104.791ZM339.766 121.995C340.639 121.995 341.357 121.898 341.919 121.723C342.928 121.375 343.743 120.716 344.383 119.728C344.887 118.934 345.256 117.926 345.488 116.706C345.624 115.97 345.682 115.291 345.682 114.671C345.682 112.269 345.217 110.39 344.286 109.053C343.355 107.716 341.842 107.058 339.747 107.058H335.169V121.995H339.766Z" fill="black"/>
<path d="M359.008 104.791H361.995L369.056 124.242H366.166L364.187 118.411H356.486L354.372 124.242H351.676L359.008 104.791V104.791ZM363.353 116.279L360.385 107.678L357.243 116.279H363.334H363.353Z" fill="black"/>
<path d="M385.797 105.353C387.698 106.36 388.862 108.143 389.308 110.681H386.689C386.379 109.266 385.739 108.22 384.749 107.581C383.78 106.941 382.538 106.612 381.045 106.612C379.279 106.612 377.786 107.29 376.583 108.646C375.38 110.002 374.779 112.017 374.779 114.691C374.779 116.996 375.283 118.895 376.273 120.348C377.262 121.801 378.891 122.518 381.141 122.518C382.868 122.518 384.284 122.014 385.428 120.987C386.573 119.96 387.135 118.314 387.155 116.047H381.064V113.858H389.618V124.261H387.911L387.271 121.762C386.398 122.75 385.622 123.428 384.943 123.796C383.799 124.455 382.364 124.784 380.598 124.784C378.329 124.784 376.37 124.029 374.74 122.537C372.956 120.658 372.063 118.101 372.063 114.826C372.063 111.552 372.936 108.976 374.682 107.058C376.331 105.217 378.484 104.307 381.103 104.307C382.907 104.307 384.458 104.655 385.777 105.372L385.797 105.353Z" fill="black"/>
<path d="M395.553 104.791H409.694V107.174H398.133V113.083H408.821V115.33H398.133V121.917H409.888V124.242H395.553V104.791V104.791Z" fill="black"/>
<path d="M126.744 543.602V546.256H119.237V565.842H116.191V546.256H108.685V543.602H126.724H126.744Z" fill="black"/>
<path d="M128.024 543.602H130.798V546.682H128.024V543.602ZM128.024 549.704H130.798V565.842H128.024V549.704Z" fill="black"/>
<path d="M134.988 543.602H137.723V565.842H134.988V543.602Z" fill="black"/>
<path d="M159.351 550.129C159.836 550.439 160.38 550.962 161 551.717V543.522H163.619V565.841H161.155V563.593C160.515 564.601 159.778 565.318 158.905 565.763C158.032 566.209 157.043 566.422 155.938 566.422C154.134 566.422 152.582 565.666 151.263 564.136C149.944 562.625 149.284 560.591 149.284 558.072C149.284 555.708 149.886 553.674 151.088 551.931C152.291 550.206 154.017 549.335 156.248 549.335C157.489 549.335 158.517 549.606 159.351 550.129V550.129ZM153.261 562.276C153.998 563.438 155.162 564.039 156.791 564.039C158.052 564.039 159.08 563.497 159.895 562.412C160.709 561.327 161.117 559.777 161.117 557.743C161.117 555.708 160.709 554.178 159.856 553.19C159.022 552.202 157.994 551.717 156.772 551.717C155.394 551.717 154.289 552.241 153.455 553.287C152.601 554.333 152.174 555.883 152.174 557.917C152.174 559.661 152.543 561.114 153.28 562.276H153.261Z" fill="black"/>
<path d="M167.692 543.602H170.466V546.682H167.692V543.602ZM167.692 549.704H170.466V565.842H167.692V549.704Z" fill="black"/>
<path d="M183.617 550.284C184.121 550.632 184.645 551.155 185.188 551.833V549.799H187.71V564.542C187.71 566.596 187.399 568.223 186.798 569.425C185.673 571.633 183.539 572.718 180.416 572.718C178.67 572.718 177.216 572.331 176.013 571.536C174.83 570.761 174.151 569.521 174.015 567.875H176.789C176.925 568.611 177.177 569.153 177.565 569.56C178.186 570.161 179.136 570.471 180.455 570.471C182.531 570.471 183.888 569.735 184.548 568.262C184.936 567.39 185.11 565.841 185.072 563.613C184.529 564.446 183.869 565.066 183.113 565.453C182.356 565.86 181.328 566.054 180.086 566.054C178.341 566.054 176.808 565.434 175.489 564.194C174.17 562.954 173.511 560.881 173.511 558.014C173.511 555.301 174.17 553.19 175.489 551.659C176.808 550.129 178.418 549.373 180.28 549.373C181.541 549.373 182.647 549.683 183.597 550.303L183.617 550.284ZM183.947 553.209C183.132 552.24 182.065 551.756 180.804 551.756C178.903 551.756 177.584 552.647 176.886 554.449C176.517 555.418 176.323 556.658 176.323 558.227C176.323 560.048 176.692 561.443 177.429 562.392C178.166 563.341 179.155 563.826 180.416 563.826C182.356 563.826 183.733 562.934 184.529 561.172C184.975 560.164 185.188 559.002 185.188 557.684C185.188 555.669 184.781 554.197 183.947 553.228V553.209Z" fill="black"/>
<path d="M209.396 550.129C209.881 550.439 210.424 550.962 211.045 551.717V543.522H213.664V565.841H211.2V563.593C210.56 564.601 209.823 565.318 208.95 565.763C208.077 566.209 207.088 566.422 205.982 566.422C204.178 566.422 202.627 565.666 201.308 564.136C199.989 562.625 199.329 560.591 199.329 558.072C199.329 555.708 199.93 553.674 201.133 551.931C202.336 550.206 204.062 549.335 206.293 549.335C207.534 549.335 208.562 549.606 209.396 550.129V550.129ZM203.306 562.276C204.043 563.438 205.207 564.039 206.836 564.039C208.097 564.039 209.125 563.497 209.94 562.412C210.754 561.327 211.162 559.777 211.162 557.743C211.162 555.708 210.754 554.178 209.901 553.19C209.067 552.202 208.039 551.717 206.817 551.717C205.439 551.717 204.334 552.241 203.5 553.287C202.646 554.333 202.219 555.883 202.219 557.917C202.219 559.661 202.588 561.114 203.325 562.276H203.306Z" fill="black"/>
<path d="M227.766 550.072C228.833 550.615 229.667 551.312 230.229 552.165C230.772 552.978 231.141 553.928 231.316 555.032C231.471 555.788 231.548 556.969 231.548 558.597H219.735C219.793 560.243 220.162 561.561 220.899 562.568C221.617 563.556 222.742 564.06 224.255 564.06C225.671 564.06 226.796 563.595 227.63 562.646C228.096 562.103 228.445 561.464 228.639 560.747H231.316C231.238 561.348 231.005 562.007 230.617 562.743C230.21 563.479 229.764 564.079 229.279 564.544C228.464 565.358 227.436 565.901 226.233 566.172C225.574 566.327 224.837 566.404 224.022 566.404C222.005 566.404 220.317 565.668 218.921 564.196C217.524 562.723 216.826 560.67 216.826 558.035C216.826 555.4 217.524 553.327 218.94 551.7C220.337 550.072 222.179 549.259 224.449 549.259C225.593 549.259 226.699 549.53 227.785 550.072H227.766ZM228.736 556.446C228.619 555.265 228.367 554.315 227.96 553.618C227.223 552.3 225.981 551.642 224.255 551.642C223.013 551.642 221.966 552.087 221.132 552.998C220.298 553.908 219.852 555.051 219.793 556.446H228.736Z" fill="black"/>
<path d="M235.078 549.627H237.677V552.436C237.891 551.894 238.414 551.235 239.229 550.441C240.063 549.666 241.014 549.259 242.1 549.259C242.158 549.259 242.236 549.259 242.352 549.259C242.469 549.259 242.682 549.298 242.973 549.317V552.184C242.818 552.145 242.663 552.126 242.527 552.126C242.391 552.126 242.236 552.126 242.081 552.126C240.703 552.126 239.656 552.572 238.919 553.443C238.182 554.335 237.813 555.342 237.813 556.485V565.804H235.078V549.588V549.627Z" fill="black"/>
<path d="M255.291 549.626L259.617 562.819L264.136 549.626H267.124L261.013 565.842H258.104L252.11 549.626H255.272H255.291Z" fill="black"/>
<path d="M269.471 543.602H272.245V546.682H269.471V543.602ZM269.471 549.704H272.245V565.842H269.471V549.704Z" fill="black"/>
<path d="M276.454 543.602H279.189V565.842H276.454V543.602Z" fill="black"/>
<path d="M303.649 551.253C305.084 552.648 305.802 554.683 305.802 557.395C305.802 560.107 305.162 562.161 303.901 563.866C302.64 565.57 300.681 566.423 298.023 566.423C295.812 566.423 294.047 565.667 292.747 564.156C291.448 562.645 290.788 560.63 290.788 558.092C290.788 555.361 291.467 553.21 292.844 551.583C294.221 549.975 296.064 549.161 298.392 549.161C300.467 549.161 302.233 549.859 303.649 551.253V551.253ZM301.961 562.025C302.621 560.65 302.95 559.138 302.95 557.472C302.95 555.961 302.718 554.741 302.233 553.791C301.476 552.3 300.157 551.563 298.314 551.563C296.666 551.563 295.463 552.203 294.726 553.462C293.969 554.741 293.601 556.271 293.601 558.054C293.601 559.836 293.969 561.211 294.726 562.354C295.482 563.497 296.666 564.079 298.295 564.079C300.079 564.079 301.302 563.401 301.98 562.025H301.961Z" fill="black"/>
<path d="M308.925 549.702H311.602V551.853C312.145 551.117 312.746 550.555 313.386 550.148C314.317 549.547 315.384 549.237 316.645 549.237C318.488 549.237 320.059 549.935 321.339 551.349C322.619 552.763 323.279 554.759 323.279 557.374C323.279 560.9 322.348 563.419 320.486 564.949C319.302 565.898 317.945 566.383 316.373 566.383C315.151 566.383 314.123 566.112 313.289 565.589C312.804 565.279 312.261 564.775 311.66 564.039V572.311H308.925V549.722V549.702ZM319.186 562.411C320.04 561.346 320.447 559.757 320.447 557.645C320.447 556.347 320.253 555.243 319.884 554.313C319.167 552.531 317.867 551.64 315.985 551.64C314.104 551.64 312.785 552.589 312.087 554.468C311.718 555.476 311.524 556.754 311.524 558.304C311.524 559.563 311.718 560.629 312.087 561.501C312.804 563.167 314.085 564.019 315.985 564.019C317.266 564.019 318.333 563.496 319.167 562.431L319.186 562.411Z" fill="black"/>
<path d="M326.48 543.602H329.215V565.842H326.48V543.602Z" fill="black"/>
<path d="M343.336 550.072C344.403 550.615 345.237 551.312 345.799 552.165C346.342 552.978 346.711 553.928 346.885 555.032C347.041 555.788 347.118 556.969 347.118 558.597H335.305C335.363 560.243 335.732 561.561 336.469 562.568C337.187 563.556 338.312 564.06 339.825 564.06C341.241 564.06 342.366 563.595 343.2 562.646C343.665 562.103 344.015 561.464 344.209 560.747H346.885C346.808 561.348 346.575 562.007 346.187 562.743C345.78 563.479 345.334 564.079 344.849 564.544C344.034 565.358 343.006 565.901 341.803 566.172C341.144 566.327 340.407 566.404 339.592 566.404C337.575 566.404 335.887 565.668 334.49 564.196C333.094 562.723 332.396 560.67 332.396 558.035C332.396 555.4 333.094 553.327 334.51 551.7C335.906 550.072 337.749 549.259 340.019 549.259C341.163 549.259 342.269 549.53 343.355 550.072H343.336ZM344.306 556.446C344.189 555.265 343.937 554.315 343.53 553.618C342.793 552.3 341.551 551.642 339.825 551.642C338.583 551.642 337.536 552.087 336.702 552.998C335.868 553.908 335.422 555.051 335.363 556.446H344.306Z" fill="black"/>
<path d="M351.909 549.626L356.235 562.819L360.754 549.626H363.742L357.631 565.842H354.722L348.728 549.626H351.89H351.909Z" fill="black"/>
<path d="M376.117 550.072C377.184 550.615 378.018 551.312 378.581 552.165C379.124 552.978 379.493 553.928 379.667 555.032C379.822 555.788 379.9 556.969 379.9 558.597H368.087C368.145 560.243 368.514 561.561 369.251 562.568C369.968 563.556 371.093 564.06 372.606 564.06C374.023 564.06 375.148 563.595 375.982 562.646C376.447 562.103 376.796 561.464 376.99 560.747H379.667C379.59 561.348 379.357 562.007 378.969 562.743C378.562 563.479 378.115 564.079 377.63 564.544C376.816 565.358 375.788 565.901 374.585 566.172C373.926 566.327 373.188 566.404 372.374 566.404C370.356 566.404 368.669 565.668 367.272 564.196C365.876 562.723 365.177 560.67 365.177 558.035C365.177 555.4 365.876 553.327 367.292 551.7C368.688 550.072 370.531 549.259 372.8 549.259C373.945 549.259 375.051 549.53 376.137 550.072H376.117ZM377.087 556.446C376.971 555.265 376.719 554.315 376.311 553.618C375.574 552.3 374.333 551.642 372.606 551.642C371.365 551.642 370.318 552.087 369.483 552.998C368.649 553.908 368.203 555.051 368.145 556.446H377.087Z" fill="black"/>
<path d="M394.701 549.626V560.378C394.701 561.211 394.836 561.889 395.089 562.412C395.554 563.381 396.446 563.865 397.727 563.865C399.569 563.865 400.83 563.013 401.509 561.328C401.878 560.417 402.052 559.177 402.052 557.588V549.626H404.787V565.842H402.207L402.246 563.459C401.897 564.079 401.47 564.602 400.947 565.009C399.919 565.861 398.677 566.287 397.222 566.287C394.953 566.287 393.401 565.512 392.586 563.962C392.14 563.129 391.927 562.025 391.927 560.649V549.626H394.72H394.701Z" fill="black"/>
<path d="M408.996 543.523H411.654V551.582C412.255 550.808 412.973 550.207 413.807 549.8C414.641 549.393 415.533 549.18 416.522 549.18C418.559 549.18 420.188 549.878 421.449 551.253C422.71 552.648 423.35 554.682 423.35 557.394C423.35 559.952 422.729 562.083 421.488 563.788C420.247 565.493 418.52 566.326 416.309 566.326C415.067 566.326 414.02 566.035 413.167 565.434C412.662 565.086 412.119 564.524 411.537 563.73V565.803H409.015V543.484L408.996 543.523ZM419.432 562.18C420.169 561.017 420.538 559.467 420.538 557.55C420.538 555.845 420.169 554.43 419.432 553.307C418.695 552.183 417.609 551.621 416.193 551.621C414.951 551.621 413.845 552.086 412.914 552.997C411.983 553.907 411.518 555.438 411.518 557.53C411.518 559.061 411.712 560.281 412.1 561.23C412.817 563.013 414.156 563.904 416.134 563.904C417.609 563.904 418.714 563.323 419.451 562.141L419.432 562.18Z" fill="black"/>
<path d="M436.522 550.072C437.589 550.615 438.423 551.312 438.985 552.165C439.528 552.978 439.897 553.928 440.071 555.032C440.227 555.788 440.304 556.969 440.304 558.597H428.491C428.549 560.243 428.918 561.561 429.655 562.568C430.373 563.556 431.498 564.06 433.011 564.06C434.427 564.06 435.552 563.595 436.386 562.646C436.851 562.103 437.201 561.464 437.395 560.747H440.071C439.994 561.348 439.761 562.007 439.373 562.743C438.966 563.479 438.52 564.079 438.035 564.544C437.22 565.358 436.192 565.901 434.989 566.172C434.33 566.327 433.593 566.404 432.778 566.404C430.761 566.404 429.073 565.668 427.676 564.196C426.28 562.723 425.582 560.67 425.582 558.035C425.582 555.4 426.28 553.327 427.696 551.7C429.093 550.072 430.935 549.259 433.205 549.259C434.349 549.259 435.455 549.53 436.541 550.072H436.522ZM437.492 556.446C437.375 555.265 437.123 554.315 436.716 553.618C435.979 552.3 434.737 551.642 433.011 551.642C431.769 551.642 430.722 552.087 429.888 552.998C429.054 553.908 428.608 555.051 428.549 556.446H437.492Z" fill="black"/>
<path d="M452.777 550.284C453.281 550.632 453.805 551.155 454.348 551.833V549.799H456.869V564.542C456.869 566.596 456.559 568.223 455.958 569.425C454.833 571.633 452.699 572.718 449.576 572.718C447.83 572.718 446.375 572.331 445.173 571.536C443.989 570.761 443.311 569.521 443.175 567.875H445.949C446.084 568.611 446.337 569.153 446.724 569.56C447.345 570.161 448.296 570.471 449.615 570.471C451.69 570.471 453.048 569.735 453.708 568.262C454.096 567.39 454.27 565.841 454.231 563.613C453.688 564.446 453.029 565.066 452.272 565.453C451.516 565.86 450.488 566.054 449.246 566.054C447.5 566.054 445.968 565.434 444.649 564.194C443.33 562.954 442.67 560.881 442.67 558.014C442.67 555.301 443.33 553.19 444.649 551.659C445.968 550.129 447.578 549.373 449.44 549.373C450.701 549.373 451.807 549.683 452.757 550.303L452.777 550.284ZM453.106 553.209C452.292 552.24 451.225 551.756 449.964 551.756C448.063 551.756 446.744 552.647 446.046 554.449C445.677 555.418 445.483 556.658 445.483 558.227C445.483 560.048 445.852 561.443 446.589 562.392C447.326 563.341 448.315 563.826 449.576 563.826C451.516 563.826 452.893 562.934 453.688 561.172C454.134 560.164 454.348 559.002 454.348 557.684C454.348 555.669 453.94 554.197 453.106 553.228V553.209Z" fill="black"/>
<path d="M461.078 549.627H463.677V552.436C463.891 551.894 464.414 551.235 465.229 550.441C466.063 549.666 467.014 549.259 468.1 549.259C468.158 549.259 468.236 549.259 468.352 549.259C468.469 549.259 468.682 549.298 468.973 549.317V552.184C468.818 552.145 468.663 552.126 468.527 552.126C468.391 552.126 468.236 552.126 468.081 552.126C466.703 552.126 465.656 552.572 464.919 553.443C464.182 554.335 463.813 555.342 463.813 556.485V565.804H461.078V549.588V549.627Z" fill="black"/>
<path d="M479.681 556.018C480.185 555.941 480.573 555.766 480.825 555.476C481.078 555.185 481.194 554.778 481.194 554.236C481.194 553.364 480.922 552.705 480.36 552.26C479.797 551.814 478.905 551.581 477.664 551.581C476.655 551.581 475.86 551.736 475.258 552.066C474.25 552.666 473.745 553.519 473.745 554.623H471.127C471.224 552.337 472.116 550.787 473.804 549.954C474.773 549.489 476.092 549.237 477.78 549.237C479.118 549.237 480.263 549.489 481.213 549.974C482.028 550.4 482.629 550.981 483.056 551.678C483.657 550.903 484.395 550.303 485.287 549.877C486.179 549.45 487.188 549.237 488.293 549.237C489.477 549.237 490.563 549.45 491.552 549.857C492.541 550.283 493.376 550.981 494.035 551.95C494.636 552.763 495.024 553.693 495.218 554.739C495.412 555.786 495.509 557.084 495.509 558.595H483.638C483.696 560.261 484.104 561.598 484.879 562.566C485.655 563.535 486.742 564.019 488.138 564.019C489.438 564.019 490.447 563.729 491.125 563.167C491.804 562.586 492.289 561.791 492.542 560.745H495.296C495.199 561.559 494.869 562.392 494.287 563.244C493.705 564.097 493.085 564.736 492.444 565.162C491.746 565.627 491.028 565.937 490.291 566.131C489.554 566.305 488.817 566.402 488.041 566.402C486.567 566.402 485.248 566.015 484.123 565.24C483.076 564.465 482.416 563.69 482.106 562.934C481.272 564.155 480.34 565.046 479.293 565.589C478.246 566.131 477.101 566.402 475.879 566.402C474.153 566.402 472.814 565.976 471.864 565.104C470.913 564.232 470.448 563.109 470.448 561.753C470.448 559.951 471.049 558.614 472.271 557.723C473.047 557.161 474.075 556.793 475.375 556.619L479.681 556.037V556.018ZM481.136 557.587C480.884 557.762 480.631 557.897 480.399 557.994C480.166 558.091 479.739 558.188 479.118 558.285L476.81 558.633C475.704 558.808 474.89 559.04 474.424 559.312C473.629 559.776 473.241 560.493 473.241 561.481C473.241 562.334 473.551 562.973 474.191 563.438C474.832 563.903 475.569 564.116 476.442 564.116C476.927 564.116 477.508 563.981 478.149 563.729C478.789 563.477 479.409 563.089 479.953 562.566C480.437 562.101 480.767 561.636 480.922 561.152C481.019 560.842 481.078 560.338 481.136 559.621V557.587V557.587ZM492.619 556.444C492.58 554.856 492.154 553.654 491.319 552.841C490.485 552.027 489.457 551.62 488.255 551.62C487.052 551.62 486.005 552.027 485.132 552.841C484.259 553.654 483.774 554.856 483.677 556.444H492.619Z" fill="black"/>
<path d="M498.942 549.626H501.542V551.932C502.317 550.982 503.132 550.304 503.986 549.897C504.839 549.49 505.79 549.277 506.856 549.277C509.165 549.277 510.717 550.072 511.531 551.68C511.977 552.552 512.191 553.811 512.191 555.458V565.861H509.417V555.651C509.417 554.663 509.262 553.869 508.971 553.268C508.486 552.261 507.613 551.757 506.333 551.757C505.693 551.757 505.149 551.815 504.742 551.951C503.986 552.164 503.345 552.61 502.764 553.288C502.317 553.83 502.007 554.373 501.871 554.954C501.736 555.516 501.658 556.329 501.658 557.395V565.88H498.923V549.665L498.942 549.626Z" fill="black"/>
<path d="M517.816 560.745C517.894 561.656 518.127 562.353 518.515 562.837C519.213 563.709 520.435 564.155 522.161 564.155C523.189 564.155 524.101 563.942 524.877 563.496C525.653 563.05 526.06 562.372 526.06 561.462C526.06 560.764 525.75 560.241 525.129 559.873C524.722 559.66 523.946 559.389 522.763 559.098L520.551 558.556C519.155 558.207 518.107 557.82 517.448 557.413C516.265 556.677 515.663 555.65 515.663 554.352C515.663 552.821 516.226 551.581 517.351 550.632C518.476 549.683 519.97 549.218 521.87 549.218C524.353 549.218 526.138 549.935 527.224 551.368C527.903 552.279 528.252 553.247 528.213 554.313H525.634C525.575 553.693 525.362 553.151 524.974 552.647C524.334 551.93 523.228 551.581 521.638 551.581C520.59 551.581 519.776 551.775 519.232 552.163C518.689 552.55 518.418 553.073 518.418 553.712C518.418 554.41 518.767 554.972 519.485 555.398C519.892 555.65 520.513 555.863 521.308 556.057L523.151 556.502C525.149 556.987 526.487 557.432 527.166 557.878C528.233 558.575 528.757 559.66 528.757 561.171C528.757 562.682 528.194 563.864 527.088 564.91C525.983 565.956 524.295 566.48 522.026 566.48C519.582 566.48 517.855 565.937 516.827 564.833C515.799 563.748 515.256 562.392 515.198 560.764H517.816V560.745Z" fill="black"/>
<path d="M541.753 550.072C542.82 550.615 543.654 551.312 544.216 552.165C544.759 552.978 545.128 553.928 545.302 555.032C545.458 555.788 545.535 556.969 545.535 558.597H533.722C533.78 560.243 534.149 561.561 534.886 562.568C535.604 563.556 536.729 564.06 538.242 564.06C539.658 564.06 540.783 563.595 541.617 562.646C542.082 562.103 542.432 561.464 542.626 560.747H545.302C545.225 561.348 544.992 562.007 544.604 562.743C544.197 563.479 543.751 564.079 543.266 564.544C542.451 565.358 541.423 565.901 540.22 566.172C539.561 566.327 538.824 566.404 538.009 566.404C535.992 566.404 534.304 565.668 532.907 564.196C531.511 562.723 530.812 560.67 530.812 558.035C530.812 555.4 531.511 553.327 532.927 551.7C534.323 550.072 536.166 549.259 538.436 549.259C539.58 549.259 540.686 549.53 541.772 550.072H541.753ZM542.723 556.446C542.606 555.265 542.354 554.315 541.947 553.618C541.21 552.3 539.968 551.642 538.242 551.642C537 551.642 535.953 552.087 535.119 552.998C534.285 553.908 533.839 555.051 533.78 556.446H542.723Z" fill="black"/>
<path d="M549.531 545.092H552.286V549.625H554.885V551.853H552.286V562.431C552.286 562.993 552.48 563.38 552.868 563.574C553.081 563.69 553.43 563.748 553.935 563.748C554.07 563.748 554.206 563.748 554.361 563.748C554.516 563.748 554.691 563.729 554.885 563.69V565.86C554.575 565.957 554.245 566.015 553.915 566.054C553.585 566.093 553.217 566.112 552.809 566.112C551.529 566.112 550.676 565.783 550.21 565.143C549.745 564.504 549.531 563.652 549.531 562.605V551.873H547.339V549.645H549.531V545.111V545.092Z" fill="black"/>
<path d="M164.899 593.215C165.52 593.138 165.946 592.866 166.16 592.421C166.276 592.169 166.334 591.82 166.334 591.375C166.334 590.445 166.005 589.767 165.345 589.34C164.686 588.914 163.735 588.701 162.513 588.701C161.097 588.701 160.088 589.088 159.487 589.863C159.157 590.29 158.944 590.929 158.847 591.762H156.306C156.364 589.767 157.004 588.372 158.246 587.577C159.487 586.783 160.942 586.396 162.591 586.396C164.492 586.396 166.043 586.764 167.246 587.48C168.429 588.217 169.011 589.34 169.011 590.871V600.209C169.011 600.499 169.069 600.713 169.186 600.887C169.302 601.061 169.554 601.139 169.923 601.139C170.039 601.139 170.175 601.139 170.33 601.119C170.485 601.1 170.641 601.081 170.815 601.042V603.057C170.388 603.173 170.059 603.25 169.845 603.289C169.632 603.328 169.322 603.328 168.934 603.328C168.003 603.328 167.304 602.999 166.897 602.321C166.684 601.972 166.509 601.468 166.431 600.829C165.869 601.565 165.074 602.185 164.045 602.727C163.017 603.27 161.854 603.522 160.612 603.522C159.099 603.522 157.877 603.057 156.927 602.146C155.976 601.236 155.491 600.093 155.491 598.717C155.491 597.225 155.957 596.044 156.907 595.23C157.858 594.416 159.08 593.893 160.612 593.699L164.957 593.157L164.899 593.215ZM159.157 600.577C159.739 601.023 160.418 601.255 161.194 601.255C162.164 601.255 163.076 601.042 163.987 600.596C165.5 599.86 166.257 598.659 166.257 596.993V594.804C165.927 595.017 165.5 595.191 164.977 595.327C164.453 595.462 163.929 595.579 163.444 595.637L161.795 595.85C160.806 595.985 160.069 596.179 159.565 596.47C158.731 596.935 158.304 597.69 158.304 598.736C158.304 599.531 158.595 600.151 159.177 600.596L159.157 600.577Z" fill="black"/>
<path d="M173.452 586.823H176.052V589.129C176.828 588.179 177.642 587.501 178.496 587.095C179.349 586.688 180.3 586.475 181.367 586.475C183.675 586.475 185.227 587.269 186.041 588.877C186.488 589.749 186.701 591.008 186.701 592.655V603.058H183.927V592.848C183.927 591.86 183.772 591.066 183.481 590.466C182.996 589.458 182.123 588.954 180.843 588.954C180.203 588.954 179.66 589.013 179.252 589.148C178.496 589.361 177.856 589.807 177.274 590.485C176.828 591.027 176.517 591.57 176.382 592.151C176.246 592.713 176.168 593.527 176.168 594.592V603.078H173.433V586.862L173.452 586.823Z" fill="black"/>
<path d="M191.26 582.289H194.014V586.822H196.613V589.05H194.014V599.628C194.014 600.19 194.208 600.578 194.596 600.771C194.81 600.888 195.159 600.946 195.663 600.946C195.799 600.946 195.935 600.946 196.09 600.946C196.245 600.946 196.419 600.926 196.613 600.888V603.057C196.303 603.154 195.973 603.212 195.644 603.251C195.314 603.29 194.945 603.309 194.538 603.309C193.258 603.309 192.404 602.98 191.939 602.341C191.473 601.701 191.26 600.849 191.26 599.803V589.07H189.068V586.842H191.26V582.308V582.289Z" fill="black"/>
<path d="M208.039 593.215C208.659 593.138 209.086 592.866 209.299 592.421C209.416 592.169 209.474 591.82 209.474 591.375C209.474 590.445 209.144 589.767 208.485 589.34C207.825 588.914 206.875 588.701 205.653 588.701C204.237 588.701 203.228 589.088 202.627 589.863C202.297 590.29 202.084 590.929 201.987 591.762H199.446C199.504 589.767 200.144 588.372 201.385 587.577C202.627 586.783 204.082 586.396 205.73 586.396C207.631 586.396 209.183 586.764 210.386 587.48C211.569 588.217 212.151 589.34 212.151 590.871V600.209C212.151 600.499 212.209 600.713 212.325 600.887C212.442 601.061 212.694 601.139 213.063 601.139C213.179 601.139 213.315 601.139 213.47 601.119C213.625 601.1 213.78 601.081 213.955 601.042V603.057C213.528 603.173 213.198 603.25 212.985 603.289C212.772 603.328 212.461 603.328 212.073 603.328C211.142 603.328 210.444 602.999 210.037 602.321C209.823 601.972 209.649 601.468 209.571 600.829C209.009 601.565 208.213 602.185 207.185 602.727C206.157 603.27 204.993 603.522 203.752 603.522C202.239 603.522 201.017 603.057 200.066 602.146C199.116 601.236 198.631 600.093 198.631 598.717C198.631 597.225 199.096 596.044 200.047 595.23C200.997 594.416 202.219 593.893 203.752 593.699L208.097 593.157L208.039 593.215ZM202.297 600.577C202.879 601.023 203.558 601.255 204.334 601.255C205.304 601.255 206.215 601.042 207.127 600.596C208.64 599.86 209.396 598.659 209.396 596.993V594.804C209.067 595.017 208.64 595.191 208.116 595.327C207.593 595.462 207.069 595.579 206.584 595.637L204.935 595.85C203.946 595.985 203.209 596.179 202.704 596.47C201.87 596.935 201.443 597.69 201.443 598.736C201.443 599.531 201.734 600.151 202.316 600.596L202.297 600.577Z" fill="black"/>
<path d="M216.67 580.798H219.405V603.039H216.67V580.798Z" fill="black"/>
<path d="M233.391 581.882C234.031 580.952 235.253 580.487 237.076 580.487C237.251 580.487 237.425 580.487 237.6 580.487C237.774 580.487 237.988 580.507 238.22 580.526V583.006C237.93 582.986 237.736 582.967 237.6 582.967C237.464 582.967 237.348 582.967 237.231 582.967C236.397 582.967 235.893 583.18 235.738 583.606C235.582 584.033 235.485 585.137 235.485 586.881H238.22V589.031H235.485V603.019H232.789V589.031H230.539V586.881H232.789V584.343C232.828 583.219 233.022 582.386 233.371 581.863L233.391 581.882Z" fill="black"/>
<path d="M252.498 588.45C253.933 589.845 254.651 591.879 254.651 594.591C254.651 597.303 254.011 599.357 252.75 601.062C251.489 602.767 249.53 603.619 246.872 603.619C244.661 603.619 242.896 602.864 241.596 601.353C240.297 599.841 239.637 597.827 239.637 595.289C239.637 592.557 240.316 590.406 241.693 588.779C243.071 587.171 244.913 586.357 247.241 586.357C249.317 586.357 251.082 587.055 252.498 588.45V588.45ZM250.81 599.221C251.47 597.846 251.799 596.335 251.799 594.669C251.799 593.158 251.567 591.937 251.082 590.988C250.325 589.496 249.006 588.76 247.163 588.76C245.515 588.76 244.312 589.399 243.575 590.658C242.818 591.937 242.45 593.467 242.45 595.25C242.45 597.032 242.818 598.408 243.575 599.551C244.331 600.694 245.515 601.275 247.144 601.275C248.929 601.275 250.151 600.597 250.83 599.221H250.81Z" fill="black"/>
<path d="M258.084 586.823H260.684V589.632C260.897 589.09 261.421 588.431 262.236 587.637C263.07 586.862 264.02 586.455 265.106 586.455C265.165 586.455 265.242 586.455 265.359 586.455C265.475 586.455 265.688 586.494 265.979 586.513V589.38C265.824 589.342 265.669 589.322 265.533 589.322C265.397 589.322 265.242 589.322 265.087 589.322C263.71 589.322 262.662 589.768 261.925 590.64C261.188 591.531 260.82 592.538 260.82 593.681V603H258.084V586.784V586.823Z" fill="black"/>
<path d="M278.354 587.269C279.421 587.811 280.255 588.509 280.818 589.361C281.361 590.175 281.729 591.124 281.904 592.228C282.059 592.984 282.137 594.166 282.137 595.793H270.324C270.382 597.44 270.75 598.757 271.488 599.765C272.205 600.753 273.33 601.256 274.843 601.256C276.259 601.256 277.384 600.791 278.218 599.842C278.684 599.3 279.033 598.66 279.227 597.944H281.904C281.826 598.544 281.594 599.203 281.206 599.939C280.798 600.675 280.352 601.276 279.867 601.741C279.053 602.555 278.024 603.097 276.822 603.368C276.162 603.523 275.425 603.601 274.611 603.601C272.593 603.601 270.906 602.864 269.509 601.392C268.112 599.92 267.414 597.866 267.414 595.231C267.414 592.596 268.112 590.524 269.528 588.896C270.925 587.269 272.768 586.455 275.037 586.455C276.182 586.455 277.287 586.726 278.374 587.269H278.354ZM279.324 593.643C279.208 592.461 278.956 591.512 278.548 590.814C277.811 589.497 276.57 588.838 274.843 588.838C273.602 588.838 272.554 589.284 271.72 590.194C270.886 591.105 270.44 592.248 270.382 593.643H279.324Z" fill="black"/>
<path d="M287.219 597.942C287.296 598.853 287.529 599.55 287.917 600.035C288.615 600.906 289.837 601.352 291.564 601.352C292.592 601.352 293.504 601.139 294.279 600.693C295.055 600.248 295.463 599.57 295.463 598.659C295.463 597.962 295.152 597.438 294.532 597.07C294.124 596.857 293.348 596.586 292.165 596.295L289.954 595.753C288.557 595.404 287.51 595.017 286.85 594.61C285.667 593.874 285.066 592.847 285.066 591.549C285.066 590.018 285.628 588.779 286.753 587.829C287.878 586.88 289.372 586.415 291.273 586.415C293.756 586.415 295.54 587.132 296.627 588.565C297.305 589.476 297.655 590.445 297.616 591.51H295.036C294.978 590.89 294.764 590.348 294.376 589.844C293.736 589.127 292.631 588.779 291.04 588.779C289.993 588.779 289.178 588.972 288.635 589.36C288.092 589.747 287.82 590.27 287.82 590.91C287.82 591.607 288.169 592.169 288.887 592.595C289.294 592.847 289.915 593.06 290.71 593.254L292.553 593.699C294.551 594.184 295.889 594.629 296.568 595.075C297.635 595.772 298.159 596.857 298.159 598.368C298.159 599.88 297.596 601.061 296.491 602.107C295.385 603.154 293.698 603.677 291.428 603.677C288.984 603.677 287.258 603.134 286.229 602.03C285.201 600.945 284.658 599.589 284.6 597.962H287.219V597.942Z" fill="black"/>
<path d="M301.67 582.289H304.424V586.822H307.024V589.05H304.424V599.628C304.424 600.19 304.618 600.578 305.006 600.771C305.22 600.888 305.569 600.946 306.073 600.946C306.209 600.946 306.345 600.946 306.5 600.946C306.655 600.946 306.83 600.926 307.024 600.888V603.057C306.713 603.154 306.384 603.212 306.054 603.251C305.724 603.29 305.355 603.309 304.948 603.309C303.668 603.309 302.814 602.98 302.349 602.341C301.883 601.701 301.67 600.849 301.67 599.803V589.07H299.478V586.842H301.67V582.308V582.289Z" fill="black"/>
<path d="M309.739 580.798H312.513V583.878H309.739V580.798ZM309.739 586.901H312.513V603.039H309.739V586.901Z" fill="black"/>
<path d="M316.704 580.798H319.439V603.039H316.704V580.798Z" fill="black"/>
<path d="M323.609 580.798H326.344V603.039H323.609V580.798Z" fill="black"/>
<path d="M330.417 580.798H333.191V583.878H330.417V580.798ZM330.417 586.901H333.191V603.039H330.417V586.901Z" fill="black"/>
<path d="M337.323 586.823H339.922V589.129C340.698 588.179 341.513 587.501 342.366 587.095C343.22 586.688 344.17 586.475 345.237 586.475C347.546 586.475 349.097 587.269 349.912 588.877C350.358 589.749 350.572 591.008 350.572 592.655V603.058H347.798V592.848C347.798 591.86 347.643 591.066 347.352 590.466C346.867 589.458 345.994 588.954 344.714 588.954C344.073 588.954 343.53 589.013 343.123 589.148C342.366 589.361 341.726 589.807 341.144 590.485C340.698 591.027 340.388 591.57 340.252 592.151C340.116 592.713 340.039 593.527 340.039 594.592V603.078H337.304V586.862L337.323 586.823Z" fill="black"/>
<path d="M363.607 587.481C364.111 587.83 364.635 588.353 365.178 589.031V586.997H367.699V601.74C367.699 603.793 367.389 605.421 366.788 606.622C365.663 608.83 363.529 609.915 360.406 609.915C358.66 609.915 357.205 609.528 356.003 608.734C354.82 607.959 354.141 606.719 354.005 605.072H356.779C356.914 605.808 357.167 606.351 357.555 606.758C358.175 607.358 359.126 607.668 360.445 607.668C362.52 607.668 363.878 606.932 364.538 605.459C364.926 604.588 365.1 603.038 365.061 600.81C364.518 601.643 363.859 602.263 363.102 602.65C362.346 603.057 361.318 603.251 360.076 603.251C358.33 603.251 356.798 602.631 355.479 601.391C354.16 600.151 353.5 598.078 353.5 595.211C353.5 592.499 354.16 590.387 355.479 588.856C356.798 587.326 358.408 586.57 360.27 586.57C361.531 586.57 362.637 586.88 363.587 587.5L363.607 587.481ZM363.936 590.406C363.122 589.438 362.055 588.953 360.794 588.953C358.893 588.953 357.574 589.844 356.876 591.646C356.507 592.615 356.313 593.855 356.313 595.424C356.313 597.245 356.682 598.64 357.419 599.589C358.156 600.539 359.145 601.023 360.406 601.023C362.346 601.023 363.723 600.132 364.518 598.369C364.964 597.361 365.178 596.199 365.178 594.882C365.178 592.867 364.77 591.394 363.936 590.426V590.406Z" fill="black"/>
<path d="M381.86 587.269C382.926 587.811 383.761 588.509 384.323 589.361C384.866 590.175 385.235 591.124 385.409 592.228C385.565 592.984 385.642 594.166 385.642 595.793H373.829C373.887 597.44 374.256 598.757 374.993 599.765C375.711 600.753 376.836 601.256 378.349 601.256C379.765 601.256 380.89 600.791 381.724 599.842C382.189 599.3 382.539 598.66 382.732 597.944H385.409C385.332 598.544 385.099 599.203 384.711 599.939C384.304 600.675 383.858 601.276 383.373 601.741C382.558 602.555 381.53 603.097 380.327 603.368C379.668 603.523 378.931 603.601 378.116 603.601C376.099 603.601 374.411 602.864 373.014 601.392C371.618 599.92 370.919 597.866 370.919 595.231C370.919 592.596 371.618 590.524 373.034 588.896C374.43 587.269 376.273 586.455 378.543 586.455C379.687 586.455 380.793 586.726 381.879 587.269H381.86ZM382.829 593.643C382.713 592.461 382.461 591.512 382.054 590.814C381.316 589.497 380.075 588.838 378.349 588.838C377.107 588.838 376.06 589.284 375.226 590.194C374.392 591.105 373.945 592.248 373.887 593.643H382.829Z" fill="black"/>
<path d="M389.172 586.823H391.771V589.632C391.985 589.09 392.508 588.431 393.323 587.637C394.157 586.862 395.108 586.455 396.194 586.455C396.252 586.455 396.33 586.455 396.446 586.455C396.562 586.455 396.776 586.494 397.067 586.513V589.38C396.911 589.342 396.756 589.322 396.621 589.322C396.485 589.322 396.33 589.322 396.174 589.322C394.797 589.322 393.75 589.768 393.013 590.64C392.275 591.531 391.907 592.538 391.907 593.681V603H389.172V586.784V586.823Z" fill="black"/>
<path d="M418.093 587.269C419.16 587.811 419.994 588.508 420.557 589.361C421.1 590.175 421.469 591.124 421.643 592.228C421.798 592.984 421.876 594.165 421.876 595.793H410.063C410.121 597.44 410.49 598.757 411.227 599.764C411.945 600.752 413.07 601.256 414.583 601.256C415.999 601.256 417.124 600.791 417.958 599.842C418.423 599.299 418.772 598.66 418.966 597.943H421.643C421.566 598.544 421.333 599.203 420.945 599.939C420.538 600.675 420.091 601.276 419.607 601.741C418.792 602.554 417.764 603.097 416.561 603.368C415.902 603.523 415.164 603.6 414.35 603.6C412.332 603.6 410.645 602.864 409.248 601.392C407.852 599.919 407.153 597.866 407.153 595.231C407.153 592.596 407.852 590.523 409.268 588.896C410.664 587.269 412.507 586.455 414.777 586.455C415.921 586.455 417.027 586.726 418.113 587.269H418.093ZM419.063 593.642C418.947 592.461 418.695 591.511 418.287 590.814C417.55 589.496 416.309 588.838 414.583 588.838C413.341 588.838 412.294 589.283 411.46 590.194C410.625 591.105 410.179 592.248 410.121 593.642H419.063ZM417.977 580.313L413.923 584.692H411.828L414.602 580.313H417.958H417.977Z" fill="black"/>
<path d="M425.328 586.823H427.928V589.129C428.704 588.179 429.518 587.501 430.372 587.095C431.225 586.688 432.176 586.475 433.243 586.475C435.551 586.475 437.103 587.269 437.917 588.877C438.364 589.749 438.577 591.008 438.577 592.655V603.058H435.803V592.848C435.803 591.86 435.648 591.066 435.357 590.466C434.872 589.458 433.999 588.954 432.719 588.954C432.079 588.954 431.536 589.013 431.128 589.148C430.372 589.361 429.732 589.807 429.15 590.485C428.704 591.027 428.393 591.57 428.258 592.151C428.122 592.713 428.044 593.527 428.044 594.592V603.078H425.309V586.862L425.328 586.823Z" fill="black"/>
<path d="M460.128 587.326C460.613 587.636 461.156 588.159 461.777 588.915V580.72H464.396V603.038H461.932V600.791C461.292 601.798 460.555 602.515 459.682 602.961C458.809 603.406 457.82 603.619 456.714 603.619C454.91 603.619 453.359 602.864 452.04 601.333C450.721 599.822 450.061 597.788 450.061 595.269C450.061 592.906 450.662 590.871 451.865 589.128C453.068 587.404 454.794 586.532 457.025 586.532C458.266 586.532 459.294 586.803 460.128 587.326V587.326ZM454.038 599.473C454.775 600.636 455.938 601.236 457.568 601.236C458.829 601.236 459.857 600.694 460.671 599.609C461.486 598.524 461.894 596.974 461.894 594.94C461.894 592.906 461.486 591.375 460.633 590.387C459.799 589.399 458.771 588.915 457.548 588.915C456.171 588.915 455.066 589.438 454.231 590.484C453.378 591.53 452.951 593.08 452.951 595.114C452.951 596.858 453.32 598.311 454.057 599.473H454.038Z" fill="black"/>
<path d="M477.159 593.215C477.779 593.138 478.206 592.866 478.42 592.421C478.536 592.169 478.594 591.82 478.594 591.375C478.594 590.445 478.264 589.767 477.605 589.34C476.945 588.914 475.995 588.701 474.773 588.701C473.357 588.701 472.348 589.088 471.747 589.863C471.417 590.29 471.204 590.929 471.107 591.762H468.566C468.624 589.767 469.264 588.372 470.505 587.577C471.747 586.783 473.202 586.396 474.85 586.396C476.751 586.396 478.303 586.764 479.506 587.48C480.689 588.217 481.271 589.34 481.271 590.871V600.209C481.271 600.499 481.329 600.713 481.446 600.887C481.562 601.061 481.814 601.139 482.183 601.139C482.299 601.139 482.435 601.139 482.59 601.119C482.745 601.1 482.9 601.081 483.075 601.042V603.057C482.648 603.173 482.318 603.25 482.105 603.289C481.892 603.328 481.581 603.328 481.193 603.328C480.262 603.328 479.564 602.999 479.157 602.321C478.943 601.972 478.769 601.468 478.691 600.829C478.129 601.565 477.333 602.185 476.305 602.727C475.277 603.27 474.113 603.522 472.872 603.522C471.359 603.522 470.137 603.057 469.186 602.146C468.236 601.236 467.751 600.093 467.751 598.717C467.751 597.225 468.217 596.044 469.167 595.23C470.117 594.416 471.34 593.893 472.872 593.699L477.217 593.157L477.159 593.215ZM471.417 600.577C471.999 601.023 472.678 601.255 473.454 601.255C474.424 601.255 475.335 601.042 476.247 600.596C477.76 599.86 478.517 598.659 478.517 596.993V594.804C478.187 595.017 477.76 595.191 477.236 595.327C476.713 595.462 476.189 595.579 475.704 595.637L474.055 595.85C473.066 595.985 472.329 596.179 471.824 596.47C470.99 596.935 470.564 597.69 470.564 598.736C470.564 599.531 470.855 600.151 471.436 600.596L471.417 600.577Z" fill="black"/>
<path d="M494.753 587.481C495.257 587.83 495.781 588.353 496.324 589.031V586.997H498.846V601.74C498.846 603.793 498.536 605.421 497.934 606.622C496.809 608.83 494.675 609.915 491.552 609.915C489.807 609.915 488.352 609.528 487.149 608.734C485.966 607.959 485.287 606.719 485.151 605.072H487.925C488.061 605.808 488.313 606.351 488.701 606.758C489.322 607.358 490.272 607.668 491.591 607.668C493.667 607.668 495.025 606.932 495.684 605.459C496.072 604.588 496.247 603.038 496.208 600.81C495.665 601.643 495.005 602.263 494.249 602.65C493.492 603.057 492.464 603.251 491.223 603.251C489.477 603.251 487.945 602.631 486.625 601.391C485.306 600.151 484.647 598.078 484.647 595.211C484.647 592.499 485.306 590.387 486.625 588.856C487.945 587.326 489.555 586.57 491.417 586.57C492.678 586.57 493.783 586.88 494.734 587.5L494.753 587.481ZM495.083 590.406C494.268 589.438 493.201 588.953 491.94 588.953C490.039 588.953 488.72 589.844 488.022 591.646C487.654 592.615 487.46 593.855 487.46 595.424C487.46 597.245 487.828 598.64 488.565 599.589C489.302 600.539 490.292 601.023 491.552 601.023C493.492 601.023 494.869 600.132 495.665 598.369C496.111 597.361 496.324 596.199 496.324 594.882C496.324 592.867 495.917 591.394 495.083 590.426V590.406Z" fill="black"/>
<path d="M503.636 599.727H506.798V603.02H503.636V599.727Z" fill="black"/>
</svg>
