<svg width="388" height="154" viewBox="0 0 388 154" fill="none" xmlns="http://www.w3.org/2000/svg">
<path d="M195 63.7083C192.371 63.7083 189.801 64.4879 187.616 65.9484C185.43 67.4089 183.726 69.4848 182.72 71.9135C181.714 74.3422 181.451 77.0147 181.964 79.5931C182.477 82.1714 183.742 84.5398 185.601 86.3986C187.46 88.2575 189.829 89.5234 192.407 90.0363C194.985 90.5491 197.658 90.2859 200.086 89.2799C202.515 88.2739 204.591 86.5703 206.052 84.3845C207.512 82.1986 208.292 79.6288 208.292 77C208.292 73.4748 206.891 70.094 204.399 67.6014C201.906 65.1087 198.525 63.7083 195 63.7083ZM195 87.875C192.849 87.875 190.747 87.2372 188.958 86.0422C187.17 84.8473 185.776 83.1488 184.953 81.1617C184.13 79.1745 183.914 76.9879 184.334 74.8784C184.754 72.7688 185.789 70.8311 187.31 69.3102C188.831 67.7893 190.769 66.7536 192.878 66.334C194.988 65.9143 197.175 66.1297 199.162 66.9528C201.149 67.7759 202.847 69.1698 204.042 70.9582C205.237 72.7466 205.875 74.8491 205.875 77C205.875 79.8842 204.729 82.6503 202.69 84.6898C200.65 86.7292 197.884 87.875 195 87.875ZM208.292 48H181.708C177.542 48 173.547 49.655 170.601 52.6009C167.655 55.5467 166 59.5422 166 63.7083V90.2917C166 92.3545 166.406 94.3972 167.196 96.303C167.985 98.2088 169.142 99.9405 170.601 101.399C173.547 104.345 177.542 106 181.708 106H208.292C210.355 106 212.397 105.594 214.303 104.804C216.209 104.015 217.94 102.858 219.399 101.399C220.858 99.9405 222.015 98.2088 222.804 96.303C223.594 94.3972 224 92.3545 224 90.2917V63.7083C224 61.6455 223.594 59.6028 222.804 57.697C222.015 55.7912 220.858 54.0595 219.399 52.6009C217.94 51.1422 216.209 49.9851 214.303 49.1957C212.397 48.4063 210.355 48 208.292 48ZM221.583 90.2917C221.583 93.8168 220.183 97.1976 217.69 99.6903C215.198 102.183 211.817 103.583 208.292 103.583H181.708C178.183 103.583 174.802 102.183 172.31 99.6903C169.817 97.1976 168.417 93.8168 168.417 90.2917V63.7083C168.417 60.1832 169.817 56.8024 172.31 54.3097C174.802 51.817 178.183 50.4167 181.708 50.4167H208.292C211.817 50.4167 215.198 51.817 217.69 54.3097C220.183 56.8024 221.583 60.1832 221.583 63.7083V90.2917ZM213.125 61.2917C213.125 61.7696 212.983 62.2369 212.718 62.6343C212.452 63.0317 212.075 63.3415 211.633 63.5244C211.192 63.7073 210.706 63.7551 210.237 63.6619C209.768 63.5687 209.337 63.3385 208.999 63.0005C208.662 62.6625 208.431 62.2319 208.338 61.7631C208.245 61.2943 208.293 60.8084 208.476 60.3668C208.659 59.9253 208.968 59.5478 209.366 59.2823C209.763 59.0167 210.23 58.875 210.708 58.875C211.349 58.875 211.964 59.1296 212.417 59.5828C212.87 60.036 213.125 60.6507 213.125 61.2917Z" fill="black"/>
<path d="M251 76.5C251 107.136 225.944 132 195 132C164.056 132 139 107.136 139 76.5C139 45.8645 164.056 21 195 21C225.944 21 251 45.8645 251 76.5Z" stroke="black" stroke-width="4"/>
<path d="M339.52 75.3784L325.457 64.5034C325.281 64.3672 325.076 64.289 324.865 64.277C324.653 64.2651 324.443 64.3198 324.256 64.4354C324.069 64.5484 323.912 64.7194 323.803 64.9293C323.695 65.1393 323.638 65.38 323.641 65.6249V87.3749C323.638 87.6197 323.695 87.8605 323.803 88.0704C323.912 88.2804 324.069 88.4513 324.256 88.5643C324.428 88.6678 324.618 88.7259 324.812 88.7342C325.044 88.7392 325.271 88.6556 325.457 88.4964L339.52 77.6214C339.683 77.502 339.818 77.3365 339.911 77.1404C340.004 76.9442 340.053 76.7239 340.053 76.4999C340.053 76.2759 340.004 76.0555 339.911 75.8594C339.818 75.6632 339.683 75.4978 339.52 75.3784ZM325.984 84.826V68.1737L336.766 76.4999L325.984 84.826ZM359.529 57.0608C359.287 56.0246 358.841 55.0678 358.226 54.2658C357.611 53.4637 356.843 52.8383 355.984 52.4389C346.082 48.021 330.174 48.0889 329.5 48.0889C328.826 48.0889 312.918 48.021 303.016 52.4389C302.157 52.8383 301.389 53.4637 300.774 54.2658C300.159 55.0678 299.713 56.0246 299.471 57.0608C298.738 60.3573 297.859 66.4065 297.859 76.4999C297.859 86.5932 298.738 92.6424 299.471 95.9389C299.713 96.9751 300.159 97.9319 300.774 98.734C301.389 99.536 302.157 100.161 303.016 100.561C312.918 104.979 328.826 104.911 329.5 104.911H329.705C331.727 104.911 346.58 104.775 355.984 100.561C356.843 100.161 357.611 99.536 358.226 98.734C358.841 97.9319 359.287 96.9751 359.529 95.9389C360.262 92.6424 361.141 86.5932 361.141 76.4999C361.141 66.4065 360.262 60.3573 359.529 57.0608ZM357.244 95.2592C357.103 95.8779 356.839 96.4494 356.473 96.9276C356.106 97.4058 355.648 97.7773 355.135 98.012C345.643 102.26 329.676 102.192 329.5 102.192C329.324 102.192 313.357 102.26 303.865 98.012C303.352 97.7773 302.894 97.4058 302.527 96.9276C302.161 96.4494 301.897 95.8779 301.756 95.2592C301.053 92.0987 300.203 86.2874 300.203 76.4999C300.203 66.7124 301.053 60.901 301.756 57.7405C301.897 57.1219 302.161 56.5504 302.527 56.0722C302.894 55.594 303.352 55.2225 303.865 54.9878C313.357 50.7397 329.324 50.8077 329.5 50.8077C329.676 50.8077 345.643 50.7397 355.135 54.9878C355.648 55.2225 356.106 55.594 356.473 56.0722C356.839 56.5504 357.103 57.1219 357.244 57.7405C357.947 60.901 358.797 66.7124 358.797 76.4999C358.797 86.2874 357.947 92.0987 357.244 95.2592Z" fill="black"/>
<g clip-path="url(#clip0_68_556)">
<path d="M58 18.877C25.9514 18.877 -0.126892 44.948 -0.126892 77.0002C-0.126892 109.052 25.9514 135.123 58 135.123C90.0486 135.123 116.127 109.052 116.127 77.0002C116.127 44.948 90.0486 18.877 58 18.877ZM58 131.252C28.0865 131.252 3.75186 106.914 3.75186 77.0002C3.75186 47.0867 28.0865 22.7485 58 22.7485C87.9135 22.7485 112.248 47.0867 112.248 77.0002C112.248 106.914 87.9135 131.252 58 131.252Z" fill="black"/>
<path d="M70.6875 44.3756H61.016C48.6982 44.2524 47.125 51.8758 47.125 60.1263V66.1256H41.6875C41.4417 66.0928 41.1917 66.1171 40.9568 66.1966C40.722 66.276 40.5086 66.4086 40.3333 66.5839C40.1579 66.7592 40.0254 66.9726 39.9459 67.2075C39.8664 67.4423 39.8422 67.6924 39.875 67.9381V78.8131C39.8422 79.0589 39.8664 79.3089 39.9459 79.5438C40.0254 79.7786 40.1579 79.992 40.3333 80.1674C40.5086 80.3427 40.722 80.4752 40.9568 80.5547C41.1917 80.6342 41.4417 80.6585 41.6875 80.6256H47.125V107.813C47.0948 108.059 47.1212 108.309 47.2024 108.544C47.2835 108.778 47.4171 108.991 47.593 109.166C47.769 109.341 47.9825 109.473 48.2174 109.553C48.4523 109.632 48.7023 109.657 48.9484 109.626H60.0227C61.0921 109.749 61.9585 108.883 61.6177 107.813L61.625 80.6256H70.6875C70.9332 80.6585 71.1833 80.6342 71.4181 80.5547C71.653 80.4752 71.8664 80.3427 72.0417 80.1674C72.217 79.992 72.3496 79.7786 72.4291 79.5438C72.5085 79.3089 72.5328 79.0589 72.5 78.8131V67.9381C72.5328 67.6924 72.5085 67.4423 72.4291 67.2075C72.3496 66.9726 72.217 66.7592 72.0417 66.5839C71.8664 66.4086 71.653 66.276 71.4181 66.1966C71.1833 66.1171 70.9332 66.0928 70.6875 66.1256H61.6141L61.625 60.6881C61.9766 58.3718 61.9766 58.7488 64.1262 58.8756H70.6114C71.1152 58.7633 71.6517 58.8249 72.0287 58.4588C72.4057 58.0926 72.6232 57.5924 72.4964 57.0631V46.1881C72.5298 45.9426 72.5061 45.6926 72.4271 45.4577C72.3481 45.2228 72.2159 45.0093 72.0408 44.8339C71.8657 44.6585 71.6525 44.5258 71.4178 44.4463C71.183 44.3669 70.9331 44.3427 70.6875 44.3756ZM68.7481 55.0476L64.2024 54.8736C58.5727 54.8736 58.1015 57.9295 58.1015 61.0579L58.087 67.9309C58.0865 68.1854 58.1362 68.4375 58.2333 68.6728C58.3304 68.9081 58.4729 69.1219 58.6527 69.302C58.8325 69.4821 59.046 69.6251 59.2811 69.7226C59.5162 69.8201 59.7682 69.8703 60.0227 69.8703H68.875V76.8738H60.03C59.5163 76.8738 59.0235 77.0776 58.6599 77.4405C58.2963 77.8034 58.0916 78.2958 58.0906 78.8095L58.087 106.001H50.75V78.8131C50.75 77.7438 50.0214 76.8774 48.9484 76.8774H43.5V69.8739H48.9484C49.2027 69.8743 49.4546 69.8245 49.6898 69.7275C49.9249 69.6305 50.1386 69.488 50.3186 69.3084C50.6811 68.9423 50.7464 68.4493 50.7464 67.9345V60.1226C50.7464 51.9954 52.3885 48.1239 61.0124 48.1239H68.7445V55.0476H68.7481Z" fill="black"/>
</g>
<path d="M386 76.5C386 107.136 360.944 132 330 132C299.056 132 274 107.136 274 76.5C274 45.8645 299.056 21 330 21C360.944 21 386 45.8645 386 76.5Z" stroke="black" stroke-width="4"/>
<defs>
<clipPath id="clip0_68_556">
<rect width="116" height="116" fill="white" transform="translate(0 19)"/>
</clipPath>
</defs>
</svg>
