<svg width="651" height="679" viewBox="0 0 651 679" fill="none" xmlns="http://www.w3.org/2000/svg">
<path d="M406.643 581.552C404.529 583.481 402.217 585.163 399.746 586.57C376.042 599.81 370.818 612.023 303.229 584.84C303.229 584.84 257.661 563.963 205.704 577.948C188.106 582.883 169.357 582.326 151.743 576.346C138.897 571.852 126.985 564.705 116.73 555.34C113.995 552.846 107.657 548.136 105.163 545.521C88.048 527.147 30.8866 479.151 73.9308 364.27L74.5451 362.595C76.3155 357.475 90.7016 321.943 145.648 333.016C195.587 343.047 226.301 295.351 234.676 280.311C237.311 275.672 239.313 270.659 240.626 265.412C245.631 247.818 254.158 231.631 265.656 217.899C277.154 204.167 291.364 193.197 307.367 185.701C323.369 178.204 340.805 174.35 358.544 174.386C376.283 174.422 393.929 178.349 410.337 185.911L411.243 186.33C441.299 200.189 458.573 209.333 479.879 205.433C501.185 201.534 545.089 201.052 582.373 298.239C619.657 395.425 569.657 495.121 569.657 495.121C569.657 495.121 545.826 539.902 498.279 545.483C489.152 546.468 480.126 548.154 471.276 550.527C452.803 555.692 424.713 565.578 406.643 581.552Z" fill="#E63F3F"/>
<g opacity="0.5" clip-path="url(#clip0_150_1518)">
<path d="M148.893 243.474C148.893 243.474 150.419 239.586 153.636 239.925C156.852 240.265 160.579 241.023 160.579 241.023L159.623 241.559L163.717 243.16C163.717 243.16 163.913 243.879 163.193 244.317C162.374 244.82 161.038 244.48 161.038 244.48C159.086 243.977 157.068 243.801 155.096 243.369C153.675 243.062 151.605 242.866 148.887 243.467L148.893 243.474Z" stroke="#1D1D1B" stroke-miterlimit="10"/>
<path d="M164.149 242.252C164.149 242.252 165.093 243.324 167.464 242.716C167.464 242.716 168.158 242.076 171.479 242.905L177.991 243.945C177.991 243.945 179.713 244.284 180.735 244.605C181.757 244.925 183.113 245.252 183.113 245.252V246.029L176.274 246.441L181.639 250.649L178.364 251.793C178.364 251.793 178.2 249.957 175.908 249.584L173.615 249.218C173.615 249.218 172.593 249.382 172.141 251.427C171.689 253.472 169.888 254.002 169.481 254.041C169.075 254.08 167.025 254.204 166.861 254.041C166.861 254.041 164.464 252.937 163.756 252.081C163.756 252.081 162.931 250.689 162.885 250.244L159.118 252.002V252.368L161.902 253.923C161.902 253.923 158.955 256.25 157.481 253.557C157.481 253.557 156.741 252.126 158.712 249.878C158.712 249.878 160.474 247.996 164.654 247.303C168.833 246.611 173.458 246.16 173.458 246.16C173.458 246.16 168.217 244.605 165.636 245.016C163.055 245.428 163.75 242.99 164.162 242.265L164.149 242.252Z" stroke="#1D1D1B" stroke-miterlimit="10"/>
<path d="M178.79 252.08L182.072 253.452C182.072 253.452 180.617 256.753 175.344 257.844C175.344 257.844 172.567 257.87 171.591 258.177C170.615 258.484 167.3 257.615 167.3 257.615V256.89C167.3 256.89 178.069 255.191 178.79 252.08V252.08Z" stroke="#1D1D1B" stroke-miterlimit="10"/>
<path d="M207.579 243.859L203.046 246.604L203.367 247.016H205.935C205.935 247.016 204.193 249.166 206.485 249.989C208.778 250.813 212.394 250.813 212.394 250.813C212.394 250.813 216.468 250.538 217.752 249.577C219.036 248.617 219.311 248.846 218.486 246.055C218.486 246.055 216.423 246.97 215.23 248.159C214.038 249.349 210.999 248.251 210.999 248.251C210.999 248.251 209.047 248.114 207.579 243.866V243.859Z" stroke="#1D1D1B" stroke-miterlimit="10"/>
<path d="M216.553 239.657C216.553 239.657 223.425 236.776 227.735 237.279C227.735 237.279 227.467 238.507 227.735 239.246C228.004 239.984 227.683 241.017 226.726 241.115C226.726 241.115 225.515 241.363 225.397 241.435C225.279 241.507 225.148 241.533 223.864 240.847C222.58 240.161 218.112 239.788 217.222 240.357L216.56 239.657H216.553Z" stroke="#1D1D1B" stroke-miterlimit="10"/>
<path d="M214.313 251.989V252.707L213.547 253.328H219.6C219.6 253.328 220.654 253.76 221.041 254.335C221.041 254.335 223.445 253.139 223.923 255.583C223.923 255.583 224.788 257.785 225.266 258.792C225.266 258.792 225.652 260.419 225.842 260.759C226.032 261.098 225.842 262.771 224.499 262.726C224.499 262.726 224.021 262.438 223.536 266.797L222.672 272.881C222.672 272.881 220.51 272.659 219.305 274.9C218.099 277.142 216.567 278.736 215.427 278.704C214.287 278.671 212.754 277.959 212.754 277.959L209.852 276.658C209.852 276.658 208.418 276.233 207.606 276.462C207.606 276.462 208.293 273.763 209.007 272.986C209.721 272.208 210.638 271.326 210.802 269.568C210.966 267.81 211.064 266.444 208.621 263.131C208.621 263.131 208.85 261.798 208.228 260.922C207.606 260.046 204.481 253.733 204.481 253.733C204.481 253.733 203.957 252.159 206.112 251.989C208.267 251.819 214.326 251.989 214.326 251.989H214.313Z" stroke="#1D1D1B" stroke-miterlimit="10"/>
<path d="M193.64 287.65L197.57 287.912V289.304L193.64 288.742V287.65Z" stroke="#1D1D1B" stroke-miterlimit="10"/>
<path d="M177.951 293.447L182.15 293.754C182.15 293.754 182.583 293.532 183.093 294.715C183.093 294.715 182.497 295.225 182.131 295.225C181.764 295.225 177.814 294.336 177.814 294.336L177.958 293.447H177.951Z" stroke="#1D1D1B" stroke-miterlimit="10"/>
<path d="M212.073 320.659C212.073 320.659 215.584 317.156 219.528 321.763L212.073 320.659Z" stroke="#1D1D1B" stroke-miterlimit="10"/>
<path d="M217.759 328.782C217.759 328.782 220.248 327.279 220.425 327.24C220.602 327.2 222.41 325.475 219.966 324.077C217.523 322.678 215.289 322.456 215.289 322.456C215.289 322.456 212.944 322.175 212.178 322.815C211.411 323.456 212.178 324.56 212.178 324.56C212.178 324.56 212.636 325.181 213.56 325.763C214.484 326.344 217.752 328.788 217.752 328.788L217.759 328.782Z" stroke="#1D1D1B" stroke-miterlimit="10"/>
<path d="M127.44 241.644C127.44 241.644 128.704 242.8 128.914 244.173C128.914 244.173 131.049 244.565 131.259 247.303C131.469 250.041 132.235 250.91 132.235 250.91L133.028 252.492C133.028 252.492 130.604 253.544 127.434 249.492C124.263 245.44 124.112 245.016 124.374 243.493C124.636 241.97 127.434 241.65 127.434 241.65L127.44 241.644Z" stroke="#1D1D1B" stroke-miterlimit="10"/>
<path d="M219.796 205.244C220.733 204.957 221.624 204.094 221.624 204.094C223.025 203.16 221.479 202.676 221.479 202.676L213.114 201.363C213.56 202.395 215.224 203.735 215.224 203.735C217.942 205.702 219.711 205.251 219.711 205.251L220.078 206.323C220.562 207.577 220.857 207.551 220.857 207.551L233.342 215.236L233.113 215.7L225.593 212.113L224.781 214.243L221.113 213.916L222.731 217.857L225.069 218.733L225.534 220.111C225.737 221.137 226.425 221.902 227.683 221.843C228.941 221.784 229.314 221.98 229.314 221.98L224.06 223.072L222.776 222.974L222.174 223.928L220.995 224.353L220.268 224.3L220.065 224.928L220.503 225.529L220.654 226.078C220.674 227.025 220.792 228.332 220.792 228.332C221.106 230.221 224.414 230.188 224.414 230.188C223.831 231.665 221.545 233.319 221.545 233.319C216.933 235.599 212.407 238.416 210.796 239.756C209.184 241.095 207.527 242.252 207.527 242.252C207.527 242.252 205.555 243.101 203.944 244.219C202.332 245.336 199.018 250.029 198.12 251.323C197.223 252.616 196.784 254.485 196.568 256.217C196.352 257.949 197.472 260.471 197.675 261.014C197.878 261.556 197.76 262.955 197.76 262.955C197.95 264.177 197.537 265.314 197.537 265.314C196.823 267.431 198.409 268.046 198.409 268.046C197.917 269.287 198.847 271.104 198.847 271.104C198.847 271.104 199.771 272.796 199.535 273.104C199.299 273.411 199.28 274.724 199.28 274.724C199.437 277.031 201.278 279.083 201.756 280.044C202.234 281.004 201.998 281.344 201.998 281.344L201.736 281.501C201.736 281.501 200.747 282.037 200.577 283.128C200.406 284.22 200.852 285.644 200.904 286.076C200.957 286.507 200.577 287.402 200.577 287.402L206.977 289.611C206.485 290.023 196.614 292.944 196.614 292.944C194.17 293.891 192.913 293.251 192.913 293.251C189.88 292.277 183.526 293.61 183.526 293.61C183.526 293.61 184.554 294.506 185.812 295.231C187.07 295.956 188.373 295.839 189.041 295.662C189.709 295.486 191.485 296.048 191.485 296.048C192.926 296.584 197.865 295.532 197.865 295.532C198.428 295.198 199.175 295.636 199.175 295.636L200.819 296.512L199.968 297.126L203.597 297.714C203.597 297.714 202.489 298.969 201.848 299.485C201.206 300.002 201.022 301.616 201.566 302.361C202.11 303.106 203.086 308.543 203.086 308.543C204.271 308.21 205.3 306.929 205.3 306.929L217.674 289.317C217.674 289.317 217.955 288.683 218.702 288.324C219.449 287.964 219.809 289.317 219.809 289.317C219.809 289.317 219.966 291.454 220.248 296.1C220.53 300.747 220.713 300.76 220.713 300.76C220.713 300.76 220.942 303.452 217.346 303.733C213.75 304.014 207.776 308.17 205.876 310.379C203.976 312.588 201.789 312.457 201.376 312.379C200.963 312.3 199.601 312.248 199.188 312.202C198.775 312.157 197.079 312.379 196.306 312.536C195.533 312.693 195.742 312.738 195.382 313.692C195.022 314.646 195.356 314.973 195.356 314.973L201.363 323.789L201.572 323.848C202.051 325.155 203.361 327.416 204.841 328.416C206.322 329.416 207.239 331.461 207.239 331.461V332.245C207.239 332.245 205.758 332.552 204.579 332.422C203.4 332.291 203.4 332.598 203.4 332.598C201.697 333.944 198.382 332.598 198.382 332.598C198.382 332.598 194.111 331.03 193.234 331.121C192.356 331.213 190.528 330.553 190.528 330.553L185.773 327.769C185.773 327.769 185.511 325.2 183.244 323.247C180.978 321.293 180.454 318.94 180.454 318.94H181.633C181.633 318.94 181.855 318.443 181.6 317.888C181.344 317.332 180.303 315.222 180.152 315.071C180.002 314.921 178.685 312.608 177.735 311.843L174.46 308.294L171.492 306.086L162.898 300.315C162.898 300.315 156.564 295.649 156.151 295.172C156.151 295.172 150.852 290.134 150.295 289.474C149.738 288.814 144.655 283.259 143.672 280.893C143.672 280.893 141.406 276.129 141.046 275.116C140.685 274.103 137.744 265.471 137.744 265.471L136.048 260.857C136.048 260.857 135.353 259.537 134.423 259.04C133.493 258.544 129.818 256.387 128.665 254.538C127.512 252.688 126.497 250.231 126.497 250.231C126.497 250.231 126.143 249.074 125.141 248.343C124.139 247.611 122.016 243.52 122.252 241.579C122.252 241.579 122.232 238.998 122.128 238.625C122.023 238.253 121.787 236.168 122.036 235.704C122.285 235.24 121.82 233.41 121.82 233.41C121.82 233.41 120.765 230.829 120.857 230.528C120.857 230.528 122.75 230.103 125.482 232.116C128.213 234.129 130.034 234.521 130.283 234.521C130.532 234.521 132.602 231.796 132.694 230.371C132.785 228.947 133.211 228.306 133.676 227.895C134.141 227.483 134.764 226.561 134.744 226.222C134.724 225.882 134.921 225.366 133.336 224.477C131.75 223.588 132.785 224.529 131.908 223.412L134.246 223.464L133.283 222.183C133.283 222.183 134.783 217.216 135.799 215.576C136.814 213.936 138.871 213.119 138.871 213.119C138.871 213.119 140.816 212.433 141.281 210.976C141.281 210.976 141.53 210.139 141.511 209.943L136.493 210.315C136.493 210.315 137.312 207.538 137.331 207.251C137.351 206.963 137.495 205.414 138.74 205.022C138.74 205.022 140.436 204.774 140.934 204.473L143.201 203.264L146.325 206.205L147.649 206.898L149.935 205.493C149.935 205.493 151.31 204.297 151.467 203.963C151.625 203.63 153.02 203.127 153.878 203.232C154.736 203.336 157.946 204.46 157.946 204.46C157.946 204.46 160.357 203.584 161.319 203.715C162.282 203.846 162.374 204.003 162.374 204.003L162.518 203.807L160.677 201.513C160.677 201.513 162.747 200.944 162.911 200.892C163.075 200.84 164.713 200.572 165.466 200.663C166.219 200.755 168.538 200.52 168.748 200.415C168.957 200.31 169.979 199.918 170.32 199.65C170.66 199.382 172.816 198.585 174.748 198.775C176.68 198.964 179.32 198.938 180.192 199.115C181.063 199.291 186.061 200.023 186.061 200.023C186.061 200.023 190.613 199.794 191.039 199.879C191.465 199.964 193.987 200.075 193.987 200.075C193.987 200.075 195.86 200.056 196.627 197.598L200.216 198.794L202.824 197.834L202.66 198.174L202.267 197.762C202.267 197.762 201.572 197.533 201.304 196.782C201.035 196.03 200.839 195.481 200.839 195.481L201.769 195.233C201.769 195.233 202.267 195.089 202.824 195.481C203.38 195.873 206.623 197.618 206.623 197.618C206.623 197.618 207.232 198.082 208.392 197.814C208.392 197.814 208.215 199.291 209.767 200.52C211.32 201.748 212.944 201.376 212.944 201.376C212.944 201.376 217.425 200.879 218.781 200.879C218.781 200.879 220.065 200.97 221.014 201.251C221.964 201.532 222.475 201.343 222.475 201.343C222.475 201.343 223.117 201.323 223.366 201.467C223.366 201.467 221.689 201.5 221.565 202.591L221.545 202.676V202.696" stroke="#1D1D1B" stroke-miterlimit="10"/>
<path d="M222.737 217.857L225.456 216.399L226.517 218.223L225.711 219.778L225.541 220.111" stroke="#1D1D1B" stroke-miterlimit="10"/>
<path d="M225.076 218.732L225.711 219.778" stroke="#1D1D1B" stroke-miterlimit="10"/>
<path d="M220.608 226.156L225.967 223.908L225.187 223.039L224.067 223.072L223.392 223.908L222.573 224.307L221.335 224.699L221.368 225.143L221.375 225.209L220.949 224.699L220.274 224.294" stroke="#1D1D1B" stroke-miterlimit="10"/>
<path d="M222.2 225.568L222.056 225.47L221.362 225.071" stroke="#1D1D1B" stroke-miterlimit="10"/>
<path d="M220.923 224.294L221.407 224.771H220.923V224.294Z" stroke="#1D1D1B" stroke-miterlimit="10"/>
<path d="M222.18 223.921L222.573 224.306" stroke="#1D1D1B" stroke-miterlimit="10"/>
<path d="M222.783 222.967L223.012 223.522L223.392 223.908" stroke="#1D1D1B" stroke-miterlimit="10"/>
<path d="M267.831 240.723L259.171 241.794L261.28 242.167L261.326 242.546L254.769 244.448L254.92 244.846L255.752 245.121C255.752 245.121 252.031 246.5 249.621 248.231C247.21 249.963 243.09 252.669 243.09 252.669C243.09 252.669 244.118 253.871 242.841 255.178C241.563 256.485 239.526 258.086 238.517 260.393C238.517 260.393 233.565 268.738 233.565 268.941C233.565 269.143 231.96 272.626 231.528 275.306C231.096 277.985 230.323 281.697 230.323 283.756C230.323 285.814 230.093 286.435 230.526 289.095C230.958 291.754 233.618 299.172 235.373 301.929C235.373 301.929 235.904 303.034 235.701 303.831C235.701 303.831 234.115 304.256 233.166 306.386C232.216 308.517 231.102 311.797 231.102 311.797C231.102 311.797 230.421 313.274 230.827 316.156C230.827 316.156 231.004 317.358 232.183 319.24C233.362 321.123 236.251 325.808 236.251 325.808L236.755 325.481L236.375 322.449L236.775 322.22L239.035 324.704C239.035 324.704 241.295 324.129 239.814 321.619C238.334 319.11 237.43 317.835 237.43 317.835C237.43 317.835 236.926 317.26 236.854 316.084C236.854 316.084 240.142 317.914 240.797 318.293C241.452 318.672 242.081 319.169 242.081 319.169C242.081 319.169 243.312 319.92 244.013 318.293C244.013 318.293 244.668 315.287 243.234 314.509C241.799 313.731 239.841 310.752 239.841 310.752C239.841 310.752 240.07 312.705 241.275 314.058L243.941 318.045C243.941 318.045 244.898 318.345 245.199 318.646C245.5 318.946 251.782 327.246 251.959 327.671C252.136 328.095 254.822 331.931 255.503 332.382C256.184 332.833 261.732 337.192 261.732 337.192C261.732 337.192 264.549 339.349 265.303 340.322C266.056 341.296 270.628 344.812 271.584 344.962C271.584 344.962 276.989 347.772 279.425 348.092C281.862 348.413 287.79 350.197 287.79 350.197C287.79 350.197 295.553 352.451 298.92 352.451C302.287 352.451 308.968 351.922 310.102 351.399C310.102 351.399 320.275 348.994 322.489 347.818C324.703 346.642 326.511 346.714 328.495 344.812C328.495 344.812 329.753 343.485 331.057 343.211C332.36 342.936 339.651 337.244 339.651 337.244L338.649 335.839L339.651 334.238C339.651 334.238 337.214 333.036 338.446 329.527L336.16 327.148C336.16 327.148 334.856 326.37 335.079 322.234L333.598 322.057L334.05 321.73L332.491 319.025C332.491 319.025 331.509 317.319 330.054 316.169C328.6 315.019 327.113 311.81 327.29 310.582C327.29 310.582 327.113 308.804 327.945 306.445C327.945 306.445 325.711 305.942 325.384 305.844C325.056 305.746 323.904 305.517 323.072 306.295C323.072 306.295 321.696 307.085 321.493 307.112C321.29 307.138 320.091 307.634 320.091 307.634C320.091 307.634 318.899 307.83 318.63 307.83C318.362 307.83 315.211 308.399 315.211 308.399C315.211 308.399 313.18 308.386 312.813 308.144C312.813 308.144 312.021 307.915 312.021 307.817C312.021 307.719 311.34 307.549 310.802 307.817C310.802 307.817 310.265 307.83 309.997 307.778C309.997 307.778 307.501 307.837 306.355 307.085C305.208 306.334 303.577 304.994 303.577 304.994L301.763 303.367C301.763 303.367 301.468 303.125 301.324 302.831C301.18 302.537 299.765 300.622 299.765 300.622L297.669 297.695L295.54 294.682C295.54 294.682 293.529 291.767 293.424 291.571C293.319 291.375 292.088 289.238 292.009 288.585C291.93 287.931 291.426 285.938 291.714 284.932L290.168 284.906C290.168 284.906 292.454 283.847 290.398 282.089C288.341 280.331 287.162 279.514 287.162 279.514C287.162 279.514 284.62 277.377 282.242 277.913C279.864 278.449 278.967 279.057 278.967 279.057C278.967 279.057 280.113 273.156 280.526 272.195C280.939 271.234 282.622 269.477 284.712 269.66L284.751 268.444L286.369 268.555C286.369 268.555 287.391 269.562 288 269.503C288.609 269.444 290.352 269.078 290.653 268.764C290.954 268.451 290.692 267.66 290.692 267.66L290.568 266.738C290.568 266.738 290.24 265.392 290.443 264.713C290.647 264.033 291.026 262.791 291.026 262.791L295.396 263.131C295.396 263.131 294.97 265.719 295.664 266.484C296.359 267.248 297.466 267.915 297.466 267.915C297.466 267.915 295.723 269.856 295.933 271.62C296.142 273.385 296.385 273.855 296.738 274.352C297.092 274.848 297.859 275.58 298.225 275.822C298.592 276.064 299.103 276.332 299.457 277.436C299.457 277.436 299.883 279.063 299.896 279.658C299.909 280.253 300.531 280.959 300.721 281.115C300.911 281.272 302.195 281.88 302.195 281.88C302.195 281.88 302.975 282.148 303.499 283.226C304.023 284.304 304.337 285.023 304.914 285.363C305.49 285.703 305.693 286.03 306.433 285.912C307.173 285.794 307.698 284.906 307.698 284.906C307.698 284.906 308.791 283.873 309.086 283.873C309.381 283.873 310.167 282.828 310.167 282.828C310.167 282.828 311.032 281.71 312.479 281.527C313.927 281.344 315.643 280.906 315.742 280.834C315.84 280.762 316.253 280.455 317.058 280.861C317.864 281.266 318.421 281.494 318.421 281.494L318.617 281.213L316.56 280.24L319.128 279.606C319.128 279.606 319.823 281.475 321.906 281.331C321.906 281.331 322.967 281.135 323.576 280.736C324.185 280.338 325.292 280.253 325.803 280.566C326.314 280.88 327.022 282.279 327.022 282.279L331.063 283.847L326.183 284.782C326.183 284.782 329.616 287.683 331.319 288.023C331.319 288.023 332.026 288.448 333.061 288.252C334.096 288.056 333.756 286.017 333.756 286.017C333.756 286.017 334.083 284.501 336.153 284.729C336.153 284.729 339.697 285.834 340.037 285.847L338.59 286.964C338.59 286.964 338.492 287.121 338.819 287.232C339.147 287.343 340.293 288.036 340.293 288.036C340.293 288.036 340.843 288.415 340.535 288.944C340.227 289.474 339.782 289.565 339.782 289.565C339.782 289.565 337.895 290.016 336.821 289.323C335.747 288.631 335.262 288.01 335.262 288.01C335.262 288.01 333.985 286.271 333.873 286.141C333.762 286.01 333.821 286.075 333.821 286.075" stroke="#1D1D1B" stroke-miterlimit="10"/>
<path d="M324.12 277.351L326.406 276.979C326.406 276.979 326.956 278.521 326.406 279.07C325.856 279.619 323.707 279.488 323.707 279.488C323.707 279.488 324.88 278.906 325.063 278.606C325.246 278.305 325.011 277.893 324.12 277.344V277.351Z" stroke="#1D1D1B" stroke-miterlimit="10"/>
<path d="M310.265 289.48V290.304L311.281 294.806C311.281 294.806 307.501 294.48 307.056 293.042C306.61 291.604 307.029 291.088 307.671 290.618C308.313 290.147 310.272 289.487 310.272 289.487L310.265 289.48Z" stroke="#1D1D1B" stroke-miterlimit="10"/>
<path d="M310.39 296.42L318.644 295.087C318.644 295.087 317.491 296.668 315.146 297.283C312.8 297.897 310.39 296.42 310.39 296.42V296.42Z" stroke="#1D1D1B" stroke-miterlimit="10"/>
<path d="M272.063 283.905C272.063 283.905 272.908 282.736 273.196 282.363C273.484 281.991 274.061 281.252 275.626 281.252C277.192 281.252 277.644 281.089 277.644 281.089C277.644 281.089 277.585 283.389 276.019 284.396C274.454 285.402 273.504 285.056 273.504 285.056C273.504 285.056 272.43 284.376 272.063 283.905Z" stroke="#1D1D1B" stroke-miterlimit="10"/>
<path d="M255.981 274.358L268.774 266.131C268.774 266.131 270.726 264.739 270.805 264.582C270.884 264.425 271.165 263.87 272.875 265.098L275.783 266.686C275.783 266.686 273.032 268.633 272.757 269.071C272.482 269.509 269.128 271.058 268.892 271.019C268.656 270.98 265.787 271.934 265.388 272.293C264.988 272.653 261.962 273.685 261.405 273.842C260.848 273.999 256.427 275.09 256.427 275.09L255.988 274.358H255.981Z" stroke="#1D1D1B" stroke-miterlimit="10"/>
<path d="M283.893 255.316L284.214 256.688L283.284 257.008C283.284 257.008 282.76 256.989 282.491 256.825C282.223 256.662 280.69 256.42 280.022 257.511C279.353 258.603 277.572 261.955 277.572 261.955L278.24 263.007L281.22 263.393L279.963 264.099L280.107 264.504L283.873 263.288L282.498 262.7C282.498 262.7 283.185 262.177 283.205 262.073C283.225 261.968 284.397 261.589 284.397 261.589C284.397 261.589 286.304 260.596 287.456 259.328C288.609 258.06 288.852 257.348 288.956 257.087C289.061 256.825 289.363 255.368 287.679 255.087L283.893 255.309V255.316Z" stroke="#1D1D1B" stroke-miterlimit="10"/>
<path d="M275.017 263.353C275.017 263.353 275.534 262.464 275.58 262.386C275.626 262.308 276.137 261.563 276.242 261.523C276.347 261.484 276.432 261.393 276.825 261.628C277.218 261.863 277.716 262.079 277.716 262.079L277.244 262.157L278.371 262.987C278.371 262.987 278.292 263.948 277.762 264.17C277.231 264.392 276.373 263.967 276.373 263.967L275.024 263.36L275.017 263.353Z" stroke="#1D1D1B" stroke-miterlimit="10"/>
<path d="M286.343 268.529V268.476L286.598 266.117L290.437 266.738C290.483 266.745 290.509 266.751 290.509 266.751" stroke="#1D1D1B" stroke-miterlimit="10"/>
<path d="M278.469 244.363L285.203 244.801L285.111 245.213L282.491 245.592L286.356 249.728C286.356 249.728 285.38 249.807 285.111 249.885C284.843 249.963 284.81 250.12 283.899 249.395C282.989 248.67 281.849 247.931 281.849 247.931C281.849 247.931 279.877 246.088 279.498 245.036C279.498 245.036 278.535 244.657 278.476 244.356L278.469 244.363Z" stroke="#1D1D1B" stroke-miterlimit="10"/>
<path d="M267.634 240.722L262.708 236.004L262.931 235.533L265.754 236.612L265.669 236.755L269.036 235.533L272.108 233.645L272.488 233.553L273.189 232.972L275.554 233.769L276.877 233.782L278.816 231.652L278.404 231.22C278.404 231.22 277.604 231.828 277.414 231.874C277.224 231.92 276.635 231.926 276.262 231.789C275.888 231.652 275.554 231.586 275.554 231.586L274.991 231.148L276.052 230.534L277.493 229.868L275.2 228.005L274.349 225.594L272.901 225.718C272.901 225.718 272.449 226.744 272.246 226.979C272.043 227.214 271.781 227.175 271.781 227.175C271.781 227.175 270.936 227.28 270.844 228.149C270.753 229.018 271.021 229.613 271.021 229.613L271.702 230.103L271.467 230.24L271.27 230.351L271.06 229.691C271.06 229.691 270.563 228.502 270.346 228.299C270.13 228.097 269.285 226.698 267.536 226.613L265.368 228.456L268.047 232.331L271.132 230.404L271.814 230.044L272.698 229.959L273.772 230.064L273.969 232.168L272.063 232.063L271.683 230.155" stroke="#1D1D1B" stroke-miterlimit="10"/>
<path d="M275.168 228.031L274.146 228.489L274.238 228.417L273.517 228.43L273.759 229.443L273.727 230.116H274.218L273.766 229.462" stroke="#1D1D1B" stroke-miterlimit="10"/>
<path d="M274.152 228.541V229.946L274.218 230.168L274.965 231.103" stroke="#1D1D1B" stroke-miterlimit="10"/>
<path d="M277.152 229.646L277.093 229.574C277.093 229.574 276.471 229.437 276.059 229.607C275.646 229.776 276.098 230.508 276.098 230.508" stroke="#1D1D1B" stroke-miterlimit="10"/>
<path d="M275.561 231.646L274.807 232.201L273.897 232.116L275.587 233.802" stroke="#1D1D1B" stroke-miterlimit="10"/>
<path d="M272.187 233.691L268.001 232.253C268.001 232.253 268.283 232.273 267.68 233.854C267.078 235.435 268.532 235.488 268.532 235.488H269.128" stroke="#1D1D1B" stroke-miterlimit="10"/>
<path d="M276.74 233.802C276.74 233.802 277.539 233.567 278.679 233.802C279.818 234.037 281.129 234.318 281.129 234.318C281.129 234.318 282.105 234.495 282.707 234.423C283.31 234.351 283.978 234.181 284.293 233.972C284.293 233.972 284.345 233.841 284.686 233.998L285.793 234.214L288.799 234.789C288.799 234.789 290.633 235.043 290.869 235.05C291.105 235.057 291.767 235.07 292.566 234.743C293.365 234.416 294.066 234.115 294.066 234.115L293.974 233.553L291.95 232.338C291.95 232.338 291.367 231.292 291.367 231.116C291.367 230.94 290.686 230.175 290.404 229.985C290.123 229.796 288.865 228.62 288.865 228.62L287.319 227.273L286.074 226.136L284.725 224.784C284.725 224.784 283.651 223.856 282.773 223.777C281.895 223.699 281.725 223.725 281.725 223.725" stroke="#1D1D1B" stroke-miterlimit="10"/>
<path d="M274.257 225.6L275.574 225.156L276.668 224.921L277.283 224.365L277.637 224.307H278.993L283.002 223.535L281.247 220.876C281.247 220.876 279.982 219.124 279.871 219.039C279.76 218.954 279.38 218.347 279.046 218.242C278.711 218.138 277.323 217.014 277.323 217.014C277.323 217.014 277.126 217.608 276.569 217.778C276.569 217.778 276.124 217.817 275.633 217.412C275.141 217.007 274.748 216.961 274.748 216.961L274.526 215.53L275.829 214.021L277.349 217.085" stroke="#1D1D1B" stroke-miterlimit="10"/>
<path d="M277.303 224.418L275.358 223.059L275.233 223.098C275.233 223.098 273.53 222.444 273.432 222.438C273.432 222.438 272.469 222.202 272.384 222.202C272.299 222.202 269.272 221.68 269.272 221.68L269.711 222.771L272.089 224.66L275.174 223.13" stroke="#1D1D1B" stroke-miterlimit="10"/>
<path d="M272.908 225.673L272.122 224.601C272.122 224.601 270.477 224.176 270.353 224.124C270.229 224.072 269.58 223.837 269.397 223.706C269.213 223.575 267.635 222.667 267.635 222.667L268.624 221.432L268.663 221.445L269.325 221.713" stroke="#1D1D1B" stroke-miterlimit="10"/>
<path d="M267.569 226.673L265.774 225.163L263.809 224.104L264.313 223.065L265.008 223.02L265.08 223.078L265.06 223.941L266.488 223.836L265.8 225.117" stroke="#1D1D1B" stroke-miterlimit="10"/>
<path d="M264.851 224.601L265.145 223.882H264.608L264.877 224.633" stroke="#1D1D1B" stroke-miterlimit="10"/>
<path d="M264.3 223.02L264.713 223.928L263.809 224.104" stroke="#1D1D1B" stroke-miterlimit="10"/>
<path d="M265.473 223.065H266.383L266.351 223.902L265.879 223.915L265.473 223.065Z" stroke="#1D1D1B" stroke-miterlimit="10"/>
<path d="M266.102 220.993L265.054 222.79L265.008 223.019L265.08 223.078L265.558 223.143L265.473 222.627L266.383 222.692L266.102 220.993Z" stroke="#1D1D1B" stroke-miterlimit="10"/>
<path d="M267.589 222.699L266.711 222.3L266.102 220.993L268.119 221.549L268.067 221.424H268.63" stroke="#1D1D1B" stroke-miterlimit="10"/>
<path d="M266.718 222.699L266.776 222.248H266.285L266.383 222.692" stroke="#1D1D1B" stroke-miterlimit="10"/>
<path d="M267.739 222.595L266.501 223.941L266.717 223.065L267.739 222.595Z" stroke="#1D1D1B" stroke-miterlimit="10"/>
<path d="M266.285 222.653H266.776V222.699V223.124H266.285V222.653Z" stroke="#1D1D1B" stroke-miterlimit="10"/>
<path d="M267.549 222.68L266.776 222.699" stroke="#1D1D1B" stroke-miterlimit="10"/>
<path d="M275.358 223.052L274.526 215.531L273.766 212.498L269.442 212.544L270.025 211.629L266.023 210.937L266.868 213.139L258.85 213.165C258.85 213.165 258.221 213.113 257.828 212.714L257.442 212.459L258.654 211.093L254.245 211.348L256.184 210.571C256.184 210.571 258.628 208.028 259.014 207.46C259.4 206.891 259.82 206.244 259.964 205.944C260.108 205.643 261.136 203.48 261.346 202.186C261.556 200.892 261.772 198.847 261.772 198.847C261.772 198.847 261.89 196.677 261.798 196.272C261.706 195.867 261.556 195.187 261.012 194.671C260.468 194.155 259.571 192.841 259.571 192.841L257.946 190.802L255.64 187.94L253.623 185.45L251.691 183.156L250.204 181.451L248.199 179.092L246.391 176.732L244.845 174.458C244.845 174.458 242.474 171.282 242.258 171.171C242.042 171.06 240.548 169.433 240.548 169.433C240.548 169.433 238.026 167.309 237.803 167.165C237.581 167.021 235.53 165.518 235.53 165.518L232.078 163.14C232.078 163.14 228.796 161.042 228.685 161.016C228.574 160.99 225.849 159.428 225.849 159.428C225.849 159.428 224.892 158.905 224.755 158.709C224.617 158.513 223.058 157.114 223.058 157.114C223.058 157.114 222.023 156.35 220.674 156.866C220.674 156.866 220.359 155.455 218.237 154.605C216.115 153.755 215.387 152.527 215.171 152.082C214.955 151.638 210.999 150.671 210.999 150.671C210.999 150.671 203.518 153.193 202.214 153.337L191.661 155.742C191.661 155.742 182.144 158.578 180.349 159.741C178.554 160.905 170.235 163.44 170.235 163.44L160.062 167.054C160.062 167.054 155.123 168.877 154.107 168.753C153.092 168.629 151.775 168.426 149.797 167.557C147.819 166.688 142.408 165.139 142.408 165.139C142.408 165.139 131.069 160.963 130.139 160.781C129.209 160.598 120.536 158.186 120.536 158.186L119.069 164.427C119.069 164.427 118.02 165.858 117.182 166.577C117.182 166.577 117.837 168.191 117.451 169.204C117.064 170.217 116.344 171.354 116.344 171.655C116.344 171.955 115.747 174.55 115.747 174.55C115.747 174.55 112.066 187.267 111.169 188.489L108.234 195.71C108.234 195.71 107.664 198.01 107.513 199.474C107.363 200.938 105.686 207.087 104.251 208.342C104.251 208.342 103.203 209.806 102.902 211.329C102.601 212.851 101.828 214.256 101.074 214.4C100.321 214.544 99.1288 214.25 98.8274 213.537C98.8274 213.537 99.7838 212.257 98.3492 211.479L96.764 211.57C96.764 211.57 95.8338 211.361 95.5653 211.453C95.2967 211.544 93.7704 211.544 93.7704 211.361C93.7704 211.178 96.7902 210.165 96.7902 210.165C96.7902 210.165 94.2159 206.761 88.589 208.819L89.244 209.597L87.2396 209.839L87.4819 208.643L86.7614 207.865L85.0844 209.538C85.0844 209.538 79.2479 207.388 79.0383 207.238C78.8287 207.087 76.8242 206.192 76.3722 206.192C75.9202 206.192 73.4114 205.179 73.4114 205.179C73.4114 205.179 72.062 204.343 71.6755 204.343C71.6755 204.343 69.0749 203.356 68.505 203.48C68.505 203.48 66.7692 203.389 66.5006 203.572C66.232 203.755 62.7275 203.245 62.7275 203.245C62.7275 203.245 59.164 202.382 58.9282 202.258C58.6924 202.134 55.9346 200.677 55.5481 200.35C55.1616 200.023 53.3013 199.278 53.3013 199.278L52.9541 199.997" stroke="#1D1D1B" stroke-miterlimit="10"/>
<path d="M62.02 200.199H68.2234C68.2234 200.199 66.3303 201.193 66.1796 201.343C66.029 201.493 64.7123 201.944 64.1228 201.781C63.5332 201.617 61.8694 201.127 61.8694 201.127L62.0135 200.199H62.02Z" stroke="#1D1D1B" stroke-miterlimit="10"/>
<path d="M83.8202 206.473L85.15 205.107L86.9251 206.63H85.6543L86.1915 207.695L85.8378 207.996L83.8202 206.473Z" stroke="#1D1D1B" stroke-miterlimit="10"/>
<path d="M67.9811 218.393L76.0448 222.157C76.0448 222.157 70.5554 223.268 67.9811 218.393V218.393Z" stroke="#1D1D1B" stroke-miterlimit="10"/>
<path d="M62.4459 216.04C62.4459 216.04 61.6336 216.086 60.4283 214.968C59.223 213.851 57.3823 214.968 57.3823 214.968L62.2297 216.85L62.4459 216.04Z" stroke="#1D1D1B" stroke-miterlimit="10"/>
<path d="M53 213.642L54.2577 213.942C54.2577 213.942 55.5875 212.87 56.3146 214.197C56.3146 214.197 56.0591 214.687 56.7862 215.661C57.5133 216.635 57.7295 217.83 57.7295 217.83L53 215.68" stroke="#1D1D1B" stroke-miterlimit="10"/>
<path d="M164.975 169.661L168.656 172.229L168.263 172.772L164.562 170.047L164.975 169.661Z" stroke="#1D1D1B" stroke-miterlimit="10"/>
<path d="M170.346 174.523C170.346 174.523 171.584 174.026 173.464 175.823C175.344 177.62 175.894 178.307 175.914 178.529C175.934 178.751 170.346 174.529 170.346 174.529V174.523Z" stroke="#1D1D1B" stroke-miterlimit="10"/>
<path d="M262.938 319.292C262.938 319.292 268.761 309.856 269.331 309.751C269.901 309.647 273.386 304.151 277.493 304.046C277.493 304.046 278.587 302.438 279.517 302.438C280.447 302.438 284.974 303.53 284.974 303.53C284.974 303.53 286.376 305.137 286.742 305.137C286.742 305.137 288.459 306.431 289.133 306.484C289.808 306.536 292.821 307.418 292.566 312.084L292.579 312.81L293.083 313.901L294.538 313.385C294.538 313.385 297.033 315.822 295.265 318.103C293.496 320.384 292.094 322.507 291.524 324.586H290.954L290.384 323.187H289.919C289.919 323.187 290.234 324.481 288.203 325.886C286.172 327.291 278.331 331.591 278.331 331.591C278.331 331.591 275.888 332.937 275.056 330.657C275.056 330.657 274.899 328.892 275.888 328.69C276.877 328.487 280.618 326.252 281.502 324.644C282.386 323.037 285.445 319.769 285.445 319.769V319.096L280.1 320.031L280.467 318.992C280.467 318.992 276.674 317.279 273.864 321.272L278.751 320.495C278.751 320.495 274.539 324.54 267.215 324.331C267.215 324.331 265.034 324.122 264.615 321.945C264.195 319.769 262.951 319.299 262.951 319.299L262.938 319.292Z" stroke="#1D1D1B" stroke-miterlimit="10"/>
<path d="M272.764 316.234L274.061 311.464C274.061 311.464 271.984 311.052 271.408 314.94L272.082 316.234H272.757H272.764Z" stroke="#1D1D1B" stroke-miterlimit="10"/>
<path d="M267.228 330.317C267.228 330.317 269.626 330.173 269.94 330.121C270.255 330.069 271.028 330.206 271.997 331.147L270.857 332.173C270.857 332.173 269.233 332.127 268.801 331.977C268.368 331.827 267.857 331.859 267.228 330.317V330.317Z" stroke="#1D1D1B" stroke-miterlimit="10"/>
<path d="M340.155 285.846L340.797 285.735C340.797 285.735 339.507 286.199 339.265 284.134C339.022 282.069 338.806 281.35 338.865 281.233C338.924 281.115 337.365 280.507 337.273 280.364C337.273 280.364 336.625 280.063 336.166 278.932C335.708 277.802 334.581 274.946 334.581 274.946L334.915 274.881L332.256 271.221C332.256 271.221 330.847 269.62 330.808 269.097C330.769 268.574 330.991 268.137 331.266 267.856C331.542 267.575 331.987 266.614 331.987 266.614L333.009 263.889C333.009 263.889 332.465 262.628 331.581 263.667C331.581 263.667 331.129 263.928 330.795 263.948C330.461 263.967 329.013 264.627 329.013 264.627L328.613 264.006L330.12 262.386L323.235 258.739L322.554 259.72L331.207 267.829" stroke="#1D1D1B" stroke-miterlimit="10"/>
<path d="M332.072 266.588C332.072 266.588 333.467 266.124 334.273 266.176C335.079 266.228 336.533 266.209 336.533 266.209C336.533 266.209 337.129 266.196 337.437 266.385C337.437 266.385 337.66 266.392 337.66 266.666C337.66 266.941 338.112 267.542 338.112 267.542C338.112 267.542 338.55 268.274 340.424 268.457C340.424 268.457 340.824 268.333 341.714 269.404L344.78 270.509L345.291 272.665C345.291 272.665 345.245 272.953 345.625 273.103L346.005 273.253L347.112 271.241L350.066 275.626L348.887 275.959C348.887 275.959 349.333 276.253 350.728 276.227C352.123 276.201 353.315 276.416 353.682 278.044C353.682 278.044 354.016 278.207 354.206 278.233C354.396 278.259 356.283 279.213 356.283 279.213C356.283 279.213 357.115 279.632 358.123 280.39C359.132 281.148 360.698 280.043 360.698 280.043L361.379 281.566L359.637 283.964C359.637 283.964 359.65 284.278 358.726 284.33C358.687 284.33 358.641 284.33 358.595 284.33C357.547 284.356 356.774 284.33 356.774 284.33L353.623 284.677L352.818 284.5L352.752 284.082L353.25 284.35L352.215 284.807L348.94 285.062L349.582 285.866C349.582 285.866 350.898 285.278 353.099 285.533C355.3 285.787 358.091 286.617 358.091 286.617L359.335 285.441L356.741 284.304" stroke="#1D1D1B" stroke-miterlimit="10"/>
<path d="M358.837 284.39L363.069 284.939L363.141 285.305L357.992 286.612C357.992 286.612 358.857 286.768 358.995 286.821C359.132 286.873 359.388 286.945 359.479 287.128C359.571 287.311 360.37 287.69 360.567 287.762C360.763 287.834 361.674 287.932 362.499 287.428C363.325 286.925 364.386 286.226 364.386 286.226C364.386 286.226 364.222 287.481 364.641 287.742C365.06 288.003 365.689 288.324 365.689 288.324C365.689 288.324 364.039 288.539 363.547 289.356C363.056 290.173 363.691 291.598 363.691 291.598C363.691 291.598 363.777 292.049 363.665 292.369L365.748 291.003L367.039 293.245L365.27 294.048C365.27 294.048 365.25 294.055 365.224 294.068C365.028 294.14 364.288 294.342 364.176 293.591C364.052 292.722 364.019 292.539 363.685 292.388" stroke="#1D1D1B" stroke-miterlimit="10"/>
<path d="M365.329 294.074C365.329 294.074 366.364 294.283 366.711 294.414C367.058 294.545 367.831 295.251 367.831 295.251C367.831 295.251 368.631 296.126 368.768 296.505C368.906 296.884 369.22 297.218 369.168 298.113C369.115 299.008 368.788 299.832 368.788 299.832L370.38 299.668L373.511 303.746L371.441 304.707L379.956 307.393C379.956 307.393 379.858 307.843 379.852 307.928C379.845 308.013 379.583 308.477 379.465 308.726C379.347 308.974 378.699 310.065 378.954 311.281C379.21 312.496 380.12 313.398 380.12 313.398C380.12 313.398 381.43 314.47 381.568 315.705C381.568 315.705 381.823 316.822 381.777 317.371C381.732 317.92 381.928 318.639 382.02 318.822C382.112 319.005 382.485 319.848 382.924 320.168C382.924 320.168 383.133 320.358 383.435 320.378C383.736 320.397 384.496 320.678 384.633 320.985C384.771 321.292 384.935 321.704 384.424 322.848L386.481 322.619C386.481 322.619 387.214 324.312 387.483 324.606C387.752 324.9 387.994 325.148 388.387 325.292C388.78 325.436 390.555 325.194 391.767 324.697C392.979 324.2 394.014 324.383 394.296 325.043C394.296 325.043 394.669 325.671 394.702 326.03C394.734 326.39 395.095 326.612 395.095 326.612C395.095 326.612 395.684 327.017 395.992 327.442C396.3 327.867 398.383 330.134 398.383 330.134C398.383 330.134 400.302 332.369 400.65 333.219C400.65 333.219 401.691 334.996 401.796 336.133L400.322 336.989C400.322 336.989 399.464 337.395 399.228 337.382C398.992 337.368 398.462 337.787 398.553 338.264C398.645 338.741 399.412 339.329 399.412 339.329C399.412 339.329 400.152 340.237 399.988 341.865C399.824 343.492 400.577 346.753 400.577 346.753L401.278 346.844L402.621 342.891C402.621 342.891 402.818 341.629 403.244 341.276C403.669 340.923 404.102 341.146 404.102 341.146C404.102 341.146 404.337 341.211 404.6 341.041C404.862 340.871 405.615 340.29 405.615 340.29C405.615 340.29 403.348 340.564 403.021 339.12C403.021 339.12 402.982 338.211 403.126 337.989C403.27 337.767 402.968 337.199 402.68 337.055C402.392 336.911 401.809 336.186 401.809 336.186C401.809 336.186 402.837 335.075 402.975 334.924C403.113 334.774 403.342 334.362 403.388 334.238C403.434 334.114 404.023 332.925 404.279 332.735C404.534 332.546 404.77 332.029 405.838 332.127C406.905 332.225 408.504 333.297 408.504 333.297L410.665 334.33L412.558 335.173C412.558 335.173 412.48 334.101 412.932 333.532C413.384 332.964 414.864 333.349 414.864 333.349C414.864 333.349 415.788 334.604 416.521 334.82C417.255 335.035 418.251 334.846 418.578 334.421L418.526 334.323L417.74 332.814L414.825 333.454C414.825 333.454 415.133 332.016 415.133 331.931C415.133 331.846 415.441 330.788 416.842 331.101C416.842 331.101 417.17 330.853 417.281 330.441L416.253 329.644L423.105 328.154V328.291L423.236 330.056L422.07 329.749L420.858 331.663L420.432 331.533L420.295 329.618C420.295 329.618 418.932 330.938 418.749 332.154C418.565 333.369 418.598 334.349 418.598 334.349L421.185 335.656L420.819 337.617C420.819 337.617 422.338 338.061 423.164 337.617C423.989 337.172 424.945 335.395 424.945 335.395L426.963 331.291L423.845 327.723L423.203 328.252L422.967 328.043L423.72 327.749L420.773 325.945L420.504 326.259L421.022 326.344C421.022 326.344 420.707 326.069 420.55 325.344C420.55 325.344 420.452 325.128 420.602 325.05C420.753 324.972 421.775 324.259 421.775 324.259L423.341 323.292C423.341 323.292 424.009 322.776 424.14 322.599C424.271 322.423 424.435 322.331 424.1 321.946C423.766 321.56 423.714 321.384 423.236 321.711C422.758 322.037 420.544 324.227 420.544 324.227L420.013 323.906C420.013 323.906 421.035 323.357 421.218 322.331C421.218 322.331 421.356 321.946 420.904 320.959C420.904 320.959 420.222 319.619 420.19 319.338L419.371 319.835L419.07 319.338L422.725 317.515L418.768 317.483L420.183 318.169C420.183 318.169 416.286 318.332 415.821 318.43C415.821 318.43 413.731 318.613 412.938 319.11C412.938 319.11 410.161 320.273 409.394 321.064C409.394 321.064 406.368 323.377 406.231 323.586C406.093 323.795 404.423 324.736 404.305 324.658C404.187 324.579 403.499 322.913 403.591 322.39C403.682 321.867 403.905 319.887 404.069 319.724C404.233 319.561 403.859 319.234 405.038 318.783L406.067 318.214C406.067 318.214 406.886 317.528 408.143 318.156C408.143 318.156 408.995 318.75 409.132 318.992C409.27 319.234 409.925 319.456 410.613 318.979C411.301 318.502 413.495 316.894 414.091 316.757C414.091 316.757 417.425 315.234 419.377 315.025C419.377 315.025 426.059 313.503 426.976 313.503C427.893 313.503 429.19 313.176 429.387 312.725C429.583 312.274 429.714 311.549 429.655 311.353C429.596 311.157 430.088 310.248 430.369 310.026C430.369 310.026 430.356 310.993 430.788 311.725C431.221 312.457 432.4 312.575 432.4 312.575C432.4 312.575 433.284 312.47 433.658 312.411C434.031 312.353 436.749 312.261 438.616 313.084C440.483 313.908 442.959 314.829 442.959 314.829" stroke="#1D1D1B" stroke-miterlimit="10"/>
<path d="M442.94 318.626C442.94 318.626 438.551 314.588 437.883 314.287C437.883 314.287 435.236 312.281 434.09 312.405" stroke="#1D1D1B" stroke-miterlimit="10"/>
<path d="M432.511 327.389C432.511 327.389 430.919 327.762 431.037 328.847C431.037 328.847 431.247 329.605 431.771 330.206C432.295 330.807 432.347 331.219 432.347 331.219C432.347 331.219 429.996 330.088 429.95 329.102C429.904 328.115 430.284 327.102 432.511 327.389Z" stroke="#1D1D1B" stroke-miterlimit="10"/>
<path d="M409.539 332.715L412.074 333.003C412.074 333.003 411.871 332.271 411.825 332.029C411.779 331.787 411.759 331.611 410.947 331.702C410.135 331.794 409.539 331.84 409.539 331.84V332.715V332.715Z" stroke="#1D1D1B" stroke-miterlimit="10"/>
<path d="M137.102 349.432C137.102 349.432 155.326 367.115 162.82 380.316C170.313 393.517 176.052 408.959 176.052 408.959C176.052 408.959 176.543 410.775 178.351 410.704L179.576 415.311L183.762 422.074L185.995 421.428C185.995 421.428 184.77 423.878 184.77 424.597C184.77 425.316 185.347 427.335 186.932 428.773C188.517 430.211 192.775 437.268 192.775 437.268C192.775 437.268 193.352 438.059 194.432 439.065C195.513 440.072 203.092 446.626 204.966 449.214C206.839 451.802 209.007 452.096 209.007 452.096C209.007 452.096 210.088 452.887 210.809 453.965C210.809 453.965 213.042 455.331 214.274 455.331C215.505 455.331 220.982 457.853 221.637 458.5C222.292 459.147 225.895 462.389 226.687 463.467C227.48 464.545 229.648 466.133 230.585 466.061C231.521 465.99 244.943 459.147 244.943 459.147L270.13 445.11C270.13 445.11 271.139 443.888 272.515 445.613C273.89 447.339 278.069 452.599 278.286 453.318C278.502 454.037 282.471 459.938 282.904 460.52C283.336 461.101 287.09 464.408 287.954 467.068C288.819 469.728 299.575 481.896 299.575 481.896L299.935 480.889L291.275 466.78C291.275 466.78 290.05 465.415 289.474 464.983C288.897 464.552 287.528 461.382 287.528 461.382C287.528 461.382 281.974 453.965 281.757 453.103C281.541 452.24 277.86 446.26 277.86 446.26L275.914 444.32C275.914 444.32 274.257 442.954 275.914 442.091C277.572 441.229 284.79 437.34 285.295 436.765C285.799 436.19 288.688 434.243 292.441 436.981C296.195 439.719 296.987 439.791 296.987 439.791L301.389 440.438C301.389 440.438 303.479 438.856 304.062 440.725V442.451L305.863 443.816L303.047 444.176C303.047 444.176 303.767 443.169 301.966 442.451C300.164 441.732 301.678 439.209 301.678 439.209C301.678 439.209 301.389 437.196 299.876 436.83C298.363 436.465 298.579 435.033 298.579 435.033L299.077 434.72L300.204 435.844L301.009 432.276L302.568 432.975L302.352 435.739L302.837 435.929L304.291 432.23L306.171 435.314C306.171 435.314 307.298 435.073 307.973 435.288C308.647 435.504 318.912 439.281 320.464 439.418C320.464 439.418 324.414 434.648 321.945 432.178C321.945 432.178 318.584 431.321 318.159 431.132C317.733 430.942 316.947 430.302 316.704 429.982C316.462 429.662 312.702 426.446 309.748 425.61L309.132 425.714L309.027 427.165L304.435 427.218L299.922 424.055V423.571L302.719 423.708L303.178 422.29C303.178 422.29 303.223 422.316 303.302 422.362C303.335 422.382 303.368 422.395 303.407 422.421C303.911 422.695 305.104 423.316 305.542 423.316C306.106 423.316 307.291 423.264 307.586 423.127C307.704 423.074 307.128 422.427 306.263 421.676C305.018 420.598 303.184 419.291 301.999 419.212C301.999 419.212 300.629 417.069 299.175 418.219L300.413 419.238C300.413 419.238 300.76 419.585 300.787 420.179C300.813 420.774 303.086 422.323 303.086 422.323L303.328 421.264L306.165 421.676H306.204L306.237 421.689H306.309" stroke="#1D1D1B" stroke-miterlimit="10"/>
<path d="M297.21 418.435L299.208 421.258C299.208 421.258 297.132 421.879 295.874 421.107C294.616 420.336 295.933 419.454 295.933 419.454L297.21 418.435V418.435Z" stroke="#1D1D1B" stroke-miterlimit="10"/>
<path d="M301.985 419.108C301.985 419.108 302.359 417.095 302.699 416.539C303.04 415.984 303.636 415.605 304.579 415.272L303.643 413.801C303.643 413.801 303.138 413.082 302.726 412.912C302.313 412.742 298.501 410.553 298.501 410.553L296.535 409.547L297.649 409.168L295.278 407.41L292.926 405.619L289.625 403.077L289.887 406.384C289.887 406.384 288.917 406.449 287.483 405.998C286.048 405.547 284.823 405.208 284.823 405.208C284.823 405.208 284.122 404.018 282.995 403.528C281.869 403.038 280.611 402.025 280.611 402.025L278.371 400.888C278.371 400.888 277.487 400.607 276.51 400.888L275.089 401.038L274.873 401.359L276.262 402.711L273.157 402.548L271.886 402.587L269.547 402.169H269.495L269.39 402.143L265.348 401.417L266.2 401.254L265.27 401.692C265.27 401.692 265.807 399.777 267.176 400.927L268.44 401.3L269.416 402.189L270.504 401.725L268.25 401.195L267.183 400.855L267.248 399.326L270.471 401.803L272.371 401.332L268.021 399.862L267.929 399.816L267.877 399.764L267.798 399.777" stroke="#1D1D1B" stroke-miterlimit="10"/>
<path d="M267.183 399.425L267.549 398.209C267.549 398.209 270.366 398.307 271.637 399.425C271.637 399.425 272.384 399.987 272.678 400.457C272.973 400.928 274.86 401.372 274.86 401.372H272.259L271.899 402.64" stroke="#1D1D1B" stroke-miterlimit="10"/>
<path d="M275.063 401C275.063 401 272.24 397.15 271.919 396.883C271.919 396.883 271.054 395.36 269.521 396.007C269.521 396.007 269.01 396.157 268.676 396.811C268.342 397.464 267.556 398.203 267.556 398.203C267.556 398.203 266.678 397.431 266.318 397.085C265.958 396.739 264.975 396.288 264.975 396.288C264.975 396.288 259.767 393.452 259.414 393.386C259.06 393.321 257.553 392.726 255.929 392.628L256.197 393.929L249.097 389.609C249.097 389.609 248.782 389.583 248.874 389.165C248.966 388.746 249.11 388.766 248.972 388.465C248.835 388.165 248.533 388.021 248.062 387.988C247.59 387.956 247.302 387.76 247.302 387.76C247.302 387.76 245.697 387.113 245.658 387.074C245.618 387.034 245.468 387.067 245.658 386.512C245.847 385.956 246.221 385.629 245.736 384.793C245.251 383.956 244.708 383.623 244.708 383.623C244.708 383.623 243.535 382.591 243.804 381.277L243.26 381.166C243.26 381.166 239.985 378.839 239.854 378.663C239.723 378.487 238.871 377.676 238.871 377.676C238.871 377.676 237.424 376.356 236.533 375.971C235.642 375.585 233.971 374.925 232.583 374.84C231.194 374.755 230.185 374.154 229.779 373.344C229.373 372.533 229.406 371.749 229.406 371.749C229.406 371.749 229.189 370.252 227.853 370.2C227.853 370.2 227.152 370.207 226.543 370.429C225.934 370.651 223.15 371.037 223.15 371.037C223.15 371.037 221.525 371.292 220.982 371.559C220.438 371.827 219.324 372.416 218.84 373.487C218.355 374.559 218.669 374.879 218.669 374.879L215.505 376.918C215.505 376.918 214.032 377.866 213.593 378.362C213.154 378.859 212.872 379.369 212.715 379.689C212.558 380.009 212.06 381.074 210.35 380.695C210.35 380.695 210.9 381.983 210.448 382.421C210.141 382.715 209.243 382.898 208.293 382.996C207.835 383.041 207.37 383.074 206.95 383.087L206.295 384.669C206.295 384.669 207.245 385.296 207.527 385.597C207.809 385.897 208.221 386.08 208.844 385.433C209.466 384.786 209.865 384.12 209.865 384.12L208.215 382.956" stroke="#1D1D1B" stroke-miterlimit="10"/>
<path d="M206.243 384.688L204.573 385.989C204.573 385.989 203.302 386.904 203.033 387.315C202.765 387.727 202.11 388.616 202.044 388.688C201.979 388.76 201.651 389.21 200.839 389.335C200.027 389.459 199.221 389.021 199.221 389.021L198.697 388.289C198.697 388.289 202.391 385.433 202.47 385.427C202.548 385.42 204.108 383.956 204.448 383.688C204.789 383.42 205.247 382.93 206.905 383.009C206.905 383.009 207.697 382.146 207.92 381.538C208.143 380.931 208.994 380.297 209.937 380.434L210.455 380.728" stroke="#1D1D1B" stroke-miterlimit="10"/>
<path d="M209.957 380.388C209.957 380.388 209.806 379.532 209.918 379.166C210.029 378.8 212.099 376.827 212.099 376.827L202.509 371.912C202.509 371.912 195.441 367.763 195.29 367.652C195.14 367.541 190.856 365.018 190.856 365.018C190.856 365.018 184.869 361.783 184.279 361.581C183.689 361.378 178.161 358.823 176.274 358.64C174.388 358.457 171.676 357.614 171.676 357.614L171.289 358.235C171.289 358.235 173.196 359.803 173.765 360.921C173.765 360.921 172.724 361.339 172.01 361.176C171.296 361.012 162.263 355.804 162.263 355.804C162.263 355.804 157.959 352.589 155.267 354.725C155.267 354.725 154.075 352.935 153.616 351.817C153.158 350.7 150.76 350.739 150.76 350.739C150.76 350.739 149.81 348.929 146.548 347.341C143.286 345.753 142.094 345.439 141.989 345.224L141.458 345.498L142.428 349.047L140.174 348.132V348.537L137.39 348.975C137.39 348.975 137.351 349.249 137.554 349.524C137.757 349.798 138.537 350.55 138.897 351.216" stroke="#1D1D1B" stroke-miterlimit="10"/>
<path d="M131.089 344.478L134.115 342.93L136.093 347.027L135.366 347.491L131.089 344.478Z" stroke="#1D1D1B" stroke-miterlimit="10"/>
<path d="M161.955 361.463L170.405 367.743C170.405 367.743 164.444 368.841 161.955 361.463Z" stroke="#1D1D1B" stroke-miterlimit="10"/>
<path d="M300.525 398.372C300.525 398.372 309.361 401.751 309.885 402.052C310.409 402.352 311.176 402.627 311.176 402.627C311.176 402.627 313.023 404.822 313.403 405.509L313.593 405.757L313.043 406.358L310.095 404.685L309.296 410.782C309.296 410.782 306.656 410.547 305.831 409.22C305.005 407.894 306.184 408.913 304.56 407.815L295.396 401.117C295.396 401.117 294.518 400.98 295.206 399.719C295.893 398.457 296.169 398.209 296.169 398.209C296.169 398.209 298.73 399.634 299.719 399.529L300.518 398.379L300.525 398.372Z" stroke="#1D1D1B" stroke-miterlimit="10"/>
<path d="M316.881 401.894L320.969 401.339C320.969 401.339 320.144 402.796 319.24 402.829C318.336 402.862 316.881 401.894 316.881 401.894Z" stroke="#1D1D1B" stroke-miterlimit="10"/>
<path d="M98.572 375.167L99.5612 374.638L101.087 377.84L100.59 378.206L98.572 375.167Z" stroke="#1D1D1B" stroke-miterlimit="10"/>
<path d="M133.028 412.468C133.028 412.468 133.598 412.906 134.063 412.965C134.528 413.024 134.777 412.697 134.777 412.697C134.777 412.697 135.058 412.22 135.098 411.756C135.137 411.292 135.301 411.096 135.301 411.096L135.7 410.469L138.078 411.456L136.585 412.344C136.585 412.344 136.958 413.115 136.978 413.227L137.443 414.181C137.443 414.181 137.77 414.867 137.744 415.298C137.718 415.729 137.639 416.2 136.997 416.912C136.355 417.625 135.334 418.67 135.334 418.67L138.609 417.056L138.976 417.611L136.506 421.807C136.506 421.807 135.248 422.055 134.168 421.748C133.087 421.441 132.405 420.931 132.405 420.931C132.405 420.931 131.253 419.958 130.886 419.154C130.519 418.35 130.453 418.285 130.401 418.128C130.349 417.971 129.602 417.206 129.261 417.108C128.921 417.01 128.606 416.644 128.606 416.644C128.606 416.644 127.1 418.174 126.877 419.971C126.654 421.768 126.562 422.552 126.654 423.277C126.746 424.003 127.054 425.297 127.977 426.329L126.176 427.238C126.176 427.238 125.966 429.296 125.888 429.584C125.809 429.871 125.285 430.766 124.84 431.315C124.394 431.864 123.281 432.851 123.281 432.851C123.281 432.851 122.233 433.962 121.08 433.563C121.08 433.563 120.32 433.263 120.202 432.479C120.084 431.694 119.291 431.119 119.291 431.119C119.291 431.119 117.169 428.486 117.044 428.081L117.634 427.571C117.634 427.571 117.883 427.362 118.296 427.623L120.261 428.793L121.309 427.898C121.309 427.898 120.595 425.728 120.497 424.78C120.398 423.833 120.261 420.506 120.261 420.506L120.071 415.88C120.071 415.88 120.005 414.632 119.77 414.135C119.534 413.638 118.63 412.841 118.63 412.841L117.044 411.906C117.044 411.906 115.918 411.384 115.669 409.972C115.669 409.972 115.531 409.763 115.669 408.423C115.806 407.084 115.544 406.365 115.544 406.365C115.544 406.365 115.309 404.646 115.309 403.594C115.309 402.542 114.732 400.117 114.732 400.117C114.732 400.117 113.848 397.451 113.71 397.19C113.573 396.928 112.171 394.347 111.987 394.184C111.804 394.02 110.704 392.772 110.599 392.373C110.494 391.975 109.4 389.955 109.4 389.955C109.4 389.955 108.614 389.184 109.236 388.786C109.859 388.387 111.496 388.472 111.496 388.472L108.994 381.578C108.994 381.578 110.658 379.598 110.848 378.023C111.038 376.448 111.267 375.716 111.273 374.833C111.28 373.951 111.706 372.527 111.706 372.527C111.706 372.527 112.23 370.246 112.118 369.847C112.007 369.449 111.896 368.9 111.942 368.566C111.987 368.233 112.59 366.247 112.086 365.763C111.581 365.279 111.267 364.907 111.267 364.907C111.267 364.907 110.972 364.632 111.064 364.325C111.156 364.018 111.267 361.803 111.267 361.803C111.267 361.803 113.547 362.43 114.012 362.691C114.477 362.953 117.981 362.561 118.112 362.495C118.243 362.43 119.206 361.737 119.239 361.607C119.272 361.476 119.625 362.195 119.625 362.195C119.625 362.195 119.789 362.731 119.062 363.142C118.335 363.554 117.994 363.757 117.994 363.757L120.981 364.861L121.27 364.064C121.27 364.064 121.761 365.077 122.377 365.024C122.992 364.972 123.588 363.6 123.588 363.6L125.252 364.9C125.252 364.9 124.709 365.606 124.676 366.037C124.643 366.469 125.252 367.266 125.252 367.266C125.252 367.266 126.051 366.776 126.137 366.148C126.222 365.521 126.065 364.737 126.065 364.737C126.065 364.737 126.189 363.129 126.444 362.874C126.7 362.62 126.805 362.352 128.292 362.711L129.235 362.874L127.787 364.521L128.22 364.704C128.22 364.704 129.327 363.567 130.211 364.43C130.211 364.43 130.807 364.848 131.01 365.26C131.213 365.671 132.55 366.109 132.55 366.109C132.55 366.109 133.454 366.717 134.285 367.338C134.927 367.815 135.524 368.298 135.628 368.514L132.13 369.475C132.13 369.475 133.126 367.756 133.27 367.632C133.414 367.508 133.781 367.161 134.377 367.521C134.973 367.88 135.772 368.632 135.772 368.632C135.772 368.632 134.24 369.677 133.945 372.494C133.65 375.311 133.676 376.245 133.676 376.245C133.676 376.245 134.148 378.656 131.816 378.768L134.259 380.623C134.259 380.623 134.751 384.198 134.908 384.688C135.065 385.178 136.696 389.805 136.631 392.105C136.565 394.406 136.454 395.412 133.231 394.693L133.185 400.006H133.722L132.825 400.986L135.871 406.816L134.24 407.397L135.694 410.482L132.962 411.756L131.148 411.24L129.851 415.017L133.565 414.279L132.962 412.449V411.652" stroke="#1D1D1B" stroke-miterlimit="10"/>
<path d="M139.474 377.604L140.882 373.265C140.882 373.265 142.29 374.728 141.707 375.924C141.124 377.12 139.474 377.604 139.474 377.604V377.604Z" stroke="#1D1D1B" stroke-miterlimit="10"/>
<path d="M151.402 417.2L153.682 422.088C153.682 422.088 151.736 422.754 151.402 419.644C151.068 416.533 151.402 417.2 151.402 417.2Z" stroke="#1D1D1B" stroke-miterlimit="10"/>
<path d="M138.786 436.014L139.794 436.438C139.794 436.438 138.701 440.882 138.072 441.372C137.443 441.862 137.102 441.908 137.102 441.908L136.506 441.124C136.506 441.124 136.192 441.235 136.663 440.431C137.135 439.628 138.786 436.014 138.786 436.014Z" stroke="#1D1D1B" stroke-miterlimit="10"/>
<path d="M122.029 422.297L124.191 423.859L123.844 424.767L122.029 424.872V422.297Z" stroke="#1D1D1B" stroke-miterlimit="10"/>
<path d="M145.277 522.243L145.801 520.557L149.823 518.061C149.823 518.061 154.075 515.212 154.54 514.865C155.005 514.519 161.883 510.742 161.883 510.742L163.802 509.461L164.149 509.984L146.148 522.773L145.277 522.25V522.243Z" stroke="#1D1D1B" stroke-miterlimit="10"/>
<path d="M142.362 523.929L137.351 527.53C137.351 527.53 140.148 527.294 141.373 526.138C142.598 524.981 142.618 524.118 142.585 523.929C142.552 523.739 142.362 523.929 142.362 523.929V523.929Z" stroke="#1D1D1B" stroke-miterlimit="10"/>
<path d="M116.75 540.404L118.25 539.842C118.25 539.842 119.449 542.064 119.331 543.377C119.213 544.691 119.075 546.324 119.075 546.324L116.376 544.593L117.267 540.639L116.75 540.404Z" stroke="#1D1D1B" stroke-miterlimit="10"/>
<path d="M68.8981 525.889L69.2583 525.249L72.134 526.752L71.6689 527.576L68.8981 525.889Z" stroke="#1D1D1B" stroke-miterlimit="10"/>
<path d="M55.0962 534.966C55.0962 534.966 56.177 534.43 56.7469 534.43C57.3168 534.43 59.2295 534.071 60.5593 532.208C61.8891 530.346 60.5593 529.019 60.5593 529.019C60.5593 529.019 59.3344 528.732 58.6924 526.686C58.0505 524.641 58.6597 524.464 57.6509 522.563L59.0527 522.739L68.3282 530.954C68.3282 530.954 69.5859 532.568 69.1929 534.973C68.7999 537.378 68.5444 538.665 68.9047 539.887C69.265 541.109 69.4811 541.109 69.9135 541.357C70.3458 541.606 76.274 543.795 76.274 543.795C76.274 543.795 75.9858 541.821 77.3549 541.717C78.7239 541.612 78.8615 541.749 79.6213 541.142C80.3812 540.534 81.3441 539.704 82.1367 539.743C82.9294 539.782 83.2503 539.528 83.2503 539.528C83.2503 539.528 83.8595 539.743 84.2919 540.678C84.7242 541.612 85.0124 542.651 85.0124 542.651C85.0124 542.651 85.3006 543.547 83.8268 544.409L82.4577 545.664C82.4577 545.664 81.3769 545.559 81.128 546.919L80.8397 548.356L82.4905 549.003H90.469C90.469 549.003 96.8296 548.683 97.6222 548.788C98.4148 548.892 107.114 549.003 107.114 549.003H145.978C145.978 549.003 147.701 547.03 145.546 545.2C143.391 543.37 143.351 542.22 143.351 542.22L146.227 543.762L146.908 540.462C146.908 540.462 148.487 541.037 149.208 541.037C149.928 541.037 151.978 541.325 151.978 542.651V544.514L154.389 543.089L155.359 544.834L157.121 541.854L153.38 540.096V539.057C153.38 539.057 155.359 538.809 156.007 538.521C156.656 538.234 159.708 539.312 159.708 539.312C159.708 539.312 164.994 540.782 165.715 540.782C166.435 540.782 173.517 541.789 173.517 541.789L175.279 538.384L176.68 539.103C176.68 539.103 176.825 535.986 178.403 535.012C178.403 535.012 179.877 534.94 180.558 534.188C181.24 533.437 181.888 530.457 181.888 530.457L183.329 531.496L179.052 530.849V530.058C179.052 530.058 181.711 528.444 185.845 529.451C185.845 529.451 185.701 528.34 186.061 527.66C186.421 526.98 186.598 524.647 185.524 523.282C184.449 521.916 185.668 519.589 186.781 519.302C187.895 519.014 189.48 517.041 189.48 517.041C189.48 517.041 190.378 516.721 190.921 516.864C191.465 517.008 194.301 515.538 196.024 517.943L196.85 517.975C196.85 517.975 197.642 518.335 197.891 518.367C198.14 518.4 197.603 520.517 197.603 520.517L196.594 519.838L198.317 520.125C198.317 520.125 198.893 519.805 199.326 519.766C199.758 519.727 200.406 519.446 201.193 520.125C201.979 520.805 203.243 522.171 205.11 520.7L197.059 515.283L197.596 514.172L195.657 513.884C195.657 513.884 192.926 510.839 193.751 507.572C193.751 507.572 190.908 505.206 194.649 502.409L195.258 503.807C195.258 503.807 196.908 499.932 197.773 499.684C198.638 499.436 199.607 500.363 199.607 500.363L201.618 502.984L202.228 500.795C202.228 500.795 204.022 503.304 205.536 500.076C205.536 500.076 208.195 502.657 209.02 504.199C209.846 505.742 212.007 505.918 212.007 505.918L212.944 504.232C212.944 504.232 213.337 505.487 213.481 505.735C213.625 505.984 212.8 507.885 211.975 508.643C211.975 508.643 213.16 510.937 213.016 512.447C212.872 513.956 212.152 514.42 212.152 514.42C212.152 514.42 211.686 514.995 212.224 515.603C212.761 516.211 213.665 517.002 213.914 517.106C214.163 517.211 215.315 515.42 215.315 515.42C215.315 515.42 213.481 513.878 215.492 512.407C215.492 512.407 216.678 512.584 217.038 513.59C217.399 514.597 217.687 515.779 217.687 515.779C217.687 515.779 217.903 516.355 217.254 516.819C216.606 517.283 215.709 518.505 215.709 518.505C215.709 518.505 215.276 518.936 216.102 519.511C216.927 520.086 219.193 521.053 219.442 521.556L219.645 521.681L221.879 519.962L222.37 520.413C222.37 520.413 220.248 521.053 221.407 524.687L222.37 521.615H222.737V525.647L226.779 521.949L227.408 522.177L225.75 525.517L228.764 524.458L228.168 525.713L231.05 527.562V527.098L236.618 528.915L232.144 530.3C232.144 530.3 233.834 531.457 234.993 531.856C236.153 532.254 237.247 531.326 237.247 531.326C237.247 531.326 238.111 530.464 238.439 531.359L238.74 532.052C238.74 532.052 244.78 534.443 245.389 534.496C245.998 534.548 249.896 535.554 250.76 536.116C251.625 536.678 255.83 537.58 256.741 537.534C257.652 537.489 258.818 537.587 259.885 538.397C260.953 539.207 262.872 539.358 263.383 537.639L266.423 539.103C266.423 539.103 268.047 539.965 270.373 539.965C272.698 539.965 274.074 541.129 274.074 541.129C274.074 541.129 276.052 542.292 278.987 542.089C281.921 541.887 281.974 542.795 281.974 542.795C281.974 542.795 282.838 544.311 285.367 543.351L287.09 544.409V543.854C287.09 543.854 289.317 544.207 290.588 544.154C291.858 544.102 292.972 543.396 293.529 543.952C294.086 544.507 293.882 545.572 295.048 545.925L294.341 547.696C294.341 547.696 297.839 546.991 303.158 547.899C303.158 547.899 305.844 548.304 307.265 547.899C308.687 547.494 311.32 547.141 311.32 547.141L309.8 548.99L316.338 548.605L316.135 535.26L316.999 535.11C316.999 535.11 317.353 535.816 317.608 536.371C317.864 536.927 317.661 538.953 317.608 539.756C317.556 540.56 318.165 547.801 318.827 548.99L442.946 549.16C442.946 549.16 442.894 549.781 442.481 549.931C442.068 550.082 53.2162 549.931 53.2162 549.931C53.2162 549.931 53 549.356 53 549.095L71.7083 548.944C71.7083 548.944 72.2323 549.075 72.5664 548.873C72.9005 548.67 74.9443 546.625 75.1146 545.827C75.2849 545.03 72.2847 543.566 72.2847 543.566C72.2847 543.566 67.3194 542.044 66.4089 541.227C65.4984 540.41 63.8018 539.168 63.5267 538.724C63.2516 538.279 61.1816 537.293 60.9589 537.293C60.7362 537.293 58.581 535.973 58.188 535.456L55.2272 535.678L55.0962 534.966V534.966Z" stroke="#1D1D1B" stroke-miterlimit="10"/>
<path d="M172.56 548.475L180.139 546.436C180.139 546.436 181.063 546.031 181.836 546.436C182.609 546.841 183.034 547.782 183.034 547.782C183.034 547.782 182.419 548.743 182.052 548.802C181.685 548.86 172.567 548.802 172.567 548.802V548.475H172.56Z" stroke="#1D1D1B" stroke-miterlimit="10"/>
<path d="M214.929 526.941L216.691 529.255C216.691 529.255 215.689 529.738 215.479 529.98C215.27 530.222 213.265 529.327 214.929 526.948V526.941Z" stroke="#1D1D1B" stroke-miterlimit="10"/>
<path d="M206.774 522.393C206.774 522.393 207.985 525.184 208.988 525.876C209.99 526.569 212.407 527.425 212.407 527.425C212.407 527.425 212.997 527.321 213.376 526.772C213.756 526.223 212.997 525.876 212.997 525.876C212.997 525.876 210.16 525.151 210.645 523.047C210.645 523.047 210.782 521.772 206.774 522.393V522.393Z" stroke="#1D1D1B" stroke-miterlimit="10"/>
<path d="M207.088 539.253C207.088 539.253 213.285 536.358 214.281 536.319C215.276 536.28 221.774 534.078 221.774 534.078C221.774 534.078 223.608 532.973 224.886 534.078C226.163 535.182 225.993 535.731 225.993 535.731L220.635 536.143L220.425 536.626L232.694 538.835C232.694 538.835 232.622 540.351 233.729 540.319C233.729 540.319 235.386 539.489 235.596 540.149C235.596 540.149 234.731 541.253 234.731 541.907C234.731 542.56 235.943 543.116 235.943 543.116C235.943 543.116 237.6 543.462 237.876 543.704C238.151 543.946 239.395 544.632 239.395 544.632V545.325H237.496C237.496 545.325 233.729 544.808 232.072 544.253C230.414 543.697 229.373 542.286 229.373 542.286L223.707 542.456C223.707 542.456 222.462 542.835 222.292 543.148C222.122 543.462 221.257 544.357 220.53 543.181L220.425 542.181C220.425 542.181 220.497 543.423 219.213 543.351C217.929 543.279 218.833 542.763 217.137 542.939L218.067 544.834C218.067 544.834 213.468 544.285 212.119 543.665C210.769 543.044 207.075 539.253 207.075 539.253H207.088Z" stroke="#1D1D1B" stroke-miterlimit="10"/>
</g>
<defs>
<clipPath id="clip0_150_1518">
<rect width="389.94" height="550.174" fill="white" transform="translate(53)"/>
</clipPath>
</defs>
</svg>
