<svg width="671" height="740" viewBox="0 0 671 740" fill="none" xmlns="http://www.w3.org/2000/svg">
<path d="M194.291 538.672C191.715 537.425 189.295 535.903 187.071 534.13C165.978 517.035 152.698 516.717 152.852 443.866C152.852 443.866 155.323 393.805 123.051 350.751C111.937 336.242 105.495 318.626 104.509 300.05C103.914 286.454 106.128 272.74 111.018 259.742C112.318 256.276 114.34 248.643 115.842 245.356C126.551 222.644 149.9 151.75 272.551 149.077L274.334 149.026C279.745 148.769 318.079 148.939 328.193 204.069C337.415 254.164 393.104 264.98 410.179 267.174C415.464 267.899 420.862 267.897 426.222 267.168C444.416 265.285 462.612 267.195 479.631 272.774C496.65 278.353 512.111 287.476 525.012 299.553C537.912 311.629 547.964 326.389 554.514 342.874C561.065 359.36 563.969 377.202 563.037 395.245L562.984 396.242C561.272 429.295 559.193 448.729 570.723 467.065C582.252 485.402 598.996 525.99 522.592 596.685C446.189 667.38 335.055 657.958 335.055 657.958C335.055 657.958 284.629 652.452 261.797 610.373C257.494 602.263 252.579 594.509 247.09 587.172C235.438 571.936 215.831 549.522 194.291 538.672Z" fill="#46D146"/>
<g opacity="0.5" clip-path="url(#clip0_150_1520)">
<path d="M125.027 243.474C125.027 243.474 126.553 239.586 129.769 239.925C132.985 240.265 136.713 241.023 136.713 241.023L135.756 241.559L139.85 243.16C139.85 243.16 140.047 243.879 139.326 244.317C138.508 244.82 137.171 244.48 137.171 244.48C135.219 243.977 133.202 243.801 131.23 243.369C129.808 243.062 127.738 242.866 125.02 243.467L125.027 243.474Z" stroke="#1D1D1B" stroke-miterlimit="10"/>
<path d="M140.283 242.252C140.283 242.252 141.226 243.324 143.597 242.716C143.597 242.716 144.292 242.076 147.613 242.905L154.124 243.945C154.124 243.945 155.847 244.284 156.869 244.605C157.891 244.925 159.247 245.252 159.247 245.252V246.029L152.408 246.441L157.773 250.649L154.497 251.793C154.497 251.793 154.334 249.957 152.041 249.584L149.748 249.218C149.748 249.218 148.726 249.382 148.274 251.427C147.822 253.472 146.021 254.002 145.615 254.041C145.209 254.08 143.158 254.204 142.995 254.041C142.995 254.041 140.597 252.937 139.89 252.081C139.89 252.081 139.064 250.689 139.018 250.244L135.252 252.002V252.368L138.036 253.923C138.036 253.923 135.088 256.25 133.614 253.557C133.614 253.557 132.874 252.126 134.846 249.878C134.846 249.878 136.608 247.996 140.787 247.303C144.966 246.611 149.591 246.16 149.591 246.16C149.591 246.16 144.351 244.605 141.77 245.016C139.189 245.428 139.883 242.99 140.296 242.265L140.283 242.252Z" stroke="#1D1D1B" stroke-miterlimit="10"/>
<path d="M154.923 252.08L158.205 253.452C158.205 253.452 156.751 256.753 151.478 257.844C151.478 257.844 148.7 257.87 147.724 258.177C146.748 258.484 143.434 257.615 143.434 257.615V256.89C143.434 256.89 154.203 255.191 154.923 252.08V252.08Z" stroke="#1D1D1B" stroke-miterlimit="10"/>
<path d="M183.713 243.859L179.18 246.604L179.501 247.016H182.069C182.069 247.016 180.326 249.166 182.619 249.989C184.912 250.813 188.527 250.813 188.527 250.813C188.527 250.813 192.602 250.538 193.886 249.577C195.17 248.617 195.445 248.846 194.619 246.055C194.619 246.055 192.556 246.97 191.364 248.159C190.172 249.349 187.132 248.251 187.132 248.251C187.132 248.251 185.18 248.114 183.713 243.866V243.859Z" stroke="#1D1D1B" stroke-miterlimit="10"/>
<path d="M192.687 239.657C192.687 239.657 199.559 236.776 203.869 237.279C203.869 237.279 203.6 238.507 203.869 239.246C204.137 239.984 203.816 241.017 202.86 241.115C202.86 241.115 201.648 241.363 201.53 241.435C201.412 241.507 201.281 241.533 199.997 240.847C198.714 240.161 194.246 239.788 193.355 240.357L192.694 239.657H192.687Z" stroke="#1D1D1B" stroke-miterlimit="10"/>
<path d="M190.447 251.989V252.707L189.68 253.328H195.733C195.733 253.328 196.788 253.76 197.174 254.335C197.174 254.335 199.578 253.139 200.056 255.583C200.056 255.583 200.921 257.785 201.399 258.792C201.399 258.792 201.786 260.419 201.976 260.759C202.166 261.098 201.976 262.771 200.633 262.726C200.633 262.726 200.155 262.438 199.67 266.797L198.805 272.881C198.805 272.881 196.643 272.659 195.438 274.9C194.233 277.142 192.7 278.736 191.56 278.704C190.42 278.671 188.888 277.959 188.888 277.959L185.986 276.658C185.986 276.658 184.551 276.233 183.739 276.462C183.739 276.462 184.427 273.763 185.141 272.986C185.855 272.208 186.772 271.326 186.936 269.568C187.099 267.81 187.198 266.444 184.754 263.131C184.754 263.131 184.984 261.798 184.361 260.922C183.739 260.046 180.614 253.733 180.614 253.733C180.614 253.733 180.09 252.159 182.245 251.989C184.401 251.819 190.46 251.989 190.46 251.989H190.447Z" stroke="#1D1D1B" stroke-miterlimit="10"/>
<path d="M169.773 287.65L173.704 287.912V289.304L169.773 288.742V287.65Z" stroke="#1D1D1B" stroke-miterlimit="10"/>
<path d="M154.085 293.447L158.284 293.754C158.284 293.754 158.716 293.532 159.227 294.715C159.227 294.715 158.631 295.225 158.264 295.225C157.897 295.225 153.947 294.336 153.947 294.336L154.091 293.447H154.085Z" stroke="#1D1D1B" stroke-miterlimit="10"/>
<path d="M188.206 320.659C188.206 320.659 191.718 317.156 195.661 321.763L188.206 320.659Z" stroke="#1D1D1B" stroke-miterlimit="10"/>
<path d="M193.892 328.782C193.892 328.782 196.381 327.279 196.558 327.24C196.735 327.2 198.543 325.475 196.1 324.077C193.656 322.678 191.423 322.456 191.423 322.456C191.423 322.456 189.078 322.175 188.311 322.815C187.545 323.456 188.311 324.56 188.311 324.56C188.311 324.56 188.77 325.181 189.693 325.763C190.617 326.344 193.886 328.788 193.886 328.788L193.892 328.782Z" stroke="#1D1D1B" stroke-miterlimit="10"/>
<path d="M103.574 241.644C103.574 241.644 104.838 242.8 105.047 244.173C105.047 244.173 107.183 244.565 107.393 247.303C107.602 250.041 108.369 250.91 108.369 250.91L109.161 252.492C109.161 252.492 106.737 253.544 103.567 249.492C100.397 245.44 100.246 245.016 100.508 243.493C100.77 241.97 103.567 241.65 103.567 241.65L103.574 241.644Z" stroke="#1D1D1B" stroke-miterlimit="10"/>
<path d="M195.929 205.244C196.866 204.957 197.757 204.094 197.757 204.094C199.159 203.16 197.613 202.676 197.613 202.676L189.248 201.363C189.693 202.395 191.357 203.735 191.357 203.735C194.076 205.702 195.844 205.251 195.844 205.251L196.211 206.323C196.696 207.577 196.991 207.551 196.991 207.551L209.476 215.236L209.247 215.7L201.727 212.113L200.914 214.243L197.246 213.916L198.864 217.857L201.203 218.733L201.668 220.111C201.871 221.137 202.559 221.902 203.816 221.843C205.074 221.784 205.447 221.98 205.447 221.98L200.194 223.072L198.91 222.974L198.307 223.928L197.128 224.353L196.401 224.3L196.198 224.928L196.637 225.529L196.788 226.078C196.807 227.025 196.925 228.332 196.925 228.332C197.239 230.221 200.548 230.188 200.548 230.188C199.965 231.665 197.678 233.319 197.678 233.319C193.067 235.599 188.54 238.416 186.929 239.756C185.318 241.095 183.66 242.252 183.66 242.252C183.66 242.252 181.689 243.101 180.077 244.219C178.466 245.336 175.151 250.029 174.254 251.323C173.356 252.616 172.917 254.485 172.701 256.217C172.485 257.949 173.605 260.471 173.808 261.014C174.011 261.556 173.893 262.955 173.893 262.955C174.083 264.177 173.671 265.314 173.671 265.314C172.957 267.431 174.542 268.046 174.542 268.046C174.051 269.287 174.981 271.104 174.981 271.104C174.981 271.104 175.904 272.796 175.669 273.104C175.433 273.411 175.413 274.724 175.413 274.724C175.57 277.031 177.411 279.083 177.889 280.044C178.367 281.004 178.132 281.344 178.132 281.344L177.87 281.501C177.87 281.501 176.88 282.037 176.71 283.128C176.54 284.22 176.985 285.644 177.038 286.076C177.09 286.507 176.71 287.402 176.71 287.402L183.11 289.611C182.619 290.023 172.747 292.944 172.747 292.944C170.304 293.891 169.046 293.251 169.046 293.251C166.013 292.277 159.659 293.61 159.659 293.61C159.659 293.61 160.688 294.506 161.945 295.231C163.203 295.956 164.507 295.839 165.175 295.662C165.843 295.486 167.618 296.048 167.618 296.048C169.059 296.584 173.998 295.532 173.998 295.532C174.562 295.198 175.308 295.636 175.308 295.636L176.953 296.512L176.101 297.126L179.73 297.714C179.73 297.714 178.623 298.969 177.981 299.485C177.339 300.002 177.156 301.616 177.699 302.361C178.243 303.106 179.219 308.543 179.219 308.543C180.405 308.21 181.433 306.929 181.433 306.929L193.807 289.317C193.807 289.317 194.089 288.683 194.835 288.324C195.582 287.964 195.942 289.317 195.942 289.317C195.942 289.317 196.1 291.454 196.381 296.1C196.663 300.747 196.846 300.76 196.846 300.76C196.846 300.76 197.076 303.452 193.479 303.733C189.883 304.014 183.909 308.17 182.01 310.379C180.11 312.588 177.922 312.457 177.509 312.379C177.097 312.3 175.734 312.248 175.321 312.202C174.909 312.157 173.212 312.379 172.439 312.536C171.666 312.693 171.876 312.738 171.516 313.692C171.155 314.646 171.489 314.973 171.489 314.973L177.496 323.789L177.706 323.848C178.184 325.155 179.494 327.416 180.975 328.416C182.455 329.416 183.372 331.461 183.372 331.461V332.245C183.372 332.245 181.892 332.552 180.713 332.422C179.533 332.291 179.533 332.598 179.533 332.598C177.83 333.944 174.516 332.598 174.516 332.598C174.516 332.598 170.245 331.03 169.367 331.121C168.489 331.213 166.662 330.553 166.662 330.553L161.906 327.769C161.906 327.769 161.644 325.2 159.377 323.247C157.111 321.293 156.587 318.94 156.587 318.94H157.766C157.766 318.94 157.989 318.443 157.733 317.888C157.478 317.332 156.436 315.222 156.286 315.071C156.135 314.921 154.818 312.608 153.868 311.843L150.593 308.294L147.626 306.086L139.032 300.315C139.032 300.315 132.697 295.649 132.285 295.172C132.285 295.172 126.985 290.134 126.428 289.474C125.872 288.814 120.788 283.259 119.806 280.893C119.806 280.893 117.539 276.129 117.179 275.116C116.819 274.103 113.878 265.471 113.878 265.471L112.181 260.857C112.181 260.857 111.487 259.537 110.556 259.04C109.626 258.544 105.951 256.387 104.799 254.538C103.646 252.688 102.63 250.231 102.63 250.231C102.63 250.231 102.277 249.074 101.274 248.343C100.272 247.611 98.1497 243.52 98.3855 241.579C98.3855 241.579 98.3659 238.998 98.2611 238.625C98.1563 238.253 97.9204 236.168 98.1694 235.704C98.4183 235.24 97.9532 233.41 97.9532 233.41C97.9532 233.41 96.8986 230.829 96.9903 230.528C96.9903 230.528 98.8834 230.103 101.615 232.116C104.347 234.129 106.168 234.521 106.416 234.521C106.665 234.521 108.735 231.796 108.827 230.371C108.919 228.947 109.345 228.306 109.81 227.895C110.275 227.483 110.897 226.561 110.877 226.222C110.858 225.882 111.054 225.366 109.469 224.477C107.884 223.588 108.919 224.529 108.041 223.412L110.38 223.464L109.417 222.183C109.417 222.183 110.917 217.216 111.932 215.576C112.947 213.936 115.004 213.119 115.004 213.119C115.004 213.119 116.95 212.433 117.415 210.976C117.415 210.976 117.664 210.139 117.644 209.943L112.626 210.315C112.626 210.315 113.445 207.538 113.465 207.251C113.484 206.963 113.629 205.414 114.873 205.022C114.873 205.022 116.57 204.774 117.068 204.473L119.334 203.264L122.459 206.205L123.782 206.898L126.068 205.493C126.068 205.493 127.444 204.297 127.601 203.963C127.758 203.63 129.153 203.127 130.011 203.232C130.87 203.336 134.079 204.46 134.079 204.46C134.079 204.46 136.49 203.584 137.453 203.715C138.416 203.846 138.508 204.003 138.508 204.003L138.652 203.807L136.811 201.513C136.811 201.513 138.881 200.944 139.045 200.892C139.208 200.84 140.846 200.572 141.599 200.663C142.353 200.755 144.672 200.52 144.881 200.415C145.091 200.31 146.113 199.918 146.453 199.65C146.794 199.382 148.949 198.585 150.881 198.775C152.814 198.964 155.454 198.938 156.325 199.115C157.196 199.291 162.194 200.023 162.194 200.023C162.194 200.023 166.747 199.794 167.173 199.879C167.598 199.964 170.12 200.075 170.12 200.075C170.12 200.075 171.994 200.056 172.76 197.598L176.35 198.794L178.957 197.834L178.793 198.174L178.4 197.762C178.4 197.762 177.706 197.533 177.437 196.782C177.169 196.03 176.972 195.481 176.972 195.481L177.902 195.233C177.902 195.233 178.4 195.089 178.957 195.481C179.514 195.873 182.756 197.618 182.756 197.618C182.756 197.618 183.365 198.082 184.525 197.814C184.525 197.814 184.348 199.291 185.901 200.52C187.453 201.748 189.078 201.376 189.078 201.376C189.078 201.376 193.558 200.879 194.914 200.879C194.914 200.879 196.198 200.97 197.148 201.251C198.098 201.532 198.609 201.343 198.609 201.343C198.609 201.343 199.251 201.323 199.499 201.467C199.499 201.467 197.822 201.5 197.698 202.591L197.678 202.676V202.696" stroke="#1D1D1B" stroke-miterlimit="10"/>
<path d="M198.871 217.857L201.589 216.399L202.65 218.223L201.845 219.778L201.674 220.111" stroke="#1D1D1B" stroke-miterlimit="10"/>
<path d="M201.209 218.732L201.845 219.778" stroke="#1D1D1B" stroke-miterlimit="10"/>
<path d="M196.742 226.156L202.1 223.908L201.321 223.039L200.2 223.072L199.526 223.908L198.707 224.307L197.469 224.699L197.502 225.143L197.508 225.209L197.082 224.699L196.408 224.294" stroke="#1D1D1B" stroke-miterlimit="10"/>
<path d="M198.333 225.568L198.189 225.47L197.495 225.071" stroke="#1D1D1B" stroke-miterlimit="10"/>
<path d="M197.056 224.294L197.541 224.771H197.056V224.294Z" stroke="#1D1D1B" stroke-miterlimit="10"/>
<path d="M198.314 223.921L198.707 224.306" stroke="#1D1D1B" stroke-miterlimit="10"/>
<path d="M198.917 222.967L199.146 223.522L199.526 223.908" stroke="#1D1D1B" stroke-miterlimit="10"/>
<path d="M243.964 240.723L235.305 241.794L237.414 242.167L237.46 242.546L230.903 244.448L231.053 244.846L231.885 245.121C231.885 245.121 228.165 246.5 225.754 248.231C223.343 249.963 219.223 252.669 219.223 252.669C219.223 252.669 220.252 253.871 218.974 255.178C217.697 256.485 215.66 258.086 214.651 260.393C214.651 260.393 209.699 268.738 209.699 268.941C209.699 269.143 208.094 272.626 207.661 275.306C207.229 277.985 206.456 281.697 206.456 283.756C206.456 285.814 206.227 286.435 206.659 289.095C207.092 291.754 209.751 299.172 211.507 301.929C211.507 301.929 212.037 303.034 211.834 303.831C211.834 303.831 210.249 304.256 209.299 306.386C208.349 308.517 207.236 311.797 207.236 311.797C207.236 311.797 206.554 313.274 206.961 316.156C206.961 316.156 207.137 317.358 208.316 319.24C209.496 321.123 212.384 325.808 212.384 325.808L212.889 325.481L212.509 322.449L212.908 322.22L215.168 324.704C215.168 324.704 217.428 324.129 215.948 321.619C214.467 319.11 213.563 317.835 213.563 317.835C213.563 317.835 213.059 317.26 212.987 316.084C212.987 316.084 216.275 317.914 216.93 318.293C217.585 318.672 218.214 319.169 218.214 319.169C218.214 319.169 219.446 319.92 220.147 318.293C220.147 318.293 220.802 315.287 219.367 314.509C217.933 313.731 215.974 310.752 215.974 310.752C215.974 310.752 216.203 312.705 217.409 314.058L220.075 318.045C220.075 318.045 221.031 318.345 221.332 318.646C221.634 318.946 227.916 327.246 228.093 327.671C228.269 328.095 230.955 331.931 231.636 332.382C232.318 332.833 237.866 337.192 237.866 337.192C237.866 337.192 240.683 339.349 241.436 340.322C242.189 341.296 246.762 344.812 247.718 344.962C247.718 344.962 253.122 347.772 255.559 348.092C257.996 348.413 263.924 350.197 263.924 350.197C263.924 350.197 271.686 352.451 275.053 352.451C278.42 352.451 285.102 351.922 286.235 351.399C286.235 351.399 296.408 348.994 298.622 347.818C300.836 346.642 302.644 346.714 304.629 344.812C304.629 344.812 305.887 343.485 307.19 343.211C308.494 342.936 315.784 337.244 315.784 337.244L314.782 335.839L315.784 334.238C315.784 334.238 313.348 333.036 314.579 329.527L312.293 327.148C312.293 327.148 310.989 326.37 311.212 322.234L309.732 322.057L310.184 321.73L308.625 319.025C308.625 319.025 307.642 317.319 306.188 316.169C304.734 315.019 303.247 311.81 303.424 310.582C303.424 310.582 303.247 308.804 304.079 306.445C304.079 306.445 301.845 305.942 301.517 305.844C301.19 305.746 300.037 305.517 299.205 306.295C299.205 306.295 297.829 307.085 297.626 307.112C297.423 307.138 296.225 307.634 296.225 307.634C296.225 307.634 295.032 307.83 294.764 307.83C294.495 307.83 291.344 308.399 291.344 308.399C291.344 308.399 289.314 308.386 288.947 308.144C288.947 308.144 288.154 307.915 288.154 307.817C288.154 307.719 287.473 307.549 286.936 307.817C286.936 307.817 286.399 307.83 286.13 307.778C286.13 307.778 283.634 307.837 282.488 307.085C281.342 306.334 279.711 304.994 279.711 304.994L277.896 303.367C277.896 303.367 277.601 303.125 277.457 302.831C277.313 302.537 275.898 300.622 275.898 300.622L273.802 297.695L271.673 294.682C271.673 294.682 269.662 291.767 269.557 291.571C269.453 291.375 268.221 289.238 268.142 288.585C268.064 287.931 267.559 285.938 267.848 284.932L266.302 284.906C266.302 284.906 268.588 283.847 266.531 282.089C264.474 280.331 263.295 279.514 263.295 279.514C263.295 279.514 260.753 277.377 258.376 277.913C255.998 278.449 255.1 279.057 255.1 279.057C255.1 279.057 256.247 273.156 256.659 272.195C257.072 271.234 258.756 269.477 260.845 269.66L260.884 268.444L262.502 268.555C262.502 268.555 263.524 269.562 264.134 269.503C264.743 269.444 266.485 269.078 266.786 268.764C267.088 268.451 266.826 267.66 266.826 267.66L266.701 266.738C266.701 266.738 266.374 265.392 266.577 264.713C266.78 264.033 267.16 262.791 267.16 262.791L271.529 263.131C271.529 263.131 271.103 265.719 271.798 266.484C272.492 267.248 273.599 267.915 273.599 267.915C273.599 267.915 271.857 269.856 272.066 271.62C272.276 273.385 272.518 273.855 272.872 274.352C273.226 274.848 273.992 275.58 274.359 275.822C274.726 276.064 275.237 276.332 275.59 277.436C275.59 277.436 276.016 279.063 276.029 279.658C276.042 280.253 276.665 280.959 276.855 281.115C277.045 281.272 278.329 281.88 278.329 281.88C278.329 281.88 279.108 282.148 279.632 283.226C280.156 284.304 280.471 285.023 281.047 285.363C281.623 285.703 281.826 286.03 282.567 285.912C283.307 285.794 283.831 284.906 283.831 284.906C283.831 284.906 284.925 283.873 285.22 283.873C285.514 283.873 286.3 282.828 286.3 282.828C286.3 282.828 287.165 281.71 288.613 281.527C290.06 281.344 291.777 280.906 291.875 280.834C291.973 280.762 292.386 280.455 293.192 280.861C293.997 281.266 294.554 281.494 294.554 281.494L294.751 281.213L292.694 280.24L295.262 279.606C295.262 279.606 295.956 281.475 298.039 281.331C298.039 281.331 299.1 281.135 299.709 280.736C300.319 280.338 301.426 280.253 301.937 280.566C302.448 280.88 303.155 282.279 303.155 282.279L307.197 283.847L302.317 284.782C302.317 284.782 305.749 287.683 307.452 288.023C307.452 288.023 308.16 288.448 309.195 288.252C310.23 288.056 309.889 286.017 309.889 286.017C309.889 286.017 310.216 284.501 312.286 284.729C312.286 284.729 315.83 285.834 316.171 285.847L314.723 286.964C314.723 286.964 314.625 287.121 314.952 287.232C315.28 287.343 316.426 288.036 316.426 288.036C316.426 288.036 316.977 288.415 316.669 288.944C316.361 289.474 315.915 289.565 315.915 289.565C315.915 289.565 314.029 290.016 312.955 289.323C311.88 288.631 311.396 288.01 311.396 288.01C311.396 288.01 310.118 286.271 310.007 286.141C309.895 286.01 309.954 286.075 309.954 286.075" stroke="#1D1D1B" stroke-miterlimit="10"/>
<path d="M300.253 277.351L302.539 276.979C302.539 276.979 303.09 278.521 302.539 279.07C301.989 279.619 299.84 279.488 299.84 279.488C299.84 279.488 301.013 278.906 301.196 278.606C301.38 278.305 301.144 277.893 300.253 277.344V277.351Z" stroke="#1D1D1B" stroke-miterlimit="10"/>
<path d="M286.399 289.48V290.304L287.414 294.806C287.414 294.806 283.634 294.48 283.189 293.042C282.744 291.604 283.163 291.088 283.805 290.618C284.447 290.147 286.405 289.487 286.405 289.487L286.399 289.48Z" stroke="#1D1D1B" stroke-miterlimit="10"/>
<path d="M286.523 296.42L294.777 295.087C294.777 295.087 293.624 296.668 291.279 297.283C288.934 297.897 286.523 296.42 286.523 296.42V296.42Z" stroke="#1D1D1B" stroke-miterlimit="10"/>
<path d="M248.196 283.905C248.196 283.905 249.041 282.736 249.329 282.363C249.618 281.991 250.194 281.252 251.76 281.252C253.325 281.252 253.777 281.089 253.777 281.089C253.777 281.089 253.718 283.389 252.153 284.396C250.587 285.402 249.637 285.056 249.637 285.056C249.637 285.056 248.563 284.376 248.196 283.905Z" stroke="#1D1D1B" stroke-miterlimit="10"/>
<path d="M232.115 274.358L244.908 266.131C244.908 266.131 246.86 264.739 246.938 264.582C247.017 264.425 247.299 263.87 249.008 265.098L251.917 266.686C251.917 266.686 249.166 268.633 248.89 269.071C248.615 269.509 245.261 271.058 245.026 271.019C244.79 270.98 241.921 271.934 241.521 272.293C241.121 272.653 238.095 273.685 237.538 273.842C236.982 273.999 232.56 275.09 232.56 275.09L232.121 274.358H232.115Z" stroke="#1D1D1B" stroke-miterlimit="10"/>
<path d="M260.026 255.316L260.347 256.688L259.417 257.008C259.417 257.008 258.893 256.989 258.625 256.825C258.356 256.662 256.823 256.42 256.155 257.511C255.487 258.603 253.705 261.955 253.705 261.955L254.373 263.007L257.354 263.393L256.096 264.099L256.24 264.504L260.007 263.288L258.631 262.7C258.631 262.7 259.319 262.177 259.339 262.073C259.358 261.968 260.531 261.589 260.531 261.589C260.531 261.589 262.437 260.596 263.59 259.328C264.743 258.06 264.985 257.348 265.09 257.087C265.195 256.825 265.496 255.368 263.813 255.087L260.026 255.309V255.316Z" stroke="#1D1D1B" stroke-miterlimit="10"/>
<path d="M251.15 263.353C251.15 263.353 251.668 262.464 251.714 262.386C251.76 262.308 252.271 261.563 252.375 261.523C252.48 261.484 252.565 261.393 252.958 261.628C253.351 261.863 253.849 262.079 253.849 262.079L253.378 262.157L254.504 262.987C254.504 262.987 254.426 263.948 253.895 264.17C253.364 264.392 252.506 263.967 252.506 263.967L251.157 263.36L251.15 263.353Z" stroke="#1D1D1B" stroke-miterlimit="10"/>
<path d="M262.476 268.529V268.476L262.732 266.117L266.57 266.738C266.616 266.745 266.642 266.751 266.642 266.751" stroke="#1D1D1B" stroke-miterlimit="10"/>
<path d="M254.603 244.363L261.336 244.801L261.245 245.213L258.625 245.592L262.489 249.728C262.489 249.728 261.513 249.807 261.245 249.885C260.976 249.963 260.943 250.12 260.033 249.395C259.122 248.67 257.983 247.931 257.983 247.931C257.983 247.931 256.011 246.088 255.631 245.036C255.631 245.036 254.668 244.657 254.609 244.356L254.603 244.363Z" stroke="#1D1D1B" stroke-miterlimit="10"/>
<path d="M243.768 240.722L238.842 236.004L239.065 235.533L241.888 236.612L241.803 236.755L245.17 235.533L248.242 233.645L248.622 233.553L249.323 232.972L251.687 233.769L253.011 233.782L254.95 231.652L254.537 231.22C254.537 231.22 253.738 231.828 253.548 231.874C253.358 231.92 252.768 231.926 252.395 231.789C252.022 231.652 251.687 231.586 251.687 231.586L251.124 231.148L252.185 230.534L253.626 229.868L251.334 228.005L250.482 225.594L249.035 225.718C249.035 225.718 248.583 226.744 248.379 226.979C248.176 227.214 247.914 227.175 247.914 227.175C247.914 227.175 247.069 227.28 246.978 228.149C246.886 229.018 247.155 229.613 247.155 229.613L247.836 230.103L247.6 230.24L247.403 230.351L247.194 229.691C247.194 229.691 246.696 228.502 246.48 228.299C246.264 228.097 245.419 226.698 243.67 226.613L241.501 228.456L244.181 232.331L247.266 230.404L247.947 230.044L248.831 229.959L249.906 230.064L250.102 232.168L248.196 232.063L247.816 230.155" stroke="#1D1D1B" stroke-miterlimit="10"/>
<path d="M251.301 228.031L250.279 228.489L250.371 228.417L249.65 228.43L249.893 229.443L249.86 230.116H250.351L249.899 229.462" stroke="#1D1D1B" stroke-miterlimit="10"/>
<path d="M250.286 228.541V229.946L250.351 230.168L251.098 231.103" stroke="#1D1D1B" stroke-miterlimit="10"/>
<path d="M253.286 229.646L253.227 229.574C253.227 229.574 252.605 229.437 252.192 229.607C251.779 229.776 252.231 230.508 252.231 230.508" stroke="#1D1D1B" stroke-miterlimit="10"/>
<path d="M251.694 231.646L250.941 232.201L250.03 232.116L251.72 233.802" stroke="#1D1D1B" stroke-miterlimit="10"/>
<path d="M248.321 233.691L244.135 232.253C244.135 232.253 244.416 232.273 243.814 233.854C243.211 235.435 244.665 235.488 244.665 235.488H245.261" stroke="#1D1D1B" stroke-miterlimit="10"/>
<path d="M252.873 233.802C252.873 233.802 253.672 233.567 254.812 233.802C255.952 234.037 257.262 234.318 257.262 234.318C257.262 234.318 258.238 234.495 258.841 234.423C259.443 234.351 260.112 234.181 260.426 233.972C260.426 233.972 260.478 233.841 260.819 233.998L261.926 234.214L264.933 234.789C264.933 234.789 266.767 235.043 267.003 235.05C267.239 235.057 267.9 235.07 268.699 234.743C269.498 234.416 270.199 234.115 270.199 234.115L270.108 233.553L268.084 232.338C268.084 232.338 267.501 231.292 267.501 231.116C267.501 230.94 266.819 230.175 266.538 229.985C266.256 229.796 264.998 228.62 264.998 228.62L263.452 227.273L262.208 226.136L260.858 224.784C260.858 224.784 259.784 223.856 258.906 223.777C258.028 223.699 257.858 223.725 257.858 223.725" stroke="#1D1D1B" stroke-miterlimit="10"/>
<path d="M250.391 225.6L251.707 225.156L252.801 224.921L253.417 224.365L253.771 224.307H255.127L259.135 223.535L257.38 220.876C257.38 220.876 256.116 219.124 256.004 219.039C255.893 218.954 255.513 218.347 255.179 218.242C254.845 218.138 253.456 217.014 253.456 217.014C253.456 217.014 253.26 217.608 252.703 217.778C252.703 217.778 252.257 217.817 251.766 217.412C251.275 217.007 250.882 216.961 250.882 216.961L250.659 215.53L251.963 214.021L253.482 217.085" stroke="#1D1D1B" stroke-miterlimit="10"/>
<path d="M253.437 224.418L251.491 223.059L251.367 223.098C251.367 223.098 249.663 222.444 249.565 222.438C249.565 222.438 248.602 222.202 248.517 222.202C248.432 222.202 245.406 221.68 245.406 221.68L245.845 222.771L248.222 224.66L251.308 223.13" stroke="#1D1D1B" stroke-miterlimit="10"/>
<path d="M249.041 225.673L248.255 224.601C248.255 224.601 246.611 224.176 246.486 224.124C246.362 224.072 245.713 223.837 245.53 223.706C245.347 223.575 243.768 222.667 243.768 222.667L244.757 221.432L244.796 221.445L245.458 221.713" stroke="#1D1D1B" stroke-miterlimit="10"/>
<path d="M243.702 226.673L241.908 225.163L239.942 224.104L240.447 223.065L241.141 223.02L241.213 223.078L241.194 223.941L242.622 223.836L241.934 225.117" stroke="#1D1D1B" stroke-miterlimit="10"/>
<path d="M240.984 224.601L241.279 223.882H240.742L241.01 224.633" stroke="#1D1D1B" stroke-miterlimit="10"/>
<path d="M240.434 223.02L240.846 223.928L239.942 224.104" stroke="#1D1D1B" stroke-miterlimit="10"/>
<path d="M241.606 223.065H242.517L242.484 223.902L242.012 223.915L241.606 223.065Z" stroke="#1D1D1B" stroke-miterlimit="10"/>
<path d="M242.235 220.993L241.187 222.79L241.141 223.019L241.213 223.078L241.691 223.143L241.606 222.627L242.517 222.692L242.235 220.993Z" stroke="#1D1D1B" stroke-miterlimit="10"/>
<path d="M243.722 222.699L242.844 222.3L242.235 220.993L244.253 221.549L244.2 221.424H244.764" stroke="#1D1D1B" stroke-miterlimit="10"/>
<path d="M242.851 222.699L242.91 222.248H242.419L242.517 222.692" stroke="#1D1D1B" stroke-miterlimit="10"/>
<path d="M243.873 222.595L242.635 223.941L242.851 223.065L243.873 222.595Z" stroke="#1D1D1B" stroke-miterlimit="10"/>
<path d="M242.419 222.653H242.91V222.699V223.124H242.419V222.653Z" stroke="#1D1D1B" stroke-miterlimit="10"/>
<path d="M243.683 222.68L242.91 222.699" stroke="#1D1D1B" stroke-miterlimit="10"/>
<path d="M251.491 223.052L250.659 215.531L249.899 212.498L245.576 212.544L246.159 211.629L242.156 210.937L243.001 213.139L234.984 213.165C234.984 213.165 234.355 213.113 233.962 212.714L233.575 212.459L234.787 211.093L230.379 211.348L232.318 210.571C232.318 210.571 234.761 208.028 235.147 207.46C235.534 206.891 235.953 206.244 236.097 205.944C236.241 205.643 237.27 203.48 237.479 202.186C237.689 200.892 237.905 198.847 237.905 198.847C237.905 198.847 238.023 196.677 237.931 196.272C237.84 195.867 237.689 195.187 237.145 194.671C236.602 194.155 235.704 192.841 235.704 192.841L234.08 190.802L231.774 187.94L229.756 185.45L227.824 183.156L226.337 181.451L224.332 179.092L222.525 176.732L220.979 174.458C220.979 174.458 218.607 171.282 218.391 171.171C218.175 171.06 216.681 169.433 216.681 169.433C216.681 169.433 214.16 167.309 213.937 167.165C213.714 167.021 211.664 165.518 211.664 165.518L208.212 163.14C208.212 163.14 204.93 161.042 204.818 161.016C204.707 160.99 201.982 159.428 201.982 159.428C201.982 159.428 201.026 158.905 200.888 158.709C200.751 158.513 199.192 157.114 199.192 157.114C199.192 157.114 198.157 156.35 196.807 156.866C196.807 156.866 196.493 155.455 194.37 154.605C192.248 153.755 191.521 152.527 191.305 152.082C191.089 151.638 187.132 150.671 187.132 150.671C187.132 150.671 179.651 153.193 178.348 153.337L167.795 155.742C167.795 155.742 158.277 158.578 156.482 159.741C154.687 160.905 146.368 163.44 146.368 163.44L136.195 167.054C136.195 167.054 131.256 168.877 130.241 168.753C129.225 168.629 127.909 168.426 125.93 167.557C123.952 166.688 118.542 165.139 118.542 165.139C118.542 165.139 107.203 160.963 106.272 160.781C105.342 160.598 96.6693 158.186 96.6693 158.186L95.202 164.427C95.202 164.427 94.1539 165.858 93.3154 166.577C93.3154 166.577 93.9705 168.191 93.584 169.204C93.1975 170.217 92.477 171.354 92.477 171.655C92.477 171.955 91.8809 174.55 91.8809 174.55C91.8809 174.55 88.1995 187.267 87.302 188.489L84.3674 195.71C84.3674 195.71 83.7975 198.01 83.6469 199.474C83.4962 200.938 81.8193 207.087 80.3847 208.342C80.3847 208.342 79.3366 209.806 79.0353 211.329C78.734 212.851 77.961 214.256 77.2077 214.4C76.4544 214.544 75.2622 214.25 74.9609 213.537C74.9609 213.537 75.9172 212.257 74.4827 211.479L72.8974 211.57C72.8974 211.57 71.9673 211.361 71.6987 211.453C71.4301 211.544 69.9038 211.544 69.9038 211.361C69.9038 211.178 72.9236 210.165 72.9236 210.165C72.9236 210.165 70.3493 206.761 64.7224 208.819L65.3774 209.597L63.373 209.839L63.6153 208.643L62.8948 207.865L61.2179 209.538C61.2179 209.538 55.3813 207.388 55.1717 207.238C54.9621 207.087 52.9576 206.192 52.5057 206.192C52.0537 206.192 49.5448 205.179 49.5448 205.179C49.5448 205.179 48.1954 204.343 47.8089 204.343C47.8089 204.343 45.2084 203.356 44.6385 203.48C44.6385 203.48 42.9026 203.389 42.634 203.572C42.3654 203.755 38.8609 203.245 38.8609 203.245C38.8609 203.245 35.2974 202.382 35.0616 202.258C34.8258 202.134 32.068 200.677 31.6815 200.35C31.2951 200.023 29.4347 199.278 29.4347 199.278L29.0875 199.997" stroke="#1D1D1B" stroke-miterlimit="10"/>
<path d="M38.1535 200.199H44.3568C44.3568 200.199 42.4637 201.193 42.3131 201.343C42.1624 201.493 40.8457 201.944 40.2562 201.781C39.6666 201.617 38.0028 201.127 38.0028 201.127L38.1469 200.199H38.1535Z" stroke="#1D1D1B" stroke-miterlimit="10"/>
<path d="M59.9536 206.473L61.2834 205.107L63.0586 206.63H61.7878L62.3249 207.695L61.9712 207.996L59.9536 206.473Z" stroke="#1D1D1B" stroke-miterlimit="10"/>
<path d="M44.1145 218.393L52.1782 222.157C52.1782 222.157 46.6889 223.268 44.1145 218.393V218.393Z" stroke="#1D1D1B" stroke-miterlimit="10"/>
<path d="M38.5793 216.04C38.5793 216.04 37.767 216.086 36.5617 214.968C35.3564 213.851 33.5157 214.968 33.5157 214.968L38.3631 216.85L38.5793 216.04Z" stroke="#1D1D1B" stroke-miterlimit="10"/>
<path d="M29.1334 213.642L30.3911 213.942C30.3911 213.942 31.7209 212.87 32.448 214.197C32.448 214.197 32.1925 214.687 32.9196 215.661C33.6467 216.635 33.8629 217.83 33.8629 217.83L29.1334 215.68" stroke="#1D1D1B" stroke-miterlimit="10"/>
<path d="M141.108 169.661L144.789 172.229L144.396 172.772L140.695 170.047L141.108 169.661Z" stroke="#1D1D1B" stroke-miterlimit="10"/>
<path d="M146.479 174.523C146.479 174.523 147.718 174.026 149.598 175.823C151.478 177.62 152.028 178.307 152.047 178.529C152.067 178.751 146.479 174.529 146.479 174.529V174.523Z" stroke="#1D1D1B" stroke-miterlimit="10"/>
<path d="M239.071 319.292C239.071 319.292 244.895 309.856 245.465 309.751C246.035 309.647 249.519 304.151 253.627 304.046C253.627 304.046 254.721 302.438 255.651 302.438C256.581 302.438 261.107 303.53 261.107 303.53C261.107 303.53 262.509 305.137 262.876 305.137C262.876 305.137 264.592 306.431 265.267 306.484C265.942 306.536 268.955 307.418 268.699 312.084L268.712 312.81L269.217 313.901L270.671 313.385C270.671 313.385 273.167 315.822 271.398 318.103C269.63 320.384 268.228 322.507 267.658 324.586H267.088L266.518 323.187H266.053C266.053 323.187 266.367 324.481 264.337 325.886C262.306 327.291 254.465 331.591 254.465 331.591C254.465 331.591 252.022 332.937 251.19 330.657C251.19 330.657 251.033 328.892 252.022 328.69C253.011 328.487 256.751 326.252 257.635 324.644C258.52 323.037 261.579 319.769 261.579 319.769V319.096L256.234 320.031L256.601 318.992C256.601 318.992 252.808 317.279 249.998 321.272L254.884 320.495C254.884 320.495 250.672 324.54 243.349 324.331C243.349 324.331 241.167 324.122 240.748 321.945C240.329 319.769 239.084 319.299 239.084 319.299L239.071 319.292Z" stroke="#1D1D1B" stroke-miterlimit="10"/>
<path d="M248.897 316.234L250.194 311.464C250.194 311.464 248.117 311.052 247.541 314.94L248.216 316.234H248.89H248.897Z" stroke="#1D1D1B" stroke-miterlimit="10"/>
<path d="M243.362 330.317C243.362 330.317 245.759 330.173 246.074 330.121C246.388 330.069 247.161 330.206 248.131 331.147L246.991 332.173C246.991 332.173 245.366 332.127 244.934 331.977C244.502 331.827 243.991 331.859 243.362 330.317V330.317Z" stroke="#1D1D1B" stroke-miterlimit="10"/>
<path d="M316.289 285.846L316.931 285.735C316.931 285.735 315.64 286.199 315.398 284.134C315.156 282.069 314.939 281.35 314.998 281.233C315.057 281.115 313.498 280.507 313.407 280.364C313.407 280.364 312.758 280.063 312.299 278.932C311.841 277.802 310.714 274.946 310.714 274.946L311.048 274.881L308.389 271.221C308.389 271.221 306.98 269.62 306.941 269.097C306.902 268.574 307.125 268.137 307.4 267.856C307.675 267.575 308.12 266.614 308.12 266.614L309.142 263.889C309.142 263.889 308.598 262.628 307.714 263.667C307.714 263.667 307.262 263.928 306.928 263.948C306.594 263.967 305.146 264.627 305.146 264.627L304.747 264.006L306.253 262.386L299.369 258.739L298.688 259.72L307.341 267.829" stroke="#1D1D1B" stroke-miterlimit="10"/>
<path d="M308.205 266.588C308.205 266.588 309.601 266.124 310.406 266.176C311.212 266.228 312.666 266.209 312.666 266.209C312.666 266.209 313.262 266.196 313.57 266.385C313.57 266.385 313.793 266.392 313.793 266.666C313.793 266.941 314.245 267.542 314.245 267.542C314.245 267.542 314.684 268.274 316.557 268.457C316.557 268.457 316.957 268.333 317.848 269.404L320.913 270.509L321.424 272.665C321.424 272.665 321.379 272.953 321.758 273.103L322.138 273.253L323.245 271.241L326.2 275.626L325.021 275.959C325.021 275.959 325.466 276.253 326.861 276.227C328.257 276.201 329.449 276.416 329.816 278.044C329.816 278.044 330.15 278.207 330.34 278.233C330.53 278.259 332.416 279.213 332.416 279.213C332.416 279.213 333.248 279.632 334.257 280.39C335.266 281.148 336.831 280.043 336.831 280.043L337.513 281.566L335.77 283.964C335.77 283.964 335.783 284.278 334.86 284.33C334.82 284.33 334.774 284.33 334.729 284.33C333.68 284.356 332.907 284.33 332.907 284.33L329.757 284.677L328.951 284.5L328.885 284.082L329.383 284.35L328.348 284.807L325.073 285.062L325.715 285.866C325.715 285.866 327.032 285.278 329.233 285.533C331.434 285.787 334.224 286.617 334.224 286.617L335.469 285.441L332.875 284.304" stroke="#1D1D1B" stroke-miterlimit="10"/>
<path d="M334.971 284.39L339.203 284.939L339.275 285.305L334.126 286.612C334.126 286.612 334.991 286.768 335.128 286.821C335.266 286.873 335.521 286.945 335.613 287.128C335.705 287.311 336.504 287.69 336.7 287.762C336.897 287.834 337.807 287.932 338.633 287.428C339.458 286.925 340.519 286.226 340.519 286.226C340.519 286.226 340.356 287.481 340.775 287.742C341.194 288.003 341.823 288.324 341.823 288.324C341.823 288.324 340.172 288.539 339.681 289.356C339.19 290.173 339.825 291.598 339.825 291.598C339.825 291.598 339.91 292.049 339.799 292.369L341.882 291.003L343.172 293.245L341.404 294.048C341.404 294.048 341.384 294.055 341.358 294.068C341.161 294.14 340.421 294.342 340.31 293.591C340.185 292.722 340.152 292.539 339.818 292.388" stroke="#1D1D1B" stroke-miterlimit="10"/>
<path d="M341.463 294.074C341.463 294.074 342.498 294.283 342.845 294.414C343.192 294.545 343.965 295.251 343.965 295.251C343.965 295.251 344.764 296.126 344.902 296.505C345.039 296.884 345.354 297.218 345.301 298.113C345.249 299.008 344.921 299.832 344.921 299.832L346.513 299.668L349.644 303.746L347.574 304.707L356.09 307.393C356.09 307.393 355.992 307.843 355.985 307.928C355.978 308.013 355.716 308.477 355.599 308.726C355.481 308.974 354.832 310.065 355.088 311.281C355.343 312.496 356.254 313.398 356.254 313.398C356.254 313.398 357.564 314.47 357.701 315.705C357.701 315.705 357.957 316.822 357.911 317.371C357.865 317.92 358.062 318.639 358.153 318.822C358.245 319.005 358.618 319.848 359.057 320.168C359.057 320.168 359.267 320.358 359.568 320.378C359.87 320.397 360.629 320.678 360.767 320.985C360.904 321.292 361.068 321.704 360.557 322.848L362.614 322.619C362.614 322.619 363.348 324.312 363.616 324.606C363.885 324.9 364.127 325.148 364.52 325.292C364.913 325.436 366.689 325.194 367.9 324.697C369.112 324.2 370.147 324.383 370.429 325.043C370.429 325.043 370.802 325.671 370.835 326.03C370.868 326.39 371.228 326.612 371.228 326.612C371.228 326.612 371.818 327.017 372.126 327.442C372.433 327.867 374.516 330.134 374.516 330.134C374.516 330.134 376.436 332.369 376.783 333.219C376.783 333.219 377.824 334.996 377.929 336.133L376.455 336.989C376.455 336.989 375.597 337.395 375.361 337.382C375.126 337.368 374.595 337.787 374.687 338.264C374.779 338.741 375.545 339.329 375.545 339.329C375.545 339.329 376.285 340.237 376.121 341.865C375.958 343.492 376.711 346.753 376.711 346.753L377.412 346.844L378.755 342.891C378.755 342.891 378.951 341.629 379.377 341.276C379.803 340.923 380.235 341.146 380.235 341.146C380.235 341.146 380.471 341.211 380.733 341.041C380.995 340.871 381.748 340.29 381.748 340.29C381.748 340.29 379.482 340.564 379.154 339.12C379.154 339.12 379.115 338.211 379.259 337.989C379.403 337.767 379.102 337.199 378.814 337.055C378.525 336.911 377.942 336.186 377.942 336.186C377.942 336.186 378.971 335.075 379.108 334.924C379.246 334.774 379.475 334.362 379.521 334.238C379.567 334.114 380.156 332.925 380.412 332.735C380.667 332.546 380.903 332.029 381.971 332.127C383.039 332.225 384.637 333.297 384.637 333.297L386.799 334.33L388.692 335.173C388.692 335.173 388.613 334.101 389.065 333.532C389.517 332.964 390.998 333.349 390.998 333.349C390.998 333.349 391.921 334.604 392.655 334.82C393.389 335.035 394.384 334.846 394.712 334.421L394.659 334.323L393.873 332.814L390.958 333.454C390.958 333.454 391.266 332.016 391.266 331.931C391.266 331.846 391.574 330.788 392.976 331.101C392.976 331.101 393.303 330.853 393.415 330.441L392.386 329.644L399.238 328.154V328.291L399.369 330.056L398.203 329.749L396.991 331.663L396.566 331.533L396.428 329.618C396.428 329.618 395.065 330.938 394.882 332.154C394.699 333.369 394.731 334.349 394.731 334.349L397.319 335.656L396.952 337.617C396.952 337.617 398.472 338.061 399.297 337.617C400.122 337.172 401.079 335.395 401.079 335.395L403.096 331.291L399.978 327.723L399.336 328.252L399.101 328.043L399.854 327.749L396.906 325.945L396.638 326.259L397.155 326.344C397.155 326.344 396.841 326.069 396.683 325.344C396.683 325.344 396.585 325.128 396.736 325.05C396.887 324.972 397.908 324.259 397.908 324.259L399.474 323.292C399.474 323.292 400.142 322.776 400.273 322.599C400.404 322.423 400.568 322.331 400.234 321.946C399.9 321.56 399.847 321.384 399.369 321.711C398.891 322.037 396.677 324.227 396.677 324.227L396.146 323.906C396.146 323.906 397.168 323.357 397.352 322.331C397.352 322.331 397.489 321.946 397.037 320.959C397.037 320.959 396.356 319.619 396.323 319.338L395.504 319.835L395.203 319.338L398.858 317.515L394.902 317.483L396.317 318.169C396.317 318.169 392.419 318.332 391.954 318.43C391.954 318.43 389.864 318.613 389.072 319.11C389.072 319.11 386.294 320.273 385.528 321.064C385.528 321.064 382.502 323.377 382.364 323.586C382.226 323.795 380.556 324.736 380.438 324.658C380.32 324.579 379.632 322.913 379.724 322.39C379.816 321.867 380.039 319.887 380.202 319.724C380.366 319.561 379.993 319.234 381.172 318.783L382.2 318.214C382.2 318.214 383.019 317.528 384.277 318.156C384.277 318.156 385.128 318.75 385.266 318.992C385.403 319.234 386.059 319.456 386.746 318.979C387.434 318.502 389.629 316.894 390.225 316.757C390.225 316.757 393.559 315.234 395.511 315.025C395.511 315.025 402.192 313.503 403.11 313.503C404.027 313.503 405.324 313.176 405.52 312.725C405.717 312.274 405.848 311.549 405.789 311.353C405.73 311.157 406.221 310.248 406.503 310.026C406.503 310.026 406.49 310.993 406.922 311.725C407.354 312.457 408.533 312.575 408.533 312.575C408.533 312.575 409.418 312.47 409.791 312.411C410.164 312.353 412.883 312.261 414.75 313.084C416.617 313.908 419.093 314.829 419.093 314.829" stroke="#1D1D1B" stroke-miterlimit="10"/>
<path d="M419.073 318.626C419.073 318.626 414.684 314.588 414.016 314.287C414.016 314.287 411.37 312.281 410.223 312.405" stroke="#1D1D1B" stroke-miterlimit="10"/>
<path d="M408.645 327.389C408.645 327.389 407.053 327.762 407.171 328.847C407.171 328.847 407.38 329.605 407.904 330.206C408.428 330.807 408.481 331.219 408.481 331.219C408.481 331.219 406.129 330.088 406.083 329.102C406.037 328.115 406.417 327.102 408.645 327.389Z" stroke="#1D1D1B" stroke-miterlimit="10"/>
<path d="M385.672 332.715L388.207 333.003C388.207 333.003 388.004 332.271 387.958 332.029C387.912 331.787 387.893 331.611 387.08 331.702C386.268 331.794 385.672 331.84 385.672 331.84V332.715V332.715Z" stroke="#1D1D1B" stroke-miterlimit="10"/>
<path d="M113.236 349.432C113.236 349.432 131.459 367.115 138.953 380.316C146.447 393.517 152.185 408.959 152.185 408.959C152.185 408.959 152.676 410.775 154.484 410.704L155.709 415.311L159.895 422.074L162.129 421.428C162.129 421.428 160.904 423.878 160.904 424.597C160.904 425.316 161.48 427.335 163.065 428.773C164.651 430.211 168.909 437.268 168.909 437.268C168.909 437.268 169.485 438.059 170.566 439.065C171.647 440.072 179.226 446.626 181.099 449.214C182.972 451.802 185.141 452.096 185.141 452.096C185.141 452.096 186.222 452.887 186.942 453.965C186.942 453.965 189.176 455.331 190.407 455.331C191.639 455.331 197.115 457.853 197.77 458.5C198.425 459.147 202.028 462.389 202.821 463.467C203.613 464.545 205.781 466.133 206.718 466.061C207.655 465.99 221.077 459.147 221.077 459.147L246.264 445.11C246.264 445.11 247.272 443.888 248.648 445.613C250.024 447.339 254.203 452.599 254.419 453.318C254.635 454.037 258.605 459.938 259.037 460.52C259.47 461.101 263.223 464.408 264.088 467.068C264.952 469.728 275.708 481.896 275.708 481.896L276.069 480.889L267.409 466.78C267.409 466.78 266.184 465.415 265.607 464.983C265.031 464.552 263.662 461.382 263.662 461.382C263.662 461.382 258.107 453.965 257.891 453.103C257.675 452.24 253.993 446.26 253.993 446.26L252.048 444.32C252.048 444.32 250.39 442.954 252.048 442.091C253.705 441.229 260.924 437.34 261.428 436.765C261.933 436.19 264.821 434.243 268.575 436.981C272.328 439.719 273.121 439.791 273.121 439.791L277.523 440.438C277.523 440.438 279.612 438.856 280.195 440.725V442.451L281.997 443.816L279.18 444.176C279.18 444.176 279.901 443.169 278.099 442.451C276.298 441.732 277.811 439.209 277.811 439.209C277.811 439.209 277.523 437.196 276.01 436.83C274.496 436.465 274.713 435.033 274.713 435.033L275.21 434.72L276.337 435.844L277.143 432.276L278.702 432.975L278.486 435.739L278.97 435.929L280.425 432.23L282.305 435.314C282.305 435.314 283.431 435.073 284.106 435.288C284.781 435.504 295.045 439.281 296.598 439.418C296.598 439.418 300.548 434.648 298.078 432.178C298.078 432.178 294.718 431.321 294.292 431.132C293.866 430.942 293.08 430.302 292.838 429.982C292.596 429.662 288.836 426.446 285.881 425.61L285.265 425.714L285.161 427.165L280.569 427.218L276.055 424.055V423.571L278.853 423.708L279.311 422.29C279.311 422.29 279.357 422.316 279.436 422.362C279.468 422.382 279.501 422.395 279.54 422.421C280.045 422.695 281.237 423.316 281.676 423.316C282.239 423.316 283.425 423.264 283.72 423.127C283.837 423.074 283.261 422.427 282.396 421.676C281.152 420.598 279.318 419.291 278.132 419.212C278.132 419.212 276.763 417.069 275.309 418.219L276.547 419.238C276.547 419.238 276.894 419.585 276.92 420.179C276.946 420.774 279.219 422.323 279.219 422.323L279.462 421.264L282.298 421.676H282.337L282.37 421.689H282.442" stroke="#1D1D1B" stroke-miterlimit="10"/>
<path d="M273.344 418.435L275.341 421.258C275.341 421.258 273.265 421.879 272.007 421.107C270.75 420.336 272.066 419.454 272.066 419.454L273.344 418.435V418.435Z" stroke="#1D1D1B" stroke-miterlimit="10"/>
<path d="M278.119 419.108C278.119 419.108 278.492 417.095 278.833 416.539C279.174 415.984 279.77 415.605 280.713 415.272L279.776 413.801C279.776 413.801 279.272 413.082 278.859 412.912C278.446 412.742 274.634 410.553 274.634 410.553L272.669 409.547L273.782 409.168L271.411 407.41L269.06 405.619L265.758 403.077L266.02 406.384C266.02 406.384 265.051 406.449 263.616 405.998C262.181 405.547 260.957 405.208 260.957 405.208C260.957 405.208 260.256 404.018 259.129 403.528C258.002 403.038 256.745 402.025 256.745 402.025L254.504 400.888C254.504 400.888 253.62 400.607 252.644 400.888L251.222 401.038L251.006 401.359L252.395 402.711L249.29 402.548L248.019 402.587L245.681 402.169H245.628L245.523 402.143L241.482 401.417L242.333 401.254L241.403 401.692C241.403 401.692 241.94 399.777 243.309 400.927L244.574 401.3L245.55 402.189L246.637 401.725L244.384 401.195L243.316 400.855L243.381 399.326L246.604 401.803L248.504 401.332L244.154 399.862L244.063 399.816L244.01 399.764L243.932 399.777" stroke="#1D1D1B" stroke-miterlimit="10"/>
<path d="M243.316 399.425L243.683 398.209C243.683 398.209 246.499 398.307 247.77 399.425C247.77 399.425 248.517 399.987 248.812 400.457C249.107 400.928 250.993 401.372 250.993 401.372H248.393L248.032 402.64" stroke="#1D1D1B" stroke-miterlimit="10"/>
<path d="M251.196 401C251.196 401 248.373 397.15 248.052 396.883C248.052 396.883 247.187 395.36 245.655 396.007C245.655 396.007 245.144 396.157 244.809 396.811C244.475 397.464 243.689 398.203 243.689 398.203C243.689 398.203 242.812 397.431 242.451 397.085C242.091 396.739 241.108 396.288 241.108 396.288C241.108 396.288 235.901 393.452 235.547 393.386C235.193 393.321 233.687 392.726 232.062 392.628L232.331 393.929L225.23 389.609C225.23 389.609 224.916 389.583 225.007 389.165C225.099 388.746 225.243 388.766 225.106 388.465C224.968 388.165 224.667 388.021 224.195 387.988C223.723 387.956 223.435 387.76 223.435 387.76C223.435 387.76 221.83 387.113 221.791 387.074C221.752 387.034 221.601 387.067 221.791 386.512C221.981 385.956 222.354 385.629 221.87 384.793C221.385 383.956 220.841 383.623 220.841 383.623C220.841 383.623 219.669 382.591 219.937 381.277L219.393 381.166C219.393 381.166 216.118 378.839 215.987 378.663C215.856 378.487 215.005 377.676 215.005 377.676C215.005 377.676 213.557 376.356 212.666 375.971C211.775 375.585 210.105 374.925 208.716 374.84C207.327 374.755 206.319 374.154 205.912 373.344C205.506 372.533 205.539 371.749 205.539 371.749C205.539 371.749 205.323 370.252 203.987 370.2C203.987 370.2 203.286 370.207 202.677 370.429C202.067 370.651 199.283 371.037 199.283 371.037C199.283 371.037 197.659 371.292 197.115 371.559C196.571 371.827 195.458 372.416 194.973 373.487C194.488 374.559 194.803 374.879 194.803 374.879L191.639 376.918C191.639 376.918 190.165 377.866 189.726 378.362C189.287 378.859 189.006 379.369 188.848 379.689C188.691 380.009 188.193 381.074 186.484 380.695C186.484 380.695 187.034 381.983 186.582 382.421C186.274 382.715 185.377 382.898 184.427 382.996C183.968 383.041 183.503 383.074 183.084 383.087L182.429 384.669C182.429 384.669 183.379 385.296 183.66 385.597C183.942 385.897 184.355 386.08 184.977 385.433C185.599 384.786 185.999 384.12 185.999 384.12L184.348 382.956" stroke="#1D1D1B" stroke-miterlimit="10"/>
<path d="M182.376 384.688L180.706 385.989C180.706 385.989 179.435 386.904 179.167 387.315C178.898 387.727 178.243 388.616 178.178 388.688C178.112 388.76 177.784 389.21 176.972 389.335C176.16 389.459 175.354 389.021 175.354 389.021L174.83 388.289C174.83 388.289 178.525 385.433 178.603 385.427C178.682 385.42 180.241 383.956 180.582 383.688C180.922 383.42 181.381 382.93 183.038 383.009C183.038 383.009 183.831 382.146 184.053 381.538C184.276 380.931 185.128 380.297 186.071 380.434L186.588 380.728" stroke="#1D1D1B" stroke-miterlimit="10"/>
<path d="M186.091 380.388C186.091 380.388 185.94 379.532 186.051 379.166C186.163 378.8 188.233 376.827 188.233 376.827L178.643 371.912C178.643 371.912 171.575 367.763 171.424 367.652C171.273 367.541 166.989 365.018 166.989 365.018C166.989 365.018 161.002 361.783 160.412 361.581C159.823 361.378 154.294 358.823 152.408 358.64C150.521 358.457 147.809 357.614 147.809 357.614L147.423 358.235C147.423 358.235 149.329 359.803 149.899 360.921C149.899 360.921 148.857 361.339 148.143 361.176C147.429 361.012 138.396 355.804 138.396 355.804C138.396 355.804 134.092 352.589 131.4 354.725C131.4 354.725 130.208 352.935 129.749 351.817C129.291 350.7 126.893 350.739 126.893 350.739C126.893 350.739 125.944 348.929 122.681 347.341C119.419 345.753 118.227 345.439 118.122 345.224L117.592 345.498L118.561 349.047L116.308 348.132V348.537L113.524 348.975C113.524 348.975 113.485 349.249 113.688 349.524C113.891 349.798 114.67 350.55 115.03 351.216" stroke="#1D1D1B" stroke-miterlimit="10"/>
<path d="M107.222 344.478L110.249 342.93L112.227 347.027L111.5 347.491L107.222 344.478Z" stroke="#1D1D1B" stroke-miterlimit="10"/>
<path d="M138.088 361.463L146.539 367.743C146.539 367.743 140.578 368.841 138.088 361.463Z" stroke="#1D1D1B" stroke-miterlimit="10"/>
<path d="M276.658 398.372C276.658 398.372 285.495 401.751 286.019 402.052C286.543 402.352 287.309 402.627 287.309 402.627C287.309 402.627 289.157 404.822 289.536 405.509L289.726 405.757L289.176 406.358L286.228 404.685L285.429 410.782C285.429 410.782 282.789 410.547 281.964 409.22C281.139 407.894 282.318 408.913 280.693 407.815L271.529 401.117C271.529 401.117 270.651 400.98 271.339 399.719C272.027 398.457 272.302 398.209 272.302 398.209C272.302 398.209 274.863 399.634 275.852 399.529L276.652 398.379L276.658 398.372Z" stroke="#1D1D1B" stroke-miterlimit="10"/>
<path d="M293.015 401.894L297.102 401.339C297.102 401.339 296.277 402.796 295.373 402.829C294.469 402.862 293.015 401.894 293.015 401.894Z" stroke="#1D1D1B" stroke-miterlimit="10"/>
<path d="M74.7054 375.167L75.6946 374.638L77.2208 377.84L76.723 378.206L74.7054 375.167Z" stroke="#1D1D1B" stroke-miterlimit="10"/>
<path d="M109.161 412.468C109.161 412.468 109.731 412.906 110.196 412.965C110.661 413.024 110.91 412.697 110.91 412.697C110.91 412.697 111.192 412.22 111.231 411.756C111.27 411.292 111.434 411.096 111.434 411.096L111.834 410.469L114.212 411.456L112.718 412.344C112.718 412.344 113.092 413.115 113.111 413.227L113.576 414.181C113.576 414.181 113.904 414.867 113.878 415.298C113.851 415.729 113.773 416.2 113.131 416.912C112.489 417.625 111.467 418.67 111.467 418.67L114.742 417.056L115.109 417.611L112.64 421.807C112.64 421.807 111.382 422.055 110.301 421.748C109.22 421.441 108.539 420.931 108.539 420.931C108.539 420.931 107.386 419.958 107.019 419.154C106.652 418.35 106.587 418.285 106.534 418.128C106.482 417.971 105.735 417.206 105.395 417.108C105.054 417.01 104.74 416.644 104.74 416.644C104.74 416.644 103.233 418.174 103.01 419.971C102.788 421.768 102.696 422.552 102.788 423.277C102.879 424.003 103.187 425.297 104.111 426.329L102.309 427.238C102.309 427.238 102.1 429.296 102.021 429.584C101.943 429.871 101.418 430.766 100.973 431.315C100.528 431.864 99.414 432.851 99.414 432.851C99.414 432.851 98.3659 433.962 97.213 433.563C97.213 433.563 96.4532 433.263 96.3353 432.479C96.2174 431.694 95.4247 431.119 95.4247 431.119C95.4247 431.119 93.3024 428.486 93.1779 428.081L93.7675 427.571C93.7675 427.571 94.0164 427.362 94.4291 427.623L96.3942 428.793L97.4423 427.898C97.4423 427.898 96.7283 425.728 96.63 424.78C96.5318 423.833 96.3942 420.506 96.3942 420.506L96.2043 415.88C96.2043 415.88 96.1388 414.632 95.9029 414.135C95.6671 413.638 94.7631 412.841 94.7631 412.841L93.1779 411.906C93.1779 411.906 92.0512 411.384 91.8023 409.972C91.8023 409.972 91.6647 409.763 91.8023 408.423C91.9399 407.084 91.6778 406.365 91.6778 406.365C91.6778 406.365 91.442 404.646 91.442 403.594C91.442 402.542 90.8656 400.117 90.8656 400.117C90.8656 400.117 89.9813 397.451 89.8437 397.19C89.7061 396.928 88.3043 394.347 88.1209 394.184C87.9375 394.02 86.837 392.772 86.7322 392.373C86.6274 391.975 85.5334 389.955 85.5334 389.955C85.5334 389.955 84.7474 389.184 85.3697 388.786C85.992 388.387 87.6296 388.472 87.6296 388.472L85.1273 381.578C85.1273 381.578 86.7911 379.598 86.9811 378.023C87.1711 376.448 87.4003 375.716 87.4069 374.833C87.4135 373.951 87.8392 372.527 87.8392 372.527C87.8392 372.527 88.3633 370.246 88.2519 369.847C88.1406 369.449 88.0292 368.9 88.0751 368.566C88.1209 368.233 88.7236 366.247 88.2192 365.763C87.7148 365.279 87.4003 364.907 87.4003 364.907C87.4003 364.907 87.1056 364.632 87.1973 364.325C87.289 364.018 87.4003 361.803 87.4003 361.803C87.4003 361.803 89.6799 362.43 90.145 362.691C90.6101 362.953 94.1146 362.561 94.2457 362.495C94.3767 362.43 95.3396 361.737 95.3723 361.607C95.4051 361.476 95.7588 362.195 95.7588 362.195C95.7588 362.195 95.9226 362.731 95.1955 363.142C94.4684 363.554 94.1277 363.757 94.1277 363.757L97.1148 364.861L97.403 364.064C97.403 364.064 97.8943 365.077 98.51 365.024C99.1258 364.972 99.7219 363.6 99.7219 363.6L101.386 364.9C101.386 364.9 100.842 365.606 100.809 366.037C100.777 366.469 101.386 367.266 101.386 367.266C101.386 367.266 102.185 366.776 102.27 366.148C102.355 365.521 102.198 364.737 102.198 364.737C102.198 364.737 102.322 363.129 102.578 362.874C102.833 362.62 102.938 362.352 104.425 362.711L105.368 362.874L103.921 364.521L104.353 364.704C104.353 364.704 105.46 363.567 106.344 364.43C106.344 364.43 106.941 364.848 107.144 365.26C107.347 365.671 108.683 366.109 108.683 366.109C108.683 366.109 109.587 366.717 110.419 367.338C111.061 367.815 111.657 368.298 111.762 368.514L108.264 369.475C108.264 369.475 109.259 367.756 109.404 367.632C109.548 367.508 109.915 367.161 110.511 367.521C111.107 367.88 111.906 368.632 111.906 368.632C111.906 368.632 110.373 369.677 110.078 372.494C109.783 375.311 109.81 376.245 109.81 376.245C109.81 376.245 110.281 378.656 107.949 378.768L110.393 380.623C110.393 380.623 110.884 384.198 111.041 384.688C111.198 385.178 112.829 389.805 112.764 392.105C112.698 394.406 112.587 395.412 109.364 394.693L109.318 400.006H109.856L108.958 400.986L112.004 406.816L110.373 407.397L111.827 410.482L109.096 411.756L107.281 411.24L105.984 415.017L109.698 414.279L109.096 412.449V411.652" stroke="#1D1D1B" stroke-miterlimit="10"/>
<path d="M115.607 377.604L117.015 373.265C117.015 373.265 118.424 374.728 117.841 375.924C117.258 377.12 115.607 377.604 115.607 377.604V377.604Z" stroke="#1D1D1B" stroke-miterlimit="10"/>
<path d="M127.535 417.2L129.815 422.088C129.815 422.088 127.87 422.754 127.535 419.644C127.201 416.533 127.535 417.2 127.535 417.2Z" stroke="#1D1D1B" stroke-miterlimit="10"/>
<path d="M114.919 436.014L115.928 436.438C115.928 436.438 114.834 440.882 114.205 441.372C113.576 441.862 113.236 441.908 113.236 441.908L112.64 441.124C112.64 441.124 112.325 441.235 112.797 440.431C113.268 439.628 114.919 436.014 114.919 436.014Z" stroke="#1D1D1B" stroke-miterlimit="10"/>
<path d="M98.1628 422.297L100.325 423.859L99.9773 424.767L98.1628 424.872V422.297Z" stroke="#1D1D1B" stroke-miterlimit="10"/>
<path d="M121.411 522.243L121.935 520.557L125.957 518.061C125.957 518.061 130.208 515.212 130.673 514.865C131.138 514.519 138.016 510.742 138.016 510.742L139.936 509.461L140.283 509.984L122.282 522.773L121.411 522.25V522.243Z" stroke="#1D1D1B" stroke-miterlimit="10"/>
<path d="M118.496 523.929L113.484 527.53C113.484 527.53 116.282 527.294 117.507 526.138C118.731 524.981 118.751 524.118 118.718 523.929C118.686 523.739 118.496 523.929 118.496 523.929V523.929Z" stroke="#1D1D1B" stroke-miterlimit="10"/>
<path d="M92.8831 540.404L94.3832 539.842C94.3832 539.842 95.582 542.064 95.4641 543.377C95.3462 544.691 95.2086 546.324 95.2086 546.324L92.5098 544.593L93.4006 540.639L92.8831 540.404Z" stroke="#1D1D1B" stroke-miterlimit="10"/>
<path d="M45.0315 525.889L45.3918 525.249L48.2675 526.752L47.8024 527.576L45.0315 525.889Z" stroke="#1D1D1B" stroke-miterlimit="10"/>
<path d="M31.2296 534.966C31.2296 534.966 32.3104 534.43 32.8803 534.43C33.4502 534.43 35.363 534.071 36.6927 532.208C38.0225 530.346 36.6927 529.019 36.6927 529.019C36.6927 529.019 35.4678 528.732 34.8258 526.686C34.1839 524.641 34.7931 524.464 33.7843 522.563L35.1861 522.739L44.4617 530.954C44.4617 530.954 45.7194 532.568 45.3263 534.973C44.9333 537.378 44.6778 538.665 45.0381 539.887C45.3984 541.109 45.6145 541.109 46.0469 541.357C46.4792 541.606 52.4074 543.795 52.4074 543.795C52.4074 543.795 52.1192 541.821 53.4883 541.717C54.8573 541.612 54.9949 541.749 55.7548 541.142C56.5146 540.534 57.4775 539.704 58.2702 539.743C59.0628 539.782 59.3837 539.528 59.3837 539.528C59.3837 539.528 59.9929 539.743 60.4253 540.678C60.8576 541.612 61.1458 542.651 61.1458 542.651C61.1458 542.651 61.4341 543.547 59.9602 544.409L58.5911 545.664C58.5911 545.664 57.5103 545.559 57.2614 546.919L56.9732 548.356L58.6239 549.003H66.6024C66.6024 549.003 72.963 548.683 73.7556 548.788C74.5482 548.892 83.2473 549.003 83.2473 549.003H122.112C122.112 549.003 123.834 547.03 121.679 545.2C119.524 543.37 119.485 542.22 119.485 542.22L122.361 543.762L123.042 540.462C123.042 540.462 124.62 541.037 125.341 541.037C126.062 541.037 128.112 541.325 128.112 542.651V544.514L130.522 543.089L131.492 544.834L133.254 541.854L129.514 540.096V539.057C129.514 539.057 131.492 538.809 132.14 538.521C132.789 538.234 135.841 539.312 135.841 539.312C135.841 539.312 141.128 540.782 141.848 540.782C142.569 540.782 149.65 541.789 149.65 541.789L151.412 538.384L152.814 539.103C152.814 539.103 152.958 535.986 154.537 535.012C154.537 535.012 156.011 534.94 156.692 534.188C157.373 533.437 158.022 530.457 158.022 530.457L159.463 531.496L155.185 530.849V530.058C155.185 530.058 157.845 528.444 161.978 529.451C161.978 529.451 161.834 528.34 162.194 527.66C162.555 526.98 162.731 524.647 161.657 523.282C160.583 521.916 161.801 519.589 162.915 519.302C164.028 519.014 165.614 517.041 165.614 517.041C165.614 517.041 166.511 516.721 167.055 516.864C167.598 517.008 170.435 515.538 172.158 517.943L172.983 517.975C172.983 517.975 173.776 518.335 174.024 518.367C174.273 518.4 173.736 520.517 173.736 520.517L172.727 519.838L174.45 520.125C174.45 520.125 175.027 519.805 175.459 519.766C175.891 519.727 176.54 519.446 177.326 520.125C178.112 520.805 179.376 522.171 181.243 520.7L173.193 515.283L173.73 514.172L171.791 513.884C171.791 513.884 169.059 510.839 169.885 507.572C169.885 507.572 167.042 505.206 170.782 502.409L171.391 503.807C171.391 503.807 173.042 499.932 173.907 499.684C174.771 499.436 175.741 500.363 175.741 500.363L177.752 502.984L178.361 500.795C178.361 500.795 180.156 503.304 181.669 500.076C181.669 500.076 184.328 502.657 185.154 504.199C185.979 505.742 188.141 505.918 188.141 505.918L189.078 504.232C189.078 504.232 189.471 505.487 189.615 505.735C189.759 505.984 188.933 507.885 188.108 508.643C188.108 508.643 189.294 510.937 189.15 512.447C189.006 513.956 188.285 514.42 188.285 514.42C188.285 514.42 187.82 514.995 188.357 515.603C188.894 516.211 189.798 517.002 190.047 517.106C190.296 517.211 191.449 515.42 191.449 515.42C191.449 515.42 189.615 513.878 191.626 512.407C191.626 512.407 192.811 512.584 193.172 513.59C193.532 514.597 193.82 515.779 193.82 515.779C193.82 515.779 194.036 516.355 193.388 516.819C192.739 517.283 191.842 518.505 191.842 518.505C191.842 518.505 191.41 518.936 192.235 519.511C193.06 520.086 195.327 521.053 195.576 521.556L195.779 521.681L198.013 519.962L198.504 520.413C198.504 520.413 196.381 521.053 197.541 524.687L198.504 521.615H198.871V525.647L202.912 521.949L203.541 522.177L201.884 525.517L204.897 524.458L204.301 525.713L207.183 527.562V527.098L212.751 528.915L208.277 530.3C208.277 530.3 209.967 531.457 211.127 531.856C212.286 532.254 213.38 531.326 213.38 531.326C213.38 531.326 214.245 530.464 214.572 531.359L214.874 532.052C214.874 532.052 220.913 534.443 221.522 534.496C222.132 534.548 226.029 535.554 226.894 536.116C227.758 536.678 231.964 537.58 232.874 537.534C233.785 537.489 234.951 537.587 236.019 538.397C237.086 539.207 239.006 539.358 239.517 537.639L242.556 539.103C242.556 539.103 244.181 539.965 246.506 539.965C248.831 539.965 250.207 541.129 250.207 541.129C250.207 541.129 252.185 542.292 255.12 542.089C258.055 541.887 258.107 542.795 258.107 542.795C258.107 542.795 258.972 544.311 261.5 543.351L263.223 544.409V543.854C263.223 543.854 265.45 544.207 266.721 544.154C267.992 544.102 269.105 543.396 269.662 543.952C270.219 544.507 270.016 545.572 271.182 545.925L270.474 547.696C270.474 547.696 273.972 546.991 279.291 547.899C279.291 547.899 281.977 548.304 283.399 547.899C284.82 547.494 287.453 547.141 287.453 547.141L285.934 548.99L292.471 548.605L292.268 535.26L293.133 535.11C293.133 535.11 293.486 535.816 293.742 536.371C293.997 536.927 293.794 538.953 293.742 539.756C293.69 540.56 294.299 547.801 294.96 548.99L419.08 549.16C419.08 549.16 419.027 549.781 418.615 549.931C418.202 550.082 29.3496 549.931 29.3496 549.931C29.3496 549.931 29.1334 549.356 29.1334 549.095L47.8417 548.944C47.8417 548.944 48.3658 549.075 48.6998 548.873C49.0339 548.67 51.0777 546.625 51.248 545.827C51.4183 545.03 48.4182 543.566 48.4182 543.566C48.4182 543.566 43.4529 542.044 42.5423 541.227C41.6318 540.41 39.9352 539.168 39.6601 538.724C39.385 538.279 37.315 537.293 37.0923 537.293C36.8696 537.293 34.7145 535.973 34.3214 535.456L31.3606 535.678L31.2296 534.966V534.966Z" stroke="#1D1D1B" stroke-miterlimit="10"/>
<path d="M148.694 548.475L156.273 546.436C156.273 546.436 157.196 546.031 157.969 546.436C158.742 546.841 159.168 547.782 159.168 547.782C159.168 547.782 158.552 548.743 158.185 548.802C157.818 548.86 148.7 548.802 148.7 548.802V548.475H148.694Z" stroke="#1D1D1B" stroke-miterlimit="10"/>
<path d="M191.062 526.941L192.825 529.255C192.825 529.255 191.822 529.738 191.613 529.98C191.403 530.222 189.399 529.327 191.062 526.948V526.941Z" stroke="#1D1D1B" stroke-miterlimit="10"/>
<path d="M182.907 522.393C182.907 522.393 184.119 525.184 185.121 525.876C186.123 526.569 188.54 527.425 188.54 527.425C188.54 527.425 189.13 527.321 189.51 526.772C189.89 526.223 189.13 525.876 189.13 525.876C189.13 525.876 186.294 525.151 186.778 523.047C186.778 523.047 186.916 521.772 182.907 522.393V522.393Z" stroke="#1D1D1B" stroke-miterlimit="10"/>
<path d="M183.221 539.253C183.221 539.253 189.418 536.358 190.414 536.319C191.41 536.28 197.908 534.078 197.908 534.078C197.908 534.078 199.742 532.973 201.019 534.078C202.297 535.182 202.126 535.731 202.126 535.731L196.768 536.143L196.558 536.626L208.827 538.835C208.827 538.835 208.755 540.351 209.862 540.319C209.862 540.319 211.52 539.489 211.729 540.149C211.729 540.149 210.865 541.253 210.865 541.907C210.865 542.56 212.077 543.116 212.077 543.116C212.077 543.116 213.734 543.462 214.009 543.704C214.284 543.946 215.529 544.632 215.529 544.632V545.325H213.629C213.629 545.325 209.862 544.808 208.205 544.253C206.548 543.697 205.506 542.286 205.506 542.286L199.84 542.456C199.84 542.456 198.596 542.835 198.425 543.148C198.255 543.462 197.39 544.357 196.663 543.181L196.558 542.181C196.558 542.181 196.63 543.423 195.346 543.351C194.063 543.279 194.967 542.763 193.27 542.939L194.2 544.834C194.2 544.834 189.602 544.285 188.252 543.665C186.903 543.044 183.208 539.253 183.208 539.253H183.221Z" stroke="#1D1D1B" stroke-miterlimit="10"/>
</g>
<defs>
<clipPath id="clip0_150_1520">
<rect width="389.94" height="550.174" fill="white" transform="translate(29.1334)"/>
</clipPath>
</defs>
</svg>
