<svg width="678" height="696" viewBox="0 0 678 696" fill="none" xmlns="http://www.w3.org/2000/svg">
<path d="M231.48 216.472C233.289 214.252 235.33 212.248 237.568 210.494C259.078 193.921 262.451 181.052 333.34 198.186C333.34 198.186 381.508 212.266 430.869 190.85C447.558 183.4 466.195 181.228 484.507 184.599C497.881 187.188 510.722 192.545 522.248 200.341C525.323 202.416 532.287 206.166 535.141 208.397C554.782 224.13 618.415 263.417 592.723 383.584L592.361 385.334C591.363 390.668 582.355 427.991 526.348 424.995C475.45 422.305 452.073 474.062 445.998 490.192C444.073 495.175 442.829 500.437 442.302 505.83C439.939 524.003 433.881 541.293 424.524 556.58C415.166 571.867 402.717 584.809 387.984 594.567C373.25 604.326 356.562 610.681 339.001 613.223C321.441 615.764 303.4 614.434 286.048 609.319L285.09 609.035C253.306 599.66 234.866 593.103 214.354 600.065C193.842 607.028 150.464 613.884 99.264 522.933C48.064 431.982 82.8746 325.86 82.8746 325.86C82.8746 325.86 99.8684 277.994 146.102 265.551C154.99 263.248 163.674 260.265 172.083 256.626C189.604 248.821 215.949 234.937 231.48 216.472Z" fill="#C555D8"/>
<g opacity="0.5" clip-path="url(#clip0_150_1517)">
<path d="M129.893 243.474C129.893 243.474 131.42 239.586 134.636 239.925C137.852 240.265 141.579 241.023 141.579 241.023L140.623 241.559L144.717 243.16C144.717 243.16 144.914 243.879 144.193 244.317C143.374 244.82 142.038 244.48 142.038 244.48C140.086 243.977 138.068 243.801 136.097 243.369C134.675 243.062 132.605 242.866 129.887 243.467L129.893 243.474Z" stroke="#1D1D1B" stroke-miterlimit="10"/>
<path d="M145.149 242.252C145.149 242.252 146.093 243.324 148.464 242.716C148.464 242.716 149.158 242.076 152.479 242.905L158.991 243.945C158.991 243.945 160.713 244.284 161.735 244.605C162.757 244.925 164.113 245.252 164.113 245.252V246.029L157.274 246.441L162.639 250.649L159.364 251.793C159.364 251.793 159.2 249.957 156.908 249.584L154.615 249.218C154.615 249.218 153.593 249.382 153.141 251.427C152.689 253.472 150.888 254.002 150.481 254.041C150.075 254.08 148.025 254.204 147.861 254.041C147.861 254.041 145.464 252.937 144.756 252.081C144.756 252.081 143.931 250.689 143.885 250.244L140.118 252.002V252.368L142.902 253.923C142.902 253.923 139.955 256.25 138.481 253.557C138.481 253.557 137.741 252.126 139.712 249.878C139.712 249.878 141.474 247.996 145.654 247.303C149.833 246.611 154.458 246.16 154.458 246.16C154.458 246.16 149.217 244.605 146.636 245.016C144.055 245.428 144.75 242.99 145.162 242.265L145.149 242.252Z" stroke="#1D1D1B" stroke-miterlimit="10"/>
<path d="M159.79 252.08L163.071 253.452C163.071 253.452 161.617 256.753 156.344 257.844C156.344 257.844 153.567 257.87 152.591 258.177C151.615 258.484 148.3 257.615 148.3 257.615V256.89C148.3 256.89 159.069 255.191 159.79 252.08V252.08Z" stroke="#1D1D1B" stroke-miterlimit="10"/>
<path d="M188.579 243.859L184.046 246.604L184.367 247.016H186.935C186.935 247.016 185.193 249.166 187.485 249.989C189.778 250.813 193.394 250.813 193.394 250.813C193.394 250.813 197.468 250.538 198.752 249.577C200.036 248.617 200.311 248.846 199.486 246.055C199.486 246.055 197.423 246.97 196.23 248.159C195.038 249.349 191.999 248.251 191.999 248.251C191.999 248.251 190.047 248.114 188.579 243.866V243.859Z" stroke="#1D1D1B" stroke-miterlimit="10"/>
<path d="M197.553 239.657C197.553 239.657 204.425 236.776 208.735 237.279C208.735 237.279 208.467 238.507 208.735 239.246C209.004 239.984 208.683 241.017 207.726 241.115C207.726 241.115 206.515 241.363 206.397 241.435C206.279 241.507 206.148 241.533 204.864 240.847C203.58 240.161 199.112 239.788 198.222 240.357L197.56 239.657H197.553Z" stroke="#1D1D1B" stroke-miterlimit="10"/>
<path d="M195.313 251.989V252.707L194.547 253.328H200.6C200.6 253.328 201.654 253.76 202.041 254.335C202.041 254.335 204.445 253.139 204.923 255.583C204.923 255.583 205.788 257.785 206.266 258.792C206.266 258.792 206.652 260.419 206.842 260.759C207.032 261.098 206.842 262.771 205.499 262.726C205.499 262.726 205.021 262.438 204.536 266.797L203.672 272.881C203.672 272.881 201.51 272.659 200.305 274.9C199.099 277.142 197.567 278.736 196.427 278.704C195.287 278.671 193.754 277.959 193.754 277.959L190.852 276.658C190.852 276.658 189.418 276.233 188.606 276.462C188.606 276.462 189.293 273.763 190.007 272.986C190.721 272.208 191.638 271.326 191.802 269.568C191.966 267.81 192.064 266.444 189.621 263.131C189.621 263.131 189.85 261.798 189.228 260.922C188.606 260.046 185.481 253.733 185.481 253.733C185.481 253.733 184.957 252.159 187.112 251.989C189.267 251.819 195.326 251.989 195.326 251.989H195.313Z" stroke="#1D1D1B" stroke-miterlimit="10"/>
<path d="M174.64 287.65L178.57 287.912V289.304L174.64 288.742V287.65Z" stroke="#1D1D1B" stroke-miterlimit="10"/>
<path d="M158.951 293.447L163.15 293.754C163.15 293.754 163.583 293.532 164.093 294.715C164.093 294.715 163.497 295.225 163.131 295.225C162.764 295.225 158.814 294.336 158.814 294.336L158.958 293.447H158.951Z" stroke="#1D1D1B" stroke-miterlimit="10"/>
<path d="M193.073 320.659C193.073 320.659 196.584 317.156 200.528 321.763L193.073 320.659Z" stroke="#1D1D1B" stroke-miterlimit="10"/>
<path d="M198.759 328.782C198.759 328.782 201.248 327.279 201.425 327.24C201.602 327.2 203.41 325.475 200.966 324.077C198.523 322.678 196.289 322.456 196.289 322.456C196.289 322.456 193.944 322.175 193.178 322.815C192.411 323.456 193.178 324.56 193.178 324.56C193.178 324.56 193.636 325.181 194.56 325.763C195.484 326.344 198.752 328.788 198.752 328.788L198.759 328.782Z" stroke="#1D1D1B" stroke-miterlimit="10"/>
<path d="M108.44 241.644C108.44 241.644 109.704 242.8 109.914 244.173C109.914 244.173 112.049 244.565 112.259 247.303C112.469 250.041 113.235 250.91 113.235 250.91L114.028 252.492C114.028 252.492 111.604 253.544 108.434 249.492C105.263 245.44 105.112 245.016 105.374 243.493C105.636 241.97 108.434 241.65 108.434 241.65L108.44 241.644Z" stroke="#1D1D1B" stroke-miterlimit="10"/>
<path d="M200.796 205.244C201.733 204.957 202.624 204.094 202.624 204.094C204.026 203.16 202.48 202.676 202.48 202.676L194.115 201.363C194.56 202.395 196.224 203.735 196.224 203.735C198.942 205.702 200.711 205.251 200.711 205.251L201.078 206.323C201.563 207.577 201.857 207.551 201.857 207.551L214.343 215.236L214.113 215.7L206.593 212.113L205.781 214.243L202.113 213.916L203.731 217.857L206.069 218.733L206.534 220.111C206.737 221.137 207.425 221.902 208.683 221.843C209.941 221.784 210.314 221.98 210.314 221.98L205.06 223.072L203.777 222.974L203.174 223.928L201.995 224.353L201.268 224.3L201.065 224.928L201.504 225.529L201.654 226.078C201.674 227.025 201.792 228.332 201.792 228.332C202.106 230.221 205.414 230.188 205.414 230.188C204.831 231.665 202.545 233.319 202.545 233.319C197.934 235.599 193.407 238.416 191.796 239.756C190.184 241.095 188.527 242.252 188.527 242.252C188.527 242.252 186.555 243.101 184.944 244.219C183.332 245.336 180.018 250.029 179.12 251.323C178.223 252.616 177.784 254.485 177.568 256.217C177.352 257.949 178.472 260.471 178.675 261.014C178.878 261.556 178.76 262.955 178.76 262.955C178.95 264.177 178.537 265.314 178.537 265.314C177.823 267.431 179.409 268.046 179.409 268.046C178.917 269.287 179.848 271.104 179.848 271.104C179.848 271.104 180.771 272.796 180.535 273.104C180.3 273.411 180.28 274.724 180.28 274.724C180.437 277.031 182.278 279.083 182.756 280.044C183.234 281.004 182.998 281.344 182.998 281.344L182.736 281.501C182.736 281.501 181.747 282.037 181.577 283.128C181.407 284.22 181.852 285.644 181.904 286.076C181.957 286.507 181.577 287.402 181.577 287.402L187.977 289.611C187.485 290.023 177.614 292.944 177.614 292.944C175.17 293.891 173.913 293.251 173.913 293.251C170.88 292.277 164.526 293.61 164.526 293.61C164.526 293.61 165.554 294.506 166.812 295.231C168.07 295.956 169.373 295.839 170.041 295.662C170.71 295.486 172.485 296.048 172.485 296.048C173.926 296.584 178.865 295.532 178.865 295.532C179.428 295.198 180.175 295.636 180.175 295.636L181.819 296.512L180.968 297.126L184.597 297.714C184.597 297.714 183.49 298.969 182.848 299.485C182.206 300.002 182.022 301.616 182.566 302.361C183.11 303.106 184.086 308.543 184.086 308.543C185.271 308.21 186.3 306.929 186.3 306.929L198.674 289.317C198.674 289.317 198.955 288.683 199.702 288.324C200.449 287.964 200.809 289.317 200.809 289.317C200.809 289.317 200.966 291.454 201.248 296.1C201.53 300.747 201.713 300.76 201.713 300.76C201.713 300.76 201.942 303.452 198.346 303.733C194.75 304.014 188.776 308.17 186.876 310.379C184.977 312.588 182.789 312.457 182.376 312.379C181.963 312.3 180.601 312.248 180.188 312.202C179.775 312.157 178.079 312.379 177.306 312.536C176.533 312.693 176.743 312.738 176.382 313.692C176.022 314.646 176.356 314.973 176.356 314.973L182.363 323.789L182.573 323.848C183.051 325.155 184.361 327.416 185.841 328.416C187.322 329.416 188.239 331.461 188.239 331.461V332.245C188.239 332.245 186.758 332.552 185.579 332.422C184.4 332.291 184.4 332.598 184.4 332.598C182.697 333.944 179.382 332.598 179.382 332.598C179.382 332.598 175.111 331.03 174.234 331.121C173.356 331.213 171.528 330.553 171.528 330.553L166.773 327.769C166.773 327.769 166.511 325.2 164.244 323.247C161.978 321.293 161.454 318.94 161.454 318.94H162.633C162.633 318.94 162.855 318.443 162.6 317.888C162.345 317.332 161.303 315.222 161.152 315.071C161.002 314.921 159.685 312.608 158.735 311.843L155.46 308.294L152.493 306.086L143.898 300.315C143.898 300.315 137.564 295.649 137.151 295.172C137.151 295.172 131.852 290.134 131.295 289.474C130.738 288.814 125.655 283.259 124.672 280.893C124.672 280.893 122.406 276.129 122.046 275.116C121.685 274.103 118.744 265.471 118.744 265.471L117.048 260.857C117.048 260.857 116.353 259.537 115.423 259.04C114.493 258.544 110.818 256.387 109.665 254.538C108.512 252.688 107.497 250.231 107.497 250.231C107.497 250.231 107.143 249.074 106.141 248.343C105.139 247.611 103.016 243.52 103.252 241.579C103.252 241.579 103.233 238.998 103.128 238.625C103.023 238.253 102.787 236.168 103.036 235.704C103.285 235.24 102.82 233.41 102.82 233.41C102.82 233.41 101.765 230.829 101.857 230.528C101.857 230.528 103.75 230.103 106.482 232.116C109.213 234.129 111.034 234.521 111.283 234.521C111.532 234.521 113.602 231.796 113.694 230.371C113.785 228.947 114.211 228.306 114.676 227.895C115.141 227.483 115.764 226.561 115.744 226.222C115.724 225.882 115.921 225.366 114.336 224.477C112.75 223.588 113.785 224.529 112.908 223.412L115.246 223.464L114.283 222.183C114.283 222.183 115.783 217.216 116.799 215.576C117.814 213.936 119.871 213.119 119.871 213.119C119.871 213.119 121.816 212.433 122.282 210.976C122.282 210.976 122.53 210.139 122.511 209.943L117.493 210.315C117.493 210.315 118.312 207.538 118.332 207.251C118.351 206.963 118.495 205.414 119.74 205.022C119.74 205.022 121.436 204.774 121.934 204.473L124.201 203.264L127.325 206.205L128.649 206.898L130.935 205.493C130.935 205.493 132.31 204.297 132.468 203.963C132.625 203.63 134.02 203.127 134.878 203.232C135.736 203.336 138.946 204.46 138.946 204.46C138.946 204.46 141.357 203.584 142.32 203.715C143.282 203.846 143.374 204.003 143.374 204.003L143.518 203.807L141.678 201.513C141.678 201.513 143.748 200.944 143.911 200.892C144.075 200.84 145.713 200.572 146.466 200.663C147.219 200.755 149.538 200.52 149.748 200.415C149.957 200.31 150.979 199.918 151.32 199.65C151.661 199.382 153.816 198.585 155.748 198.775C157.681 198.964 160.32 198.938 161.192 199.115C162.063 199.291 167.061 200.023 167.061 200.023C167.061 200.023 171.614 199.794 172.039 199.879C172.465 199.964 174.987 200.075 174.987 200.075C174.987 200.075 176.86 200.056 177.627 197.598L181.217 198.794L183.824 197.834L183.66 198.174L183.267 197.762C183.267 197.762 182.573 197.533 182.304 196.782C182.035 196.03 181.839 195.481 181.839 195.481L182.769 195.233C182.769 195.233 183.267 195.089 183.824 195.481C184.38 195.873 187.623 197.618 187.623 197.618C187.623 197.618 188.232 198.082 189.392 197.814C189.392 197.814 189.215 199.291 190.767 200.52C192.32 201.748 193.944 201.376 193.944 201.376C193.944 201.376 198.425 200.879 199.781 200.879C199.781 200.879 201.065 200.97 202.014 201.251C202.964 201.532 203.475 201.343 203.475 201.343C203.475 201.343 204.117 201.323 204.366 201.467C204.366 201.467 202.689 201.5 202.565 202.591L202.545 202.676V202.696" stroke="#1D1D1B" stroke-miterlimit="10"/>
<path d="M203.737 217.857L206.456 216.399L207.517 218.223L206.711 219.778L206.541 220.111" stroke="#1D1D1B" stroke-miterlimit="10"/>
<path d="M206.076 218.732L206.711 219.778" stroke="#1D1D1B" stroke-miterlimit="10"/>
<path d="M201.608 226.156L206.967 223.908L206.187 223.039L205.067 223.072L204.392 223.908L203.573 224.307L202.335 224.699L202.368 225.143L202.375 225.209L201.949 224.699L201.274 224.294" stroke="#1D1D1B" stroke-miterlimit="10"/>
<path d="M203.2 225.568L203.056 225.47L202.362 225.071" stroke="#1D1D1B" stroke-miterlimit="10"/>
<path d="M201.923 224.294L202.408 224.771H201.923V224.294Z" stroke="#1D1D1B" stroke-miterlimit="10"/>
<path d="M203.18 223.921L203.573 224.306" stroke="#1D1D1B" stroke-miterlimit="10"/>
<path d="M203.783 222.967L204.012 223.522L204.392 223.908" stroke="#1D1D1B" stroke-miterlimit="10"/>
<path d="M248.831 240.723L240.171 241.794L242.28 242.167L242.326 242.546L235.769 244.448L235.92 244.846L236.752 245.121C236.752 245.121 233.031 246.5 230.621 248.231C228.21 249.963 224.09 252.669 224.09 252.669C224.09 252.669 225.118 253.871 223.841 255.178C222.563 256.485 220.526 258.086 219.517 260.393C219.517 260.393 214.565 268.738 214.565 268.941C214.565 269.143 212.96 272.626 212.528 275.306C212.096 277.985 211.323 281.697 211.323 283.756C211.323 285.814 211.093 286.435 211.526 289.095C211.958 291.754 214.618 299.172 216.373 301.929C216.373 301.929 216.904 303.034 216.701 303.831C216.701 303.831 215.115 304.256 214.166 306.386C213.216 308.517 212.102 311.797 212.102 311.797C212.102 311.797 211.421 313.274 211.827 316.156C211.827 316.156 212.004 317.358 213.183 319.24C214.362 321.123 217.251 325.808 217.251 325.808L217.755 325.481L217.375 322.449L217.775 322.22L220.035 324.704C220.035 324.704 222.295 324.129 220.814 321.619C219.334 319.11 218.43 317.835 218.43 317.835C218.43 317.835 217.926 317.26 217.854 316.084C217.854 316.084 221.142 317.914 221.797 318.293C222.452 318.672 223.081 319.169 223.081 319.169C223.081 319.169 224.312 319.92 225.013 318.293C225.013 318.293 225.668 315.287 224.234 314.509C222.799 313.731 220.841 310.752 220.841 310.752C220.841 310.752 221.07 312.705 222.275 314.058L224.941 318.045C224.941 318.045 225.898 318.345 226.199 318.646C226.5 318.946 232.782 327.246 232.959 327.671C233.136 328.095 235.822 331.931 236.503 332.382C237.184 332.833 242.732 337.192 242.732 337.192C242.732 337.192 245.549 339.349 246.303 340.322C247.056 341.296 251.628 344.812 252.584 344.962C252.584 344.962 257.989 347.772 260.425 348.092C262.862 348.413 268.79 350.197 268.79 350.197C268.79 350.197 276.553 352.451 279.92 352.451C283.287 352.451 289.968 351.922 291.102 351.399C291.102 351.399 301.275 348.994 303.489 347.818C305.703 346.642 307.511 346.714 309.495 344.812C309.495 344.812 310.753 343.485 312.057 343.211C313.36 342.936 320.651 337.244 320.651 337.244L319.649 335.839L320.651 334.238C320.651 334.238 318.214 333.036 319.446 329.527L317.16 327.148C317.16 327.148 315.856 326.37 316.079 322.234L314.598 322.057L315.05 321.73L313.491 319.025C313.491 319.025 312.509 317.319 311.054 316.169C309.6 315.019 308.113 311.81 308.29 310.582C308.29 310.582 308.113 308.804 308.945 306.445C308.945 306.445 306.711 305.942 306.384 305.844C306.056 305.746 304.904 305.517 304.072 306.295C304.072 306.295 302.696 307.085 302.493 307.112C302.29 307.138 301.091 307.634 301.091 307.634C301.091 307.634 299.899 307.83 299.63 307.83C299.362 307.83 296.211 308.399 296.211 308.399C296.211 308.399 294.18 308.386 293.813 308.144C293.813 308.144 293.021 307.915 293.021 307.817C293.021 307.719 292.34 307.549 291.802 307.817C291.802 307.817 291.265 307.83 290.997 307.778C290.997 307.778 288.501 307.837 287.355 307.085C286.208 306.334 284.577 304.994 284.577 304.994L282.763 303.367C282.763 303.367 282.468 303.125 282.324 302.831C282.18 302.537 280.765 300.622 280.765 300.622L278.669 297.695L276.54 294.682C276.54 294.682 274.529 291.767 274.424 291.571C274.319 291.375 273.088 289.238 273.009 288.585C272.93 287.931 272.426 285.938 272.714 284.932L271.168 284.906C271.168 284.906 273.454 283.847 271.398 282.089C269.341 280.331 268.162 279.514 268.162 279.514C268.162 279.514 265.62 277.377 263.242 277.913C260.864 278.449 259.967 279.057 259.967 279.057C259.967 279.057 261.113 273.156 261.526 272.195C261.939 271.234 263.622 269.477 265.712 269.66L265.751 268.444L267.369 268.555C267.369 268.555 268.391 269.562 269 269.503C269.609 269.444 271.352 269.078 271.653 268.764C271.954 268.451 271.692 267.66 271.692 267.66L271.568 266.738C271.568 266.738 271.24 265.392 271.443 264.713C271.647 264.033 272.026 262.791 272.026 262.791L276.396 263.131C276.396 263.131 275.97 265.719 276.664 266.484C277.359 267.248 278.466 267.915 278.466 267.915C278.466 267.915 276.723 269.856 276.933 271.62C277.142 273.385 277.385 273.855 277.738 274.352C278.092 274.848 278.859 275.58 279.225 275.822C279.592 276.064 280.103 276.332 280.457 277.436C280.457 277.436 280.883 279.063 280.896 279.658C280.909 280.253 281.531 280.959 281.721 281.115C281.911 281.272 283.195 281.88 283.195 281.88C283.195 281.88 283.975 282.148 284.499 283.226C285.023 284.304 285.337 285.023 285.914 285.363C286.49 285.703 286.693 286.03 287.433 285.912C288.173 285.794 288.698 284.906 288.698 284.906C288.698 284.906 289.791 283.873 290.086 283.873C290.381 283.873 291.167 282.828 291.167 282.828C291.167 282.828 292.032 281.71 293.479 281.527C294.927 281.344 296.643 280.906 296.742 280.834C296.84 280.762 297.253 280.455 298.058 280.861C298.864 281.266 299.421 281.494 299.421 281.494L299.617 281.213L297.56 280.24L300.128 279.606C300.128 279.606 300.823 281.475 302.906 281.331C302.906 281.331 303.967 281.135 304.576 280.736C305.185 280.338 306.292 280.253 306.803 280.566C307.314 280.88 308.022 282.279 308.022 282.279L312.063 283.847L307.183 284.782C307.183 284.782 310.616 287.683 312.319 288.023C312.319 288.023 313.026 288.448 314.061 288.252C315.096 288.056 314.756 286.017 314.756 286.017C314.756 286.017 315.083 284.501 317.153 284.729C317.153 284.729 320.697 285.834 321.037 285.847L319.59 286.964C319.59 286.964 319.492 287.121 319.819 287.232C320.147 287.343 321.293 288.036 321.293 288.036C321.293 288.036 321.843 288.415 321.535 288.944C321.227 289.474 320.782 289.565 320.782 289.565C320.782 289.565 318.895 290.016 317.821 289.323C316.747 288.631 316.262 288.01 316.262 288.01C316.262 288.01 314.985 286.271 314.873 286.141C314.762 286.01 314.821 286.075 314.821 286.075" stroke="#1D1D1B" stroke-miterlimit="10"/>
<path d="M305.12 277.351L307.406 276.979C307.406 276.979 307.956 278.521 307.406 279.07C306.856 279.619 304.707 279.488 304.707 279.488C304.707 279.488 305.88 278.906 306.063 278.606C306.246 278.305 306.011 277.893 305.12 277.344V277.351Z" stroke="#1D1D1B" stroke-miterlimit="10"/>
<path d="M291.265 289.48V290.304L292.281 294.806C292.281 294.806 288.501 294.48 288.056 293.042C287.61 291.604 288.029 291.088 288.671 290.618C289.313 290.147 291.272 289.487 291.272 289.487L291.265 289.48Z" stroke="#1D1D1B" stroke-miterlimit="10"/>
<path d="M291.39 296.42L299.644 295.087C299.644 295.087 298.491 296.668 296.146 297.283C293.8 297.897 291.39 296.42 291.39 296.42V296.42Z" stroke="#1D1D1B" stroke-miterlimit="10"/>
<path d="M253.063 283.905C253.063 283.905 253.908 282.736 254.196 282.363C254.484 281.991 255.061 281.252 256.626 281.252C258.192 281.252 258.644 281.089 258.644 281.089C258.644 281.089 258.585 283.389 257.019 284.396C255.454 285.402 254.504 285.056 254.504 285.056C254.504 285.056 253.43 284.376 253.063 283.905Z" stroke="#1D1D1B" stroke-miterlimit="10"/>
<path d="M236.981 274.358L249.774 266.131C249.774 266.131 251.726 264.739 251.805 264.582C251.884 264.425 252.165 263.87 253.875 265.098L256.783 266.686C256.783 266.686 254.032 268.633 253.757 269.071C253.482 269.509 250.128 271.058 249.892 271.019C249.656 270.98 246.787 271.934 246.388 272.293C245.988 272.653 242.962 273.685 242.405 273.842C241.848 273.999 237.427 275.09 237.427 275.09L236.988 274.358H236.981Z" stroke="#1D1D1B" stroke-miterlimit="10"/>
<path d="M264.893 255.316L265.214 256.688L264.284 257.008C264.284 257.008 263.76 256.989 263.491 256.825C263.223 256.662 261.69 256.42 261.022 257.511C260.354 258.603 258.572 261.955 258.572 261.955L259.24 263.007L262.22 263.393L260.963 264.099L261.107 264.504L264.873 263.288L263.498 262.7C263.498 262.7 264.186 262.177 264.205 262.073C264.225 261.968 265.397 261.589 265.397 261.589C265.397 261.589 267.304 260.596 268.457 259.328C269.609 258.06 269.852 257.348 269.957 257.087C270.061 256.825 270.363 255.368 268.679 255.087L264.893 255.309V255.316Z" stroke="#1D1D1B" stroke-miterlimit="10"/>
<path d="M256.017 263.353C256.017 263.353 256.535 262.464 256.58 262.386C256.626 262.308 257.137 261.563 257.242 261.523C257.347 261.484 257.432 261.393 257.825 261.628C258.218 261.863 258.716 262.079 258.716 262.079L258.244 262.157L259.371 262.987C259.371 262.987 259.292 263.948 258.762 264.17C258.231 264.392 257.373 263.967 257.373 263.967L256.024 263.36L256.017 263.353Z" stroke="#1D1D1B" stroke-miterlimit="10"/>
<path d="M267.343 268.529V268.476L267.598 266.117L271.437 266.738C271.483 266.745 271.509 266.751 271.509 266.751" stroke="#1D1D1B" stroke-miterlimit="10"/>
<path d="M259.469 244.363L266.203 244.801L266.111 245.213L263.491 245.592L267.356 249.728C267.356 249.728 266.38 249.807 266.111 249.885C265.843 249.963 265.81 250.12 264.899 249.395C263.989 248.67 262.849 247.931 262.849 247.931C262.849 247.931 260.877 246.088 260.497 245.036C260.497 245.036 259.534 244.657 259.476 244.356L259.469 244.363Z" stroke="#1D1D1B" stroke-miterlimit="10"/>
<path d="M248.634 240.722L243.708 236.004L243.931 235.533L246.754 236.612L246.669 236.755L250.036 235.533L253.108 233.645L253.488 233.553L254.189 232.972L256.554 233.769L257.877 233.782L259.816 231.652L259.404 231.22C259.404 231.22 258.604 231.828 258.414 231.874C258.224 231.92 257.635 231.926 257.262 231.789C256.888 231.652 256.554 231.586 256.554 231.586L255.991 231.148L257.052 230.534L258.493 229.868L256.2 228.005L255.349 225.594L253.901 225.718C253.901 225.718 253.449 226.744 253.246 226.979C253.043 227.214 252.781 227.175 252.781 227.175C252.781 227.175 251.936 227.28 251.844 228.149C251.753 229.018 252.021 229.613 252.021 229.613L252.702 230.103L252.467 230.24L252.27 230.351L252.06 229.691C252.06 229.691 251.563 228.502 251.346 228.299C251.13 228.097 250.285 226.698 248.536 226.613L246.368 228.456L249.047 232.331L252.132 230.404L252.814 230.044L253.698 229.959L254.772 230.064L254.969 232.168L253.063 232.063L252.683 230.155" stroke="#1D1D1B" stroke-miterlimit="10"/>
<path d="M256.168 228.031L255.146 228.489L255.237 228.417L254.517 228.43L254.759 229.443L254.726 230.116H255.218L254.766 229.462" stroke="#1D1D1B" stroke-miterlimit="10"/>
<path d="M255.152 228.541V229.946L255.218 230.168L255.965 231.103" stroke="#1D1D1B" stroke-miterlimit="10"/>
<path d="M258.152 229.646L258.093 229.574C258.093 229.574 257.471 229.437 257.059 229.607C256.646 229.776 257.098 230.508 257.098 230.508" stroke="#1D1D1B" stroke-miterlimit="10"/>
<path d="M256.561 231.646L255.807 232.201L254.897 232.116L256.587 233.802" stroke="#1D1D1B" stroke-miterlimit="10"/>
<path d="M253.187 233.691L249.001 232.253C249.001 232.253 249.283 232.273 248.68 233.854C248.078 235.435 249.532 235.488 249.532 235.488H250.128" stroke="#1D1D1B" stroke-miterlimit="10"/>
<path d="M257.74 233.802C257.74 233.802 258.539 233.567 259.679 233.802C260.818 234.037 262.129 234.318 262.129 234.318C262.129 234.318 263.105 234.495 263.707 234.423C264.31 234.351 264.978 234.181 265.293 233.972C265.293 233.972 265.345 233.841 265.686 233.998L266.793 234.214L269.799 234.789C269.799 234.789 271.633 235.043 271.869 235.05C272.105 235.057 272.767 235.07 273.566 234.743C274.365 234.416 275.066 234.115 275.066 234.115L274.974 233.553L272.95 232.338C272.95 232.338 272.367 231.292 272.367 231.116C272.367 230.94 271.686 230.175 271.404 229.985C271.123 229.796 269.865 228.62 269.865 228.62L268.319 227.273L267.074 226.136L265.725 224.784C265.725 224.784 264.651 223.856 263.773 223.777C262.895 223.699 262.725 223.725 262.725 223.725" stroke="#1D1D1B" stroke-miterlimit="10"/>
<path d="M255.257 225.6L256.574 225.156L257.668 224.921L258.283 224.365L258.637 224.307H259.993L264.002 223.535L262.247 220.876C262.247 220.876 260.982 219.124 260.871 219.039C260.76 218.954 260.38 218.347 260.046 218.242C259.711 218.138 258.323 217.014 258.323 217.014C258.323 217.014 258.126 217.608 257.569 217.778C257.569 217.778 257.124 217.817 256.633 217.412C256.141 217.007 255.748 216.961 255.748 216.961L255.526 215.53L256.829 214.021L258.349 217.085" stroke="#1D1D1B" stroke-miterlimit="10"/>
<path d="M258.303 224.418L256.358 223.059L256.233 223.098C256.233 223.098 254.53 222.444 254.432 222.438C254.432 222.438 253.469 222.202 253.384 222.202C253.299 222.202 250.272 221.68 250.272 221.68L250.711 222.771L253.089 224.66L256.174 223.13" stroke="#1D1D1B" stroke-miterlimit="10"/>
<path d="M253.908 225.673L253.122 224.601C253.122 224.601 251.477 224.176 251.353 224.124C251.229 224.072 250.58 223.837 250.397 223.706C250.213 223.575 248.635 222.667 248.635 222.667L249.624 221.432L249.663 221.445L250.325 221.713" stroke="#1D1D1B" stroke-miterlimit="10"/>
<path d="M248.569 226.673L246.774 225.163L244.809 224.104L245.313 223.065L246.008 223.02L246.08 223.078L246.06 223.941L247.488 223.836L246.8 225.117" stroke="#1D1D1B" stroke-miterlimit="10"/>
<path d="M245.851 224.601L246.145 223.882H245.608L245.877 224.633" stroke="#1D1D1B" stroke-miterlimit="10"/>
<path d="M245.3 223.02L245.713 223.928L244.809 224.104" stroke="#1D1D1B" stroke-miterlimit="10"/>
<path d="M246.473 223.065H247.383L247.351 223.902L246.879 223.915L246.473 223.065Z" stroke="#1D1D1B" stroke-miterlimit="10"/>
<path d="M247.102 220.993L246.054 222.79L246.008 223.019L246.08 223.078L246.558 223.143L246.473 222.627L247.383 222.692L247.102 220.993Z" stroke="#1D1D1B" stroke-miterlimit="10"/>
<path d="M248.589 222.699L247.711 222.3L247.102 220.993L249.119 221.549L249.067 221.424H249.63" stroke="#1D1D1B" stroke-miterlimit="10"/>
<path d="M247.718 222.699L247.776 222.248H247.285L247.383 222.692" stroke="#1D1D1B" stroke-miterlimit="10"/>
<path d="M248.739 222.595L247.501 223.941L247.717 223.065L248.739 222.595Z" stroke="#1D1D1B" stroke-miterlimit="10"/>
<path d="M247.285 222.653H247.776V222.699V223.124H247.285V222.653Z" stroke="#1D1D1B" stroke-miterlimit="10"/>
<path d="M248.549 222.68L247.776 222.699" stroke="#1D1D1B" stroke-miterlimit="10"/>
<path d="M256.358 223.052L255.526 215.531L254.766 212.498L250.442 212.544L251.025 211.629L247.023 210.937L247.868 213.139L239.85 213.165C239.85 213.165 239.221 213.113 238.828 212.714L238.442 212.459L239.654 211.093L235.245 211.348L237.184 210.571C237.184 210.571 239.628 208.028 240.014 207.46C240.4 206.891 240.82 206.244 240.964 205.944C241.108 205.643 242.136 203.48 242.346 202.186C242.556 200.892 242.772 198.847 242.772 198.847C242.772 198.847 242.89 196.677 242.798 196.272C242.706 195.867 242.556 195.187 242.012 194.671C241.468 194.155 240.571 192.841 240.571 192.841L238.946 190.802L236.64 187.94L234.623 185.45L232.691 183.156L231.204 181.451L229.199 179.092L227.391 176.732L225.845 174.458C225.845 174.458 223.474 171.282 223.258 171.171C223.042 171.06 221.548 169.433 221.548 169.433C221.548 169.433 219.026 167.309 218.803 167.165C218.581 167.021 216.53 165.518 216.53 165.518L213.078 163.14C213.078 163.14 209.796 161.042 209.685 161.016C209.574 160.99 206.849 159.428 206.849 159.428C206.849 159.428 205.892 158.905 205.755 158.709C205.617 158.513 204.058 157.114 204.058 157.114C204.058 157.114 203.023 156.35 201.674 156.866C201.674 156.866 201.359 155.455 199.237 154.605C197.115 153.755 196.387 152.527 196.171 152.082C195.955 151.638 191.999 150.671 191.999 150.671C191.999 150.671 184.518 153.193 183.214 153.337L172.661 155.742C172.661 155.742 163.144 158.578 161.349 159.741C159.554 160.905 151.235 163.44 151.235 163.44L141.062 167.054C141.062 167.054 136.123 168.877 135.107 168.753C134.092 168.629 132.775 168.426 130.797 167.557C128.819 166.688 123.408 165.139 123.408 165.139C123.408 165.139 112.069 160.963 111.139 160.781C110.209 160.598 101.536 158.186 101.536 158.186L100.069 164.427C100.069 164.427 99.0205 165.858 98.182 166.577C98.182 166.577 98.8371 168.191 98.4506 169.204C98.0641 170.217 97.3435 171.354 97.3435 171.655C97.3435 171.955 96.7474 174.55 96.7474 174.55C96.7474 174.55 93.066 187.267 92.1686 188.489L89.234 195.71C89.234 195.71 88.6641 198.01 88.5134 199.474C88.3628 200.938 86.6858 207.087 85.2513 208.342C85.2513 208.342 84.2032 209.806 83.9019 211.329C83.6005 212.851 82.8276 214.256 82.0743 214.4C81.321 214.544 80.1288 214.25 79.8274 213.537C79.8274 213.537 80.7838 212.257 79.3492 211.479L77.764 211.57C77.764 211.57 76.8338 211.361 76.5653 211.453C76.2967 211.544 74.7704 211.544 74.7704 211.361C74.7704 211.178 77.7902 210.165 77.7902 210.165C77.7902 210.165 75.2159 206.761 69.589 208.819L70.244 209.597L68.2396 209.839L68.4819 208.643L67.7614 207.865L66.0844 209.538C66.0844 209.538 60.2479 207.388 60.0383 207.238C59.8287 207.087 57.8242 206.192 57.3722 206.192C56.9202 206.192 54.4114 205.179 54.4114 205.179C54.4114 205.179 53.062 204.343 52.6755 204.343C52.6755 204.343 50.0749 203.356 49.505 203.48C49.505 203.48 47.7692 203.389 47.5006 203.572C47.232 203.755 43.7275 203.245 43.7275 203.245C43.7275 203.245 40.164 202.382 39.9282 202.258C39.6924 202.134 36.9346 200.677 36.5481 200.35C36.1616 200.023 34.3013 199.278 34.3013 199.278L33.9541 199.997" stroke="#1D1D1B" stroke-miterlimit="10"/>
<path d="M43.02 200.199H49.2234C49.2234 200.199 47.3303 201.193 47.1796 201.343C47.029 201.493 45.7123 201.944 45.1228 201.781C44.5332 201.617 42.8694 201.127 42.8694 201.127L43.0135 200.199H43.02Z" stroke="#1D1D1B" stroke-miterlimit="10"/>
<path d="M64.8203 206.473L66.1501 205.107L67.9253 206.63H66.6545L67.1916 207.695L66.8379 207.996L64.8203 206.473Z" stroke="#1D1D1B" stroke-miterlimit="10"/>
<path d="M48.981 218.393L57.0447 222.157C57.0447 222.157 51.5553 223.268 48.981 218.393V218.393Z" stroke="#1D1D1B" stroke-miterlimit="10"/>
<path d="M43.4459 216.04C43.4459 216.04 42.6336 216.086 41.4283 214.968C40.223 213.851 38.3823 214.968 38.3823 214.968L43.2297 216.85L43.4459 216.04Z" stroke="#1D1D1B" stroke-miterlimit="10"/>
<path d="M34 213.642L35.2577 213.942C35.2577 213.942 36.5875 212.87 37.3146 214.197C37.3146 214.197 37.0591 214.687 37.7862 215.661C38.5133 216.635 38.7295 217.83 38.7295 217.83L34 215.68" stroke="#1D1D1B" stroke-miterlimit="10"/>
<path d="M145.975 169.661L149.656 172.229L149.263 172.772L145.562 170.047L145.975 169.661Z" stroke="#1D1D1B" stroke-miterlimit="10"/>
<path d="M151.346 174.523C151.346 174.523 152.584 174.026 154.464 175.823C156.344 177.62 156.894 178.307 156.914 178.529C156.934 178.751 151.346 174.529 151.346 174.529V174.523Z" stroke="#1D1D1B" stroke-miterlimit="10"/>
<path d="M243.938 319.292C243.938 319.292 249.761 309.856 250.331 309.751C250.901 309.647 254.386 304.151 258.493 304.046C258.493 304.046 259.587 302.438 260.517 302.438C261.447 302.438 265.974 303.53 265.974 303.53C265.974 303.53 267.376 305.137 267.742 305.137C267.742 305.137 269.459 306.431 270.133 306.484C270.808 306.536 273.821 307.418 273.566 312.084L273.579 312.81L274.083 313.901L275.538 313.385C275.538 313.385 278.033 315.822 276.265 318.103C274.496 320.384 273.094 322.507 272.524 324.586H271.954L271.384 323.187H270.919C270.919 323.187 271.234 324.481 269.203 325.886C267.172 327.291 259.331 331.591 259.331 331.591C259.331 331.591 256.888 332.937 256.056 330.657C256.056 330.657 255.899 328.892 256.888 328.69C257.877 328.487 261.618 326.252 262.502 324.644C263.386 323.037 266.445 319.769 266.445 319.769V319.096L261.1 320.031L261.467 318.992C261.467 318.992 257.674 317.279 254.864 321.272L259.751 320.495C259.751 320.495 255.539 324.54 248.215 324.331C248.215 324.331 246.034 324.122 245.615 321.945C245.195 319.769 243.951 319.299 243.951 319.299L243.938 319.292Z" stroke="#1D1D1B" stroke-miterlimit="10"/>
<path d="M253.764 316.234L255.061 311.464C255.061 311.464 252.984 311.052 252.408 314.94L253.082 316.234H253.757H253.764Z" stroke="#1D1D1B" stroke-miterlimit="10"/>
<path d="M248.229 330.317C248.229 330.317 250.626 330.173 250.94 330.121C251.255 330.069 252.028 330.206 252.997 331.147L251.857 332.173C251.857 332.173 250.233 332.127 249.801 331.977C249.368 331.827 248.857 331.859 248.229 330.317V330.317Z" stroke="#1D1D1B" stroke-miterlimit="10"/>
<path d="M321.155 285.846L321.797 285.735C321.797 285.735 320.507 286.199 320.265 284.134C320.022 282.069 319.806 281.35 319.865 281.233C319.924 281.115 318.365 280.507 318.273 280.364C318.273 280.364 317.625 280.063 317.166 278.932C316.708 277.802 315.581 274.946 315.581 274.946L315.915 274.881L313.256 271.221C313.256 271.221 311.847 269.62 311.808 269.097C311.769 268.574 311.991 268.137 312.266 267.856C312.542 267.575 312.987 266.614 312.987 266.614L314.009 263.889C314.009 263.889 313.465 262.628 312.581 263.667C312.581 263.667 312.129 263.928 311.795 263.948C311.461 263.967 310.013 264.627 310.013 264.627L309.613 264.006L311.12 262.386L304.235 258.739L303.554 259.72L312.207 267.829" stroke="#1D1D1B" stroke-miterlimit="10"/>
<path d="M313.072 266.588C313.072 266.588 314.467 266.124 315.273 266.176C316.079 266.228 317.533 266.209 317.533 266.209C317.533 266.209 318.129 266.196 318.437 266.385C318.437 266.385 318.66 266.392 318.66 266.666C318.66 266.941 319.112 267.542 319.112 267.542C319.112 267.542 319.55 268.274 321.424 268.457C321.424 268.457 321.824 268.333 322.714 269.404L325.78 270.509L326.291 272.665C326.291 272.665 326.245 272.953 326.625 273.103L327.005 273.253L328.112 271.241L331.066 275.626L329.887 275.959C329.887 275.959 330.333 276.253 331.728 276.227C333.123 276.201 334.315 276.416 334.682 278.044C334.682 278.044 335.016 278.207 335.206 278.233C335.396 278.259 337.283 279.213 337.283 279.213C337.283 279.213 338.115 279.632 339.123 280.39C340.132 281.148 341.698 280.043 341.698 280.043L342.379 281.566L340.637 283.964C340.637 283.964 340.65 284.278 339.726 284.33C339.687 284.33 339.641 284.33 339.595 284.33C338.547 284.356 337.774 284.33 337.774 284.33L334.623 284.677L333.818 284.5L333.752 284.082L334.25 284.35L333.215 284.807L329.94 285.062L330.582 285.866C330.582 285.866 331.898 285.278 334.099 285.533C336.3 285.787 339.091 286.617 339.091 286.617L340.335 285.441L337.741 284.304" stroke="#1D1D1B" stroke-miterlimit="10"/>
<path d="M339.837 284.39L344.069 284.939L344.141 285.305L338.992 286.612C338.992 286.612 339.857 286.768 339.995 286.821C340.132 286.873 340.388 286.945 340.479 287.128C340.571 287.311 341.37 287.69 341.567 287.762C341.763 287.834 342.674 287.932 343.499 287.428C344.325 286.925 345.386 286.226 345.386 286.226C345.386 286.226 345.222 287.481 345.641 287.742C346.06 288.003 346.689 288.324 346.689 288.324C346.689 288.324 345.039 288.539 344.547 289.356C344.056 290.173 344.691 291.598 344.691 291.598C344.691 291.598 344.777 292.049 344.665 292.369L346.748 291.003L348.039 293.245L346.27 294.048C346.27 294.048 346.25 294.055 346.224 294.068C346.028 294.14 345.288 294.342 345.176 293.591C345.052 292.722 345.019 292.539 344.685 292.388" stroke="#1D1D1B" stroke-miterlimit="10"/>
<path d="M346.329 294.074C346.329 294.074 347.364 294.283 347.711 294.414C348.058 294.545 348.831 295.251 348.831 295.251C348.831 295.251 349.631 296.126 349.768 296.505C349.906 296.884 350.22 297.218 350.168 298.113C350.115 299.008 349.788 299.832 349.788 299.832L351.38 299.668L354.511 303.746L352.441 304.707L360.956 307.393C360.956 307.393 360.858 307.843 360.852 307.928C360.845 308.013 360.583 308.477 360.465 308.726C360.347 308.974 359.699 310.065 359.954 311.281C360.21 312.496 361.12 313.398 361.12 313.398C361.12 313.398 362.43 314.47 362.568 315.705C362.568 315.705 362.823 316.822 362.777 317.371C362.732 317.92 362.928 318.639 363.02 318.822C363.112 319.005 363.485 319.848 363.924 320.168C363.924 320.168 364.133 320.358 364.435 320.378C364.736 320.397 365.496 320.678 365.633 320.985C365.771 321.292 365.935 321.704 365.424 322.848L367.481 322.619C367.481 322.619 368.214 324.312 368.483 324.606C368.752 324.9 368.994 325.148 369.387 325.292C369.78 325.436 371.555 325.194 372.767 324.697C373.979 324.2 375.014 324.383 375.296 325.043C375.296 325.043 375.669 325.671 375.702 326.03C375.734 326.39 376.095 326.612 376.095 326.612C376.095 326.612 376.684 327.017 376.992 327.442C377.3 327.867 379.383 330.134 379.383 330.134C379.383 330.134 381.302 332.369 381.65 333.219C381.65 333.219 382.691 334.996 382.796 336.133L381.322 336.989C381.322 336.989 380.464 337.395 380.228 337.382C379.992 337.368 379.462 337.787 379.553 338.264C379.645 338.741 380.412 339.329 380.412 339.329C380.412 339.329 381.152 340.237 380.988 341.865C380.824 343.492 381.577 346.753 381.577 346.753L382.278 346.844L383.621 342.891C383.621 342.891 383.818 341.629 384.244 341.276C384.669 340.923 385.102 341.146 385.102 341.146C385.102 341.146 385.337 341.211 385.6 341.041C385.862 340.871 386.615 340.29 386.615 340.29C386.615 340.29 384.348 340.564 384.021 339.12C384.021 339.12 383.982 338.211 384.126 337.989C384.27 337.767 383.968 337.199 383.68 337.055C383.392 336.911 382.809 336.186 382.809 336.186C382.809 336.186 383.837 335.075 383.975 334.924C384.113 334.774 384.342 334.362 384.388 334.238C384.434 334.114 385.023 332.925 385.279 332.735C385.534 332.546 385.77 332.029 386.838 332.127C387.905 332.225 389.504 333.297 389.504 333.297L391.665 334.33L393.558 335.173C393.558 335.173 393.48 334.101 393.932 333.532C394.384 332.964 395.864 333.349 395.864 333.349C395.864 333.349 396.788 334.604 397.521 334.82C398.255 335.035 399.251 334.846 399.578 334.421L399.526 334.323L398.74 332.814L395.825 333.454C395.825 333.454 396.133 332.016 396.133 331.931C396.133 331.846 396.441 330.788 397.842 331.101C397.842 331.101 398.17 330.853 398.281 330.441L397.253 329.644L404.105 328.154V328.291L404.236 330.056L403.07 329.749L401.858 331.663L401.432 331.533L401.295 329.618C401.295 329.618 399.932 330.938 399.749 332.154C399.565 333.369 399.598 334.349 399.598 334.349L402.185 335.656L401.819 337.617C401.819 337.617 403.338 338.061 404.164 337.617C404.989 337.172 405.945 335.395 405.945 335.395L407.963 331.291L404.845 327.723L404.203 328.252L403.967 328.043L404.72 327.749L401.773 325.945L401.504 326.259L402.022 326.344C402.022 326.344 401.707 326.069 401.55 325.344C401.55 325.344 401.452 325.128 401.602 325.05C401.753 324.972 402.775 324.259 402.775 324.259L404.341 323.292C404.341 323.292 405.009 322.776 405.14 322.599C405.271 322.423 405.435 322.331 405.1 321.946C404.766 321.56 404.714 321.384 404.236 321.711C403.758 322.037 401.544 324.227 401.544 324.227L401.013 323.906C401.013 323.906 402.035 323.357 402.218 322.331C402.218 322.331 402.356 321.946 401.904 320.959C401.904 320.959 401.222 319.619 401.19 319.338L400.371 319.835L400.07 319.338L403.725 317.515L399.768 317.483L401.183 318.169C401.183 318.169 397.286 318.332 396.821 318.43C396.821 318.43 394.731 318.613 393.938 319.11C393.938 319.11 391.161 320.273 390.394 321.064C390.394 321.064 387.368 323.377 387.231 323.586C387.093 323.795 385.423 324.736 385.305 324.658C385.187 324.579 384.499 322.913 384.591 322.39C384.682 321.867 384.905 319.887 385.069 319.724C385.233 319.561 384.859 319.234 386.038 318.783L387.067 318.214C387.067 318.214 387.886 317.528 389.143 318.156C389.143 318.156 389.995 318.75 390.132 318.992C390.27 319.234 390.925 319.456 391.613 318.979C392.301 318.502 394.495 316.894 395.091 316.757C395.091 316.757 398.425 315.234 400.377 315.025C400.377 315.025 407.059 313.503 407.976 313.503C408.893 313.503 410.19 313.176 410.387 312.725C410.583 312.274 410.714 311.549 410.655 311.353C410.596 311.157 411.088 310.248 411.369 310.026C411.369 310.026 411.356 310.993 411.788 311.725C412.221 312.457 413.4 312.575 413.4 312.575C413.4 312.575 414.284 312.47 414.658 312.411C415.031 312.353 417.749 312.261 419.616 313.084C421.483 313.908 423.959 314.829 423.959 314.829" stroke="#1D1D1B" stroke-miterlimit="10"/>
<path d="M423.94 318.626C423.94 318.626 419.551 314.588 418.883 314.287C418.883 314.287 416.236 312.281 415.09 312.405" stroke="#1D1D1B" stroke-miterlimit="10"/>
<path d="M413.511 327.389C413.511 327.389 411.919 327.762 412.037 328.847C412.037 328.847 412.247 329.605 412.771 330.206C413.295 330.807 413.347 331.219 413.347 331.219C413.347 331.219 410.996 330.088 410.95 329.102C410.904 328.115 411.284 327.102 413.511 327.389Z" stroke="#1D1D1B" stroke-miterlimit="10"/>
<path d="M390.539 332.715L393.074 333.003C393.074 333.003 392.871 332.271 392.825 332.029C392.779 331.787 392.759 331.611 391.947 331.702C391.135 331.794 390.539 331.84 390.539 331.84V332.715V332.715Z" stroke="#1D1D1B" stroke-miterlimit="10"/>
<path d="M118.102 349.432C118.102 349.432 136.326 367.115 143.82 380.316C151.313 393.517 157.052 408.959 157.052 408.959C157.052 408.959 157.543 410.775 159.351 410.704L160.576 415.311L164.762 422.074L166.995 421.428C166.995 421.428 165.77 423.878 165.77 424.597C165.77 425.316 166.347 427.335 167.932 428.773C169.517 430.211 173.775 437.268 173.775 437.268C173.775 437.268 174.352 438.059 175.432 439.065C176.513 440.072 184.092 446.626 185.966 449.214C187.839 451.802 190.007 452.096 190.007 452.096C190.007 452.096 191.088 452.887 191.809 453.965C191.809 453.965 194.043 455.331 195.274 455.331C196.506 455.331 201.982 457.853 202.637 458.5C203.292 459.147 206.895 462.389 207.687 463.467C208.48 464.545 210.648 466.133 211.585 466.061C212.522 465.99 225.944 459.147 225.944 459.147L251.13 445.11C251.13 445.11 252.139 443.888 253.515 445.613C254.89 447.339 259.07 452.599 259.286 453.318C259.502 454.037 263.472 459.938 263.904 460.52C264.336 461.101 268.09 464.408 268.954 467.068C269.819 469.728 280.575 481.896 280.575 481.896L280.935 480.889L272.275 466.78C272.275 466.78 271.051 465.415 270.474 464.983C269.898 464.552 268.529 461.382 268.529 461.382C268.529 461.382 262.974 453.965 262.758 453.103C262.541 452.24 258.86 446.26 258.86 446.26L256.914 444.32C256.914 444.32 255.257 442.954 256.914 442.091C258.572 441.229 265.79 437.34 266.295 436.765C266.799 436.19 269.688 434.243 273.441 436.981C277.195 439.719 277.988 439.791 277.988 439.791L282.389 440.438C282.389 440.438 284.479 438.856 285.062 440.725V442.451L286.863 443.816L284.047 444.176C284.047 444.176 284.767 443.169 282.966 442.451C281.165 441.732 282.678 439.209 282.678 439.209C282.678 439.209 282.389 437.196 280.876 436.83C279.363 436.465 279.579 435.033 279.579 435.033L280.077 434.72L281.204 435.844L282.01 432.276L283.569 432.975L283.352 435.739L283.837 435.929L285.291 432.23L287.171 435.314C287.171 435.314 288.298 435.073 288.973 435.288C289.647 435.504 299.912 439.281 301.465 439.418C301.465 439.418 305.415 434.648 302.945 432.178C302.945 432.178 299.585 431.321 299.159 431.132C298.733 430.942 297.947 430.302 297.705 429.982C297.462 429.662 293.702 426.446 290.748 425.61L290.132 425.714L290.027 427.165L285.435 427.218L280.922 424.055V423.571L283.719 423.708L284.178 422.29C284.178 422.29 284.224 422.316 284.302 422.362C284.335 422.382 284.368 422.395 284.407 422.421C284.911 422.695 286.104 423.316 286.543 423.316C287.106 423.316 288.292 423.264 288.586 423.127C288.704 423.074 288.128 422.427 287.263 421.676C286.018 420.598 284.184 419.291 282.999 419.212C282.999 419.212 281.63 417.069 280.175 418.219L281.413 419.238C281.413 419.238 281.761 419.585 281.787 420.179C281.813 420.774 284.086 422.323 284.086 422.323L284.328 421.264L287.165 421.676H287.204L287.237 421.689H287.309" stroke="#1D1D1B" stroke-miterlimit="10"/>
<path d="M278.21 418.435L280.208 421.258C280.208 421.258 278.132 421.879 276.874 421.107C275.616 420.336 276.933 419.454 276.933 419.454L278.21 418.435V418.435Z" stroke="#1D1D1B" stroke-miterlimit="10"/>
<path d="M282.985 419.108C282.985 419.108 283.359 417.095 283.699 416.539C284.04 415.984 284.636 415.605 285.579 415.272L284.643 413.801C284.643 413.801 284.138 413.082 283.726 412.912C283.313 412.742 279.501 410.553 279.501 410.553L277.535 409.547L278.649 409.168L276.278 407.41L273.926 405.619L270.625 403.077L270.887 406.384C270.887 406.384 269.917 406.449 268.483 405.998C267.048 405.547 265.823 405.208 265.823 405.208C265.823 405.208 265.122 404.018 263.995 403.528C262.869 403.038 261.611 402.025 261.611 402.025L259.371 400.888C259.371 400.888 258.487 400.607 257.51 400.888L256.089 401.038L255.873 401.359L257.262 402.711L254.157 402.548L252.886 402.587L250.547 402.169H250.495L250.39 402.143L246.348 401.417L247.2 401.254L246.27 401.692C246.27 401.692 246.807 399.777 248.176 400.927L249.44 401.3L250.416 402.189L251.504 401.725L249.25 401.195L248.183 400.855L248.248 399.326L251.471 401.803L253.371 401.332L249.021 399.862L248.929 399.816L248.877 399.764L248.798 399.777" stroke="#1D1D1B" stroke-miterlimit="10"/>
<path d="M248.183 399.425L248.549 398.209C248.549 398.209 251.366 398.307 252.637 399.425C252.637 399.425 253.384 399.987 253.678 400.457C253.973 400.928 255.86 401.372 255.86 401.372H253.259L252.899 402.64" stroke="#1D1D1B" stroke-miterlimit="10"/>
<path d="M256.063 401C256.063 401 253.24 397.15 252.919 396.883C252.919 396.883 252.054 395.36 250.521 396.007C250.521 396.007 250.01 396.157 249.676 396.811C249.342 397.464 248.556 398.203 248.556 398.203C248.556 398.203 247.678 397.431 247.318 397.085C246.958 396.739 245.975 396.288 245.975 396.288C245.975 396.288 240.767 393.452 240.414 393.386C240.06 393.321 238.553 392.726 236.929 392.628L237.197 393.929L230.097 389.609C230.097 389.609 229.782 389.583 229.874 389.165C229.966 388.746 230.11 388.766 229.972 388.465C229.835 388.165 229.533 388.021 229.062 387.988C228.59 387.956 228.302 387.76 228.302 387.76C228.302 387.76 226.697 387.113 226.658 387.074C226.618 387.034 226.468 387.067 226.658 386.512C226.847 385.956 227.221 385.629 226.736 384.793C226.251 383.956 225.708 383.623 225.708 383.623C225.708 383.623 224.535 382.591 224.804 381.277L224.26 381.166C224.26 381.166 220.985 378.839 220.854 378.663C220.723 378.487 219.871 377.676 219.871 377.676C219.871 377.676 218.424 376.356 217.533 375.971C216.642 375.585 214.971 374.925 213.583 374.84C212.194 374.755 211.185 374.154 210.779 373.344C210.373 372.533 210.406 371.749 210.406 371.749C210.406 371.749 210.189 370.252 208.853 370.2C208.853 370.2 208.152 370.207 207.543 370.429C206.934 370.651 204.15 371.037 204.15 371.037C204.15 371.037 202.525 371.292 201.982 371.559C201.438 371.827 200.324 372.416 199.84 373.487C199.355 374.559 199.669 374.879 199.669 374.879L196.505 376.918C196.505 376.918 195.032 377.866 194.593 378.362C194.154 378.859 193.872 379.369 193.715 379.689C193.558 380.009 193.06 381.074 191.35 380.695C191.35 380.695 191.9 381.983 191.448 382.421C191.141 382.715 190.243 382.898 189.293 382.996C188.835 383.041 188.37 383.074 187.95 383.087L187.295 384.669C187.295 384.669 188.245 385.296 188.527 385.597C188.809 385.897 189.221 386.08 189.844 385.433C190.466 384.786 190.865 384.12 190.865 384.12L189.215 382.956" stroke="#1D1D1B" stroke-miterlimit="10"/>
<path d="M187.243 384.688L185.573 385.989C185.573 385.989 184.302 386.904 184.033 387.315C183.765 387.727 183.11 388.616 183.044 388.688C182.979 388.76 182.651 389.21 181.839 389.335C181.027 389.459 180.221 389.021 180.221 389.021L179.697 388.289C179.697 388.289 183.391 385.433 183.47 385.427C183.548 385.42 185.108 383.956 185.448 383.688C185.789 383.42 186.247 382.93 187.905 383.009C187.905 383.009 188.697 382.146 188.92 381.538C189.143 380.931 189.994 380.297 190.937 380.434L191.455 380.728" stroke="#1D1D1B" stroke-miterlimit="10"/>
<path d="M190.957 380.388C190.957 380.388 190.807 379.532 190.918 379.166C191.029 378.8 193.099 376.827 193.099 376.827L183.509 371.912C183.509 371.912 176.441 367.763 176.291 367.652C176.14 367.541 171.856 365.018 171.856 365.018C171.856 365.018 165.869 361.783 165.279 361.581C164.69 361.378 159.161 358.823 157.274 358.64C155.388 358.457 152.676 357.614 152.676 357.614L152.289 358.235C152.289 358.235 154.196 359.803 154.766 360.921C154.766 360.921 153.724 361.339 153.01 361.176C152.296 361.012 143.263 355.804 143.263 355.804C143.263 355.804 138.959 352.589 136.267 354.725C136.267 354.725 135.075 352.935 134.616 351.817C134.158 350.7 131.76 350.739 131.76 350.739C131.76 350.739 130.81 348.929 127.548 347.341C124.286 345.753 123.094 345.439 122.989 345.224L122.458 345.498L123.428 349.047L121.174 348.132V348.537L118.391 348.975C118.391 348.975 118.351 349.249 118.554 349.524C118.757 349.798 119.537 350.55 119.897 351.216" stroke="#1D1D1B" stroke-miterlimit="10"/>
<path d="M112.089 344.478L115.115 342.93L117.093 347.027L116.366 347.491L112.089 344.478Z" stroke="#1D1D1B" stroke-miterlimit="10"/>
<path d="M142.955 361.463L151.405 367.743C151.405 367.743 145.444 368.841 142.955 361.463Z" stroke="#1D1D1B" stroke-miterlimit="10"/>
<path d="M281.525 398.372C281.525 398.372 290.361 401.751 290.886 402.052C291.41 402.352 292.176 402.627 292.176 402.627C292.176 402.627 294.023 404.822 294.403 405.509L294.593 405.757L294.043 406.358L291.095 404.685L290.296 410.782C290.296 410.782 287.656 410.547 286.831 409.22C286.005 407.894 287.184 408.913 285.56 407.815L276.396 401.117C276.396 401.117 275.518 400.98 276.206 399.719C276.894 398.457 277.169 398.209 277.169 398.209C277.169 398.209 279.73 399.634 280.719 399.529L281.518 398.379L281.525 398.372Z" stroke="#1D1D1B" stroke-miterlimit="10"/>
<path d="M297.881 401.894L301.969 401.339C301.969 401.339 301.144 402.796 300.24 402.829C299.336 402.862 297.881 401.894 297.881 401.894Z" stroke="#1D1D1B" stroke-miterlimit="10"/>
<path d="M79.572 375.167L80.5612 374.638L82.0874 377.84L81.5896 378.206L79.572 375.167Z" stroke="#1D1D1B" stroke-miterlimit="10"/>
<path d="M114.028 412.468C114.028 412.468 114.598 412.906 115.063 412.965C115.528 413.024 115.777 412.697 115.777 412.697C115.777 412.697 116.058 412.22 116.098 411.756C116.137 411.292 116.301 411.096 116.301 411.096L116.7 410.469L119.078 411.456L117.585 412.344C117.585 412.344 117.958 413.115 117.978 413.227L118.443 414.181C118.443 414.181 118.77 414.867 118.744 415.298C118.718 415.729 118.639 416.2 117.997 416.912C117.355 417.625 116.334 418.67 116.334 418.67L119.609 417.056L119.976 417.611L117.506 421.807C117.506 421.807 116.248 422.055 115.168 421.748C114.087 421.441 113.405 420.931 113.405 420.931C113.405 420.931 112.253 419.958 111.886 419.154C111.519 418.35 111.453 418.285 111.401 418.128C111.349 417.971 110.602 417.206 110.261 417.108C109.921 417.01 109.606 416.644 109.606 416.644C109.606 416.644 108.1 418.174 107.877 419.971C107.654 421.768 107.562 422.552 107.654 423.277C107.746 424.003 108.054 425.297 108.977 426.329L107.176 427.238C107.176 427.238 106.966 429.296 106.888 429.584C106.809 429.871 106.285 430.766 105.84 431.315C105.394 431.864 104.281 432.851 104.281 432.851C104.281 432.851 103.233 433.962 102.08 433.563C102.08 433.563 101.32 433.263 101.202 432.479C101.084 431.694 100.291 431.119 100.291 431.119C100.291 431.119 98.1689 428.486 98.0445 428.081L98.634 427.571C98.634 427.571 98.883 427.362 99.2956 427.623L101.261 428.793L102.309 427.898C102.309 427.898 101.595 425.728 101.497 424.78C101.398 423.833 101.261 420.506 101.261 420.506L101.071 415.88C101.071 415.88 101.005 414.632 100.77 414.135C100.534 413.638 99.6297 412.841 99.6297 412.841L98.0445 411.906C98.0445 411.906 96.9178 411.384 96.6689 409.972C96.6689 409.972 96.5313 409.763 96.6689 408.423C96.8064 407.084 96.5444 406.365 96.5444 406.365C96.5444 406.365 96.3086 404.646 96.3086 403.594C96.3086 402.542 95.7322 400.117 95.7322 400.117C95.7322 400.117 94.8478 397.451 94.7103 397.19C94.5727 396.928 93.1709 394.347 92.9875 394.184C92.8041 394.02 91.7036 392.772 91.5988 392.373C91.494 391.975 90.4 389.955 90.4 389.955C90.4 389.955 89.614 389.184 90.2363 388.786C90.8586 388.387 92.4962 388.472 92.4962 388.472L89.9939 381.578C89.9939 381.578 91.6577 379.598 91.8477 378.023C92.0377 376.448 92.2669 375.716 92.2735 374.833C92.28 373.951 92.7058 372.527 92.7058 372.527C92.7058 372.527 93.2299 370.246 93.1185 369.847C93.0071 369.449 92.8958 368.9 92.9416 368.566C92.9875 368.233 93.5901 366.247 93.0857 365.763C92.5814 365.279 92.2669 364.907 92.2669 364.907C92.2669 364.907 91.9722 364.632 92.0639 364.325C92.1556 364.018 92.2669 361.803 92.2669 361.803C92.2669 361.803 94.5465 362.43 95.0116 362.691C95.4767 362.953 98.9812 362.561 99.1122 362.495C99.2432 362.43 100.206 361.737 100.239 361.607C100.272 361.476 100.625 362.195 100.625 362.195C100.625 362.195 100.789 362.731 100.062 363.142C99.3349 363.554 98.9943 363.757 98.9943 363.757L101.981 364.861L102.27 364.064C102.27 364.064 102.761 365.077 103.377 365.024C103.992 364.972 104.588 363.6 104.588 363.6L106.252 364.9C106.252 364.9 105.709 365.606 105.676 366.037C105.643 366.469 106.252 367.266 106.252 367.266C106.252 367.266 107.051 366.776 107.137 366.148C107.222 365.521 107.065 364.737 107.065 364.737C107.065 364.737 107.189 363.129 107.444 362.874C107.7 362.62 107.805 362.352 109.292 362.711L110.235 362.874L108.787 364.521L109.22 364.704C109.22 364.704 110.327 363.567 111.211 364.43C111.211 364.43 111.807 364.848 112.01 365.26C112.213 365.671 113.55 366.109 113.55 366.109C113.55 366.109 114.454 366.717 115.285 367.338C115.927 367.815 116.524 368.298 116.628 368.514L113.13 369.475C113.13 369.475 114.126 367.756 114.27 367.632C114.414 367.508 114.781 367.161 115.377 367.521C115.973 367.88 116.772 368.632 116.772 368.632C116.772 368.632 115.24 369.677 114.945 372.494C114.65 375.311 114.676 376.245 114.676 376.245C114.676 376.245 115.148 378.656 112.816 378.768L115.259 380.623C115.259 380.623 115.751 384.198 115.908 384.688C116.065 385.178 117.696 389.805 117.631 392.105C117.565 394.406 117.454 395.412 114.231 394.693L114.185 400.006H114.722L113.825 400.986L116.871 406.816L115.24 407.397L116.694 410.482L113.962 411.756L112.148 411.24L110.851 415.017L114.565 414.279L113.962 412.449V411.652" stroke="#1D1D1B" stroke-miterlimit="10"/>
<path d="M120.473 377.604L121.882 373.265C121.882 373.265 123.29 374.728 122.707 375.924C122.124 377.12 120.473 377.604 120.473 377.604V377.604Z" stroke="#1D1D1B" stroke-miterlimit="10"/>
<path d="M132.402 417.2L134.681 422.088C134.681 422.088 132.736 422.754 132.402 419.644C132.068 416.533 132.402 417.2 132.402 417.2Z" stroke="#1D1D1B" stroke-miterlimit="10"/>
<path d="M119.786 436.014L120.794 436.438C120.794 436.438 119.7 440.882 119.072 441.372C118.443 441.862 118.102 441.908 118.102 441.908L117.506 441.124C117.506 441.124 117.192 441.235 117.663 440.431C118.135 439.628 119.786 436.014 119.786 436.014Z" stroke="#1D1D1B" stroke-miterlimit="10"/>
<path d="M103.03 422.297L105.191 423.859L104.844 424.767L103.03 424.872V422.297Z" stroke="#1D1D1B" stroke-miterlimit="10"/>
<path d="M126.277 522.243L126.801 520.557L130.823 518.061C130.823 518.061 135.075 515.212 135.54 514.865C136.005 514.519 142.883 510.742 142.883 510.742L144.802 509.461L145.149 509.984L127.149 522.773L126.277 522.25V522.243Z" stroke="#1D1D1B" stroke-miterlimit="10"/>
<path d="M123.362 523.929L118.351 527.53C118.351 527.53 121.148 527.294 122.373 526.138C123.598 524.981 123.618 524.118 123.585 523.929C123.552 523.739 123.362 523.929 123.362 523.929V523.929Z" stroke="#1D1D1B" stroke-miterlimit="10"/>
<path d="M97.7496 540.404L99.2497 539.842C99.2497 539.842 100.448 542.064 100.331 543.377C100.213 544.691 100.075 546.324 100.075 546.324L97.3762 544.593L98.2671 540.639L97.7496 540.404Z" stroke="#1D1D1B" stroke-miterlimit="10"/>
<path d="M49.8982 525.889L50.2585 525.249L53.1342 526.752L52.6691 527.576L49.8982 525.889Z" stroke="#1D1D1B" stroke-miterlimit="10"/>
<path d="M36.0962 534.966C36.0962 534.966 37.177 534.43 37.7469 534.43C38.3168 534.43 40.2295 534.071 41.5593 532.208C42.8891 530.346 41.5593 529.019 41.5593 529.019C41.5593 529.019 40.3344 528.732 39.6924 526.686C39.0505 524.641 39.6597 524.464 38.6509 522.563L40.0527 522.739L49.3282 530.954C49.3282 530.954 50.5859 532.568 50.1929 534.973C49.7999 537.378 49.5444 538.665 49.9047 539.887C50.265 541.109 50.4811 541.109 50.9135 541.357C51.3458 541.606 57.274 543.795 57.274 543.795C57.274 543.795 56.9858 541.821 58.3549 541.717C59.7239 541.612 59.8615 541.749 60.6213 541.142C61.3812 540.534 62.3441 539.704 63.1367 539.743C63.9294 539.782 64.2503 539.528 64.2503 539.528C64.2503 539.528 64.8595 539.743 65.2919 540.678C65.7242 541.612 66.0124 542.651 66.0124 542.651C66.0124 542.651 66.3006 543.547 64.8268 544.409L63.4577 545.664C63.4577 545.664 62.3769 545.559 62.128 546.919L61.8397 548.356L63.4905 549.003H71.469C71.469 549.003 77.8296 548.683 78.6222 548.788C79.4148 548.892 88.1139 549.003 88.1139 549.003H126.978C126.978 549.003 128.701 547.03 126.546 545.2C124.391 543.37 124.351 542.22 124.351 542.22L127.227 543.762L127.908 540.462C127.908 540.462 129.487 541.037 130.208 541.037C130.928 541.037 132.978 541.325 132.978 542.651V544.514L135.389 543.089L136.359 544.834L138.121 541.854L134.38 540.096V539.057C134.38 539.057 136.359 538.809 137.007 538.521C137.656 538.234 140.708 539.312 140.708 539.312C140.708 539.312 145.994 540.782 146.715 540.782C147.435 540.782 154.517 541.789 154.517 541.789L156.279 538.384L157.68 539.103C157.68 539.103 157.825 535.986 159.403 535.012C159.403 535.012 160.877 534.94 161.558 534.188C162.24 533.437 162.888 530.457 162.888 530.457L164.329 531.496L160.052 530.849V530.058C160.052 530.058 162.711 528.444 166.845 529.451C166.845 529.451 166.701 528.34 167.061 527.66C167.421 526.98 167.598 524.647 166.524 523.282C165.449 521.916 166.668 519.589 167.781 519.302C168.895 519.014 170.48 517.041 170.48 517.041C170.48 517.041 171.378 516.721 171.921 516.864C172.465 517.008 175.301 515.538 177.024 517.943L177.85 517.975C177.85 517.975 178.642 518.335 178.891 518.367C179.14 518.4 178.603 520.517 178.603 520.517L177.594 519.838L179.317 520.125C179.317 520.125 179.893 519.805 180.326 519.766C180.758 519.727 181.406 519.446 182.193 520.125C182.979 520.805 184.243 522.171 186.11 520.7L178.059 515.283L178.596 514.172L176.657 513.884C176.657 513.884 173.926 510.839 174.751 507.572C174.751 507.572 171.908 505.206 175.649 502.409L176.258 503.807C176.258 503.807 177.908 499.932 178.773 499.684C179.638 499.436 180.607 500.363 180.607 500.363L182.618 502.984L183.228 500.795C183.228 500.795 185.022 503.304 186.536 500.076C186.536 500.076 189.195 502.657 190.02 504.199C190.846 505.742 193.007 505.918 193.007 505.918L193.944 504.232C193.944 504.232 194.337 505.487 194.481 505.735C194.625 505.984 193.8 507.885 192.975 508.643C192.975 508.643 194.16 510.937 194.016 512.447C193.872 513.956 193.152 514.42 193.152 514.42C193.152 514.42 192.686 514.995 193.224 515.603C193.761 516.211 194.665 517.002 194.914 517.106C195.163 517.211 196.315 515.42 196.315 515.42C196.315 515.42 194.481 513.878 196.492 512.407C196.492 512.407 197.678 512.584 198.038 513.59C198.399 514.597 198.687 515.779 198.687 515.779C198.687 515.779 198.903 516.355 198.254 516.819C197.606 517.283 196.709 518.505 196.709 518.505C196.709 518.505 196.276 518.936 197.102 519.511C197.927 520.086 200.193 521.053 200.442 521.556L200.645 521.681L202.879 519.962L203.37 520.413C203.37 520.413 201.248 521.053 202.407 524.687L203.37 521.615H203.737V525.647L207.779 521.949L208.408 522.177L206.75 525.517L209.764 524.458L209.168 525.713L212.05 527.562V527.098L217.618 528.915L213.144 530.3C213.144 530.3 214.834 531.457 215.993 531.856C217.153 532.254 218.247 531.326 218.247 531.326C218.247 531.326 219.111 530.464 219.439 531.359L219.74 532.052C219.74 532.052 225.78 534.443 226.389 534.496C226.998 534.548 230.896 535.554 231.76 536.116C232.625 536.678 236.83 537.58 237.741 537.534C238.652 537.489 239.818 537.587 240.885 538.397C241.953 539.207 243.872 539.358 244.383 537.639L247.423 539.103C247.423 539.103 249.047 539.965 251.373 539.965C253.698 539.965 255.074 541.129 255.074 541.129C255.074 541.129 257.052 542.292 259.987 542.089C262.921 541.887 262.974 542.795 262.974 542.795C262.974 542.795 263.838 544.311 266.367 543.351L268.09 544.409V543.854C268.09 543.854 270.317 544.207 271.588 544.154C272.858 544.102 273.972 543.396 274.529 543.952C275.086 544.507 274.882 545.572 276.048 545.925L275.341 547.696C275.341 547.696 278.839 546.991 284.158 547.899C284.158 547.899 286.844 548.304 288.265 547.899C289.687 547.494 292.32 547.141 292.32 547.141L290.8 548.99L297.338 548.605L297.135 535.26L297.999 535.11C297.999 535.11 298.353 535.816 298.608 536.371C298.864 536.927 298.661 538.953 298.608 539.756C298.556 540.56 299.165 547.801 299.827 548.99L423.946 549.16C423.946 549.16 423.894 549.781 423.481 549.931C423.068 550.082 34.2162 549.931 34.2162 549.931C34.2162 549.931 34 549.356 34 549.095L52.7083 548.944C52.7083 548.944 53.2323 549.075 53.5664 548.873C53.9005 548.67 55.9443 546.625 56.1146 545.827C56.2849 545.03 53.2847 543.566 53.2847 543.566C53.2847 543.566 48.3194 542.044 47.4089 541.227C46.4984 540.41 44.8018 539.168 44.5267 538.724C44.2516 538.279 42.1816 537.293 41.9589 537.293C41.7362 537.293 39.581 535.973 39.188 535.456L36.2272 535.678L36.0962 534.966V534.966Z" stroke="#1D1D1B" stroke-miterlimit="10"/>
<path d="M153.56 548.475L161.139 546.436C161.139 546.436 162.063 546.031 162.836 546.436C163.609 546.841 164.035 547.782 164.035 547.782C164.035 547.782 163.419 548.743 163.052 548.802C162.685 548.86 153.567 548.802 153.567 548.802V548.475H153.56Z" stroke="#1D1D1B" stroke-miterlimit="10"/>
<path d="M195.929 526.941L197.691 529.255C197.691 529.255 196.689 529.738 196.479 529.98C196.27 530.222 194.265 529.327 195.929 526.948V526.941Z" stroke="#1D1D1B" stroke-miterlimit="10"/>
<path d="M187.774 522.393C187.774 522.393 188.986 525.184 189.988 525.876C190.99 526.569 193.407 527.425 193.407 527.425C193.407 527.425 193.997 527.321 194.377 526.772C194.757 526.223 193.997 525.876 193.997 525.876C193.997 525.876 191.16 525.151 191.645 523.047C191.645 523.047 191.783 521.772 187.774 522.393V522.393Z" stroke="#1D1D1B" stroke-miterlimit="10"/>
<path d="M188.088 539.253C188.088 539.253 194.285 536.358 195.281 536.319C196.276 536.28 202.774 534.078 202.774 534.078C202.774 534.078 204.608 532.973 205.886 534.078C207.163 535.182 206.993 535.731 206.993 535.731L201.635 536.143L201.425 536.626L213.694 538.835C213.694 538.835 213.622 540.351 214.729 540.319C214.729 540.319 216.386 539.489 216.596 540.149C216.596 540.149 215.731 541.253 215.731 541.907C215.731 542.56 216.943 543.116 216.943 543.116C216.943 543.116 218.6 543.462 218.876 543.704C219.151 543.946 220.395 544.632 220.395 544.632V545.325H218.496C218.496 545.325 214.729 544.808 213.072 544.253C211.414 543.697 210.373 542.286 210.373 542.286L204.707 542.456C204.707 542.456 203.462 542.835 203.292 543.148C203.122 543.462 202.257 544.357 201.53 543.181L201.425 542.181C201.425 542.181 201.497 543.423 200.213 543.351C198.929 543.279 199.833 542.763 198.137 542.939L199.067 544.834C199.067 544.834 194.468 544.285 193.119 543.665C191.769 543.044 188.075 539.253 188.075 539.253H188.088Z" stroke="#1D1D1B" stroke-miterlimit="10"/>
</g>
<defs>
<clipPath id="clip0_150_1517">
<rect width="389.94" height="550.174" fill="white" transform="translate(34)"/>
</clipPath>
</defs>
</svg>
