<svg width="691" height="733" viewBox="0 0 691 733" fill="none" xmlns="http://www.w3.org/2000/svg">
<path d="M210.86 253.059C212.263 250.564 213.932 248.242 215.838 246.132C234.196 226.129 235.329 212.893 308.033 217.522C308.033 217.522 357.848 223.063 402.803 193.497C417.967 183.295 435.946 177.947 454.547 178.104C468.154 178.345 481.706 181.398 494.379 187.077C497.759 188.588 505.253 191.074 508.442 192.776C530.453 204.859 599.779 232.519 594.913 355.103L594.854 356.886C594.778 362.303 592.254 400.553 536.606 407.261C486.04 413.389 471.824 468.309 468.585 485.216C467.536 490.447 467.207 495.835 467.605 501.23C468.367 519.505 465.343 537.55 458.729 554.194C452.115 570.838 442.059 585.709 429.213 597.843C416.367 609.977 401.018 619.103 384.161 624.629C367.305 630.155 349.317 631.957 331.366 629.919L330.374 629.805C297.489 626.066 278.22 622.797 259.209 633.178C240.199 643.56 198.659 657.779 132.791 577.177C66.9227 496.575 83.1533 386.23 83.1533 386.23C83.1533 386.23 91.7466 336.237 135.149 316.033C143.507 312.237 151.549 307.807 159.21 302.779C175.133 292.085 198.708 273.892 210.86 253.059Z" fill="#FF5527"/>
<g opacity="0.5" clip-path="url(#clip0_150_1516)">
<path d="M128.893 243.474C128.893 243.474 130.419 239.586 133.636 239.925C136.852 240.265 140.579 241.023 140.579 241.023L139.623 241.559L143.717 243.16C143.717 243.16 143.913 243.879 143.193 244.317C142.374 244.82 141.038 244.48 141.038 244.48C139.086 243.977 137.068 243.801 135.096 243.369C133.675 243.062 131.605 242.866 128.887 243.467L128.893 243.474Z" stroke="#1D1D1B" stroke-miterlimit="10"/>
<path d="M144.149 242.252C144.149 242.252 145.093 243.324 147.464 242.716C147.464 242.716 148.158 242.076 151.479 242.905L157.991 243.945C157.991 243.945 159.713 244.284 160.735 244.605C161.757 244.925 163.113 245.252 163.113 245.252V246.029L156.274 246.441L161.639 250.649L158.364 251.793C158.364 251.793 158.2 249.957 155.908 249.584L153.615 249.218C153.615 249.218 152.593 249.382 152.141 251.427C151.689 253.472 149.888 254.002 149.481 254.041C149.075 254.08 147.025 254.204 146.861 254.041C146.861 254.041 144.464 252.937 143.756 252.081C143.756 252.081 142.931 250.689 142.885 250.244L139.118 252.002V252.368L141.902 253.923C141.902 253.923 138.955 256.25 137.481 253.557C137.481 253.557 136.741 252.126 138.712 249.878C138.712 249.878 140.474 247.996 144.654 247.303C148.833 246.611 153.458 246.16 153.458 246.16C153.458 246.16 148.217 244.605 145.636 245.016C143.055 245.428 143.75 242.99 144.162 242.265L144.149 242.252Z" stroke="#1D1D1B" stroke-miterlimit="10"/>
<path d="M158.79 252.08L162.072 253.452C162.072 253.452 160.617 256.753 155.344 257.844C155.344 257.844 152.567 257.87 151.591 258.177C150.615 258.484 147.3 257.615 147.3 257.615V256.89C147.3 256.89 158.069 255.191 158.79 252.08V252.08Z" stroke="#1D1D1B" stroke-miterlimit="10"/>
<path d="M187.579 243.859L183.046 246.604L183.367 247.016H185.935C185.935 247.016 184.193 249.166 186.485 249.989C188.778 250.813 192.394 250.813 192.394 250.813C192.394 250.813 196.468 250.538 197.752 249.577C199.036 248.617 199.311 248.846 198.486 246.055C198.486 246.055 196.423 246.97 195.23 248.159C194.038 249.349 190.999 248.251 190.999 248.251C190.999 248.251 189.047 248.114 187.579 243.866V243.859Z" stroke="#1D1D1B" stroke-miterlimit="10"/>
<path d="M196.553 239.657C196.553 239.657 203.425 236.776 207.735 237.279C207.735 237.279 207.467 238.507 207.735 239.246C208.004 239.984 207.683 241.017 206.726 241.115C206.726 241.115 205.515 241.363 205.397 241.435C205.279 241.507 205.148 241.533 203.864 240.847C202.58 240.161 198.112 239.788 197.222 240.357L196.56 239.657H196.553Z" stroke="#1D1D1B" stroke-miterlimit="10"/>
<path d="M194.313 251.989V252.707L193.547 253.328H199.6C199.6 253.328 200.654 253.76 201.041 254.335C201.041 254.335 203.445 253.139 203.923 255.583C203.923 255.583 204.788 257.785 205.266 258.792C205.266 258.792 205.652 260.419 205.842 260.759C206.032 261.098 205.842 262.771 204.499 262.726C204.499 262.726 204.021 262.438 203.536 266.797L202.672 272.881C202.672 272.881 200.51 272.659 199.305 274.9C198.099 277.142 196.567 278.736 195.427 278.704C194.287 278.671 192.754 277.959 192.754 277.959L189.852 276.658C189.852 276.658 188.418 276.233 187.606 276.462C187.606 276.462 188.293 273.763 189.007 272.986C189.721 272.208 190.638 271.326 190.802 269.568C190.966 267.81 191.064 266.444 188.621 263.131C188.621 263.131 188.85 261.798 188.228 260.922C187.606 260.046 184.481 253.733 184.481 253.733C184.481 253.733 183.957 252.159 186.112 251.989C188.267 251.819 194.326 251.989 194.326 251.989H194.313Z" stroke="#1D1D1B" stroke-miterlimit="10"/>
<path d="M173.64 287.65L177.57 287.912V289.304L173.64 288.742V287.65Z" stroke="#1D1D1B" stroke-miterlimit="10"/>
<path d="M157.951 293.447L162.15 293.754C162.15 293.754 162.583 293.532 163.093 294.715C163.093 294.715 162.497 295.225 162.131 295.225C161.764 295.225 157.814 294.336 157.814 294.336L157.958 293.447H157.951Z" stroke="#1D1D1B" stroke-miterlimit="10"/>
<path d="M192.073 320.659C192.073 320.659 195.584 317.156 199.528 321.763L192.073 320.659Z" stroke="#1D1D1B" stroke-miterlimit="10"/>
<path d="M197.759 328.782C197.759 328.782 200.248 327.279 200.425 327.24C200.602 327.2 202.41 325.475 199.966 324.077C197.523 322.678 195.289 322.456 195.289 322.456C195.289 322.456 192.944 322.175 192.178 322.815C191.411 323.456 192.178 324.56 192.178 324.56C192.178 324.56 192.636 325.181 193.56 325.763C194.484 326.344 197.752 328.788 197.752 328.788L197.759 328.782Z" stroke="#1D1D1B" stroke-miterlimit="10"/>
<path d="M107.44 241.644C107.44 241.644 108.704 242.8 108.914 244.173C108.914 244.173 111.049 244.565 111.259 247.303C111.469 250.041 112.235 250.91 112.235 250.91L113.028 252.492C113.028 252.492 110.604 253.544 107.434 249.492C104.263 245.44 104.112 245.016 104.374 243.493C104.636 241.97 107.434 241.65 107.434 241.65L107.44 241.644Z" stroke="#1D1D1B" stroke-miterlimit="10"/>
<path d="M199.796 205.244C200.733 204.957 201.624 204.094 201.624 204.094C203.025 203.16 201.479 202.676 201.479 202.676L193.114 201.363C193.56 202.395 195.224 203.735 195.224 203.735C197.942 205.702 199.711 205.251 199.711 205.251L200.078 206.323C200.562 207.577 200.857 207.551 200.857 207.551L213.342 215.236L213.113 215.7L205.593 212.113L204.781 214.243L201.113 213.916L202.731 217.857L205.069 218.733L205.534 220.111C205.737 221.137 206.425 221.902 207.683 221.843C208.941 221.784 209.314 221.98 209.314 221.98L204.06 223.072L202.776 222.974L202.174 223.928L200.995 224.353L200.268 224.3L200.065 224.928L200.503 225.529L200.654 226.078C200.674 227.025 200.792 228.332 200.792 228.332C201.106 230.221 204.414 230.188 204.414 230.188C203.831 231.665 201.545 233.319 201.545 233.319C196.933 235.599 192.407 238.416 190.796 239.756C189.184 241.095 187.527 242.252 187.527 242.252C187.527 242.252 185.555 243.101 183.944 244.219C182.332 245.336 179.018 250.029 178.12 251.323C177.223 252.616 176.784 254.485 176.568 256.217C176.352 257.949 177.472 260.471 177.675 261.014C177.878 261.556 177.76 262.955 177.76 262.955C177.95 264.177 177.537 265.314 177.537 265.314C176.823 267.431 178.409 268.046 178.409 268.046C177.917 269.287 178.847 271.104 178.847 271.104C178.847 271.104 179.771 272.796 179.535 273.104C179.299 273.411 179.28 274.724 179.28 274.724C179.437 277.031 181.278 279.083 181.756 280.044C182.234 281.004 181.998 281.344 181.998 281.344L181.736 281.501C181.736 281.501 180.747 282.037 180.577 283.128C180.406 284.22 180.852 285.644 180.904 286.076C180.957 286.507 180.577 287.402 180.577 287.402L186.977 289.611C186.485 290.023 176.614 292.944 176.614 292.944C174.17 293.891 172.913 293.251 172.913 293.251C169.88 292.277 163.526 293.61 163.526 293.61C163.526 293.61 164.554 294.506 165.812 295.231C167.07 295.956 168.373 295.839 169.041 295.662C169.709 295.486 171.485 296.048 171.485 296.048C172.926 296.584 177.865 295.532 177.865 295.532C178.428 295.198 179.175 295.636 179.175 295.636L180.819 296.512L179.968 297.126L183.597 297.714C183.597 297.714 182.489 298.969 181.848 299.485C181.206 300.002 181.022 301.616 181.566 302.361C182.11 303.106 183.086 308.543 183.086 308.543C184.271 308.21 185.3 306.929 185.3 306.929L197.674 289.317C197.674 289.317 197.955 288.683 198.702 288.324C199.449 287.964 199.809 289.317 199.809 289.317C199.809 289.317 199.966 291.454 200.248 296.1C200.53 300.747 200.713 300.76 200.713 300.76C200.713 300.76 200.942 303.452 197.346 303.733C193.75 304.014 187.776 308.17 185.876 310.379C183.976 312.588 181.789 312.457 181.376 312.379C180.963 312.3 179.601 312.248 179.188 312.202C178.775 312.157 177.079 312.379 176.306 312.536C175.533 312.693 175.742 312.738 175.382 313.692C175.022 314.646 175.356 314.973 175.356 314.973L181.363 323.789L181.572 323.848C182.051 325.155 183.361 327.416 184.841 328.416C186.322 329.416 187.239 331.461 187.239 331.461V332.245C187.239 332.245 185.758 332.552 184.579 332.422C183.4 332.291 183.4 332.598 183.4 332.598C181.697 333.944 178.382 332.598 178.382 332.598C178.382 332.598 174.111 331.03 173.234 331.121C172.356 331.213 170.528 330.553 170.528 330.553L165.773 327.769C165.773 327.769 165.511 325.2 163.244 323.247C160.978 321.293 160.454 318.94 160.454 318.94H161.633C161.633 318.94 161.855 318.443 161.6 317.888C161.344 317.332 160.303 315.222 160.152 315.071C160.002 314.921 158.685 312.608 157.735 311.843L154.46 308.294L151.492 306.086L142.898 300.315C142.898 300.315 136.564 295.649 136.151 295.172C136.151 295.172 130.852 290.134 130.295 289.474C129.738 288.814 124.655 283.259 123.672 280.893C123.672 280.893 121.406 276.129 121.046 275.116C120.685 274.103 117.744 265.471 117.744 265.471L116.048 260.857C116.048 260.857 115.353 259.537 114.423 259.04C113.493 258.544 109.818 256.387 108.665 254.538C107.512 252.688 106.497 250.231 106.497 250.231C106.497 250.231 106.143 249.074 105.141 248.343C104.139 247.611 102.016 243.52 102.252 241.579C102.252 241.579 102.232 238.998 102.128 238.625C102.023 238.253 101.787 236.168 102.036 235.704C102.285 235.24 101.82 233.41 101.82 233.41C101.82 233.41 100.765 230.829 100.857 230.528C100.857 230.528 102.75 230.103 105.482 232.116C108.213 234.129 110.034 234.521 110.283 234.521C110.532 234.521 112.602 231.796 112.694 230.371C112.785 228.947 113.211 228.306 113.676 227.895C114.141 227.483 114.764 226.561 114.744 226.222C114.724 225.882 114.921 225.366 113.336 224.477C111.75 223.588 112.785 224.529 111.908 223.412L114.246 223.464L113.283 222.183C113.283 222.183 114.783 217.216 115.799 215.576C116.814 213.936 118.871 213.119 118.871 213.119C118.871 213.119 120.816 212.433 121.281 210.976C121.281 210.976 121.53 210.139 121.511 209.943L116.493 210.315C116.493 210.315 117.312 207.538 117.331 207.251C117.351 206.963 117.495 205.414 118.74 205.022C118.74 205.022 120.436 204.774 120.934 204.473L123.201 203.264L126.325 206.205L127.649 206.898L129.935 205.493C129.935 205.493 131.31 204.297 131.467 203.963C131.625 203.63 133.02 203.127 133.878 203.232C134.736 203.336 137.946 204.46 137.946 204.46C137.946 204.46 140.357 203.584 141.319 203.715C142.282 203.846 142.374 204.003 142.374 204.003L142.518 203.807L140.677 201.513C140.677 201.513 142.747 200.944 142.911 200.892C143.075 200.84 144.713 200.572 145.466 200.663C146.219 200.755 148.538 200.52 148.748 200.415C148.957 200.31 149.979 199.918 150.32 199.65C150.66 199.382 152.816 198.585 154.748 198.775C156.68 198.964 159.32 198.938 160.192 199.115C161.063 199.291 166.061 200.023 166.061 200.023C166.061 200.023 170.613 199.794 171.039 199.879C171.465 199.964 173.987 200.075 173.987 200.075C173.987 200.075 175.86 200.056 176.627 197.598L180.216 198.794L182.824 197.834L182.66 198.174L182.267 197.762C182.267 197.762 181.572 197.533 181.304 196.782C181.035 196.03 180.839 195.481 180.839 195.481L181.769 195.233C181.769 195.233 182.267 195.089 182.824 195.481C183.38 195.873 186.623 197.618 186.623 197.618C186.623 197.618 187.232 198.082 188.392 197.814C188.392 197.814 188.215 199.291 189.767 200.52C191.32 201.748 192.944 201.376 192.944 201.376C192.944 201.376 197.425 200.879 198.781 200.879C198.781 200.879 200.065 200.97 201.014 201.251C201.964 201.532 202.475 201.343 202.475 201.343C202.475 201.343 203.117 201.323 203.366 201.467C203.366 201.467 201.689 201.5 201.565 202.591L201.545 202.676V202.696" stroke="#1D1D1B" stroke-miterlimit="10"/>
<path d="M202.737 217.857L205.456 216.399L206.517 218.223L205.711 219.778L205.541 220.111" stroke="#1D1D1B" stroke-miterlimit="10"/>
<path d="M205.076 218.732L205.711 219.778" stroke="#1D1D1B" stroke-miterlimit="10"/>
<path d="M200.608 226.156L205.967 223.908L205.187 223.039L204.067 223.072L203.392 223.908L202.573 224.307L201.335 224.699L201.368 225.143L201.375 225.209L200.949 224.699L200.274 224.294" stroke="#1D1D1B" stroke-miterlimit="10"/>
<path d="M202.2 225.568L202.056 225.47L201.362 225.071" stroke="#1D1D1B" stroke-miterlimit="10"/>
<path d="M200.923 224.294L201.407 224.771H200.923V224.294Z" stroke="#1D1D1B" stroke-miterlimit="10"/>
<path d="M202.18 223.921L202.573 224.306" stroke="#1D1D1B" stroke-miterlimit="10"/>
<path d="M202.783 222.967L203.012 223.522L203.392 223.908" stroke="#1D1D1B" stroke-miterlimit="10"/>
<path d="M247.831 240.723L239.171 241.794L241.28 242.167L241.326 242.546L234.769 244.448L234.92 244.846L235.752 245.121C235.752 245.121 232.031 246.5 229.621 248.231C227.21 249.963 223.09 252.669 223.09 252.669C223.09 252.669 224.118 253.871 222.841 255.178C221.563 256.485 219.526 258.086 218.517 260.393C218.517 260.393 213.565 268.738 213.565 268.941C213.565 269.143 211.96 272.626 211.528 275.306C211.096 277.985 210.323 281.697 210.323 283.756C210.323 285.814 210.093 286.435 210.526 289.095C210.958 291.754 213.618 299.172 215.373 301.929C215.373 301.929 215.904 303.034 215.701 303.831C215.701 303.831 214.115 304.256 213.166 306.386C212.216 308.517 211.102 311.797 211.102 311.797C211.102 311.797 210.421 313.274 210.827 316.156C210.827 316.156 211.004 317.358 212.183 319.24C213.362 321.123 216.251 325.808 216.251 325.808L216.755 325.481L216.375 322.449L216.775 322.22L219.035 324.704C219.035 324.704 221.295 324.129 219.814 321.619C218.334 319.11 217.43 317.835 217.43 317.835C217.43 317.835 216.926 317.26 216.854 316.084C216.854 316.084 220.142 317.914 220.797 318.293C221.452 318.672 222.081 319.169 222.081 319.169C222.081 319.169 223.312 319.92 224.013 318.293C224.013 318.293 224.668 315.287 223.234 314.509C221.799 313.731 219.841 310.752 219.841 310.752C219.841 310.752 220.07 312.705 221.275 314.058L223.941 318.045C223.941 318.045 224.898 318.345 225.199 318.646C225.5 318.946 231.782 327.246 231.959 327.671C232.136 328.095 234.822 331.931 235.503 332.382C236.184 332.833 241.732 337.192 241.732 337.192C241.732 337.192 244.549 339.349 245.303 340.322C246.056 341.296 250.628 344.812 251.584 344.962C251.584 344.962 256.989 347.772 259.425 348.092C261.862 348.413 267.79 350.197 267.79 350.197C267.79 350.197 275.553 352.451 278.92 352.451C282.287 352.451 288.968 351.922 290.102 351.399C290.102 351.399 300.275 348.994 302.489 347.818C304.703 346.642 306.511 346.714 308.495 344.812C308.495 344.812 309.753 343.485 311.057 343.211C312.36 342.936 319.651 337.244 319.651 337.244L318.649 335.839L319.651 334.238C319.651 334.238 317.214 333.036 318.446 329.527L316.16 327.148C316.16 327.148 314.856 326.37 315.079 322.234L313.598 322.057L314.05 321.73L312.491 319.025C312.491 319.025 311.509 317.319 310.054 316.169C308.6 315.019 307.113 311.81 307.29 310.582C307.29 310.582 307.113 308.804 307.945 306.445C307.945 306.445 305.711 305.942 305.384 305.844C305.056 305.746 303.904 305.517 303.072 306.295C303.072 306.295 301.696 307.085 301.493 307.112C301.29 307.138 300.091 307.634 300.091 307.634C300.091 307.634 298.899 307.83 298.63 307.83C298.362 307.83 295.211 308.399 295.211 308.399C295.211 308.399 293.18 308.386 292.813 308.144C292.813 308.144 292.021 307.915 292.021 307.817C292.021 307.719 291.34 307.549 290.802 307.817C290.802 307.817 290.265 307.83 289.997 307.778C289.997 307.778 287.501 307.837 286.355 307.085C285.208 306.334 283.577 304.994 283.577 304.994L281.763 303.367C281.763 303.367 281.468 303.125 281.324 302.831C281.18 302.537 279.765 300.622 279.765 300.622L277.669 297.695L275.54 294.682C275.54 294.682 273.529 291.767 273.424 291.571C273.319 291.375 272.088 289.238 272.009 288.585C271.93 287.931 271.426 285.938 271.714 284.932L270.168 284.906C270.168 284.906 272.454 283.847 270.398 282.089C268.341 280.331 267.162 279.514 267.162 279.514C267.162 279.514 264.62 277.377 262.242 277.913C259.864 278.449 258.967 279.057 258.967 279.057C258.967 279.057 260.113 273.156 260.526 272.195C260.939 271.234 262.622 269.477 264.712 269.66L264.751 268.444L266.369 268.555C266.369 268.555 267.391 269.562 268 269.503C268.609 269.444 270.352 269.078 270.653 268.764C270.954 268.451 270.692 267.66 270.692 267.66L270.568 266.738C270.568 266.738 270.24 265.392 270.443 264.713C270.647 264.033 271.026 262.791 271.026 262.791L275.396 263.131C275.396 263.131 274.97 265.719 275.664 266.484C276.359 267.248 277.466 267.915 277.466 267.915C277.466 267.915 275.723 269.856 275.933 271.62C276.142 273.385 276.385 273.855 276.738 274.352C277.092 274.848 277.859 275.58 278.225 275.822C278.592 276.064 279.103 276.332 279.457 277.436C279.457 277.436 279.883 279.063 279.896 279.658C279.909 280.253 280.531 280.959 280.721 281.115C280.911 281.272 282.195 281.88 282.195 281.88C282.195 281.88 282.975 282.148 283.499 283.226C284.023 284.304 284.337 285.023 284.914 285.363C285.49 285.703 285.693 286.03 286.433 285.912C287.173 285.794 287.698 284.906 287.698 284.906C287.698 284.906 288.791 283.873 289.086 283.873C289.381 283.873 290.167 282.828 290.167 282.828C290.167 282.828 291.032 281.71 292.479 281.527C293.927 281.344 295.643 280.906 295.742 280.834C295.84 280.762 296.253 280.455 297.058 280.861C297.864 281.266 298.421 281.494 298.421 281.494L298.617 281.213L296.56 280.24L299.128 279.606C299.128 279.606 299.823 281.475 301.906 281.331C301.906 281.331 302.967 281.135 303.576 280.736C304.185 280.338 305.292 280.253 305.803 280.566C306.314 280.88 307.022 282.279 307.022 282.279L311.063 283.847L306.183 284.782C306.183 284.782 309.616 287.683 311.319 288.023C311.319 288.023 312.026 288.448 313.061 288.252C314.096 288.056 313.756 286.017 313.756 286.017C313.756 286.017 314.083 284.501 316.153 284.729C316.153 284.729 319.697 285.834 320.037 285.847L318.59 286.964C318.59 286.964 318.492 287.121 318.819 287.232C319.147 287.343 320.293 288.036 320.293 288.036C320.293 288.036 320.843 288.415 320.535 288.944C320.227 289.474 319.782 289.565 319.782 289.565C319.782 289.565 317.895 290.016 316.821 289.323C315.747 288.631 315.262 288.01 315.262 288.01C315.262 288.01 313.985 286.271 313.873 286.141C313.762 286.01 313.821 286.075 313.821 286.075" stroke="#1D1D1B" stroke-miterlimit="10"/>
<path d="M304.12 277.351L306.406 276.979C306.406 276.979 306.956 278.521 306.406 279.07C305.856 279.619 303.707 279.488 303.707 279.488C303.707 279.488 304.88 278.906 305.063 278.606C305.246 278.305 305.011 277.893 304.12 277.344V277.351Z" stroke="#1D1D1B" stroke-miterlimit="10"/>
<path d="M290.265 289.48V290.304L291.281 294.806C291.281 294.806 287.501 294.48 287.056 293.042C286.61 291.604 287.029 291.088 287.671 290.618C288.313 290.147 290.272 289.487 290.272 289.487L290.265 289.48Z" stroke="#1D1D1B" stroke-miterlimit="10"/>
<path d="M290.39 296.42L298.644 295.087C298.644 295.087 297.491 296.668 295.146 297.283C292.8 297.897 290.39 296.42 290.39 296.42V296.42Z" stroke="#1D1D1B" stroke-miterlimit="10"/>
<path d="M252.063 283.905C252.063 283.905 252.908 282.736 253.196 282.363C253.484 281.991 254.061 281.252 255.626 281.252C257.192 281.252 257.644 281.089 257.644 281.089C257.644 281.089 257.585 283.389 256.019 284.396C254.454 285.402 253.504 285.056 253.504 285.056C253.504 285.056 252.43 284.376 252.063 283.905Z" stroke="#1D1D1B" stroke-miterlimit="10"/>
<path d="M235.981 274.358L248.774 266.131C248.774 266.131 250.726 264.739 250.805 264.582C250.884 264.425 251.165 263.87 252.875 265.098L255.783 266.686C255.783 266.686 253.032 268.633 252.757 269.071C252.482 269.509 249.128 271.058 248.892 271.019C248.656 270.98 245.787 271.934 245.388 272.293C244.988 272.653 241.962 273.685 241.405 273.842C240.848 273.999 236.427 275.09 236.427 275.09L235.988 274.358H235.981Z" stroke="#1D1D1B" stroke-miterlimit="10"/>
<path d="M263.893 255.316L264.214 256.688L263.284 257.008C263.284 257.008 262.76 256.989 262.491 256.825C262.223 256.662 260.69 256.42 260.022 257.511C259.353 258.603 257.572 261.955 257.572 261.955L258.24 263.007L261.22 263.393L259.963 264.099L260.107 264.504L263.873 263.288L262.498 262.7C262.498 262.7 263.185 262.177 263.205 262.073C263.225 261.968 264.397 261.589 264.397 261.589C264.397 261.589 266.304 260.596 267.456 259.328C268.609 258.06 268.852 257.348 268.956 257.087C269.061 256.825 269.363 255.368 267.679 255.087L263.893 255.309V255.316Z" stroke="#1D1D1B" stroke-miterlimit="10"/>
<path d="M255.017 263.353C255.017 263.353 255.534 262.464 255.58 262.386C255.626 262.308 256.137 261.563 256.242 261.523C256.347 261.484 256.432 261.393 256.825 261.628C257.218 261.863 257.716 262.079 257.716 262.079L257.244 262.157L258.371 262.987C258.371 262.987 258.292 263.948 257.762 264.17C257.231 264.392 256.373 263.967 256.373 263.967L255.024 263.36L255.017 263.353Z" stroke="#1D1D1B" stroke-miterlimit="10"/>
<path d="M266.343 268.529V268.476L266.598 266.117L270.437 266.738C270.483 266.745 270.509 266.751 270.509 266.751" stroke="#1D1D1B" stroke-miterlimit="10"/>
<path d="M258.469 244.363L265.203 244.801L265.111 245.213L262.491 245.592L266.356 249.728C266.356 249.728 265.38 249.807 265.111 249.885C264.843 249.963 264.81 250.12 263.899 249.395C262.989 248.67 261.849 247.931 261.849 247.931C261.849 247.931 259.877 246.088 259.498 245.036C259.498 245.036 258.535 244.657 258.476 244.356L258.469 244.363Z" stroke="#1D1D1B" stroke-miterlimit="10"/>
<path d="M247.634 240.722L242.708 236.004L242.931 235.533L245.754 236.612L245.669 236.755L249.036 235.533L252.108 233.645L252.488 233.553L253.189 232.972L255.554 233.769L256.877 233.782L258.816 231.652L258.404 231.22C258.404 231.22 257.604 231.828 257.414 231.874C257.224 231.92 256.635 231.926 256.262 231.789C255.888 231.652 255.554 231.586 255.554 231.586L254.991 231.148L256.052 230.534L257.493 229.868L255.2 228.005L254.349 225.594L252.901 225.718C252.901 225.718 252.449 226.744 252.246 226.979C252.043 227.214 251.781 227.175 251.781 227.175C251.781 227.175 250.936 227.28 250.844 228.149C250.753 229.018 251.021 229.613 251.021 229.613L251.702 230.103L251.467 230.24L251.27 230.351L251.06 229.691C251.06 229.691 250.563 228.502 250.346 228.299C250.13 228.097 249.285 226.698 247.536 226.613L245.368 228.456L248.047 232.331L251.132 230.404L251.814 230.044L252.698 229.959L253.772 230.064L253.969 232.168L252.063 232.063L251.683 230.155" stroke="#1D1D1B" stroke-miterlimit="10"/>
<path d="M255.168 228.031L254.146 228.489L254.238 228.417L253.517 228.43L253.759 229.443L253.727 230.116H254.218L253.766 229.462" stroke="#1D1D1B" stroke-miterlimit="10"/>
<path d="M254.152 228.541V229.946L254.218 230.168L254.965 231.103" stroke="#1D1D1B" stroke-miterlimit="10"/>
<path d="M257.152 229.646L257.093 229.574C257.093 229.574 256.471 229.437 256.059 229.607C255.646 229.776 256.098 230.508 256.098 230.508" stroke="#1D1D1B" stroke-miterlimit="10"/>
<path d="M255.561 231.646L254.807 232.201L253.897 232.116L255.587 233.802" stroke="#1D1D1B" stroke-miterlimit="10"/>
<path d="M252.187 233.691L248.001 232.253C248.001 232.253 248.283 232.273 247.68 233.854C247.078 235.435 248.532 235.488 248.532 235.488H249.128" stroke="#1D1D1B" stroke-miterlimit="10"/>
<path d="M256.74 233.802C256.74 233.802 257.539 233.567 258.679 233.802C259.818 234.037 261.129 234.318 261.129 234.318C261.129 234.318 262.105 234.495 262.707 234.423C263.31 234.351 263.978 234.181 264.293 233.972C264.293 233.972 264.345 233.841 264.686 233.998L265.793 234.214L268.799 234.789C268.799 234.789 270.633 235.043 270.869 235.05C271.105 235.057 271.767 235.07 272.566 234.743C273.365 234.416 274.066 234.115 274.066 234.115L273.974 233.553L271.95 232.338C271.95 232.338 271.367 231.292 271.367 231.116C271.367 230.94 270.686 230.175 270.404 229.985C270.123 229.796 268.865 228.62 268.865 228.62L267.319 227.273L266.074 226.136L264.725 224.784C264.725 224.784 263.651 223.856 262.773 223.777C261.895 223.699 261.725 223.725 261.725 223.725" stroke="#1D1D1B" stroke-miterlimit="10"/>
<path d="M254.257 225.6L255.574 225.156L256.668 224.921L257.283 224.365L257.637 224.307H258.993L263.002 223.535L261.247 220.876C261.247 220.876 259.982 219.124 259.871 219.039C259.76 218.954 259.38 218.347 259.046 218.242C258.711 218.138 257.323 217.014 257.323 217.014C257.323 217.014 257.126 217.608 256.569 217.778C256.569 217.778 256.124 217.817 255.633 217.412C255.141 217.007 254.748 216.961 254.748 216.961L254.526 215.53L255.829 214.021L257.349 217.085" stroke="#1D1D1B" stroke-miterlimit="10"/>
<path d="M257.303 224.418L255.358 223.059L255.233 223.098C255.233 223.098 253.53 222.444 253.432 222.438C253.432 222.438 252.469 222.202 252.384 222.202C252.299 222.202 249.272 221.68 249.272 221.68L249.711 222.771L252.089 224.66L255.174 223.13" stroke="#1D1D1B" stroke-miterlimit="10"/>
<path d="M252.908 225.673L252.122 224.601C252.122 224.601 250.477 224.176 250.353 224.124C250.229 224.072 249.58 223.837 249.397 223.706C249.213 223.575 247.635 222.667 247.635 222.667L248.624 221.432L248.663 221.445L249.325 221.713" stroke="#1D1D1B" stroke-miterlimit="10"/>
<path d="M247.569 226.673L245.774 225.163L243.809 224.104L244.313 223.065L245.008 223.02L245.08 223.078L245.06 223.941L246.488 223.836L245.8 225.117" stroke="#1D1D1B" stroke-miterlimit="10"/>
<path d="M244.851 224.601L245.145 223.882H244.608L244.877 224.633" stroke="#1D1D1B" stroke-miterlimit="10"/>
<path d="M244.3 223.02L244.713 223.928L243.809 224.104" stroke="#1D1D1B" stroke-miterlimit="10"/>
<path d="M245.473 223.065H246.383L246.351 223.902L245.879 223.915L245.473 223.065Z" stroke="#1D1D1B" stroke-miterlimit="10"/>
<path d="M246.102 220.993L245.054 222.79L245.008 223.019L245.08 223.078L245.558 223.143L245.473 222.627L246.383 222.692L246.102 220.993Z" stroke="#1D1D1B" stroke-miterlimit="10"/>
<path d="M247.589 222.699L246.711 222.3L246.102 220.993L248.119 221.549L248.067 221.424H248.63" stroke="#1D1D1B" stroke-miterlimit="10"/>
<path d="M246.718 222.699L246.776 222.248H246.285L246.383 222.692" stroke="#1D1D1B" stroke-miterlimit="10"/>
<path d="M247.739 222.595L246.501 223.941L246.717 223.065L247.739 222.595Z" stroke="#1D1D1B" stroke-miterlimit="10"/>
<path d="M246.285 222.653H246.776V222.699V223.124H246.285V222.653Z" stroke="#1D1D1B" stroke-miterlimit="10"/>
<path d="M247.549 222.68L246.776 222.699" stroke="#1D1D1B" stroke-miterlimit="10"/>
<path d="M255.358 223.052L254.526 215.531L253.766 212.498L249.442 212.544L250.025 211.629L246.023 210.937L246.868 213.139L238.85 213.165C238.85 213.165 238.221 213.113 237.828 212.714L237.442 212.459L238.654 211.093L234.245 211.348L236.184 210.571C236.184 210.571 238.628 208.028 239.014 207.46C239.4 206.891 239.82 206.244 239.964 205.944C240.108 205.643 241.136 203.48 241.346 202.186C241.556 200.892 241.772 198.847 241.772 198.847C241.772 198.847 241.89 196.677 241.798 196.272C241.706 195.867 241.556 195.187 241.012 194.671C240.468 194.155 239.571 192.841 239.571 192.841L237.946 190.802L235.64 187.94L233.623 185.45L231.691 183.156L230.204 181.451L228.199 179.092L226.391 176.732L224.845 174.458C224.845 174.458 222.474 171.282 222.258 171.171C222.042 171.06 220.548 169.433 220.548 169.433C220.548 169.433 218.026 167.309 217.803 167.165C217.581 167.021 215.53 165.518 215.53 165.518L212.078 163.14C212.078 163.14 208.796 161.042 208.685 161.016C208.574 160.99 205.849 159.428 205.849 159.428C205.849 159.428 204.892 158.905 204.755 158.709C204.617 158.513 203.058 157.114 203.058 157.114C203.058 157.114 202.023 156.35 200.674 156.866C200.674 156.866 200.359 155.455 198.237 154.605C196.115 153.755 195.387 152.527 195.171 152.082C194.955 151.638 190.999 150.671 190.999 150.671C190.999 150.671 183.518 153.193 182.214 153.337L171.661 155.742C171.661 155.742 162.144 158.578 160.349 159.741C158.554 160.905 150.235 163.44 150.235 163.44L140.062 167.054C140.062 167.054 135.123 168.877 134.107 168.753C133.092 168.629 131.775 168.426 129.797 167.557C127.819 166.688 122.408 165.139 122.408 165.139C122.408 165.139 111.069 160.963 110.139 160.781C109.209 160.598 100.536 158.186 100.536 158.186L99.0686 164.427C99.0686 164.427 98.0205 165.858 97.182 166.577C97.182 166.577 97.8371 168.191 97.4506 169.204C97.0641 170.217 96.3435 171.354 96.3435 171.655C96.3435 171.955 95.7474 174.55 95.7474 174.55C95.7474 174.55 92.066 187.267 91.1686 188.489L88.234 195.71C88.234 195.71 87.6641 198.01 87.5134 199.474C87.3628 200.938 85.6858 207.087 84.2513 208.342C84.2513 208.342 83.2032 209.806 82.9019 211.329C82.6005 212.851 81.8276 214.256 81.0743 214.4C80.321 214.544 79.1288 214.25 78.8274 213.537C78.8274 213.537 79.7838 212.257 78.3492 211.479L76.764 211.57C76.764 211.57 75.8338 211.361 75.5653 211.453C75.2967 211.544 73.7704 211.544 73.7704 211.361C73.7704 211.178 76.7902 210.165 76.7902 210.165C76.7902 210.165 74.2159 206.761 68.589 208.819L69.244 209.597L67.2396 209.839L67.4819 208.643L66.7614 207.865L65.0844 209.538C65.0844 209.538 59.2479 207.388 59.0383 207.238C58.8287 207.087 56.8242 206.192 56.3722 206.192C55.9202 206.192 53.4114 205.179 53.4114 205.179C53.4114 205.179 52.062 204.343 51.6755 204.343C51.6755 204.343 49.0749 203.356 48.505 203.48C48.505 203.48 46.7692 203.389 46.5006 203.572C46.232 203.755 42.7275 203.245 42.7275 203.245C42.7275 203.245 39.164 202.382 38.9282 202.258C38.6924 202.134 35.9346 200.677 35.5481 200.35C35.1616 200.023 33.3013 199.278 33.3013 199.278L32.9541 199.997" stroke="#1D1D1B" stroke-miterlimit="10"/>
<path d="M42.02 200.199H48.2234C48.2234 200.199 46.3303 201.193 46.1796 201.343C46.029 201.493 44.7123 201.944 44.1228 201.781C43.5332 201.617 41.8694 201.127 41.8694 201.127L42.0135 200.199H42.02Z" stroke="#1D1D1B" stroke-miterlimit="10"/>
<path d="M63.8202 206.473L65.15 205.107L66.9251 206.63H65.6543L66.1915 207.695L65.8378 207.996L63.8202 206.473Z" stroke="#1D1D1B" stroke-miterlimit="10"/>
<path d="M47.9811 218.393L56.0448 222.157C56.0448 222.157 50.5554 223.268 47.9811 218.393V218.393Z" stroke="#1D1D1B" stroke-miterlimit="10"/>
<path d="M42.4459 216.04C42.4459 216.04 41.6336 216.086 40.4283 214.968C39.223 213.851 37.3823 214.968 37.3823 214.968L42.2297 216.85L42.4459 216.04Z" stroke="#1D1D1B" stroke-miterlimit="10"/>
<path d="M33 213.642L34.2577 213.942C34.2577 213.942 35.5875 212.87 36.3146 214.197C36.3146 214.197 36.0591 214.687 36.7862 215.661C37.5133 216.635 37.7295 217.83 37.7295 217.83L33 215.68" stroke="#1D1D1B" stroke-miterlimit="10"/>
<path d="M144.975 169.661L148.656 172.229L148.263 172.772L144.562 170.047L144.975 169.661Z" stroke="#1D1D1B" stroke-miterlimit="10"/>
<path d="M150.346 174.523C150.346 174.523 151.584 174.026 153.464 175.823C155.344 177.62 155.894 178.307 155.914 178.529C155.934 178.751 150.346 174.529 150.346 174.529V174.523Z" stroke="#1D1D1B" stroke-miterlimit="10"/>
<path d="M242.938 319.292C242.938 319.292 248.761 309.856 249.331 309.751C249.901 309.647 253.386 304.151 257.493 304.046C257.493 304.046 258.587 302.438 259.517 302.438C260.447 302.438 264.974 303.53 264.974 303.53C264.974 303.53 266.376 305.137 266.742 305.137C266.742 305.137 268.459 306.431 269.133 306.484C269.808 306.536 272.821 307.418 272.566 312.084L272.579 312.81L273.083 313.901L274.538 313.385C274.538 313.385 277.033 315.822 275.265 318.103C273.496 320.384 272.094 322.507 271.524 324.586H270.954L270.384 323.187H269.919C269.919 323.187 270.234 324.481 268.203 325.886C266.172 327.291 258.331 331.591 258.331 331.591C258.331 331.591 255.888 332.937 255.056 330.657C255.056 330.657 254.899 328.892 255.888 328.69C256.877 328.487 260.618 326.252 261.502 324.644C262.386 323.037 265.445 319.769 265.445 319.769V319.096L260.1 320.031L260.467 318.992C260.467 318.992 256.674 317.279 253.864 321.272L258.751 320.495C258.751 320.495 254.539 324.54 247.215 324.331C247.215 324.331 245.034 324.122 244.615 321.945C244.195 319.769 242.951 319.299 242.951 319.299L242.938 319.292Z" stroke="#1D1D1B" stroke-miterlimit="10"/>
<path d="M252.764 316.234L254.061 311.464C254.061 311.464 251.984 311.052 251.408 314.94L252.082 316.234H252.757H252.764Z" stroke="#1D1D1B" stroke-miterlimit="10"/>
<path d="M247.228 330.317C247.228 330.317 249.626 330.173 249.94 330.121C250.255 330.069 251.028 330.206 251.997 331.147L250.857 332.173C250.857 332.173 249.233 332.127 248.801 331.977C248.368 331.827 247.857 331.859 247.228 330.317V330.317Z" stroke="#1D1D1B" stroke-miterlimit="10"/>
<path d="M320.155 285.846L320.797 285.735C320.797 285.735 319.507 286.199 319.265 284.134C319.022 282.069 318.806 281.35 318.865 281.233C318.924 281.115 317.365 280.507 317.273 280.364C317.273 280.364 316.625 280.063 316.166 278.932C315.708 277.802 314.581 274.946 314.581 274.946L314.915 274.881L312.256 271.221C312.256 271.221 310.847 269.62 310.808 269.097C310.769 268.574 310.991 268.137 311.266 267.856C311.542 267.575 311.987 266.614 311.987 266.614L313.009 263.889C313.009 263.889 312.465 262.628 311.581 263.667C311.581 263.667 311.129 263.928 310.795 263.948C310.461 263.967 309.013 264.627 309.013 264.627L308.613 264.006L310.12 262.386L303.235 258.739L302.554 259.72L311.207 267.829" stroke="#1D1D1B" stroke-miterlimit="10"/>
<path d="M312.072 266.588C312.072 266.588 313.467 266.124 314.273 266.176C315.079 266.228 316.533 266.209 316.533 266.209C316.533 266.209 317.129 266.196 317.437 266.385C317.437 266.385 317.66 266.392 317.66 266.666C317.66 266.941 318.112 267.542 318.112 267.542C318.112 267.542 318.55 268.274 320.424 268.457C320.424 268.457 320.824 268.333 321.714 269.404L324.78 270.509L325.291 272.665C325.291 272.665 325.245 272.953 325.625 273.103L326.005 273.253L327.112 271.241L330.066 275.626L328.887 275.959C328.887 275.959 329.333 276.253 330.728 276.227C332.123 276.201 333.315 276.416 333.682 278.044C333.682 278.044 334.016 278.207 334.206 278.233C334.396 278.259 336.283 279.213 336.283 279.213C336.283 279.213 337.115 279.632 338.123 280.39C339.132 281.148 340.698 280.043 340.698 280.043L341.379 281.566L339.637 283.964C339.637 283.964 339.65 284.278 338.726 284.33C338.687 284.33 338.641 284.33 338.595 284.33C337.547 284.356 336.774 284.33 336.774 284.33L333.623 284.677L332.818 284.5L332.752 284.082L333.25 284.35L332.215 284.807L328.94 285.062L329.582 285.866C329.582 285.866 330.898 285.278 333.099 285.533C335.3 285.787 338.091 286.617 338.091 286.617L339.335 285.441L336.741 284.304" stroke="#1D1D1B" stroke-miterlimit="10"/>
<path d="M338.837 284.39L343.069 284.939L343.141 285.305L337.992 286.612C337.992 286.612 338.857 286.768 338.995 286.821C339.132 286.873 339.388 286.945 339.479 287.128C339.571 287.311 340.37 287.69 340.567 287.762C340.763 287.834 341.674 287.932 342.499 287.428C343.325 286.925 344.386 286.226 344.386 286.226C344.386 286.226 344.222 287.481 344.641 287.742C345.06 288.003 345.689 288.324 345.689 288.324C345.689 288.324 344.039 288.539 343.547 289.356C343.056 290.173 343.691 291.598 343.691 291.598C343.691 291.598 343.777 292.049 343.665 292.369L345.748 291.003L347.039 293.245L345.27 294.048C345.27 294.048 345.25 294.055 345.224 294.068C345.028 294.14 344.288 294.342 344.176 293.591C344.052 292.722 344.019 292.539 343.685 292.388" stroke="#1D1D1B" stroke-miterlimit="10"/>
<path d="M345.329 294.074C345.329 294.074 346.364 294.283 346.711 294.414C347.058 294.545 347.831 295.251 347.831 295.251C347.831 295.251 348.631 296.126 348.768 296.505C348.906 296.884 349.22 297.218 349.168 298.113C349.115 299.008 348.788 299.832 348.788 299.832L350.38 299.668L353.511 303.746L351.441 304.707L359.956 307.393C359.956 307.393 359.858 307.843 359.852 307.928C359.845 308.013 359.583 308.477 359.465 308.726C359.347 308.974 358.699 310.065 358.954 311.281C359.21 312.496 360.12 313.398 360.12 313.398C360.12 313.398 361.43 314.47 361.568 315.705C361.568 315.705 361.823 316.822 361.777 317.371C361.732 317.92 361.928 318.639 362.02 318.822C362.112 319.005 362.485 319.848 362.924 320.168C362.924 320.168 363.133 320.358 363.435 320.378C363.736 320.397 364.496 320.678 364.633 320.985C364.771 321.292 364.935 321.704 364.424 322.848L366.481 322.619C366.481 322.619 367.214 324.312 367.483 324.606C367.752 324.9 367.994 325.148 368.387 325.292C368.78 325.436 370.555 325.194 371.767 324.697C372.979 324.2 374.014 324.383 374.296 325.043C374.296 325.043 374.669 325.671 374.702 326.03C374.734 326.39 375.095 326.612 375.095 326.612C375.095 326.612 375.684 327.017 375.992 327.442C376.3 327.867 378.383 330.134 378.383 330.134C378.383 330.134 380.302 332.369 380.65 333.219C380.65 333.219 381.691 334.996 381.796 336.133L380.322 336.989C380.322 336.989 379.464 337.395 379.228 337.382C378.992 337.368 378.462 337.787 378.553 338.264C378.645 338.741 379.412 339.329 379.412 339.329C379.412 339.329 380.152 340.237 379.988 341.865C379.824 343.492 380.577 346.753 380.577 346.753L381.278 346.844L382.621 342.891C382.621 342.891 382.818 341.629 383.244 341.276C383.669 340.923 384.102 341.146 384.102 341.146C384.102 341.146 384.337 341.211 384.6 341.041C384.862 340.871 385.615 340.29 385.615 340.29C385.615 340.29 383.348 340.564 383.021 339.12C383.021 339.12 382.982 338.211 383.126 337.989C383.27 337.767 382.968 337.199 382.68 337.055C382.392 336.911 381.809 336.186 381.809 336.186C381.809 336.186 382.837 335.075 382.975 334.924C383.113 334.774 383.342 334.362 383.388 334.238C383.434 334.114 384.023 332.925 384.279 332.735C384.534 332.546 384.77 332.029 385.838 332.127C386.905 332.225 388.504 333.297 388.504 333.297L390.665 334.33L392.558 335.173C392.558 335.173 392.48 334.101 392.932 333.532C393.384 332.964 394.864 333.349 394.864 333.349C394.864 333.349 395.788 334.604 396.521 334.82C397.255 335.035 398.251 334.846 398.578 334.421L398.526 334.323L397.74 332.814L394.825 333.454C394.825 333.454 395.133 332.016 395.133 331.931C395.133 331.846 395.441 330.788 396.842 331.101C396.842 331.101 397.17 330.853 397.281 330.441L396.253 329.644L403.105 328.154V328.291L403.236 330.056L402.07 329.749L400.858 331.663L400.432 331.533L400.295 329.618C400.295 329.618 398.932 330.938 398.749 332.154C398.565 333.369 398.598 334.349 398.598 334.349L401.185 335.656L400.819 337.617C400.819 337.617 402.338 338.061 403.164 337.617C403.989 337.172 404.945 335.395 404.945 335.395L406.963 331.291L403.845 327.723L403.203 328.252L402.967 328.043L403.72 327.749L400.773 325.945L400.504 326.259L401.022 326.344C401.022 326.344 400.707 326.069 400.55 325.344C400.55 325.344 400.452 325.128 400.602 325.05C400.753 324.972 401.775 324.259 401.775 324.259L403.341 323.292C403.341 323.292 404.009 322.776 404.14 322.599C404.271 322.423 404.435 322.331 404.1 321.946C403.766 321.56 403.714 321.384 403.236 321.711C402.758 322.037 400.544 324.227 400.544 324.227L400.013 323.906C400.013 323.906 401.035 323.357 401.218 322.331C401.218 322.331 401.356 321.946 400.904 320.959C400.904 320.959 400.222 319.619 400.19 319.338L399.371 319.835L399.07 319.338L402.725 317.515L398.768 317.483L400.183 318.169C400.183 318.169 396.286 318.332 395.821 318.43C395.821 318.43 393.731 318.613 392.938 319.11C392.938 319.11 390.161 320.273 389.394 321.064C389.394 321.064 386.368 323.377 386.231 323.586C386.093 323.795 384.423 324.736 384.305 324.658C384.187 324.579 383.499 322.913 383.591 322.39C383.682 321.867 383.905 319.887 384.069 319.724C384.233 319.561 383.859 319.234 385.038 318.783L386.067 318.214C386.067 318.214 386.886 317.528 388.143 318.156C388.143 318.156 388.995 318.75 389.132 318.992C389.27 319.234 389.925 319.456 390.613 318.979C391.301 318.502 393.495 316.894 394.091 316.757C394.091 316.757 397.425 315.234 399.377 315.025C399.377 315.025 406.059 313.503 406.976 313.503C407.893 313.503 409.19 313.176 409.387 312.725C409.583 312.274 409.714 311.549 409.655 311.353C409.596 311.157 410.088 310.248 410.369 310.026C410.369 310.026 410.356 310.993 410.788 311.725C411.221 312.457 412.4 312.575 412.4 312.575C412.4 312.575 413.284 312.47 413.658 312.411C414.031 312.353 416.749 312.261 418.616 313.084C420.483 313.908 422.959 314.829 422.959 314.829" stroke="#1D1D1B" stroke-miterlimit="10"/>
<path d="M422.94 318.626C422.94 318.626 418.551 314.588 417.883 314.287C417.883 314.287 415.236 312.281 414.09 312.405" stroke="#1D1D1B" stroke-miterlimit="10"/>
<path d="M412.511 327.389C412.511 327.389 410.919 327.762 411.037 328.847C411.037 328.847 411.247 329.605 411.771 330.206C412.295 330.807 412.347 331.219 412.347 331.219C412.347 331.219 409.996 330.088 409.95 329.102C409.904 328.115 410.284 327.102 412.511 327.389Z" stroke="#1D1D1B" stroke-miterlimit="10"/>
<path d="M389.539 332.715L392.074 333.003C392.074 333.003 391.871 332.271 391.825 332.029C391.779 331.787 391.759 331.611 390.947 331.702C390.135 331.794 389.539 331.84 389.539 331.84V332.715V332.715Z" stroke="#1D1D1B" stroke-miterlimit="10"/>
<path d="M117.102 349.432C117.102 349.432 135.326 367.115 142.82 380.316C150.313 393.517 156.052 408.959 156.052 408.959C156.052 408.959 156.543 410.775 158.351 410.704L159.576 415.311L163.762 422.074L165.995 421.428C165.995 421.428 164.77 423.878 164.77 424.597C164.77 425.316 165.347 427.335 166.932 428.773C168.517 430.211 172.775 437.268 172.775 437.268C172.775 437.268 173.352 438.059 174.432 439.065C175.513 440.072 183.092 446.626 184.966 449.214C186.839 451.802 189.007 452.096 189.007 452.096C189.007 452.096 190.088 452.887 190.809 453.965C190.809 453.965 193.042 455.331 194.274 455.331C195.505 455.331 200.982 457.853 201.637 458.5C202.292 459.147 205.895 462.389 206.687 463.467C207.48 464.545 209.648 466.133 210.585 466.061C211.521 465.99 224.943 459.147 224.943 459.147L250.13 445.11C250.13 445.11 251.139 443.888 252.515 445.613C253.89 447.339 258.069 452.599 258.286 453.318C258.502 454.037 262.471 459.938 262.904 460.52C263.336 461.101 267.09 464.408 267.954 467.068C268.819 469.728 279.575 481.896 279.575 481.896L279.935 480.889L271.275 466.78C271.275 466.78 270.05 465.415 269.474 464.983C268.897 464.552 267.528 461.382 267.528 461.382C267.528 461.382 261.974 453.965 261.757 453.103C261.541 452.24 257.86 446.26 257.86 446.26L255.914 444.32C255.914 444.32 254.257 442.954 255.914 442.091C257.572 441.229 264.79 437.34 265.295 436.765C265.799 436.19 268.688 434.243 272.441 436.981C276.195 439.719 276.987 439.791 276.987 439.791L281.389 440.438C281.389 440.438 283.479 438.856 284.062 440.725V442.451L285.863 443.816L283.047 444.176C283.047 444.176 283.767 443.169 281.966 442.451C280.164 441.732 281.678 439.209 281.678 439.209C281.678 439.209 281.389 437.196 279.876 436.83C278.363 436.465 278.579 435.033 278.579 435.033L279.077 434.72L280.204 435.844L281.009 432.276L282.568 432.975L282.352 435.739L282.837 435.929L284.291 432.23L286.171 435.314C286.171 435.314 287.298 435.073 287.973 435.288C288.647 435.504 298.912 439.281 300.464 439.418C300.464 439.418 304.414 434.648 301.945 432.178C301.945 432.178 298.584 431.321 298.159 431.132C297.733 430.942 296.947 430.302 296.704 429.982C296.462 429.662 292.702 426.446 289.748 425.61L289.132 425.714L289.027 427.165L284.435 427.218L279.922 424.055V423.571L282.719 423.708L283.178 422.29C283.178 422.29 283.223 422.316 283.302 422.362C283.335 422.382 283.368 422.395 283.407 422.421C283.911 422.695 285.104 423.316 285.542 423.316C286.106 423.316 287.291 423.264 287.586 423.127C287.704 423.074 287.128 422.427 286.263 421.676C285.018 420.598 283.184 419.291 281.999 419.212C281.999 419.212 280.629 417.069 279.175 418.219L280.413 419.238C280.413 419.238 280.76 419.585 280.787 420.179C280.813 420.774 283.086 422.323 283.086 422.323L283.328 421.264L286.165 421.676H286.204L286.237 421.689H286.309" stroke="#1D1D1B" stroke-miterlimit="10"/>
<path d="M277.21 418.435L279.208 421.258C279.208 421.258 277.132 421.879 275.874 421.107C274.616 420.336 275.933 419.454 275.933 419.454L277.21 418.435V418.435Z" stroke="#1D1D1B" stroke-miterlimit="10"/>
<path d="M281.985 419.108C281.985 419.108 282.359 417.095 282.699 416.539C283.04 415.984 283.636 415.605 284.579 415.272L283.643 413.801C283.643 413.801 283.138 413.082 282.726 412.912C282.313 412.742 278.501 410.553 278.501 410.553L276.535 409.547L277.649 409.168L275.278 407.41L272.926 405.619L269.625 403.077L269.887 406.384C269.887 406.384 268.917 406.449 267.483 405.998C266.048 405.547 264.823 405.208 264.823 405.208C264.823 405.208 264.122 404.018 262.995 403.528C261.869 403.038 260.611 402.025 260.611 402.025L258.371 400.888C258.371 400.888 257.487 400.607 256.51 400.888L255.089 401.038L254.873 401.359L256.262 402.711L253.157 402.548L251.886 402.587L249.547 402.169H249.495L249.39 402.143L245.348 401.417L246.2 401.254L245.27 401.692C245.27 401.692 245.807 399.777 247.176 400.927L248.44 401.3L249.416 402.189L250.504 401.725L248.25 401.195L247.183 400.855L247.248 399.326L250.471 401.803L252.371 401.332L248.021 399.862L247.929 399.816L247.877 399.764L247.798 399.777" stroke="#1D1D1B" stroke-miterlimit="10"/>
<path d="M247.183 399.425L247.549 398.209C247.549 398.209 250.366 398.307 251.637 399.425C251.637 399.425 252.384 399.987 252.678 400.457C252.973 400.928 254.86 401.372 254.86 401.372H252.259L251.899 402.64" stroke="#1D1D1B" stroke-miterlimit="10"/>
<path d="M255.063 401C255.063 401 252.24 397.15 251.919 396.883C251.919 396.883 251.054 395.36 249.521 396.007C249.521 396.007 249.01 396.157 248.676 396.811C248.342 397.464 247.556 398.203 247.556 398.203C247.556 398.203 246.678 397.431 246.318 397.085C245.958 396.739 244.975 396.288 244.975 396.288C244.975 396.288 239.767 393.452 239.414 393.386C239.06 393.321 237.553 392.726 235.929 392.628L236.197 393.929L229.097 389.609C229.097 389.609 228.782 389.583 228.874 389.165C228.966 388.746 229.11 388.766 228.972 388.465C228.835 388.165 228.533 388.021 228.062 387.988C227.59 387.956 227.302 387.76 227.302 387.76C227.302 387.76 225.697 387.113 225.658 387.074C225.618 387.034 225.468 387.067 225.658 386.512C225.847 385.956 226.221 385.629 225.736 384.793C225.251 383.956 224.708 383.623 224.708 383.623C224.708 383.623 223.535 382.591 223.804 381.277L223.26 381.166C223.26 381.166 219.985 378.839 219.854 378.663C219.723 378.487 218.871 377.676 218.871 377.676C218.871 377.676 217.424 376.356 216.533 375.971C215.642 375.585 213.971 374.925 212.583 374.84C211.194 374.755 210.185 374.154 209.779 373.344C209.373 372.533 209.406 371.749 209.406 371.749C209.406 371.749 209.189 370.252 207.853 370.2C207.853 370.2 207.152 370.207 206.543 370.429C205.934 370.651 203.15 371.037 203.15 371.037C203.15 371.037 201.525 371.292 200.982 371.559C200.438 371.827 199.324 372.416 198.84 373.487C198.355 374.559 198.669 374.879 198.669 374.879L195.505 376.918C195.505 376.918 194.032 377.866 193.593 378.362C193.154 378.859 192.872 379.369 192.715 379.689C192.558 380.009 192.06 381.074 190.35 380.695C190.35 380.695 190.9 381.983 190.448 382.421C190.141 382.715 189.243 382.898 188.293 382.996C187.835 383.041 187.37 383.074 186.95 383.087L186.295 384.669C186.295 384.669 187.245 385.296 187.527 385.597C187.809 385.897 188.221 386.08 188.844 385.433C189.466 384.786 189.865 384.12 189.865 384.12L188.215 382.956" stroke="#1D1D1B" stroke-miterlimit="10"/>
<path d="M186.243 384.688L184.573 385.989C184.573 385.989 183.302 386.904 183.033 387.315C182.765 387.727 182.11 388.616 182.044 388.688C181.979 388.76 181.651 389.21 180.839 389.335C180.027 389.459 179.221 389.021 179.221 389.021L178.697 388.289C178.697 388.289 182.391 385.433 182.47 385.427C182.548 385.42 184.108 383.956 184.448 383.688C184.789 383.42 185.247 382.93 186.905 383.009C186.905 383.009 187.697 382.146 187.92 381.538C188.143 380.931 188.994 380.297 189.937 380.434L190.455 380.728" stroke="#1D1D1B" stroke-miterlimit="10"/>
<path d="M189.957 380.388C189.957 380.388 189.806 379.532 189.918 379.166C190.029 378.8 192.099 376.827 192.099 376.827L182.509 371.912C182.509 371.912 175.441 367.763 175.29 367.652C175.14 367.541 170.856 365.018 170.856 365.018C170.856 365.018 164.869 361.783 164.279 361.581C163.689 361.378 158.161 358.823 156.274 358.64C154.388 358.457 151.676 357.614 151.676 357.614L151.289 358.235C151.289 358.235 153.196 359.803 153.765 360.921C153.765 360.921 152.724 361.339 152.01 361.176C151.296 361.012 142.263 355.804 142.263 355.804C142.263 355.804 137.959 352.589 135.267 354.725C135.267 354.725 134.075 352.935 133.616 351.817C133.158 350.7 130.76 350.739 130.76 350.739C130.76 350.739 129.81 348.929 126.548 347.341C123.286 345.753 122.094 345.439 121.989 345.224L121.458 345.498L122.428 349.047L120.174 348.132V348.537L117.39 348.975C117.39 348.975 117.351 349.249 117.554 349.524C117.757 349.798 118.537 350.55 118.897 351.216" stroke="#1D1D1B" stroke-miterlimit="10"/>
<path d="M111.089 344.478L114.115 342.93L116.093 347.027L115.366 347.491L111.089 344.478Z" stroke="#1D1D1B" stroke-miterlimit="10"/>
<path d="M141.955 361.463L150.405 367.743C150.405 367.743 144.444 368.841 141.955 361.463Z" stroke="#1D1D1B" stroke-miterlimit="10"/>
<path d="M280.525 398.372C280.525 398.372 289.361 401.751 289.885 402.052C290.409 402.352 291.176 402.627 291.176 402.627C291.176 402.627 293.023 404.822 293.403 405.509L293.593 405.757L293.043 406.358L290.095 404.685L289.296 410.782C289.296 410.782 286.656 410.547 285.831 409.22C285.005 407.894 286.184 408.913 284.56 407.815L275.396 401.117C275.396 401.117 274.518 400.98 275.206 399.719C275.893 398.457 276.169 398.209 276.169 398.209C276.169 398.209 278.73 399.634 279.719 399.529L280.518 398.379L280.525 398.372Z" stroke="#1D1D1B" stroke-miterlimit="10"/>
<path d="M296.881 401.894L300.969 401.339C300.969 401.339 300.144 402.796 299.24 402.829C298.336 402.862 296.881 401.894 296.881 401.894Z" stroke="#1D1D1B" stroke-miterlimit="10"/>
<path d="M78.572 375.167L79.5612 374.638L81.0874 377.84L80.5896 378.206L78.572 375.167Z" stroke="#1D1D1B" stroke-miterlimit="10"/>
<path d="M113.028 412.468C113.028 412.468 113.598 412.906 114.063 412.965C114.528 413.024 114.777 412.697 114.777 412.697C114.777 412.697 115.058 412.22 115.098 411.756C115.137 411.292 115.301 411.096 115.301 411.096L115.7 410.469L118.078 411.456L116.585 412.344C116.585 412.344 116.958 413.115 116.978 413.227L117.443 414.181C117.443 414.181 117.77 414.867 117.744 415.298C117.718 415.729 117.639 416.2 116.997 416.912C116.355 417.625 115.334 418.67 115.334 418.67L118.609 417.056L118.976 417.611L116.506 421.807C116.506 421.807 115.248 422.055 114.168 421.748C113.087 421.441 112.405 420.931 112.405 420.931C112.405 420.931 111.253 419.958 110.886 419.154C110.519 418.35 110.453 418.285 110.401 418.128C110.349 417.971 109.602 417.206 109.261 417.108C108.921 417.01 108.606 416.644 108.606 416.644C108.606 416.644 107.1 418.174 106.877 419.971C106.654 421.768 106.562 422.552 106.654 423.277C106.746 424.003 107.054 425.297 107.977 426.329L106.176 427.238C106.176 427.238 105.966 429.296 105.888 429.584C105.809 429.871 105.285 430.766 104.84 431.315C104.394 431.864 103.281 432.851 103.281 432.851C103.281 432.851 102.233 433.962 101.08 433.563C101.08 433.563 100.32 433.263 100.202 432.479C100.084 431.694 99.2913 431.119 99.2913 431.119C99.2913 431.119 97.1689 428.486 97.0445 428.081L97.634 427.571C97.634 427.571 97.883 427.362 98.2956 427.623L100.261 428.793L101.309 427.898C101.309 427.898 100.595 425.728 100.497 424.78C100.398 423.833 100.261 420.506 100.261 420.506L100.071 415.88C100.071 415.88 100.005 414.632 99.7695 414.135C99.5337 413.638 98.6297 412.841 98.6297 412.841L97.0445 411.906C97.0445 411.906 95.9178 411.384 95.6689 409.972C95.6689 409.972 95.5313 409.763 95.6689 408.423C95.8064 407.084 95.5444 406.365 95.5444 406.365C95.5444 406.365 95.3086 404.646 95.3086 403.594C95.3086 402.542 94.7322 400.117 94.7322 400.117C94.7322 400.117 93.8478 397.451 93.7103 397.19C93.5727 396.928 92.1709 394.347 91.9875 394.184C91.8041 394.02 90.7036 392.772 90.5988 392.373C90.494 391.975 89.4 389.955 89.4 389.955C89.4 389.955 88.614 389.184 89.2363 388.786C89.8586 388.387 91.4962 388.472 91.4962 388.472L88.9939 381.578C88.9939 381.578 90.6577 379.598 90.8477 378.023C91.0377 376.448 91.2669 375.716 91.2735 374.833C91.28 373.951 91.7058 372.527 91.7058 372.527C91.7058 372.527 92.2299 370.246 92.1185 369.847C92.0071 369.449 91.8958 368.9 91.9416 368.566C91.9875 368.233 92.5901 366.247 92.0857 365.763C91.5814 365.279 91.2669 364.907 91.2669 364.907C91.2669 364.907 90.9722 364.632 91.0639 364.325C91.1556 364.018 91.2669 361.803 91.2669 361.803C91.2669 361.803 93.5465 362.43 94.0116 362.691C94.4767 362.953 97.9812 362.561 98.1122 362.495C98.2432 362.43 99.2062 361.737 99.2389 361.607C99.2717 361.476 99.6254 362.195 99.6254 362.195C99.6254 362.195 99.7892 362.731 99.0621 363.142C98.3349 363.554 97.9943 363.757 97.9943 363.757L100.981 364.861L101.27 364.064C101.27 364.064 101.761 365.077 102.377 365.024C102.992 364.972 103.588 363.6 103.588 363.6L105.252 364.9C105.252 364.9 104.709 365.606 104.676 366.037C104.643 366.469 105.252 367.266 105.252 367.266C105.252 367.266 106.051 366.776 106.137 366.148C106.222 365.521 106.065 364.737 106.065 364.737C106.065 364.737 106.189 363.129 106.444 362.874C106.7 362.62 106.805 362.352 108.292 362.711L109.235 362.874L107.787 364.521L108.22 364.704C108.22 364.704 109.327 363.567 110.211 364.43C110.211 364.43 110.807 364.848 111.01 365.26C111.213 365.671 112.55 366.109 112.55 366.109C112.55 366.109 113.454 366.717 114.285 367.338C114.927 367.815 115.524 368.298 115.628 368.514L112.13 369.475C112.13 369.475 113.126 367.756 113.27 367.632C113.414 367.508 113.781 367.161 114.377 367.521C114.973 367.88 115.772 368.632 115.772 368.632C115.772 368.632 114.24 369.677 113.945 372.494C113.65 375.311 113.676 376.245 113.676 376.245C113.676 376.245 114.148 378.656 111.816 378.768L114.259 380.623C114.259 380.623 114.751 384.198 114.908 384.688C115.065 385.178 116.696 389.805 116.631 392.105C116.565 394.406 116.454 395.412 113.231 394.693L113.185 400.006H113.722L112.825 400.986L115.871 406.816L114.24 407.397L115.694 410.482L112.962 411.756L111.148 411.24L109.851 415.017L113.565 414.279L112.962 412.449V411.652" stroke="#1D1D1B" stroke-miterlimit="10"/>
<path d="M119.474 377.604L120.882 373.265C120.882 373.265 122.29 374.728 121.707 375.924C121.124 377.12 119.474 377.604 119.474 377.604V377.604Z" stroke="#1D1D1B" stroke-miterlimit="10"/>
<path d="M131.402 417.2L133.682 422.088C133.682 422.088 131.736 422.754 131.402 419.644C131.068 416.533 131.402 417.2 131.402 417.2Z" stroke="#1D1D1B" stroke-miterlimit="10"/>
<path d="M118.786 436.014L119.794 436.438C119.794 436.438 118.701 440.882 118.072 441.372C117.443 441.862 117.102 441.908 117.102 441.908L116.506 441.124C116.506 441.124 116.192 441.235 116.663 440.431C117.135 439.628 118.786 436.014 118.786 436.014Z" stroke="#1D1D1B" stroke-miterlimit="10"/>
<path d="M102.029 422.297L104.191 423.859L103.844 424.767L102.029 424.872V422.297Z" stroke="#1D1D1B" stroke-miterlimit="10"/>
<path d="M125.277 522.243L125.801 520.557L129.823 518.061C129.823 518.061 134.075 515.212 134.54 514.865C135.005 514.519 141.883 510.742 141.883 510.742L143.802 509.461L144.149 509.984L126.148 522.773L125.277 522.25V522.243Z" stroke="#1D1D1B" stroke-miterlimit="10"/>
<path d="M122.362 523.929L117.351 527.53C117.351 527.53 120.148 527.294 121.373 526.138C122.598 524.981 122.618 524.118 122.585 523.929C122.552 523.739 122.362 523.929 122.362 523.929V523.929Z" stroke="#1D1D1B" stroke-miterlimit="10"/>
<path d="M96.7497 540.404L98.2498 539.842C98.2498 539.842 99.4485 542.064 99.3306 543.377C99.2127 544.691 99.0752 546.324 99.0752 546.324L96.3763 544.593L97.2672 540.639L96.7497 540.404Z" stroke="#1D1D1B" stroke-miterlimit="10"/>
<path d="M48.8981 525.889L49.2583 525.249L52.134 526.752L51.6689 527.576L48.8981 525.889Z" stroke="#1D1D1B" stroke-miterlimit="10"/>
<path d="M35.0962 534.966C35.0962 534.966 36.177 534.43 36.7469 534.43C37.3168 534.43 39.2295 534.071 40.5593 532.208C41.8891 530.346 40.5593 529.019 40.5593 529.019C40.5593 529.019 39.3344 528.732 38.6924 526.686C38.0505 524.641 38.6597 524.464 37.6509 522.563L39.0527 522.739L48.3282 530.954C48.3282 530.954 49.5859 532.568 49.1929 534.973C48.7999 537.378 48.5444 538.665 48.9047 539.887C49.265 541.109 49.4811 541.109 49.9135 541.357C50.3458 541.606 56.274 543.795 56.274 543.795C56.274 543.795 55.9858 541.821 57.3549 541.717C58.7239 541.612 58.8615 541.749 59.6213 541.142C60.3812 540.534 61.3441 539.704 62.1367 539.743C62.9294 539.782 63.2503 539.528 63.2503 539.528C63.2503 539.528 63.8595 539.743 64.2919 540.678C64.7242 541.612 65.0124 542.651 65.0124 542.651C65.0124 542.651 65.3006 543.547 63.8268 544.409L62.4577 545.664C62.4577 545.664 61.3769 545.559 61.128 546.919L60.8397 548.356L62.4905 549.003H70.469C70.469 549.003 76.8296 548.683 77.6222 548.788C78.4148 548.892 87.1139 549.003 87.1139 549.003H125.978C125.978 549.003 127.701 547.03 125.546 545.2C123.391 543.37 123.351 542.22 123.351 542.22L126.227 543.762L126.908 540.462C126.908 540.462 128.487 541.037 129.208 541.037C129.928 541.037 131.978 541.325 131.978 542.651V544.514L134.389 543.089L135.359 544.834L137.121 541.854L133.38 540.096V539.057C133.38 539.057 135.359 538.809 136.007 538.521C136.656 538.234 139.708 539.312 139.708 539.312C139.708 539.312 144.994 540.782 145.715 540.782C146.435 540.782 153.517 541.789 153.517 541.789L155.279 538.384L156.68 539.103C156.68 539.103 156.825 535.986 158.403 535.012C158.403 535.012 159.877 534.94 160.558 534.188C161.24 533.437 161.888 530.457 161.888 530.457L163.329 531.496L159.052 530.849V530.058C159.052 530.058 161.711 528.444 165.845 529.451C165.845 529.451 165.701 528.34 166.061 527.66C166.421 526.98 166.598 524.647 165.524 523.282C164.449 521.916 165.668 519.589 166.781 519.302C167.895 519.014 169.48 517.041 169.48 517.041C169.48 517.041 170.378 516.721 170.921 516.864C171.465 517.008 174.301 515.538 176.024 517.943L176.85 517.975C176.85 517.975 177.642 518.335 177.891 518.367C178.14 518.4 177.603 520.517 177.603 520.517L176.594 519.838L178.317 520.125C178.317 520.125 178.893 519.805 179.326 519.766C179.758 519.727 180.406 519.446 181.193 520.125C181.979 520.805 183.243 522.171 185.11 520.7L177.059 515.283L177.596 514.172L175.657 513.884C175.657 513.884 172.926 510.839 173.751 507.572C173.751 507.572 170.908 505.206 174.649 502.409L175.258 503.807C175.258 503.807 176.908 499.932 177.773 499.684C178.638 499.436 179.607 500.363 179.607 500.363L181.618 502.984L182.228 500.795C182.228 500.795 184.022 503.304 185.536 500.076C185.536 500.076 188.195 502.657 189.02 504.199C189.846 505.742 192.007 505.918 192.007 505.918L192.944 504.232C192.944 504.232 193.337 505.487 193.481 505.735C193.625 505.984 192.8 507.885 191.975 508.643C191.975 508.643 193.16 510.937 193.016 512.447C192.872 513.956 192.152 514.42 192.152 514.42C192.152 514.42 191.686 514.995 192.224 515.603C192.761 516.211 193.665 517.002 193.914 517.106C194.163 517.211 195.315 515.42 195.315 515.42C195.315 515.42 193.481 513.878 195.492 512.407C195.492 512.407 196.678 512.584 197.038 513.59C197.399 514.597 197.687 515.779 197.687 515.779C197.687 515.779 197.903 516.355 197.254 516.819C196.606 517.283 195.709 518.505 195.709 518.505C195.709 518.505 195.276 518.936 196.102 519.511C196.927 520.086 199.193 521.053 199.442 521.556L199.645 521.681L201.879 519.962L202.37 520.413C202.37 520.413 200.248 521.053 201.407 524.687L202.37 521.615H202.737V525.647L206.779 521.949L207.408 522.177L205.75 525.517L208.764 524.458L208.168 525.713L211.05 527.562V527.098L216.618 528.915L212.144 530.3C212.144 530.3 213.834 531.457 214.993 531.856C216.153 532.254 217.247 531.326 217.247 531.326C217.247 531.326 218.111 530.464 218.439 531.359L218.74 532.052C218.74 532.052 224.78 534.443 225.389 534.496C225.998 534.548 229.896 535.554 230.76 536.116C231.625 536.678 235.83 537.58 236.741 537.534C237.652 537.489 238.818 537.587 239.885 538.397C240.953 539.207 242.872 539.358 243.383 537.639L246.423 539.103C246.423 539.103 248.047 539.965 250.373 539.965C252.698 539.965 254.074 541.129 254.074 541.129C254.074 541.129 256.052 542.292 258.987 542.089C261.921 541.887 261.974 542.795 261.974 542.795C261.974 542.795 262.838 544.311 265.367 543.351L267.09 544.409V543.854C267.09 543.854 269.317 544.207 270.588 544.154C271.858 544.102 272.972 543.396 273.529 543.952C274.086 544.507 273.882 545.572 275.048 545.925L274.341 547.696C274.341 547.696 277.839 546.991 283.158 547.899C283.158 547.899 285.844 548.304 287.265 547.899C288.687 547.494 291.32 547.141 291.32 547.141L289.8 548.99L296.338 548.605L296.135 535.26L296.999 535.11C296.999 535.11 297.353 535.816 297.608 536.371C297.864 536.927 297.661 538.953 297.608 539.756C297.556 540.56 298.165 547.801 298.827 548.99L422.946 549.16C422.946 549.16 422.894 549.781 422.481 549.931C422.068 550.082 33.2162 549.931 33.2162 549.931C33.2162 549.931 33 549.356 33 549.095L51.7083 548.944C51.7083 548.944 52.2323 549.075 52.5664 548.873C52.9005 548.67 54.9443 546.625 55.1146 545.827C55.2849 545.03 52.2847 543.566 52.2847 543.566C52.2847 543.566 47.3194 542.044 46.4089 541.227C45.4984 540.41 43.8018 539.168 43.5267 538.724C43.2516 538.279 41.1816 537.293 40.9589 537.293C40.7362 537.293 38.581 535.973 38.188 535.456L35.2272 535.678L35.0962 534.966V534.966Z" stroke="#1D1D1B" stroke-miterlimit="10"/>
<path d="M152.56 548.475L160.139 546.436C160.139 546.436 161.063 546.031 161.836 546.436C162.609 546.841 163.034 547.782 163.034 547.782C163.034 547.782 162.419 548.743 162.052 548.802C161.685 548.86 152.567 548.802 152.567 548.802V548.475H152.56Z" stroke="#1D1D1B" stroke-miterlimit="10"/>
<path d="M194.929 526.941L196.691 529.255C196.691 529.255 195.689 529.738 195.479 529.98C195.27 530.222 193.265 529.327 194.929 526.948V526.941Z" stroke="#1D1D1B" stroke-miterlimit="10"/>
<path d="M186.774 522.393C186.774 522.393 187.985 525.184 188.988 525.876C189.99 526.569 192.407 527.425 192.407 527.425C192.407 527.425 192.997 527.321 193.376 526.772C193.756 526.223 192.997 525.876 192.997 525.876C192.997 525.876 190.16 525.151 190.645 523.047C190.645 523.047 190.782 521.772 186.774 522.393V522.393Z" stroke="#1D1D1B" stroke-miterlimit="10"/>
<path d="M187.088 539.253C187.088 539.253 193.285 536.358 194.281 536.319C195.276 536.28 201.774 534.078 201.774 534.078C201.774 534.078 203.608 532.973 204.886 534.078C206.163 535.182 205.993 535.731 205.993 535.731L200.635 536.143L200.425 536.626L212.694 538.835C212.694 538.835 212.622 540.351 213.729 540.319C213.729 540.319 215.386 539.489 215.596 540.149C215.596 540.149 214.731 541.253 214.731 541.907C214.731 542.56 215.943 543.116 215.943 543.116C215.943 543.116 217.6 543.462 217.876 543.704C218.151 543.946 219.395 544.632 219.395 544.632V545.325H217.496C217.496 545.325 213.729 544.808 212.072 544.253C210.414 543.697 209.373 542.286 209.373 542.286L203.707 542.456C203.707 542.456 202.462 542.835 202.292 543.148C202.122 543.462 201.257 544.357 200.53 543.181L200.425 542.181C200.425 542.181 200.497 543.423 199.213 543.351C197.929 543.279 198.833 542.763 197.137 542.939L198.067 544.834C198.067 544.834 193.468 544.285 192.119 543.665C190.769 543.044 187.075 539.253 187.075 539.253H187.088Z" stroke="#1D1D1B" stroke-miterlimit="10"/>
</g>
<defs>
<clipPath id="clip0_150_1516">
<rect width="389.94" height="550.174" fill="white" transform="translate(33)"/>
</clipPath>
</defs>
</svg>
