<svg width="674" height="777" viewBox="0 0 674 777" fill="none" xmlns="http://www.w3.org/2000/svg">
<path d="M478.037 287.335C480.623 288.565 483.054 290.073 485.289 291.832C506.488 308.8 519.79 309.026 519.947 381.957C519.947 381.957 517.685 432.09 550.192 474.967C561.385 489.415 567.913 507.006 568.979 525.595C569.634 539.202 567.474 552.946 562.631 565.992C561.344 569.471 559.352 577.126 557.861 580.427C547.233 603.238 524.149 674.369 401.316 677.894L399.53 677.957C394.111 678.252 355.717 678.347 345.351 623.226C335.901 573.142 280.078 562.699 262.967 560.62C257.67 559.931 252.263 559.97 246.898 560.737C228.684 562.748 210.45 560.962 193.381 555.495C176.311 550.027 160.787 541.001 147.815 529C134.842 517 124.712 502.294 118.08 485.836C111.449 469.378 108.465 451.536 109.321 433.467L109.369 432.468C110.944 399.368 112.943 379.899 101.317 361.622C89.691 343.345 72.7476 302.829 148.97 231.529C225.193 160.229 336.542 168.893 336.542 168.893C336.542 168.893 387.072 174.056 410.119 216.023C414.464 224.112 419.42 231.841 424.949 239.148C436.684 254.32 456.418 276.622 478.037 287.335Z" fill="#FF5527"/>
<g opacity="0.5" clip-path="url(#clip0_150_1519)">
<path d="M151.893 243.474C151.893 243.474 153.42 239.586 156.636 239.925C159.852 240.265 163.579 241.023 163.579 241.023L162.623 241.559L166.717 243.16C166.717 243.16 166.914 243.879 166.193 244.317C165.374 244.82 164.038 244.48 164.038 244.48C162.086 243.977 160.068 243.801 158.097 243.369C156.675 243.062 154.605 242.866 151.887 243.467L151.893 243.474Z" stroke="#1D1D1B" stroke-miterlimit="10"/>
<path d="M167.149 242.252C167.149 242.252 168.093 243.324 170.464 242.716C170.464 242.716 171.158 242.076 174.479 242.905L180.991 243.945C180.991 243.945 182.713 244.284 183.735 244.605C184.757 244.925 186.113 245.252 186.113 245.252V246.029L179.274 246.441L184.639 250.649L181.364 251.793C181.364 251.793 181.2 249.957 178.908 249.584L176.615 249.218C176.615 249.218 175.593 249.382 175.141 251.427C174.689 253.472 172.888 254.002 172.481 254.041C172.075 254.08 170.025 254.204 169.861 254.041C169.861 254.041 167.464 252.937 166.756 252.081C166.756 252.081 165.931 250.689 165.885 250.244L162.118 252.002V252.368L164.902 253.923C164.902 253.923 161.955 256.25 160.481 253.557C160.481 253.557 159.741 252.126 161.712 249.878C161.712 249.878 163.474 247.996 167.654 247.303C171.833 246.611 176.458 246.16 176.458 246.16C176.458 246.16 171.217 244.605 168.636 245.016C166.055 245.428 166.75 242.99 167.162 242.265L167.149 242.252Z" stroke="#1D1D1B" stroke-miterlimit="10"/>
<path d="M181.79 252.08L185.071 253.452C185.071 253.452 183.617 256.753 178.344 257.844C178.344 257.844 175.567 257.87 174.591 258.177C173.615 258.484 170.3 257.615 170.3 257.615V256.89C170.3 256.89 181.069 255.191 181.79 252.08V252.08Z" stroke="#1D1D1B" stroke-miterlimit="10"/>
<path d="M210.579 243.859L206.046 246.604L206.367 247.016H208.935C208.935 247.016 207.193 249.166 209.485 249.989C211.778 250.813 215.394 250.813 215.394 250.813C215.394 250.813 219.468 250.538 220.752 249.577C222.036 248.617 222.311 248.846 221.486 246.055C221.486 246.055 219.423 246.97 218.23 248.159C217.038 249.349 213.999 248.251 213.999 248.251C213.999 248.251 212.047 248.114 210.579 243.866V243.859Z" stroke="#1D1D1B" stroke-miterlimit="10"/>
<path d="M219.553 239.657C219.553 239.657 226.425 236.776 230.735 237.279C230.735 237.279 230.467 238.507 230.735 239.246C231.004 239.984 230.683 241.017 229.726 241.115C229.726 241.115 228.515 241.363 228.397 241.435C228.279 241.507 228.148 241.533 226.864 240.847C225.58 240.161 221.112 239.788 220.222 240.357L219.56 239.657H219.553Z" stroke="#1D1D1B" stroke-miterlimit="10"/>
<path d="M217.313 251.989V252.707L216.547 253.328H222.6C222.6 253.328 223.654 253.76 224.041 254.335C224.041 254.335 226.445 253.139 226.923 255.583C226.923 255.583 227.788 257.785 228.266 258.792C228.266 258.792 228.652 260.419 228.842 260.759C229.032 261.098 228.842 262.771 227.499 262.726C227.499 262.726 227.021 262.438 226.536 266.797L225.672 272.881C225.672 272.881 223.51 272.659 222.305 274.9C221.099 277.142 219.567 278.736 218.427 278.704C217.287 278.671 215.754 277.959 215.754 277.959L212.852 276.658C212.852 276.658 211.418 276.233 210.606 276.462C210.606 276.462 211.293 273.763 212.007 272.986C212.721 272.208 213.638 271.326 213.802 269.568C213.966 267.81 214.064 266.444 211.621 263.131C211.621 263.131 211.85 261.798 211.228 260.922C210.606 260.046 207.481 253.733 207.481 253.733C207.481 253.733 206.957 252.159 209.112 251.989C211.267 251.819 217.326 251.989 217.326 251.989H217.313Z" stroke="#1D1D1B" stroke-miterlimit="10"/>
<path d="M196.64 287.65L200.57 287.912V289.304L196.64 288.742V287.65Z" stroke="#1D1D1B" stroke-miterlimit="10"/>
<path d="M180.951 293.447L185.15 293.754C185.15 293.754 185.583 293.532 186.093 294.715C186.093 294.715 185.497 295.225 185.131 295.225C184.764 295.225 180.814 294.336 180.814 294.336L180.958 293.447H180.951Z" stroke="#1D1D1B" stroke-miterlimit="10"/>
<path d="M215.073 320.659C215.073 320.659 218.584 317.156 222.528 321.763L215.073 320.659Z" stroke="#1D1D1B" stroke-miterlimit="10"/>
<path d="M220.759 328.782C220.759 328.782 223.248 327.279 223.425 327.24C223.602 327.2 225.41 325.475 222.966 324.077C220.523 322.678 218.289 322.456 218.289 322.456C218.289 322.456 215.944 322.175 215.178 322.815C214.411 323.456 215.178 324.56 215.178 324.56C215.178 324.56 215.636 325.181 216.56 325.763C217.484 326.344 220.752 328.788 220.752 328.788L220.759 328.782Z" stroke="#1D1D1B" stroke-miterlimit="10"/>
<path d="M130.44 241.644C130.44 241.644 131.704 242.8 131.914 244.173C131.914 244.173 134.049 244.565 134.259 247.303C134.469 250.041 135.235 250.91 135.235 250.91L136.028 252.492C136.028 252.492 133.604 253.544 130.434 249.492C127.263 245.44 127.112 245.016 127.374 243.493C127.636 241.97 130.434 241.65 130.434 241.65L130.44 241.644Z" stroke="#1D1D1B" stroke-miterlimit="10"/>
<path d="M222.796 205.244C223.733 204.957 224.624 204.094 224.624 204.094C226.026 203.16 224.48 202.676 224.48 202.676L216.115 201.363C216.56 202.395 218.224 203.735 218.224 203.735C220.942 205.702 222.711 205.251 222.711 205.251L223.078 206.323C223.563 207.577 223.857 207.551 223.857 207.551L236.343 215.236L236.113 215.7L228.593 212.113L227.781 214.243L224.113 213.916L225.731 217.857L228.069 218.733L228.534 220.111C228.737 221.137 229.425 221.902 230.683 221.843C231.941 221.784 232.314 221.98 232.314 221.98L227.06 223.072L225.777 222.974L225.174 223.928L223.995 224.353L223.268 224.3L223.065 224.928L223.504 225.529L223.654 226.078C223.674 227.025 223.792 228.332 223.792 228.332C224.106 230.221 227.414 230.188 227.414 230.188C226.831 231.665 224.545 233.319 224.545 233.319C219.934 235.599 215.407 238.416 213.796 239.756C212.184 241.095 210.527 242.252 210.527 242.252C210.527 242.252 208.555 243.101 206.944 244.219C205.332 245.336 202.018 250.029 201.12 251.323C200.223 252.616 199.784 254.485 199.568 256.217C199.352 257.949 200.472 260.471 200.675 261.014C200.878 261.556 200.76 262.955 200.76 262.955C200.95 264.177 200.537 265.314 200.537 265.314C199.823 267.431 201.409 268.046 201.409 268.046C200.917 269.287 201.848 271.104 201.848 271.104C201.848 271.104 202.771 272.796 202.535 273.104C202.3 273.411 202.28 274.724 202.28 274.724C202.437 277.031 204.278 279.083 204.756 280.044C205.234 281.004 204.998 281.344 204.998 281.344L204.736 281.501C204.736 281.501 203.747 282.037 203.577 283.128C203.407 284.22 203.852 285.644 203.904 286.076C203.957 286.507 203.577 287.402 203.577 287.402L209.977 289.611C209.485 290.023 199.614 292.944 199.614 292.944C197.17 293.891 195.913 293.251 195.913 293.251C192.88 292.277 186.526 293.61 186.526 293.61C186.526 293.61 187.554 294.506 188.812 295.231C190.07 295.956 191.373 295.839 192.041 295.662C192.71 295.486 194.485 296.048 194.485 296.048C195.926 296.584 200.865 295.532 200.865 295.532C201.428 295.198 202.175 295.636 202.175 295.636L203.819 296.512L202.968 297.126L206.597 297.714C206.597 297.714 205.49 298.969 204.848 299.485C204.206 300.002 204.022 301.616 204.566 302.361C205.11 303.106 206.086 308.543 206.086 308.543C207.271 308.21 208.3 306.929 208.3 306.929L220.674 289.317C220.674 289.317 220.955 288.683 221.702 288.324C222.449 287.964 222.809 289.317 222.809 289.317C222.809 289.317 222.966 291.454 223.248 296.1C223.53 300.747 223.713 300.76 223.713 300.76C223.713 300.76 223.942 303.452 220.346 303.733C216.75 304.014 210.776 308.17 208.876 310.379C206.977 312.588 204.789 312.457 204.376 312.379C203.963 312.3 202.601 312.248 202.188 312.202C201.775 312.157 200.079 312.379 199.306 312.536C198.533 312.693 198.743 312.738 198.382 313.692C198.022 314.646 198.356 314.973 198.356 314.973L204.363 323.789L204.573 323.848C205.051 325.155 206.361 327.416 207.841 328.416C209.322 329.416 210.239 331.461 210.239 331.461V332.245C210.239 332.245 208.758 332.552 207.579 332.422C206.4 332.291 206.4 332.598 206.4 332.598C204.697 333.944 201.382 332.598 201.382 332.598C201.382 332.598 197.111 331.03 196.234 331.121C195.356 331.213 193.528 330.553 193.528 330.553L188.773 327.769C188.773 327.769 188.511 325.2 186.244 323.247C183.978 321.293 183.454 318.94 183.454 318.94H184.633C184.633 318.94 184.855 318.443 184.6 317.888C184.345 317.332 183.303 315.222 183.152 315.071C183.002 314.921 181.685 312.608 180.735 311.843L177.46 308.294L174.493 306.086L165.898 300.315C165.898 300.315 159.564 295.649 159.151 295.172C159.151 295.172 153.852 290.134 153.295 289.474C152.738 288.814 147.655 283.259 146.672 280.893C146.672 280.893 144.406 276.129 144.046 275.116C143.685 274.103 140.744 265.471 140.744 265.471L139.048 260.857C139.048 260.857 138.353 259.537 137.423 259.04C136.493 258.544 132.818 256.387 131.665 254.538C130.512 252.688 129.497 250.231 129.497 250.231C129.497 250.231 129.143 249.074 128.141 248.343C127.139 247.611 125.016 243.52 125.252 241.579C125.252 241.579 125.233 238.998 125.128 238.625C125.023 238.253 124.787 236.168 125.036 235.704C125.285 235.24 124.82 233.41 124.82 233.41C124.82 233.41 123.765 230.829 123.857 230.528C123.857 230.528 125.75 230.103 128.482 232.116C131.213 234.129 133.034 234.521 133.283 234.521C133.532 234.521 135.602 231.796 135.694 230.371C135.785 228.947 136.211 228.306 136.676 227.895C137.141 227.483 137.764 226.561 137.744 226.222C137.724 225.882 137.921 225.366 136.336 224.477C134.75 223.588 135.785 224.529 134.908 223.412L137.246 223.464L136.283 222.183C136.283 222.183 137.783 217.216 138.799 215.576C139.814 213.936 141.871 213.119 141.871 213.119C141.871 213.119 143.816 212.433 144.282 210.976C144.282 210.976 144.53 210.139 144.511 209.943L139.493 210.315C139.493 210.315 140.312 207.538 140.332 207.251C140.351 206.963 140.495 205.414 141.74 205.022C141.74 205.022 143.436 204.774 143.934 204.473L146.201 203.264L149.325 206.205L150.649 206.898L152.935 205.493C152.935 205.493 154.31 204.297 154.468 203.963C154.625 203.63 156.02 203.127 156.878 203.232C157.736 203.336 160.946 204.46 160.946 204.46C160.946 204.46 163.357 203.584 164.32 203.715C165.282 203.846 165.374 204.003 165.374 204.003L165.518 203.807L163.678 201.513C163.678 201.513 165.748 200.944 165.911 200.892C166.075 200.84 167.713 200.572 168.466 200.663C169.219 200.755 171.538 200.52 171.748 200.415C171.957 200.31 172.979 199.918 173.32 199.65C173.661 199.382 175.816 198.585 177.748 198.775C179.681 198.964 182.32 198.938 183.192 199.115C184.063 199.291 189.061 200.023 189.061 200.023C189.061 200.023 193.614 199.794 194.039 199.879C194.465 199.964 196.987 200.075 196.987 200.075C196.987 200.075 198.86 200.056 199.627 197.598L203.217 198.794L205.824 197.834L205.66 198.174L205.267 197.762C205.267 197.762 204.573 197.533 204.304 196.782C204.035 196.03 203.839 195.481 203.839 195.481L204.769 195.233C204.769 195.233 205.267 195.089 205.824 195.481C206.38 195.873 209.623 197.618 209.623 197.618C209.623 197.618 210.232 198.082 211.392 197.814C211.392 197.814 211.215 199.291 212.767 200.52C214.32 201.748 215.944 201.376 215.944 201.376C215.944 201.376 220.425 200.879 221.781 200.879C221.781 200.879 223.065 200.97 224.014 201.251C224.964 201.532 225.475 201.343 225.475 201.343C225.475 201.343 226.117 201.323 226.366 201.467C226.366 201.467 224.689 201.5 224.565 202.591L224.545 202.676V202.696" stroke="#1D1D1B" stroke-miterlimit="10"/>
<path d="M225.737 217.857L228.456 216.399L229.517 218.223L228.711 219.778L228.541 220.111" stroke="#1D1D1B" stroke-miterlimit="10"/>
<path d="M228.076 218.732L228.711 219.778" stroke="#1D1D1B" stroke-miterlimit="10"/>
<path d="M223.608 226.156L228.967 223.908L228.187 223.039L227.067 223.072L226.392 223.908L225.573 224.307L224.335 224.699L224.368 225.143L224.375 225.209L223.949 224.699L223.274 224.294" stroke="#1D1D1B" stroke-miterlimit="10"/>
<path d="M225.2 225.568L225.056 225.47L224.362 225.071" stroke="#1D1D1B" stroke-miterlimit="10"/>
<path d="M223.923 224.294L224.408 224.771H223.923V224.294Z" stroke="#1D1D1B" stroke-miterlimit="10"/>
<path d="M225.18 223.921L225.573 224.306" stroke="#1D1D1B" stroke-miterlimit="10"/>
<path d="M225.783 222.967L226.012 223.522L226.392 223.908" stroke="#1D1D1B" stroke-miterlimit="10"/>
<path d="M270.831 240.723L262.171 241.794L264.28 242.167L264.326 242.546L257.769 244.448L257.92 244.846L258.752 245.121C258.752 245.121 255.031 246.5 252.621 248.231C250.21 249.963 246.09 252.669 246.09 252.669C246.09 252.669 247.118 253.871 245.841 255.178C244.563 256.485 242.526 258.086 241.517 260.393C241.517 260.393 236.565 268.738 236.565 268.941C236.565 269.143 234.96 272.626 234.528 275.306C234.096 277.985 233.323 281.697 233.323 283.756C233.323 285.814 233.093 286.435 233.526 289.095C233.958 291.754 236.618 299.172 238.373 301.929C238.373 301.929 238.904 303.034 238.701 303.831C238.701 303.831 237.115 304.256 236.166 306.386C235.216 308.517 234.102 311.797 234.102 311.797C234.102 311.797 233.421 313.274 233.827 316.156C233.827 316.156 234.004 317.358 235.183 319.24C236.362 321.123 239.251 325.808 239.251 325.808L239.755 325.481L239.375 322.449L239.775 322.22L242.035 324.704C242.035 324.704 244.295 324.129 242.814 321.619C241.334 319.11 240.43 317.835 240.43 317.835C240.43 317.835 239.926 317.26 239.854 316.084C239.854 316.084 243.142 317.914 243.797 318.293C244.452 318.672 245.081 319.169 245.081 319.169C245.081 319.169 246.312 319.92 247.013 318.293C247.013 318.293 247.668 315.287 246.234 314.509C244.799 313.731 242.841 310.752 242.841 310.752C242.841 310.752 243.07 312.705 244.275 314.058L246.941 318.045C246.941 318.045 247.898 318.345 248.199 318.646C248.5 318.946 254.782 327.246 254.959 327.671C255.136 328.095 257.822 331.931 258.503 332.382C259.184 332.833 264.732 337.192 264.732 337.192C264.732 337.192 267.549 339.349 268.303 340.322C269.056 341.296 273.628 344.812 274.584 344.962C274.584 344.962 279.989 347.772 282.425 348.092C284.862 348.413 290.79 350.197 290.79 350.197C290.79 350.197 298.553 352.451 301.92 352.451C305.287 352.451 311.968 351.922 313.102 351.399C313.102 351.399 323.275 348.994 325.489 347.818C327.703 346.642 329.511 346.714 331.495 344.812C331.495 344.812 332.753 343.485 334.057 343.211C335.36 342.936 342.651 337.244 342.651 337.244L341.649 335.839L342.651 334.238C342.651 334.238 340.214 333.036 341.446 329.527L339.16 327.148C339.16 327.148 337.856 326.37 338.079 322.234L336.598 322.057L337.05 321.73L335.491 319.025C335.491 319.025 334.509 317.319 333.054 316.169C331.6 315.019 330.113 311.81 330.29 310.582C330.29 310.582 330.113 308.804 330.945 306.445C330.945 306.445 328.711 305.942 328.384 305.844C328.056 305.746 326.904 305.517 326.072 306.295C326.072 306.295 324.696 307.085 324.493 307.112C324.29 307.138 323.091 307.634 323.091 307.634C323.091 307.634 321.899 307.83 321.63 307.83C321.362 307.83 318.211 308.399 318.211 308.399C318.211 308.399 316.18 308.386 315.813 308.144C315.813 308.144 315.021 307.915 315.021 307.817C315.021 307.719 314.34 307.549 313.802 307.817C313.802 307.817 313.265 307.83 312.997 307.778C312.997 307.778 310.501 307.837 309.355 307.085C308.208 306.334 306.577 304.994 306.577 304.994L304.763 303.367C304.763 303.367 304.468 303.125 304.324 302.831C304.18 302.537 302.765 300.622 302.765 300.622L300.669 297.695L298.54 294.682C298.54 294.682 296.529 291.767 296.424 291.571C296.319 291.375 295.088 289.238 295.009 288.585C294.93 287.931 294.426 285.938 294.714 284.932L293.168 284.906C293.168 284.906 295.454 283.847 293.398 282.089C291.341 280.331 290.162 279.514 290.162 279.514C290.162 279.514 287.62 277.377 285.242 277.913C282.864 278.449 281.967 279.057 281.967 279.057C281.967 279.057 283.113 273.156 283.526 272.195C283.939 271.234 285.622 269.477 287.712 269.66L287.751 268.444L289.369 268.555C289.369 268.555 290.391 269.562 291 269.503C291.609 269.444 293.352 269.078 293.653 268.764C293.954 268.451 293.692 267.66 293.692 267.66L293.568 266.738C293.568 266.738 293.24 265.392 293.443 264.713C293.647 264.033 294.026 262.791 294.026 262.791L298.396 263.131C298.396 263.131 297.97 265.719 298.664 266.484C299.359 267.248 300.466 267.915 300.466 267.915C300.466 267.915 298.723 269.856 298.933 271.62C299.142 273.385 299.385 273.855 299.738 274.352C300.092 274.848 300.859 275.58 301.225 275.822C301.592 276.064 302.103 276.332 302.457 277.436C302.457 277.436 302.883 279.063 302.896 279.658C302.909 280.253 303.531 280.959 303.721 281.115C303.911 281.272 305.195 281.88 305.195 281.88C305.195 281.88 305.975 282.148 306.499 283.226C307.023 284.304 307.337 285.023 307.914 285.363C308.49 285.703 308.693 286.03 309.433 285.912C310.173 285.794 310.698 284.906 310.698 284.906C310.698 284.906 311.791 283.873 312.086 283.873C312.381 283.873 313.167 282.828 313.167 282.828C313.167 282.828 314.032 281.71 315.479 281.527C316.927 281.344 318.643 280.906 318.742 280.834C318.84 280.762 319.253 280.455 320.058 280.861C320.864 281.266 321.421 281.494 321.421 281.494L321.617 281.213L319.56 280.24L322.128 279.606C322.128 279.606 322.823 281.475 324.906 281.331C324.906 281.331 325.967 281.135 326.576 280.736C327.185 280.338 328.292 280.253 328.803 280.566C329.314 280.88 330.022 282.279 330.022 282.279L334.063 283.847L329.183 284.782C329.183 284.782 332.616 287.683 334.319 288.023C334.319 288.023 335.026 288.448 336.061 288.252C337.096 288.056 336.756 286.017 336.756 286.017C336.756 286.017 337.083 284.501 339.153 284.729C339.153 284.729 342.697 285.834 343.037 285.847L341.59 286.964C341.59 286.964 341.492 287.121 341.819 287.232C342.147 287.343 343.293 288.036 343.293 288.036C343.293 288.036 343.843 288.415 343.535 288.944C343.227 289.474 342.782 289.565 342.782 289.565C342.782 289.565 340.895 290.016 339.821 289.323C338.747 288.631 338.262 288.01 338.262 288.01C338.262 288.01 336.985 286.271 336.873 286.141C336.762 286.01 336.821 286.075 336.821 286.075" stroke="#1D1D1B" stroke-miterlimit="10"/>
<path d="M327.12 277.351L329.406 276.979C329.406 276.979 329.956 278.521 329.406 279.07C328.856 279.619 326.707 279.488 326.707 279.488C326.707 279.488 327.88 278.906 328.063 278.606C328.246 278.305 328.011 277.893 327.12 277.344V277.351Z" stroke="#1D1D1B" stroke-miterlimit="10"/>
<path d="M313.265 289.48V290.304L314.281 294.806C314.281 294.806 310.501 294.48 310.056 293.042C309.61 291.604 310.029 291.088 310.671 290.618C311.313 290.147 313.272 289.487 313.272 289.487L313.265 289.48Z" stroke="#1D1D1B" stroke-miterlimit="10"/>
<path d="M313.39 296.42L321.644 295.087C321.644 295.087 320.491 296.668 318.146 297.283C315.8 297.897 313.39 296.42 313.39 296.42V296.42Z" stroke="#1D1D1B" stroke-miterlimit="10"/>
<path d="M275.063 283.905C275.063 283.905 275.908 282.736 276.196 282.363C276.484 281.991 277.061 281.252 278.626 281.252C280.192 281.252 280.644 281.089 280.644 281.089C280.644 281.089 280.585 283.389 279.019 284.396C277.454 285.402 276.504 285.056 276.504 285.056C276.504 285.056 275.43 284.376 275.063 283.905Z" stroke="#1D1D1B" stroke-miterlimit="10"/>
<path d="M258.981 274.358L271.774 266.131C271.774 266.131 273.726 264.739 273.805 264.582C273.884 264.425 274.165 263.87 275.875 265.098L278.783 266.686C278.783 266.686 276.032 268.633 275.757 269.071C275.482 269.509 272.128 271.058 271.892 271.019C271.656 270.98 268.787 271.934 268.388 272.293C267.988 272.653 264.962 273.685 264.405 273.842C263.848 273.999 259.427 275.09 259.427 275.09L258.988 274.358H258.981Z" stroke="#1D1D1B" stroke-miterlimit="10"/>
<path d="M286.893 255.316L287.214 256.688L286.284 257.008C286.284 257.008 285.76 256.989 285.491 256.825C285.223 256.662 283.69 256.42 283.022 257.511C282.354 258.603 280.572 261.955 280.572 261.955L281.24 263.007L284.22 263.393L282.963 264.099L283.107 264.504L286.873 263.288L285.498 262.7C285.498 262.7 286.186 262.177 286.205 262.073C286.225 261.968 287.397 261.589 287.397 261.589C287.397 261.589 289.304 260.596 290.457 259.328C291.609 258.06 291.852 257.348 291.957 257.087C292.061 256.825 292.363 255.368 290.679 255.087L286.893 255.309V255.316Z" stroke="#1D1D1B" stroke-miterlimit="10"/>
<path d="M278.017 263.353C278.017 263.353 278.535 262.464 278.58 262.386C278.626 262.308 279.137 261.563 279.242 261.523C279.347 261.484 279.432 261.393 279.825 261.628C280.218 261.863 280.716 262.079 280.716 262.079L280.244 262.157L281.371 262.987C281.371 262.987 281.292 263.948 280.762 264.17C280.231 264.392 279.373 263.967 279.373 263.967L278.024 263.36L278.017 263.353Z" stroke="#1D1D1B" stroke-miterlimit="10"/>
<path d="M289.343 268.529V268.476L289.598 266.117L293.437 266.738C293.483 266.745 293.509 266.751 293.509 266.751" stroke="#1D1D1B" stroke-miterlimit="10"/>
<path d="M281.469 244.363L288.203 244.801L288.111 245.213L285.491 245.592L289.356 249.728C289.356 249.728 288.38 249.807 288.111 249.885C287.843 249.963 287.81 250.12 286.899 249.395C285.989 248.67 284.849 247.931 284.849 247.931C284.849 247.931 282.877 246.088 282.497 245.036C282.497 245.036 281.534 244.657 281.476 244.356L281.469 244.363Z" stroke="#1D1D1B" stroke-miterlimit="10"/>
<path d="M270.634 240.722L265.708 236.004L265.931 235.533L268.754 236.612L268.669 236.755L272.036 235.533L275.108 233.645L275.488 233.553L276.189 232.972L278.554 233.769L279.877 233.782L281.816 231.652L281.404 231.22C281.404 231.22 280.604 231.828 280.414 231.874C280.224 231.92 279.635 231.926 279.262 231.789C278.888 231.652 278.554 231.586 278.554 231.586L277.991 231.148L279.052 230.534L280.493 229.868L278.2 228.005L277.349 225.594L275.901 225.718C275.901 225.718 275.449 226.744 275.246 226.979C275.043 227.214 274.781 227.175 274.781 227.175C274.781 227.175 273.936 227.28 273.844 228.149C273.753 229.018 274.021 229.613 274.021 229.613L274.702 230.103L274.467 230.24L274.27 230.351L274.06 229.691C274.06 229.691 273.563 228.502 273.346 228.299C273.13 228.097 272.285 226.698 270.536 226.613L268.368 228.456L271.047 232.331L274.132 230.404L274.814 230.044L275.698 229.959L276.772 230.064L276.969 232.168L275.063 232.063L274.683 230.155" stroke="#1D1D1B" stroke-miterlimit="10"/>
<path d="M278.168 228.031L277.146 228.489L277.237 228.417L276.517 228.43L276.759 229.443L276.726 230.116H277.218L276.766 229.462" stroke="#1D1D1B" stroke-miterlimit="10"/>
<path d="M277.152 228.541V229.946L277.218 230.168L277.965 231.103" stroke="#1D1D1B" stroke-miterlimit="10"/>
<path d="M280.152 229.646L280.093 229.574C280.093 229.574 279.471 229.437 279.059 229.607C278.646 229.776 279.098 230.508 279.098 230.508" stroke="#1D1D1B" stroke-miterlimit="10"/>
<path d="M278.561 231.646L277.807 232.201L276.897 232.116L278.587 233.802" stroke="#1D1D1B" stroke-miterlimit="10"/>
<path d="M275.187 233.691L271.001 232.253C271.001 232.253 271.283 232.273 270.68 233.854C270.078 235.435 271.532 235.488 271.532 235.488H272.128" stroke="#1D1D1B" stroke-miterlimit="10"/>
<path d="M279.74 233.802C279.74 233.802 280.539 233.567 281.679 233.802C282.818 234.037 284.129 234.318 284.129 234.318C284.129 234.318 285.105 234.495 285.707 234.423C286.31 234.351 286.978 234.181 287.293 233.972C287.293 233.972 287.345 233.841 287.686 233.998L288.793 234.214L291.799 234.789C291.799 234.789 293.633 235.043 293.869 235.05C294.105 235.057 294.767 235.07 295.566 234.743C296.365 234.416 297.066 234.115 297.066 234.115L296.974 233.553L294.95 232.338C294.95 232.338 294.367 231.292 294.367 231.116C294.367 230.94 293.686 230.175 293.404 229.985C293.123 229.796 291.865 228.62 291.865 228.62L290.319 227.273L289.074 226.136L287.725 224.784C287.725 224.784 286.651 223.856 285.773 223.777C284.895 223.699 284.725 223.725 284.725 223.725" stroke="#1D1D1B" stroke-miterlimit="10"/>
<path d="M277.257 225.6L278.574 225.156L279.668 224.921L280.283 224.365L280.637 224.307H281.993L286.002 223.535L284.247 220.876C284.247 220.876 282.982 219.124 282.871 219.039C282.76 218.954 282.38 218.347 282.046 218.242C281.711 218.138 280.323 217.014 280.323 217.014C280.323 217.014 280.126 217.608 279.569 217.778C279.569 217.778 279.124 217.817 278.633 217.412C278.141 217.007 277.748 216.961 277.748 216.961L277.526 215.53L278.829 214.021L280.349 217.085" stroke="#1D1D1B" stroke-miterlimit="10"/>
<path d="M280.303 224.418L278.358 223.059L278.233 223.098C278.233 223.098 276.53 222.444 276.432 222.438C276.432 222.438 275.469 222.202 275.384 222.202C275.299 222.202 272.272 221.68 272.272 221.68L272.711 222.771L275.089 224.66L278.174 223.13" stroke="#1D1D1B" stroke-miterlimit="10"/>
<path d="M275.908 225.673L275.122 224.601C275.122 224.601 273.477 224.176 273.353 224.124C273.229 224.072 272.58 223.837 272.397 223.706C272.213 223.575 270.635 222.667 270.635 222.667L271.624 221.432L271.663 221.445L272.325 221.713" stroke="#1D1D1B" stroke-miterlimit="10"/>
<path d="M270.569 226.673L268.774 225.163L266.809 224.104L267.313 223.065L268.008 223.02L268.08 223.078L268.06 223.941L269.488 223.836L268.8 225.117" stroke="#1D1D1B" stroke-miterlimit="10"/>
<path d="M267.851 224.601L268.145 223.882H267.608L267.877 224.633" stroke="#1D1D1B" stroke-miterlimit="10"/>
<path d="M267.3 223.02L267.713 223.928L266.809 224.104" stroke="#1D1D1B" stroke-miterlimit="10"/>
<path d="M268.473 223.065H269.383L269.351 223.902L268.879 223.915L268.473 223.065Z" stroke="#1D1D1B" stroke-miterlimit="10"/>
<path d="M269.102 220.993L268.054 222.79L268.008 223.019L268.08 223.078L268.558 223.143L268.473 222.627L269.383 222.692L269.102 220.993Z" stroke="#1D1D1B" stroke-miterlimit="10"/>
<path d="M270.589 222.699L269.711 222.3L269.102 220.993L271.119 221.549L271.067 221.424H271.63" stroke="#1D1D1B" stroke-miterlimit="10"/>
<path d="M269.718 222.699L269.776 222.248H269.285L269.383 222.692" stroke="#1D1D1B" stroke-miterlimit="10"/>
<path d="M270.739 222.595L269.501 223.941L269.717 223.065L270.739 222.595Z" stroke="#1D1D1B" stroke-miterlimit="10"/>
<path d="M269.285 222.653H269.776V222.699V223.124H269.285V222.653Z" stroke="#1D1D1B" stroke-miterlimit="10"/>
<path d="M270.549 222.68L269.776 222.699" stroke="#1D1D1B" stroke-miterlimit="10"/>
<path d="M278.358 223.052L277.526 215.531L276.766 212.498L272.442 212.544L273.025 211.629L269.023 210.937L269.868 213.139L261.85 213.165C261.85 213.165 261.221 213.113 260.828 212.714L260.442 212.459L261.654 211.093L257.245 211.348L259.184 210.571C259.184 210.571 261.628 208.028 262.014 207.46C262.4 206.891 262.82 206.244 262.964 205.944C263.108 205.643 264.136 203.48 264.346 202.186C264.556 200.892 264.772 198.847 264.772 198.847C264.772 198.847 264.89 196.677 264.798 196.272C264.706 195.867 264.556 195.187 264.012 194.671C263.468 194.155 262.571 192.841 262.571 192.841L260.946 190.802L258.64 187.94L256.623 185.45L254.691 183.156L253.204 181.451L251.199 179.092L249.391 176.732L247.845 174.458C247.845 174.458 245.474 171.282 245.258 171.171C245.042 171.06 243.548 169.433 243.548 169.433C243.548 169.433 241.026 167.309 240.803 167.165C240.581 167.021 238.53 165.518 238.53 165.518L235.078 163.14C235.078 163.14 231.796 161.042 231.685 161.016C231.574 160.99 228.849 159.428 228.849 159.428C228.849 159.428 227.892 158.905 227.755 158.709C227.617 158.513 226.058 157.114 226.058 157.114C226.058 157.114 225.023 156.35 223.674 156.866C223.674 156.866 223.359 155.455 221.237 154.605C219.115 153.755 218.387 152.527 218.171 152.082C217.955 151.638 213.999 150.671 213.999 150.671C213.999 150.671 206.518 153.193 205.214 153.337L194.661 155.742C194.661 155.742 185.144 158.578 183.349 159.741C181.554 160.905 173.235 163.44 173.235 163.44L163.062 167.054C163.062 167.054 158.123 168.877 157.107 168.753C156.092 168.629 154.775 168.426 152.797 167.557C150.819 166.688 145.408 165.139 145.408 165.139C145.408 165.139 134.069 160.963 133.139 160.781C132.209 160.598 123.536 158.186 123.536 158.186L122.069 164.427C122.069 164.427 121.02 165.858 120.182 166.577C120.182 166.577 120.837 168.191 120.451 169.204C120.064 170.217 119.344 171.354 119.344 171.655C119.344 171.955 118.747 174.55 118.747 174.55C118.747 174.55 115.066 187.267 114.169 188.489L111.234 195.71C111.234 195.71 110.664 198.01 110.513 199.474C110.363 200.938 108.686 207.087 107.251 208.342C107.251 208.342 106.203 209.806 105.902 211.329C105.601 212.851 104.828 214.256 104.074 214.4C103.321 214.544 102.129 214.25 101.827 213.537C101.827 213.537 102.784 212.257 101.349 211.479L99.764 211.57C99.764 211.57 98.8338 211.361 98.5653 211.453C98.2967 211.544 96.7704 211.544 96.7704 211.361C96.7704 211.178 99.7902 210.165 99.7902 210.165C99.7902 210.165 97.2159 206.761 91.589 208.819L92.244 209.597L90.2396 209.839L90.4819 208.643L89.7614 207.865L88.0844 209.538C88.0844 209.538 82.2479 207.388 82.0383 207.238C81.8287 207.087 79.8242 206.192 79.3722 206.192C78.9202 206.192 76.4114 205.179 76.4114 205.179C76.4114 205.179 75.062 204.343 74.6755 204.343C74.6755 204.343 72.0749 203.356 71.505 203.48C71.505 203.48 69.7692 203.389 69.5006 203.572C69.232 203.755 65.7275 203.245 65.7275 203.245C65.7275 203.245 62.164 202.382 61.9282 202.258C61.6924 202.134 58.9346 200.677 58.5481 200.35C58.1616 200.023 56.3013 199.278 56.3013 199.278L55.9541 199.997" stroke="#1D1D1B" stroke-miterlimit="10"/>
<path d="M65.02 200.199H71.2234C71.2234 200.199 69.3303 201.193 69.1796 201.343C69.029 201.493 67.7123 201.944 67.1228 201.781C66.5332 201.617 64.8694 201.127 64.8694 201.127L65.0135 200.199H65.02Z" stroke="#1D1D1B" stroke-miterlimit="10"/>
<path d="M86.8203 206.473L88.1501 205.107L89.9253 206.63H88.6545L89.1916 207.695L88.8379 207.996L86.8203 206.473Z" stroke="#1D1D1B" stroke-miterlimit="10"/>
<path d="M70.981 218.393L79.0447 222.157C79.0447 222.157 73.5553 223.268 70.981 218.393V218.393Z" stroke="#1D1D1B" stroke-miterlimit="10"/>
<path d="M65.4459 216.04C65.4459 216.04 64.6336 216.086 63.4283 214.968C62.223 213.851 60.3823 214.968 60.3823 214.968L65.2297 216.85L65.4459 216.04Z" stroke="#1D1D1B" stroke-miterlimit="10"/>
<path d="M56 213.642L57.2577 213.942C57.2577 213.942 58.5875 212.87 59.3146 214.197C59.3146 214.197 59.0591 214.687 59.7862 215.661C60.5133 216.635 60.7295 217.83 60.7295 217.83L56 215.68" stroke="#1D1D1B" stroke-miterlimit="10"/>
<path d="M167.975 169.661L171.656 172.229L171.263 172.772L167.562 170.047L167.975 169.661Z" stroke="#1D1D1B" stroke-miterlimit="10"/>
<path d="M173.346 174.523C173.346 174.523 174.584 174.026 176.464 175.823C178.344 177.62 178.894 178.307 178.914 178.529C178.934 178.751 173.346 174.529 173.346 174.529V174.523Z" stroke="#1D1D1B" stroke-miterlimit="10"/>
<path d="M265.938 319.292C265.938 319.292 271.761 309.856 272.331 309.751C272.901 309.647 276.386 304.151 280.493 304.046C280.493 304.046 281.587 302.438 282.517 302.438C283.447 302.438 287.974 303.53 287.974 303.53C287.974 303.53 289.376 305.137 289.742 305.137C289.742 305.137 291.459 306.431 292.133 306.484C292.808 306.536 295.821 307.418 295.566 312.084L295.579 312.81L296.083 313.901L297.538 313.385C297.538 313.385 300.033 315.822 298.265 318.103C296.496 320.384 295.094 322.507 294.524 324.586H293.954L293.384 323.187H292.919C292.919 323.187 293.234 324.481 291.203 325.886C289.172 327.291 281.331 331.591 281.331 331.591C281.331 331.591 278.888 332.937 278.056 330.657C278.056 330.657 277.899 328.892 278.888 328.69C279.877 328.487 283.618 326.252 284.502 324.644C285.386 323.037 288.445 319.769 288.445 319.769V319.096L283.1 320.031L283.467 318.992C283.467 318.992 279.674 317.279 276.864 321.272L281.751 320.495C281.751 320.495 277.539 324.54 270.215 324.331C270.215 324.331 268.034 324.122 267.615 321.945C267.195 319.769 265.951 319.299 265.951 319.299L265.938 319.292Z" stroke="#1D1D1B" stroke-miterlimit="10"/>
<path d="M275.764 316.234L277.061 311.464C277.061 311.464 274.984 311.052 274.408 314.94L275.082 316.234H275.757H275.764Z" stroke="#1D1D1B" stroke-miterlimit="10"/>
<path d="M270.229 330.317C270.229 330.317 272.626 330.173 272.94 330.121C273.255 330.069 274.028 330.206 274.997 331.147L273.857 332.173C273.857 332.173 272.233 332.127 271.801 331.977C271.368 331.827 270.857 331.859 270.229 330.317V330.317Z" stroke="#1D1D1B" stroke-miterlimit="10"/>
<path d="M343.155 285.846L343.797 285.735C343.797 285.735 342.507 286.199 342.265 284.134C342.022 282.069 341.806 281.35 341.865 281.233C341.924 281.115 340.365 280.507 340.273 280.364C340.273 280.364 339.625 280.063 339.166 278.932C338.708 277.802 337.581 274.946 337.581 274.946L337.915 274.881L335.256 271.221C335.256 271.221 333.847 269.62 333.808 269.097C333.769 268.574 333.991 268.137 334.266 267.856C334.542 267.575 334.987 266.614 334.987 266.614L336.009 263.889C336.009 263.889 335.465 262.628 334.581 263.667C334.581 263.667 334.129 263.928 333.795 263.948C333.461 263.967 332.013 264.627 332.013 264.627L331.613 264.006L333.12 262.386L326.235 258.739L325.554 259.72L334.207 267.829" stroke="#1D1D1B" stroke-miterlimit="10"/>
<path d="M335.072 266.588C335.072 266.588 336.467 266.124 337.273 266.176C338.079 266.228 339.533 266.209 339.533 266.209C339.533 266.209 340.129 266.196 340.437 266.385C340.437 266.385 340.66 266.392 340.66 266.666C340.66 266.941 341.112 267.542 341.112 267.542C341.112 267.542 341.55 268.274 343.424 268.457C343.424 268.457 343.824 268.333 344.714 269.404L347.78 270.509L348.291 272.665C348.291 272.665 348.245 272.953 348.625 273.103L349.005 273.253L350.112 271.241L353.066 275.626L351.887 275.959C351.887 275.959 352.333 276.253 353.728 276.227C355.123 276.201 356.315 276.416 356.682 278.044C356.682 278.044 357.016 278.207 357.206 278.233C357.396 278.259 359.283 279.213 359.283 279.213C359.283 279.213 360.115 279.632 361.123 280.39C362.132 281.148 363.698 280.043 363.698 280.043L364.379 281.566L362.637 283.964C362.637 283.964 362.65 284.278 361.726 284.33C361.687 284.33 361.641 284.33 361.595 284.33C360.547 284.356 359.774 284.33 359.774 284.33L356.623 284.677L355.818 284.5L355.752 284.082L356.25 284.35L355.215 284.807L351.94 285.062L352.582 285.866C352.582 285.866 353.898 285.278 356.099 285.533C358.3 285.787 361.091 286.617 361.091 286.617L362.335 285.441L359.741 284.304" stroke="#1D1D1B" stroke-miterlimit="10"/>
<path d="M361.837 284.39L366.069 284.939L366.141 285.305L360.992 286.612C360.992 286.612 361.857 286.768 361.995 286.821C362.132 286.873 362.388 286.945 362.479 287.128C362.571 287.311 363.37 287.69 363.567 287.762C363.763 287.834 364.674 287.932 365.499 287.428C366.325 286.925 367.386 286.226 367.386 286.226C367.386 286.226 367.222 287.481 367.641 287.742C368.06 288.003 368.689 288.324 368.689 288.324C368.689 288.324 367.039 288.539 366.547 289.356C366.056 290.173 366.691 291.598 366.691 291.598C366.691 291.598 366.777 292.049 366.665 292.369L368.748 291.003L370.039 293.245L368.27 294.048C368.27 294.048 368.25 294.055 368.224 294.068C368.028 294.14 367.288 294.342 367.176 293.591C367.052 292.722 367.019 292.539 366.685 292.388" stroke="#1D1D1B" stroke-miterlimit="10"/>
<path d="M368.329 294.074C368.329 294.074 369.364 294.283 369.711 294.414C370.058 294.545 370.831 295.251 370.831 295.251C370.831 295.251 371.631 296.126 371.768 296.505C371.906 296.884 372.22 297.218 372.168 298.113C372.115 299.008 371.788 299.832 371.788 299.832L373.38 299.668L376.511 303.746L374.441 304.707L382.956 307.393C382.956 307.393 382.858 307.843 382.852 307.928C382.845 308.013 382.583 308.477 382.465 308.726C382.347 308.974 381.699 310.065 381.954 311.281C382.21 312.496 383.12 313.398 383.12 313.398C383.12 313.398 384.43 314.47 384.568 315.705C384.568 315.705 384.823 316.822 384.777 317.371C384.732 317.92 384.928 318.639 385.02 318.822C385.112 319.005 385.485 319.848 385.924 320.168C385.924 320.168 386.133 320.358 386.435 320.378C386.736 320.397 387.496 320.678 387.633 320.985C387.771 321.292 387.935 321.704 387.424 322.848L389.481 322.619C389.481 322.619 390.214 324.312 390.483 324.606C390.752 324.9 390.994 325.148 391.387 325.292C391.78 325.436 393.555 325.194 394.767 324.697C395.979 324.2 397.014 324.383 397.296 325.043C397.296 325.043 397.669 325.671 397.702 326.03C397.734 326.39 398.095 326.612 398.095 326.612C398.095 326.612 398.684 327.017 398.992 327.442C399.3 327.867 401.383 330.134 401.383 330.134C401.383 330.134 403.302 332.369 403.65 333.219C403.65 333.219 404.691 334.996 404.796 336.133L403.322 336.989C403.322 336.989 402.464 337.395 402.228 337.382C401.992 337.368 401.462 337.787 401.553 338.264C401.645 338.741 402.412 339.329 402.412 339.329C402.412 339.329 403.152 340.237 402.988 341.865C402.824 343.492 403.577 346.753 403.577 346.753L404.278 346.844L405.621 342.891C405.621 342.891 405.818 341.629 406.244 341.276C406.669 340.923 407.102 341.146 407.102 341.146C407.102 341.146 407.337 341.211 407.6 341.041C407.862 340.871 408.615 340.29 408.615 340.29C408.615 340.29 406.348 340.564 406.021 339.12C406.021 339.12 405.982 338.211 406.126 337.989C406.27 337.767 405.968 337.199 405.68 337.055C405.392 336.911 404.809 336.186 404.809 336.186C404.809 336.186 405.837 335.075 405.975 334.924C406.113 334.774 406.342 334.362 406.388 334.238C406.434 334.114 407.023 332.925 407.279 332.735C407.534 332.546 407.77 332.029 408.838 332.127C409.905 332.225 411.504 333.297 411.504 333.297L413.665 334.33L415.558 335.173C415.558 335.173 415.48 334.101 415.932 333.532C416.384 332.964 417.864 333.349 417.864 333.349C417.864 333.349 418.788 334.604 419.521 334.82C420.255 335.035 421.251 334.846 421.578 334.421L421.526 334.323L420.74 332.814L417.825 333.454C417.825 333.454 418.133 332.016 418.133 331.931C418.133 331.846 418.441 330.788 419.842 331.101C419.842 331.101 420.17 330.853 420.281 330.441L419.253 329.644L426.105 328.154V328.291L426.236 330.056L425.07 329.749L423.858 331.663L423.432 331.533L423.295 329.618C423.295 329.618 421.932 330.938 421.749 332.154C421.565 333.369 421.598 334.349 421.598 334.349L424.185 335.656L423.819 337.617C423.819 337.617 425.338 338.061 426.164 337.617C426.989 337.172 427.945 335.395 427.945 335.395L429.963 331.291L426.845 327.723L426.203 328.252L425.967 328.043L426.72 327.749L423.773 325.945L423.504 326.259L424.022 326.344C424.022 326.344 423.707 326.069 423.55 325.344C423.55 325.344 423.452 325.128 423.602 325.05C423.753 324.972 424.775 324.259 424.775 324.259L426.341 323.292C426.341 323.292 427.009 322.776 427.14 322.599C427.271 322.423 427.435 322.331 427.1 321.946C426.766 321.56 426.714 321.384 426.236 321.711C425.758 322.037 423.544 324.227 423.544 324.227L423.013 323.906C423.013 323.906 424.035 323.357 424.218 322.331C424.218 322.331 424.356 321.946 423.904 320.959C423.904 320.959 423.222 319.619 423.19 319.338L422.371 319.835L422.07 319.338L425.725 317.515L421.768 317.483L423.183 318.169C423.183 318.169 419.286 318.332 418.821 318.43C418.821 318.43 416.731 318.613 415.938 319.11C415.938 319.11 413.161 320.273 412.394 321.064C412.394 321.064 409.368 323.377 409.231 323.586C409.093 323.795 407.423 324.736 407.305 324.658C407.187 324.579 406.499 322.913 406.591 322.39C406.682 321.867 406.905 319.887 407.069 319.724C407.233 319.561 406.859 319.234 408.038 318.783L409.067 318.214C409.067 318.214 409.886 317.528 411.143 318.156C411.143 318.156 411.995 318.75 412.132 318.992C412.27 319.234 412.925 319.456 413.613 318.979C414.301 318.502 416.495 316.894 417.091 316.757C417.091 316.757 420.425 315.234 422.377 315.025C422.377 315.025 429.059 313.503 429.976 313.503C430.893 313.503 432.19 313.176 432.387 312.725C432.583 312.274 432.714 311.549 432.655 311.353C432.596 311.157 433.088 310.248 433.369 310.026C433.369 310.026 433.356 310.993 433.788 311.725C434.221 312.457 435.4 312.575 435.4 312.575C435.4 312.575 436.284 312.47 436.658 312.411C437.031 312.353 439.749 312.261 441.616 313.084C443.483 313.908 445.959 314.829 445.959 314.829" stroke="#1D1D1B" stroke-miterlimit="10"/>
<path d="M445.94 318.626C445.94 318.626 441.551 314.588 440.883 314.287C440.883 314.287 438.236 312.281 437.09 312.405" stroke="#1D1D1B" stroke-miterlimit="10"/>
<path d="M435.511 327.389C435.511 327.389 433.919 327.762 434.037 328.847C434.037 328.847 434.247 329.605 434.771 330.206C435.295 330.807 435.347 331.219 435.347 331.219C435.347 331.219 432.996 330.088 432.95 329.102C432.904 328.115 433.284 327.102 435.511 327.389Z" stroke="#1D1D1B" stroke-miterlimit="10"/>
<path d="M412.539 332.715L415.074 333.003C415.074 333.003 414.871 332.271 414.825 332.029C414.779 331.787 414.759 331.611 413.947 331.702C413.135 331.794 412.539 331.84 412.539 331.84V332.715V332.715Z" stroke="#1D1D1B" stroke-miterlimit="10"/>
<path d="M140.102 349.432C140.102 349.432 158.326 367.115 165.82 380.316C173.313 393.517 179.052 408.959 179.052 408.959C179.052 408.959 179.543 410.775 181.351 410.704L182.576 415.311L186.762 422.074L188.995 421.428C188.995 421.428 187.77 423.878 187.77 424.597C187.77 425.316 188.347 427.335 189.932 428.773C191.517 430.211 195.775 437.268 195.775 437.268C195.775 437.268 196.352 438.059 197.432 439.065C198.513 440.072 206.092 446.626 207.966 449.214C209.839 451.802 212.007 452.096 212.007 452.096C212.007 452.096 213.088 452.887 213.809 453.965C213.809 453.965 216.043 455.331 217.274 455.331C218.506 455.331 223.982 457.853 224.637 458.5C225.292 459.147 228.895 462.389 229.687 463.467C230.48 464.545 232.648 466.133 233.585 466.061C234.522 465.99 247.944 459.147 247.944 459.147L273.13 445.11C273.13 445.11 274.139 443.888 275.515 445.613C276.89 447.339 281.07 452.599 281.286 453.318C281.502 454.037 285.472 459.938 285.904 460.52C286.336 461.101 290.09 464.408 290.954 467.068C291.819 469.728 302.575 481.896 302.575 481.896L302.935 480.889L294.275 466.78C294.275 466.78 293.051 465.415 292.474 464.983C291.898 464.552 290.529 461.382 290.529 461.382C290.529 461.382 284.974 453.965 284.758 453.103C284.541 452.24 280.86 446.26 280.86 446.26L278.914 444.32C278.914 444.32 277.257 442.954 278.914 442.091C280.572 441.229 287.79 437.34 288.295 436.765C288.799 436.19 291.688 434.243 295.441 436.981C299.195 439.719 299.988 439.791 299.988 439.791L304.389 440.438C304.389 440.438 306.479 438.856 307.062 440.725V442.451L308.863 443.816L306.047 444.176C306.047 444.176 306.767 443.169 304.966 442.451C303.165 441.732 304.678 439.209 304.678 439.209C304.678 439.209 304.389 437.196 302.876 436.83C301.363 436.465 301.579 435.033 301.579 435.033L302.077 434.72L303.204 435.844L304.01 432.276L305.569 432.975L305.352 435.739L305.837 435.929L307.291 432.23L309.171 435.314C309.171 435.314 310.298 435.073 310.973 435.288C311.647 435.504 321.912 439.281 323.465 439.418C323.465 439.418 327.415 434.648 324.945 432.178C324.945 432.178 321.585 431.321 321.159 431.132C320.733 430.942 319.947 430.302 319.705 429.982C319.462 429.662 315.702 426.446 312.748 425.61L312.132 425.714L312.027 427.165L307.435 427.218L302.922 424.055V423.571L305.719 423.708L306.178 422.29C306.178 422.29 306.224 422.316 306.302 422.362C306.335 422.382 306.368 422.395 306.407 422.421C306.911 422.695 308.104 423.316 308.543 423.316C309.106 423.316 310.292 423.264 310.586 423.127C310.704 423.074 310.128 422.427 309.263 421.676C308.018 420.598 306.184 419.291 304.999 419.212C304.999 419.212 303.63 417.069 302.175 418.219L303.413 419.238C303.413 419.238 303.761 419.585 303.787 420.179C303.813 420.774 306.086 422.323 306.086 422.323L306.328 421.264L309.165 421.676H309.204L309.237 421.689H309.309" stroke="#1D1D1B" stroke-miterlimit="10"/>
<path d="M300.21 418.435L302.208 421.258C302.208 421.258 300.132 421.879 298.874 421.107C297.616 420.336 298.933 419.454 298.933 419.454L300.21 418.435V418.435Z" stroke="#1D1D1B" stroke-miterlimit="10"/>
<path d="M304.985 419.108C304.985 419.108 305.359 417.095 305.699 416.539C306.04 415.984 306.636 415.605 307.579 415.272L306.643 413.801C306.643 413.801 306.138 413.082 305.726 412.912C305.313 412.742 301.501 410.553 301.501 410.553L299.535 409.547L300.649 409.168L298.278 407.41L295.926 405.619L292.625 403.077L292.887 406.384C292.887 406.384 291.917 406.449 290.483 405.998C289.048 405.547 287.823 405.208 287.823 405.208C287.823 405.208 287.122 404.018 285.995 403.528C284.869 403.038 283.611 402.025 283.611 402.025L281.371 400.888C281.371 400.888 280.487 400.607 279.51 400.888L278.089 401.038L277.873 401.359L279.262 402.711L276.157 402.548L274.886 402.587L272.547 402.169H272.495L272.39 402.143L268.348 401.417L269.2 401.254L268.27 401.692C268.27 401.692 268.807 399.777 270.176 400.927L271.44 401.3L272.416 402.189L273.504 401.725L271.25 401.195L270.183 400.855L270.248 399.326L273.471 401.803L275.371 401.332L271.021 399.862L270.929 399.816L270.877 399.764L270.798 399.777" stroke="#1D1D1B" stroke-miterlimit="10"/>
<path d="M270.183 399.425L270.549 398.209C270.549 398.209 273.366 398.307 274.637 399.425C274.637 399.425 275.384 399.987 275.678 400.457C275.973 400.928 277.86 401.372 277.86 401.372H275.259L274.899 402.64" stroke="#1D1D1B" stroke-miterlimit="10"/>
<path d="M278.063 401C278.063 401 275.24 397.15 274.919 396.883C274.919 396.883 274.054 395.36 272.521 396.007C272.521 396.007 272.01 396.157 271.676 396.811C271.342 397.464 270.556 398.203 270.556 398.203C270.556 398.203 269.678 397.431 269.318 397.085C268.958 396.739 267.975 396.288 267.975 396.288C267.975 396.288 262.767 393.452 262.414 393.386C262.06 393.321 260.553 392.726 258.929 392.628L259.197 393.929L252.097 389.609C252.097 389.609 251.782 389.583 251.874 389.165C251.966 388.746 252.11 388.766 251.972 388.465C251.835 388.165 251.533 388.021 251.062 387.988C250.59 387.956 250.302 387.76 250.302 387.76C250.302 387.76 248.697 387.113 248.658 387.074C248.618 387.034 248.468 387.067 248.658 386.512C248.847 385.956 249.221 385.629 248.736 384.793C248.251 383.956 247.708 383.623 247.708 383.623C247.708 383.623 246.535 382.591 246.804 381.277L246.26 381.166C246.26 381.166 242.985 378.839 242.854 378.663C242.723 378.487 241.871 377.676 241.871 377.676C241.871 377.676 240.424 376.356 239.533 375.971C238.642 375.585 236.971 374.925 235.583 374.84C234.194 374.755 233.185 374.154 232.779 373.344C232.373 372.533 232.406 371.749 232.406 371.749C232.406 371.749 232.189 370.252 230.853 370.2C230.853 370.2 230.152 370.207 229.543 370.429C228.934 370.651 226.15 371.037 226.15 371.037C226.15 371.037 224.525 371.292 223.982 371.559C223.438 371.827 222.324 372.416 221.84 373.487C221.355 374.559 221.669 374.879 221.669 374.879L218.505 376.918C218.505 376.918 217.032 377.866 216.593 378.362C216.154 378.859 215.872 379.369 215.715 379.689C215.558 380.009 215.06 381.074 213.35 380.695C213.35 380.695 213.9 381.983 213.448 382.421C213.141 382.715 212.243 382.898 211.293 382.996C210.835 383.041 210.37 383.074 209.95 383.087L209.295 384.669C209.295 384.669 210.245 385.296 210.527 385.597C210.809 385.897 211.221 386.08 211.844 385.433C212.466 384.786 212.865 384.12 212.865 384.12L211.215 382.956" stroke="#1D1D1B" stroke-miterlimit="10"/>
<path d="M209.243 384.688L207.573 385.989C207.573 385.989 206.302 386.904 206.033 387.315C205.765 387.727 205.11 388.616 205.044 388.688C204.979 388.76 204.651 389.21 203.839 389.335C203.027 389.459 202.221 389.021 202.221 389.021L201.697 388.289C201.697 388.289 205.391 385.433 205.47 385.427C205.548 385.42 207.108 383.956 207.448 383.688C207.789 383.42 208.247 382.93 209.905 383.009C209.905 383.009 210.697 382.146 210.92 381.538C211.143 380.931 211.994 380.297 212.937 380.434L213.455 380.728" stroke="#1D1D1B" stroke-miterlimit="10"/>
<path d="M212.957 380.388C212.957 380.388 212.807 379.532 212.918 379.166C213.029 378.8 215.099 376.827 215.099 376.827L205.509 371.912C205.509 371.912 198.441 367.763 198.291 367.652C198.14 367.541 193.856 365.018 193.856 365.018C193.856 365.018 187.869 361.783 187.279 361.581C186.69 361.378 181.161 358.823 179.274 358.64C177.388 358.457 174.676 357.614 174.676 357.614L174.289 358.235C174.289 358.235 176.196 359.803 176.766 360.921C176.766 360.921 175.724 361.339 175.01 361.176C174.296 361.012 165.263 355.804 165.263 355.804C165.263 355.804 160.959 352.589 158.267 354.725C158.267 354.725 157.075 352.935 156.616 351.817C156.158 350.7 153.76 350.739 153.76 350.739C153.76 350.739 152.81 348.929 149.548 347.341C146.286 345.753 145.094 345.439 144.989 345.224L144.458 345.498L145.428 349.047L143.174 348.132V348.537L140.391 348.975C140.391 348.975 140.351 349.249 140.554 349.524C140.757 349.798 141.537 350.55 141.897 351.216" stroke="#1D1D1B" stroke-miterlimit="10"/>
<path d="M134.089 344.478L137.115 342.93L139.093 347.027L138.366 347.491L134.089 344.478Z" stroke="#1D1D1B" stroke-miterlimit="10"/>
<path d="M164.955 361.463L173.405 367.743C173.405 367.743 167.444 368.841 164.955 361.463Z" stroke="#1D1D1B" stroke-miterlimit="10"/>
<path d="M303.525 398.372C303.525 398.372 312.361 401.751 312.886 402.052C313.41 402.352 314.176 402.627 314.176 402.627C314.176 402.627 316.023 404.822 316.403 405.509L316.593 405.757L316.043 406.358L313.095 404.685L312.296 410.782C312.296 410.782 309.656 410.547 308.831 409.22C308.005 407.894 309.184 408.913 307.56 407.815L298.396 401.117C298.396 401.117 297.518 400.98 298.206 399.719C298.894 398.457 299.169 398.209 299.169 398.209C299.169 398.209 301.73 399.634 302.719 399.529L303.518 398.379L303.525 398.372Z" stroke="#1D1D1B" stroke-miterlimit="10"/>
<path d="M319.881 401.894L323.969 401.339C323.969 401.339 323.144 402.796 322.24 402.829C321.336 402.862 319.881 401.894 319.881 401.894Z" stroke="#1D1D1B" stroke-miterlimit="10"/>
<path d="M101.572 375.167L102.561 374.638L104.087 377.84L103.59 378.206L101.572 375.167Z" stroke="#1D1D1B" stroke-miterlimit="10"/>
<path d="M136.028 412.468C136.028 412.468 136.598 412.906 137.063 412.965C137.528 413.024 137.777 412.697 137.777 412.697C137.777 412.697 138.058 412.22 138.098 411.756C138.137 411.292 138.301 411.096 138.301 411.096L138.7 410.469L141.078 411.456L139.585 412.344C139.585 412.344 139.958 413.115 139.978 413.227L140.443 414.181C140.443 414.181 140.77 414.867 140.744 415.298C140.718 415.729 140.639 416.2 139.997 416.912C139.355 417.625 138.334 418.67 138.334 418.67L141.609 417.056L141.976 417.611L139.506 421.807C139.506 421.807 138.248 422.055 137.168 421.748C136.087 421.441 135.405 420.931 135.405 420.931C135.405 420.931 134.253 419.958 133.886 419.154C133.519 418.35 133.453 418.285 133.401 418.128C133.349 417.971 132.602 417.206 132.261 417.108C131.921 417.01 131.606 416.644 131.606 416.644C131.606 416.644 130.1 418.174 129.877 419.971C129.654 421.768 129.562 422.552 129.654 423.277C129.746 424.003 130.054 425.297 130.977 426.329L129.176 427.238C129.176 427.238 128.966 429.296 128.888 429.584C128.809 429.871 128.285 430.766 127.84 431.315C127.394 431.864 126.281 432.851 126.281 432.851C126.281 432.851 125.233 433.962 124.08 433.563C124.08 433.563 123.32 433.263 123.202 432.479C123.084 431.694 122.291 431.119 122.291 431.119C122.291 431.119 120.169 428.486 120.044 428.081L120.634 427.571C120.634 427.571 120.883 427.362 121.296 427.623L123.261 428.793L124.309 427.898C124.309 427.898 123.595 425.728 123.497 424.78C123.398 423.833 123.261 420.506 123.261 420.506L123.071 415.88C123.071 415.88 123.005 414.632 122.77 414.135C122.534 413.638 121.63 412.841 121.63 412.841L120.044 411.906C120.044 411.906 118.918 411.384 118.669 409.972C118.669 409.972 118.531 409.763 118.669 408.423C118.806 407.084 118.544 406.365 118.544 406.365C118.544 406.365 118.309 404.646 118.309 403.594C118.309 402.542 117.732 400.117 117.732 400.117C117.732 400.117 116.848 397.451 116.71 397.19C116.573 396.928 115.171 394.347 114.987 394.184C114.804 394.02 113.704 392.772 113.599 392.373C113.494 391.975 112.4 389.955 112.4 389.955C112.4 389.955 111.614 389.184 112.236 388.786C112.859 388.387 114.496 388.472 114.496 388.472L111.994 381.578C111.994 381.578 113.658 379.598 113.848 378.023C114.038 376.448 114.267 375.716 114.273 374.833C114.28 373.951 114.706 372.527 114.706 372.527C114.706 372.527 115.23 370.246 115.118 369.847C115.007 369.449 114.896 368.9 114.942 368.566C114.987 368.233 115.59 366.247 115.086 365.763C114.581 365.279 114.267 364.907 114.267 364.907C114.267 364.907 113.972 364.632 114.064 364.325C114.156 364.018 114.267 361.803 114.267 361.803C114.267 361.803 116.547 362.43 117.012 362.691C117.477 362.953 120.981 362.561 121.112 362.495C121.243 362.43 122.206 361.737 122.239 361.607C122.272 361.476 122.625 362.195 122.625 362.195C122.625 362.195 122.789 362.731 122.062 363.142C121.335 363.554 120.994 363.757 120.994 363.757L123.981 364.861L124.27 364.064C124.27 364.064 124.761 365.077 125.377 365.024C125.992 364.972 126.588 363.6 126.588 363.6L128.252 364.9C128.252 364.9 127.709 365.606 127.676 366.037C127.643 366.469 128.252 367.266 128.252 367.266C128.252 367.266 129.051 366.776 129.137 366.148C129.222 365.521 129.065 364.737 129.065 364.737C129.065 364.737 129.189 363.129 129.444 362.874C129.7 362.62 129.805 362.352 131.292 362.711L132.235 362.874L130.787 364.521L131.22 364.704C131.22 364.704 132.327 363.567 133.211 364.43C133.211 364.43 133.807 364.848 134.01 365.26C134.213 365.671 135.55 366.109 135.55 366.109C135.55 366.109 136.454 366.717 137.285 367.338C137.927 367.815 138.524 368.298 138.628 368.514L135.13 369.475C135.13 369.475 136.126 367.756 136.27 367.632C136.414 367.508 136.781 367.161 137.377 367.521C137.973 367.88 138.772 368.632 138.772 368.632C138.772 368.632 137.24 369.677 136.945 372.494C136.65 375.311 136.676 376.245 136.676 376.245C136.676 376.245 137.148 378.656 134.816 378.768L137.259 380.623C137.259 380.623 137.751 384.198 137.908 384.688C138.065 385.178 139.696 389.805 139.631 392.105C139.565 394.406 139.454 395.412 136.231 394.693L136.185 400.006H136.722L135.825 400.986L138.871 406.816L137.24 407.397L138.694 410.482L135.962 411.756L134.148 411.24L132.851 415.017L136.565 414.279L135.962 412.449V411.652" stroke="#1D1D1B" stroke-miterlimit="10"/>
<path d="M142.473 377.604L143.882 373.265C143.882 373.265 145.29 374.728 144.707 375.924C144.124 377.12 142.473 377.604 142.473 377.604V377.604Z" stroke="#1D1D1B" stroke-miterlimit="10"/>
<path d="M154.402 417.2L156.681 422.088C156.681 422.088 154.736 422.754 154.402 419.644C154.068 416.533 154.402 417.2 154.402 417.2Z" stroke="#1D1D1B" stroke-miterlimit="10"/>
<path d="M141.786 436.014L142.794 436.438C142.794 436.438 141.7 440.882 141.072 441.372C140.443 441.862 140.102 441.908 140.102 441.908L139.506 441.124C139.506 441.124 139.192 441.235 139.663 440.431C140.135 439.628 141.786 436.014 141.786 436.014Z" stroke="#1D1D1B" stroke-miterlimit="10"/>
<path d="M125.03 422.297L127.191 423.859L126.844 424.767L125.03 424.872V422.297Z" stroke="#1D1D1B" stroke-miterlimit="10"/>
<path d="M148.277 522.243L148.801 520.557L152.823 518.061C152.823 518.061 157.075 515.212 157.54 514.865C158.005 514.519 164.883 510.742 164.883 510.742L166.802 509.461L167.149 509.984L149.149 522.773L148.277 522.25V522.243Z" stroke="#1D1D1B" stroke-miterlimit="10"/>
<path d="M145.362 523.929L140.351 527.53C140.351 527.53 143.148 527.294 144.373 526.138C145.598 524.981 145.618 524.118 145.585 523.929C145.552 523.739 145.362 523.929 145.362 523.929V523.929Z" stroke="#1D1D1B" stroke-miterlimit="10"/>
<path d="M119.75 540.404L121.25 539.842C121.25 539.842 122.448 542.064 122.331 543.377C122.213 544.691 122.075 546.324 122.075 546.324L119.376 544.593L120.267 540.639L119.75 540.404Z" stroke="#1D1D1B" stroke-miterlimit="10"/>
<path d="M71.8982 525.889L72.2585 525.249L75.1342 526.752L74.6691 527.576L71.8982 525.889Z" stroke="#1D1D1B" stroke-miterlimit="10"/>
<path d="M58.0962 534.966C58.0962 534.966 59.177 534.43 59.7469 534.43C60.3168 534.43 62.2295 534.071 63.5593 532.208C64.8891 530.346 63.5593 529.019 63.5593 529.019C63.5593 529.019 62.3344 528.732 61.6924 526.686C61.0505 524.641 61.6597 524.464 60.6509 522.563L62.0527 522.739L71.3282 530.954C71.3282 530.954 72.5859 532.568 72.1929 534.973C71.7999 537.378 71.5444 538.665 71.9047 539.887C72.265 541.109 72.4811 541.109 72.9135 541.357C73.3458 541.606 79.274 543.795 79.274 543.795C79.274 543.795 78.9858 541.821 80.3549 541.717C81.7239 541.612 81.8615 541.749 82.6213 541.142C83.3812 540.534 84.3441 539.704 85.1367 539.743C85.9294 539.782 86.2503 539.528 86.2503 539.528C86.2503 539.528 86.8595 539.743 87.2919 540.678C87.7242 541.612 88.0124 542.651 88.0124 542.651C88.0124 542.651 88.3006 543.547 86.8268 544.409L85.4577 545.664C85.4577 545.664 84.3769 545.559 84.128 546.919L83.8397 548.356L85.4905 549.003H93.469C93.469 549.003 99.8296 548.683 100.622 548.788C101.415 548.892 110.114 549.003 110.114 549.003H148.978C148.978 549.003 150.701 547.03 148.546 545.2C146.391 543.37 146.351 542.22 146.351 542.22L149.227 543.762L149.908 540.462C149.908 540.462 151.487 541.037 152.208 541.037C152.928 541.037 154.978 541.325 154.978 542.651V544.514L157.389 543.089L158.359 544.834L160.121 541.854L156.38 540.096V539.057C156.38 539.057 158.359 538.809 159.007 538.521C159.656 538.234 162.708 539.312 162.708 539.312C162.708 539.312 167.994 540.782 168.715 540.782C169.435 540.782 176.517 541.789 176.517 541.789L178.279 538.384L179.68 539.103C179.68 539.103 179.825 535.986 181.403 535.012C181.403 535.012 182.877 534.94 183.558 534.188C184.24 533.437 184.888 530.457 184.888 530.457L186.329 531.496L182.052 530.849V530.058C182.052 530.058 184.711 528.444 188.845 529.451C188.845 529.451 188.701 528.34 189.061 527.66C189.421 526.98 189.598 524.647 188.524 523.282C187.449 521.916 188.668 519.589 189.781 519.302C190.895 519.014 192.48 517.041 192.48 517.041C192.48 517.041 193.378 516.721 193.921 516.864C194.465 517.008 197.301 515.538 199.024 517.943L199.85 517.975C199.85 517.975 200.642 518.335 200.891 518.367C201.14 518.4 200.603 520.517 200.603 520.517L199.594 519.838L201.317 520.125C201.317 520.125 201.893 519.805 202.326 519.766C202.758 519.727 203.406 519.446 204.193 520.125C204.979 520.805 206.243 522.171 208.11 520.7L200.059 515.283L200.596 514.172L198.657 513.884C198.657 513.884 195.926 510.839 196.751 507.572C196.751 507.572 193.908 505.206 197.649 502.409L198.258 503.807C198.258 503.807 199.908 499.932 200.773 499.684C201.638 499.436 202.607 500.363 202.607 500.363L204.618 502.984L205.228 500.795C205.228 500.795 207.022 503.304 208.536 500.076C208.536 500.076 211.195 502.657 212.02 504.199C212.846 505.742 215.007 505.918 215.007 505.918L215.944 504.232C215.944 504.232 216.337 505.487 216.481 505.735C216.625 505.984 215.8 507.885 214.975 508.643C214.975 508.643 216.16 510.937 216.016 512.447C215.872 513.956 215.152 514.42 215.152 514.42C215.152 514.42 214.686 514.995 215.224 515.603C215.761 516.211 216.665 517.002 216.914 517.106C217.163 517.211 218.315 515.42 218.315 515.42C218.315 515.42 216.481 513.878 218.492 512.407C218.492 512.407 219.678 512.584 220.038 513.59C220.399 514.597 220.687 515.779 220.687 515.779C220.687 515.779 220.903 516.355 220.254 516.819C219.606 517.283 218.709 518.505 218.709 518.505C218.709 518.505 218.276 518.936 219.102 519.511C219.927 520.086 222.193 521.053 222.442 521.556L222.645 521.681L224.879 519.962L225.37 520.413C225.37 520.413 223.248 521.053 224.407 524.687L225.37 521.615H225.737V525.647L229.779 521.949L230.408 522.177L228.75 525.517L231.764 524.458L231.168 525.713L234.05 527.562V527.098L239.618 528.915L235.144 530.3C235.144 530.3 236.834 531.457 237.993 531.856C239.153 532.254 240.247 531.326 240.247 531.326C240.247 531.326 241.111 530.464 241.439 531.359L241.74 532.052C241.74 532.052 247.78 534.443 248.389 534.496C248.998 534.548 252.896 535.554 253.76 536.116C254.625 536.678 258.83 537.58 259.741 537.534C260.652 537.489 261.818 537.587 262.885 538.397C263.953 539.207 265.872 539.358 266.383 537.639L269.423 539.103C269.423 539.103 271.047 539.965 273.373 539.965C275.698 539.965 277.074 541.129 277.074 541.129C277.074 541.129 279.052 542.292 281.987 542.089C284.921 541.887 284.974 542.795 284.974 542.795C284.974 542.795 285.838 544.311 288.367 543.351L290.09 544.409V543.854C290.09 543.854 292.317 544.207 293.588 544.154C294.858 544.102 295.972 543.396 296.529 543.952C297.086 544.507 296.882 545.572 298.048 545.925L297.341 547.696C297.341 547.696 300.839 546.991 306.158 547.899C306.158 547.899 308.844 548.304 310.265 547.899C311.687 547.494 314.32 547.141 314.32 547.141L312.8 548.99L319.338 548.605L319.135 535.26L319.999 535.11C319.999 535.11 320.353 535.816 320.608 536.371C320.864 536.927 320.661 538.953 320.608 539.756C320.556 540.56 321.165 547.801 321.827 548.99L445.946 549.16C445.946 549.16 445.894 549.781 445.481 549.931C445.068 550.082 56.2162 549.931 56.2162 549.931C56.2162 549.931 56 549.356 56 549.095L74.7083 548.944C74.7083 548.944 75.2323 549.075 75.5664 548.873C75.9005 548.67 77.9443 546.625 78.1146 545.827C78.2849 545.03 75.2847 543.566 75.2847 543.566C75.2847 543.566 70.3194 542.044 69.4089 541.227C68.4984 540.41 66.8018 539.168 66.5267 538.724C66.2516 538.279 64.1816 537.293 63.9589 537.293C63.7362 537.293 61.581 535.973 61.188 535.456L58.2272 535.678L58.0962 534.966V534.966Z" stroke="#1D1D1B" stroke-miterlimit="10"/>
<path d="M175.56 548.475L183.139 546.436C183.139 546.436 184.063 546.031 184.836 546.436C185.609 546.841 186.035 547.782 186.035 547.782C186.035 547.782 185.419 548.743 185.052 548.802C184.685 548.86 175.567 548.802 175.567 548.802V548.475H175.56Z" stroke="#1D1D1B" stroke-miterlimit="10"/>
<path d="M217.929 526.941L219.691 529.255C219.691 529.255 218.689 529.738 218.479 529.98C218.27 530.222 216.265 529.327 217.929 526.948V526.941Z" stroke="#1D1D1B" stroke-miterlimit="10"/>
<path d="M209.774 522.393C209.774 522.393 210.986 525.184 211.988 525.876C212.99 526.569 215.407 527.425 215.407 527.425C215.407 527.425 215.997 527.321 216.377 526.772C216.757 526.223 215.997 525.876 215.997 525.876C215.997 525.876 213.16 525.151 213.645 523.047C213.645 523.047 213.783 521.772 209.774 522.393V522.393Z" stroke="#1D1D1B" stroke-miterlimit="10"/>
<path d="M210.088 539.253C210.088 539.253 216.285 536.358 217.281 536.319C218.276 536.28 224.774 534.078 224.774 534.078C224.774 534.078 226.608 532.973 227.886 534.078C229.163 535.182 228.993 535.731 228.993 535.731L223.635 536.143L223.425 536.626L235.694 538.835C235.694 538.835 235.622 540.351 236.729 540.319C236.729 540.319 238.386 539.489 238.596 540.149C238.596 540.149 237.731 541.253 237.731 541.907C237.731 542.56 238.943 543.116 238.943 543.116C238.943 543.116 240.6 543.462 240.876 543.704C241.151 543.946 242.395 544.632 242.395 544.632V545.325H240.496C240.496 545.325 236.729 544.808 235.072 544.253C233.414 543.697 232.373 542.286 232.373 542.286L226.707 542.456C226.707 542.456 225.462 542.835 225.292 543.148C225.122 543.462 224.257 544.357 223.53 543.181L223.425 542.181C223.425 542.181 223.497 543.423 222.213 543.351C220.929 543.279 221.833 542.763 220.137 542.939L221.067 544.834C221.067 544.834 216.468 544.285 215.119 543.665C213.769 543.044 210.075 539.253 210.075 539.253H210.088Z" stroke="#1D1D1B" stroke-miterlimit="10"/>
</g>
<defs>
<clipPath id="clip0_150_1519">
<rect width="389.94" height="550.174" fill="white" transform="translate(56)"/>
</clipPath>
</defs>
</svg>
