<svg width="651" height="699" viewBox="0 0 651 699" fill="none" xmlns="http://www.w3.org/2000/svg">
<path d="M406.51 601.309C404.396 603.239 402.083 604.921 399.612 606.328C375.909 619.568 370.684 631.781 303.095 604.598C303.095 604.598 257.528 583.721 205.571 597.706C187.973 602.64 169.224 602.084 151.609 596.104C138.764 591.61 126.851 584.463 116.597 575.097C113.861 572.604 107.524 567.894 105.03 565.278C87.9146 546.904 30.7532 498.908 73.7974 384.028L74.4117 382.353C76.1821 377.233 90.5682 341.701 145.514 352.774C195.453 362.804 226.168 315.109 234.543 300.068C237.178 295.43 239.18 290.417 240.493 285.169C245.497 267.576 254.025 251.389 265.523 237.657C277.02 223.924 291.231 212.954 307.233 205.458C323.235 197.962 340.671 194.107 358.411 194.144C376.15 194.18 393.796 198.107 410.204 205.669L411.11 206.088C441.165 219.947 458.439 229.091 479.745 225.191C501.052 221.292 544.956 220.81 582.24 317.996C619.524 415.183 569.524 514.879 569.524 514.879C569.524 514.879 545.693 559.66 498.145 565.241C489.018 566.226 479.993 567.912 471.142 570.285C452.67 575.45 424.58 585.336 406.51 601.309Z" fill="#E63F3F"/>
<g opacity="0.5" clip-path="url(#clip0_150_1514)">
<path d="M177.893 243.474C177.893 243.474 179.42 239.586 182.636 239.925C185.852 240.265 189.579 241.023 189.579 241.023L188.623 241.559L192.717 243.16C192.717 243.16 192.914 243.879 192.193 244.317C191.374 244.82 190.038 244.48 190.038 244.48C188.086 243.977 186.068 243.801 184.097 243.369C182.675 243.062 180.605 242.866 177.887 243.467L177.893 243.474Z" stroke="#1D1D1B" stroke-miterlimit="10"/>
<path d="M193.149 242.252C193.149 242.252 194.093 243.324 196.464 242.716C196.464 242.716 197.158 242.076 200.479 242.905L206.991 243.945C206.991 243.945 208.713 244.284 209.735 244.605C210.757 244.925 212.113 245.252 212.113 245.252V246.029L205.274 246.441L210.639 250.649L207.364 251.793C207.364 251.793 207.2 249.957 204.908 249.584L202.615 249.218C202.615 249.218 201.593 249.382 201.141 251.427C200.689 253.472 198.888 254.002 198.481 254.041C198.075 254.08 196.025 254.204 195.861 254.041C195.861 254.041 193.464 252.937 192.756 252.081C192.756 252.081 191.931 250.689 191.885 250.244L188.118 252.002V252.368L190.902 253.923C190.902 253.923 187.955 256.25 186.481 253.557C186.481 253.557 185.741 252.126 187.712 249.878C187.712 249.878 189.474 247.996 193.654 247.303C197.833 246.611 202.458 246.16 202.458 246.16C202.458 246.16 197.217 244.605 194.636 245.016C192.055 245.428 192.75 242.99 193.162 242.265L193.149 242.252Z" stroke="#1D1D1B" stroke-miterlimit="10"/>
<path d="M207.79 252.08L211.071 253.452C211.071 253.452 209.617 256.753 204.344 257.844C204.344 257.844 201.567 257.87 200.591 258.177C199.615 258.484 196.3 257.615 196.3 257.615V256.89C196.3 256.89 207.069 255.191 207.79 252.08V252.08Z" stroke="#1D1D1B" stroke-miterlimit="10"/>
<path d="M236.579 243.859L232.046 246.604L232.367 247.016H234.935C234.935 247.016 233.193 249.166 235.485 249.989C237.778 250.813 241.394 250.813 241.394 250.813C241.394 250.813 245.468 250.538 246.752 249.577C248.036 248.617 248.311 248.846 247.486 246.055C247.486 246.055 245.423 246.97 244.23 248.159C243.038 249.349 239.999 248.251 239.999 248.251C239.999 248.251 238.047 248.114 236.579 243.866V243.859Z" stroke="#1D1D1B" stroke-miterlimit="10"/>
<path d="M245.553 239.657C245.553 239.657 252.425 236.776 256.735 237.279C256.735 237.279 256.467 238.507 256.735 239.246C257.004 239.984 256.683 241.017 255.726 241.115C255.726 241.115 254.515 241.363 254.397 241.435C254.279 241.507 254.148 241.533 252.864 240.847C251.58 240.161 247.112 239.788 246.222 240.357L245.56 239.657H245.553Z" stroke="#1D1D1B" stroke-miterlimit="10"/>
<path d="M243.313 251.989V252.707L242.547 253.328H248.6C248.6 253.328 249.654 253.76 250.041 254.335C250.041 254.335 252.445 253.139 252.923 255.583C252.923 255.583 253.788 257.785 254.266 258.792C254.266 258.792 254.652 260.419 254.842 260.759C255.032 261.098 254.842 262.771 253.499 262.726C253.499 262.726 253.021 262.438 252.536 266.797L251.672 272.881C251.672 272.881 249.51 272.659 248.305 274.9C247.099 277.142 245.567 278.736 244.427 278.704C243.287 278.671 241.754 277.959 241.754 277.959L238.852 276.658C238.852 276.658 237.418 276.233 236.606 276.462C236.606 276.462 237.293 273.763 238.007 272.986C238.721 272.208 239.638 271.326 239.802 269.568C239.966 267.81 240.064 266.444 237.621 263.131C237.621 263.131 237.85 261.798 237.228 260.922C236.606 260.046 233.481 253.733 233.481 253.733C233.481 253.733 232.957 252.159 235.112 251.989C237.267 251.819 243.326 251.989 243.326 251.989H243.313Z" stroke="#1D1D1B" stroke-miterlimit="10"/>
<path d="M222.64 287.65L226.57 287.912V289.304L222.64 288.742V287.65Z" stroke="#1D1D1B" stroke-miterlimit="10"/>
<path d="M206.951 293.447L211.15 293.754C211.15 293.754 211.583 293.532 212.093 294.715C212.093 294.715 211.497 295.225 211.131 295.225C210.764 295.225 206.814 294.336 206.814 294.336L206.958 293.447H206.951Z" stroke="#1D1D1B" stroke-miterlimit="10"/>
<path d="M241.073 320.659C241.073 320.659 244.584 317.156 248.528 321.763L241.073 320.659Z" stroke="#1D1D1B" stroke-miterlimit="10"/>
<path d="M246.759 328.782C246.759 328.782 249.248 327.279 249.425 327.24C249.602 327.2 251.41 325.475 248.966 324.077C246.523 322.678 244.289 322.456 244.289 322.456C244.289 322.456 241.944 322.175 241.178 322.815C240.411 323.456 241.178 324.56 241.178 324.56C241.178 324.56 241.636 325.181 242.56 325.763C243.484 326.344 246.752 328.788 246.752 328.788L246.759 328.782Z" stroke="#1D1D1B" stroke-miterlimit="10"/>
<path d="M156.44 241.644C156.44 241.644 157.704 242.8 157.914 244.173C157.914 244.173 160.049 244.565 160.259 247.303C160.469 250.041 161.235 250.91 161.235 250.91L162.028 252.492C162.028 252.492 159.604 253.544 156.434 249.492C153.263 245.44 153.112 245.016 153.374 243.493C153.636 241.97 156.434 241.65 156.434 241.65L156.44 241.644Z" stroke="#1D1D1B" stroke-miterlimit="10"/>
<path d="M248.796 205.244C249.733 204.957 250.624 204.094 250.624 204.094C252.026 203.16 250.48 202.676 250.48 202.676L242.115 201.363C242.56 202.395 244.224 203.735 244.224 203.735C246.942 205.702 248.711 205.251 248.711 205.251L249.078 206.323C249.563 207.577 249.857 207.551 249.857 207.551L262.343 215.236L262.113 215.7L254.593 212.113L253.781 214.243L250.113 213.916L251.731 217.857L254.069 218.733L254.534 220.111C254.737 221.137 255.425 221.902 256.683 221.843C257.941 221.784 258.314 221.98 258.314 221.98L253.06 223.072L251.777 222.974L251.174 223.928L249.995 224.353L249.268 224.3L249.065 224.928L249.504 225.529L249.654 226.078C249.674 227.025 249.792 228.332 249.792 228.332C250.106 230.221 253.414 230.188 253.414 230.188C252.831 231.665 250.545 233.319 250.545 233.319C245.934 235.599 241.407 238.416 239.796 239.756C238.184 241.095 236.527 242.252 236.527 242.252C236.527 242.252 234.555 243.101 232.944 244.219C231.332 245.336 228.018 250.029 227.12 251.323C226.223 252.616 225.784 254.485 225.568 256.217C225.352 257.949 226.472 260.471 226.675 261.014C226.878 261.556 226.76 262.955 226.76 262.955C226.95 264.177 226.537 265.314 226.537 265.314C225.823 267.431 227.409 268.046 227.409 268.046C226.917 269.287 227.848 271.104 227.848 271.104C227.848 271.104 228.771 272.796 228.535 273.104C228.3 273.411 228.28 274.724 228.28 274.724C228.437 277.031 230.278 279.083 230.756 280.044C231.234 281.004 230.998 281.344 230.998 281.344L230.736 281.501C230.736 281.501 229.747 282.037 229.577 283.128C229.407 284.22 229.852 285.644 229.904 286.076C229.957 286.507 229.577 287.402 229.577 287.402L235.977 289.611C235.485 290.023 225.614 292.944 225.614 292.944C223.17 293.891 221.913 293.251 221.913 293.251C218.88 292.277 212.526 293.61 212.526 293.61C212.526 293.61 213.554 294.506 214.812 295.231C216.07 295.956 217.373 295.839 218.041 295.662C218.71 295.486 220.485 296.048 220.485 296.048C221.926 296.584 226.865 295.532 226.865 295.532C227.428 295.198 228.175 295.636 228.175 295.636L229.819 296.512L228.968 297.126L232.597 297.714C232.597 297.714 231.49 298.969 230.848 299.485C230.206 300.002 230.022 301.616 230.566 302.361C231.11 303.106 232.086 308.543 232.086 308.543C233.271 308.21 234.3 306.929 234.3 306.929L246.674 289.317C246.674 289.317 246.955 288.683 247.702 288.324C248.449 287.964 248.809 289.317 248.809 289.317C248.809 289.317 248.966 291.454 249.248 296.1C249.53 300.747 249.713 300.76 249.713 300.76C249.713 300.76 249.942 303.452 246.346 303.733C242.75 304.014 236.776 308.17 234.876 310.379C232.977 312.588 230.789 312.457 230.376 312.379C229.963 312.3 228.601 312.248 228.188 312.202C227.775 312.157 226.079 312.379 225.306 312.536C224.533 312.693 224.743 312.738 224.382 313.692C224.022 314.646 224.356 314.973 224.356 314.973L230.363 323.789L230.573 323.848C231.051 325.155 232.361 327.416 233.841 328.416C235.322 329.416 236.239 331.461 236.239 331.461V332.245C236.239 332.245 234.758 332.552 233.579 332.422C232.4 332.291 232.4 332.598 232.4 332.598C230.697 333.944 227.382 332.598 227.382 332.598C227.382 332.598 223.111 331.03 222.234 331.121C221.356 331.213 219.528 330.553 219.528 330.553L214.773 327.769C214.773 327.769 214.511 325.2 212.244 323.247C209.978 321.293 209.454 318.94 209.454 318.94H210.633C210.633 318.94 210.855 318.443 210.6 317.888C210.345 317.332 209.303 315.222 209.152 315.071C209.002 314.921 207.685 312.608 206.735 311.843L203.46 308.294L200.493 306.086L191.898 300.315C191.898 300.315 185.564 295.649 185.151 295.172C185.151 295.172 179.852 290.134 179.295 289.474C178.738 288.814 173.655 283.259 172.672 280.893C172.672 280.893 170.406 276.129 170.046 275.116C169.685 274.103 166.744 265.471 166.744 265.471L165.048 260.857C165.048 260.857 164.353 259.537 163.423 259.04C162.493 258.544 158.818 256.387 157.665 254.538C156.512 252.688 155.497 250.231 155.497 250.231C155.497 250.231 155.143 249.074 154.141 248.343C153.139 247.611 151.016 243.52 151.252 241.579C151.252 241.579 151.233 238.998 151.128 238.625C151.023 238.253 150.787 236.168 151.036 235.704C151.285 235.24 150.82 233.41 150.82 233.41C150.82 233.41 149.765 230.829 149.857 230.528C149.857 230.528 151.75 230.103 154.482 232.116C157.213 234.129 159.034 234.521 159.283 234.521C159.532 234.521 161.602 231.796 161.694 230.371C161.785 228.947 162.211 228.306 162.676 227.895C163.141 227.483 163.764 226.561 163.744 226.222C163.724 225.882 163.921 225.366 162.336 224.477C160.75 223.588 161.785 224.529 160.908 223.412L163.246 223.464L162.283 222.183C162.283 222.183 163.783 217.216 164.799 215.576C165.814 213.936 167.871 213.119 167.871 213.119C167.871 213.119 169.816 212.433 170.282 210.976C170.282 210.976 170.53 210.139 170.511 209.943L165.493 210.315C165.493 210.315 166.312 207.538 166.332 207.251C166.351 206.963 166.495 205.414 167.74 205.022C167.74 205.022 169.436 204.774 169.934 204.473L172.201 203.264L175.325 206.205L176.649 206.898L178.935 205.493C178.935 205.493 180.31 204.297 180.468 203.963C180.625 203.63 182.02 203.127 182.878 203.232C183.736 203.336 186.946 204.46 186.946 204.46C186.946 204.46 189.357 203.584 190.32 203.715C191.282 203.846 191.374 204.003 191.374 204.003L191.518 203.807L189.678 201.513C189.678 201.513 191.748 200.944 191.911 200.892C192.075 200.84 193.713 200.572 194.466 200.663C195.219 200.755 197.538 200.52 197.748 200.415C197.957 200.31 198.979 199.918 199.32 199.65C199.661 199.382 201.816 198.585 203.748 198.775C205.681 198.964 208.32 198.938 209.192 199.115C210.063 199.291 215.061 200.023 215.061 200.023C215.061 200.023 219.614 199.794 220.039 199.879C220.465 199.964 222.987 200.075 222.987 200.075C222.987 200.075 224.86 200.056 225.627 197.598L229.217 198.794L231.824 197.834L231.66 198.174L231.267 197.762C231.267 197.762 230.573 197.533 230.304 196.782C230.035 196.03 229.839 195.481 229.839 195.481L230.769 195.233C230.769 195.233 231.267 195.089 231.824 195.481C232.38 195.873 235.623 197.618 235.623 197.618C235.623 197.618 236.232 198.082 237.392 197.814C237.392 197.814 237.215 199.291 238.767 200.52C240.32 201.748 241.944 201.376 241.944 201.376C241.944 201.376 246.425 200.879 247.781 200.879C247.781 200.879 249.065 200.97 250.014 201.251C250.964 201.532 251.475 201.343 251.475 201.343C251.475 201.343 252.117 201.323 252.366 201.467C252.366 201.467 250.689 201.5 250.565 202.591L250.545 202.676V202.696" stroke="#1D1D1B" stroke-miterlimit="10"/>
<path d="M251.737 217.857L254.456 216.399L255.517 218.223L254.711 219.778L254.541 220.111" stroke="#1D1D1B" stroke-miterlimit="10"/>
<path d="M254.076 218.732L254.711 219.778" stroke="#1D1D1B" stroke-miterlimit="10"/>
<path d="M249.608 226.156L254.967 223.908L254.187 223.039L253.067 223.072L252.392 223.908L251.573 224.307L250.335 224.699L250.368 225.143L250.375 225.209L249.949 224.699L249.274 224.294" stroke="#1D1D1B" stroke-miterlimit="10"/>
<path d="M251.2 225.568L251.056 225.47L250.362 225.071" stroke="#1D1D1B" stroke-miterlimit="10"/>
<path d="M249.923 224.294L250.408 224.771H249.923V224.294Z" stroke="#1D1D1B" stroke-miterlimit="10"/>
<path d="M251.18 223.921L251.573 224.306" stroke="#1D1D1B" stroke-miterlimit="10"/>
<path d="M251.783 222.967L252.012 223.522L252.392 223.908" stroke="#1D1D1B" stroke-miterlimit="10"/>
<path d="M296.831 240.723L288.171 241.794L290.28 242.167L290.326 242.546L283.769 244.448L283.92 244.846L284.752 245.121C284.752 245.121 281.031 246.5 278.621 248.231C276.21 249.963 272.09 252.669 272.09 252.669C272.09 252.669 273.118 253.871 271.841 255.178C270.563 256.485 268.526 258.086 267.517 260.393C267.517 260.393 262.565 268.738 262.565 268.941C262.565 269.143 260.96 272.626 260.528 275.306C260.096 277.985 259.323 281.697 259.323 283.756C259.323 285.814 259.093 286.435 259.526 289.095C259.958 291.754 262.618 299.172 264.373 301.929C264.373 301.929 264.904 303.034 264.701 303.831C264.701 303.831 263.115 304.256 262.166 306.386C261.216 308.517 260.102 311.797 260.102 311.797C260.102 311.797 259.421 313.274 259.827 316.156C259.827 316.156 260.004 317.358 261.183 319.24C262.362 321.123 265.251 325.808 265.251 325.808L265.755 325.481L265.375 322.449L265.775 322.22L268.035 324.704C268.035 324.704 270.295 324.129 268.814 321.619C267.334 319.11 266.43 317.835 266.43 317.835C266.43 317.835 265.926 317.26 265.854 316.084C265.854 316.084 269.142 317.914 269.797 318.293C270.452 318.672 271.081 319.169 271.081 319.169C271.081 319.169 272.312 319.92 273.013 318.293C273.013 318.293 273.668 315.287 272.234 314.509C270.799 313.731 268.841 310.752 268.841 310.752C268.841 310.752 269.07 312.705 270.275 314.058L272.941 318.045C272.941 318.045 273.898 318.345 274.199 318.646C274.5 318.946 280.782 327.246 280.959 327.671C281.136 328.095 283.822 331.931 284.503 332.382C285.184 332.833 290.732 337.192 290.732 337.192C290.732 337.192 293.549 339.349 294.303 340.322C295.056 341.296 299.628 344.812 300.584 344.962C300.584 344.962 305.989 347.772 308.425 348.092C310.862 348.413 316.79 350.197 316.79 350.197C316.79 350.197 324.553 352.451 327.92 352.451C331.287 352.451 337.968 351.922 339.102 351.399C339.102 351.399 349.275 348.994 351.489 347.818C353.703 346.642 355.511 346.714 357.495 344.812C357.495 344.812 358.753 343.485 360.057 343.211C361.36 342.936 368.651 337.244 368.651 337.244L367.649 335.839L368.651 334.238C368.651 334.238 366.214 333.036 367.446 329.527L365.16 327.148C365.16 327.148 363.856 326.37 364.079 322.234L362.598 322.057L363.05 321.73L361.491 319.025C361.491 319.025 360.509 317.319 359.054 316.169C357.6 315.019 356.113 311.81 356.29 310.582C356.29 310.582 356.113 308.804 356.945 306.445C356.945 306.445 354.711 305.942 354.384 305.844C354.056 305.746 352.904 305.517 352.072 306.295C352.072 306.295 350.696 307.085 350.493 307.112C350.29 307.138 349.091 307.634 349.091 307.634C349.091 307.634 347.899 307.83 347.63 307.83C347.362 307.83 344.211 308.399 344.211 308.399C344.211 308.399 342.18 308.386 341.813 308.144C341.813 308.144 341.021 307.915 341.021 307.817C341.021 307.719 340.34 307.549 339.802 307.817C339.802 307.817 339.265 307.83 338.997 307.778C338.997 307.778 336.501 307.837 335.355 307.085C334.208 306.334 332.577 304.994 332.577 304.994L330.763 303.367C330.763 303.367 330.468 303.125 330.324 302.831C330.18 302.537 328.765 300.622 328.765 300.622L326.669 297.695L324.54 294.682C324.54 294.682 322.529 291.767 322.424 291.571C322.319 291.375 321.088 289.238 321.009 288.585C320.93 287.931 320.426 285.938 320.714 284.932L319.168 284.906C319.168 284.906 321.454 283.847 319.398 282.089C317.341 280.331 316.162 279.514 316.162 279.514C316.162 279.514 313.62 277.377 311.242 277.913C308.864 278.449 307.967 279.057 307.967 279.057C307.967 279.057 309.113 273.156 309.526 272.195C309.939 271.234 311.622 269.477 313.712 269.66L313.751 268.444L315.369 268.555C315.369 268.555 316.391 269.562 317 269.503C317.609 269.444 319.352 269.078 319.653 268.764C319.954 268.451 319.692 267.66 319.692 267.66L319.568 266.738C319.568 266.738 319.24 265.392 319.443 264.713C319.647 264.033 320.026 262.791 320.026 262.791L324.396 263.131C324.396 263.131 323.97 265.719 324.664 266.484C325.359 267.248 326.466 267.915 326.466 267.915C326.466 267.915 324.723 269.856 324.933 271.62C325.142 273.385 325.385 273.855 325.738 274.352C326.092 274.848 326.859 275.58 327.225 275.822C327.592 276.064 328.103 276.332 328.457 277.436C328.457 277.436 328.883 279.063 328.896 279.658C328.909 280.253 329.531 280.959 329.721 281.115C329.911 281.272 331.195 281.88 331.195 281.88C331.195 281.88 331.975 282.148 332.499 283.226C333.023 284.304 333.337 285.023 333.914 285.363C334.49 285.703 334.693 286.03 335.433 285.912C336.173 285.794 336.698 284.906 336.698 284.906C336.698 284.906 337.791 283.873 338.086 283.873C338.381 283.873 339.167 282.828 339.167 282.828C339.167 282.828 340.032 281.71 341.479 281.527C342.927 281.344 344.643 280.906 344.742 280.834C344.84 280.762 345.253 280.455 346.058 280.861C346.864 281.266 347.421 281.494 347.421 281.494L347.617 281.213L345.56 280.24L348.128 279.606C348.128 279.606 348.823 281.475 350.906 281.331C350.906 281.331 351.967 281.135 352.576 280.736C353.185 280.338 354.292 280.253 354.803 280.566C355.314 280.88 356.022 282.279 356.022 282.279L360.063 283.847L355.183 284.782C355.183 284.782 358.616 287.683 360.319 288.023C360.319 288.023 361.026 288.448 362.061 288.252C363.096 288.056 362.756 286.017 362.756 286.017C362.756 286.017 363.083 284.501 365.153 284.729C365.153 284.729 368.697 285.834 369.037 285.847L367.59 286.964C367.59 286.964 367.492 287.121 367.819 287.232C368.147 287.343 369.293 288.036 369.293 288.036C369.293 288.036 369.843 288.415 369.535 288.944C369.227 289.474 368.782 289.565 368.782 289.565C368.782 289.565 366.895 290.016 365.821 289.323C364.747 288.631 364.262 288.01 364.262 288.01C364.262 288.01 362.985 286.271 362.873 286.141C362.762 286.01 362.821 286.075 362.821 286.075" stroke="#1D1D1B" stroke-miterlimit="10"/>
<path d="M353.12 277.351L355.406 276.979C355.406 276.979 355.956 278.521 355.406 279.07C354.856 279.619 352.707 279.488 352.707 279.488C352.707 279.488 353.88 278.906 354.063 278.606C354.246 278.305 354.011 277.893 353.12 277.344V277.351Z" stroke="#1D1D1B" stroke-miterlimit="10"/>
<path d="M339.265 289.48V290.304L340.281 294.806C340.281 294.806 336.501 294.48 336.056 293.042C335.61 291.604 336.029 291.088 336.671 290.618C337.313 290.147 339.272 289.487 339.272 289.487L339.265 289.48Z" stroke="#1D1D1B" stroke-miterlimit="10"/>
<path d="M339.39 296.42L347.644 295.087C347.644 295.087 346.491 296.668 344.146 297.283C341.8 297.897 339.39 296.42 339.39 296.42V296.42Z" stroke="#1D1D1B" stroke-miterlimit="10"/>
<path d="M301.063 283.905C301.063 283.905 301.908 282.736 302.196 282.363C302.484 281.991 303.061 281.252 304.626 281.252C306.192 281.252 306.644 281.089 306.644 281.089C306.644 281.089 306.585 283.389 305.019 284.396C303.454 285.402 302.504 285.056 302.504 285.056C302.504 285.056 301.43 284.376 301.063 283.905Z" stroke="#1D1D1B" stroke-miterlimit="10"/>
<path d="M284.981 274.358L297.774 266.131C297.774 266.131 299.726 264.739 299.805 264.582C299.884 264.425 300.165 263.87 301.875 265.098L304.783 266.686C304.783 266.686 302.032 268.633 301.757 269.071C301.482 269.509 298.128 271.058 297.892 271.019C297.656 270.98 294.787 271.934 294.388 272.293C293.988 272.653 290.962 273.685 290.405 273.842C289.848 273.999 285.427 275.09 285.427 275.09L284.988 274.358H284.981Z" stroke="#1D1D1B" stroke-miterlimit="10"/>
<path d="M312.893 255.316L313.214 256.688L312.284 257.008C312.284 257.008 311.76 256.989 311.491 256.825C311.223 256.662 309.69 256.42 309.022 257.511C308.354 258.603 306.572 261.955 306.572 261.955L307.24 263.007L310.22 263.393L308.963 264.099L309.107 264.504L312.873 263.288L311.498 262.7C311.498 262.7 312.186 262.177 312.205 262.073C312.225 261.968 313.397 261.589 313.397 261.589C313.397 261.589 315.304 260.596 316.457 259.328C317.609 258.06 317.852 257.348 317.957 257.087C318.061 256.825 318.363 255.368 316.679 255.087L312.893 255.309V255.316Z" stroke="#1D1D1B" stroke-miterlimit="10"/>
<path d="M304.017 263.353C304.017 263.353 304.535 262.464 304.58 262.386C304.626 262.308 305.137 261.563 305.242 261.523C305.347 261.484 305.432 261.393 305.825 261.628C306.218 261.863 306.716 262.079 306.716 262.079L306.244 262.157L307.371 262.987C307.371 262.987 307.292 263.948 306.762 264.17C306.231 264.392 305.373 263.967 305.373 263.967L304.024 263.36L304.017 263.353Z" stroke="#1D1D1B" stroke-miterlimit="10"/>
<path d="M315.343 268.529V268.476L315.598 266.117L319.437 266.738C319.483 266.745 319.509 266.751 319.509 266.751" stroke="#1D1D1B" stroke-miterlimit="10"/>
<path d="M307.469 244.363L314.203 244.801L314.111 245.213L311.491 245.592L315.356 249.728C315.356 249.728 314.38 249.807 314.111 249.885C313.843 249.963 313.81 250.12 312.899 249.395C311.989 248.67 310.849 247.931 310.849 247.931C310.849 247.931 308.877 246.088 308.497 245.036C308.497 245.036 307.534 244.657 307.476 244.356L307.469 244.363Z" stroke="#1D1D1B" stroke-miterlimit="10"/>
<path d="M296.634 240.722L291.708 236.004L291.931 235.533L294.754 236.612L294.669 236.755L298.036 235.533L301.108 233.645L301.488 233.553L302.189 232.972L304.554 233.769L305.877 233.782L307.816 231.652L307.404 231.22C307.404 231.22 306.604 231.828 306.414 231.874C306.224 231.92 305.635 231.926 305.262 231.789C304.888 231.652 304.554 231.586 304.554 231.586L303.991 231.148L305.052 230.534L306.493 229.868L304.2 228.005L303.349 225.594L301.901 225.718C301.901 225.718 301.449 226.744 301.246 226.979C301.043 227.214 300.781 227.175 300.781 227.175C300.781 227.175 299.936 227.28 299.844 228.149C299.753 229.018 300.021 229.613 300.021 229.613L300.702 230.103L300.467 230.24L300.27 230.351L300.06 229.691C300.06 229.691 299.563 228.502 299.346 228.299C299.13 228.097 298.285 226.698 296.536 226.613L294.368 228.456L297.047 232.331L300.132 230.404L300.814 230.044L301.698 229.959L302.772 230.064L302.969 232.168L301.063 232.063L300.683 230.155" stroke="#1D1D1B" stroke-miterlimit="10"/>
<path d="M304.168 228.031L303.146 228.489L303.237 228.417L302.517 228.43L302.759 229.443L302.726 230.116H303.218L302.766 229.462" stroke="#1D1D1B" stroke-miterlimit="10"/>
<path d="M303.152 228.541V229.946L303.218 230.168L303.965 231.103" stroke="#1D1D1B" stroke-miterlimit="10"/>
<path d="M306.152 229.646L306.093 229.574C306.093 229.574 305.471 229.437 305.059 229.607C304.646 229.776 305.098 230.508 305.098 230.508" stroke="#1D1D1B" stroke-miterlimit="10"/>
<path d="M304.561 231.646L303.807 232.201L302.897 232.116L304.587 233.802" stroke="#1D1D1B" stroke-miterlimit="10"/>
<path d="M301.187 233.691L297.001 232.253C297.001 232.253 297.283 232.273 296.68 233.854C296.078 235.435 297.532 235.488 297.532 235.488H298.128" stroke="#1D1D1B" stroke-miterlimit="10"/>
<path d="M305.74 233.802C305.74 233.802 306.539 233.567 307.679 233.802C308.818 234.037 310.129 234.318 310.129 234.318C310.129 234.318 311.105 234.495 311.707 234.423C312.31 234.351 312.978 234.181 313.293 233.972C313.293 233.972 313.345 233.841 313.686 233.998L314.793 234.214L317.799 234.789C317.799 234.789 319.633 235.043 319.869 235.05C320.105 235.057 320.767 235.07 321.566 234.743C322.365 234.416 323.066 234.115 323.066 234.115L322.974 233.553L320.95 232.338C320.95 232.338 320.367 231.292 320.367 231.116C320.367 230.94 319.686 230.175 319.404 229.985C319.123 229.796 317.865 228.62 317.865 228.62L316.319 227.273L315.074 226.136L313.725 224.784C313.725 224.784 312.651 223.856 311.773 223.777C310.895 223.699 310.725 223.725 310.725 223.725" stroke="#1D1D1B" stroke-miterlimit="10"/>
<path d="M303.257 225.6L304.574 225.156L305.668 224.921L306.283 224.365L306.637 224.307H307.993L312.002 223.535L310.247 220.876C310.247 220.876 308.982 219.124 308.871 219.039C308.76 218.954 308.38 218.347 308.046 218.242C307.711 218.138 306.323 217.014 306.323 217.014C306.323 217.014 306.126 217.608 305.569 217.778C305.569 217.778 305.124 217.817 304.633 217.412C304.141 217.007 303.748 216.961 303.748 216.961L303.526 215.53L304.829 214.021L306.349 217.085" stroke="#1D1D1B" stroke-miterlimit="10"/>
<path d="M306.303 224.418L304.358 223.059L304.233 223.098C304.233 223.098 302.53 222.444 302.432 222.438C302.432 222.438 301.469 222.202 301.384 222.202C301.299 222.202 298.272 221.68 298.272 221.68L298.711 222.771L301.089 224.66L304.174 223.13" stroke="#1D1D1B" stroke-miterlimit="10"/>
<path d="M301.908 225.673L301.122 224.601C301.122 224.601 299.477 224.176 299.353 224.124C299.229 224.072 298.58 223.837 298.397 223.706C298.213 223.575 296.635 222.667 296.635 222.667L297.624 221.432L297.663 221.445L298.325 221.713" stroke="#1D1D1B" stroke-miterlimit="10"/>
<path d="M296.569 226.673L294.774 225.163L292.809 224.104L293.313 223.065L294.008 223.02L294.08 223.078L294.06 223.941L295.488 223.836L294.8 225.117" stroke="#1D1D1B" stroke-miterlimit="10"/>
<path d="M293.851 224.601L294.145 223.882H293.608L293.877 224.633" stroke="#1D1D1B" stroke-miterlimit="10"/>
<path d="M293.3 223.02L293.713 223.928L292.809 224.104" stroke="#1D1D1B" stroke-miterlimit="10"/>
<path d="M294.473 223.065H295.383L295.351 223.902L294.879 223.915L294.473 223.065Z" stroke="#1D1D1B" stroke-miterlimit="10"/>
<path d="M295.102 220.993L294.054 222.79L294.008 223.019L294.08 223.078L294.558 223.143L294.473 222.627L295.383 222.692L295.102 220.993Z" stroke="#1D1D1B" stroke-miterlimit="10"/>
<path d="M296.589 222.699L295.711 222.3L295.102 220.993L297.119 221.549L297.067 221.424H297.63" stroke="#1D1D1B" stroke-miterlimit="10"/>
<path d="M295.718 222.699L295.776 222.248H295.285L295.383 222.692" stroke="#1D1D1B" stroke-miterlimit="10"/>
<path d="M296.739 222.595L295.501 223.941L295.717 223.065L296.739 222.595Z" stroke="#1D1D1B" stroke-miterlimit="10"/>
<path d="M295.285 222.653H295.776V222.699V223.124H295.285V222.653Z" stroke="#1D1D1B" stroke-miterlimit="10"/>
<path d="M296.549 222.68L295.776 222.699" stroke="#1D1D1B" stroke-miterlimit="10"/>
<path d="M304.358 223.052L303.526 215.531L302.766 212.498L298.442 212.544L299.025 211.629L295.023 210.937L295.868 213.139L287.85 213.165C287.85 213.165 287.221 213.113 286.828 212.714L286.442 212.459L287.654 211.093L283.245 211.348L285.184 210.571C285.184 210.571 287.628 208.028 288.014 207.46C288.4 206.891 288.82 206.244 288.964 205.944C289.108 205.643 290.136 203.48 290.346 202.186C290.556 200.892 290.772 198.847 290.772 198.847C290.772 198.847 290.89 196.677 290.798 196.272C290.706 195.867 290.556 195.187 290.012 194.671C289.468 194.155 288.571 192.841 288.571 192.841L286.946 190.802L284.64 187.94L282.623 185.45L280.691 183.156L279.204 181.451L277.199 179.092L275.391 176.732L273.845 174.458C273.845 174.458 271.474 171.282 271.258 171.171C271.042 171.06 269.548 169.433 269.548 169.433C269.548 169.433 267.026 167.309 266.803 167.165C266.581 167.021 264.53 165.518 264.53 165.518L261.078 163.14C261.078 163.14 257.796 161.042 257.685 161.016C257.574 160.99 254.849 159.428 254.849 159.428C254.849 159.428 253.892 158.905 253.755 158.709C253.617 158.513 252.058 157.114 252.058 157.114C252.058 157.114 251.023 156.35 249.674 156.866C249.674 156.866 249.359 155.455 247.237 154.605C245.115 153.755 244.387 152.527 244.171 152.082C243.955 151.638 239.999 150.671 239.999 150.671C239.999 150.671 232.518 153.193 231.214 153.337L220.661 155.742C220.661 155.742 211.144 158.578 209.349 159.741C207.554 160.905 199.235 163.44 199.235 163.44L189.062 167.054C189.062 167.054 184.123 168.877 183.107 168.753C182.092 168.629 180.775 168.426 178.797 167.557C176.819 166.688 171.408 165.139 171.408 165.139C171.408 165.139 160.069 160.963 159.139 160.781C158.209 160.598 149.536 158.186 149.536 158.186L148.069 164.427C148.069 164.427 147.02 165.858 146.182 166.577C146.182 166.577 146.837 168.191 146.451 169.204C146.064 170.217 145.344 171.354 145.344 171.655C145.344 171.955 144.747 174.55 144.747 174.55C144.747 174.55 141.066 187.267 140.169 188.489L137.234 195.71C137.234 195.71 136.664 198.01 136.513 199.474C136.363 200.938 134.686 207.087 133.251 208.342C133.251 208.342 132.203 209.806 131.902 211.329C131.601 212.851 130.828 214.256 130.074 214.4C129.321 214.544 128.129 214.25 127.827 213.537C127.827 213.537 128.784 212.257 127.349 211.479L125.764 211.57C125.764 211.57 124.834 211.361 124.565 211.453C124.297 211.544 122.77 211.544 122.77 211.361C122.77 211.178 125.79 210.165 125.79 210.165C125.79 210.165 123.216 206.761 117.589 208.819L118.244 209.597L116.24 209.839L116.482 208.643L115.761 207.865L114.084 209.538C114.084 209.538 108.248 207.388 108.038 207.238C107.829 207.087 105.824 206.192 105.372 206.192C104.92 206.192 102.411 205.179 102.411 205.179C102.411 205.179 101.062 204.343 100.676 204.343C100.676 204.343 98.0749 203.356 97.505 203.48C97.505 203.48 95.7692 203.389 95.5006 203.572C95.232 203.755 91.7275 203.245 91.7275 203.245C91.7275 203.245 88.164 202.382 87.9282 202.258C87.6924 202.134 84.9346 200.677 84.5481 200.35C84.1616 200.023 82.3013 199.278 82.3013 199.278L81.9541 199.997" stroke="#1D1D1B" stroke-miterlimit="10"/>
<path d="M91.02 200.199H97.2234C97.2234 200.199 95.3303 201.193 95.1796 201.343C95.029 201.493 93.7123 201.944 93.1228 201.781C92.5332 201.617 90.8694 201.127 90.8694 201.127L91.0135 200.199H91.02Z" stroke="#1D1D1B" stroke-miterlimit="10"/>
<path d="M112.82 206.473L114.15 205.107L115.925 206.63H114.654L115.192 207.695L114.838 207.996L112.82 206.473Z" stroke="#1D1D1B" stroke-miterlimit="10"/>
<path d="M96.981 218.393L105.045 222.157C105.045 222.157 99.5553 223.268 96.981 218.393V218.393Z" stroke="#1D1D1B" stroke-miterlimit="10"/>
<path d="M91.4459 216.04C91.4459 216.04 90.6336 216.086 89.4283 214.968C88.223 213.851 86.3823 214.968 86.3823 214.968L91.2297 216.85L91.4459 216.04Z" stroke="#1D1D1B" stroke-miterlimit="10"/>
<path d="M82 213.642L83.2577 213.942C83.2577 213.942 84.5875 212.87 85.3146 214.197C85.3146 214.197 85.0591 214.687 85.7862 215.661C86.5133 216.635 86.7295 217.83 86.7295 217.83L82 215.68" stroke="#1D1D1B" stroke-miterlimit="10"/>
<path d="M193.975 169.661L197.656 172.229L197.263 172.772L193.562 170.047L193.975 169.661Z" stroke="#1D1D1B" stroke-miterlimit="10"/>
<path d="M199.346 174.523C199.346 174.523 200.584 174.026 202.464 175.823C204.344 177.62 204.894 178.307 204.914 178.529C204.934 178.751 199.346 174.529 199.346 174.529V174.523Z" stroke="#1D1D1B" stroke-miterlimit="10"/>
<path d="M291.938 319.292C291.938 319.292 297.761 309.856 298.331 309.751C298.901 309.647 302.386 304.151 306.493 304.046C306.493 304.046 307.587 302.438 308.517 302.438C309.447 302.438 313.974 303.53 313.974 303.53C313.974 303.53 315.376 305.137 315.742 305.137C315.742 305.137 317.459 306.431 318.133 306.484C318.808 306.536 321.821 307.418 321.566 312.084L321.579 312.81L322.083 313.901L323.538 313.385C323.538 313.385 326.033 315.822 324.265 318.103C322.496 320.384 321.094 322.507 320.524 324.586H319.954L319.384 323.187H318.919C318.919 323.187 319.234 324.481 317.203 325.886C315.172 327.291 307.331 331.591 307.331 331.591C307.331 331.591 304.888 332.937 304.056 330.657C304.056 330.657 303.899 328.892 304.888 328.69C305.877 328.487 309.618 326.252 310.502 324.644C311.386 323.037 314.445 319.769 314.445 319.769V319.096L309.1 320.031L309.467 318.992C309.467 318.992 305.674 317.279 302.864 321.272L307.751 320.495C307.751 320.495 303.539 324.54 296.215 324.331C296.215 324.331 294.034 324.122 293.615 321.945C293.195 319.769 291.951 319.299 291.951 319.299L291.938 319.292Z" stroke="#1D1D1B" stroke-miterlimit="10"/>
<path d="M301.764 316.234L303.061 311.464C303.061 311.464 300.984 311.052 300.408 314.94L301.082 316.234H301.757H301.764Z" stroke="#1D1D1B" stroke-miterlimit="10"/>
<path d="M296.229 330.317C296.229 330.317 298.626 330.173 298.94 330.121C299.255 330.069 300.028 330.206 300.997 331.147L299.857 332.173C299.857 332.173 298.233 332.127 297.801 331.977C297.368 331.827 296.857 331.859 296.229 330.317V330.317Z" stroke="#1D1D1B" stroke-miterlimit="10"/>
<path d="M369.155 285.846L369.797 285.735C369.797 285.735 368.507 286.199 368.265 284.134C368.022 282.069 367.806 281.35 367.865 281.233C367.924 281.115 366.365 280.507 366.273 280.364C366.273 280.364 365.625 280.063 365.166 278.932C364.708 277.802 363.581 274.946 363.581 274.946L363.915 274.881L361.256 271.221C361.256 271.221 359.847 269.62 359.808 269.097C359.769 268.574 359.991 268.137 360.266 267.856C360.542 267.575 360.987 266.614 360.987 266.614L362.009 263.889C362.009 263.889 361.465 262.628 360.581 263.667C360.581 263.667 360.129 263.928 359.795 263.948C359.461 263.967 358.013 264.627 358.013 264.627L357.613 264.006L359.12 262.386L352.235 258.739L351.554 259.72L360.207 267.829" stroke="#1D1D1B" stroke-miterlimit="10"/>
<path d="M361.072 266.588C361.072 266.588 362.467 266.124 363.273 266.176C364.079 266.228 365.533 266.209 365.533 266.209C365.533 266.209 366.129 266.196 366.437 266.385C366.437 266.385 366.66 266.392 366.66 266.666C366.66 266.941 367.112 267.542 367.112 267.542C367.112 267.542 367.55 268.274 369.424 268.457C369.424 268.457 369.824 268.333 370.714 269.404L373.78 270.509L374.291 272.665C374.291 272.665 374.245 272.953 374.625 273.103L375.005 273.253L376.112 271.241L379.066 275.626L377.887 275.959C377.887 275.959 378.333 276.253 379.728 276.227C381.123 276.201 382.315 276.416 382.682 278.044C382.682 278.044 383.016 278.207 383.206 278.233C383.396 278.259 385.283 279.213 385.283 279.213C385.283 279.213 386.115 279.632 387.123 280.39C388.132 281.148 389.698 280.043 389.698 280.043L390.379 281.566L388.637 283.964C388.637 283.964 388.65 284.278 387.726 284.33C387.687 284.33 387.641 284.33 387.595 284.33C386.547 284.356 385.774 284.33 385.774 284.33L382.623 284.677L381.818 284.5L381.752 284.082L382.25 284.35L381.215 284.807L377.94 285.062L378.582 285.866C378.582 285.866 379.898 285.278 382.099 285.533C384.3 285.787 387.091 286.617 387.091 286.617L388.335 285.441L385.741 284.304" stroke="#1D1D1B" stroke-miterlimit="10"/>
<path d="M387.837 284.39L392.069 284.939L392.141 285.305L386.992 286.612C386.992 286.612 387.857 286.768 387.995 286.821C388.132 286.873 388.388 286.945 388.479 287.128C388.571 287.311 389.37 287.69 389.567 287.762C389.763 287.834 390.674 287.932 391.499 287.428C392.325 286.925 393.386 286.226 393.386 286.226C393.386 286.226 393.222 287.481 393.641 287.742C394.06 288.003 394.689 288.324 394.689 288.324C394.689 288.324 393.039 288.539 392.547 289.356C392.056 290.173 392.691 291.598 392.691 291.598C392.691 291.598 392.777 292.049 392.665 292.369L394.748 291.003L396.039 293.245L394.27 294.048C394.27 294.048 394.25 294.055 394.224 294.068C394.028 294.14 393.288 294.342 393.176 293.591C393.052 292.722 393.019 292.539 392.685 292.388" stroke="#1D1D1B" stroke-miterlimit="10"/>
<path d="M394.329 294.074C394.329 294.074 395.364 294.283 395.711 294.414C396.058 294.545 396.831 295.251 396.831 295.251C396.831 295.251 397.631 296.126 397.768 296.505C397.906 296.884 398.22 297.218 398.168 298.113C398.115 299.008 397.788 299.832 397.788 299.832L399.38 299.668L402.511 303.746L400.441 304.707L408.956 307.393C408.956 307.393 408.858 307.843 408.852 307.928C408.845 308.013 408.583 308.477 408.465 308.726C408.347 308.974 407.699 310.065 407.954 311.281C408.21 312.496 409.12 313.398 409.12 313.398C409.12 313.398 410.43 314.47 410.568 315.705C410.568 315.705 410.823 316.822 410.777 317.371C410.732 317.92 410.928 318.639 411.02 318.822C411.112 319.005 411.485 319.848 411.924 320.168C411.924 320.168 412.133 320.358 412.435 320.378C412.736 320.397 413.496 320.678 413.633 320.985C413.771 321.292 413.935 321.704 413.424 322.848L415.481 322.619C415.481 322.619 416.214 324.312 416.483 324.606C416.752 324.9 416.994 325.148 417.387 325.292C417.78 325.436 419.555 325.194 420.767 324.697C421.979 324.2 423.014 324.383 423.296 325.043C423.296 325.043 423.669 325.671 423.702 326.03C423.734 326.39 424.095 326.612 424.095 326.612C424.095 326.612 424.684 327.017 424.992 327.442C425.3 327.867 427.383 330.134 427.383 330.134C427.383 330.134 429.302 332.369 429.65 333.219C429.65 333.219 430.691 334.996 430.796 336.133L429.322 336.989C429.322 336.989 428.464 337.395 428.228 337.382C427.992 337.368 427.462 337.787 427.553 338.264C427.645 338.741 428.412 339.329 428.412 339.329C428.412 339.329 429.152 340.237 428.988 341.865C428.824 343.492 429.577 346.753 429.577 346.753L430.278 346.844L431.621 342.891C431.621 342.891 431.818 341.629 432.244 341.276C432.669 340.923 433.102 341.146 433.102 341.146C433.102 341.146 433.337 341.211 433.6 341.041C433.862 340.871 434.615 340.29 434.615 340.29C434.615 340.29 432.348 340.564 432.021 339.12C432.021 339.12 431.982 338.211 432.126 337.989C432.27 337.767 431.968 337.199 431.68 337.055C431.392 336.911 430.809 336.186 430.809 336.186C430.809 336.186 431.837 335.075 431.975 334.924C432.113 334.774 432.342 334.362 432.388 334.238C432.434 334.114 433.023 332.925 433.279 332.735C433.534 332.546 433.77 332.029 434.838 332.127C435.905 332.225 437.504 333.297 437.504 333.297L439.665 334.33L441.558 335.173C441.558 335.173 441.48 334.101 441.932 333.532C442.384 332.964 443.864 333.349 443.864 333.349C443.864 333.349 444.788 334.604 445.521 334.82C446.255 335.035 447.251 334.846 447.578 334.421L447.526 334.323L446.74 332.814L443.825 333.454C443.825 333.454 444.133 332.016 444.133 331.931C444.133 331.846 444.441 330.788 445.842 331.101C445.842 331.101 446.17 330.853 446.281 330.441L445.253 329.644L452.105 328.154V328.291L452.236 330.056L451.07 329.749L449.858 331.663L449.432 331.533L449.295 329.618C449.295 329.618 447.932 330.938 447.749 332.154C447.565 333.369 447.598 334.349 447.598 334.349L450.185 335.656L449.819 337.617C449.819 337.617 451.338 338.061 452.164 337.617C452.989 337.172 453.945 335.395 453.945 335.395L455.963 331.291L452.845 327.723L452.203 328.252L451.967 328.043L452.72 327.749L449.773 325.945L449.504 326.259L450.022 326.344C450.022 326.344 449.707 326.069 449.55 325.344C449.55 325.344 449.452 325.128 449.602 325.05C449.753 324.972 450.775 324.259 450.775 324.259L452.341 323.292C452.341 323.292 453.009 322.776 453.14 322.599C453.271 322.423 453.435 322.331 453.1 321.946C452.766 321.56 452.714 321.384 452.236 321.711C451.758 322.037 449.544 324.227 449.544 324.227L449.013 323.906C449.013 323.906 450.035 323.357 450.218 322.331C450.218 322.331 450.356 321.946 449.904 320.959C449.904 320.959 449.222 319.619 449.19 319.338L448.371 319.835L448.07 319.338L451.725 317.515L447.768 317.483L449.183 318.169C449.183 318.169 445.286 318.332 444.821 318.43C444.821 318.43 442.731 318.613 441.938 319.11C441.938 319.11 439.161 320.273 438.394 321.064C438.394 321.064 435.368 323.377 435.231 323.586C435.093 323.795 433.423 324.736 433.305 324.658C433.187 324.579 432.499 322.913 432.591 322.39C432.682 321.867 432.905 319.887 433.069 319.724C433.233 319.561 432.859 319.234 434.038 318.783L435.067 318.214C435.067 318.214 435.886 317.528 437.143 318.156C437.143 318.156 437.995 318.75 438.132 318.992C438.27 319.234 438.925 319.456 439.613 318.979C440.301 318.502 442.495 316.894 443.091 316.757C443.091 316.757 446.425 315.234 448.377 315.025C448.377 315.025 455.059 313.503 455.976 313.503C456.893 313.503 458.19 313.176 458.387 312.725C458.583 312.274 458.714 311.549 458.655 311.353C458.596 311.157 459.088 310.248 459.369 310.026C459.369 310.026 459.356 310.993 459.788 311.725C460.221 312.457 461.4 312.575 461.4 312.575C461.4 312.575 462.284 312.47 462.658 312.411C463.031 312.353 465.749 312.261 467.616 313.084C469.483 313.908 471.959 314.829 471.959 314.829" stroke="#1D1D1B" stroke-miterlimit="10"/>
<path d="M471.94 318.626C471.94 318.626 467.551 314.588 466.883 314.287C466.883 314.287 464.236 312.281 463.09 312.405" stroke="#1D1D1B" stroke-miterlimit="10"/>
<path d="M461.511 327.389C461.511 327.389 459.919 327.762 460.037 328.847C460.037 328.847 460.247 329.605 460.771 330.206C461.295 330.807 461.347 331.219 461.347 331.219C461.347 331.219 458.996 330.088 458.95 329.102C458.904 328.115 459.284 327.102 461.511 327.389Z" stroke="#1D1D1B" stroke-miterlimit="10"/>
<path d="M438.539 332.715L441.074 333.003C441.074 333.003 440.871 332.271 440.825 332.029C440.779 331.787 440.759 331.611 439.947 331.702C439.135 331.794 438.539 331.84 438.539 331.84V332.715V332.715Z" stroke="#1D1D1B" stroke-miterlimit="10"/>
<path d="M166.102 349.432C166.102 349.432 184.326 367.115 191.82 380.316C199.313 393.517 205.052 408.959 205.052 408.959C205.052 408.959 205.543 410.775 207.351 410.704L208.576 415.311L212.762 422.074L214.995 421.428C214.995 421.428 213.77 423.878 213.77 424.597C213.77 425.316 214.347 427.335 215.932 428.773C217.517 430.211 221.775 437.268 221.775 437.268C221.775 437.268 222.352 438.059 223.432 439.065C224.513 440.072 232.092 446.626 233.966 449.214C235.839 451.802 238.007 452.096 238.007 452.096C238.007 452.096 239.088 452.887 239.809 453.965C239.809 453.965 242.043 455.331 243.274 455.331C244.506 455.331 249.982 457.853 250.637 458.5C251.292 459.147 254.895 462.389 255.687 463.467C256.48 464.545 258.648 466.133 259.585 466.061C260.522 465.99 273.944 459.147 273.944 459.147L299.13 445.11C299.13 445.11 300.139 443.888 301.515 445.613C302.89 447.339 307.07 452.599 307.286 453.318C307.502 454.037 311.472 459.938 311.904 460.52C312.336 461.101 316.09 464.408 316.954 467.068C317.819 469.728 328.575 481.896 328.575 481.896L328.935 480.889L320.275 466.78C320.275 466.78 319.051 465.415 318.474 464.983C317.898 464.552 316.529 461.382 316.529 461.382C316.529 461.382 310.974 453.965 310.758 453.103C310.541 452.24 306.86 446.26 306.86 446.26L304.914 444.32C304.914 444.32 303.257 442.954 304.914 442.091C306.572 441.229 313.79 437.34 314.295 436.765C314.799 436.19 317.688 434.243 321.441 436.981C325.195 439.719 325.988 439.791 325.988 439.791L330.389 440.438C330.389 440.438 332.479 438.856 333.062 440.725V442.451L334.863 443.816L332.047 444.176C332.047 444.176 332.767 443.169 330.966 442.451C329.165 441.732 330.678 439.209 330.678 439.209C330.678 439.209 330.389 437.196 328.876 436.83C327.363 436.465 327.579 435.033 327.579 435.033L328.077 434.72L329.204 435.844L330.01 432.276L331.569 432.975L331.352 435.739L331.837 435.929L333.291 432.23L335.171 435.314C335.171 435.314 336.298 435.073 336.973 435.288C337.647 435.504 347.912 439.281 349.465 439.418C349.465 439.418 353.415 434.648 350.945 432.178C350.945 432.178 347.585 431.321 347.159 431.132C346.733 430.942 345.947 430.302 345.705 429.982C345.462 429.662 341.702 426.446 338.748 425.61L338.132 425.714L338.027 427.165L333.435 427.218L328.922 424.055V423.571L331.719 423.708L332.178 422.29C332.178 422.29 332.224 422.316 332.302 422.362C332.335 422.382 332.368 422.395 332.407 422.421C332.911 422.695 334.104 423.316 334.543 423.316C335.106 423.316 336.292 423.264 336.586 423.127C336.704 423.074 336.128 422.427 335.263 421.676C334.018 420.598 332.184 419.291 330.999 419.212C330.999 419.212 329.63 417.069 328.175 418.219L329.413 419.238C329.413 419.238 329.761 419.585 329.787 420.179C329.813 420.774 332.086 422.323 332.086 422.323L332.328 421.264L335.165 421.676H335.204L335.237 421.689H335.309" stroke="#1D1D1B" stroke-miterlimit="10"/>
<path d="M326.21 418.435L328.208 421.258C328.208 421.258 326.132 421.879 324.874 421.107C323.616 420.336 324.933 419.454 324.933 419.454L326.21 418.435V418.435Z" stroke="#1D1D1B" stroke-miterlimit="10"/>
<path d="M330.985 419.108C330.985 419.108 331.359 417.095 331.699 416.539C332.04 415.984 332.636 415.605 333.579 415.272L332.643 413.801C332.643 413.801 332.138 413.082 331.726 412.912C331.313 412.742 327.501 410.553 327.501 410.553L325.535 409.547L326.649 409.168L324.278 407.41L321.926 405.619L318.625 403.077L318.887 406.384C318.887 406.384 317.917 406.449 316.483 405.998C315.048 405.547 313.823 405.208 313.823 405.208C313.823 405.208 313.122 404.018 311.995 403.528C310.869 403.038 309.611 402.025 309.611 402.025L307.371 400.888C307.371 400.888 306.487 400.607 305.51 400.888L304.089 401.038L303.873 401.359L305.262 402.711L302.157 402.548L300.886 402.587L298.547 402.169H298.495L298.39 402.143L294.348 401.417L295.2 401.254L294.27 401.692C294.27 401.692 294.807 399.777 296.176 400.927L297.44 401.3L298.416 402.189L299.504 401.725L297.25 401.195L296.183 400.855L296.248 399.326L299.471 401.803L301.371 401.332L297.021 399.862L296.929 399.816L296.877 399.764L296.798 399.777" stroke="#1D1D1B" stroke-miterlimit="10"/>
<path d="M296.183 399.425L296.549 398.209C296.549 398.209 299.366 398.307 300.637 399.425C300.637 399.425 301.384 399.987 301.678 400.457C301.973 400.928 303.86 401.372 303.86 401.372H301.259L300.899 402.64" stroke="#1D1D1B" stroke-miterlimit="10"/>
<path d="M304.063 401C304.063 401 301.24 397.15 300.919 396.883C300.919 396.883 300.054 395.36 298.521 396.007C298.521 396.007 298.01 396.157 297.676 396.811C297.342 397.464 296.556 398.203 296.556 398.203C296.556 398.203 295.678 397.431 295.318 397.085C294.958 396.739 293.975 396.288 293.975 396.288C293.975 396.288 288.767 393.452 288.414 393.386C288.06 393.321 286.553 392.726 284.929 392.628L285.197 393.929L278.097 389.609C278.097 389.609 277.782 389.583 277.874 389.165C277.966 388.746 278.11 388.766 277.972 388.465C277.835 388.165 277.533 388.021 277.062 387.988C276.59 387.956 276.302 387.76 276.302 387.76C276.302 387.76 274.697 387.113 274.658 387.074C274.618 387.034 274.468 387.067 274.658 386.512C274.847 385.956 275.221 385.629 274.736 384.793C274.251 383.956 273.708 383.623 273.708 383.623C273.708 383.623 272.535 382.591 272.804 381.277L272.26 381.166C272.26 381.166 268.985 378.839 268.854 378.663C268.723 378.487 267.871 377.676 267.871 377.676C267.871 377.676 266.424 376.356 265.533 375.971C264.642 375.585 262.971 374.925 261.583 374.84C260.194 374.755 259.185 374.154 258.779 373.344C258.373 372.533 258.406 371.749 258.406 371.749C258.406 371.749 258.189 370.252 256.853 370.2C256.853 370.2 256.152 370.207 255.543 370.429C254.934 370.651 252.15 371.037 252.15 371.037C252.15 371.037 250.525 371.292 249.982 371.559C249.438 371.827 248.324 372.416 247.84 373.487C247.355 374.559 247.669 374.879 247.669 374.879L244.505 376.918C244.505 376.918 243.032 377.866 242.593 378.362C242.154 378.859 241.872 379.369 241.715 379.689C241.558 380.009 241.06 381.074 239.35 380.695C239.35 380.695 239.9 381.983 239.448 382.421C239.141 382.715 238.243 382.898 237.293 382.996C236.835 383.041 236.37 383.074 235.95 383.087L235.295 384.669C235.295 384.669 236.245 385.296 236.527 385.597C236.809 385.897 237.221 386.08 237.844 385.433C238.466 384.786 238.865 384.12 238.865 384.12L237.215 382.956" stroke="#1D1D1B" stroke-miterlimit="10"/>
<path d="M235.243 384.688L233.573 385.989C233.573 385.989 232.302 386.904 232.033 387.315C231.765 387.727 231.11 388.616 231.044 388.688C230.979 388.76 230.651 389.21 229.839 389.335C229.027 389.459 228.221 389.021 228.221 389.021L227.697 388.289C227.697 388.289 231.391 385.433 231.47 385.427C231.548 385.42 233.108 383.956 233.448 383.688C233.789 383.42 234.247 382.93 235.905 383.009C235.905 383.009 236.697 382.146 236.92 381.538C237.143 380.931 237.994 380.297 238.937 380.434L239.455 380.728" stroke="#1D1D1B" stroke-miterlimit="10"/>
<path d="M238.957 380.388C238.957 380.388 238.807 379.532 238.918 379.166C239.029 378.8 241.099 376.827 241.099 376.827L231.509 371.912C231.509 371.912 224.441 367.763 224.291 367.652C224.14 367.541 219.856 365.018 219.856 365.018C219.856 365.018 213.869 361.783 213.279 361.581C212.69 361.378 207.161 358.823 205.274 358.64C203.388 358.457 200.676 357.614 200.676 357.614L200.289 358.235C200.289 358.235 202.196 359.803 202.766 360.921C202.766 360.921 201.724 361.339 201.01 361.176C200.296 361.012 191.263 355.804 191.263 355.804C191.263 355.804 186.959 352.589 184.267 354.725C184.267 354.725 183.075 352.935 182.616 351.817C182.158 350.7 179.76 350.739 179.76 350.739C179.76 350.739 178.81 348.929 175.548 347.341C172.286 345.753 171.094 345.439 170.989 345.224L170.458 345.498L171.428 349.047L169.174 348.132V348.537L166.391 348.975C166.391 348.975 166.351 349.249 166.554 349.524C166.757 349.798 167.537 350.55 167.897 351.216" stroke="#1D1D1B" stroke-miterlimit="10"/>
<path d="M160.089 344.478L163.115 342.93L165.093 347.027L164.366 347.491L160.089 344.478Z" stroke="#1D1D1B" stroke-miterlimit="10"/>
<path d="M190.955 361.463L199.405 367.743C199.405 367.743 193.444 368.841 190.955 361.463Z" stroke="#1D1D1B" stroke-miterlimit="10"/>
<path d="M329.525 398.372C329.525 398.372 338.361 401.751 338.886 402.052C339.41 402.352 340.176 402.627 340.176 402.627C340.176 402.627 342.023 404.822 342.403 405.509L342.593 405.757L342.043 406.358L339.095 404.685L338.296 410.782C338.296 410.782 335.656 410.547 334.831 409.22C334.005 407.894 335.184 408.913 333.56 407.815L324.396 401.117C324.396 401.117 323.518 400.98 324.206 399.719C324.894 398.457 325.169 398.209 325.169 398.209C325.169 398.209 327.73 399.634 328.719 399.529L329.518 398.379L329.525 398.372Z" stroke="#1D1D1B" stroke-miterlimit="10"/>
<path d="M345.881 401.894L349.969 401.339C349.969 401.339 349.144 402.796 348.24 402.829C347.336 402.862 345.881 401.894 345.881 401.894Z" stroke="#1D1D1B" stroke-miterlimit="10"/>
<path d="M127.572 375.167L128.561 374.638L130.087 377.84L129.59 378.206L127.572 375.167Z" stroke="#1D1D1B" stroke-miterlimit="10"/>
<path d="M162.028 412.468C162.028 412.468 162.598 412.906 163.063 412.965C163.528 413.024 163.777 412.697 163.777 412.697C163.777 412.697 164.058 412.22 164.098 411.756C164.137 411.292 164.301 411.096 164.301 411.096L164.7 410.469L167.078 411.456L165.585 412.344C165.585 412.344 165.958 413.115 165.978 413.227L166.443 414.181C166.443 414.181 166.77 414.867 166.744 415.298C166.718 415.729 166.639 416.2 165.997 416.912C165.355 417.625 164.334 418.67 164.334 418.67L167.609 417.056L167.976 417.611L165.506 421.807C165.506 421.807 164.248 422.055 163.168 421.748C162.087 421.441 161.405 420.931 161.405 420.931C161.405 420.931 160.253 419.958 159.886 419.154C159.519 418.35 159.453 418.285 159.401 418.128C159.349 417.971 158.602 417.206 158.261 417.108C157.921 417.01 157.606 416.644 157.606 416.644C157.606 416.644 156.1 418.174 155.877 419.971C155.654 421.768 155.562 422.552 155.654 423.277C155.746 424.003 156.054 425.297 156.977 426.329L155.176 427.238C155.176 427.238 154.966 429.296 154.888 429.584C154.809 429.871 154.285 430.766 153.84 431.315C153.394 431.864 152.281 432.851 152.281 432.851C152.281 432.851 151.233 433.962 150.08 433.563C150.08 433.563 149.32 433.263 149.202 432.479C149.084 431.694 148.291 431.119 148.291 431.119C148.291 431.119 146.169 428.486 146.044 428.081L146.634 427.571C146.634 427.571 146.883 427.362 147.296 427.623L149.261 428.793L150.309 427.898C150.309 427.898 149.595 425.728 149.497 424.78C149.398 423.833 149.261 420.506 149.261 420.506L149.071 415.88C149.071 415.88 149.005 414.632 148.77 414.135C148.534 413.638 147.63 412.841 147.63 412.841L146.044 411.906C146.044 411.906 144.918 411.384 144.669 409.972C144.669 409.972 144.531 409.763 144.669 408.423C144.806 407.084 144.544 406.365 144.544 406.365C144.544 406.365 144.309 404.646 144.309 403.594C144.309 402.542 143.732 400.117 143.732 400.117C143.732 400.117 142.848 397.451 142.71 397.19C142.573 396.928 141.171 394.347 140.987 394.184C140.804 394.02 139.704 392.772 139.599 392.373C139.494 391.975 138.4 389.955 138.4 389.955C138.4 389.955 137.614 389.184 138.236 388.786C138.859 388.387 140.496 388.472 140.496 388.472L137.994 381.578C137.994 381.578 139.658 379.598 139.848 378.023C140.038 376.448 140.267 375.716 140.273 374.833C140.28 373.951 140.706 372.527 140.706 372.527C140.706 372.527 141.23 370.246 141.118 369.847C141.007 369.449 140.896 368.9 140.942 368.566C140.987 368.233 141.59 366.247 141.086 365.763C140.581 365.279 140.267 364.907 140.267 364.907C140.267 364.907 139.972 364.632 140.064 364.325C140.156 364.018 140.267 361.803 140.267 361.803C140.267 361.803 142.547 362.43 143.012 362.691C143.477 362.953 146.981 362.561 147.112 362.495C147.243 362.43 148.206 361.737 148.239 361.607C148.272 361.476 148.625 362.195 148.625 362.195C148.625 362.195 148.789 362.731 148.062 363.142C147.335 363.554 146.994 363.757 146.994 363.757L149.981 364.861L150.27 364.064C150.27 364.064 150.761 365.077 151.377 365.024C151.992 364.972 152.588 363.6 152.588 363.6L154.252 364.9C154.252 364.9 153.709 365.606 153.676 366.037C153.643 366.469 154.252 367.266 154.252 367.266C154.252 367.266 155.051 366.776 155.137 366.148C155.222 365.521 155.065 364.737 155.065 364.737C155.065 364.737 155.189 363.129 155.444 362.874C155.7 362.62 155.805 362.352 157.292 362.711L158.235 362.874L156.787 364.521L157.22 364.704C157.22 364.704 158.327 363.567 159.211 364.43C159.211 364.43 159.807 364.848 160.01 365.26C160.213 365.671 161.55 366.109 161.55 366.109C161.55 366.109 162.454 366.717 163.285 367.338C163.927 367.815 164.524 368.298 164.628 368.514L161.13 369.475C161.13 369.475 162.126 367.756 162.27 367.632C162.414 367.508 162.781 367.161 163.377 367.521C163.973 367.88 164.772 368.632 164.772 368.632C164.772 368.632 163.24 369.677 162.945 372.494C162.65 375.311 162.676 376.245 162.676 376.245C162.676 376.245 163.148 378.656 160.816 378.768L163.259 380.623C163.259 380.623 163.751 384.198 163.908 384.688C164.065 385.178 165.696 389.805 165.631 392.105C165.565 394.406 165.454 395.412 162.231 394.693L162.185 400.006H162.722L161.825 400.986L164.871 406.816L163.24 407.397L164.694 410.482L161.962 411.756L160.148 411.24L158.851 415.017L162.565 414.279L161.962 412.449V411.652" stroke="#1D1D1B" stroke-miterlimit="10"/>
<path d="M168.473 377.604L169.882 373.265C169.882 373.265 171.29 374.728 170.707 375.924C170.124 377.12 168.473 377.604 168.473 377.604V377.604Z" stroke="#1D1D1B" stroke-miterlimit="10"/>
<path d="M180.402 417.2L182.681 422.088C182.681 422.088 180.736 422.754 180.402 419.644C180.068 416.533 180.402 417.2 180.402 417.2Z" stroke="#1D1D1B" stroke-miterlimit="10"/>
<path d="M167.786 436.014L168.794 436.438C168.794 436.438 167.7 440.882 167.072 441.372C166.443 441.862 166.102 441.908 166.102 441.908L165.506 441.124C165.506 441.124 165.192 441.235 165.663 440.431C166.135 439.628 167.786 436.014 167.786 436.014Z" stroke="#1D1D1B" stroke-miterlimit="10"/>
<path d="M151.03 422.297L153.191 423.859L152.844 424.767L151.03 424.872V422.297Z" stroke="#1D1D1B" stroke-miterlimit="10"/>
<path d="M174.277 522.243L174.801 520.557L178.823 518.061C178.823 518.061 183.075 515.212 183.54 514.865C184.005 514.519 190.883 510.742 190.883 510.742L192.802 509.461L193.149 509.984L175.149 522.773L174.277 522.25V522.243Z" stroke="#1D1D1B" stroke-miterlimit="10"/>
<path d="M171.362 523.929L166.351 527.53C166.351 527.53 169.148 527.294 170.373 526.138C171.598 524.981 171.618 524.118 171.585 523.929C171.552 523.739 171.362 523.929 171.362 523.929V523.929Z" stroke="#1D1D1B" stroke-miterlimit="10"/>
<path d="M145.75 540.404L147.25 539.842C147.25 539.842 148.448 542.064 148.331 543.377C148.213 544.691 148.075 546.324 148.075 546.324L145.376 544.593L146.267 540.639L145.75 540.404Z" stroke="#1D1D1B" stroke-miterlimit="10"/>
<path d="M97.8982 525.889L98.2585 525.249L101.134 526.752L100.669 527.576L97.8982 525.889Z" stroke="#1D1D1B" stroke-miterlimit="10"/>
<path d="M84.0962 534.966C84.0962 534.966 85.177 534.43 85.7469 534.43C86.3168 534.43 88.2295 534.071 89.5593 532.208C90.8891 530.346 89.5593 529.019 89.5593 529.019C89.5593 529.019 88.3344 528.732 87.6924 526.686C87.0505 524.641 87.6597 524.464 86.6509 522.563L88.0527 522.739L97.3282 530.954C97.3282 530.954 98.5859 532.568 98.1929 534.973C97.7999 537.378 97.5444 538.665 97.9047 539.887C98.265 541.109 98.4811 541.109 98.9135 541.357C99.3458 541.606 105.274 543.795 105.274 543.795C105.274 543.795 104.986 541.821 106.355 541.717C107.724 541.612 107.861 541.749 108.621 541.142C109.381 540.534 110.344 539.704 111.137 539.743C111.929 539.782 112.25 539.528 112.25 539.528C112.25 539.528 112.86 539.743 113.292 540.678C113.724 541.612 114.012 542.651 114.012 542.651C114.012 542.651 114.301 543.547 112.827 544.409L111.458 545.664C111.458 545.664 110.377 545.559 110.128 546.919L109.84 548.356L111.49 549.003H119.469C119.469 549.003 125.83 548.683 126.622 548.788C127.415 548.892 136.114 549.003 136.114 549.003H174.978C174.978 549.003 176.701 547.03 174.546 545.2C172.391 543.37 172.351 542.22 172.351 542.22L175.227 543.762L175.908 540.462C175.908 540.462 177.487 541.037 178.208 541.037C178.928 541.037 180.978 541.325 180.978 542.651V544.514L183.389 543.089L184.359 544.834L186.121 541.854L182.38 540.096V539.057C182.38 539.057 184.359 538.809 185.007 538.521C185.656 538.234 188.708 539.312 188.708 539.312C188.708 539.312 193.994 540.782 194.715 540.782C195.435 540.782 202.517 541.789 202.517 541.789L204.279 538.384L205.68 539.103C205.68 539.103 205.825 535.986 207.403 535.012C207.403 535.012 208.877 534.94 209.558 534.188C210.24 533.437 210.888 530.457 210.888 530.457L212.329 531.496L208.052 530.849V530.058C208.052 530.058 210.711 528.444 214.845 529.451C214.845 529.451 214.701 528.34 215.061 527.66C215.421 526.98 215.598 524.647 214.524 523.282C213.449 521.916 214.668 519.589 215.781 519.302C216.895 519.014 218.48 517.041 218.48 517.041C218.48 517.041 219.378 516.721 219.921 516.864C220.465 517.008 223.301 515.538 225.024 517.943L225.85 517.975C225.85 517.975 226.642 518.335 226.891 518.367C227.14 518.4 226.603 520.517 226.603 520.517L225.594 519.838L227.317 520.125C227.317 520.125 227.893 519.805 228.326 519.766C228.758 519.727 229.406 519.446 230.193 520.125C230.979 520.805 232.243 522.171 234.11 520.7L226.059 515.283L226.596 514.172L224.657 513.884C224.657 513.884 221.926 510.839 222.751 507.572C222.751 507.572 219.908 505.206 223.649 502.409L224.258 503.807C224.258 503.807 225.908 499.932 226.773 499.684C227.638 499.436 228.607 500.363 228.607 500.363L230.618 502.984L231.228 500.795C231.228 500.795 233.022 503.304 234.536 500.076C234.536 500.076 237.195 502.657 238.02 504.199C238.846 505.742 241.007 505.918 241.007 505.918L241.944 504.232C241.944 504.232 242.337 505.487 242.481 505.735C242.625 505.984 241.8 507.885 240.975 508.643C240.975 508.643 242.16 510.937 242.016 512.447C241.872 513.956 241.152 514.42 241.152 514.42C241.152 514.42 240.686 514.995 241.224 515.603C241.761 516.211 242.665 517.002 242.914 517.106C243.163 517.211 244.315 515.42 244.315 515.42C244.315 515.42 242.481 513.878 244.492 512.407C244.492 512.407 245.678 512.584 246.038 513.59C246.399 514.597 246.687 515.779 246.687 515.779C246.687 515.779 246.903 516.355 246.254 516.819C245.606 517.283 244.709 518.505 244.709 518.505C244.709 518.505 244.276 518.936 245.102 519.511C245.927 520.086 248.193 521.053 248.442 521.556L248.645 521.681L250.879 519.962L251.37 520.413C251.37 520.413 249.248 521.053 250.407 524.687L251.37 521.615H251.737V525.647L255.779 521.949L256.408 522.177L254.75 525.517L257.764 524.458L257.168 525.713L260.05 527.562V527.098L265.618 528.915L261.144 530.3C261.144 530.3 262.834 531.457 263.993 531.856C265.153 532.254 266.247 531.326 266.247 531.326C266.247 531.326 267.111 530.464 267.439 531.359L267.74 532.052C267.74 532.052 273.78 534.443 274.389 534.496C274.998 534.548 278.896 535.554 279.76 536.116C280.625 536.678 284.83 537.58 285.741 537.534C286.652 537.489 287.818 537.587 288.885 538.397C289.953 539.207 291.872 539.358 292.383 537.639L295.423 539.103C295.423 539.103 297.047 539.965 299.373 539.965C301.698 539.965 303.074 541.129 303.074 541.129C303.074 541.129 305.052 542.292 307.987 542.089C310.921 541.887 310.974 542.795 310.974 542.795C310.974 542.795 311.838 544.311 314.367 543.351L316.09 544.409V543.854C316.09 543.854 318.317 544.207 319.588 544.154C320.858 544.102 321.972 543.396 322.529 543.952C323.086 544.507 322.882 545.572 324.048 545.925L323.341 547.696C323.341 547.696 326.839 546.991 332.158 547.899C332.158 547.899 334.844 548.304 336.265 547.899C337.687 547.494 340.32 547.141 340.32 547.141L338.8 548.99L345.338 548.605L345.135 535.26L345.999 535.11C345.999 535.11 346.353 535.816 346.608 536.371C346.864 536.927 346.661 538.953 346.608 539.756C346.556 540.56 347.165 547.801 347.827 548.99L471.946 549.16C471.946 549.16 471.894 549.781 471.481 549.931C471.068 550.082 82.2162 549.931 82.2162 549.931C82.2162 549.931 82 549.356 82 549.095L100.708 548.944C100.708 548.944 101.232 549.075 101.566 548.873C101.9 548.67 103.944 546.625 104.115 545.827C104.285 545.03 101.285 543.566 101.285 543.566C101.285 543.566 96.3194 542.044 95.4089 541.227C94.4984 540.41 92.8018 539.168 92.5267 538.724C92.2516 538.279 90.1816 537.293 89.9589 537.293C89.7362 537.293 87.581 535.973 87.188 535.456L84.2272 535.678L84.0962 534.966V534.966Z" stroke="#1D1D1B" stroke-miterlimit="10"/>
<path d="M201.56 548.475L209.139 546.436C209.139 546.436 210.063 546.031 210.836 546.436C211.609 546.841 212.035 547.782 212.035 547.782C212.035 547.782 211.419 548.743 211.052 548.802C210.685 548.86 201.567 548.802 201.567 548.802V548.475H201.56Z" stroke="#1D1D1B" stroke-miterlimit="10"/>
<path d="M243.929 526.941L245.691 529.255C245.691 529.255 244.689 529.738 244.479 529.98C244.27 530.222 242.265 529.327 243.929 526.948V526.941Z" stroke="#1D1D1B" stroke-miterlimit="10"/>
<path d="M235.774 522.393C235.774 522.393 236.986 525.184 237.988 525.876C238.99 526.569 241.407 527.425 241.407 527.425C241.407 527.425 241.997 527.321 242.377 526.772C242.757 526.223 241.997 525.876 241.997 525.876C241.997 525.876 239.16 525.151 239.645 523.047C239.645 523.047 239.783 521.772 235.774 522.393V522.393Z" stroke="#1D1D1B" stroke-miterlimit="10"/>
<path d="M236.088 539.253C236.088 539.253 242.285 536.358 243.281 536.319C244.276 536.28 250.774 534.078 250.774 534.078C250.774 534.078 252.608 532.973 253.886 534.078C255.163 535.182 254.993 535.731 254.993 535.731L249.635 536.143L249.425 536.626L261.694 538.835C261.694 538.835 261.622 540.351 262.729 540.319C262.729 540.319 264.386 539.489 264.596 540.149C264.596 540.149 263.731 541.253 263.731 541.907C263.731 542.56 264.943 543.116 264.943 543.116C264.943 543.116 266.6 543.462 266.876 543.704C267.151 543.946 268.395 544.632 268.395 544.632V545.325H266.496C266.496 545.325 262.729 544.808 261.072 544.253C259.414 543.697 258.373 542.286 258.373 542.286L252.707 542.456C252.707 542.456 251.462 542.835 251.292 543.148C251.122 543.462 250.257 544.357 249.53 543.181L249.425 542.181C249.425 542.181 249.497 543.423 248.213 543.351C246.929 543.279 247.833 542.763 246.137 542.939L247.067 544.834C247.067 544.834 242.468 544.285 241.119 543.665C239.769 543.044 236.075 539.253 236.075 539.253H236.088Z" stroke="#1D1D1B" stroke-miterlimit="10"/>
</g>
<defs>
<clipPath id="clip0_150_1514">
<rect width="389.94" height="550.174" fill="white" transform="translate(82)"/>
</clipPath>
</defs>
</svg>
