<svg width="683" height="672" viewBox="0 0 683 672" fill="none" xmlns="http://www.w3.org/2000/svg">
<path d="M254.342 197.729C256.303 195.644 258.48 193.79 260.836 192.198C283.457 177.183 287.732 164.606 357.202 186.539C357.202 186.539 404.233 203.869 454.968 185.95C472.137 179.684 490.874 178.805 508.894 183.419C522.046 186.917 534.47 193.132 545.411 201.686C548.329 203.963 555.008 208.174 557.695 210.591C576.166 227.602 636.832 271.084 602.702 388.921L602.218 390.638C600.844 395.879 589.219 432.407 533.586 425.57C483.027 419.389 456.051 469.295 448.851 484.932C446.578 489.758 444.966 494.91 444.058 500.242C440.414 518.167 433.15 534.959 422.736 549.531C412.323 564.102 398.993 576.127 383.611 584.825C368.229 593.524 351.139 598.701 333.449 600.022C315.759 601.343 297.865 598.778 280.926 592.493L279.991 592.144C248.963 580.625 231.04 572.83 210.095 578.348C189.149 583.866 145.411 587.705 100.801 493.655C56.1918 399.606 98.4185 296.377 98.4185 296.377C98.4185 296.377 118.753 249.905 165.735 240.702C174.76 239.022 183.63 236.65 192.273 233.607C210.296 227.045 237.548 215.038 254.342 197.729Z" fill="#46D146"/>
<g opacity="0.5" clip-path="url(#clip0_150_1515)">
<path d="M95.8933 243.474C95.8933 243.474 97.4195 239.586 100.636 239.925C103.852 240.265 107.579 241.023 107.579 241.023L106.623 241.559L110.717 243.16C110.717 243.16 110.914 243.879 110.193 244.317C109.374 244.82 108.038 244.48 108.038 244.48C106.086 243.977 104.068 243.801 102.097 243.369C100.675 243.062 98.6052 242.866 95.8867 243.467L95.8933 243.474Z" stroke="#1D1D1B" stroke-miterlimit="10"/>
<path d="M111.149 242.252C111.149 242.252 112.093 243.324 114.464 242.716C114.464 242.716 115.158 242.076 118.479 242.905L124.991 243.945C124.991 243.945 126.713 244.284 127.735 244.605C128.757 244.925 130.113 245.252 130.113 245.252V246.029L123.274 246.441L128.639 250.649L125.364 251.793C125.364 251.793 125.2 249.957 122.908 249.584L120.615 249.218C120.615 249.218 119.593 249.382 119.141 251.427C118.689 253.472 116.888 254.002 116.481 254.041C116.075 254.08 114.025 254.204 113.861 254.041C113.861 254.041 111.464 252.937 110.756 252.081C110.756 252.081 109.931 250.689 109.885 250.244L106.118 252.002V252.368L108.902 253.923C108.902 253.923 105.955 256.25 104.481 253.557C104.481 253.557 103.741 252.126 105.712 249.878C105.712 249.878 107.474 247.996 111.654 247.303C115.833 246.611 120.458 246.16 120.458 246.16C120.458 246.16 115.217 244.605 112.636 245.016C110.055 245.428 110.75 242.99 111.162 242.265L111.149 242.252Z" stroke="#1D1D1B" stroke-miterlimit="10"/>
<path d="M125.79 252.08L129.071 253.452C129.071 253.452 127.617 256.753 122.344 257.844C122.344 257.844 119.567 257.87 118.591 258.177C117.615 258.484 114.3 257.615 114.3 257.615V256.89C114.3 256.89 125.069 255.191 125.79 252.08V252.08Z" stroke="#1D1D1B" stroke-miterlimit="10"/>
<path d="M154.579 243.859L150.046 246.604L150.367 247.016H152.935C152.935 247.016 151.193 249.166 153.485 249.989C155.778 250.813 159.394 250.813 159.394 250.813C159.394 250.813 163.468 250.538 164.752 249.577C166.036 248.617 166.311 248.846 165.486 246.055C165.486 246.055 163.423 246.97 162.23 248.159C161.038 249.349 157.999 248.251 157.999 248.251C157.999 248.251 156.047 248.114 154.579 243.866V243.859Z" stroke="#1D1D1B" stroke-miterlimit="10"/>
<path d="M163.553 239.657C163.553 239.657 170.425 236.776 174.735 237.279C174.735 237.279 174.467 238.507 174.735 239.246C175.004 239.984 174.683 241.017 173.726 241.115C173.726 241.115 172.515 241.363 172.397 241.435C172.279 241.507 172.148 241.533 170.864 240.847C169.58 240.161 165.112 239.788 164.222 240.357L163.56 239.657H163.553Z" stroke="#1D1D1B" stroke-miterlimit="10"/>
<path d="M161.313 251.989V252.707L160.547 253.328H166.6C166.6 253.328 167.654 253.76 168.041 254.335C168.041 254.335 170.445 253.139 170.923 255.583C170.923 255.583 171.788 257.785 172.266 258.792C172.266 258.792 172.652 260.419 172.842 260.759C173.032 261.098 172.842 262.771 171.499 262.726C171.499 262.726 171.021 262.438 170.536 266.797L169.672 272.881C169.672 272.881 167.51 272.659 166.305 274.9C165.099 277.142 163.567 278.736 162.427 278.704C161.287 278.671 159.754 277.959 159.754 277.959L156.852 276.658C156.852 276.658 155.418 276.233 154.606 276.462C154.606 276.462 155.293 273.763 156.007 272.986C156.721 272.208 157.638 271.326 157.802 269.568C157.966 267.81 158.064 266.444 155.621 263.131C155.621 263.131 155.85 261.798 155.228 260.922C154.606 260.046 151.481 253.733 151.481 253.733C151.481 253.733 150.957 252.159 153.112 251.989C155.267 251.819 161.326 251.989 161.326 251.989H161.313Z" stroke="#1D1D1B" stroke-miterlimit="10"/>
<path d="M140.64 287.65L144.57 287.912V289.304L140.64 288.742V287.65Z" stroke="#1D1D1B" stroke-miterlimit="10"/>
<path d="M124.951 293.447L129.15 293.754C129.15 293.754 129.583 293.532 130.093 294.715C130.093 294.715 129.497 295.225 129.131 295.225C128.764 295.225 124.814 294.336 124.814 294.336L124.958 293.447H124.951Z" stroke="#1D1D1B" stroke-miterlimit="10"/>
<path d="M159.073 320.659C159.073 320.659 162.584 317.156 166.528 321.763L159.073 320.659Z" stroke="#1D1D1B" stroke-miterlimit="10"/>
<path d="M164.759 328.782C164.759 328.782 167.248 327.279 167.425 327.24C167.602 327.2 169.41 325.475 166.966 324.077C164.523 322.678 162.289 322.456 162.289 322.456C162.289 322.456 159.944 322.175 159.178 322.815C158.411 323.456 159.178 324.56 159.178 324.56C159.178 324.56 159.636 325.181 160.56 325.763C161.484 326.344 164.752 328.788 164.752 328.788L164.759 328.782Z" stroke="#1D1D1B" stroke-miterlimit="10"/>
<path d="M74.4401 241.644C74.4401 241.644 75.7044 242.8 75.914 244.173C75.914 244.173 78.0495 244.565 78.2591 247.303C78.4687 250.041 79.2351 250.91 79.2351 250.91L80.0277 252.492C80.0277 252.492 77.604 253.544 74.4336 249.492C71.2631 245.44 71.1125 245.016 71.3745 243.493C71.6365 241.97 74.4336 241.65 74.4336 241.65L74.4401 241.644Z" stroke="#1D1D1B" stroke-miterlimit="10"/>
<path d="M166.796 205.244C167.733 204.957 168.624 204.094 168.624 204.094C170.026 203.16 168.48 202.676 168.48 202.676L160.115 201.363C160.56 202.395 162.224 203.735 162.224 203.735C164.942 205.702 166.711 205.251 166.711 205.251L167.078 206.323C167.563 207.577 167.857 207.551 167.857 207.551L180.343 215.236L180.113 215.7L172.593 212.113L171.781 214.243L168.113 213.916L169.731 217.857L172.069 218.733L172.534 220.111C172.737 221.137 173.425 221.902 174.683 221.843C175.941 221.784 176.314 221.98 176.314 221.98L171.06 223.072L169.777 222.974L169.174 223.928L167.995 224.353L167.268 224.3L167.065 224.928L167.504 225.529L167.654 226.078C167.674 227.025 167.792 228.332 167.792 228.332C168.106 230.221 171.414 230.188 171.414 230.188C170.831 231.665 168.545 233.319 168.545 233.319C163.934 235.599 159.407 238.416 157.796 239.756C156.184 241.095 154.527 242.252 154.527 242.252C154.527 242.252 152.555 243.101 150.944 244.219C149.332 245.336 146.018 250.029 145.12 251.323C144.223 252.616 143.784 254.485 143.568 256.217C143.352 257.949 144.472 260.471 144.675 261.014C144.878 261.556 144.76 262.955 144.76 262.955C144.95 264.177 144.537 265.314 144.537 265.314C143.823 267.431 145.409 268.046 145.409 268.046C144.917 269.287 145.848 271.104 145.848 271.104C145.848 271.104 146.771 272.796 146.535 273.104C146.3 273.411 146.28 274.724 146.28 274.724C146.437 277.031 148.278 279.083 148.756 280.044C149.234 281.004 148.998 281.344 148.998 281.344L148.736 281.501C148.736 281.501 147.747 282.037 147.577 283.128C147.407 284.22 147.852 285.644 147.904 286.076C147.957 286.507 147.577 287.402 147.577 287.402L153.977 289.611C153.485 290.023 143.614 292.944 143.614 292.944C141.17 293.891 139.913 293.251 139.913 293.251C136.88 292.277 130.526 293.61 130.526 293.61C130.526 293.61 131.554 294.506 132.812 295.231C134.07 295.956 135.373 295.839 136.041 295.662C136.71 295.486 138.485 296.048 138.485 296.048C139.926 296.584 144.865 295.532 144.865 295.532C145.428 295.198 146.175 295.636 146.175 295.636L147.819 296.512L146.968 297.126L150.597 297.714C150.597 297.714 149.49 298.969 148.848 299.485C148.206 300.002 148.022 301.616 148.566 302.361C149.11 303.106 150.086 308.543 150.086 308.543C151.271 308.21 152.3 306.929 152.3 306.929L164.674 289.317C164.674 289.317 164.955 288.683 165.702 288.324C166.449 287.964 166.809 289.317 166.809 289.317C166.809 289.317 166.966 291.454 167.248 296.1C167.53 300.747 167.713 300.76 167.713 300.76C167.713 300.76 167.942 303.452 164.346 303.733C160.75 304.014 154.776 308.17 152.876 310.379C150.977 312.588 148.789 312.457 148.376 312.379C147.963 312.3 146.601 312.248 146.188 312.202C145.775 312.157 144.079 312.379 143.306 312.536C142.533 312.693 142.743 312.738 142.382 313.692C142.022 314.646 142.356 314.973 142.356 314.973L148.363 323.789L148.573 323.848C149.051 325.155 150.361 327.416 151.841 328.416C153.322 329.416 154.239 331.461 154.239 331.461V332.245C154.239 332.245 152.758 332.552 151.579 332.422C150.4 332.291 150.4 332.598 150.4 332.598C148.697 333.944 145.382 332.598 145.382 332.598C145.382 332.598 141.111 331.03 140.234 331.121C139.356 331.213 137.528 330.553 137.528 330.553L132.773 327.769C132.773 327.769 132.511 325.2 130.244 323.247C127.978 321.293 127.454 318.94 127.454 318.94H128.633C128.633 318.94 128.855 318.443 128.6 317.888C128.345 317.332 127.303 315.222 127.152 315.071C127.002 314.921 125.685 312.608 124.735 311.843L121.46 308.294L118.493 306.086L109.898 300.315C109.898 300.315 103.564 295.649 103.151 295.172C103.151 295.172 97.8518 290.134 97.295 289.474C96.7382 288.814 91.655 283.259 90.6724 280.893C90.6724 280.893 88.406 276.129 88.0457 275.116C87.6854 274.103 84.7442 265.471 84.7442 265.471L83.0476 260.857C83.0476 260.857 82.3533 259.537 81.4231 259.04C80.4929 258.544 76.8181 256.387 75.6652 254.538C74.5123 252.688 73.497 250.231 73.497 250.231C73.497 250.231 73.1432 249.074 72.141 248.343C71.1388 247.611 69.0164 243.52 69.2522 241.579C69.2522 241.579 69.2326 238.998 69.1278 238.625C69.023 238.253 68.7871 236.168 69.0361 235.704C69.285 235.24 68.8199 233.41 68.8199 233.41C68.8199 233.41 67.7653 230.829 67.857 230.528C67.857 230.528 69.7501 230.103 72.4816 232.116C75.2132 234.129 77.0343 234.521 77.2832 234.521C77.5321 234.521 79.6021 231.796 79.6938 230.371C79.7855 228.947 80.2113 228.306 80.6764 227.895C81.1414 227.483 81.7637 226.561 81.7441 226.222C81.7244 225.882 81.9209 225.366 80.3357 224.477C78.7505 223.588 79.7855 224.529 78.9077 223.412L81.2462 223.464L80.2833 222.183C80.2833 222.183 81.7834 217.216 82.7987 215.576C83.8141 213.936 85.8709 213.119 85.8709 213.119C85.8709 213.119 87.8164 212.433 88.2815 210.976C88.2815 210.976 88.5304 210.139 88.5108 209.943L83.4931 210.315C83.4931 210.315 84.3119 207.538 84.3315 207.251C84.3512 206.963 84.4953 205.414 85.7399 205.022C85.7399 205.022 87.4365 204.774 87.9343 204.473L90.2008 203.264L93.3254 206.205L94.6486 206.898L96.9348 205.493C96.9348 205.493 98.3104 204.297 98.4676 203.963C98.6248 203.63 100.02 203.127 100.878 203.232C101.736 203.336 104.946 204.46 104.946 204.46C104.946 204.46 107.357 203.584 108.32 203.715C109.282 203.846 109.374 204.003 109.374 204.003L109.518 203.807L107.678 201.513C107.678 201.513 109.748 200.944 109.911 200.892C110.075 200.84 111.713 200.572 112.466 200.663C113.219 200.755 115.538 200.52 115.748 200.415C115.957 200.31 116.979 199.918 117.32 199.65C117.661 199.382 119.816 198.585 121.748 198.775C123.681 198.964 126.32 198.938 127.192 199.115C128.063 199.291 133.061 200.023 133.061 200.023C133.061 200.023 137.614 199.794 138.039 199.879C138.465 199.964 140.987 200.075 140.987 200.075C140.987 200.075 142.86 200.056 143.627 197.598L147.217 198.794L149.824 197.834L149.66 198.174L149.267 197.762C149.267 197.762 148.573 197.533 148.304 196.782C148.035 196.03 147.839 195.481 147.839 195.481L148.769 195.233C148.769 195.233 149.267 195.089 149.824 195.481C150.38 195.873 153.623 197.618 153.623 197.618C153.623 197.618 154.232 198.082 155.392 197.814C155.392 197.814 155.215 199.291 156.767 200.52C158.32 201.748 159.944 201.376 159.944 201.376C159.944 201.376 164.425 200.879 165.781 200.879C165.781 200.879 167.065 200.97 168.014 201.251C168.964 201.532 169.475 201.343 169.475 201.343C169.475 201.343 170.117 201.323 170.366 201.467C170.366 201.467 168.689 201.5 168.565 202.591L168.545 202.676V202.696" stroke="#1D1D1B" stroke-miterlimit="10"/>
<path d="M169.737 217.857L172.456 216.399L173.517 218.223L172.711 219.778L172.541 220.111" stroke="#1D1D1B" stroke-miterlimit="10"/>
<path d="M172.076 218.732L172.711 219.778" stroke="#1D1D1B" stroke-miterlimit="10"/>
<path d="M167.608 226.156L172.967 223.908L172.187 223.039L171.067 223.072L170.392 223.908L169.573 224.307L168.335 224.699L168.368 225.143L168.375 225.209L167.949 224.699L167.274 224.294" stroke="#1D1D1B" stroke-miterlimit="10"/>
<path d="M169.2 225.568L169.056 225.47L168.362 225.071" stroke="#1D1D1B" stroke-miterlimit="10"/>
<path d="M167.923 224.294L168.408 224.771H167.923V224.294Z" stroke="#1D1D1B" stroke-miterlimit="10"/>
<path d="M169.18 223.921L169.573 224.306" stroke="#1D1D1B" stroke-miterlimit="10"/>
<path d="M169.783 222.967L170.012 223.522L170.392 223.908" stroke="#1D1D1B" stroke-miterlimit="10"/>
<path d="M214.831 240.723L206.171 241.794L208.28 242.167L208.326 242.546L201.769 244.448L201.92 244.846L202.752 245.121C202.752 245.121 199.031 246.5 196.621 248.231C194.21 249.963 190.09 252.669 190.09 252.669C190.09 252.669 191.118 253.871 189.841 255.178C188.563 256.485 186.526 258.086 185.517 260.393C185.517 260.393 180.565 268.738 180.565 268.941C180.565 269.143 178.96 272.626 178.528 275.306C178.096 277.985 177.323 281.697 177.323 283.756C177.323 285.814 177.093 286.435 177.526 289.095C177.958 291.754 180.618 299.172 182.373 301.929C182.373 301.929 182.904 303.034 182.701 303.831C182.701 303.831 181.115 304.256 180.166 306.386C179.216 308.517 178.102 311.797 178.102 311.797C178.102 311.797 177.421 313.274 177.827 316.156C177.827 316.156 178.004 317.358 179.183 319.24C180.362 321.123 183.251 325.808 183.251 325.808L183.755 325.481L183.375 322.449L183.775 322.22L186.035 324.704C186.035 324.704 188.295 324.129 186.814 321.619C185.334 319.11 184.43 317.835 184.43 317.835C184.43 317.835 183.926 317.26 183.854 316.084C183.854 316.084 187.142 317.914 187.797 318.293C188.452 318.672 189.081 319.169 189.081 319.169C189.081 319.169 190.312 319.92 191.013 318.293C191.013 318.293 191.668 315.287 190.234 314.509C188.799 313.731 186.841 310.752 186.841 310.752C186.841 310.752 187.07 312.705 188.275 314.058L190.941 318.045C190.941 318.045 191.898 318.345 192.199 318.646C192.5 318.946 198.782 327.246 198.959 327.671C199.136 328.095 201.822 331.931 202.503 332.382C203.184 332.833 208.732 337.192 208.732 337.192C208.732 337.192 211.549 339.349 212.303 340.322C213.056 341.296 217.628 344.812 218.584 344.962C218.584 344.962 223.989 347.772 226.425 348.092C228.862 348.413 234.79 350.197 234.79 350.197C234.79 350.197 242.553 352.451 245.92 352.451C249.287 352.451 255.968 351.922 257.102 351.399C257.102 351.399 267.275 348.994 269.489 347.818C271.703 346.642 273.511 346.714 275.495 344.812C275.495 344.812 276.753 343.485 278.057 343.211C279.36 342.936 286.651 337.244 286.651 337.244L285.649 335.839L286.651 334.238C286.651 334.238 284.214 333.036 285.446 329.527L283.16 327.148C283.16 327.148 281.856 326.37 282.079 322.234L280.598 322.057L281.05 321.73L279.491 319.025C279.491 319.025 278.509 317.319 277.054 316.169C275.6 315.019 274.113 311.81 274.29 310.582C274.29 310.582 274.113 308.804 274.945 306.445C274.945 306.445 272.711 305.942 272.384 305.844C272.056 305.746 270.904 305.517 270.072 306.295C270.072 306.295 268.696 307.085 268.493 307.112C268.29 307.138 267.091 307.634 267.091 307.634C267.091 307.634 265.899 307.83 265.63 307.83C265.362 307.83 262.211 308.399 262.211 308.399C262.211 308.399 260.18 308.386 259.813 308.144C259.813 308.144 259.021 307.915 259.021 307.817C259.021 307.719 258.34 307.549 257.802 307.817C257.802 307.817 257.265 307.83 256.997 307.778C256.997 307.778 254.501 307.837 253.355 307.085C252.208 306.334 250.577 304.994 250.577 304.994L248.763 303.367C248.763 303.367 248.468 303.125 248.324 302.831C248.18 302.537 246.765 300.622 246.765 300.622L244.669 297.695L242.54 294.682C242.54 294.682 240.529 291.767 240.424 291.571C240.319 291.375 239.088 289.238 239.009 288.585C238.93 287.931 238.426 285.938 238.714 284.932L237.168 284.906C237.168 284.906 239.454 283.847 237.398 282.089C235.341 280.331 234.162 279.514 234.162 279.514C234.162 279.514 231.62 277.377 229.242 277.913C226.864 278.449 225.967 279.057 225.967 279.057C225.967 279.057 227.113 273.156 227.526 272.195C227.939 271.234 229.622 269.477 231.712 269.66L231.751 268.444L233.369 268.555C233.369 268.555 234.391 269.562 235 269.503C235.609 269.444 237.352 269.078 237.653 268.764C237.954 268.451 237.692 267.66 237.692 267.66L237.568 266.738C237.568 266.738 237.24 265.392 237.443 264.713C237.647 264.033 238.026 262.791 238.026 262.791L242.396 263.131C242.396 263.131 241.97 265.719 242.664 266.484C243.359 267.248 244.466 267.915 244.466 267.915C244.466 267.915 242.723 269.856 242.933 271.62C243.142 273.385 243.385 273.855 243.738 274.352C244.092 274.848 244.859 275.58 245.225 275.822C245.592 276.064 246.103 276.332 246.457 277.436C246.457 277.436 246.883 279.063 246.896 279.658C246.909 280.253 247.531 280.959 247.721 281.115C247.911 281.272 249.195 281.88 249.195 281.88C249.195 281.88 249.975 282.148 250.499 283.226C251.023 284.304 251.337 285.023 251.914 285.363C252.49 285.703 252.693 286.03 253.433 285.912C254.173 285.794 254.698 284.906 254.698 284.906C254.698 284.906 255.791 283.873 256.086 283.873C256.381 283.873 257.167 282.828 257.167 282.828C257.167 282.828 258.032 281.71 259.479 281.527C260.927 281.344 262.643 280.906 262.742 280.834C262.84 280.762 263.253 280.455 264.058 280.861C264.864 281.266 265.421 281.494 265.421 281.494L265.617 281.213L263.56 280.24L266.128 279.606C266.128 279.606 266.823 281.475 268.906 281.331C268.906 281.331 269.967 281.135 270.576 280.736C271.185 280.338 272.292 280.253 272.803 280.566C273.314 280.88 274.022 282.279 274.022 282.279L278.063 283.847L273.183 284.782C273.183 284.782 276.616 287.683 278.319 288.023C278.319 288.023 279.026 288.448 280.061 288.252C281.096 288.056 280.756 286.017 280.756 286.017C280.756 286.017 281.083 284.501 283.153 284.729C283.153 284.729 286.697 285.834 287.037 285.847L285.59 286.964C285.59 286.964 285.492 287.121 285.819 287.232C286.147 287.343 287.293 288.036 287.293 288.036C287.293 288.036 287.843 288.415 287.535 288.944C287.227 289.474 286.782 289.565 286.782 289.565C286.782 289.565 284.895 290.016 283.821 289.323C282.747 288.631 282.262 288.01 282.262 288.01C282.262 288.01 280.985 286.271 280.873 286.141C280.762 286.01 280.821 286.075 280.821 286.075" stroke="#1D1D1B" stroke-miterlimit="10"/>
<path d="M271.12 277.351L273.406 276.979C273.406 276.979 273.956 278.521 273.406 279.07C272.856 279.619 270.707 279.488 270.707 279.488C270.707 279.488 271.88 278.906 272.063 278.606C272.246 278.305 272.011 277.893 271.12 277.344V277.351Z" stroke="#1D1D1B" stroke-miterlimit="10"/>
<path d="M257.265 289.48V290.304L258.281 294.806C258.281 294.806 254.501 294.48 254.056 293.042C253.61 291.604 254.029 291.088 254.671 290.618C255.313 290.147 257.272 289.487 257.272 289.487L257.265 289.48Z" stroke="#1D1D1B" stroke-miterlimit="10"/>
<path d="M257.39 296.42L265.644 295.087C265.644 295.087 264.491 296.668 262.146 297.283C259.8 297.897 257.39 296.42 257.39 296.42V296.42Z" stroke="#1D1D1B" stroke-miterlimit="10"/>
<path d="M219.063 283.905C219.063 283.905 219.908 282.736 220.196 282.363C220.484 281.991 221.061 281.252 222.626 281.252C224.192 281.252 224.644 281.089 224.644 281.089C224.644 281.089 224.585 283.389 223.019 284.396C221.454 285.402 220.504 285.056 220.504 285.056C220.504 285.056 219.43 284.376 219.063 283.905Z" stroke="#1D1D1B" stroke-miterlimit="10"/>
<path d="M202.981 274.358L215.774 266.131C215.774 266.131 217.726 264.739 217.805 264.582C217.884 264.425 218.165 263.87 219.875 265.098L222.783 266.686C222.783 266.686 220.032 268.633 219.757 269.071C219.482 269.509 216.128 271.058 215.892 271.019C215.656 270.98 212.787 271.934 212.388 272.293C211.988 272.653 208.962 273.685 208.405 273.842C207.848 273.999 203.427 275.09 203.427 275.09L202.988 274.358H202.981Z" stroke="#1D1D1B" stroke-miterlimit="10"/>
<path d="M230.893 255.316L231.214 256.688L230.284 257.008C230.284 257.008 229.76 256.989 229.491 256.825C229.223 256.662 227.69 256.42 227.022 257.511C226.354 258.603 224.572 261.955 224.572 261.955L225.24 263.007L228.22 263.393L226.963 264.099L227.107 264.504L230.873 263.288L229.498 262.7C229.498 262.7 230.186 262.177 230.205 262.073C230.225 261.968 231.397 261.589 231.397 261.589C231.397 261.589 233.304 260.596 234.457 259.328C235.609 258.06 235.852 257.348 235.957 257.087C236.061 256.825 236.363 255.368 234.679 255.087L230.893 255.309V255.316Z" stroke="#1D1D1B" stroke-miterlimit="10"/>
<path d="M222.017 263.353C222.017 263.353 222.535 262.464 222.58 262.386C222.626 262.308 223.137 261.563 223.242 261.523C223.347 261.484 223.432 261.393 223.825 261.628C224.218 261.863 224.716 262.079 224.716 262.079L224.244 262.157L225.371 262.987C225.371 262.987 225.292 263.948 224.762 264.17C224.231 264.392 223.373 263.967 223.373 263.967L222.024 263.36L222.017 263.353Z" stroke="#1D1D1B" stroke-miterlimit="10"/>
<path d="M233.343 268.529V268.476L233.598 266.117L237.437 266.738C237.483 266.745 237.509 266.751 237.509 266.751" stroke="#1D1D1B" stroke-miterlimit="10"/>
<path d="M225.469 244.363L232.203 244.801L232.111 245.213L229.491 245.592L233.356 249.728C233.356 249.728 232.38 249.807 232.111 249.885C231.843 249.963 231.81 250.12 230.899 249.395C229.989 248.67 228.849 247.931 228.849 247.931C228.849 247.931 226.877 246.088 226.497 245.036C226.497 245.036 225.534 244.657 225.476 244.356L225.469 244.363Z" stroke="#1D1D1B" stroke-miterlimit="10"/>
<path d="M214.634 240.722L209.708 236.004L209.931 235.533L212.754 236.612L212.669 236.755L216.036 235.533L219.108 233.645L219.488 233.553L220.189 232.972L222.554 233.769L223.877 233.782L225.816 231.652L225.404 231.22C225.404 231.22 224.604 231.828 224.414 231.874C224.224 231.92 223.635 231.926 223.262 231.789C222.888 231.652 222.554 231.586 222.554 231.586L221.991 231.148L223.052 230.534L224.493 229.868L222.2 228.005L221.349 225.594L219.901 225.718C219.901 225.718 219.449 226.744 219.246 226.979C219.043 227.214 218.781 227.175 218.781 227.175C218.781 227.175 217.936 227.28 217.844 228.149C217.753 229.018 218.021 229.613 218.021 229.613L218.702 230.103L218.467 230.24L218.27 230.351L218.06 229.691C218.06 229.691 217.563 228.502 217.346 228.299C217.13 228.097 216.285 226.698 214.536 226.613L212.368 228.456L215.047 232.331L218.132 230.404L218.814 230.044L219.698 229.959L220.772 230.064L220.969 232.168L219.063 232.063L218.683 230.155" stroke="#1D1D1B" stroke-miterlimit="10"/>
<path d="M222.168 228.031L221.146 228.489L221.237 228.417L220.517 228.43L220.759 229.443L220.726 230.116H221.218L220.766 229.462" stroke="#1D1D1B" stroke-miterlimit="10"/>
<path d="M221.152 228.541V229.946L221.218 230.168L221.965 231.103" stroke="#1D1D1B" stroke-miterlimit="10"/>
<path d="M224.152 229.646L224.093 229.574C224.093 229.574 223.471 229.437 223.059 229.607C222.646 229.776 223.098 230.508 223.098 230.508" stroke="#1D1D1B" stroke-miterlimit="10"/>
<path d="M222.561 231.646L221.807 232.201L220.897 232.116L222.587 233.802" stroke="#1D1D1B" stroke-miterlimit="10"/>
<path d="M219.187 233.691L215.001 232.253C215.001 232.253 215.283 232.273 214.68 233.854C214.078 235.435 215.532 235.488 215.532 235.488H216.128" stroke="#1D1D1B" stroke-miterlimit="10"/>
<path d="M223.74 233.802C223.74 233.802 224.539 233.567 225.679 233.802C226.818 234.037 228.129 234.318 228.129 234.318C228.129 234.318 229.105 234.495 229.707 234.423C230.31 234.351 230.978 234.181 231.293 233.972C231.293 233.972 231.345 233.841 231.686 233.998L232.793 234.214L235.799 234.789C235.799 234.789 237.633 235.043 237.869 235.05C238.105 235.057 238.767 235.07 239.566 234.743C240.365 234.416 241.066 234.115 241.066 234.115L240.974 233.553L238.95 232.338C238.95 232.338 238.367 231.292 238.367 231.116C238.367 230.94 237.686 230.175 237.404 229.985C237.123 229.796 235.865 228.62 235.865 228.62L234.319 227.273L233.074 226.136L231.725 224.784C231.725 224.784 230.651 223.856 229.773 223.777C228.895 223.699 228.725 223.725 228.725 223.725" stroke="#1D1D1B" stroke-miterlimit="10"/>
<path d="M221.257 225.6L222.574 225.156L223.668 224.921L224.283 224.365L224.637 224.307H225.993L230.002 223.535L228.247 220.876C228.247 220.876 226.982 219.124 226.871 219.039C226.76 218.954 226.38 218.347 226.046 218.242C225.711 218.138 224.323 217.014 224.323 217.014C224.323 217.014 224.126 217.608 223.569 217.778C223.569 217.778 223.124 217.817 222.633 217.412C222.141 217.007 221.748 216.961 221.748 216.961L221.526 215.53L222.829 214.021L224.349 217.085" stroke="#1D1D1B" stroke-miterlimit="10"/>
<path d="M224.303 224.418L222.358 223.059L222.233 223.098C222.233 223.098 220.53 222.444 220.432 222.438C220.432 222.438 219.469 222.202 219.384 222.202C219.299 222.202 216.272 221.68 216.272 221.68L216.711 222.771L219.089 224.66L222.174 223.13" stroke="#1D1D1B" stroke-miterlimit="10"/>
<path d="M219.908 225.673L219.122 224.601C219.122 224.601 217.477 224.176 217.353 224.124C217.229 224.072 216.58 223.837 216.397 223.706C216.213 223.575 214.635 222.667 214.635 222.667L215.624 221.432L215.663 221.445L216.325 221.713" stroke="#1D1D1B" stroke-miterlimit="10"/>
<path d="M214.569 226.673L212.774 225.163L210.809 224.104L211.313 223.065L212.008 223.02L212.08 223.078L212.06 223.941L213.488 223.836L212.8 225.117" stroke="#1D1D1B" stroke-miterlimit="10"/>
<path d="M211.851 224.601L212.145 223.882H211.608L211.877 224.633" stroke="#1D1D1B" stroke-miterlimit="10"/>
<path d="M211.3 223.02L211.713 223.928L210.809 224.104" stroke="#1D1D1B" stroke-miterlimit="10"/>
<path d="M212.473 223.065H213.383L213.351 223.902L212.879 223.915L212.473 223.065Z" stroke="#1D1D1B" stroke-miterlimit="10"/>
<path d="M213.102 220.993L212.054 222.79L212.008 223.019L212.08 223.078L212.558 223.143L212.473 222.627L213.383 222.692L213.102 220.993Z" stroke="#1D1D1B" stroke-miterlimit="10"/>
<path d="M214.589 222.699L213.711 222.3L213.102 220.993L215.119 221.549L215.067 221.424H215.63" stroke="#1D1D1B" stroke-miterlimit="10"/>
<path d="M213.718 222.699L213.776 222.248H213.285L213.383 222.692" stroke="#1D1D1B" stroke-miterlimit="10"/>
<path d="M214.739 222.595L213.501 223.941L213.717 223.065L214.739 222.595Z" stroke="#1D1D1B" stroke-miterlimit="10"/>
<path d="M213.285 222.653H213.776V222.699V223.124H213.285V222.653Z" stroke="#1D1D1B" stroke-miterlimit="10"/>
<path d="M214.549 222.68L213.776 222.699" stroke="#1D1D1B" stroke-miterlimit="10"/>
<path d="M222.358 223.052L221.526 215.531L220.766 212.498L216.442 212.544L217.025 211.629L213.023 210.937L213.868 213.139L205.85 213.165C205.85 213.165 205.221 213.113 204.828 212.714L204.442 212.459L205.654 211.093L201.245 211.348L203.184 210.571C203.184 210.571 205.628 208.028 206.014 207.46C206.4 206.891 206.82 206.244 206.964 205.944C207.108 205.643 208.136 203.48 208.346 202.186C208.556 200.892 208.772 198.847 208.772 198.847C208.772 198.847 208.89 196.677 208.798 196.272C208.706 195.867 208.556 195.187 208.012 194.671C207.468 194.155 206.571 192.841 206.571 192.841L204.946 190.802L202.64 187.94L200.623 185.45L198.691 183.156L197.204 181.451L195.199 179.092L193.391 176.732L191.845 174.458C191.845 174.458 189.474 171.282 189.258 171.171C189.042 171.06 187.548 169.433 187.548 169.433C187.548 169.433 185.026 167.309 184.803 167.165C184.581 167.021 182.53 165.518 182.53 165.518L179.078 163.14C179.078 163.14 175.796 161.042 175.685 161.016C175.574 160.99 172.849 159.428 172.849 159.428C172.849 159.428 171.892 158.905 171.755 158.709C171.617 158.513 170.058 157.114 170.058 157.114C170.058 157.114 169.023 156.35 167.674 156.866C167.674 156.866 167.359 155.455 165.237 154.605C163.115 153.755 162.387 152.527 162.171 152.082C161.955 151.638 157.999 150.671 157.999 150.671C157.999 150.671 150.518 153.193 149.214 153.337L138.661 155.742C138.661 155.742 129.144 158.578 127.349 159.741C125.554 160.905 117.235 163.44 117.235 163.44L107.062 167.054C107.062 167.054 102.123 168.877 101.107 168.753C100.092 168.629 98.7753 168.426 96.7971 167.557C94.8188 166.688 89.4081 165.139 89.4081 165.139C89.4081 165.139 78.0691 160.963 77.1389 160.781C76.2088 160.598 67.5359 158.186 67.5359 158.186L66.0686 164.427C66.0686 164.427 65.0205 165.858 64.182 166.577C64.182 166.577 64.8371 168.191 64.4506 169.204C64.0641 170.217 63.3435 171.354 63.3435 171.655C63.3435 171.955 62.7474 174.55 62.7474 174.55C62.7474 174.55 59.066 187.267 58.1686 188.489L55.234 195.71C55.234 195.71 54.6641 198.01 54.5134 199.474C54.3628 200.938 52.6858 207.087 51.2513 208.342C51.2513 208.342 50.2032 209.806 49.9019 211.329C49.6005 212.851 48.8276 214.256 48.0743 214.4C47.321 214.544 46.1288 214.25 45.8274 213.537C45.8274 213.537 46.7838 212.257 45.3492 211.479L43.764 211.57C43.764 211.57 42.8338 211.361 42.5653 211.453C42.2967 211.544 40.7704 211.544 40.7704 211.361C40.7704 211.178 43.7902 210.165 43.7902 210.165C43.7902 210.165 41.2159 206.761 35.589 208.819L36.244 209.597L34.2396 209.839L34.4819 208.643L33.7614 207.865L32.0844 209.538C32.0844 209.538 26.2479 207.388 26.0383 207.238C25.8287 207.087 23.8242 206.192 23.3722 206.192C22.9202 206.192 20.4114 205.179 20.4114 205.179C20.4114 205.179 19.062 204.343 18.6755 204.343C18.6755 204.343 16.0749 203.356 15.505 203.48C15.505 203.48 13.7692 203.389 13.5006 203.572C13.232 203.755 9.72749 203.245 9.72749 203.245C9.72749 203.245 6.164 202.382 5.92818 202.258C5.69236 202.134 2.93459 200.677 2.54811 200.35C2.16163 200.023 0.301279 199.278 0.301279 199.278L-0.0458984 199.997" stroke="#1D1D1B" stroke-miterlimit="10"/>
<path d="M9.02005 200.199H15.2234C15.2234 200.199 13.3303 201.193 13.1796 201.343C13.029 201.493 11.7123 201.944 11.1228 201.781C10.5332 201.617 8.86938 201.127 8.86938 201.127L9.0135 200.199H9.02005Z" stroke="#1D1D1B" stroke-miterlimit="10"/>
<path d="M30.8203 206.473L32.1501 205.107L33.9253 206.63H32.6545L33.1916 207.695L32.8379 207.996L30.8203 206.473Z" stroke="#1D1D1B" stroke-miterlimit="10"/>
<path d="M14.981 218.393L23.0447 222.157C23.0447 222.157 17.5553 223.268 14.981 218.393V218.393Z" stroke="#1D1D1B" stroke-miterlimit="10"/>
<path d="M9.44588 216.04C9.44588 216.04 8.63362 216.086 7.42832 214.968C6.22302 213.851 4.38232 214.968 4.38232 214.968L9.22971 216.85L9.44588 216.04Z" stroke="#1D1D1B" stroke-miterlimit="10"/>
<path d="M0 213.642L1.2577 213.942C1.2577 213.942 2.58746 212.87 3.31457 214.197C3.31457 214.197 3.0591 214.687 3.7862 215.661C4.51331 216.635 4.72948 217.83 4.72948 217.83L0 215.68" stroke="#1D1D1B" stroke-miterlimit="10"/>
<path d="M111.975 169.661L115.656 172.229L115.263 172.772L111.562 170.047L111.975 169.661Z" stroke="#1D1D1B" stroke-miterlimit="10"/>
<path d="M117.346 174.523C117.346 174.523 118.584 174.026 120.464 175.823C122.344 177.62 122.894 178.307 122.914 178.529C122.934 178.751 117.346 174.529 117.346 174.529V174.523Z" stroke="#1D1D1B" stroke-miterlimit="10"/>
<path d="M209.938 319.292C209.938 319.292 215.761 309.856 216.331 309.751C216.901 309.647 220.386 304.151 224.493 304.046C224.493 304.046 225.587 302.438 226.517 302.438C227.447 302.438 231.974 303.53 231.974 303.53C231.974 303.53 233.376 305.137 233.742 305.137C233.742 305.137 235.459 306.431 236.133 306.484C236.808 306.536 239.821 307.418 239.566 312.084L239.579 312.81L240.083 313.901L241.538 313.385C241.538 313.385 244.033 315.822 242.265 318.103C240.496 320.384 239.094 322.507 238.524 324.586H237.954L237.384 323.187H236.919C236.919 323.187 237.234 324.481 235.203 325.886C233.172 327.291 225.331 331.591 225.331 331.591C225.331 331.591 222.888 332.937 222.056 330.657C222.056 330.657 221.899 328.892 222.888 328.69C223.877 328.487 227.618 326.252 228.502 324.644C229.386 323.037 232.445 319.769 232.445 319.769V319.096L227.1 320.031L227.467 318.992C227.467 318.992 223.674 317.279 220.864 321.272L225.751 320.495C225.751 320.495 221.539 324.54 214.215 324.331C214.215 324.331 212.034 324.122 211.615 321.945C211.195 319.769 209.951 319.299 209.951 319.299L209.938 319.292Z" stroke="#1D1D1B" stroke-miterlimit="10"/>
<path d="M219.764 316.234L221.061 311.464C221.061 311.464 218.984 311.052 218.408 314.94L219.082 316.234H219.757H219.764Z" stroke="#1D1D1B" stroke-miterlimit="10"/>
<path d="M214.229 330.317C214.229 330.317 216.626 330.173 216.94 330.121C217.255 330.069 218.028 330.206 218.997 331.147L217.857 332.173C217.857 332.173 216.233 332.127 215.801 331.977C215.368 331.827 214.857 331.859 214.229 330.317V330.317Z" stroke="#1D1D1B" stroke-miterlimit="10"/>
<path d="M287.155 285.846L287.797 285.735C287.797 285.735 286.507 286.199 286.265 284.134C286.022 282.069 285.806 281.35 285.865 281.233C285.924 281.115 284.365 280.507 284.273 280.364C284.273 280.364 283.625 280.063 283.166 278.932C282.708 277.802 281.581 274.946 281.581 274.946L281.915 274.881L279.256 271.221C279.256 271.221 277.847 269.62 277.808 269.097C277.769 268.574 277.991 268.137 278.266 267.856C278.542 267.575 278.987 266.614 278.987 266.614L280.009 263.889C280.009 263.889 279.465 262.628 278.581 263.667C278.581 263.667 278.129 263.928 277.795 263.948C277.461 263.967 276.013 264.627 276.013 264.627L275.613 264.006L277.12 262.386L270.235 258.739L269.554 259.72L278.207 267.829" stroke="#1D1D1B" stroke-miterlimit="10"/>
<path d="M279.072 266.588C279.072 266.588 280.467 266.124 281.273 266.176C282.079 266.228 283.533 266.209 283.533 266.209C283.533 266.209 284.129 266.196 284.437 266.385C284.437 266.385 284.66 266.392 284.66 266.666C284.66 266.941 285.112 267.542 285.112 267.542C285.112 267.542 285.55 268.274 287.424 268.457C287.424 268.457 287.824 268.333 288.714 269.404L291.78 270.509L292.291 272.665C292.291 272.665 292.245 272.953 292.625 273.103L293.005 273.253L294.112 271.241L297.066 275.626L295.887 275.959C295.887 275.959 296.333 276.253 297.728 276.227C299.123 276.201 300.315 276.416 300.682 278.044C300.682 278.044 301.016 278.207 301.206 278.233C301.396 278.259 303.283 279.213 303.283 279.213C303.283 279.213 304.115 279.632 305.123 280.39C306.132 281.148 307.698 280.043 307.698 280.043L308.379 281.566L306.637 283.964C306.637 283.964 306.65 284.278 305.726 284.33C305.687 284.33 305.641 284.33 305.595 284.33C304.547 284.356 303.774 284.33 303.774 284.33L300.623 284.677L299.818 284.5L299.752 284.082L300.25 284.35L299.215 284.807L295.94 285.062L296.582 285.866C296.582 285.866 297.898 285.278 300.099 285.533C302.3 285.787 305.091 286.617 305.091 286.617L306.335 285.441L303.741 284.304" stroke="#1D1D1B" stroke-miterlimit="10"/>
<path d="M305.837 284.39L310.069 284.939L310.141 285.305L304.992 286.612C304.992 286.612 305.857 286.768 305.995 286.821C306.132 286.873 306.388 286.945 306.479 287.128C306.571 287.311 307.37 287.69 307.567 287.762C307.763 287.834 308.674 287.932 309.499 287.428C310.325 286.925 311.386 286.226 311.386 286.226C311.386 286.226 311.222 287.481 311.641 287.742C312.06 288.003 312.689 288.324 312.689 288.324C312.689 288.324 311.039 288.539 310.547 289.356C310.056 290.173 310.691 291.598 310.691 291.598C310.691 291.598 310.777 292.049 310.665 292.369L312.748 291.003L314.039 293.245L312.27 294.048C312.27 294.048 312.25 294.055 312.224 294.068C312.028 294.14 311.288 294.342 311.176 293.591C311.052 292.722 311.019 292.539 310.685 292.388" stroke="#1D1D1B" stroke-miterlimit="10"/>
<path d="M312.329 294.074C312.329 294.074 313.364 294.283 313.711 294.414C314.058 294.545 314.831 295.251 314.831 295.251C314.831 295.251 315.631 296.126 315.768 296.505C315.906 296.884 316.22 297.218 316.168 298.113C316.115 299.008 315.788 299.832 315.788 299.832L317.38 299.668L320.511 303.746L318.441 304.707L326.956 307.393C326.956 307.393 326.858 307.843 326.852 307.928C326.845 308.013 326.583 308.477 326.465 308.726C326.347 308.974 325.699 310.065 325.954 311.281C326.21 312.496 327.12 313.398 327.12 313.398C327.12 313.398 328.43 314.47 328.568 315.705C328.568 315.705 328.823 316.822 328.777 317.371C328.732 317.92 328.928 318.639 329.02 318.822C329.112 319.005 329.485 319.848 329.924 320.168C329.924 320.168 330.133 320.358 330.435 320.378C330.736 320.397 331.496 320.678 331.633 320.985C331.771 321.292 331.935 321.704 331.424 322.848L333.481 322.619C333.481 322.619 334.214 324.312 334.483 324.606C334.752 324.9 334.994 325.148 335.387 325.292C335.78 325.436 337.555 325.194 338.767 324.697C339.979 324.2 341.014 324.383 341.296 325.043C341.296 325.043 341.669 325.671 341.702 326.03C341.734 326.39 342.095 326.612 342.095 326.612C342.095 326.612 342.684 327.017 342.992 327.442C343.3 327.867 345.383 330.134 345.383 330.134C345.383 330.134 347.302 332.369 347.65 333.219C347.65 333.219 348.691 334.996 348.796 336.133L347.322 336.989C347.322 336.989 346.464 337.395 346.228 337.382C345.992 337.368 345.462 337.787 345.553 338.264C345.645 338.741 346.412 339.329 346.412 339.329C346.412 339.329 347.152 340.237 346.988 341.865C346.824 343.492 347.577 346.753 347.577 346.753L348.278 346.844L349.621 342.891C349.621 342.891 349.818 341.629 350.244 341.276C350.669 340.923 351.102 341.146 351.102 341.146C351.102 341.146 351.337 341.211 351.6 341.041C351.862 340.871 352.615 340.29 352.615 340.29C352.615 340.29 350.348 340.564 350.021 339.12C350.021 339.12 349.982 338.211 350.126 337.989C350.27 337.767 349.968 337.199 349.68 337.055C349.392 336.911 348.809 336.186 348.809 336.186C348.809 336.186 349.837 335.075 349.975 334.924C350.113 334.774 350.342 334.362 350.388 334.238C350.434 334.114 351.023 332.925 351.279 332.735C351.534 332.546 351.77 332.029 352.838 332.127C353.905 332.225 355.504 333.297 355.504 333.297L357.665 334.33L359.558 335.173C359.558 335.173 359.48 334.101 359.932 333.532C360.384 332.964 361.864 333.349 361.864 333.349C361.864 333.349 362.788 334.604 363.521 334.82C364.255 335.035 365.251 334.846 365.578 334.421L365.526 334.323L364.74 332.814L361.825 333.454C361.825 333.454 362.133 332.016 362.133 331.931C362.133 331.846 362.441 330.788 363.842 331.101C363.842 331.101 364.17 330.853 364.281 330.441L363.253 329.644L370.105 328.154V328.291L370.236 330.056L369.07 329.749L367.858 331.663L367.432 331.533L367.295 329.618C367.295 329.618 365.932 330.938 365.749 332.154C365.565 333.369 365.598 334.349 365.598 334.349L368.185 335.656L367.819 337.617C367.819 337.617 369.338 338.061 370.164 337.617C370.989 337.172 371.945 335.395 371.945 335.395L373.963 331.291L370.845 327.723L370.203 328.252L369.967 328.043L370.72 327.749L367.773 325.945L367.504 326.259L368.022 326.344C368.022 326.344 367.707 326.069 367.55 325.344C367.55 325.344 367.452 325.128 367.602 325.05C367.753 324.972 368.775 324.259 368.775 324.259L370.341 323.292C370.341 323.292 371.009 322.776 371.14 322.599C371.271 322.423 371.435 322.331 371.1 321.946C370.766 321.56 370.714 321.384 370.236 321.711C369.758 322.037 367.544 324.227 367.544 324.227L367.013 323.906C367.013 323.906 368.035 323.357 368.218 322.331C368.218 322.331 368.356 321.946 367.904 320.959C367.904 320.959 367.222 319.619 367.19 319.338L366.371 319.835L366.07 319.338L369.725 317.515L365.768 317.483L367.183 318.169C367.183 318.169 363.286 318.332 362.821 318.43C362.821 318.43 360.731 318.613 359.938 319.11C359.938 319.11 357.161 320.273 356.394 321.064C356.394 321.064 353.368 323.377 353.231 323.586C353.093 323.795 351.423 324.736 351.305 324.658C351.187 324.579 350.499 322.913 350.591 322.39C350.682 321.867 350.905 319.887 351.069 319.724C351.233 319.561 350.859 319.234 352.038 318.783L353.067 318.214C353.067 318.214 353.886 317.528 355.143 318.156C355.143 318.156 355.995 318.75 356.132 318.992C356.27 319.234 356.925 319.456 357.613 318.979C358.301 318.502 360.495 316.894 361.091 316.757C361.091 316.757 364.425 315.234 366.377 315.025C366.377 315.025 373.059 313.503 373.976 313.503C374.893 313.503 376.19 313.176 376.387 312.725C376.583 312.274 376.714 311.549 376.655 311.353C376.596 311.157 377.088 310.248 377.369 310.026C377.369 310.026 377.356 310.993 377.788 311.725C378.221 312.457 379.4 312.575 379.4 312.575C379.4 312.575 380.284 312.47 380.658 312.411C381.031 312.353 383.749 312.261 385.616 313.084C387.483 313.908 389.959 314.829 389.959 314.829" stroke="#1D1D1B" stroke-miterlimit="10"/>
<path d="M389.94 318.626C389.94 318.626 385.551 314.588 384.883 314.287C384.883 314.287 382.236 312.281 381.09 312.405" stroke="#1D1D1B" stroke-miterlimit="10"/>
<path d="M379.511 327.389C379.511 327.389 377.919 327.762 378.037 328.847C378.037 328.847 378.247 329.605 378.771 330.206C379.295 330.807 379.347 331.219 379.347 331.219C379.347 331.219 376.996 330.088 376.95 329.102C376.904 328.115 377.284 327.102 379.511 327.389Z" stroke="#1D1D1B" stroke-miterlimit="10"/>
<path d="M356.539 332.715L359.074 333.003C359.074 333.003 358.871 332.271 358.825 332.029C358.779 331.787 358.759 331.611 357.947 331.702C357.135 331.794 356.539 331.84 356.539 331.84V332.715V332.715Z" stroke="#1D1D1B" stroke-miterlimit="10"/>
<path d="M84.1023 349.432C84.1023 349.432 102.326 367.115 109.82 380.316C117.313 393.517 123.052 408.959 123.052 408.959C123.052 408.959 123.543 410.775 125.351 410.704L126.576 415.311L130.762 422.074L132.995 421.428C132.995 421.428 131.77 423.878 131.77 424.597C131.77 425.316 132.347 427.335 133.932 428.773C135.517 430.211 139.775 437.268 139.775 437.268C139.775 437.268 140.352 438.059 141.432 439.065C142.513 440.072 150.092 446.626 151.966 449.214C153.839 451.802 156.007 452.096 156.007 452.096C156.007 452.096 157.088 452.887 157.809 453.965C157.809 453.965 160.043 455.331 161.274 455.331C162.506 455.331 167.982 457.853 168.637 458.5C169.292 459.147 172.895 462.389 173.687 463.467C174.48 464.545 176.648 466.133 177.585 466.061C178.522 465.99 191.944 459.147 191.944 459.147L217.13 445.11C217.13 445.11 218.139 443.888 219.515 445.613C220.89 447.339 225.07 452.599 225.286 453.318C225.502 454.037 229.472 459.938 229.904 460.52C230.336 461.101 234.09 464.408 234.954 467.068C235.819 469.728 246.575 481.896 246.575 481.896L246.935 480.889L238.275 466.78C238.275 466.78 237.051 465.415 236.474 464.983C235.898 464.552 234.529 461.382 234.529 461.382C234.529 461.382 228.974 453.965 228.758 453.103C228.541 452.24 224.86 446.26 224.86 446.26L222.914 444.32C222.914 444.32 221.257 442.954 222.914 442.091C224.572 441.229 231.79 437.34 232.295 436.765C232.799 436.19 235.688 434.243 239.441 436.981C243.195 439.719 243.988 439.791 243.988 439.791L248.389 440.438C248.389 440.438 250.479 438.856 251.062 440.725V442.451L252.863 443.816L250.047 444.176C250.047 444.176 250.767 443.169 248.966 442.451C247.165 441.732 248.678 439.209 248.678 439.209C248.678 439.209 248.389 437.196 246.876 436.83C245.363 436.465 245.579 435.033 245.579 435.033L246.077 434.72L247.204 435.844L248.01 432.276L249.569 432.975L249.352 435.739L249.837 435.929L251.291 432.23L253.171 435.314C253.171 435.314 254.298 435.073 254.973 435.288C255.647 435.504 265.912 439.281 267.465 439.418C267.465 439.418 271.415 434.648 268.945 432.178C268.945 432.178 265.585 431.321 265.159 431.132C264.733 430.942 263.947 430.302 263.705 429.982C263.462 429.662 259.702 426.446 256.748 425.61L256.132 425.714L256.027 427.165L251.435 427.218L246.922 424.055V423.571L249.719 423.708L250.178 422.29C250.178 422.29 250.224 422.316 250.302 422.362C250.335 422.382 250.368 422.395 250.407 422.421C250.911 422.695 252.104 423.316 252.543 423.316C253.106 423.316 254.292 423.264 254.586 423.127C254.704 423.074 254.128 422.427 253.263 421.676C252.018 420.598 250.184 419.291 248.999 419.212C248.999 419.212 247.63 417.069 246.175 418.219L247.413 419.238C247.413 419.238 247.761 419.585 247.787 420.179C247.813 420.774 250.086 422.323 250.086 422.323L250.328 421.264L253.165 421.676H253.204L253.237 421.689H253.309" stroke="#1D1D1B" stroke-miterlimit="10"/>
<path d="M244.21 418.435L246.208 421.258C246.208 421.258 244.132 421.879 242.874 421.107C241.616 420.336 242.933 419.454 242.933 419.454L244.21 418.435V418.435Z" stroke="#1D1D1B" stroke-miterlimit="10"/>
<path d="M248.985 419.108C248.985 419.108 249.359 417.095 249.699 416.539C250.04 415.984 250.636 415.605 251.579 415.272L250.643 413.801C250.643 413.801 250.138 413.082 249.726 412.912C249.313 412.742 245.501 410.553 245.501 410.553L243.535 409.547L244.649 409.168L242.278 407.41L239.926 405.619L236.625 403.077L236.887 406.384C236.887 406.384 235.917 406.449 234.483 405.998C233.048 405.547 231.823 405.208 231.823 405.208C231.823 405.208 231.122 404.018 229.995 403.528C228.869 403.038 227.611 402.025 227.611 402.025L225.371 400.888C225.371 400.888 224.487 400.607 223.51 400.888L222.089 401.038L221.873 401.359L223.262 402.711L220.157 402.548L218.886 402.587L216.547 402.169H216.495L216.39 402.143L212.348 401.417L213.2 401.254L212.27 401.692C212.27 401.692 212.807 399.777 214.176 400.927L215.44 401.3L216.416 402.189L217.504 401.725L215.25 401.195L214.183 400.855L214.248 399.326L217.471 401.803L219.371 401.332L215.021 399.862L214.929 399.816L214.877 399.764L214.798 399.777" stroke="#1D1D1B" stroke-miterlimit="10"/>
<path d="M214.183 399.425L214.549 398.209C214.549 398.209 217.366 398.307 218.637 399.425C218.637 399.425 219.384 399.987 219.678 400.457C219.973 400.928 221.86 401.372 221.86 401.372H219.259L218.899 402.64" stroke="#1D1D1B" stroke-miterlimit="10"/>
<path d="M222.063 401C222.063 401 219.24 397.15 218.919 396.883C218.919 396.883 218.054 395.36 216.521 396.007C216.521 396.007 216.01 396.157 215.676 396.811C215.342 397.464 214.556 398.203 214.556 398.203C214.556 398.203 213.678 397.431 213.318 397.085C212.958 396.739 211.975 396.288 211.975 396.288C211.975 396.288 206.767 393.452 206.414 393.386C206.06 393.321 204.553 392.726 202.929 392.628L203.197 393.929L196.097 389.609C196.097 389.609 195.782 389.583 195.874 389.165C195.966 388.746 196.11 388.766 195.972 388.465C195.835 388.165 195.533 388.021 195.062 387.988C194.59 387.956 194.302 387.76 194.302 387.76C194.302 387.76 192.697 387.113 192.658 387.074C192.618 387.034 192.468 387.067 192.658 386.512C192.847 385.956 193.221 385.629 192.736 384.793C192.251 383.956 191.708 383.623 191.708 383.623C191.708 383.623 190.535 382.591 190.804 381.277L190.26 381.166C190.26 381.166 186.985 378.839 186.854 378.663C186.723 378.487 185.871 377.676 185.871 377.676C185.871 377.676 184.424 376.356 183.533 375.971C182.642 375.585 180.971 374.925 179.583 374.84C178.194 374.755 177.185 374.154 176.779 373.344C176.373 372.533 176.406 371.749 176.406 371.749C176.406 371.749 176.189 370.252 174.853 370.2C174.853 370.2 174.152 370.207 173.543 370.429C172.934 370.651 170.15 371.037 170.15 371.037C170.15 371.037 168.525 371.292 167.982 371.559C167.438 371.827 166.324 372.416 165.84 373.487C165.355 374.559 165.669 374.879 165.669 374.879L162.505 376.918C162.505 376.918 161.032 377.866 160.593 378.362C160.154 378.859 159.872 379.369 159.715 379.689C159.558 380.009 159.06 381.074 157.35 380.695C157.35 380.695 157.9 381.983 157.448 382.421C157.141 382.715 156.243 382.898 155.293 382.996C154.835 383.041 154.37 383.074 153.95 383.087L153.295 384.669C153.295 384.669 154.245 385.296 154.527 385.597C154.809 385.897 155.221 386.08 155.844 385.433C156.466 384.786 156.865 384.12 156.865 384.12L155.215 382.956" stroke="#1D1D1B" stroke-miterlimit="10"/>
<path d="M153.243 384.688L151.573 385.989C151.573 385.989 150.302 386.904 150.033 387.315C149.765 387.727 149.11 388.616 149.044 388.688C148.979 388.76 148.651 389.21 147.839 389.335C147.027 389.459 146.221 389.021 146.221 389.021L145.697 388.289C145.697 388.289 149.391 385.433 149.47 385.427C149.548 385.42 151.108 383.956 151.448 383.688C151.789 383.42 152.247 382.93 153.905 383.009C153.905 383.009 154.697 382.146 154.92 381.538C155.143 380.931 155.994 380.297 156.937 380.434L157.455 380.728" stroke="#1D1D1B" stroke-miterlimit="10"/>
<path d="M156.957 380.388C156.957 380.388 156.807 379.532 156.918 379.166C157.029 378.8 159.099 376.827 159.099 376.827L149.509 371.912C149.509 371.912 142.441 367.763 142.291 367.652C142.14 367.541 137.856 365.018 137.856 365.018C137.856 365.018 131.869 361.783 131.279 361.581C130.69 361.378 125.161 358.823 123.274 358.64C121.388 358.457 118.676 357.614 118.676 357.614L118.289 358.235C118.289 358.235 120.196 359.803 120.766 360.921C120.766 360.921 119.724 361.339 119.01 361.176C118.296 361.012 109.263 355.804 109.263 355.804C109.263 355.804 104.959 352.589 102.267 354.725C102.267 354.725 101.075 352.935 100.616 351.817C100.158 350.7 97.7601 350.739 97.7601 350.739C97.7601 350.739 96.8103 348.929 93.5481 347.341C90.286 345.753 89.0938 345.439 88.989 345.224L88.4584 345.498L89.4279 349.047L87.1745 348.132V348.537L84.3905 348.975C84.3905 348.975 84.3512 349.249 84.5543 349.524C84.7573 349.798 85.5369 350.55 85.8971 351.216" stroke="#1D1D1B" stroke-miterlimit="10"/>
<path d="M78.0889 344.478L81.1152 342.93L83.0935 347.027L82.3664 347.491L78.0889 344.478Z" stroke="#1D1D1B" stroke-miterlimit="10"/>
<path d="M108.955 361.463L117.405 367.743C117.405 367.743 111.444 368.841 108.955 361.463Z" stroke="#1D1D1B" stroke-miterlimit="10"/>
<path d="M247.525 398.372C247.525 398.372 256.361 401.751 256.886 402.052C257.41 402.352 258.176 402.627 258.176 402.627C258.176 402.627 260.023 404.822 260.403 405.509L260.593 405.757L260.043 406.358L257.095 404.685L256.296 410.782C256.296 410.782 253.656 410.547 252.831 409.22C252.005 407.894 253.184 408.913 251.56 407.815L242.396 401.117C242.396 401.117 241.518 400.98 242.206 399.719C242.894 398.457 243.169 398.209 243.169 398.209C243.169 398.209 245.73 399.634 246.719 399.529L247.518 398.379L247.525 398.372Z" stroke="#1D1D1B" stroke-miterlimit="10"/>
<path d="M263.881 401.894L267.969 401.339C267.969 401.339 267.144 402.796 266.24 402.829C265.336 402.862 263.881 401.894 263.881 401.894Z" stroke="#1D1D1B" stroke-miterlimit="10"/>
<path d="M45.572 375.167L46.5612 374.638L48.0874 377.84L47.5896 378.206L45.572 375.167Z" stroke="#1D1D1B" stroke-miterlimit="10"/>
<path d="M80.0278 412.468C80.0278 412.468 80.5977 412.906 81.0628 412.965C81.5278 413.024 81.7768 412.697 81.7768 412.697C81.7768 412.697 82.0584 412.22 82.0977 411.756C82.137 411.292 82.3008 411.096 82.3008 411.096L82.7004 410.469L85.0782 411.456L83.5847 412.344C83.5847 412.344 83.9581 413.115 83.9777 413.227L84.4428 414.181C84.4428 414.181 84.7704 414.867 84.7441 415.298C84.7179 415.729 84.6393 416.2 83.9974 416.912C83.3554 417.625 82.3336 418.67 82.3336 418.67L85.6088 417.056L85.9757 417.611L83.5061 421.807C83.5061 421.807 82.2484 422.055 81.1676 421.748C80.0867 421.441 79.4055 420.931 79.4055 420.931C79.4055 420.931 78.2526 419.958 77.8858 419.154C77.5189 418.35 77.4534 418.285 77.401 418.128C77.3486 417.971 76.6018 417.206 76.2612 417.108C75.9206 417.01 75.6062 416.644 75.6062 416.644C75.6062 416.644 74.0995 418.174 73.8768 419.971C73.6541 421.768 73.5624 422.552 73.6541 423.277C73.7458 424.003 74.0537 425.297 74.9773 426.329L73.1759 427.238C73.1759 427.238 72.9663 429.296 72.8877 429.584C72.8091 429.871 72.2851 430.766 71.8396 431.315C71.3942 431.864 70.2806 432.851 70.2806 432.851C70.2806 432.851 69.2325 433.962 68.0796 433.563C68.0796 433.563 67.3198 433.263 67.2018 432.479C67.0839 431.694 66.2913 431.119 66.2913 431.119C66.2913 431.119 64.1689 428.486 64.0445 428.081L64.634 427.571C64.634 427.571 64.883 427.362 65.2956 427.623L67.2608 428.793L68.3089 427.898C68.3089 427.898 67.5949 425.728 67.4966 424.78C67.3984 423.833 67.2608 420.506 67.2608 420.506L67.0708 415.88C67.0708 415.88 67.0053 414.632 66.7695 414.135C66.5337 413.638 65.6297 412.841 65.6297 412.841L64.0445 411.906C64.0445 411.906 62.9178 411.384 62.6689 409.972C62.6689 409.972 62.5313 409.763 62.6689 408.423C62.8064 407.084 62.5444 406.365 62.5444 406.365C62.5444 406.365 62.3086 404.646 62.3086 403.594C62.3086 402.542 61.7322 400.117 61.7322 400.117C61.7322 400.117 60.8478 397.451 60.7103 397.19C60.5727 396.928 59.1709 394.347 58.9875 394.184C58.8041 394.02 57.7036 392.772 57.5988 392.373C57.494 391.975 56.4 389.955 56.4 389.955C56.4 389.955 55.614 389.184 56.2363 388.786C56.8586 388.387 58.4962 388.472 58.4962 388.472L55.9939 381.578C55.9939 381.578 57.6577 379.598 57.8477 378.023C58.0377 376.448 58.2669 375.716 58.2735 374.833C58.28 373.951 58.7058 372.527 58.7058 372.527C58.7058 372.527 59.2299 370.246 59.1185 369.847C59.0071 369.449 58.8958 368.9 58.9416 368.566C58.9875 368.233 59.5901 366.247 59.0857 365.763C58.5814 365.279 58.2669 364.907 58.2669 364.907C58.2669 364.907 57.9722 364.632 58.0639 364.325C58.1556 364.018 58.2669 361.803 58.2669 361.803C58.2669 361.803 60.5465 362.43 61.0116 362.691C61.4767 362.953 64.9812 362.561 65.1122 362.495C65.2432 362.43 66.2062 361.737 66.2389 361.607C66.2717 361.476 66.6254 362.195 66.6254 362.195C66.6254 362.195 66.7892 362.731 66.0621 363.142C65.3349 363.554 64.9943 363.757 64.9943 363.757L67.9814 364.861L68.2696 364.064C68.2696 364.064 68.7609 365.077 69.3766 365.024C69.9924 364.972 70.5885 363.6 70.5885 363.6L72.2523 364.9C72.2523 364.9 71.7086 365.606 71.6759 366.037C71.6431 366.469 72.2523 367.266 72.2523 367.266C72.2523 367.266 73.0515 366.776 73.1366 366.148C73.2218 365.521 73.0646 364.737 73.0646 364.737C73.0646 364.737 73.189 363.129 73.4445 362.874C73.7 362.62 73.8048 362.352 75.2917 362.711L76.235 362.874L74.7874 364.521L75.2197 364.704C75.2197 364.704 76.3267 363.567 77.211 364.43C77.211 364.43 77.8071 364.848 78.0102 365.26C78.2133 365.671 79.5496 366.109 79.5496 366.109C79.5496 366.109 80.4536 366.717 81.2855 367.338C81.9274 367.815 82.5235 368.298 82.6283 368.514L79.1304 369.475C79.1304 369.475 80.126 367.756 80.2701 367.632C80.4143 367.508 80.7811 367.161 81.3772 367.521C81.9733 367.88 82.7724 368.632 82.7724 368.632C82.7724 368.632 81.2396 369.677 80.9448 372.494C80.6501 375.311 80.6763 376.245 80.6763 376.245C80.6763 376.245 81.1479 378.656 78.8159 378.768L81.2593 380.623C81.2593 380.623 81.7506 384.198 81.9078 384.688C82.065 385.178 83.6961 389.805 83.6306 392.105C83.5651 394.406 83.4537 395.412 80.2308 394.693L80.185 400.006H80.7221L79.8247 400.986L82.8707 406.816L81.2396 407.397L82.6938 410.482L79.9623 411.756L78.1478 411.24L76.8508 415.017L80.5649 414.279L79.9623 412.449V411.652" stroke="#1D1D1B" stroke-miterlimit="10"/>
<path d="M86.4734 377.604L87.8817 373.265C87.8817 373.265 89.2901 374.728 88.7071 375.924C88.1241 377.12 86.4734 377.604 86.4734 377.604V377.604Z" stroke="#1D1D1B" stroke-miterlimit="10"/>
<path d="M98.4019 417.2L100.681 422.088C100.681 422.088 98.736 422.754 98.4019 419.644C98.0678 416.533 98.4019 417.2 98.4019 417.2Z" stroke="#1D1D1B" stroke-miterlimit="10"/>
<path d="M85.7856 436.014L86.7943 436.438C86.7943 436.438 85.7004 440.882 85.0716 441.372C84.4427 441.862 84.1021 441.908 84.1021 441.908L83.506 441.124C83.506 441.124 83.1916 441.235 83.6632 440.431C84.1348 439.628 85.7856 436.014 85.7856 436.014Z" stroke="#1D1D1B" stroke-miterlimit="10"/>
<path d="M69.0295 422.297L71.1912 423.859L70.844 424.767L69.0295 424.872V422.297Z" stroke="#1D1D1B" stroke-miterlimit="10"/>
<path d="M92.2773 522.243L92.8014 520.557L96.8234 518.061C96.8234 518.061 101.075 515.212 101.54 514.865C102.005 514.519 108.883 510.742 108.883 510.742L110.802 509.461L111.149 509.984L93.1486 522.773L92.2773 522.25V522.243Z" stroke="#1D1D1B" stroke-miterlimit="10"/>
<path d="M89.3622 523.929L84.3511 527.53C84.3511 527.53 87.1481 527.294 88.3731 526.138C89.598 524.981 89.6177 524.118 89.5849 523.929C89.5522 523.739 89.3622 523.929 89.3622 523.929V523.929Z" stroke="#1D1D1B" stroke-miterlimit="10"/>
<path d="M63.7496 540.404L65.2497 539.842C65.2497 539.842 66.4484 542.064 66.3305 543.377C66.2126 544.691 66.075 546.324 66.075 546.324L63.3762 544.593L64.2671 540.639L63.7496 540.404Z" stroke="#1D1D1B" stroke-miterlimit="10"/>
<path d="M15.8982 525.889L16.2585 525.249L19.1342 526.752L18.6691 527.576L15.8982 525.889Z" stroke="#1D1D1B" stroke-miterlimit="10"/>
<path d="M2.09617 534.966C2.09617 534.966 3.177 534.43 3.7469 534.43C4.3168 534.43 6.22955 534.071 7.55931 532.208C8.88906 530.346 7.55931 529.019 7.55931 529.019C7.55931 529.019 6.33436 528.732 5.69241 526.686C5.05045 524.641 5.65965 524.464 4.65087 522.563L6.05269 522.739L15.3282 530.954C15.3282 530.954 16.5859 532.568 16.1929 534.973C15.7999 537.378 15.5444 538.665 15.9047 539.887C16.265 541.109 16.4811 541.109 16.9135 541.357C17.3458 541.606 23.274 543.795 23.274 543.795C23.274 543.795 22.9858 541.821 24.3549 541.717C25.7239 541.612 25.8615 541.749 26.6213 541.142C27.3812 540.534 28.3441 539.704 29.1367 539.743C29.9294 539.782 30.2503 539.528 30.2503 539.528C30.2503 539.528 30.8595 539.743 31.2919 540.678C31.7242 541.612 32.0124 542.651 32.0124 542.651C32.0124 542.651 32.3006 543.547 30.8268 544.409L29.4577 545.664C29.4577 545.664 28.3769 545.559 28.128 546.919L27.8397 548.356L29.4905 549.003H37.469C37.469 549.003 43.8296 548.683 44.6222 548.788C45.4148 548.892 54.1139 549.003 54.1139 549.003H92.9782C92.9782 549.003 94.7009 547.03 92.5458 545.2C90.3907 543.37 90.3514 542.22 90.3514 542.22L93.2271 543.762L93.9083 540.462C93.9083 540.462 95.487 541.037 96.2076 541.037C96.9281 541.037 98.9784 541.325 98.9784 542.651V544.514L101.389 543.089L102.359 544.834L104.121 541.854L100.38 540.096V539.057C100.38 539.057 102.359 538.809 103.007 538.521C103.656 538.234 106.708 539.312 106.708 539.312C106.708 539.312 111.994 540.782 112.715 540.782C113.435 540.782 120.517 541.789 120.517 541.789L122.279 538.384L123.68 539.103C123.68 539.103 123.825 535.986 125.403 535.012C125.403 535.012 126.877 534.94 127.558 534.188C128.24 533.437 128.888 530.457 128.888 530.457L130.329 531.496L126.052 530.849V530.058C126.052 530.058 128.711 528.444 132.845 529.451C132.845 529.451 132.701 528.34 133.061 527.66C133.421 526.98 133.598 524.647 132.524 523.282C131.449 521.916 132.668 519.589 133.781 519.302C134.895 519.014 136.48 517.041 136.48 517.041C136.48 517.041 137.378 516.721 137.921 516.864C138.465 517.008 141.301 515.538 143.024 517.943L143.85 517.975C143.85 517.975 144.642 518.335 144.891 518.367C145.14 518.4 144.603 520.517 144.603 520.517L143.594 519.838L145.317 520.125C145.317 520.125 145.893 519.805 146.326 519.766C146.758 519.727 147.406 519.446 148.193 520.125C148.979 520.805 150.243 522.171 152.11 520.7L144.059 515.283L144.596 514.172L142.657 513.884C142.657 513.884 139.926 510.839 140.751 507.572C140.751 507.572 137.908 505.206 141.649 502.409L142.258 503.807C142.258 503.807 143.908 499.932 144.773 499.684C145.638 499.436 146.607 500.363 146.607 500.363L148.618 502.984L149.228 500.795C149.228 500.795 151.022 503.304 152.536 500.076C152.536 500.076 155.195 502.657 156.02 504.199C156.846 505.742 159.007 505.918 159.007 505.918L159.944 504.232C159.944 504.232 160.337 505.487 160.481 505.735C160.625 505.984 159.8 507.885 158.975 508.643C158.975 508.643 160.16 510.937 160.016 512.447C159.872 513.956 159.152 514.42 159.152 514.42C159.152 514.42 158.686 514.995 159.224 515.603C159.761 516.211 160.665 517.002 160.914 517.106C161.163 517.211 162.315 515.42 162.315 515.42C162.315 515.42 160.481 513.878 162.492 512.407C162.492 512.407 163.678 512.584 164.038 513.59C164.399 514.597 164.687 515.779 164.687 515.779C164.687 515.779 164.903 516.355 164.254 516.819C163.606 517.283 162.709 518.505 162.709 518.505C162.709 518.505 162.276 518.936 163.102 519.511C163.927 520.086 166.193 521.053 166.442 521.556L166.645 521.681L168.879 519.962L169.37 520.413C169.37 520.413 167.248 521.053 168.407 524.687L169.37 521.615H169.737V525.647L173.779 521.949L174.408 522.177L172.75 525.517L175.764 524.458L175.168 525.713L178.05 527.562V527.098L183.618 528.915L179.144 530.3C179.144 530.3 180.834 531.457 181.993 531.856C183.153 532.254 184.247 531.326 184.247 531.326C184.247 531.326 185.111 530.464 185.439 531.359L185.74 532.052C185.74 532.052 191.78 534.443 192.389 534.496C192.998 534.548 196.896 535.554 197.76 536.116C198.625 536.678 202.83 537.58 203.741 537.534C204.652 537.489 205.818 537.587 206.885 538.397C207.953 539.207 209.872 539.358 210.383 537.639L213.423 539.103C213.423 539.103 215.047 539.965 217.373 539.965C219.698 539.965 221.074 541.129 221.074 541.129C221.074 541.129 223.052 542.292 225.987 542.089C228.921 541.887 228.974 542.795 228.974 542.795C228.974 542.795 229.838 544.311 232.367 543.351L234.09 544.409V543.854C234.09 543.854 236.317 544.207 237.588 544.154C238.858 544.102 239.972 543.396 240.529 543.952C241.086 544.507 240.882 545.572 242.048 545.925L241.341 547.696C241.341 547.696 244.839 546.991 250.158 547.899C250.158 547.899 252.844 548.304 254.265 547.899C255.687 547.494 258.32 547.141 258.32 547.141L256.8 548.99L263.338 548.605L263.135 535.26L263.999 535.11C263.999 535.11 264.353 535.816 264.608 536.371C264.864 536.927 264.661 538.953 264.608 539.756C264.556 540.56 265.165 547.801 265.827 548.99L389.946 549.16C389.946 549.16 389.894 549.781 389.481 549.931C389.068 550.082 0.216167 549.931 0.216167 549.931C0.216167 549.931 0 549.356 0 549.095L18.7083 548.944C18.7083 548.944 19.2323 549.075 19.5664 548.873C19.9005 548.67 21.9443 546.625 22.1146 545.827C22.2849 545.03 19.2847 543.566 19.2847 543.566C19.2847 543.566 14.3194 542.044 13.4089 541.227C12.4984 540.41 10.8018 539.168 10.5267 538.724C10.2516 538.279 8.18161 537.293 7.95889 537.293C7.73617 537.293 5.58105 535.973 5.18802 535.456L2.22718 535.678L2.09617 534.966V534.966Z" stroke="#1D1D1B" stroke-miterlimit="10"/>
<path d="M119.56 548.475L127.139 546.436C127.139 546.436 128.063 546.031 128.836 546.436C129.609 546.841 130.035 547.782 130.035 547.782C130.035 547.782 129.419 548.743 129.052 548.802C128.685 548.86 119.567 548.802 119.567 548.802V548.475H119.56Z" stroke="#1D1D1B" stroke-miterlimit="10"/>
<path d="M161.929 526.941L163.691 529.255C163.691 529.255 162.689 529.738 162.479 529.98C162.27 530.222 160.265 529.327 161.929 526.948V526.941Z" stroke="#1D1D1B" stroke-miterlimit="10"/>
<path d="M153.774 522.393C153.774 522.393 154.986 525.184 155.988 525.876C156.99 526.569 159.407 527.425 159.407 527.425C159.407 527.425 159.997 527.321 160.377 526.772C160.757 526.223 159.997 525.876 159.997 525.876C159.997 525.876 157.16 525.151 157.645 523.047C157.645 523.047 157.783 521.772 153.774 522.393V522.393Z" stroke="#1D1D1B" stroke-miterlimit="10"/>
<path d="M154.088 539.253C154.088 539.253 160.285 536.358 161.281 536.319C162.276 536.28 168.774 534.078 168.774 534.078C168.774 534.078 170.608 532.973 171.886 534.078C173.163 535.182 172.993 535.731 172.993 535.731L167.635 536.143L167.425 536.626L179.694 538.835C179.694 538.835 179.622 540.351 180.729 540.319C180.729 540.319 182.386 539.489 182.596 540.149C182.596 540.149 181.731 541.253 181.731 541.907C181.731 542.56 182.943 543.116 182.943 543.116C182.943 543.116 184.6 543.462 184.876 543.704C185.151 543.946 186.395 544.632 186.395 544.632V545.325H184.496C184.496 545.325 180.729 544.808 179.072 544.253C177.414 543.697 176.373 542.286 176.373 542.286L170.707 542.456C170.707 542.456 169.462 542.835 169.292 543.148C169.122 543.462 168.257 544.357 167.53 543.181L167.425 542.181C167.425 542.181 167.497 543.423 166.213 543.351C164.929 543.279 165.833 542.763 164.137 542.939L165.067 544.834C165.067 544.834 160.468 544.285 159.119 543.665C157.769 543.044 154.075 539.253 154.075 539.253H154.088Z" stroke="#1D1D1B" stroke-miterlimit="10"/>
</g>
<defs>
<clipPath id="clip0_150_1515">
<rect width="389.94" height="550.174" fill="white"/>
</clipPath>
</defs>
</svg>
