<?xml version="1.0" encoding="UTF-8"?><svg xmlns="http://www.w3.org/2000/svg" width="354" height="274.71" viewBox="0 0 354 274.71"><defs><style>.c{fill:none;stroke:#fff;stroke-width:.5px;}.c,.d{stroke-miterlimit:10;}.e{opacity:.92;}.d{stroke:#1d1d1b;stroke-width:.75px;}.d,.f{fill:#1d1d1b;}</style></defs><g id="a"><g class="e"><path class="c" d="M117.25,258.29c-4.96,1.77-20.29,6.54-37.34,.48-2.83-1-28.43-6.49-30.23-28.53-.83-10.19-2.54-20.02-4.22-37.39-.82-8.45-9-6.79-31.7-26.92-1.27-1.13-2.32-2.07-3.01-2.69-1.3-1.07-3.04-2.7-4.73-5-1.99-2.69-7.35-8.68-5.3-13.97,2.03-5.24,6.53-8.77,15.82-14.14,5-2.89,12.17-6.5,21.34-9.42,4.87-.86,9.73-1.72,14.6-2.59,2.04,.15,4.08,.3,6.13,.45,0,0-.28-1.56-.7-4.06-4.61-27.58-5.1-32.34-2.35-35.82,1.33-1.69,4.11-3.98,10.52-4.4,4.97,.59,11.52,1.78,18.85,4.34,3.05,1.07,13.32,4.85,24.59,13.36,12.65,9.56,20.7,20.66,25.62,29.08l23.2,35.99s23.77,38.76,25.71,39.62c1.94,.86,8.59,17.16,20.13,26.06,11.46,8.84,18.16,10.63,19.09,17.79,1.46,11.3-14.72,23.07-16.34,24.23-.69,.49-1.37,.95-2.07,1.39-.99,.63-1.99,1.2-3,1.73-1.02,.54-2.04,1.02-3.08,1.47-9.59,4.13-19.75,4.56-30.18,4.99-7.76,.32-14.16-.18-18.57-.71-6.55-1.01-16.26-3.42-26-9.84-9.55-6.29-15.1-13.77-20.99-22.73-11.75-17.88-21.77-33.12-30.6-57.66-5.48-15.22-11.64-37.18-13.84-64.83"/><path class="c" d="M201.85,267.9c10.58-2.58,21.69-5.01,33.29-7.21,12.82-2.44,25.12-4.39,36.84-5.94,13.68-1.81,24.09-3.14,30.22-3.84,12.02-1.37,22.56-2.4,31.19-3.16,1.82-.08,7.69-.54,10.28-4.63,2.13-3.36,1.02-7.53-.95-13.03-2.38-6.65-6.18-15.75-12.36-26.23-1.75-2.74-4.84-7.59-8.64-13.71-8.45-13.6-10.69-17.7-13.62-19.31-.54-.3-1-.47-1.68-.67-6.29-1.87-13.19,2.61-20.52,7.49-1.17,.78-2.67,1.82-4.38,3.12-6.88,4.65-13.76,9.29-20.64,13.94l-24.38,16.15-5.07,3.04-5.4,3.23-16.23,9.72c2.87-1.6,6.74-3.9,11.13-7,3.63-2.57,8.98-6.35,14.81-12.3,2.02-2.06,4.69-5,7.57-8.82-.55,.74-.99,1.3-1.4,1.81-1.4,1.73-2.75,3.28-2.77,3.26-.03-.02,2.21-2.57,4.16-5.07,2.68-3.43,8.36-10.79,11.72-20.46,.6-1.72,1.2-3.73,2.37-7.64,.1-.35,1.25-4.01,2.28-7.93,2.45-9.29,3.81-15.33,4.52-17.83,4.36-15.16,17.23-14.78,27.2-31.56,1.4-2.35,8.68-16.55,3.98-27.89-5.33-12.88-24.51-17.92-24.39-18.15,.03-.05,1.03,.43,1.04,.41,.03-.06-10.22-4.57-21.11-11.15-2.35-1.42-2.83-1.79-5.24-3.19-5.39-3.13-9.97-5.34-13.03-6.73-1.9-.96-4.68-2.29-8.05-3.85-5.15-2.4-7.77-3.51-10.01-4.16-7.78-2.24-15-.27-18.46,.68-7.61,2.09-12.71,5.78-17.33,9.12-6.05,4.38-10.45,8.93-13.35,12.32-1.13-.73-2.27-1.47-3.4-2.2l-11.18-5.77c-.35-.19-.7-.35-1.04-.48-4.23-1.59-8.85,.73-10.91,1.94-.89,.62-2.19,1.65-3.42,3.2-5.28,6.59-3.67,19.47-3.4,22.26,.68,7.15,.44,17.47-3.98,30.9,1.29,1.98,2.57,3.96,3.86,5.94,4.57,7.02,9.15,14,13.73,20.95,4.82,7.52,9.64,15.04,14.46,22.57l1.88,3.02,5.61,9.03c.55,.88,1.1,1.75,1.65,2.63,12.37-1.49,29.36-4.69,48.73-12.06,32.33-12.29,53.38-29.35,53.37-29.37,0-.02-21.84,17.48-54.53,29.73-19.31,7.24-36.05,10.27-47.58,11.69-2.19-3.47-4.38-6.94-6.58-10.41,3.19-1.75,8.3-4.43,14.77-7.3,8.2-3.63,10.75-4.09,21.71-8.62,8.53-3.53,14.88-6.52,17.32-7.68,7.91-3.77,14.4-7.24,19.08-9.85,3.3-1.9,8.07-4.75,13.68-8.47,6.45-4.29,9.68-6.43,12.22-8.74,2.41-2.19,11.95-11.1,14.77-24.99,.89-4.4,2.45-12.07-1.75-17.97-1.67-2.35-3.75-3.71-5.26-4.48-3.49-1.58-8.59-4.04-14.63-7.49-3.2-1.83-2.52-1.57-3.69-2.17-11.37-5.8-23.81-3.78-29.34-2.88-.53,.09-.95,.16-1.14,.2-3.22,1.3-8.94,4.15-13.78,10.06-5.23,6.4-10.72,17.97-6.72,25.23,.73,1.32,4.12,3.18,10.87,6.84,4.4,2.39,11.27,5.95,19.05,6.96,1.61,.21,3.83,.38,6.22-.78,2.88-1.41,4.36-3.96,4.88-4.88,.32-.57,4.08-7.49,.25-12.99-2.41-3.45-6.95-5.09-11.17-3.7-3.51,1.16-5.37,3.78-5.86,4.58"/><path class="c" d="M165.47,60.74c4.25,5.26,10,11.5,17.52,17.66,6.68,5.48,11.7,8.39,21.68,14.19,11.66,6.78,17.37,8.85,23.69,9.76,2.53,.37,4.66,.47,6.11,.51"/><path class="c" d="M86.13,79.37c-.15-.07-.28-.15-.42-.23-4.65-3.15,.89-19.12,3.6-26.23,.91-2.4,2.11-4.71,4.1-7.59,3.99-5.77,8.67-9.15,12.15-11.45,15.06-9.97,27.73-14.12,27.73-14.12C202.85-3.08,216.33-.42,222.98,1.41c13.62,3.76,20.19,10,22.81,12.89,2.45,2.71,13.9,15.37,9.73,30.26-1.52,5.42-4.54,9.3-6.68,11.54"/><path class="c" d="M256.38,39.32c4.6-1.51,11.94-3.44,20.83-3.51,36.58-.28,70.87,31.14,75.69,67.79,.93,7.07,2.35,19.07-3.73,32.16-7.87,16.94-28.45,25.38-45.3,32.93-4.37,1.96-8.02,3.37-10.42,4.25-7.59,5.32-15.35,10.64-23.28,15.94-20.54,13.74-40.7,26.37-60.36,37.99"/></g><g><path class="d" d="M133.16,198.13h-11.06v7.22h9.62v1.41h-9.62v9.21h-1.41v-19.25h12.46v1.41Z"/><path class="d" d="M151.28,215.97h-13.9v-19.25h13.43v1.41h-12.02v7.12h11.27v1.41h-11.27v7.91h12.5v1.41Z"/><path class="d" d="M162.65,216.32c-1.3,0-2.44-.14-3.41-.41s-1.79-.67-2.45-1.18-1.17-1.12-1.52-1.85-.56-1.53-.62-2.43h1.39c.14,.87,.4,1.59,.79,2.16s.86,1.03,1.43,1.37,1.22,.58,1.94,.72,1.5,.21,2.32,.21,1.63-.09,2.31-.27,1.27-.45,1.76-.79,.86-.76,1.12-1.25,.39-1.03,.39-1.64c0-.64-.11-1.19-.33-1.63s-.6-.82-1.12-1.15-1.22-.62-2.08-.88-1.93-.52-3.21-.79c-1.05-.23-1.96-.5-2.72-.81s-1.38-.66-1.87-1.06-.86-.87-1.09-1.39-.35-1.13-.35-1.82c0-.75,.16-1.44,.47-2.06s.76-1.15,1.34-1.6,1.28-.79,2.09-1.04,1.71-.37,2.7-.37,1.89,.11,2.71,.34,1.54,.56,2.15,.99,1.11,.96,1.49,1.58,.62,1.32,.73,2.11h-1.35c-.13-.52-.34-1-.63-1.44s-.67-.83-1.13-1.15-1.01-.57-1.65-.76-1.37-.27-2.19-.27c-1.72,0-3.03,.32-3.91,.95s-1.33,1.5-1.33,2.6c0,.5,.08,.94,.25,1.32s.44,.71,.83,1.01,.91,.56,1.56,.79,1.45,.44,2.41,.64c.56,.12,1.14,.24,1.74,.37s1.18,.28,1.75,.46,1.11,.39,1.63,.65,.96,.57,1.34,.95,.69,.82,.91,1.34,.34,1.14,.34,1.85c0,.82-.17,1.57-.52,2.26s-.83,1.28-1.44,1.78-1.35,.88-2.2,1.16-1.77,.41-2.77,.41Z"/><path class="d" d="M187.05,198.13h-6.73v17.84h-1.41v-17.84h-6.66v-1.41h14.8v1.41Z"/><path class="d" d="M192.52,215.97h-1.41v-19.25h1.41v19.25Z"/><path class="d" d="M213.14,196.72l-7.54,19.25h-1.81l-7.54-19.25h1.56l6.89,17.49,6.89-17.49h1.55Z"/><path class="d" d="M231.56,215.97h-1.69l-2.36-6.19h-9.47c-.34,.97-.71,2-1.11,3.08s-.78,2.12-1.14,3.1h-1.49c.63-1.66,1.26-3.29,1.87-4.89s1.23-3.18,1.84-4.75,1.22-3.16,1.84-4.75,1.24-3.22,1.87-4.87h1.99l7.86,19.27Zm-4.45-7.29l-4.46-10.71-4.24,10.71h8.7Z"/><path class="d" d="M245.95,215.97h-11.34v-19.25h1.41v17.84h9.93v1.41Z"/></g><g><path class="f" d="M35.48,172.15l-11.63,5.33c-.23-.52-.41-.9-.52-1.14-.23-.06-.38-.26-.44-.61v-.96c-.64-2.8-2.1-7.47-4.37-14.03-2.27-6.56-4.55-12.63-6.82-18.23-2.27-5.59-3.75-9.32-4.41-11.19-.67-1.86-1.09-3.52-1.27-4.98,.06-.29,.15-.58,.26-.87h.09l10.31-2.88c.47,.29,1.08,1.84,1.84,4.63,2.74,9.97,6.61,20.69,11.63,32.17,3.03-8.86,4.9-17.98,5.59-27.36,.35-4.72,.86-8.09,1.53-10.1,.67-2.01,1.78-3.47,3.32-4.37,1.54-.9,2.61-1.38,3.19-1.44,3.2,.06,5.25,1.4,6.12,4.02l-4.63,9.35c-.47,1.05-1.02,2.27-1.66,3.67-3.15,7.17-5.8,17.02-7.95,29.55-.47,2.8-.7,4.95-.7,6.47s.17,2.51,.52,2.97Z"/><path class="f" d="M51.48,174.07c.87-10.49,1.31-21.36,1.31-32.61v-1.4c0-2.16-.15-7.08-.44-14.77v-1.75l-.09-1.31c.06-.76,.2-1.25,.44-1.49l.7-.17h.09l7.43-3.76c1.17,.41,1.89,2.1,2.19,5.07v1.92c0,1.17-.23,4.85-.7,11.06-.47,6.21-.7,12.02-.7,17.44s.23,10.58,.7,15.47c1.11,.47,1.66,1.72,1.66,3.76v4.28c-2.62,3.67-4.11,5.65-4.46,5.94-.35,.29-.73,.44-1.14,.44s-1.44-.57-3.1-1.71c-1.66-1.14-2.99-2.03-3.98-2.67l-.09-1.05,.17-2.71Z"/><path class="f" d="M98.68,178.09l-1.4-.26c-.06,0-.71-.12-1.97-.35-1.25-.23-3.25-.35-5.99-.35-5.94,0-11.04,.79-15.3,2.36-.76,.17-1.25,.26-1.49,.26h-.52l-1.4-9.79c.23-.29,.47-.52,.7-.7v-3.23c0-10.78-.55-22.81-1.66-36.1-.17-1.34-.26-2.68-.26-4.02s.29-2.3,.87-2.88l9.35-.96c.23,.23,.45,.57,.66,1,.2,.44,.31,1.59,.31,3.45v1.92l-.09,5.59c0,12.88,.52,23.86,1.57,32.96,4.08-.35,8.38-.52,12.89-.52s7.36,.26,8.52,.79c.87,.58,1.31,1.36,1.31,2.32s-.21,1.85-.61,2.67c-.17,.29-.76,.76-1.75,1.4l-1.05-.44-1.49,1.05c-.52,.93-.79,1.81-.79,2.62s-.15,1.22-.44,1.22Z"/><path class="f" d="M112.67,162.71l1.22-.09c.35,0,.7,.23,1.05,.7,.35,.47,.9,.96,1.66,1.49v-.35c-.12-11.89-.7-21.85-1.75-29.9-.29,.7-.5,1.05-.61,1.05s-.26-.03-.44-.09l-7.26,3.32c-.41-.64-.61-1.47-.61-2.49s.14-2.14,.44-3.37c1.05-3.09,3.52-6.38,7.43-9.88,4.08-3.2,8.1-5.24,12.06-6.12,1.11-.23,3-.44,5.68-.61,4.49,.12,8.33,1.22,11.54,3.32,7.17,4.72,11.16,12.38,11.98,22.99,0,4.72-.93,9.44-2.8,14.16-3.15,8.22-8.83,14.45-17.05,18.71-.23,.12-1.25,.47-3.06,1.05-2.62,.64-5.49,.96-8.61,.96s-6.51-.5-10.18-1.49c-3.96-1.46-6.76-3.26-8.39-5.42-.82-1.17-1.22-2.54-1.22-4.11,.17-1.57,.35-2.54,.52-2.88,.52-.93,2.21-1.75,5.07-2.45l.52,.17,.79,.79c.64,.35,1.31,.52,2.01,.52Zm31.56-19.93c0-5.83-1.92-10.49-5.77-13.99-2.51-2.27-5.33-3.41-8.48-3.41-1.81,0-3.56,.26-5.24,.79,.41,3.61,.61,8.22,.61,13.81,.17,9.27,.7,18.12,1.57,26.57,8.45-1.11,13.96-6.67,16.52-16.7,.47-1.86,.73-3.73,.79-5.59v-1.49Z"/><path class="f" d="M169.66,162.71l-.7,1.4v.44c.52,1.28,2.69,1.91,6.51,1.88,3.82-.03,9.57-.83,17.26-2.4,.35,0,.68,.15,1,.44,.32,.29,.57,.44,.74,.44l.44-.26v-.61c0-.93-2.18-2.59-6.56-4.98-2.68-1.17-4.58-1.98-5.68-2.45-6.88-2.85-11.57-5.16-14.07-6.91-4.95-3.55-7.69-7.78-8.22-12.67-.06-.52-.12-.9-.17-1.14,.12-2.8,.41-4.92,.87-6.38,.47-1.46,1.17-2.83,2.1-4.11,.93-1.28,1.63-2.13,2.1-2.54,.47-.41,1.49-1.14,3.06-2.19,4.43-2.97,8.97-4.46,13.64-4.46,3.03,0,6.19,.85,9.48,2.54,3.29,1.69,5.87,4.14,7.74,7.34,.99,1.92,1.49,3.25,1.49,3.98s-.09,1.33-.26,1.79l-10.14,1.14c-.12,.06-.23,.09-.35,.09s-.23-.15-.35-.44c-1.34-2.56-3.61-4.4-6.82-5.51-.93-.17-1.81-.29-2.62-.35-5.89,.17-8.83,2.88-8.83,8.13,0,2.33,1.72,4.98,5.16,7.95,.23,.23,.44,.38,.61,.44,2.68,2.16,6.89,4.65,12.63,7.47,5.74,2.83,9.03,4.55,9.88,5.16,.84,.61,1.65,1.27,2.4,1.97l1.14,1.05c1.17,1.57,1.75,3.02,1.75,4.33s-.15,2.43-.44,3.37c-.93,2.68-3.5,5.01-7.69,6.99-1.98,.82-3.32,1.46-4.02,1.92-5.94,1.81-11.54,2.68-16.78,2.62h-2.01c-6-.41-10.31-1.82-12.94-4.24-2.62-2.42-3.96-5.32-4.02-8.7,0-2.27,1.05-4.63,3.15-7.08,1.75-.99,2.84-1.53,3.28-1.62,.44-.09,.9-.13,1.4-.13s1.44,.17,2.84,.52l.17,.17c1.11,2.16,1.75,3.5,1.92,4.02l-.09,.87v.7Z"/><path class="f" d="M209.96,146.45l-.52-19.58c0-2.33,.38-3.53,1.14-3.58l8.57-2.36c.7,.58,1.17,2.13,1.4,4.63v1.66c-.06,1.75-.16,4.11-.31,7.08-.15,2.97-.22,5.1-.22,6.38,6.41-4.9,12.5-10.58,18.27-17.05,.99-1.17,1.66-1.84,2.01-2.01l.79-.26h.09l7.52,3.67c.06,.12,.09,.23,.09,.35v.35c0,.23-.07,.41-.22,.52-.15,.12-.37,.38-.66,.79-1.4,1.69-7.87,7.4-19.41,17.13-.82,.7-1.57,1.37-2.27,2.01,1.46,1.46,5.23,5.68,11.32,12.67,6.09,6.99,10.04,10.99,11.84,11.98-1.17,.87-3,2.24-5.51,4.11-2.51,1.87-4.34,3.23-5.51,4.11v-.26l-.09,.09c-.17-.7-.79-1.89-1.84-3.58-5.48-8.04-10.96-14.34-16.43-18.88,.23,7.23,.67,13.2,1.31,17.92l-.52,1.49c-2.92,.64-6.62,1.11-11.1,1.4-.12,0-.23-.14-.35-.44v-.7c.47-8.74,.7-15.59,.7-20.54v-5.16l-.53-2.88c0-.29,.15-.64,.44-1.05Zm.09,29.46c.06,0,.29-.03,.7-.09-.35,.06-.58,.09-.7,.09Z"/><path class="f" d="M251.48,130.89c1.11-4.31,1.91-6.47,2.4-6.47s4.01,.29,10.53,.87v.87c-.12,1.17-.41,2.74-.87,4.72-1.81,8.04-2.71,14.57-2.71,19.58,.06,8.51,1.46,14.48,4.2,17.92,.87,.99,1.73,1.49,2.58,1.49s1.5-.14,1.97-.44c.47-.29,.71-.44,.74-.44s.04,.01,.04,.04-.15,.19-.44,.48c1.75-1.46,3.03-2.71,3.85-3.76,2.21-3.03,4.11-6.96,5.68-11.8l-.87-21.59c.12-3.32,.28-5.32,.48-5.99,.2-.67,.33-1.22,.39-1.66,.06-.44,.17-.71,.35-.83,.99-.29,2.78-.63,5.38-1.01,2.59-.38,4.07-.6,4.42-.66l.26,2.1,.35,7.69c-.35,3.32-.52,8.31-.52,14.95s.31,12.59,.92,17.83c.61,5.24,1.3,8.71,2.05,10.4l-1.84,4.89c-1.52,2.16-3,3.23-4.46,3.23s-3.06-.7-4.81-2.1c-.93-.76-1.43-2.45-1.49-5.07-.17-2.8-.32-6.96-.44-12.5-.93,2.86-1.63,4.76-2.1,5.73-.47,.96-1.14,2.14-2.01,3.54-.35,.29-1.17,1.08-2.45,2.36-2.57,2.45-5.07,3.67-7.52,3.67s-4.81-.82-7.08-2.45c-5.24-3.79-7.87-13.26-7.87-28.41,0-3.09,.29-8.83,.87-17.22Z"/><path class="f" d="M303.5,162.71l1.22-.09c.35,0,.7,.23,1.05,.7,.35,.47,.9,.96,1.66,1.49v-.35c-.12-11.89-.7-21.85-1.75-29.9-.29,.7-.5,1.05-.61,1.05s-.26-.03-.44-.09l-7.25,3.32c-.41-.64-.61-1.47-.61-2.49s.15-2.14,.44-3.37c1.05-3.09,3.53-6.38,7.43-9.88,4.08-3.2,8.1-5.24,12.06-6.12,1.11-.23,3-.44,5.68-.61,4.49,.12,8.33,1.22,11.54,3.32,7.17,4.72,11.16,12.38,11.98,22.99,0,4.72-.93,9.44-2.8,14.16-3.15,8.22-8.83,14.45-17.05,18.71-.23,.12-1.25,.47-3.06,1.05-2.62,.64-5.49,.96-8.61,.96s-6.51-.5-10.18-1.49c-3.96-1.46-6.76-3.26-8.39-5.42-.82-1.17-1.22-2.54-1.22-4.11,.18-1.57,.35-2.54,.53-2.88,.52-.93,2.21-1.75,5.07-2.45l.52,.17,.79,.79c.64,.35,1.31,.52,2.01,.52Zm31.56-19.93c0-5.83-1.92-10.49-5.77-13.99-2.51-2.27-5.33-3.41-8.48-3.41-1.81,0-3.56,.26-5.25,.79,.41,3.61,.61,8.22,.61,13.81,.17,9.27,.7,18.12,1.57,26.57,8.45-1.11,13.96-6.67,16.52-16.7,.47-1.86,.73-3.73,.79-5.59v-1.49Z"/></g></g><g id="b"/></svg>